<svg width="24" height="24" viewBox="0 0 24 24" fill="none" xmlns="http://www.w3.org/2000/svg">
<g clip-path="url(#clip0_729_617)">
<path fill-rule="evenodd" clip-rule="evenodd" d="M5.90224 3.09679C5.90482 2.35414 6.50895 1.74944 7.2516 1.74616L13.872 1.71687C14.2289 1.71529 14.5706 1.85562 14.8219 2.10696C15.0733 2.3583 15.2136 2.70002 15.212 3.05688L15.1827 9.67728C15.1794 10.4199 14.5747 11.0241 13.8321 11.0266C13.0894 11.0292 12.4901 10.4293 12.4934 9.68663L12.5167 4.41219L7.24225 4.43553C6.4996 4.43881 5.89965 3.83944 5.90224 3.09679Z" fill="#3E4551"/>
<path d="M12.9231 2.10452C13.4503 1.57731 14.3017 1.57395 14.8248 2.09701C15.3478 2.62007 15.3445 3.47148 14.8173 3.99868L3.99854 14.8174C3.47134 15.3446 2.61993 15.348 2.09687 14.8249C1.57381 14.3019 1.57717 13.4505 2.10438 12.9233L12.9231 2.10452Z" fill="#3E4551"/>
<path fill-rule="evenodd" clip-rule="evenodd" d="M10.1678 12.9734C9.42519 12.976 8.82049 13.5801 8.8172 14.3228L8.78791 20.9432C8.78633 21.3 8.92667 21.6418 9.178 21.8931C9.42934 22.1444 9.77107 22.2848 10.1279 22.2832L16.7483 22.2539C17.491 22.2506 18.0951 21.6459 18.0977 20.9033C18.1003 20.1606 17.5003 19.5612 16.7577 19.5645L11.4832 19.5879L11.5066 14.3134C11.5099 13.5708 10.9105 12.9708 10.1678 12.9734Z" fill="#3E4551"/>
<path d="M9.17556 19.9943C8.64836 20.5215 8.64499 21.3729 9.16805 21.896C9.69111 22.419 10.5425 22.4157 11.0697 21.8884L21.8885 11.0697C22.4157 10.5425 22.419 9.69109 21.896 9.16804C21.3729 8.64498 20.5215 8.64834 19.9943 9.17555L9.17556 19.9943Z" fill="#3E4551"/>
</g>
<defs>
<clipPath id="clip0_729_617">
<rect width="24" height="24" fill="white"/>
</clipPath>
</defs>
</svg>
