<svg width="24" height="24" viewBox="0 0 24 24" fill="none" xmlns="http://www.w3.org/2000/svg">
<rect x="2.05811" y="2.05798" width="19.8839" height="19.8839" rx="9.94196" fill="#3E4551"/>
<path d="M12.9066 14.1985H10.756C10.7616 13.7389 10.8009 13.3431 10.874 13.0111C10.9527 12.6741 11.0849 12.3702 11.2704 12.0995C11.4616 11.8289 11.7146 11.5608 12.0295 11.2952C12.2938 11.0807 12.5243 10.8764 12.7211 10.6824C12.9179 10.4883 13.0725 10.2892 13.185 10.0849C13.2974 9.87549 13.3536 9.64313 13.3536 9.38778C13.3536 9.09158 13.303 8.84645 13.2018 8.65239C13.1062 8.45322 12.9601 8.30257 12.7633 8.20043C12.5721 8.09829 12.3303 8.04722 12.0379 8.04722C11.7962 8.04722 11.5712 8.09574 11.3632 8.19277C11.1552 8.28469 10.9837 8.42768 10.8487 8.62175C10.7194 8.81581 10.6519 9.07115 10.6463 9.38778H8.20044C8.21731 8.68814 8.39442 8.11106 8.73178 7.65654C9.07477 7.19692 9.53302 6.85731 10.1065 6.63771C10.68 6.41301 11.3238 6.30066 12.0379 6.30066C12.8251 6.30066 13.4998 6.41812 14.0621 6.65304C14.6244 6.88285 15.0545 7.22246 15.3525 7.67186C15.6505 8.11616 15.7995 8.6575 15.7995 9.29586C15.7995 9.74016 15.7039 10.1359 15.5128 10.4832C15.3216 10.8254 15.0714 11.1446 14.7621 11.4408C14.4529 11.737 14.1127 12.0434 13.7416 12.36C13.4211 12.6205 13.2018 12.8937 13.0837 13.1797C12.9713 13.4656 12.9123 13.8053 12.9066 14.1985ZM10.5029 16.5655C10.5029 16.2387 10.6266 15.968 10.874 15.7535C11.1214 15.5339 11.4532 15.4241 11.8692 15.4241C12.2797 15.4241 12.6086 15.5339 12.856 15.7535C13.1091 15.968 13.2356 16.2387 13.2356 16.5655C13.2356 16.8822 13.1091 17.1503 12.856 17.3699C12.6086 17.5895 12.2797 17.6993 11.8692 17.6993C11.4532 17.6993 11.1214 17.5895 10.874 17.3699C10.6266 17.1503 10.5029 16.8822 10.5029 16.5655Z" fill="white"/>
</svg>
