<svg width="32" height="32" viewBox="0 0 32 32" fill="none" xmlns="http://www.w3.org/2000/svg">
<rect width="32" height="32" rx="16" fill="#EAC33B"/>
<path d="M21.5185 14.787L21.2063 14.0064L20.6527 12.6222C20.1774 11.4342 19.0438 10.6667 17.7641 10.6667H14.2363C12.9568 10.6667 11.8229 11.4342 11.3477 12.6222L10.7941 14.0064L10.4818 14.787C9.81183 15.0417 9.3335 15.685 9.3335 16.4445V17.7778C9.3335 18.2256 9.50461 18.6297 9.77794 18.9425V20.4445C9.77794 20.9353 10.176 21.3334 10.6668 21.3334H11.5557C12.0466 21.3334 12.4446 20.9353 12.4446 20.4445V19.5556H19.5557V20.4445C19.5557 20.9353 19.9538 21.3334 20.4446 21.3334H21.3335C21.8243 21.3334 22.2224 20.9353 22.2224 20.4445V18.9425C22.4957 18.63 22.6668 18.2259 22.6668 17.7778V16.4445C22.6668 15.685 22.1885 15.0417 21.5185 14.787ZM12.9982 13.2825C13.2007 12.7764 13.691 12.4445 14.2363 12.4445H17.7641C18.3093 12.4445 18.7996 12.7764 19.0021 13.2825L19.5557 14.6667H12.4446L12.9982 13.2825ZM11.5557 17.7722C11.0224 17.7722 10.6668 17.4178 10.6668 16.8861C10.6668 16.3545 11.0224 16 11.5557 16C12.0891 16 12.8891 16.7975 12.8891 17.3292C12.8891 17.8609 12.0891 17.7722 11.5557 17.7722ZM20.4446 17.7722C19.9113 17.7722 19.1113 17.8609 19.1113 17.3292C19.1113 16.7975 19.9113 16 20.4446 16C20.9779 16 21.3335 16.3545 21.3335 16.8861C21.3335 17.4178 20.9779 17.7722 20.4446 17.7722Z" fill="white"/>
</svg>
