<svg width="24" height="25" viewBox="0 0 24 25" fill="none" xmlns="http://www.w3.org/2000/svg">
<path d="M11.2459 23.0001C10.8765 22.9407 10.5053 22.889 10.1377 22.8202C8.4137 22.504 6.80664 21.7207 5.48755 20.5536C3.73079 19.0119 2.59548 17.0823 2.1834 14.7677C1.61575 11.5784 2.36877 8.71578 4.45047 6.24275C5.69291 4.76713 7.26119 3.76838 9.08818 3.19432C9.99928 2.91035 10.9465 2.76272 11.8998 2.75613C12.054 2.75613 12.2087 2.75613 12.4257 2.75613L11.1553 1.63681C11.0704 1.56202 11.0644 1.43177 11.142 1.34946C11.4162 1.05871 11.6869 0.771322 11.9622 0.478998C12.0376 0.398956 12.1634 0.394765 12.244 0.469618L15.5849 3.57493L12.5405 6.85063C12.4643 6.93265 12.3355 6.93611 12.255 6.8583L11.3914 6.02381C11.3138 5.9488 11.3097 5.8257 11.3822 5.7457L12.4017 4.62046C9.70341 4.33389 5.83383 5.94808 4.33578 9.91788C3.64307 11.7356 3.60742 13.7427 4.23512 15.5844C4.86282 17.4262 6.11348 18.9842 7.76617 19.9832C11.4713 22.2385 16.0374 21.2235 18.5565 17.8782C21.009 14.6207 20.8536 9.51422 17.19 6.42496C17.1071 6.35508 17.0914 6.2317 17.1575 6.14579C17.2971 5.9644 17.4383 5.78258 17.5781 5.60077L18.011 5.0383C18.0828 4.94494 18.2194 4.93357 18.3067 5.01272C18.6085 5.28654 18.9082 5.54535 19.1798 5.83201C20.5738 7.29729 21.4851 9.02935 21.8291 11.0322C22.3434 14.0231 21.7047 16.7539 19.8474 19.1518C18.4027 21.017 16.5077 22.2011 14.23 22.7464C13.8081 22.8476 13.3721 22.8868 12.9409 22.9569C12.892 22.9684 12.844 22.9835 12.7973 23.0019L11.2459 23.0001Z" fill="#3E4551"/>
<path d="M11.3843 18.0393C11.3843 17.7644 11.3763 17.5179 11.3874 17.2718C11.395 17.109 11.3528 17.0469 11.1772 17.0158C10.2672 16.8647 9.49643 16.4665 8.97767 15.6617C8.86609 15.488 8.77897 15.2986 8.6665 15.0867L10.1334 14.4537C10.7918 15.4885 12.0858 15.874 13.1606 15.3602C13.274 15.3056 13.3789 15.2343 13.4718 15.1488C13.7959 14.8478 13.7776 14.3143 13.3865 14.1217C13.0166 13.9395 12.5988 13.8455 12.1934 13.7523C11.591 13.6138 10.966 13.5602 10.3779 13.3798C9.5231 13.1185 9.07724 12.4801 9.04435 11.5744C9.01323 10.7134 9.3733 10.0448 10.1268 9.64308C10.5122 9.43749 10.9429 9.31827 11.3879 9.14821V8.31592H12.9677V9.21344C13.9546 9.3853 14.7218 9.85588 15.1374 10.8294L13.811 11.4534C13.1544 10.6184 12.2907 10.5294 11.3501 10.7471C11.1788 10.7904 11.0197 10.8734 10.8856 10.9896C10.5522 11.2757 10.6064 11.7544 11.0114 11.9173C11.3488 12.0522 11.7204 12.1026 12.0782 12.1791C12.7041 12.3141 13.3469 12.3883 13.9554 12.5772C14.7783 12.8332 15.2859 13.4167 15.3673 14.3147C15.4602 15.3391 15.085 16.1363 14.1746 16.619C13.8541 16.7886 13.4869 16.8737 13.1349 16.9749C13.0184 17.0082 12.9748 17.0428 12.977 17.1629C12.9833 17.4522 12.9793 17.7415 12.9793 18.0411L11.3843 18.0393Z" fill="#3E4551"/>
</svg>
