<svg width="24" height="24" viewBox="0 0 24 24" fill="none" xmlns="http://www.w3.org/2000/svg">
<path d="M3.25 19.5C3.25 20.1914 3.80859 20.75 4.5 20.75H10.75V14.5H3.25V19.5ZM13.25 20.75H19.5C20.1914 20.75 20.75 20.1914 20.75 19.5V14.5H13.25V20.75ZM20.75 8.25H19.1055C19.3477 7.77734 19.5 7.25391 19.5 6.6875C19.5 4.79297 17.957 3.25 16.0625 3.25C14.4375 3.25 13.3867 4.08203 12.0391 5.91797C10.6914 4.08203 9.64062 3.25 8.01562 3.25C6.12109 3.25 4.57812 4.79297 4.57812 6.6875C4.57812 7.25391 4.72656 7.77734 4.97266 8.25H3.25C2.55859 8.25 2 8.80859 2 9.5V12.625C2 12.9688 2.28125 13.25 2.625 13.25H21.375C21.7188 13.25 22 12.9688 22 12.625V9.5C22 8.80859 21.4414 8.25 20.75 8.25ZM8.01172 8.25C7.14844 8.25 6.44922 7.55078 6.44922 6.6875C6.44922 5.82422 7.14844 5.125 8.01172 5.125C8.78906 5.125 9.36328 5.25391 11.375 8.25H8.01172ZM16.0625 8.25H12.6992C14.707 5.26172 15.2656 5.125 16.0625 5.125C16.9258 5.125 17.625 5.82422 17.625 6.6875C17.625 7.55078 16.9258 8.25 16.0625 8.25Z" fill="#3E4551"/>
</svg>
