<svg width="24" height="24" viewBox="0 0 24 24" fill="none" xmlns="http://www.w3.org/2000/svg">
<path fill-rule="evenodd" clip-rule="evenodd" d="M14.6435 2.54444C13.9015 2.19452 13.0744 2 12.2063 2C9.31562 2 6.87932 4.15675 6.52875 7.02608L6.06203 10.8461C5.86979 12.4196 5.06268 13.853 3.817 14.8334L3.50874 15.076C3.18751 15.3288 3 15.715 3 16.1238V16.3751C3 17.1115 3.59695 17.7084 4.33333 17.7084H20.0792C20.8156 17.7084 21.4126 17.1115 21.4126 16.3751V16.1238C21.4126 15.715 21.225 15.3288 20.9038 15.076L20.5956 14.8334C19.3499 13.853 18.5428 12.4196 18.3505 10.8461L18.2401 9.94263C15.8393 9.57659 14 7.50309 14 5C14 4.10757 14.2338 3.26975 14.6435 2.54444ZM14.9681 18.9551C14.9681 20.3957 13.7315 21.5634 12.2062 21.5634C10.6809 21.5634 9.44432 20.3957 9.44432 18.9551H14.9681Z" fill="#3E4551"/>
<circle cx="19" cy="5" r="4" fill="#FF3333"/>
</svg>
