<svg width="24" height="24" viewBox="0 0 24 24" fill="none" xmlns="http://www.w3.org/2000/svg">
<path d="M20.6801 15.0505L15.125 12L20.6801 8.94949C21.1408 8.69648 21.3036 8.11418 21.0407 7.65898L20.2798 6.34098C20.017 5.88578 19.4313 5.73555 18.9818 6.00805L13.5625 9.29367L13.6982 2.95758C13.7095 2.43207 13.2866 2 12.7609 2H11.2391C10.7134 2 10.2905 2.43207 10.3018 2.95758L10.4375 9.29367L5.01817 6.00809C4.56871 5.73559 3.98305 5.88582 3.72024 6.34102L2.9593 7.65902C2.69649 8.11422 2.85922 8.69652 3.31996 8.94953L8.875 12L3.31992 15.0505C2.85918 15.3035 2.69645 15.8858 2.9593 16.341L3.72024 17.659C3.98305 18.1142 4.56871 18.2645 5.01817 17.992L10.4375 14.7063L10.3018 21.0424C10.2905 21.5679 10.7134 22 11.2391 22H12.761C13.2866 22 13.7095 21.5679 13.6983 21.0424L13.5625 14.7063L18.9818 17.9919C19.4313 18.2644 20.017 18.1142 20.2798 17.659L21.0407 16.341C21.3035 15.8858 21.1408 15.3035 20.6801 15.0505Z" fill="#3E4551"/>
</svg>
