<svg width="24" height="24" viewBox="0 0 24 24" fill="none" xmlns="http://www.w3.org/2000/svg">
<path d="M20.3333 4.22223H3.66667C2.74653 4.22223 2 4.96876 2 5.8889V18.1111C2 19.0313 2.74653 19.7778 3.66667 19.7778H20.3333C21.2535 19.7778 22 19.0313 22 18.1111V5.8889C22 4.96876 21.2535 4.22223 20.3333 4.22223ZM8.11111 7.55556C9.33681 7.55556 10.3333 8.55209 10.3333 9.77778C10.3333 11.0035 9.33681 12 8.11111 12C6.88542 12 5.88889 11.0035 5.88889 9.77778C5.88889 8.55209 6.88542 7.55556 8.11111 7.55556ZM12 15.7778C12 16.1458 11.6528 16.4445 11.2222 16.4445H5C4.56944 16.4445 4.22222 16.1458 4.22222 15.7778V15.1111C4.22222 14.007 5.26736 13.1111 6.55556 13.1111H6.72917C7.15625 13.2882 7.62153 13.3889 8.11111 13.3889C8.60069 13.3889 9.06944 13.2882 9.49306 13.1111H9.66667C10.9549 13.1111 12 14.007 12 15.1111V15.7778ZM19.7778 13.9445C19.7778 14.0972 19.6528 14.2222 19.5 14.2222H14.5C14.3472 14.2222 14.2222 14.0972 14.2222 13.9445V13.3889C14.2222 13.2361 14.3472 13.1111 14.5 13.1111H19.5C19.6528 13.1111 19.7778 13.2361 19.7778 13.3889V13.9445ZM19.7778 11.7222C19.7778 11.875 19.6528 12 19.5 12H14.5C14.3472 12 14.2222 11.875 14.2222 11.7222V11.1667C14.2222 11.0139 14.3472 10.8889 14.5 10.8889H19.5C19.6528 10.8889 19.7778 11.0139 19.7778 11.1667V11.7222ZM19.7778 9.50001C19.7778 9.65278 19.6528 9.77778 19.5 9.77778H14.5C14.3472 9.77778 14.2222 9.65278 14.2222 9.50001V8.94445C14.2222 8.79167 14.3472 8.66667 14.5 8.66667H19.5C19.6528 8.66667 19.7778 8.79167 19.7778 8.94445V9.50001Z" fill="#3E4551"/>
</svg>
