<svg width="24" height="24" viewBox="0 0 24 24" fill="none" xmlns="http://www.w3.org/2000/svg">
<path d="M21.1667 5H5.05556C4.59531 5 4.22222 5.37309 4.22222 5.83333V6.11111H2.83333C2.37309 6.11111 2 6.4842 2 6.94444V16.3889C2 17.4628 2.87056 18.3333 3.94444 18.3333H20.3333C21.2538 18.3333 22 17.5872 22 16.6667V5.83333C22 5.37309 21.6269 5 21.1667 5ZM3.94444 16.6667C3.87077 16.6667 3.80012 16.6374 3.74803 16.5853C3.69593 16.5332 3.66667 16.4626 3.66667 16.3889V7.77778H4.22222V16.3889C4.22222 16.4626 4.19296 16.5332 4.14086 16.5853C4.08877 16.6374 4.01812 16.6667 3.94444 16.6667ZM12.1389 16.1111H6.86111C6.63101 16.1111 6.44444 15.9245 6.44444 15.6944V15.4167C6.44444 15.1866 6.63101 15 6.86111 15H12.1389C12.369 15 12.5556 15.1866 12.5556 15.4167V15.6944C12.5556 15.9245 12.369 16.1111 12.1389 16.1111ZM19.3611 16.1111H14.0833C13.8532 16.1111 13.6667 15.9245 13.6667 15.6944V15.4167C13.6667 15.1866 13.8532 15 14.0833 15H19.3611C19.5912 15 19.7778 15.1866 19.7778 15.4167V15.6944C19.7778 15.9245 19.5912 16.1111 19.3611 16.1111ZM12.1389 12.7778H6.86111C6.63101 12.7778 6.44444 12.5912 6.44444 12.3611V12.0833C6.44444 11.8532 6.63101 11.6667 6.86111 11.6667H12.1389C12.369 11.6667 12.5556 11.8532 12.5556 12.0833V12.3611C12.5556 12.5912 12.369 12.7778 12.1389 12.7778ZM19.3611 12.7778H14.0833C13.8532 12.7778 13.6667 12.5912 13.6667 12.3611V12.0833C13.6667 11.8532 13.8532 11.6667 14.0833 11.6667H19.3611C19.5912 11.6667 19.7778 11.8532 19.7778 12.0833V12.3611C19.7778 12.5912 19.5912 12.7778 19.3611 12.7778ZM19.3611 9.44444H6.86111C6.63101 9.44444 6.44444 9.25788 6.44444 9.02778V7.63889C6.44444 7.40878 6.63101 7.22222 6.86111 7.22222H19.3611C19.5912 7.22222 19.7778 7.40878 19.7778 7.63889V9.02778C19.7778 9.25788 19.5912 9.44444 19.3611 9.44444Z" fill="#3E4551"/>
</svg>
