<svg width="24" height="24" viewBox="0 0 24 24" fill="none" xmlns="http://www.w3.org/2000/svg">
<path fill-rule="evenodd" clip-rule="evenodd" d="M16.9311 14.3202C17.0562 14.3164 17.18 14.267 17.2747 14.1734L18.3509 13.1113C18.5559 12.9094 18.5487 12.5781 18.3334 12.3878C16.3655 10.6475 13.8407 9.85901 11.3682 10.0208L16.9311 14.3202ZM8.69978 7.95836C12.5861 6.85097 16.9278 7.74173 20.0822 10.6316C20.2815 10.8144 20.5903 10.81 20.7822 10.6197L21.8522 9.55813C22.0531 9.35844 22.049 9.0325 21.8409 8.84C17.5651 4.88519 11.4557 3.98573 6.34584 6.13902L8.69978 7.95836ZM4.38307 7.15007L6.53334 8.81199C5.60258 9.28877 4.72178 9.8953 3.9181 10.6316C3.71872 10.8144 3.40997 10.8103 3.2181 10.6197L2.1481 9.55813C1.94685 9.35844 1.95091 9.0325 2.15904 8.84C2.85572 8.1956 3.60116 7.63229 4.38307 7.15007ZM8.78403 10.5515L11.3436 12.5298C9.93049 12.6609 8.54975 13.2167 7.41404 14.1984C7.21435 14.3709 6.91248 14.3584 6.72498 14.1734L5.64873 13.1113C5.44404 12.9094 5.45091 12.5784 5.66654 12.3878C6.60134 11.5611 7.66234 10.9489 8.78403 10.5515ZM9.99998 17C9.99998 15.8953 10.8953 15 12 15C13.1047 15 14 15.8953 14 17C14 18.1047 13.1047 19 12 19C10.8953 19 9.99998 18.1047 9.99998 17Z" fill="#3E4551"/>
<path d="M20.5792 17.895L2.193 3.6845C1.97519 3.51512 1.93581 3.20106 2.10519 2.98293L2.71895 2.19323C2.88833 1.9751 3.2027 1.93573 3.42083 2.10542L21.807 16.3159C22.0248 16.4853 22.0642 16.7993 21.8948 17.0175L21.281 17.8072C21.1117 18.0253 20.7973 18.0644 20.5792 17.895Z" fill="#3E4551"/>
</svg>
