<svg width="24" height="24" viewBox="0 0 24 24" fill="none" xmlns="http://www.w3.org/2000/svg">
<path fill-rule="evenodd" clip-rule="evenodd" d="M4.97949 22.142L8.07051 19.834C8.17697 19.7545 8.32303 19.7545 8.42949 19.834L11.8205 22.366C11.927 22.4455 12.073 22.4455 12.1795 22.366L15.5705 19.834C15.677 19.7545 15.823 19.7545 15.9295 19.834L19.0205 22.142C19.2184 22.2897 19.5 22.1485 19.5 21.9016V2.1C19.5 1.76863 19.2314 1.5 18.9 1.5H5.1C4.76863 1.5 4.5 1.76863 4.5 2.1V21.9016C4.5 22.1485 4.78164 22.2897 4.97949 22.142ZM7.8 6C7.63431 6 7.5 6.13431 7.5 6.3V7.2C7.5 7.36569 7.63431 7.5 7.8 7.5H16.2C16.3657 7.5 16.5 7.36569 16.5 7.2V6.3C16.5 6.13431 16.3657 6 16.2 6H7.8ZM7.5 9.3C7.5 9.13431 7.63431 9 7.8 9H16.2C16.3657 9 16.5 9.13431 16.5 9.3V10.2C16.5 10.3657 16.3657 10.5 16.2 10.5H7.8C7.63431 10.5 7.5 10.3657 7.5 10.2V9.3ZM7.8 12C7.63431 12 7.5 12.1343 7.5 12.3V13.2C7.5 13.3657 7.63431 13.5 7.8 13.5H16.2C16.3657 13.5 16.5 13.3657 16.5 13.2V12.3C16.5 12.1343 16.3657 12 16.2 12H7.8Z" fill="#3E4551"/>
</svg>
