<svg width="24" height="24" viewBox="0 0 24 24" fill="none" xmlns="http://www.w3.org/2000/svg">
<path d="M16.5 3.25C16.5 2.91848 16.3683 2.60054 16.1339 2.36612C15.8995 2.1317 15.5815 2 15.25 2C14.9185 2 14.6005 2.1317 14.3661 2.36612C14.1317 2.60054 14 2.91848 14 3.25V7H16.5V3.25ZM18.375 8.25H4.625C4.45924 8.25 4.30027 8.31585 4.18306 8.43306C4.06585 8.55027 4 8.70924 4 8.875V10.125C4 10.2908 4.06585 10.4497 4.18306 10.5669C4.30027 10.6842 4.45924 10.75 4.625 10.75H5.25V12C5.25022 13.4407 5.74793 14.8371 6.65898 15.9531C7.57004 17.0692 8.83853 17.8364 10.25 18.125V22H12.75V18.125C14.1615 17.8364 15.43 17.0692 16.341 15.9531C17.2521 14.8371 17.7498 13.4407 17.75 12V10.75H18.375C18.5408 10.75 18.6997 10.6842 18.8169 10.5669C18.9342 10.4497 19 10.2908 19 10.125V8.875C19 8.70924 18.9342 8.55027 18.8169 8.43306C18.6997 8.31585 18.5408 8.25 18.375 8.25ZM9 3.25C9 2.91848 8.8683 2.60054 8.63388 2.36612C8.39946 2.1317 8.08152 2 7.75 2C7.41848 2 7.10054 2.1317 6.86612 2.36612C6.6317 2.60054 6.5 2.91848 6.5 3.25V7H9V3.25Z" fill="#3E4551"/>
</svg>
