<svg width="32" height="32" viewBox="0 0 32 32" fill="none" xmlns="http://www.w3.org/2000/svg">
<rect width="32" height="32" rx="16" fill="#64BF70"/>
<path d="M22.0002 12H10.0002C9.63204 12 9.3335 12.2985 9.3335 12.6667V19.3333C9.3335 19.7015 9.63204 20 10.0002 20H22.0002C22.3683 20 22.6668 19.7015 22.6668 19.3333V12.6667C22.6668 12.2985 22.3683 12 22.0002 12ZM10.3335 19V17.6667C11.07 17.6667 11.6668 18.2635 11.6668 19H10.3335ZM10.3335 14.3333V13H11.6668C11.6668 13.7365 11.07 14.3333 10.3335 14.3333ZM16.0002 18C15.0795 18 14.3335 17.1044 14.3335 16C14.3335 14.8954 15.0797 14 16.0002 14C16.9206 14 17.6668 14.8954 17.6668 16C17.6668 17.1048 16.9204 18 16.0002 18ZM21.6668 19H20.3335C20.3335 18.2635 20.9304 17.6667 21.6668 17.6667V19ZM21.6668 14.3333C20.9304 14.3333 20.3335 13.7365 20.3335 13H21.6668V14.3333Z" fill="white"/>
</svg>
