<svg width="24" height="24" viewBox="0 0 24 24" fill="none" xmlns="http://www.w3.org/2000/svg">
<path d="M21.546 7.53861L19.4386 4.17457C19.2502 3.87259 18.9158 3.6875 18.5586 3.6875H5.44014C5.08296 3.6875 4.7485 3.87259 4.56017 4.17457L2.45277 7.53861C1.36498 9.27583 2.32938 11.6917 4.36209 11.9677C4.50821 11.9872 4.65758 11.9969 4.80695 11.9969C5.7681 11.9969 6.61885 11.5748 7.20334 10.9221C7.78782 11.5748 8.64182 11.9969 9.59973 11.9969C10.5609 11.9969 11.4116 11.5748 11.9961 10.9221C12.5806 11.5748 13.4346 11.9969 14.3925 11.9969C15.3537 11.9969 16.2044 11.5748 16.7889 10.9221C17.3766 11.5748 18.2274 11.9969 19.1853 11.9969C19.3379 11.9969 19.484 11.9872 19.6301 11.9677C21.6694 11.6949 22.637 9.27908 21.546 7.53861ZM19.1918 13.0393C18.8671 13.0393 18.5456 12.9906 18.2339 12.9159V16.1565H5.76486V12.9159C5.45313 12.9873 5.13166 13.0393 4.80695 13.0393C4.61212 13.0393 4.41404 13.0263 4.22246 13.0003C4.04062 12.9743 3.86203 12.9321 3.68993 12.8834V19.2738C3.68993 19.8485 4.15427 20.3129 4.72902 20.3129H19.2762C19.851 20.3129 20.3153 19.8485 20.3153 19.2738V12.8834C20.1399 12.9354 19.9646 12.9776 19.7828 13.0003C19.5847 13.0263 19.3899 13.0393 19.1918 13.0393Z" fill="#3E4551"/>
</svg>
