<svg width="24" height="24" viewBox="0 0 24 24" fill="none" xmlns="http://www.w3.org/2000/svg">
<path d="M22.3929 8.25215L12.8042 5.12769C12.2817 4.95744 11.718 4.95744 11.1958 5.12769L1.60689 8.25215C0.797702 8.51575 0.797702 9.65069 1.60689 9.91428L3.27856 10.459C2.91177 10.9398 2.68627 11.5265 2.66393 12.1688C2.3329 12.3701 2.09983 12.7332 2.09983 13.1667C2.09983 13.5597 2.29508 13.8904 2.57627 14.1019L1.69867 18.2902C1.62236 18.6544 1.88361 19 2.23527 19H4.16406C4.51606 19 4.77731 18.6544 4.701 18.2902L3.8234 14.1019C4.10459 13.8904 4.29984 13.5597 4.29984 13.1667C4.29984 12.7449 4.07743 12.392 3.76153 12.1871C3.78765 11.6395 4.05165 11.1553 4.47275 10.8483L11.1955 13.0391C11.5069 13.1405 12.1044 13.267 12.8039 13.0391L22.3929 9.91464C23.2024 9.65069 23.2024 8.51611 22.3929 8.25215ZM13.127 14.1544C12.1463 14.4737 11.3106 14.2973 10.8724 14.1544L5.88728 12.5301L5.39985 16.6667C5.39985 17.9555 8.35473 19 11.9999 19C15.645 19 18.5999 17.9555 18.5999 16.6667L18.1125 12.5298L13.127 14.1544Z" fill="#3E4551"/>
</svg>
