<svg width="24" height="24" viewBox="0 0 24 24" fill="none" xmlns="http://www.w3.org/2000/svg">
<path fill-rule="evenodd" clip-rule="evenodd" d="M7.875 2H16.625C17.6602 2 18.5 2.83984 18.5 3.875V14.0247C17.8268 14.0915 17.1928 14.2919 16.625 14.599V4.34375C16.625 4.08594 16.4141 3.875 16.1562 3.875H8.34375C8.08594 3.875 7.875 4.08594 7.875 4.34375V16.5312C7.875 16.7891 8.08594 17 8.34375 17H14.416C14.1484 17.6125 14 18.2889 14 19C14 20.1256 14.3719 21.1643 14.9996 22H7.875C6.83984 22 6 21.1602 6 20.125V3.875C6 2.83984 6.83984 2 7.875 2ZM11 19.5C11 20.1914 11.5586 20.75 12.25 20.75C12.9414 20.75 13.5 20.1914 13.5 19.5C13.5 18.8086 12.9414 18.25 12.25 18.25C11.5586 18.25 11 18.8086 11 19.5Z" fill="#3E4551"/>
<path d="M20.4285 17.4516C20.1946 16.0113 19.6429 15 19.0008 15C18.3587 15 17.807 16.0113 17.5731 17.4516H20.4285ZM17.4521 19C17.4521 19.3581 17.4715 19.7016 17.5053 20.0323H20.4947C20.5285 19.7016 20.5479 19.3581 20.5479 19C20.5479 18.6419 20.5285 18.2984 20.4947 17.9677H17.5053C17.4715 18.2984 17.4521 18.6419 17.4521 19ZM22.6903 17.4516C22.2289 16.3565 21.2948 15.5097 20.1414 15.1677C20.535 15.7129 20.806 16.5339 20.948 17.4516H22.6903ZM17.8586 15.1677C16.7068 15.5097 15.7711 16.3565 15.3114 17.4516H17.0536C17.194 16.5339 17.465 15.7129 17.8586 15.1677ZM22.8629 17.9677H21.0125C21.0464 18.3065 21.0657 18.6532 21.0657 19C21.0657 19.3468 21.0464 19.6935 21.0125 20.0323H22.8613C22.95 19.7016 23 19.3581 23 19C23 18.6419 22.95 18.2984 22.8629 17.9677ZM16.9359 19C16.9359 18.6532 16.9552 18.3065 16.9891 17.9677H15.1387C15.0516 18.2984 15 18.6419 15 19C15 19.3581 15.0516 19.7016 15.1387 20.0323H16.9875C16.9552 19.6935 16.9359 19.3468 16.9359 19ZM17.5731 20.5484C17.807 21.9887 18.3587 23 19.0008 23C19.6429 23 20.1946 21.9887 20.4285 20.5484H17.5731ZM20.143 22.8323C21.2948 22.4903 22.2305 21.6435 22.6919 20.5484H20.9496C20.8076 21.4661 20.5366 22.2871 20.143 22.8323ZM15.3114 20.5484C15.7727 21.6435 16.7068 22.4903 17.8603 22.8323C17.4666 22.2871 17.1956 21.4661 17.0536 20.5484H15.3114Z" fill="#3E4551"/>
</svg>
