<svg width="24" height="24" viewBox="0 0 24 24" fill="none" xmlns="http://www.w3.org/2000/svg">
<path d="M21.4444 5.22222C21.7514 5.22222 22 4.97361 22 4.66667V3.55556C22 3.24861 21.7514 3 21.4444 3H2.55556C2.24861 3 2 3.24861 2 3.55556V4.66667C2 4.97361 2.24861 5.22222 2.55556 5.22222H3.11042V18.5556H2.55556C2.24861 18.5556 2 18.8042 2 19.1111V20.2222C2 20.5292 2.24861 20.7778 2.55556 20.7778H10.8889V18C10.8889 17.6944 11.1389 17.4444 11.4444 17.4444H12.5556C12.8611 17.4444 13.1111 17.6944 13.1111 18V20.7778H21.4444C21.7514 20.7778 22 20.5292 22 20.2222V19.1111C22 18.8042 21.7514 18.5556 21.4444 18.5556H20.8889V5.22222H21.4444ZM10.8889 6.77778C10.8889 6.55556 11.1111 6.33333 11.3333 6.33333H12.6667C12.8889 6.33333 13.1111 6.55556 13.1111 6.77778V8.11111C13.1111 8.33333 12.8889 8.55556 12.6667 8.55556H11.3333C11.1111 8.55556 10.8889 8.33333 10.8889 8.11111V6.77778ZM10.8889 10.1111C10.8889 9.88889 11.1111 9.66667 11.3333 9.66667H12.6667C12.8889 9.66667 13.1111 9.88889 13.1111 10.1111V11.4444C13.1111 11.6667 12.8889 11.8889 12.6667 11.8889H11.3333C11.1111 11.8889 10.8889 11.6667 10.8889 11.4444V10.1111ZM6.44444 6.77778C6.44444 6.55556 6.66667 6.33333 6.88889 6.33333H8.22222C8.44444 6.33333 8.66667 6.55556 8.66667 6.77778V8.11111C8.66667 8.33333 8.44444 8.55556 8.22222 8.55556H6.88889C6.66667 8.55556 6.44444 8.33333 6.44444 8.11111V6.77778ZM8.22222 11.8889H6.88889C6.66667 11.8889 6.44444 11.6667 6.44444 11.4444V10.1111C6.44444 9.88889 6.66667 9.66667 6.88889 9.66667H8.22222C8.44444 9.66667 8.66667 9.88889 8.66667 10.1111V11.4444C8.66667 11.6667 8.44444 11.8889 8.22222 11.8889ZM8.66667 16.3333C8.66667 14.4924 10.159 13 12 13C13.841 13 15.3333 14.4924 15.3333 16.3333H8.66667ZM17.5556 11.4444C17.5556 11.6667 17.3333 11.8889 17.1111 11.8889H15.7778C15.5556 11.8889 15.3333 11.6667 15.3333 11.4444V10.1111C15.3333 9.88889 15.5556 9.66667 15.7778 9.66667H17.1111C17.3333 9.66667 17.5556 9.88889 17.5556 10.1111V11.4444ZM17.5556 8.11111C17.5556 8.33333 17.3333 8.55556 17.1111 8.55556H15.7778C15.5556 8.55556 15.3333 8.33333 15.3333 8.11111V6.77778C15.3333 6.55556 15.5556 6.33333 15.7778 6.33333H17.1111C17.3333 6.33333 17.5556 6.55556 17.5556 6.77778V8.11111Z" fill="#3E4551"/>
</svg>
