<svg width="24" height="24" viewBox="0 0 24 24" fill="none" xmlns="http://www.w3.org/2000/svg">
<path d="M3 20.125C3 21.1602 3.86384 22 4.92857 22H19.0714C20.1362 22 21 21.1602 21 20.125V9.5H3V20.125ZM5.57143 12.625C5.57143 12.2812 5.86071 12 6.21429 12H17.7857C18.1393 12 18.4286 12.2812 18.4286 12.625V15.125C18.4286 15.4688 18.1393 15.75 17.7857 15.75H6.21429C5.86071 15.75 5.57143 15.4688 5.57143 15.125V12.625ZM19.0714 4.5H17.1429V2.625C17.1429 2.28125 16.8536 2 16.5 2H15.2143C14.8607 2 14.5714 2.28125 14.5714 2.625V4.5H9.42857V2.625C9.42857 2.28125 9.13929 2 8.78571 2H7.5C7.14643 2 6.85714 2.28125 6.85714 2.625V4.5H4.92857C3.86384 4.5 3 5.33984 3 6.375V8.25H21V6.375C21 5.33984 20.1362 4.5 19.0714 4.5Z" fill="#3E4551"/>
</svg>
