<svg width="24" height="24" viewBox="0 0 24 24" fill="none" xmlns="http://www.w3.org/2000/svg">
<path d="M12 3.11108C9.58368 3.11108 7.625 5.06976 7.625 7.48608C7.625 9.43956 10.4844 13 11.5799 14.2923C11.8017 14.5541 12.1986 14.5541 12.4201 14.2923C13.5156 13 16.375 9.43956 16.375 7.48608C16.375 5.06976 14.4163 3.11108 12 3.11108ZM12 8.94442C11.1944 8.94442 10.5417 8.29164 10.5417 7.48608C10.5417 6.68053 11.1944 6.02775 12 6.02775C12.8056 6.02775 13.4583 6.68053 13.4583 7.48608C13.4583 8.29164 12.8056 8.94442 12 8.94442ZM2.69861 10.6093C2.49242 10.6918 2.31567 10.8342 2.19115 11.018C2.06663 11.2019 2.00005 11.4189 2 11.6409V20.3326C2 20.7257 2.39688 20.9944 2.76181 20.8486L7.55556 18.6666V10.5736C7.24861 10.0187 6.99757 9.47845 6.81771 8.96178L2.69861 10.6093ZM12 15.5996C11.5115 15.5996 11.0493 15.385 10.7323 15.0107C10.0497 14.2052 9.32361 13.2878 8.66667 12.3468V18.6663L15.3333 20.8885V12.3472C14.6764 13.2878 13.9507 14.2055 13.2677 15.0111C12.9507 15.385 12.4885 15.5996 12 15.5996ZM21.2382 8.70692L16.4444 10.8889V20.8889L21.3014 18.9462C21.5076 18.8637 21.6844 18.7214 21.8089 18.5375C21.9334 18.3536 22 18.1366 22 17.9146V9.22289C22 8.82983 21.6031 8.56108 21.2382 8.70692Z" fill="#3E4551"/>
</svg>
