<svg width="32" height="32" viewBox="0 0 32 32" fill="none" xmlns="http://www.w3.org/2000/svg">
<rect width="32" height="32" rx="16" fill="#EC7F21"/>
<path d="M21.5557 10H10.4446C9.83118 10 9.3335 10.4977 9.3335 11.1111V18.5185C9.3335 19.1319 9.83118 19.6296 10.4446 19.6296H14.8891L14.5187 20.7407H12.852C12.5441 20.7407 12.2965 20.9884 12.2965 21.2963C12.2965 21.6042 12.5441 21.8519 12.852 21.8519H19.1483C19.4562 21.8519 19.7039 21.6042 19.7039 21.2963C19.7039 20.9884 19.4562 20.7407 19.1483 20.7407H17.4816L17.1113 19.6296H21.5557C22.1691 19.6296 22.6668 19.1319 22.6668 18.5185V11.1111C22.6668 10.4977 22.1691 10 21.5557 10ZM21.1853 18.1481H10.815V11.4815H21.1853V18.1481Z" fill="white"/>
</svg>
