<svg width="32" height="32" viewBox="0 0 32 32" fill="none" xmlns="http://www.w3.org/2000/svg">
<rect width="32" height="32" rx="16" fill="#7297DF"/>
<path d="M18.9998 10.1666C18.9998 9.94563 18.912 9.73367 18.7558 9.57739C18.5995 9.42111 18.3875 9.33331 18.1665 9.33331C17.9455 9.33331 17.7335 9.42111 17.5772 9.57739C17.421 9.73367 17.3332 9.94563 17.3332 10.1666V12.6666H18.9998V10.1666ZM20.2498 13.5H11.0832C10.9727 13.5 10.8667 13.5439 10.7885 13.622C10.7104 13.7002 10.6665 13.8061 10.6665 13.9166V14.75C10.6665 14.8605 10.7104 14.9665 10.7885 15.0446C10.8667 15.1227 10.9727 15.1666 11.0832 15.1666H11.4998V16C11.5 16.9604 11.8318 17.8914 12.4392 18.6354C13.0465 19.3794 13.8922 19.8909 14.8332 20.0833V22.6666H16.4998V20.0833C17.4408 19.8909 18.2865 19.3794 18.8938 18.6354C19.5012 17.8914 19.833 16.9604 19.8332 16V15.1666H20.2498C20.3603 15.1666 20.4663 15.1227 20.5445 15.0446C20.6226 14.9665 20.6665 14.8605 20.6665 14.75V13.9166C20.6665 13.8061 20.6226 13.7002 20.5445 13.622C20.4663 13.5439 20.3603 13.5 20.2498 13.5ZM13.9998 10.1666C13.9998 9.94563 13.912 9.73367 13.7558 9.57739C13.5995 9.42111 13.3875 9.33331 13.1665 9.33331C12.9455 9.33331 12.7335 9.42111 12.5772 9.57739C12.421 9.73367 12.3332 9.94563 12.3332 10.1666V12.6666H13.9998V10.1666Z" fill="white"/>
</svg>
