<svg width="24" height="24" viewBox="0 0 24 24" fill="none" xmlns="http://www.w3.org/2000/svg">
<path d="M11.5585 11.6982C11.8015 11.9551 12.1974 11.9551 12.4439 11.6982L16.2249 7.73313C17.3221 6.58041 17.2596 4.67079 16.0305 3.60835C14.9611 2.68132 13.3674 2.84798 12.3883 3.8757L11.9994 4.28193L11.6141 3.87917C10.6349 2.84798 9.04128 2.68132 7.97189 3.60835C6.74627 4.67079 6.6803 6.58041 7.77746 7.73313L11.5585 11.6982ZM21.6274 14.3925C21.2177 14.021 20.5788 14.0453 20.1483 14.3925L16.9401 16.9583C16.5478 17.2743 16.0583 17.4444 15.5513 17.4444H11.4439C11.1384 17.4444 10.8884 17.1944 10.8884 16.8889C10.8884 16.5833 11.1384 16.3333 11.4439 16.3333H14.1625C14.7146 16.3333 15.2284 15.9549 15.3187 15.4098C15.4333 14.7154 14.8986 14.1112 14.2215 14.1112H8.6663C7.72885 14.1112 6.82265 14.4341 6.09352 15.0244L4.47903 16.3333H2.55552C2.24999 16.3333 2 16.5833 2 16.8889V20.222C2 20.5276 2.24999 20.7775 2.55552 20.7775H14.9437C15.4472 20.7775 15.9367 20.6074 16.3325 20.2915L21.5823 16.0903C22.11 15.6702 22.1517 14.8647 21.6274 14.3925Z" fill="#3E4551"/>
</svg>
