<svg width="24" height="24" viewBox="0 0 24 24" fill="none" xmlns="http://www.w3.org/2000/svg">
<path d="M20.75 17C19.6555 17 19.5289 15.75 17.8398 15.75C16.1434 15.75 16.0107 17 14.9199 17C13.8381 17 13.6912 15.75 12 15.75C10.3265 15.75 10.1555 17 9.08984 17C7.99031 17 7.87102 15.75 6.16992 15.75C4.46887 15.75 4.34754 17 3.25 17V13.875C3.25 12.8398 4.08984 12 5.125 12H5.75V6.375H8.25V12H10.75V6.375H13.25V12H15.75V6.375H18.25V12H18.875C19.9102 12 20.75 12.8398 20.75 13.875V17ZM20.75 22H3.25V18.25C4.94359 18.25 5.07684 17 6.16992 17C7.26176 17 7.39074 18.25 9.08984 18.25C10.7634 18.25 10.9343 17 12 17C13.0995 17 13.2188 18.25 14.9199 18.25C16.6136 18.25 16.7468 17 17.8398 17C18.9136 17 19.0606 18.25 20.75 18.25V22ZM7 5.75C6.30664 5.75 5.75 5.19336 5.75 4.5C5.75 3.28906 7 3.60156 7 2C7.46875 2 8.25 3.15234 8.25 4.1875C8.25 5.22266 7.69336 5.75 7 5.75ZM12 5.75C11.3066 5.75 10.75 5.19336 10.75 4.5C10.75 3.28906 12 3.60156 12 2C12.4688 2 13.25 3.15234 13.25 4.1875C13.25 5.22266 12.6934 5.75 12 5.75ZM17 5.75C16.3066 5.75 15.75 5.19336 15.75 4.5C15.75 3.28906 17 3.60156 17 2C17.4688 2 18.25 3.15234 18.25 4.1875C18.25 5.22266 17.6934 5.75 17 5.75Z" fill="#3E4551"/>
</svg>
