<svg width="24" height="24" viewBox="0 0 24 24" fill="none" xmlns="http://www.w3.org/2000/svg">
<path d="M11.2459 22.0001C10.8765 21.9407 10.5053 21.889 10.1377 21.8202C8.4137 21.504 6.80664 20.7207 5.48755 19.5536C3.73079 18.0119 2.59548 16.0823 2.1834 13.7677C1.61575 10.5784 2.36877 7.71578 4.45047 5.24275C5.69291 3.76713 7.26119 2.76838 9.08818 2.19432C9.99928 1.91035 10.9465 1.76272 11.8998 1.75613C12.054 1.75613 12.2087 1.75613 12.4257 1.75613L11.6664 1.13591C11.5765 1.06247 11.5677 0.927986 11.6491 0.845206C11.9022 0.587753 12.1133 0.398497 12.3696 0.135996C12.4435 0.0602836 12.5634 0.052906 12.6446 0.120709L15.5849 2.57493L12.6413 5.366C12.5627 5.44057 12.4389 5.43893 12.3623 5.36229L11.6432 4.64319C11.5644 4.5644 11.5652 4.43641 11.645 4.3586L12.4017 3.62046C9.70341 3.33389 5.83383 4.94808 4.33578 8.91788C3.64307 10.7356 3.60742 12.7427 4.23512 14.5844C4.86282 16.4262 6.11348 17.9842 7.76617 18.9832C11.4713 21.2385 16.0374 20.2235 18.5565 16.8782C21.009 13.6207 20.8536 8.51422 17.19 5.42496C17.1071 5.35508 17.0914 5.2317 17.1575 5.14579C17.2971 4.9644 17.4383 4.78258 17.5781 4.60077L18.011 4.0383C18.0828 3.94494 18.2194 3.93357 18.3067 4.01272C18.6085 4.28654 18.9082 4.54535 19.1798 4.83201C20.5738 6.29729 21.4851 8.02935 21.8291 10.0322C22.3434 13.0231 21.7047 15.7539 19.8474 18.1518C18.4027 20.017 16.5077 21.2011 14.23 21.7464C13.8081 21.8476 13.3721 21.8868 12.9409 21.9569C12.892 21.9684 12.844 21.9835 12.7973 22.0019L11.2459 22.0001Z" fill="#3E4551"/>
<path fill-rule="evenodd" clip-rule="evenodd" d="M12 18C15.3137 18 18 15.3137 18 12C18 8.68629 15.3137 6 12 6C8.68629 6 6 8.68629 6 12C6 15.3137 8.68629 18 12 18ZM11.4273 15.7996C11.428 15.8642 11.4286 15.9303 11.4286 15.9985L12.8538 16C12.8538 15.9302 12.8541 15.8611 12.8544 15.7924C12.8551 15.6187 12.8558 15.4482 12.8518 15.2776C12.8499 15.1788 12.8888 15.1503 12.9929 15.1229C13.0473 15.1085 13.1021 15.0945 13.157 15.0805C13.4197 15.0134 13.6851 14.9456 13.922 14.8302C14.7355 14.4331 15.0707 13.7773 14.9877 12.9346C14.915 12.196 14.4614 11.716 13.7261 11.5054C13.3701 11.4036 13.001 11.3423 12.6317 11.281C12.4368 11.2486 12.2418 11.2162 12.0487 11.1779C11.972 11.1628 11.8946 11.1489 11.8171 11.1351C11.5714 11.0911 11.3245 11.0469 11.0953 10.9625C10.7335 10.8285 10.685 10.4348 10.9829 10.1994C11.1028 10.1038 11.2449 10.0355 11.398 9.99991C12.2385 9.82079 13.0103 9.89407 13.597 10.5809L14.7823 10.0676C14.4109 9.26678 13.7253 8.87968 12.8435 8.73831V8H11.4318V8.68465C11.3087 8.72795 11.1868 8.76725 11.067 8.8059C10.7997 8.89207 10.5426 8.97497 10.3049 9.09173C9.63158 9.42221 9.30983 9.97215 9.33764 10.6805C9.36703 11.4255 9.76544 11.9506 10.5293 12.1656C10.8444 12.2546 11.1714 12.3061 11.4988 12.3576C11.7174 12.392 11.9361 12.4264 12.1515 12.472L12.1726 12.4765C12.5282 12.5517 12.8936 12.6289 13.2177 12.7759C13.5672 12.9343 13.5835 13.3732 13.294 13.6208C13.2109 13.6911 13.1172 13.7497 13.0159 13.7947C12.0554 14.2173 10.8991 13.9002 10.3108 13.049L9 13.5697C9.03001 13.6217 9.058 13.6721 9.08516 13.721C9.14895 13.8359 9.20813 13.9425 9.27805 14.0427C9.74161 14.7047 10.4304 15.0322 11.2435 15.1566C11.4004 15.1821 11.4381 15.2332 11.4314 15.3672C11.4245 15.5085 11.4258 15.65 11.4273 15.7996Z" fill="#3E4551"/>
</svg>
