<svg width="24" height="24" viewBox="0 0 24 24" fill="none" xmlns="http://www.w3.org/2000/svg">
<path fill-rule="evenodd" clip-rule="evenodd" d="M2 8.62868C2 7.1769 3.14002 6 4.5463 6H19.4537C20.86 6 22 7.1769 22 8.62868V10.9095C21.8954 10.8869 21.787 10.875 21.6759 10.875C20.8066 10.875 20.1019 11.6025 20.1019 12.5C20.1019 13.3975 20.8066 14.125 21.6759 14.125C21.787 14.125 21.8954 14.1131 22 14.0905V16.3713C22 17.8231 20.86 19 19.4537 19H4.5463C3.14002 19 2 17.8231 2 16.3713V14.0905C2.10458 14.1131 2.21298 14.125 2.32407 14.125C3.19341 14.125 3.89815 13.3975 3.89815 12.5C3.89815 11.6025 3.19341 10.875 2.32407 10.875C2.21298 10.875 2.10458 10.8869 2 10.9095V8.62868ZM17.6481 7.91176C17.6481 8.12293 17.4823 8.29412 17.2778 8.29412C17.0732 8.29412 16.9074 8.12293 16.9074 7.91176C16.9074 7.7006 17.0732 7.52941 17.2778 7.52941C17.4823 7.52941 17.6481 7.7006 17.6481 7.91176ZM17.2778 10.5882C17.4823 10.5882 17.6481 10.4171 17.6481 10.2059C17.6481 9.99471 17.4823 9.82353 17.2778 9.82353C17.0732 9.82353 16.9074 9.99471 16.9074 10.2059C16.9074 10.4171 17.0732 10.5882 17.2778 10.5882ZM17.6481 12.5C17.6481 12.7112 17.4823 12.8824 17.2778 12.8824C17.0732 12.8824 16.9074 12.7112 16.9074 12.5C16.9074 12.2888 17.0732 12.1176 17.2778 12.1176C17.4823 12.1176 17.6481 12.2888 17.6481 12.5ZM17.2778 15.1765C17.4823 15.1765 17.6481 15.0053 17.6481 14.7941C17.6481 14.583 17.4823 14.4118 17.2778 14.4118C17.0732 14.4118 16.9074 14.583 16.9074 14.7941C16.9074 15.0053 17.0732 15.1765 17.2778 15.1765ZM17.6481 17.0882C17.6481 17.2994 17.4823 17.4706 17.2778 17.4706C17.0732 17.4706 16.9074 17.2994 16.9074 17.0882C16.9074 16.8771 17.0732 16.7059 17.2778 16.7059C17.4823 16.7059 17.6481 16.8771 17.6481 17.0882ZM9.66111 16.3235H8.95926L10.0315 13.2647H8.2963L7.55555 14.4118H6.81481L7.55556 12.5L6.81481 10.5882H7.55556L8.2963 11.7353H10.0004L8.95963 8.67647H9.62222L11.9611 11.7353H13.4815C13.6779 11.7353 13.8663 11.8159 14.0053 11.9593C14.1442 12.1027 14.2222 12.2972 14.2222 12.5C14.2222 12.7028 14.1442 12.8973 14.0053 13.0407C13.8663 13.1841 13.6779 13.2647 13.4815 13.2647H12L9.66111 16.3235Z" fill="#3E4551"/>
</svg>
