<svg width="24" height="24" viewBox="0 0 24 24" fill="none" xmlns="http://www.w3.org/2000/svg">
<path fill-rule="evenodd" clip-rule="evenodd" d="M12 23C18.0751 23 23 18.0751 23 12C23 5.92487 18.0751 1 12 1C5.92487 1 1 5.92487 1 12C1 18.0751 5.92487 23 12 23ZM6 16.5882L16.5882 6L18 7.41176L7.41176 18L6 16.5882ZM6.97319 6.97319C7.37032 6.57605 7.90895 6.35294 8.47059 6.35294C9.03222 6.35294 9.57086 6.57605 9.96799 6.97319C10.3651 7.37032 10.5882 7.90895 10.5882 8.47059C10.5882 9.03222 10.3651 9.57086 9.96799 9.96799C9.57086 10.3651 9.03222 10.5882 8.47059 10.5882C7.90895 10.5882 7.37032 10.3651 6.97319 9.96799C6.57605 9.57086 6.35294 9.03222 6.35294 8.47059C6.35294 7.90895 6.57605 7.37032 6.97319 6.97319ZM14.032 14.032C14.4291 13.6349 14.9678 13.4118 15.5294 13.4118C16.091 13.4118 16.6297 13.6349 17.0268 14.032C17.424 14.4291 17.6471 14.9678 17.6471 15.5294C17.6471 16.091 17.424 16.6297 17.0268 17.0268C16.6297 17.424 16.091 17.6471 15.5294 17.6471C14.9678 17.6471 14.4291 17.424 14.032 17.0268C13.6349 16.6297 13.4118 16.091 13.4118 15.5294C13.4118 14.9678 13.6349 14.4291 14.032 14.032Z" fill="#3E4551"/>
</svg>
