<svg width="24" height="24" viewBox="0 0 24 24" fill="none" xmlns="http://www.w3.org/2000/svg">
<path fill-rule="evenodd" clip-rule="evenodd" d="M9.43788 6.63219C9.44046 5.88954 10.0446 5.28484 10.7872 5.28156L17.4076 5.25227C17.7645 5.25069 18.1062 5.39102 18.3576 5.64236C18.6089 5.8937 18.7492 6.23543 18.7477 6.59228L18.7184 13.2127C18.7151 13.9553 18.1104 14.5595 17.3677 14.562C16.6251 14.5646 16.0257 13.9647 16.029 13.222L16.0523 7.94759L10.7779 7.97093C10.0352 7.97421 9.4353 7.37484 9.43788 6.63219Z" fill="#3E4551"/>
<path d="M16.4588 5.63992C16.986 5.11271 17.8374 5.10935 18.3604 5.63241C18.8835 6.15547 18.8801 7.00688 18.3529 7.53408L7.53419 18.3528C7.00698 18.88 6.15557 18.8834 5.63251 18.3603C5.10945 17.8373 5.11282 16.9859 5.64002 16.4587L16.4588 5.63992Z" fill="#3E4551"/>
</svg>
