<svg width="24" height="24" viewBox="0 0 24 24" fill="none" xmlns="http://www.w3.org/2000/svg">
<g clip-path="url(#clip0_15_263)">
<path d="M21.5746 17.4555L17.0009 12.8818C16.0986 11.9795 14.7511 11.8037 13.6652 12.3388L9.50159 8.17518V5.74963L4.50208 2L2.00232 4.49976L5.75195 9.49927H8.1775L12.3412 13.6629C11.81 14.7488 11.9818 16.0963 12.8841 16.9985L17.4578 21.5723C18.0281 22.1426 18.9499 22.1426 19.5162 21.5723L21.5746 19.5139C22.141 18.9437 22.141 18.0219 21.5746 17.4555ZM14.9581 10.7882C16.0634 10.7882 17.1024 11.2178 17.8836 11.999L18.6413 12.7568C19.2584 12.4873 19.8443 12.1123 20.3521 11.6045C21.8012 10.1555 22.2933 8.11659 21.8324 6.26521C21.7465 5.91368 21.3051 5.7926 21.0473 6.05039L18.1414 8.95635L15.4893 8.51499L15.0479 5.8629L17.9539 2.95694C18.2117 2.69915 18.0867 2.25779 17.7313 2.16795C15.8799 1.71097 13.841 2.20311 12.3958 3.64828C11.2827 4.76145 10.7593 6.23006 10.7866 7.69476L13.9933 10.9015C14.3097 10.8273 14.6378 10.7882 14.9581 10.7882ZM10.8999 13.991L8.68526 11.7764L2.73272 17.7328C1.75625 18.7093 1.75625 20.2912 2.73272 21.2676C3.70918 22.2441 5.29106 22.2441 6.26753 21.2676L11.0952 16.44C10.7983 15.6627 10.7085 14.8152 10.8999 13.991ZM4.50208 20.4357C3.9865 20.4357 3.56467 20.0139 3.56467 19.4983C3.56467 18.9788 3.98259 18.5609 4.50208 18.5609C5.02156 18.5609 5.43948 18.9788 5.43948 19.4983C5.43948 20.0139 5.02156 20.4357 4.50208 20.4357Z" fill="#3E4551"/>
</g>
<defs>
<clipPath id="clip0_15_263">
<rect width="24" height="24" fill="white"/>
</clipPath>
</defs>
</svg>
