<svg width="24" height="24" viewBox="0 0 24 24" fill="none" xmlns="http://www.w3.org/2000/svg">
<path fill-rule="evenodd" clip-rule="evenodd" d="M20.3992 9.14703L21.1194 9.8672C21.6897 10.4273 21.9998 11.1875 21.9998 11.9877C22.0098 12.7879 21.6997 13.549 21.1395 14.1182C21.1328 14.1255 21.1261 14.132 21.1194 14.1384C21.1161 14.1416 21.1128 14.1449 21.1094 14.1482L20.3992 14.8583C20.1191 15.1384 19.959 15.5185 19.959 15.9196V16.9488C19.959 18.6092 18.6085 19.9605 16.9479 19.9605H15.9176C15.5174 19.9605 15.1373 20.1196 14.8572 20.3996L14.1369 21.1198C13.5467 21.7109 12.7764 22 12.0061 22C11.2359 22 10.4656 21.7109 9.87537 21.1308L9.14511 20.3996C8.865 20.1196 8.48487 19.9605 8.08472 19.9605H7.05435C5.39375 19.9605 4.04326 18.6092 4.04326 16.9488V15.9196C4.04326 15.5185 3.8832 15.1384 3.6031 14.8483L2.88284 14.1382C1.71241 12.9689 1.70241 11.0575 2.87283 9.8782L3.6031 9.14703C3.8832 8.86696 4.04326 8.48688 4.04326 8.07678V7.05655C4.04326 5.39616 5.39375 4.04685 7.05435 4.04685H8.08472C8.48487 4.04685 8.865 3.88581 9.14511 3.60575L9.86537 2.88558C11.0358 1.70631 12.9465 1.70631 14.1269 2.87658L14.8572 3.60575C15.1373 3.88581 15.5174 4.04685 15.9176 4.04685H16.9479C18.6085 4.04685 19.959 5.39616 19.959 7.05655V8.08778C19.959 8.48688 20.1191 8.86696 20.3992 9.14703ZM9.42513 15.4485C9.66522 15.4485 9.88529 15.3585 10.0454 15.1884L15.1872 10.0482C15.5273 9.70815 15.5273 9.14702 15.1872 8.80694C14.8471 8.46786 14.2969 8.46786 13.9568 8.80694L8.81491 13.9481C8.47478 14.2882 8.47478 14.8483 8.81491 15.1884C8.97497 15.3585 9.19504 15.4485 9.42513 15.4485ZM13.6967 14.5683C13.6967 15.0584 14.0868 15.4485 14.577 15.4485C15.0571 15.4485 15.4473 15.0584 15.4473 14.5683C15.4473 14.0892 15.0571 13.6981 14.577 13.6981C14.0868 13.6981 13.6967 14.0892 13.6967 14.5683ZM9.43525 8.55691C9.91542 8.55691 10.3056 8.947 10.3056 9.42711C10.3056 9.91822 9.91542 10.3073 9.43525 10.3073C8.95508 10.3073 8.55493 9.91822 8.55493 9.42711C8.55493 8.947 8.95508 8.55691 9.43525 8.55691Z" fill="#3E4551"/>
</svg>
