<svg width="24" height="24" viewBox="0 0 24 24" fill="none" xmlns="http://www.w3.org/2000/svg">
<path d="M14.9032 11.9032C14.9032 13.5081 13.6048 14.8065 12 14.8065C10.3952 14.8065 9.09677 13.5081 9.09677 11.9032C9.09677 10.2984 10.3952 9 12 9C13.6048 9 14.9032 10.2984 14.9032 11.9032ZM19.0968 9C17.4919 9 16.1935 10.2984 16.1935 11.9032C16.1935 13.5081 17.4919 14.8065 19.0968 14.8065C20.7016 14.8065 22 13.5081 22 11.9032C22 10.2984 20.7016 9 19.0968 9ZM4.90323 9C3.29839 9 2 10.2984 2 11.9032C2 13.5081 3.29839 14.8065 4.90323 14.8065C6.50806 14.8065 7.80645 13.5081 7.80645 11.9032C7.80645 10.2984 6.50806 9 4.90323 9Z" fill="#3E4551"/>
</svg>
