<svg width="24" height="24" viewBox="0 0 24 24" fill="none" xmlns="http://www.w3.org/2000/svg">
<path fill-rule="evenodd" clip-rule="evenodd" d="M12 21C16.9706 21 21 16.9706 21 12C21 7.02944 16.9706 3 12 3C7.02944 3 3 7.02944 3 12C3 16.9706 7.02944 21 12 21ZM10.875 6.00279C10.6679 6.00279 10.5 6.17069 10.5 6.37779V13.7126C10.5 13.9197 10.6679 14.0876 10.875 14.0876H16.8746C17.0817 14.0876 17.2496 13.9197 17.2496 13.7126V12.3626C17.2496 12.1555 17.0817 11.9876 16.8746 11.9876H12.6V6.37779C12.6 6.17069 12.4321 6.00279 12.225 6.00279H10.875Z" fill="#3E4551"/>
</svg>
