<svg width="24" height="24" viewBox="0 0 24 24" fill="none" xmlns="http://www.w3.org/2000/svg">
<path fill-rule="evenodd" clip-rule="evenodd" d="M1.39274 10.0162C0.869436 9.48919 0.869034 8.63442 1.39185 8.10696L6.05247 3.40492C6.30369 3.15147 6.64456 3.00906 7 3.00906C7.35544 3.00906 7.69631 3.15147 7.94753 3.40492L12.6082 8.10696C13.131 8.63442 13.1306 9.48919 12.6073 10.0162C12.084 10.5431 11.2359 10.5427 10.7131 10.0152L7 6.26916L3.28691 10.0152C2.7641 10.5427 1.91605 10.5431 1.39274 10.0162Z" fill="#3E4551"/>
<path d="M5.65561 4.35C5.65561 3.60442 6.25527 3 6.99499 3C7.73471 3 8.33436 3.60442 8.33436 4.35V19.65C8.33436 20.3956 7.73471 21 6.99499 21C6.25527 21 5.65561 20.3956 5.65561 19.65V4.35Z" fill="#3E4551"/>
<path fill-rule="evenodd" clip-rule="evenodd" d="M11.3927 13.9838C10.8694 14.5108 10.869 15.3656 11.3918 15.893L16.0525 20.5951C16.3037 20.8485 16.6446 20.9909 17 20.9909C17.3554 20.9909 17.6963 20.8485 17.9475 20.5951L22.6082 15.893C23.131 15.3656 23.1306 14.5108 22.6073 13.9838C22.084 13.4569 21.2359 13.4573 20.7131 13.9848L17 17.7308L13.2869 13.9848C12.7641 13.4573 11.9161 13.4569 11.3927 13.9838Z" fill="#3E4551"/>
<path d="M15.6556 19.65C15.6556 20.3956 16.2553 21 16.995 21C17.7347 21 18.3344 20.3956 18.3344 19.65V4.35C18.3344 3.60442 17.7347 3 16.995 3C16.2553 3 15.6556 3.60442 15.6556 4.35V19.65Z" fill="#3E4551"/>
</svg>
