<svg width="24" height="24" viewBox="0 0 24 24" fill="none" xmlns="http://www.w3.org/2000/svg">
<path fill-rule="evenodd" clip-rule="evenodd" d="M13.9838 1.39274C14.5108 0.869436 15.3656 0.869034 15.893 1.39185L20.5951 6.05247C20.8485 6.30369 20.9909 6.64456 20.9909 7C20.9909 7.35544 20.8485 7.69631 20.5951 7.94753L15.893 12.6082C15.3656 13.131 14.5108 13.1306 13.9838 12.6073C13.4569 12.084 13.4573 11.2359 13.9848 10.7131L17.7308 7L13.9848 3.28691C13.4573 2.7641 13.4569 1.91605 13.9838 1.39274Z" fill="#3E4551"/>
<path d="M19.65 5.65561C20.3956 5.65561 21 6.25527 21 6.99499C21 7.73471 20.3956 8.33436 19.65 8.33436L4.35 8.33436C3.60442 8.33436 3 7.7347 3 6.99499C3 6.25527 3.60442 5.65561 4.35 5.65561L19.65 5.65561Z" fill="#3E4551"/>
<path fill-rule="evenodd" clip-rule="evenodd" d="M10.0162 11.3927C9.48919 10.8694 8.63442 10.869 8.10696 11.3918L3.40492 16.0525C3.15147 16.3037 3.00906 16.6446 3.00906 17C3.00906 17.3554 3.15147 17.6963 3.40492 17.9475L8.10696 22.6082C8.63442 23.131 9.48919 23.1306 10.0162 22.6073C10.5431 22.084 10.5427 21.2359 10.0152 20.7131L6.26916 17L10.0152 13.2869C10.5427 12.7641 10.5431 11.9161 10.0162 11.3927Z" fill="#3E4551"/>
<path d="M4.35 15.6556C3.60442 15.6556 3 16.2553 3 16.995C3 17.7347 3.60442 18.3344 4.35 18.3344L19.65 18.3344C20.3956 18.3344 21 17.7347 21 16.995C21 16.2553 20.3956 15.6556 19.65 15.6556L4.35 15.6556Z" fill="#3E4551"/>
</svg>
