<svg width="24" height="24" viewBox="0 0 24 24" fill="none" xmlns="http://www.w3.org/2000/svg">
<path d="M2 8.39216C2 8.17557 2.17557 8 2.39216 8H5.60784C5.82443 8 6 8.17557 6 8.39216V11.6078C6 11.8244 5.82443 12 5.60784 12H2.39216C2.17557 12 2 11.8244 2 11.6078V8.39216Z" fill="#3E4551"/>
<path d="M10 8.39216C10 8.17557 10.1756 8 10.3922 8H13.6078C13.8244 8 14 8.17557 14 8.39216V11.6078C14 11.8244 13.8244 12 13.6078 12H10.3922C10.1756 12 10 11.8244 10 11.6078V8.39216Z" fill="#3E4551"/>
<path d="M6 12.3922C6 12.1756 6.17557 12 6.39216 12H9.60784C9.82443 12 10 12.1756 10 12.3922V15.6078C10 15.8244 9.82443 16 9.60784 16H6.39216C6.17557 16 6 15.8244 6 15.6078V12.3922Z" fill="#3E4551"/>
<path d="M18 8.39216C18 8.17557 18.1756 8 18.3922 8H21.6078C21.8244 8 22 8.17557 22 8.39216V11.6078C22 11.8244 21.8244 12 21.6078 12H18.3922C18.1756 12 18 11.8244 18 11.6078V8.39216Z" fill="#3E4551"/>
<path d="M14 12.3922C14 12.1756 14.1756 12 14.3922 12H17.6078C17.8244 12 18 12.1756 18 12.3922V15.6078C18 15.8244 17.8244 16 17.6078 16H14.3922C14.1756 16 14 15.8244 14 15.6078V12.3922Z" fill="#3E4551"/>
</svg>
