<svg width="32" height="32" viewBox="0 0 32 32" fill="none" xmlns="http://www.w3.org/2000/svg">
<rect width="32" height="32" rx="16" fill="#4FA3C9"/>
<path d="M22.2965 11.4815C22.5011 11.4815 22.6668 11.3157 22.6668 11.1111V10.3704C22.6668 10.1657 22.5011 10 22.2965 10H9.70387C9.49924 10 9.3335 10.1657 9.3335 10.3704V11.1111C9.3335 11.3157 9.49924 11.4815 9.70387 11.4815H10.0738V20.3704H9.70387C9.49924 20.3704 9.3335 20.5361 9.3335 20.7407V21.4815C9.3335 21.6861 9.49924 21.8519 9.70387 21.8519H15.2594V20C15.2594 19.7963 15.4261 19.6296 15.6298 19.6296H16.3705C16.5742 19.6296 16.7409 19.7963 16.7409 20V21.8519H22.2965C22.5011 21.8519 22.6668 21.6861 22.6668 21.4815V20.7407C22.6668 20.5361 22.5011 20.3704 22.2965 20.3704H21.9261V11.4815H22.2965ZM15.2594 12.5185C15.2594 12.3704 15.4076 12.2222 15.5557 12.2222H16.4446C16.5928 12.2222 16.7409 12.3704 16.7409 12.5185V13.4074C16.7409 13.5556 16.5928 13.7037 16.4446 13.7037H15.5557C15.4076 13.7037 15.2594 13.5556 15.2594 13.4074V12.5185ZM15.2594 14.7407C15.2594 14.5926 15.4076 14.4444 15.5557 14.4444H16.4446C16.5928 14.4444 16.7409 14.5926 16.7409 14.7407V15.6296C16.7409 15.7778 16.5928 15.9259 16.4446 15.9259H15.5557C15.4076 15.9259 15.2594 15.7778 15.2594 15.6296V14.7407ZM12.2965 12.5185C12.2965 12.3704 12.4446 12.2222 12.5928 12.2222H13.4816C13.6298 12.2222 13.7779 12.3704 13.7779 12.5185V13.4074C13.7779 13.5556 13.6298 13.7037 13.4816 13.7037H12.5928C12.4446 13.7037 12.2965 13.5556 12.2965 13.4074V12.5185ZM13.4816 15.9259H12.5928C12.4446 15.9259 12.2965 15.7778 12.2965 15.6296V14.7407C12.2965 14.5926 12.4446 14.4444 12.5928 14.4444H13.4816C13.6298 14.4444 13.7779 14.5926 13.7779 14.7407V15.6296C13.7779 15.7778 13.6298 15.9259 13.4816 15.9259ZM13.7779 18.8889C13.7779 17.6616 14.7728 16.6667 16.0002 16.6667C17.2275 16.6667 18.2224 17.6616 18.2224 18.8889H13.7779ZM19.7039 15.6296C19.7039 15.7778 19.5557 15.9259 19.4076 15.9259H18.5187C18.3705 15.9259 18.2224 15.7778 18.2224 15.6296V14.7407C18.2224 14.5926 18.3705 14.4444 18.5187 14.4444H19.4076C19.5557 14.4444 19.7039 14.5926 19.7039 14.7407V15.6296ZM19.7039 13.4074C19.7039 13.5556 19.5557 13.7037 19.4076 13.7037H18.5187C18.3705 13.7037 18.2224 13.5556 18.2224 13.4074V12.5185C18.2224 12.3704 18.3705 12.2222 18.5187 12.2222H19.4076C19.5557 12.2222 19.7039 12.3704 19.7039 12.5185V13.4074Z" fill="white"/>
</svg>
