<svg width="24" height="24" viewBox="0 0 24 24" fill="none" xmlns="http://www.w3.org/2000/svg">
<path d="M20.2775 10.1804L19.8092 9.00958L18.9788 6.93333C18.2658 5.15125 16.5654 4 14.6458 4H9.35417C7.435 4 5.73417 5.15125 5.02125 6.93333L4.19083 9.00958L3.7225 10.1804C2.7175 10.5625 2 11.5275 2 12.6667V14.6667C2 15.3383 2.25667 15.9446 2.66667 16.4137V18.6667C2.66667 19.4029 3.26375 20 4 20H5.33333C6.06958 20 6.66667 19.4029 6.66667 18.6667V17.3333H17.3333V18.6667C17.3333 19.4029 17.9304 20 18.6667 20H20C20.7362 20 21.3333 19.4029 21.3333 18.6667V16.4137C21.7433 15.945 22 15.3387 22 14.6667V12.6667C22 11.5275 21.2825 10.5625 20.2775 10.1804ZM7.49708 7.92375C7.80083 7.16458 8.53625 6.66667 9.35417 6.66667H14.6458C15.4638 6.66667 16.1992 7.16458 16.5029 7.92375L17.3333 10H6.66667L7.49708 7.92375ZM5.33333 14.6583C4.53333 14.6583 4 14.1267 4 13.3292C4 12.5317 4.53333 12 5.33333 12C6.13333 12 7.33333 13.1963 7.33333 13.9938C7.33333 14.7913 6.13333 14.6583 5.33333 14.6583ZM18.6667 14.6583C17.8667 14.6583 16.6667 14.7913 16.6667 13.9938C16.6667 13.1963 17.8667 12 18.6667 12C19.4667 12 20 12.5317 20 13.3292C20 14.1267 19.4667 14.6583 18.6667 14.6583Z" fill="#3E4551"/>
</svg>
