<svg width="24" height="24" viewBox="0 0 24 24" fill="none" xmlns="http://www.w3.org/2000/svg">
<path d="M22 13.9158C21.9833 13.9672 21.9641 14.0181 21.9507 14.0707C21.8612 14.427 21.6563 14.7437 21.3681 14.9714C21.0799 15.1992 20.7245 15.3252 20.3573 15.33C19.8033 15.3379 19.2493 15.33 18.6811 15.33V8.6658H19.1282C19.5374 8.6658 19.9469 8.66079 20.356 8.6658C20.7231 8.67147 21.0781 8.79799 21.3661 9.02577C21.6541 9.25356 21.859 9.56992 21.9491 9.92591C21.9624 9.9781 21.9816 10.029 21.9983 10.0808L22 13.9158Z" fill="#3E4551"/>
<path d="M11.335 21.9987V20.6656C11.5688 20.6656 11.7883 20.6656 12.0075 20.6656C13.5046 20.6576 14.8985 20.2769 16.178 19.4965C17.2694 18.8368 18.1823 17.9192 18.8364 16.8243C18.9041 16.7116 18.9721 16.6594 19.1115 16.6627C19.5407 16.674 19.9703 16.6669 20.4391 16.6669C20.3184 16.8974 20.2199 17.1082 20.1014 17.3078C18.5679 19.8965 16.3158 21.4292 13.3451 21.9061C13.1067 21.9449 12.8662 21.9691 12.6266 22L11.335 21.9987Z" fill="#3E4551"/>
<path d="M17.2981 12.0081C17.2981 12.8682 17.3574 13.7334 17.2864 14.588C17.0952 16.9011 15.2041 18.8844 12.9138 19.251C10.0162 19.7136 7.36987 17.904 6.77707 15.0427C6.70789 14.6887 6.67322 14.3287 6.67354 13.968C6.66143 12.6561 6.66561 11.3438 6.66936 10.0315C6.67688 7.34516 8.57844 5.13351 11.2319 4.71932C14.0489 4.27967 16.8155 6.27587 17.2434 9.09878C17.3507 9.80858 17.311 10.5376 17.334 11.2582C17.3423 11.5088 17.334 11.7593 17.334 12.0098L17.2981 12.0081Z" fill="#3E4551"/>
<path d="M3.59222 7.33264C4.76112 4.63248 7.8341 2.03587 11.9169 2.00038C16.1179 1.96363 19.2268 4.61661 20.4128 7.33138C19.9352 7.33138 19.4664 7.33639 18.998 7.32512C18.9454 7.32512 18.8819 7.24161 18.8456 7.18191C17.6489 5.24959 15.9428 4.02845 13.7275 3.51851C10.4232 2.7632 6.94072 4.24585 5.18485 7.14684C5.09719 7.29214 5.00451 7.34057 4.8417 7.33598C4.4284 7.32512 4.01595 7.33264 3.59222 7.33264Z" fill="#3E4551"/>
<path d="M5.32638 8.66622V15.3145C5.28182 15.323 5.23679 15.3287 5.19153 15.3317C4.68473 15.3317 4.17792 15.3371 3.67154 15.3317C2.73599 15.3204 2.01085 14.5976 2.00501 13.6615C1.99833 12.5509 1.99833 11.4403 2.00501 10.3297C2.0039 9.89021 2.17727 9.46831 2.48701 9.15663C2.79676 8.84496 3.21755 8.66902 3.65693 8.66748C4.20506 8.66038 4.75319 8.66622 5.32638 8.66622Z" fill="#3E4551"/>
</svg>
