<svg width="24" height="24" viewBox="0 0 24 24" fill="none" xmlns="http://www.w3.org/2000/svg">
<path fill-rule="evenodd" clip-rule="evenodd" d="M3 16.1238V16.3751C3 17.1115 3.59695 17.7084 4.33333 17.7084H20.0792C20.8156 17.7084 21.4126 17.1115 21.4126 16.3751V16.1238C21.4126 15.715 21.225 15.3288 20.9038 15.076L20.5956 14.8334C19.3499 13.853 18.5428 12.4196 18.3505 10.8461L17.8838 7.02608C17.5332 4.15676 15.0969 2 12.2063 2C9.31562 2 6.87932 4.15675 6.52875 7.02608L6.06203 10.8461C5.86979 12.4196 5.06268 13.853 3.817 14.8334L3.50874 15.076C3.18751 15.3288 3 15.715 3 16.1238ZM12.2062 21.5634C13.7315 21.5634 14.9681 20.3957 14.9681 18.9551H9.44432C9.44432 20.3957 10.6809 21.5634 12.2062 21.5634Z" fill="#3E4551"/>
</svg>
