<svg width="56" height="56" viewBox="0 0 56 56" fill="none" xmlns="http://www.w3.org/2000/svg">
    <g clip-path="url(#clip0_200_559)">
        <path
            d="M27.995 55.9614C43.4543 55.9614 55.9866 43.434 55.9866 27.9807C55.9866 12.5274 43.4543 0 27.995 0C12.5357 0 0.00341797 12.5274 0.00341797 27.9807C0.00341797 43.434 12.5357 55.9614 27.995 55.9614Z"
            fill="#FFC800" />
        <path
            d="M40.0416 48.8279C30.5356 54.3111 20.226 55.2937 13.6407 52.0092C22.0719 57.031 32.8972 57.4653 41.9961 52.2155C51.095 46.9603 56.133 37.3728 55.9973 27.5627C55.5521 34.9081 49.5477 43.3447 40.0416 48.8279Z"
            fill="black" />
        <path
            d="M31.5454 2.05214C33.4727 5.38551 28.8146 11.6831 21.1381 16.1076C13.4616 20.5322 5.68195 21.4226 3.75468 18.0838C3.67324 17.9263 3.59724 17.7526 3.54295 17.5735C3.04349 16.0208 3.64067 14.0121 5.07934 11.8948C5.31278 11.5636 5.55165 11.2379 5.79596 10.9176C7.96753 8.08912 10.72 5.63524 13.9991 3.74597C17.2782 1.85127 20.7798 0.700335 24.314 0.233447C24.7266 0.173728 25.1284 0.130298 25.5193 0.103153C28.0709 -0.0868592 30.1067 0.401745 31.2034 1.60697C31.3337 1.75355 31.4477 1.90013 31.5454 2.05214Z"
            fill="black" />
        <path
            d="M43.4456 5.66236C46.8116 11.4876 40.02 21.6994 28.2826 28.4747C16.5453 35.25 4.2976 36.021 0.937092 30.1957C0.377912 29.2239 0.0793217 28.1436 0.0196034 26.9818C-0.126978 30.896 0.54621 34.8754 2.11517 38.654C2.34862 39.2186 2.60378 39.7778 2.87522 40.3315C2.88608 40.3532 2.90237 40.3804 2.91323 40.4021C3.92844 42.1556 5.42682 43.5346 7.29437 44.5335C13.8797 48.0569 25.0144 46.8462 35.4271 40.8364C45.8344 34.8266 52.4522 25.7983 52.6965 18.3389C52.7671 16.2325 52.3274 14.2509 51.323 12.4974C50.943 11.9273 50.5467 11.3682 50.1287 10.8361C47.6585 7.64392 44.5857 5.10318 41.1709 3.28992C42.121 3.91424 42.8919 4.70144 43.4456 5.66236C43.4456 5.66236 43.4511 5.66779 43.4511 5.67322L43.4456 5.66236Z"
            fill="black" />
        <path
            d="M28.0226 56C43.4866 56 56.0226 43.464 56.0226 28C56.0226 12.536 43.4866 0 28.0226 0C12.5586 0 0.022583 12.536 0.022583 28C0.022583 43.464 12.5586 56 28.0226 56Z"
            fill="url(#paint0_radial_200_559)" />
    </g>
    <defs>
        <radialGradient id="paint0_radial_200_559" cx="0" cy="0" r="1"
            gradientUnits="userSpaceOnUse"
            gradientTransform="translate(28.02 28.0023) scale(27.9993 28.0102)">
            <stop offset="0.5" stop-color="white" stop-opacity="0" />
            <stop offset="1" stop-color="white" stop-opacity="0.35" />
        </radialGradient>
        <clipPath id="clip0_200_559">
            <rect width="56" height="56" rx="28" fill="white" />
        </clipPath>
    </defs>
</svg>
