<svg width="56" height="56" viewBox="0 0 56 56" fill="none" xmlns="http://www.w3.org/2000/svg">
    <rect x="0.5" y="0.5" width="55" height="55" rx="27.5" fill="white" />
    <path
        d="M27.9907 43.978C36.8211 43.978 43.9795 36.8195 43.9795 27.989C43.9795 19.1585 36.8211 12 27.9907 12C19.1604 12 12.002 19.1585 12.002 27.989C12.002 36.8195 19.1604 43.978 27.9907 43.978Z"
        fill="#FFC800" />
    <path
        d="M34.8717 39.9016C29.4419 43.0349 23.5531 43.5964 19.7916 41.7195C24.6074 44.5891 30.7908 44.8373 35.9881 41.8374C41.1853 38.8344 44.0631 33.3559 43.9855 27.7501C43.7313 31.9475 40.3016 36.7683 34.8717 39.9016Z"
        fill="black" />
    <path
        d="M30.0187 13.1727C31.1195 15.0774 28.4589 18.676 24.0741 21.2044C19.6893 23.7327 15.2455 24.2415 14.1447 22.3336C14.0982 22.2436 14.0548 22.1444 14.0237 22.042C13.7384 21.1547 14.0796 20.0069 14.9013 18.797C15.0347 18.6078 15.1711 18.4217 15.3107 18.2386C16.5511 16.6224 18.1233 15.2201 19.9963 14.1406C21.8693 13.0579 23.8694 12.4002 25.8882 12.1334C26.1238 12.0993 26.3533 12.0745 26.5766 12.0589C28.034 11.9504 29.1969 12.2296 29.8233 12.9183C29.8978 13.002 29.9629 13.0858 30.0187 13.1727Z"
        fill="black" />
    <path
        d="M36.8161 15.2357C38.7387 18.5644 34.8594 24.3997 28.155 28.2713C21.4506 32.1429 14.4548 32.5834 12.5353 29.2547C12.2159 28.6994 12.0453 28.0821 12.0112 27.4182C11.9275 29.6549 12.312 31.9289 13.2082 34.088C13.3415 34.4107 13.4873 34.7302 13.6423 35.0466C13.6485 35.059 13.6578 35.0745 13.664 35.0869C14.2439 36.089 15.0998 36.8769 16.1665 37.4478C19.928 39.4611 26.2882 38.7693 32.2359 35.3351C38.1805 31.9009 41.9606 26.7419 42.1002 22.4794C42.1405 21.2757 41.8893 20.1434 41.3156 19.1414C41.0986 18.8157 40.8722 18.4961 40.6334 18.1921C39.2225 16.368 37.4673 14.9161 35.5168 13.88C36.0594 14.2367 36.4998 14.6866 36.8161 15.2357C36.8161 15.2357 36.8192 15.2388 36.8192 15.2419L36.8161 15.2357Z"
        fill="black" />
    <path
        d="M28.0064 44C36.8394 44 44 36.8366 44 28C44 19.1634 36.8394 12 28.0064 12C19.1734 12 12.0129 19.1634 12.0129 28C12.0129 36.8366 19.1734 44 28.0064 44Z"
        fill="none" />
    <rect x="0.5" y="0.5" width="55" height="55" rx="27.5" stroke="#EAECF0" />
</svg>
