<svg width="56" height="56" viewBox="0 0 56 56" fill="none" xmlns="http://www.w3.org/2000/svg">
<g clip-path="url(#clip0_200_567)">
<rect width="56" height="56" rx="28" fill="#00B33D"/>
<circle cx="28" cy="28" r="28" fill="#00B33D"/>
<path d="M18.383 29.6447C18.507 29.2764 18.6272 28.9236 18.7474 28.567C19.3638 26.7604 19.9802 24.95 20.5966 23.1435C20.6276 23.0504 20.6663 23.0194 20.7671 23.0194C22.155 23.0233 23.5429 23.0194 24.9307 23.0272C25.3843 23.031 25.834 23.0853 26.272 23.2055C27.0047 23.4032 27.4699 23.8645 27.6832 24.5933C27.8499 25.1632 27.8692 25.7408 27.7839 26.3262C27.6095 27.5474 27.1559 28.6677 26.5899 29.7493C26.2371 30.42 25.8301 31.0558 25.3533 31.6412C24.7601 32.37 24.0429 32.936 23.1823 33.312C22.7559 33.4981 22.3062 33.6144 21.841 33.6648C20.7904 33.7772 19.7359 33.723 18.6815 33.7423C18.1736 33.7501 17.6658 33.7423 17.1579 33.7423C17.1075 33.7423 17.061 33.7385 16.9912 33.7346C17.0649 33.5175 17.1347 33.3159 17.2006 33.1182C17.3246 32.7538 17.4526 32.3932 17.565 32.0288C17.7278 31.5132 18.1039 31.2729 18.6156 31.2186C18.9141 31.1876 19.2165 31.176 19.5188 31.1721C20.1818 31.1643 20.8447 31.1605 21.5076 31.1721C22.1162 31.1837 22.6124 30.9356 23.0466 30.5402C23.7289 29.916 24.1399 29.1252 24.4577 28.2723C24.6361 27.7955 24.7756 27.3109 24.826 26.8031C24.8493 26.5588 24.8338 26.3146 24.7524 26.082C24.64 25.7641 24.3957 25.6129 24.0778 25.6013C23.5739 25.5819 23.0699 25.5974 22.5659 25.5935C22.4768 25.5935 22.469 25.6556 22.4496 25.7098C22.2984 26.1595 22.155 26.6131 22.0038 27.0628C21.8332 27.5745 21.6665 28.0901 21.4766 28.598C21.399 28.8112 21.2827 29.0128 21.1587 29.2027C20.9804 29.4741 20.7129 29.6292 20.3872 29.6369C19.7398 29.6563 19.0924 29.6563 18.445 29.6641C18.4295 29.6602 18.414 29.6524 18.383 29.6447Z" fill="white"/>
<path d="M41.2865 23.0194C40.7631 24.5507 40.2398 26.082 39.7164 27.6094C39.7242 27.6133 39.7358 27.621 39.7435 27.6249C39.7629 27.6094 39.7862 27.5978 39.8017 27.5784C40.4491 26.8767 41.0888 26.175 41.74 25.4772C42.4921 24.6709 43.2481 23.8761 44.004 23.0775C44.0428 23.0388 44.1048 23.0039 44.1591 23.0039C45.2097 23 46.2603 23 47.3108 23C47.3341 23 47.3535 23.0039 47.4 23.0078C47.2643 23.1357 47.1441 23.2481 47.0201 23.3567C46.1517 24.1436 45.2795 24.9306 44.4111 25.7176C43.6978 26.365 42.9845 27.0163 42.2673 27.6598C42.2091 27.7141 42.2014 27.7606 42.2285 27.8304C42.9224 29.7532 43.6164 31.676 44.3064 33.6027C44.318 33.6376 44.3258 33.6764 44.3413 33.7268C44.287 33.7268 44.2521 33.7268 44.2134 33.7268C43.5931 33.7268 42.9728 33.7113 42.3526 33.7307C41.7555 33.7501 41.4028 33.4399 41.2089 32.9282C41.0151 32.4165 40.8484 31.8931 40.6778 31.3698C40.4607 30.7069 40.2553 30.0439 40.0459 29.381C40.0382 29.3578 40.0265 29.3384 40.011 29.3035C39.8094 29.4741 39.6117 29.6408 39.414 29.8075C39.2241 29.9664 39.0341 30.1254 38.848 30.2882C38.8015 30.3308 38.7589 30.3851 38.7395 30.4432C38.4642 31.2225 38.189 32.0056 37.9176 32.7848C37.8207 33.0639 37.7199 33.3469 37.6269 33.6299C37.6036 33.6997 37.5726 33.7268 37.4951 33.7268C36.6577 33.7229 35.8203 33.7268 34.983 33.7268C34.952 33.7268 34.9248 33.7229 34.8783 33.7191C34.8899 33.6687 34.8977 33.6299 34.9093 33.5911C35.452 32.0133 35.9948 30.4394 36.5414 28.8616C37.119 27.1946 37.6928 25.5276 38.2704 23.8645C38.3596 23.6009 38.4526 23.3373 38.5456 23.0775C38.5573 23.0426 38.6077 23.0039 38.6387 23.0039C39.5071 23 40.3754 23 41.2438 23.0039C41.2555 23.0039 41.2632 23.0116 41.2865 23.0194Z" fill="white"/>
<path d="M19.4336 23C19.3676 23.1938 19.3095 23.3605 19.2513 23.5272C19.1157 23.911 18.9877 24.2948 18.8443 24.6747C18.7551 24.9151 18.6272 25.1361 18.4295 25.3105C18.1775 25.5276 17.8751 25.5819 17.5611 25.5858C16.6346 25.5935 15.7081 25.6013 14.7815 25.5858C14.2659 25.578 13.8511 25.7796 13.4945 26.1169C12.6338 26.9232 12.1648 27.9389 11.9748 29.0903C11.9011 29.5283 11.8973 29.9625 12.0523 30.3851C12.219 30.8425 12.5485 31.1217 13.0409 31.1411C13.7193 31.1682 14.3977 31.1527 15.0762 31.1721C15.4095 31.1798 15.7391 31.238 16.0182 31.4473C16.2663 31.6295 16.3593 31.8815 16.2896 32.1723C16.2159 32.4785 16.1112 32.7809 16.0182 33.0833C15.9639 33.2616 15.898 33.4322 15.8437 33.6105C15.8205 33.688 15.7856 33.7229 15.7003 33.7229C14.6109 33.7191 13.5216 33.7268 12.4322 33.7074C11.6802 33.6958 10.9669 33.502 10.3388 33.0716C9.71469 32.6452 9.30763 32.0521 9.1138 31.3194C8.95873 30.7379 8.98587 30.1486 9.05565 29.5555C9.16032 28.66 9.42781 27.811 9.80385 26.993C10.2264 26.0742 10.7885 25.2562 11.5329 24.5701C12.3741 23.7947 13.3743 23.3179 14.4985 23.1318C14.987 23.0504 15.491 23.0194 15.991 23.0116C17.0843 22.9961 18.1775 23.0078 19.2707 23.0078C19.3134 23 19.3599 23 19.4336 23Z" fill="white"/>
<path d="M29.2416 25.5857C29.4393 24.9499 29.6215 24.3335 29.827 23.7249C29.9704 23.3062 30.3193 23.1318 30.7263 23.0736C30.9745 23.0387 31.2264 23.0232 31.4784 23.0232C33.316 23.0193 35.1535 23.0232 36.9911 23.0232C37.0415 23.0232 37.088 23.0232 37.1617 23.0232C37.1306 23.124 37.1074 23.2054 37.0802 23.2829C36.9639 23.6667 36.8476 24.0544 36.7236 24.4343C36.6654 24.6165 36.5957 24.7987 36.522 24.9771C36.3863 25.3027 36.1033 25.45 35.7854 25.5159C35.5373 25.5663 35.2776 25.5896 35.0256 25.5896C33.1454 25.5973 31.2652 25.5935 29.385 25.5935C29.3462 25.5935 29.3036 25.5896 29.2416 25.5857Z" fill="white"/>
<path d="M34.3782 31.1682C34.3162 31.3659 34.2619 31.5558 34.2038 31.7419C34.0875 32.1218 33.9556 32.4979 33.851 32.8817C33.723 33.3662 33.3276 33.6221 32.8818 33.6764C32.6066 33.7113 32.3274 33.7229 32.0483 33.7229C30.2301 33.7268 28.412 33.7268 26.5938 33.7268C26.555 33.7268 26.5202 33.7268 26.462 33.7268C26.5085 33.5678 26.5512 33.4283 26.5938 33.2926C26.7334 32.839 26.8768 32.3854 27.0202 31.9319C27.1482 31.5287 27.4506 31.3155 27.846 31.2341C28.0592 31.1914 28.284 31.1643 28.5011 31.1643C30.4201 31.1604 32.3391 31.1604 34.258 31.1604C34.2929 31.1604 34.3278 31.1682 34.3782 31.1682Z" fill="white"/>
<path d="M27.8809 29.6602C28.0165 29.226 28.1406 28.8112 28.2685 28.4003C28.315 28.2529 28.3654 28.1056 28.4042 27.9544C28.5283 27.4737 28.8578 27.2179 29.3269 27.1442C29.5556 27.1054 29.7882 27.0899 30.0208 27.0899C31.8971 27.0861 33.7734 27.0861 35.6459 27.0861C35.6885 27.0861 35.7312 27.0861 35.7893 27.0861C35.7777 27.1365 35.7738 27.1713 35.7622 27.2062C35.5877 27.7761 35.4171 28.346 35.2311 28.912C35.1031 29.3035 34.7969 29.5129 34.4092 29.5826C34.1533 29.6292 33.8859 29.6524 33.6261 29.6524C31.7537 29.6602 29.8812 29.6563 28.0127 29.6563C27.9739 29.6602 27.9351 29.6602 27.8809 29.6602Z" fill="white"/>
</g>
<defs>
<clipPath id="clip0_200_567">
<rect width="56" height="56" rx="28" fill="white"/>
</clipPath>
</defs>
</svg>
