<svg width="56" height="56" viewBox="0 0 56 56" fill="none" xmlns="http://www.w3.org/2000/svg">
<rect width="56" height="56" rx="28" fill="#F2F2F6"/>
<path fill-rule="evenodd" clip-rule="evenodd" d="M29.4852 35.5525C29.964 35.5525 30.3522 35.9407 30.3522 36.4195C30.3522 36.8983 29.964 37.2865 29.4852 37.2865C29.0064 37.2865 28.6185 36.8983 28.6185 36.4195C28.6185 35.9407 29.0064 35.5525 29.4852 35.5525ZM41.1711 38.7367C41.2154 37.2826 43.5514 37.1499 44.9056 37.97L44.4055 38.9535C43.939 38.6293 43.5352 38.4779 43.0215 38.52C42.5343 38.5598 42.4819 39.09 43.2716 39.0699C44.5054 39.0389 45.1709 39.6872 45.1055 40.5205C44.9997 41.866 42.8805 42.4166 41.0213 41.2374L41.7045 40.2371C42.2215 40.5341 42.7365 40.7994 43.2551 40.7373C43.7931 40.6729 44.0645 40.2387 43.105 40.1372C41.798 39.9984 41.1455 39.5811 41.1711 38.7367ZM30.9795 41.8834V37.7403H32.4879V38.3217C33.0732 37.3508 35.3487 37.3363 35.349 38.8525L35.3493 41.8834H33.8454L33.8285 39.8004C33.8221 38.9674 33.5189 38.8888 33.1104 38.935C32.7717 38.9732 32.4679 39.0961 32.4679 39.8004V41.8834H30.9795ZM28.7017 37.6659H30.2687V41.8834H28.7017V37.6659ZM21.0609 41.8834V37.7403H22.569V38.3217C23.021 37.5676 24.763 37.1998 25.2632 38.3692C25.9742 37.3065 28.054 37.355 28.0531 38.7988L28.0514 41.8834H26.4527V39.617C26.4527 39.0078 26.3488 38.9496 25.8371 38.9722C25.4184 38.991 25.323 39.3381 25.3211 39.7325L25.311 41.8834H23.8071L23.7906 39.8004C23.7838 38.9674 23.601 38.8962 23.1915 38.935C22.7858 38.9732 22.6088 39.0295 22.6088 39.8004V41.8834H21.0609ZM18.3412 37.4327C19.5702 37.4327 20.5666 38.4291 20.5666 39.6581C20.5666 40.8874 19.5702 41.8834 18.3412 41.8834C17.1119 41.8834 16.1155 40.8874 16.1155 39.6581C16.1155 38.4291 17.1119 37.4327 18.3412 37.4327ZM18.3412 38.8661C18.7786 38.8661 19.1331 39.2207 19.1331 39.6581C19.1331 40.0954 18.7786 40.45 18.3412 40.45C17.9038 40.45 17.5493 40.0954 17.5493 39.6581C17.5493 39.2207 17.9038 38.8661 18.3412 38.8661ZM10 41.8834V36.0167H11.7446C12.2982 36.0167 12.7718 36.0468 13.1632 36.107C13.5546 36.1671 13.8746 36.2603 14.1195 36.3862C14.6393 36.6527 15.0363 37.0073 15.3145 37.4476C15.5911 37.8882 15.7296 38.3899 15.7296 38.9538C15.7296 39.5157 15.5911 40.0152 15.3158 40.4529C15.0405 40.8906 14.6423 41.2448 14.1195 41.5143C13.8665 41.6427 13.5433 41.7372 13.1535 41.7961C12.7637 41.855 12.2393 41.8834 11.5852 41.8834H10ZM11.7417 40.3339V37.5666H12.4541C12.6802 37.5666 12.8737 37.5809 13.0335 37.609C13.1936 37.6375 13.3243 37.6815 13.4243 37.7407C13.6365 37.8665 13.7986 38.0338 13.9124 38.2414C14.0253 38.4491 14.082 38.6859 14.082 38.9519C14.082 39.2171 14.0253 39.4526 13.9128 39.659C13.8005 39.8654 13.6378 40.0327 13.4243 40.1598C13.3208 40.2203 13.1888 40.265 13.0296 40.2924C12.8704 40.3203 12.6563 40.3339 12.3891 40.3339H11.7417ZM37.9901 37.4327C39.2191 37.4327 40.2154 38.4291 40.2154 39.6581C40.2154 40.8874 39.2191 41.8834 37.9901 41.8834C36.7608 41.8834 35.7644 40.8874 35.7644 39.6581C35.7644 38.4291 36.7608 37.4327 37.9901 37.4327ZM37.9901 38.8661C38.4271 38.8661 38.7817 39.2207 38.7817 39.6581C38.7817 40.0954 38.4271 40.45 37.9901 40.45C37.5527 40.45 37.1981 40.0954 37.1981 39.6581C37.1981 39.2207 37.5527 38.8661 37.9901 38.8661ZM40.6793 35.5622C41.0226 35.5622 41.3176 35.7673 41.4486 36.0617C41.5496 36.2885 41.5577 36.577 41.4965 36.818C41.4024 37.1891 41.0896 37.5517 40.4299 37.8963L40.2481 37.6501C40.3769 37.5424 40.5095 37.4314 40.5632 37.3502C40.659 37.2049 40.5338 37.2408 40.4283 37.2079C40.086 37.1011 39.8376 36.7815 39.8376 36.4043C39.8376 35.9391 40.2145 35.5622 40.6793 35.5622Z" fill="#0074AE"/>
<path d="M45.6345 37.6263C45.6957 37.6263 45.7558 37.6419 45.8144 37.6733C45.8726 37.705 45.9182 37.7499 45.9509 37.8088C45.9836 37.8674 46.0001 37.9285 46.0001 37.9922C46.0001 38.0553 45.9839 38.1158 45.9515 38.174C45.9195 38.2323 45.8742 38.2776 45.8163 38.3096C45.7584 38.3419 45.6979 38.3578 45.6345 38.3578C45.5711 38.3578 45.5103 38.3419 45.4524 38.3096C45.3942 38.2776 45.3492 38.2323 45.3168 38.174C45.2842 38.1158 45.2683 38.0553 45.2683 37.9922C45.2683 37.9285 45.2848 37.8674 45.3175 37.8088C45.3502 37.7499 45.3958 37.705 45.4546 37.6733C45.5129 37.6419 45.573 37.6263 45.6345 37.6263ZM45.6345 37.6868C45.5831 37.6868 45.5329 37.7001 45.4844 37.7263C45.4356 37.7525 45.3974 37.7904 45.3702 37.8392C45.3427 37.8881 45.3288 37.9392 45.3288 37.9922C45.3288 38.045 45.3424 38.0954 45.3696 38.1436C45.3964 38.1921 45.4343 38.2297 45.4828 38.2568C45.531 38.2837 45.5818 38.2973 45.6345 38.2973C45.6869 38.2973 45.7377 38.2837 45.7862 38.2568C45.8348 38.2297 45.8723 38.1921 45.8991 38.1436C45.9257 38.0954 45.9393 38.045 45.9393 37.9922C45.9393 37.9392 45.9257 37.8881 45.8985 37.8392C45.871 37.7904 45.8328 37.7525 45.7843 37.7263C45.7354 37.7001 45.6853 37.6868 45.6345 37.6868ZM45.4737 38.1944V37.8007H45.609C45.6555 37.8007 45.6889 37.8043 45.7096 37.8114C45.7303 37.8188 45.7464 37.8314 45.7591 37.8496C45.7714 37.8677 45.7775 37.8871 45.7775 37.9075C45.7775 37.9363 45.7672 37.9612 45.7464 37.9825C45.7261 38.0039 45.6989 38.0158 45.6649 38.0184C45.6788 38.0243 45.6902 38.031 45.6982 38.0391C45.7141 38.0547 45.7335 38.0809 45.7565 38.1174L45.8044 38.1944H45.727L45.6921 38.1323C45.6646 38.0838 45.6426 38.053 45.6255 38.0407C45.6141 38.0317 45.597 38.0272 45.5747 38.0272H45.5375V38.1944H45.4737ZM45.5375 37.9728H45.6145C45.6513 37.9728 45.6762 37.9673 45.6898 37.9563C45.7031 37.9453 45.7099 37.9308 45.7099 37.9126C45.7099 37.901 45.7067 37.8906 45.7002 37.8813C45.6937 37.8722 45.6847 37.8654 45.6733 37.8609C45.662 37.8564 45.6407 37.8541 45.6096 37.8541H45.5375V37.9728Z" fill="#0074AE"/>
<path fill-rule="evenodd" clip-rule="evenodd" d="M24.9528 19.6197L30.421 14.1706C30.6497 13.9426 31.0233 13.9432 31.2511 14.1719L36.4103 19.349C36.6384 19.5777 36.6377 19.9513 36.4087 20.1794L30.9405 25.6285L24.9528 19.6197ZM29.8526 18.6528C30.4268 18.0805 31.3562 18.0821 31.9282 18.6563C32.5005 19.2306 32.4988 20.1596 31.9246 20.7319C31.3507 21.3039 30.4213 21.3023 29.849 20.7284C29.2771 20.1542 29.2787 19.2247 29.8526 18.6528Z" fill="#E71E29"/>
<path fill-rule="evenodd" clip-rule="evenodd" d="M25.7219 24.9032C26.2961 24.3312 27.2256 24.3328 27.7975 24.9071C28.3698 25.4809 28.3682 26.4104 27.794 26.9823C27.2197 27.5546 26.2906 27.553 25.7184 26.9788C25.1461 26.4045 25.148 25.4754 25.7219 24.9032ZM21.4255 24.9164C21.9997 24.3445 22.9291 24.3461 23.5011 24.9203C24.0734 25.4942 24.0717 26.4236 23.4975 26.9959C22.9233 27.5679 21.9942 27.5662 21.4219 26.992C20.85 26.4181 20.8516 25.4887 21.4255 24.9164ZM19.0898 25.4625L24.558 20.0134L30.5457 26.0222L25.0775 31.4712C24.8488 31.6993 24.4751 31.6987 24.2474 31.4699L19.0882 26.2926C18.8604 26.0639 18.8611 25.6902 19.0898 25.4625Z" fill="#0074AE"/>
<path d="M26.9784 31.6684V30.935H26.6992V30.8069H27.4028V30.935H27.122V31.6684H26.9784ZM27.4992 31.6684V30.8069H27.7108L27.9282 31.495L28.1385 30.8069H28.3462V31.6684H28.2148V30.9453L27.9929 31.6684H27.8629L27.6316 30.935V31.6684H27.4992Z" fill="#0074AE"/>
</svg>
