<svg width="56" height="56" viewBox="0 0 56 56" fill="none" xmlns="http://www.w3.org/2000/svg">
<rect x="0.5" y="0.5" width="55" height="55" rx="27.5" fill="white"/>
<g clip-path="url(#clip0_823_697)">
<path d="M28.3224 39.0836C28.9284 39.0358 29.4503 39.0107 29.969 38.951C31.5273 38.777 33.0701 38.4855 34.5839 38.079C36.7011 37.5063 38.3287 36.2797 39.6504 34.5848C40.9721 32.8899 42.0089 31.0491 42.6137 28.9839C43.019 27.5822 43.151 26.1165 43.0025 24.6655C42.8854 23.4315 42.6764 22.2206 42.1108 21.0959C41.1364 19.1309 39.8146 17.3555 38.2084 15.854C37.4649 15.1625 36.6631 14.5633 35.7251 14.1566C35.5795 14.0937 35.5301 14.0246 35.5985 13.8712C35.9443 13.0652 36.2837 12.2567 36.6561 11.3766C37.1564 11.6237 37.6472 11.8292 38.1013 12.0964C39.7337 13.0621 41.1897 14.2949 42.4079 15.7427C44.2793 17.9431 45.3794 20.4823 45.7422 23.3334C45.8594 24.2557 45.943 25.1842 45.9892 26.1121C46.083 27.9749 45.6561 29.7465 44.9569 31.4622C43.9778 33.8656 42.6175 36.0188 40.6985 37.8005C38.4218 39.9147 35.7201 41.2236 32.6833 41.8152C31.3357 42.078 29.9493 42.1509 28.5788 42.2899C28.0779 42.3408 27.4553 42.3244 26.9525 42.3628L28.3224 39.0836Z" fill="#EE0908"/>
<path d="M27.6631 14.5376C27.0614 14.5376 26.5231 14.5018 25.9956 14.5439C23.9642 14.6993 21.984 15.2525 20.1691 16.1716C18.0488 17.2291 16.2565 18.8367 14.9823 20.8238C14.0095 22.3276 13.209 23.9112 12.7555 25.6495C12.4592 26.7874 12.4224 27.9467 12.544 29.1072C12.734 30.8914 13.0576 32.646 13.822 34.2894C14.6688 36.1125 15.8341 37.7069 17.4357 38.9334C18.0931 39.4364 18.8923 39.762 19.6384 40.1449C20.0608 40.3618 20.0817 40.3618 19.8999 40.7974C19.658 41.3878 19.4085 41.975 19.1849 42.5722C19.1001 42.7998 18.9949 42.8274 18.7866 42.7394C17.8468 42.3394 16.9631 41.8202 16.1577 41.1948C14.7429 40.1015 13.5136 38.8341 12.5529 37.324C11.8323 36.193 11.2658 34.9721 10.8683 33.6934C10.1932 31.5232 9.93224 29.2996 10.0146 27.0376C10.0969 24.7073 10.7508 22.4321 11.9196 20.4095C13.1229 18.2952 14.6859 16.4978 16.6922 15.0984C17.7203 14.3867 18.8274 13.7948 19.9918 13.3343C22.0374 12.5171 24.1716 12.1361 26.361 12.0198C27.107 11.9802 27.8543 11.9569 28.5985 11.894L27.6631 14.5376Z" fill="#EE0908"/>
<path d="M30.9671 24.3896H34.5364L24.4718 48.2353H21.0956L30.9671 24.3896Z" fill="#1244FC"/>
<path d="M30.1311 8H33.7004L24.5985 29.6893H21.2223L30.1311 8Z" fill="#1244FC"/>
<path d="M27.4611 24.3896H30.4934L28.2343 29.6894H25.0437L27.4611 24.3896Z" fill="#54F80F"/>
</g>
<rect x="0.5" y="0.5" width="55" height="55" rx="27.5" stroke="#EAECF0"/>
<defs>
<clipPath id="clip0_823_697">
<rect width="36" height="40.2353" fill="white" transform="translate(10 8)"/>
</clipPath>
</defs>
</svg>
