<svg width="16" height="16" viewBox="0 0 16 16" fill="none" xmlns="http://www.w3.org/2000/svg">
<path fill-rule="evenodd" clip-rule="evenodd" d="M15.222 8.54282C15.222 11.0626 14.6327 12.9366 13.454 14.1647C12.2754 15.3885 10.4573 16.0003 7.99958 16.0001C5.70626 16.0001 3.96621 15.3883 2.77945 14.1647C1.59268 12.9411 0.999535 11.0954 1 8.62761V0.353095C1.00018 0.259918 1.03815 0.170605 1.10558 0.104687C1.17302 0.0387698 1.26445 0.00161268 1.35987 0.00134277H5.51854C5.61399 0.00161229 5.70545 0.0387584 5.77294 0.104666C5.84044 0.170574 5.87847 0.259887 5.87875 0.353095V8.80978C5.87875 9.81737 6.06949 10.5924 6.45795 11.1392C6.65058 11.3889 6.89906 11.5922 7.18443 11.7338C7.46979 11.8753 7.78451 11.9514 8.10455 11.9561C8.42459 11.9608 8.7415 11.894 9.0311 11.7609C9.3207 11.6278 9.57532 11.4318 9.77554 11.1879C10.1554 10.6749 10.3446 9.91861 10.3432 8.91909V7.33535H15.222V8.54282Z" fill="#1F3E79"/>
<path fill-rule="evenodd" clip-rule="evenodd" d="M14.845 6.40985H10.3435V0.368437C10.3437 0.270836 10.3835 0.177278 10.4541 0.108232C10.5247 0.0391849 10.6205 0.00026995 10.7205 0H11.3945C11.3952 0.990651 11.7986 1.94051 12.5162 2.64078C13.2338 3.34106 14.2067 3.73443 15.2212 3.73443V6.40985H14.845Z" fill="#1F3E79"/>
<path fill-rule="evenodd" clip-rule="evenodd" d="M12.3531 0H14.8449C14.9449 0.000269581 15.0407 0.0391735 15.1114 0.10821C15.1821 0.177247 15.222 0.270805 15.2222 0.368437V2.80448C14.4613 2.80448 13.7315 2.5093 13.1934 1.98387C12.6554 1.45843 12.3531 0.745796 12.3531 0.00272418V0Z" fill="#F4821F"/>
</svg>
