<svg width="56" height="56" viewBox="0 0 56 56" fill="none" xmlns="http://www.w3.org/2000/svg">
<rect x="0.5" y="0.5" width="55" height="55" rx="27.5" fill="white"/>
<path d="M33.7345 34.6507C33.6477 33.881 33.7189 33.1089 33.6927 32.3384C33.687 32.1808 33.755 32.1359 33.909 32.1383C34.3857 32.1438 34.8624 32.1572 35.3375 32.1336C35.6324 32.1194 35.6275 32.2675 35.6267 32.47C35.6209 33.7518 35.6267 35.0336 35.6267 36.3161C35.6267 36.9307 35.6185 37.5459 35.6316 38.1604C35.6365 38.3661 35.5734 38.4275 35.358 38.4244C34.4463 38.4141 33.5338 38.4102 32.6221 38.4244C32.3879 38.4283 32.2855 38.303 32.1643 38.1612C30.9356 36.7305 29.7388 35.2817 28.597 33.7817C28.4627 33.8605 28.5241 33.9787 28.5241 34.0685C28.5192 35.4031 28.5126 36.7376 28.5241 38.0714C28.5241 38.3377 28.4668 38.4409 28.1702 38.4236C27.7361 38.3992 27.2987 38.4094 26.8596 38.4236C26.6581 38.4291 26.5762 38.3873 26.577 38.1691C26.5858 36.2458 26.5858 34.3227 26.577 32.3999C26.577 32.1919 26.6418 32.1336 26.8547 32.1359C27.7664 32.1462 28.6789 32.1501 29.5906 32.1359C29.8363 32.1312 29.9182 32.2864 30.0362 32.4203C31.1698 33.7392 32.2863 35.0706 33.3544 36.4383C33.4191 36.5378 33.4961 36.6293 33.5838 36.7108C33.8099 36.885 33.6862 36.6399 33.7288 36.5927C33.7326 35.9461 33.7345 35.2988 33.7345 34.6507Z" fill="#262223"/>
<path d="M45.7231 32.1399C44.4338 33.1081 43.3321 34.096 42.1747 35.0202C41.9126 35.2289 41.9527 35.3014 42.196 35.4818C43.4632 36.4272 44.7148 37.3868 46 38.3637C45.8239 38.4677 45.6494 38.4149 45.4897 38.4173C44.9319 38.4244 44.3708 38.3842 43.817 38.4299C43.3108 38.4724 42.9455 38.2975 42.5818 37.9871C41.8716 37.3797 41.1271 36.8109 40.4038 36.2185C40.0548 35.9317 39.6526 36.0869 39.2742 36.0782C39.13 36.0782 39.1849 36.2445 39.1841 36.3382C39.1792 36.9393 39.1718 37.5412 39.1841 38.1431C39.1898 38.3645 39.1227 38.4323 38.8909 38.4252C38.3879 38.4086 37.8842 38.4133 37.3804 38.4252C37.1928 38.4291 37.1207 38.385 37.1216 38.1888C37.1287 36.2534 37.1287 34.3177 37.1216 32.3817C37.1216 32.1895 37.1879 32.1351 37.3796 32.1391C37.8965 32.1493 38.4141 32.1509 38.931 32.1391C39.1333 32.1344 39.1849 32.2037 39.1825 32.3872C39.1726 32.9624 39.1956 33.5391 39.171 34.1134C39.1595 34.3994 39.2693 34.4427 39.5396 34.4624C40.0098 34.4963 40.3522 34.3466 40.6864 34.0338C41.3417 33.4288 42.042 32.8702 42.7211 32.288C42.8136 32.2092 42.8947 32.1391 43.0348 32.1399C43.8932 32.143 44.7443 32.1399 45.7231 32.1399Z" fill="#262223"/>
<path d="M25.0723 28.478C24.4285 30.0135 23.4439 30.6288 22.0416 30.4137C20.867 30.2333 19.9741 29.2808 19.9282 28.0613C19.8889 27.0009 20.527 25.92 21.9842 25.5465C21.6975 25.27 21.4338 25.0187 21.1725 24.765C20.5631 24.1734 20.5614 23.4588 21.1725 22.8687C22.251 21.833 23.3301 20.797 24.4097 19.7607C25.2116 18.9902 25.5261 18.9288 26.5508 19.3668C26.4624 19.158 26.3567 18.9784 26.3108 18.7862C26.2533 18.5764 26.2555 18.3555 26.3171 18.1468C26.3788 17.938 26.4977 17.7491 26.6614 17.5997C27.0947 17.1837 27.5403 16.778 27.9564 16.3463C28.1383 16.1564 28.2505 16.1777 28.3963 16.3597C28.4629 16.4429 28.5402 16.5175 28.6265 16.5818C28.7969 16.7087 28.7837 16.8064 28.6265 16.949C28.1923 17.3429 27.7795 17.7636 27.3487 18.1638C27.1029 18.3954 27.1029 18.5987 27.3487 18.8295C27.7795 19.2297 28.1915 19.6481 28.6257 20.0443C28.7895 20.1901 28.7895 20.2917 28.6175 20.4091C28.4233 20.5423 28.3357 20.8188 27.9335 20.803C28.1269 20.9966 28.3303 21.1807 28.5429 21.3545C28.8132 21.553 28.7715 21.7059 28.5323 21.8926C28.4078 21.9895 28.3193 22.1289 28.1923 22.2747C27.4748 21.5719 26.7974 20.9133 26.1151 20.2563C25.6842 19.8411 25.6064 19.8427 25.1641 20.2673C24.0686 21.3214 22.971 22.3761 21.8712 23.4312C21.5223 23.7668 21.5223 23.8622 21.8712 24.1986C22.3414 24.6529 22.8135 25.1061 23.2875 25.5584C23.4783 25.7403 23.6552 25.9326 23.5135 26.2091C23.3718 26.4856 23.1269 26.4565 22.8492 26.4037C21.9056 26.2225 20.9816 26.8299 20.8539 27.6965C20.7113 28.6561 21.3765 29.5085 22.3414 29.5944C22.5685 29.6122 22.797 29.5865 23.0137 29.5186C23.2304 29.4508 23.4309 29.3422 23.6036 29.1992C23.7763 29.0562 23.9178 28.8816 24.0197 28.6856C24.1216 28.4896 24.1821 28.276 24.1975 28.0573C24.1972 27.9012 24.176 27.7458 24.1344 27.5949C24.0828 27.3585 24.0836 27.1474 24.3359 27.0174C24.5882 26.8874 24.784 27.0032 24.9568 27.1663C25.4327 27.6177 25.9021 28.0715 26.3739 28.5237C26.8138 28.9452 26.9014 28.9468 27.3323 28.5348C27.4961 28.3772 27.6517 28.211 27.8237 28.0668C27.9466 27.9652 28.0359 27.7146 28.2063 27.7974C28.4135 27.899 28.5691 28.1062 28.7338 28.2803C28.8157 28.3646 28.7018 28.415 28.6519 28.4631C28.3242 28.7782 28.0105 29.1067 27.6689 29.4037C27.4305 29.6042 27.1224 29.7109 26.8059 29.7026C26.4893 29.6942 26.1877 29.5715 25.9611 29.3588C25.6654 29.0894 25.3926 28.7995 25.0723 28.478Z" fill="#262223"/>
<path d="M32.9752 15.0007C33.4077 13.6826 34.4324 12.9303 35.6005 13.0051C36.9004 13.0886 37.8891 13.9261 38.0791 15.1055C38.2806 16.3486 37.5967 17.3224 36.0567 17.9416C36.3467 18.215 36.6301 18.4718 36.8996 18.7405C37.45 19.2872 37.4476 20.0144 36.8889 20.5525C35.7564 21.6476 34.6202 22.7395 33.4806 23.8283C32.8114 24.4712 32.3494 24.531 31.3902 24.0134C31.6245 24.3884 31.7645 24.6791 31.7465 25.0203C31.7438 25.3229 31.619 25.6127 31.3984 25.8286C30.9454 26.2635 30.4842 26.6897 30.0436 27.1356C29.8871 27.2931 29.8068 27.2672 29.6602 27.1277C29.2253 26.7157 29.2187 26.7228 29.6381 26.3194C29.9559 26.0145 30.2745 25.7096 30.5899 25.4024C30.9593 25.0423 30.9601 24.9139 30.5973 24.5625C30.2139 24.1915 29.8363 23.8133 29.4399 23.4596C29.2646 23.302 29.2138 23.187 29.4276 23.0286C29.6086 22.8955 29.7257 22.6891 30.0542 22.5741C29.815 22.3724 29.6193 22.1975 29.412 22.0352C29.2482 21.9083 29.2195 21.7988 29.4014 21.6633C29.4886 21.599 29.5664 21.5234 29.6324 21.4388C29.7814 21.2474 29.8945 21.2474 30.0755 21.4293C30.689 22.0423 31.323 22.6363 31.9496 23.2366C32.324 23.5951 32.4624 23.6022 32.8253 23.2555C33.9447 22.1851 35.062 21.1124 36.1771 20.0373C36.4925 19.7332 36.4908 19.5811 36.1829 19.2817C35.6914 18.809 35.2056 18.3363 34.7084 17.8676C34.5012 17.6746 34.3857 17.4666 34.5381 17.2074C34.6781 16.971 34.9116 17.0002 35.1508 17.0498C35.9404 17.2074 36.6727 16.871 37.029 16.206C37.3624 15.5845 37.2281 14.8447 36.6899 14.3342C36.437 14.0935 36.1109 13.9366 35.7589 13.8865C35.407 13.8363 35.0476 13.8954 34.733 14.0553C34.0482 14.4122 33.7157 15.1212 33.8983 15.8838C33.954 16.1202 33.9286 16.3037 33.7132 16.4298C33.4781 16.5669 33.2733 16.4905 33.0915 16.3148C32.582 15.824 32.0627 15.3418 31.5638 14.8407C31.2976 14.5745 31.0724 14.565 30.8127 14.8407C30.5743 15.0921 30.3057 15.3134 30.0673 15.5671C29.9281 15.7137 29.8216 15.7515 29.6889 15.5734C29.6807 15.5633 29.6713 15.554 29.661 15.5458C29.2236 15.1409 29.2236 15.1409 29.6422 14.7391C29.8445 14.5445 30.0452 14.3452 30.2492 14.1561C30.8004 13.6393 31.5491 13.6299 32.1086 14.1443C32.392 14.3996 32.6541 14.68 32.9752 15.0007Z" fill="#262223"/>
<path d="M28.0465 22.6245C28.3463 22.5678 28.4766 22.3094 28.6666 22.1274C28.8403 21.9619 28.9599 21.9225 29.1171 22.1274C29.1825 22.2116 29.2603 22.2862 29.3481 22.3487C29.5488 22.4921 29.4939 22.5993 29.3367 22.7427C28.6961 23.3438 28.0662 23.9559 27.4347 24.5665C27.0751 24.9139 27.0702 25.0392 27.4224 25.3764C28.5347 26.4504 29.6504 27.5224 30.7693 28.5923C31.1092 28.9177 31.2362 28.9145 31.581 28.5852C32.0643 28.1246 32.546 27.6621 33.026 27.1978C33.2209 27.0103 33.4355 26.8709 33.7124 27.0245C33.9737 27.1687 33.9434 27.3908 33.8877 27.6429C33.6968 28.504 34.2268 29.3084 35.1164 29.5385C35.9355 29.7512 36.8291 29.2879 37.1126 28.5064C37.2501 28.1182 37.2285 27.6942 37.0523 27.3208C36.8761 26.9473 36.5584 26.6526 36.164 26.4967C35.8183 26.3653 35.4379 26.344 35.0787 26.436C34.8272 26.4919 34.6257 26.4604 34.5168 26.2666C34.4078 26.0728 34.4414 25.8388 34.6331 25.6576C35.1469 25.1707 35.6578 24.6807 36.1657 24.1875C36.4933 23.8724 36.4876 23.7637 36.1599 23.443C35.9207 23.2067 35.6848 22.9703 35.4358 22.7505C35.2892 22.619 35.2392 22.5142 35.4211 22.3747C35.5364 22.2826 35.6428 22.1805 35.7389 22.0698C35.8478 21.9477 35.9314 21.9706 36.0371 22.0754C36.3598 22.3905 36.7063 22.693 37.0126 23.0255C37.4377 23.4848 37.3976 24.2072 36.9602 24.6799C36.6899 24.9714 36.3319 25.1802 36.0813 25.5465C36.7538 25.7269 37.3214 26.0547 37.6917 26.6314C38.0619 27.2081 38.2028 27.8336 38.0455 28.5072C37.9238 29.056 37.6128 29.5492 37.163 29.9068C36.7132 30.2643 36.1511 30.4651 35.5677 30.4768C34.3726 30.5059 33.3708 29.7559 32.9957 28.5332C32.7024 28.7128 32.4952 28.9696 32.2585 29.1934C31.5212 29.893 30.8447 29.8922 30.1042 29.1808C28.9918 28.1078 27.877 27.0353 26.7597 25.9633C26.1863 25.4118 26.1167 24.9391 26.5058 24.2364C26.5312 24.1899 26.5623 24.1497 26.5058 24.108L26.4976 24.1143C26.6614 24.16 26.6852 24.078 26.668 23.952L26.6614 23.9583C26.7515 23.9882 26.781 23.9583 26.7499 23.8732L26.7425 23.8795C26.8332 23.9105 26.8626 23.8821 26.831 23.7944L26.8244 23.8015C26.9151 23.8314 26.9446 23.8031 26.9129 23.7164L26.9063 23.7227C26.997 23.7537 27.0265 23.7253 26.9948 23.6376L26.9882 23.6439C27.0789 23.6749 27.1084 23.6466 27.0767 23.5588L27.0693 23.5659C27.1611 23.5967 27.1906 23.5659 27.1586 23.4801L27.1512 23.4872C27.2424 23.5181 27.2719 23.4898 27.2397 23.4021L27.2332 23.4084C27.3244 23.4394 27.3538 23.411 27.3216 23.3233L27.3151 23.3296C27.406 23.3603 27.4355 23.3296 27.4035 23.2445L27.397 23.2516C27.4882 23.2826 27.5177 23.2542 27.4854 23.1665L27.4781 23.1728C27.5698 23.2038 27.5993 23.1754 27.5665 23.0877L27.56 23.094C27.6517 23.1255 27.6812 23.0972 27.6484 23.0089L27.6419 23.0152C27.8172 23.0223 27.9016 22.9428 27.8934 22.7734L27.8868 22.7797C27.9786 22.8112 28.008 22.7828 27.9753 22.6946L27.9687 22.7017C28.0605 22.7322 28.09 22.7038 28.0572 22.6166L28.0465 22.6245Z" fill="#006FB7"/>
<path d="M29.9297 20.8109C29.7708 20.9511 29.5881 21.074 29.4571 21.2355C29.2244 21.5231 29.0606 21.4932 28.8018 21.2411C28.5429 20.989 28.5339 20.8511 28.8075 20.6053C29.444 20.0349 30.0444 19.4235 30.6669 18.839C30.9053 18.6144 30.9397 18.4104 30.689 18.1701C29.5139 17.0451 28.3417 15.9159 27.1725 14.7824C26.9415 14.5595 26.7319 14.5729 26.5074 14.7919C25.9963 15.2882 25.4811 15.7743 24.9748 16.273C24.7864 16.4574 24.5858 16.5669 24.3245 16.4306C24.0632 16.2943 24.0984 16.0768 24.1475 15.846C24.237 15.4671 24.1828 15.0699 23.9948 14.726C23.8067 14.3821 23.4972 14.1141 23.122 13.9702C22.3733 13.6866 21.4223 13.9592 21.0283 14.6572C20.7171 15.2087 20.7138 15.8145 21.102 16.3644C21.4764 16.8938 22.0072 17.1349 22.6731 17.0947C22.741 17.0896 22.8079 17.0761 22.8722 17.0545C23.1318 16.9758 23.3694 16.9915 23.5053 17.2468C23.6413 17.502 23.5053 17.6895 23.3145 17.8684C22.8312 18.3214 22.3569 18.7854 21.8827 19.2463C21.5264 19.5913 21.5255 19.7111 21.8769 20.057C22.0571 20.235 22.2251 20.432 22.4298 20.5793C22.769 20.8243 22.7329 21.0031 22.4298 21.2655C22.2013 21.464 22.076 21.5097 21.8638 21.2655C21.6369 21 21.365 20.781 21.1184 20.5367C20.5934 20.016 20.5762 19.3046 21.0922 18.7783C21.3617 18.5041 21.6656 18.2576 22.0014 17.9519C20.482 17.4453 19.7726 16.4889 19.9856 15.007C20.1379 13.9489 21.0881 13.2202 21.972 13.0681C22.6439 12.9365 23.3427 13.0598 23.9223 13.4124C24.5194 13.7724 24.8028 14.331 25.0576 14.9991C25.3582 14.6989 25.6064 14.4405 25.8677 14.1947C26.4755 13.6228 27.2135 13.6243 27.8147 14.1947C28.9271 15.2567 30.0141 16.3305 31.1387 17.376C31.6875 17.8841 31.989 18.3434 31.4787 19.3258L31.486 19.3211C31.4626 19.3211 31.4401 19.3301 31.4235 19.346C31.4069 19.362 31.3976 19.3836 31.3976 19.4062L31.4041 19.3999C31.3806 19.3999 31.3581 19.4089 31.3416 19.4248C31.325 19.4408 31.3156 19.4624 31.3156 19.485L31.3222 19.4787C31.2987 19.4787 31.2762 19.4876 31.2596 19.5036C31.2431 19.5196 31.2337 19.5412 31.2337 19.5638L31.2403 19.5575C31.2287 19.5573 31.2171 19.5593 31.2064 19.5634C31.1956 19.5676 31.1858 19.5738 31.1775 19.5816C31.1693 19.5895 31.1628 19.5989 31.1583 19.6092C31.1539 19.6195 31.1517 19.6306 31.1518 19.6418L31.1584 19.6355C31.1468 19.6355 31.1353 19.6377 31.1246 19.642C31.114 19.6462 31.1043 19.6525 31.0961 19.6604C31.088 19.6683 31.0815 19.6777 31.0772 19.688C31.0728 19.6984 31.0706 19.7094 31.0707 19.7205L31.0773 19.7142C31.0538 19.7142 31.0313 19.7232 31.0147 19.7392C30.9981 19.7551 30.9888 19.7768 30.9888 19.7993L30.9954 19.793C30.9838 19.7929 30.9723 19.795 30.9616 19.7992C30.9509 19.8034 30.9411 19.8096 30.9329 19.8174C30.9246 19.8253 30.9181 19.8346 30.9137 19.8449C30.9092 19.8552 30.9069 19.8662 30.9069 19.8773L30.9135 19.871C30.89 19.871 30.8675 19.88 30.8509 19.8959C30.8343 19.9119 30.825 19.9335 30.825 19.9561L30.8315 19.9498C30.82 19.9498 30.8085 19.952 30.7978 19.9563C30.7871 19.9606 30.7774 19.9669 30.7693 19.9748C30.7611 19.9827 30.7547 19.9921 30.7503 20.0024C30.746 20.0127 30.7438 20.0238 30.7439 20.0349L30.7496 20.0286C30.662 20.0302 30.5783 20.0644 30.5163 20.1241C30.4543 20.1837 30.4188 20.2641 30.4171 20.3484L30.4228 20.3429C30.3996 20.3429 30.3773 20.3518 30.3608 20.3676C30.3444 20.3834 30.3352 20.4049 30.3352 20.4272L30.3417 20.4209C30.3183 20.4209 30.2957 20.4299 30.2792 20.4458C30.2626 20.4618 30.2533 20.4834 30.2533 20.506L30.2598 20.4997C30.2363 20.4997 30.2138 20.5087 30.1972 20.5246C30.1807 20.5406 30.1713 20.5622 30.1713 20.5848L30.1779 20.5785C30.1546 20.5787 30.1324 20.5876 30.1159 20.6034C30.0993 20.6191 30.0899 20.6404 30.0894 20.6628L30.096 20.6565C30.0727 20.6569 30.0506 20.666 30.0342 20.6819C30.0178 20.6978 30.0085 20.7192 30.0083 20.7416L30.0149 20.7353C29.9914 20.7353 29.9689 20.7442 29.9523 20.7602C29.9357 20.7761 29.9264 20.7978 29.9264 20.8204L29.9297 20.8109Z" fill="#006FB7"/>
<path d="M18.5243 38.4196C17.5413 38.4196 16.5658 38.411 15.5869 38.4259C15.3338 38.4299 15.2707 38.3653 15.2724 38.1234C15.2827 36.2279 15.2827 34.3324 15.2724 32.4369C15.2724 32.1911 15.3453 32.1217 15.5943 32.1344C16.0694 32.1533 16.5469 32.154 17.022 32.1344C17.2776 32.1241 17.3423 32.2013 17.3407 32.4424C17.3284 33.7888 17.3447 35.1352 17.3267 36.4816C17.3267 36.7739 17.3964 36.8511 17.7043 36.8464C18.9551 36.8274 20.2067 36.8464 21.4584 36.8322C21.741 36.8322 21.8425 36.8976 21.8204 37.1765C21.7971 37.4896 21.7971 37.804 21.8204 38.1171C21.8368 38.3582 21.759 38.4322 21.5042 38.4259C20.509 38.411 19.5162 38.4196 18.5243 38.4196Z" fill="#262223"/>
<path d="M14.2378 35.2738C14.2378 36.2019 14.2272 37.1292 14.2444 38.0565C14.2493 38.3338 14.1969 38.4559 13.8717 38.4362C13.3982 38.407 12.9207 38.4181 12.4456 38.4362C12.1999 38.4441 12.1179 38.3818 12.1179 38.1329C12.1311 36.2389 12.1346 34.3447 12.1286 32.4503C12.1286 32.2139 12.199 32.1351 12.4505 32.1407C12.942 32.158 13.4313 32.158 13.9184 32.1407C14.1772 32.1312 14.237 32.2194 14.2345 32.4558C14.2223 33.3965 14.2296 34.3371 14.2296 35.277L14.2378 35.2738Z" fill="#006FB7"/>
<path d="M25.0355 35.2683C25.0355 36.2098 25.0281 37.152 25.0404 38.0943C25.0404 38.3306 25.0035 38.4409 24.7127 38.4267C24.2106 38.4015 23.7052 38.4118 23.2023 38.4267C23.0057 38.4315 22.9475 38.3724 22.9483 38.1841C22.9549 36.2476 22.9549 34.3111 22.9483 32.3746C22.9483 32.1777 23.0237 32.1383 23.2113 32.1383C23.715 32.1485 24.2196 32.1556 24.7217 32.1383C24.9798 32.1281 25.0412 32.2068 25.0379 32.4455C25.0273 33.3838 25.0355 34.3261 25.0355 35.2683Z" fill="#262223"/>
<path d="M31.4787 19.3219C31.4999 19.3353 31.527 19.366 31.5401 19.3613C32.5828 18.9453 32.8155 18.9894 33.6174 19.7592C33.954 20.0822 34.2817 20.4146 34.6323 20.7242C34.8067 20.8818 34.8108 20.9858 34.6257 21.1182C34.5496 21.1748 34.4818 21.241 34.4242 21.3151C34.2669 21.5136 34.1392 21.5247 33.9491 21.3261C33.5625 20.9228 33.1382 20.5533 32.7467 20.1539C32.4903 19.8931 32.2716 19.9073 32.0225 20.1539C31.6245 20.5478 31.2034 20.922 30.8176 21.3254C30.63 21.5215 30.508 21.5121 30.3417 21.3175C30.2008 21.152 30.0067 21.0276 29.9322 20.8141V20.8196C30.0141 20.8448 30.0583 20.8282 30.0206 20.7345L30.0141 20.7408C30.1066 20.7739 30.1361 20.7455 30.1017 20.6557L30.0952 20.662C30.1885 20.6951 30.218 20.6675 30.1836 20.5777L30.1771 20.584C30.2705 20.6171 30.2999 20.5887 30.2655 20.4989L30.259 20.5052C30.3524 20.5383 30.3819 20.51 30.3475 20.4201L30.3409 20.4264C30.4343 20.4595 30.4638 20.4312 30.4285 20.3421L30.4228 20.3477C30.6317 20.3358 30.7447 20.2311 30.7554 20.0278L30.7496 20.0341C30.843 20.0672 30.8725 20.0388 30.8373 19.949L30.8307 19.9553C30.9247 19.9889 30.9541 19.9606 30.9192 19.8702L30.9126 19.8765C31.0068 19.9104 31.0355 19.8821 31.0011 19.7922L30.9946 19.7985C31.0879 19.8316 31.1174 19.8033 31.083 19.7135L31.0765 19.7198C31.1698 19.7528 31.1993 19.7253 31.1641 19.6347L31.1576 19.641C31.255 19.678 31.2845 19.6496 31.246 19.5567L31.2395 19.563C31.3367 19.5992 31.3662 19.5709 31.3279 19.4779L31.3214 19.4842C31.4189 19.5212 31.4475 19.4921 31.4098 19.3991L31.4033 19.4054C31.4967 19.439 31.5262 19.4107 31.4918 19.3203L31.4787 19.3219Z" fill="#006FB7"/>
<path d="M26.5017 24.108C26.2101 24.2356 25.9357 24.3861 25.5867 24.3624C25.2591 24.3404 24.9781 24.2482 24.7463 24.026C24.2933 23.5927 23.8453 23.1531 23.3882 22.7269C23.2408 22.5906 23.1974 22.4906 23.38 22.3582C23.4774 22.2867 23.5647 22.2033 23.6397 22.11C23.7773 21.9375 23.8854 21.9714 24.0247 22.1148C24.4203 22.5087 24.8266 22.8963 25.2353 23.28C25.5556 23.5793 25.7129 23.5778 26.0241 23.28C26.4214 22.9034 26.8228 22.5315 27.2045 22.1408C27.3814 21.9588 27.5182 21.9091 27.6788 22.136C27.7959 22.3015 28.0531 22.3724 28.0465 22.6213L28.0531 22.6135L27.9646 22.6985L27.9712 22.6914C27.948 22.6924 27.9261 22.7017 27.9097 22.7174C27.8934 22.7332 27.8837 22.7543 27.8827 22.7765L27.8893 22.7702C27.7759 22.8163 27.6857 22.9031 27.6378 23.0121L27.6444 23.0058C27.6212 23.0068 27.5993 23.016 27.5829 23.0318C27.5665 23.0475 27.5569 23.0686 27.5559 23.0909L27.5624 23.0846C27.5393 23.0855 27.5174 23.0948 27.501 23.1106C27.4846 23.1263 27.475 23.1474 27.474 23.1697L27.4813 23.1634C27.458 23.1638 27.4358 23.1729 27.4193 23.1887C27.4028 23.2046 27.3933 23.226 27.3929 23.2484L27.3994 23.2414C27.3762 23.2421 27.3542 23.2514 27.3378 23.2671C27.3214 23.2829 27.3118 23.3041 27.311 23.3264L27.3175 23.3201C27.2944 23.3211 27.2725 23.3304 27.2561 23.3461C27.2397 23.3619 27.2301 23.383 27.2291 23.4052L27.2356 23.3989C27.2124 23.3997 27.1904 23.4089 27.174 23.4247C27.1575 23.4405 27.148 23.4617 27.1471 23.484L27.1545 23.4769C27.1311 23.4777 27.1089 23.487 27.0923 23.5029C27.0757 23.5189 27.0661 23.5403 27.0652 23.5628L27.0726 23.5557L26.9841 23.6408L26.9907 23.6345L26.9022 23.7196L26.9088 23.7133L26.8203 23.7983L26.8269 23.7913L26.7384 23.8763L26.7458 23.87L26.6573 23.9551L26.6639 23.9488C26.6234 23.9596 26.5865 23.9802 26.5567 24.0086C26.5269 24.037 26.5051 24.0723 26.4935 24.1111L26.5017 24.108Z" fill="#006FB7"/>
<path d="M14.3115 30.4673C14.3353 31.1244 13.9192 31.5655 13.2565 31.5868C12.53 31.6097 12.018 31.1622 12.0016 30.4894C11.9933 30.339 12.0168 30.1886 12.0705 30.0471C12.1242 29.9057 12.2071 29.7761 12.3143 29.6663C12.4214 29.5565 12.5505 29.4687 12.6939 29.4081C12.8372 29.3476 12.9918 29.3155 13.1484 29.3139C13.8487 29.2966 14.2845 29.7283 14.3115 30.4673Z" fill="#006FB7"/>
<path d="M25.255 40.1087C25.2547 39.9984 25.2774 39.8891 25.3216 39.7873C25.3658 39.6855 25.4307 39.5932 25.5125 39.5158C25.5943 39.4384 25.6913 39.3774 25.7978 39.3365C25.9044 39.2956 26.0184 39.2756 26.1331 39.2776C26.3662 39.2867 26.5863 39.383 26.7467 39.5459C26.9071 39.7088 26.9951 39.9255 26.9919 40.1498C26.9887 40.3741 26.8946 40.5884 26.7296 40.747C26.5646 40.9056 26.3418 40.996 26.1085 40.999C25.6097 41.0014 25.2476 40.6248 25.255 40.1087ZM26.1282 39.5573C26.0471 39.555 25.9665 39.5685 25.891 39.5969C25.8155 39.6253 25.7467 39.668 25.6887 39.7224C25.6307 39.7769 25.5846 39.842 25.5533 39.9139C25.522 39.9858 25.5061 40.0631 25.5065 40.141C25.5064 40.2918 25.566 40.437 25.6733 40.5469C25.7806 40.6568 25.9275 40.7233 26.0839 40.7327C26.165 40.7357 26.2459 40.7225 26.3214 40.694C26.3969 40.6655 26.4654 40.6222 26.5227 40.5669C26.58 40.5116 26.6247 40.4455 26.6541 40.3727C26.6834 40.3 26.6968 40.2222 26.6934 40.1442C26.6942 39.8102 26.4558 39.562 26.1282 39.5549V39.5573Z" fill="#262223"/>
<path d="M19.2361 40.9612C18.7045 41.0565 18.7168 40.5294 18.399 40.364C18.3269 40.5098 18.3736 40.6634 18.3621 40.8075C18.3555 40.8863 18.3621 40.9714 18.2458 40.9793C18.1295 40.9872 18.1016 40.9289 18.1016 40.8351C18.1016 40.3782 18.1016 39.9205 18.1016 39.4635C18.1013 39.413 18.1209 39.3643 18.1565 39.3272C18.2957 39.2114 18.9912 39.3319 19.1108 39.5029C19.2811 39.7456 19.3131 40.0544 19.0534 40.2025C18.7037 40.3979 18.9043 40.5176 19.0305 40.6846C19.0977 40.7674 19.1558 40.8532 19.2361 40.9612ZM18.6119 39.562C18.494 39.5541 18.3326 39.5336 18.3662 39.7377C18.3891 39.8779 18.2319 40.104 18.5194 40.1403C18.7217 40.1663 18.9125 40.1087 18.9486 39.8842C18.9846 39.6597 18.8274 39.5927 18.6119 39.562Z" fill="#262223"/>
<path d="M34.9771 40.5381C34.7265 40.932 34.4037 41.0667 34.0065 40.9698C33.8284 40.9241 33.6702 40.8247 33.5552 40.6862C33.4402 40.5476 33.3744 40.3773 33.3675 40.2001C33.3462 39.8062 33.5125 39.5124 33.8885 39.3524C34.2915 39.1815 34.6429 39.2933 34.9534 39.6676C34.7527 39.7463 34.7502 39.7511 34.5602 39.6494C34.2743 39.4974 34.0015 39.5076 33.791 39.7526C33.5805 39.9977 33.5633 40.2892 33.791 40.535C34.004 40.765 34.2825 40.8233 34.5536 40.6224C34.6822 40.5255 34.8026 40.5381 34.9771 40.5381Z" fill="#262223"/>
<path d="M31.1592 40.3018C31.1592 40.531 31.1592 40.6839 31.1592 40.8367C31.1592 40.9249 31.1281 40.9864 31.0167 40.9769C30.9241 40.9698 30.911 40.9076 30.911 40.843C30.911 40.3742 30.911 39.9055 30.911 39.4367C30.9128 39.4122 30.92 39.3883 30.932 39.3666C30.944 39.3449 30.9605 39.3259 30.9806 39.3107C31.16 39.2004 31.8489 39.3611 31.9529 39.547C32.1208 39.8417 32.0725 40.1206 31.7612 40.2829C31.5663 40.3837 31.663 40.4491 31.7293 40.5405C31.8219 40.6681 31.9169 40.7926 32.0152 40.9241C31.7989 40.9643 31.7989 40.9643 31.1592 40.3018ZM31.3623 40.1442C31.5991 40.1442 31.7719 40.0591 31.7768 39.8464C31.7768 39.6203 31.5778 39.5762 31.3795 39.5541C31.1076 39.5234 31.1617 39.7054 31.1592 39.8519C31.1567 39.9984 31.1166 40.1883 31.3623 40.1442Z" fill="#262223"/>
<path d="M20.6294 40.1032V39.9079C20.6294 39.2516 20.6802 39.2106 21.3527 39.2989C21.4346 39.3099 21.5165 39.3075 21.5231 39.4139C21.5321 39.5423 21.4494 39.562 21.3412 39.5557C21.2593 39.551 21.1774 39.5596 21.0955 39.5557C20.9087 39.5431 20.876 39.6408 20.8776 39.792C20.8776 39.9346 20.9153 40.0174 21.0783 40.0111C21.146 40.0075 21.2138 40.0075 21.2814 40.0111C21.3797 40.0174 21.5182 39.9654 21.5206 40.1355C21.5231 40.3057 21.3846 40.2498 21.2863 40.2655C21.1504 40.2868 20.9505 40.1867 20.8956 40.3616C20.835 40.5539 20.8465 40.7556 21.1717 40.7351C21.2855 40.7288 21.5182 40.6161 21.5132 40.8619C21.5083 41.0707 21.3019 40.9675 21.1905 40.9706C20.6278 40.9864 20.6278 40.9801 20.6278 40.4499L20.6294 40.1032Z" fill="#262223"/>
<path d="M36.3975 39.8724C36.3975 39.2847 36.3975 39.2815 36.9971 39.3036C37.1019 39.3036 37.2739 39.2311 37.2846 39.4194C37.2952 39.6077 37.1207 39.5321 37.0143 39.5541C36.9078 39.5762 36.7333 39.4872 36.7063 39.6502C36.6792 39.8133 36.6006 40.0347 36.9381 40.0213C37.0552 40.0166 37.2878 39.9086 37.2797 40.1537C37.2723 40.3545 37.0659 40.2616 36.952 40.2616C36.7685 40.2616 36.685 40.2986 36.6858 40.4979C36.6866 40.6973 36.7792 40.7303 36.9569 40.7343C37.07 40.7343 37.2723 40.6382 37.2805 40.8462C37.2895 41.066 37.0822 40.9691 36.9708 40.973C36.3975 40.9911 36.3975 40.9864 36.3975 40.4215V39.8724Z" fill="#262223"/>
<path d="M39.1735 40.9919C39.0539 40.9856 38.8966 40.9643 38.8114 40.8343C38.7467 40.7351 38.6017 40.6027 38.741 40.4948C38.8802 40.3869 38.931 40.5547 38.9982 40.6429C39.0246 40.6892 39.0686 40.7238 39.1211 40.7394C39.1735 40.7549 39.2302 40.7503 39.2791 40.7264C39.3236 40.7089 39.3625 40.6805 39.392 40.644C39.4215 40.6075 39.4404 40.5642 39.447 40.5184C39.4569 40.4667 39.4473 40.4132 39.4198 40.3677C39.3923 40.3222 39.3488 40.2876 39.2971 40.2703C39.1699 40.2271 39.0464 40.1744 38.9277 40.1127C38.7188 39.9882 38.7213 39.7857 38.7688 39.5888C38.8196 39.38 38.9982 39.3004 39.1956 39.2839C39.2844 39.2752 39.3738 39.2932 39.4514 39.3356C39.5291 39.3779 39.5911 39.4425 39.6289 39.5202C39.6625 39.5833 39.6985 39.6778 39.6191 39.7298C39.5896 39.7473 39.5546 39.7541 39.5204 39.749C39.4862 39.744 39.455 39.7274 39.4323 39.7022C39.3504 39.6069 39.2898 39.4659 39.1128 39.5588C39.0753 39.5754 39.0444 39.6033 39.0249 39.6383C39.0054 39.6733 38.9983 39.7134 39.0047 39.7526C39.0358 39.9323 39.1972 39.9433 39.3389 39.989C39.6223 40.0788 39.7542 40.2742 39.7026 40.5602C39.6576 40.8209 39.4986 40.9832 39.1735 40.9919Z" fill="#262223"/>
<path d="M23.4333 40.9974C23.2793 40.9935 23.1458 40.9675 23.0516 40.858C22.9574 40.7485 22.8124 40.6137 22.9516 40.4916C23.0909 40.3695 23.1359 40.5657 23.2105 40.6421C23.285 40.7185 23.3743 40.7855 23.4931 40.7209C23.5433 40.6997 23.5857 40.6644 23.6149 40.6198C23.6441 40.5751 23.6587 40.5231 23.6569 40.4704C23.6552 40.4092 23.6309 40.3506 23.5882 40.3052C23.5455 40.2599 23.4874 40.2307 23.4243 40.223C23.1228 40.1544 22.9328 40.015 22.9639 39.6833C22.9868 39.447 23.1277 39.3304 23.3489 39.2894C23.4429 39.2685 23.5415 39.2794 23.628 39.3203C23.7146 39.3612 23.7838 39.4296 23.824 39.5139C23.86 39.577 23.9272 39.6581 23.842 39.7196C23.8256 39.7313 23.8068 39.7397 23.7869 39.7442C23.767 39.7488 23.7463 39.7494 23.7262 39.746C23.706 39.7426 23.6868 39.7353 23.6697 39.7245C23.6526 39.7137 23.6379 39.6997 23.6266 39.6833C23.552 39.5935 23.4881 39.473 23.3341 39.5486C23.2967 39.5651 23.2656 39.5924 23.245 39.6267C23.2245 39.661 23.2156 39.7006 23.2195 39.74C23.2285 39.9142 23.3718 39.9362 23.5012 39.9764C23.806 40.0623 23.9608 40.2529 23.9108 40.561C23.9015 40.6777 23.8475 40.7869 23.7593 40.8675C23.6711 40.9482 23.5549 40.9944 23.4333 40.9974Z" fill="#262223"/>
<path d="M29.4415 40.0355C29.4505 40.205 29.4505 40.3749 29.4415 40.5444C29.4128 40.8123 29.2539 40.973 28.9656 40.9872C28.6773 41.0014 28.4225 40.9202 28.3922 40.6169C28.3496 40.2293 28.3668 39.8346 28.3594 39.443C28.3594 39.3501 28.4004 39.291 28.5044 39.3036C28.6085 39.3162 28.6134 39.3997 28.6142 39.4808C28.6142 39.7676 28.6142 40.056 28.6232 40.3427C28.6306 40.5263 28.6371 40.7366 28.9123 40.7272C29.1745 40.7209 29.1982 40.5318 29.199 40.338C29.199 40.0631 29.199 39.7865 29.199 39.5147C29.199 39.4359 29.1589 39.3146 29.3063 39.3052C29.489 39.2933 29.4415 39.4312 29.4448 39.5258C29.4464 39.6951 29.4423 39.8653 29.4415 40.0355Z" fill="#262223"/>
<path d="M33.7345 34.6507C33.7345 35.2983 33.7345 35.9453 33.7345 36.5919C33.6944 35.9454 33.6944 35.2972 33.7345 34.6507Z" fill="#006FB7"/>
<path d="M27.6378 23.0152C27.6857 22.9062 27.7759 22.8194 27.8893 22.7734C27.8975 22.9428 27.8131 23.0223 27.6378 23.0152Z" fill="#FEFEFE"/>
<path d="M26.4935 24.1143C26.5051 24.0755 26.5269 24.0402 26.5567 24.0118C26.5865 23.9834 26.6234 23.9628 26.6639 23.952C26.6811 24.078 26.654 24.16 26.4935 24.1143Z" fill="#FEFEFE"/>
<path d="M27.1471 23.4872C27.148 23.4648 27.1575 23.4436 27.174 23.4279C27.1904 23.4121 27.2124 23.4029 27.2356 23.4021C27.2678 23.4898 27.2383 23.5181 27.1471 23.4872Z" fill="#FEFEFE"/>
<path d="M27.0652 23.5659C27.0661 23.5434 27.0757 23.522 27.0923 23.5061C27.1089 23.4901 27.1311 23.4808 27.1545 23.4801C27.1865 23.5675 27.157 23.5998 27.0652 23.5659Z" fill="#FEFEFE"/>
<path d="M26.9841 23.6439L27.0726 23.5588C27.1048 23.6466 27.0753 23.6749 26.9841 23.6439Z" fill="#FEFEFE"/>
<path d="M26.9022 23.7227L26.9907 23.6376C27.0229 23.7253 26.9934 23.7537 26.9022 23.7227Z" fill="#FEFEFE"/>
<path d="M26.8203 23.8015L26.9088 23.7164C26.941 23.8031 26.9115 23.8314 26.8203 23.8015Z" fill="#FEFEFE"/>
<path d="M26.7384 23.8795L26.8269 23.7944C26.8591 23.8821 26.8296 23.9105 26.7384 23.8795Z" fill="#FEFEFE"/>
<path d="M26.6573 23.9583L26.7458 23.8732C26.7769 23.9606 26.7474 23.9882 26.6573 23.9583Z" fill="#FEFEFE"/>
<path d="M27.311 23.3296C27.3118 23.3073 27.3214 23.2861 27.3378 23.2703C27.3542 23.2545 27.3762 23.2453 27.3994 23.2445C27.4314 23.3327 27.4019 23.3635 27.311 23.3296Z" fill="#FEFEFE"/>
<path d="M27.3929 23.2516C27.3933 23.2292 27.4028 23.2077 27.4193 23.1919C27.4358 23.176 27.458 23.1669 27.4813 23.1665C27.5136 23.2542 27.4841 23.2826 27.3929 23.2516Z" fill="#FEFEFE"/>
<path d="M27.474 23.1728C27.475 23.1506 27.4846 23.1295 27.501 23.1137C27.5174 23.098 27.5393 23.0887 27.5624 23.0877C27.5952 23.1754 27.5657 23.2038 27.474 23.1728Z" fill="#FEFEFE"/>
<path d="M27.5559 23.094C27.5569 23.0718 27.5665 23.0507 27.5829 23.0349C27.5993 23.0192 27.6212 23.0099 27.6444 23.0089C27.6771 23.0972 27.6476 23.1255 27.5559 23.094Z" fill="#FEFEFE"/>
<path d="M27.8827 22.7797C27.8837 22.7574 27.8934 22.7363 27.9097 22.7206C27.9261 22.7048 27.948 22.6956 27.9712 22.6946C28.0039 22.7828 27.9745 22.8112 27.8827 22.7797Z" fill="#FEFEFE"/>
<path d="M27.9646 22.7017L28.0531 22.6166C28.0859 22.7038 28.0564 22.7322 27.9646 22.7017Z" fill="#FEFEFE"/>
<path d="M27.2291 23.4084C27.2301 23.3861 27.2397 23.365 27.2561 23.3493C27.2725 23.3335 27.2944 23.3243 27.3175 23.3233C27.3497 23.411 27.3203 23.4394 27.2291 23.4084Z" fill="#FEFEFE"/>
<path d="M30.7496 20.0246C30.739 20.2279 30.6259 20.3327 30.4171 20.3445C30.4188 20.2602 30.4543 20.1798 30.5163 20.1201C30.5783 20.0605 30.662 20.0263 30.7496 20.0246Z" fill="#FEFEFE"/>
<path d="M30.2598 20.4958C30.2942 20.5856 30.2647 20.6139 30.1713 20.5809C30.1713 20.5583 30.1807 20.5366 30.1972 20.5207C30.2138 20.5047 30.2363 20.4958 30.2598 20.4958Z" fill="#FEFEFE"/>
<path d="M30.1779 20.5746C30.2123 20.6644 30.1828 20.6919 30.0894 20.6589C30.0899 20.6365 30.0993 20.6152 30.1159 20.5994C30.1324 20.5837 30.1546 20.5748 30.1779 20.5746Z" fill="#FEFEFE"/>
<path d="M30.8315 19.9459C30.8668 20.0357 30.8373 20.064 30.7439 20.031C30.7438 20.0198 30.746 20.0088 30.7503 19.9985C30.7547 19.9881 30.7611 19.9787 30.7693 19.9708C30.7774 19.9629 30.7871 19.9566 30.7978 19.9524C30.8085 19.9481 30.82 19.9459 30.8315 19.9459Z" fill="#FEFEFE"/>
<path d="M30.9135 19.8671C30.949 19.9574 30.9195 19.9858 30.825 19.9522C30.825 19.941 30.8273 19.9299 30.8317 19.9196C30.8362 19.9093 30.8427 19.8999 30.8509 19.892C30.8591 19.8841 30.8689 19.8778 30.8796 19.8736C30.8903 19.8693 30.9018 19.8671 30.9135 19.8671Z" fill="#FEFEFE"/>
<path d="M30.9954 19.7891C31.0298 19.8789 31.0011 19.9073 30.9069 19.8734C30.9069 19.8623 30.9092 19.8512 30.9137 19.8409C30.9181 19.8307 30.9246 19.8213 30.9329 19.8135C30.9411 19.8057 30.9509 19.7995 30.9616 19.7953C30.9723 19.7911 30.9838 19.789 30.9954 19.7891Z" fill="#FEFEFE"/>
<path d="M31.0773 19.7103C31.1117 19.8001 31.0822 19.8285 30.9888 19.7954C30.9888 19.7728 30.9981 19.7512 31.0147 19.7352C31.0313 19.7193 31.0538 19.7103 31.0773 19.7103Z" fill="#FEFEFE"/>
<path d="M31.1584 19.6315C31.1936 19.7221 31.1641 19.7497 31.0707 19.7166C31.0706 19.7055 31.0728 19.6944 31.0772 19.6841C31.0815 19.6738 31.088 19.6644 31.0961 19.6565C31.1043 19.6486 31.114 19.6423 31.1246 19.638C31.1353 19.6337 31.1468 19.6315 31.1584 19.6315Z" fill="#FEFEFE"/>
<path d="M31.2403 19.5535C31.2788 19.6465 31.2493 19.6749 31.1518 19.6378C31.1517 19.6267 31.1539 19.6156 31.1583 19.6053C31.1628 19.5949 31.1693 19.5856 31.1775 19.5777C31.1858 19.5698 31.1956 19.5637 31.2064 19.5595C31.2171 19.5553 31.2287 19.5533 31.2403 19.5535Z" fill="#FEFEFE"/>
<path d="M31.3222 19.4747C31.3604 19.5677 31.3309 19.5961 31.2337 19.5598C31.2337 19.5373 31.2431 19.5156 31.2596 19.4997C31.2762 19.4837 31.2987 19.4747 31.3222 19.4747Z" fill="#FEFEFE"/>
<path d="M31.4041 19.396C31.4418 19.4889 31.4131 19.5181 31.3156 19.481C31.3156 19.4585 31.325 19.4368 31.3416 19.4209C31.3581 19.4049 31.3806 19.396 31.4041 19.396Z" fill="#FEFEFE"/>
<path d="M30.4228 20.339C30.458 20.428 30.4285 20.4564 30.3352 20.4233C30.3352 20.4009 30.3444 20.3795 30.3608 20.3637C30.3773 20.3479 30.3996 20.339 30.4228 20.339Z" fill="#FEFEFE"/>
<path d="M30.3417 20.417C30.3761 20.5068 30.3466 20.5352 30.2533 20.5021C30.2533 20.4795 30.2626 20.4579 30.2792 20.4419C30.2957 20.426 30.3183 20.417 30.3417 20.417Z" fill="#FEFEFE"/>
<path d="M30.0149 20.7313C30.0526 20.8251 30.0149 20.8416 29.9264 20.8164C29.9264 20.8052 29.9287 20.7942 29.9332 20.7839C29.9376 20.7735 29.9441 20.7642 29.9523 20.7563C29.9605 20.7484 29.9703 20.7421 29.981 20.7378C29.9918 20.7335 30.0033 20.7313 30.0149 20.7313Z" fill="#FEFEFE"/>
<path d="M30.096 20.6525C30.1304 20.7424 30.1009 20.7707 30.0083 20.7376C30.0085 20.7153 30.0178 20.6939 30.0342 20.678C30.0506 20.6621 30.0727 20.653 30.096 20.6525Z" fill="#FEFEFE"/>
<path d="M31.486 19.3172C31.5204 19.4075 31.4909 19.4359 31.3976 19.4023C31.3976 19.3797 31.4069 19.3581 31.4235 19.3421C31.4401 19.3261 31.4626 19.3172 31.486 19.3172Z" fill="#FEFEFE"/>
<path d="M26.1282 39.5549C26.4558 39.562 26.6942 39.8102 26.6934 40.1426C26.6967 40.2205 26.6832 40.2983 26.6538 40.3709C26.6244 40.4436 26.5796 40.5096 26.5224 40.5648C26.4651 40.62 26.3966 40.6632 26.3212 40.6917C26.2457 40.7202 26.1649 40.7333 26.0839 40.7303C25.9275 40.7209 25.7806 40.6545 25.6733 40.5445C25.566 40.4346 25.5064 40.2895 25.5065 40.1387C25.5061 40.0607 25.522 39.9835 25.5533 39.9116C25.5846 39.8397 25.6307 39.7745 25.6887 39.7201C25.7467 39.6656 25.8155 39.6229 25.891 39.5945C25.9665 39.5662 26.0471 39.5527 26.1282 39.5549Z" fill="#FEFEFE"/>
<path d="M18.6119 39.562C18.8274 39.5927 18.9838 39.6715 18.9486 39.8842C18.9134 40.0969 18.7217 40.1663 18.5194 40.1442C18.2319 40.108 18.3891 39.8819 18.3662 39.7416C18.3326 39.5336 18.494 39.5541 18.6119 39.562Z" fill="#FEFEFE"/>
<path d="M31.3623 40.1442C31.1166 40.186 31.1576 40.0032 31.1592 39.8519C31.1608 39.7006 31.1076 39.5234 31.3795 39.5541C31.5778 39.5762 31.7793 39.6203 31.7768 39.8464C31.7744 40.0654 31.5991 40.1442 31.3623 40.1442Z" fill="#FEFEFE"/>
<rect x="0.5" y="0.5" width="55" height="55" rx="27.5" stroke="#EAECF0"/>
</svg>
