<svg width="56" height="56" viewBox="0 0 56 56" fill="none" xmlns="http://www.w3.org/2000/svg">
<rect x="0.5" y="0.5" width="55" height="55" rx="27.5" fill="white"/>
<path d="M15.6939 23.2985C15.7023 23.321 15.7182 23.3405 15.7156 23.3674C15.7129 23.3953 15.7151 23.424 15.7151 23.4519C15.7151 26.5777 15.7151 29.703 15.7151 32.8289C15.7151 32.8501 15.7151 32.8713 15.7151 32.8925C15.716 32.9827 15.7165 32.976 15.6259 32.976C15.6153 32.976 15.6047 32.976 15.594 32.976C12.4187 32.976 9.24342 32.976 6.0681 32.976C6.04689 32.976 6.02568 32.976 6.00447 32.976C6.00447 29.7817 6.00447 26.5878 6.00447 23.3935C6.00447 23.3652 6.00535 23.337 6.00402 23.3087C6.00358 23.2985 6.00447 23.2976 6.01551 23.2981C6.0438 23.2998 6.07208 23.2985 6.10037 23.2985C9.29822 23.2985 12.4961 23.2985 15.6939 23.2985ZM11.7293 28.1373C11.7293 27.1102 11.7293 26.0836 11.7293 25.0565C11.7293 24.8873 11.7293 24.7176 11.7293 24.5483C11.7293 24.5271 11.7298 24.5059 11.7258 24.4851C11.7244 24.4776 11.713 24.4674 11.705 24.4665C11.6807 24.4634 11.6559 24.4639 11.6312 24.4639C11.119 24.4639 10.6068 24.4639 10.0941 24.4639C10.0694 24.4639 10.0446 24.4643 10.0199 24.4652C10.0044 24.4661 9.99338 24.4745 9.99294 24.4908C9.99206 24.5227 9.99117 24.5545 9.99117 24.5859C9.99117 26.9538 9.99117 29.3217 9.99117 31.6896C9.99117 31.7178 9.99073 31.7461 9.99162 31.7744C9.99206 31.8009 10.0027 31.8102 10.0314 31.8111C10.0597 31.812 10.088 31.8115 10.1162 31.8115C10.6108 31.8115 11.1053 31.812 11.6003 31.8111C11.7505 31.8106 11.7293 31.8327 11.7293 31.6838C11.7293 30.5016 11.7293 29.3194 11.7293 28.1373Z" fill="#4E5498"/>
<path d="M38.5714 23.2985C38.5714 26.4849 38.5714 29.6712 38.5714 32.8581C38.5714 32.9924 38.5882 32.9765 38.4539 32.9765C35.3024 32.9769 32.151 32.9769 28.9995 32.9765C28.8652 32.9765 28.882 32.9924 28.882 32.8581C28.8815 29.7 28.882 26.5415 28.882 23.3834C28.882 23.3551 28.882 23.3268 28.8824 23.2985C32.1117 23.2985 35.3418 23.2985 38.5714 23.2985ZM33.719 24.4639C32.44 24.4639 31.1611 24.4639 29.8821 24.4639C29.8503 24.4639 29.8185 24.4635 29.7866 24.4644C29.7645 24.4648 29.7535 24.475 29.7526 24.4957C29.7517 24.524 29.7517 24.5523 29.7517 24.5806C29.7517 24.9827 29.7513 25.3853 29.7517 25.7875C29.7517 25.9219 29.7358 25.9037 29.871 25.9037C30.8146 25.9042 31.7577 25.9042 32.7012 25.9042C32.733 25.9042 32.7648 25.9037 32.7967 25.9051C32.8223 25.9064 32.8444 25.9272 32.8453 25.9519C32.847 25.9873 32.8466 26.0226 32.8466 26.0575C32.8466 27.9313 32.8466 29.8052 32.8466 31.6794C32.8466 31.7148 32.847 31.7501 32.8484 31.785C32.8488 31.8018 32.8603 31.8098 32.8758 31.8107C32.9076 31.812 32.9394 31.812 32.9712 31.812C33.4551 31.812 33.9395 31.8124 34.4234 31.8115C34.4681 31.8115 34.5145 31.8239 34.5573 31.7996C34.5595 31.7576 34.564 31.7161 34.564 31.6741C34.5644 29.8038 34.5644 27.9336 34.5644 26.0628C34.5644 26.0346 34.5644 26.0063 34.5644 25.978C34.5644 25.9674 34.5648 25.9568 34.5662 25.9462C34.5684 25.928 34.59 25.9059 34.609 25.9051C34.6409 25.9033 34.6727 25.9033 34.7045 25.9033C35.6551 25.9033 36.6053 25.9033 37.5559 25.9033C37.5877 25.9033 37.6195 25.9033 37.6513 25.902C37.6664 25.9015 37.6787 25.8945 37.6796 25.8772C37.6805 25.856 37.6814 25.8348 37.6814 25.814C37.6814 25.3942 37.6814 24.9739 37.6814 24.5541C37.6814 24.5364 37.6818 24.5187 37.6809 24.501C37.6801 24.4745 37.6699 24.4648 37.6412 24.4644C37.6094 24.4635 37.5775 24.4639 37.5457 24.4639C36.2698 24.4639 34.9944 24.4639 33.719 24.4639Z" fill="#DD3923"/>
<path d="M49.9994 32.9765C46.8056 32.9765 43.6117 32.9765 40.4174 32.9765C40.2976 32.9765 40.31 32.9888 40.31 32.8691C40.31 29.6787 40.31 26.4888 40.31 23.2985C43.5078 23.2985 46.7061 23.2985 49.904 23.2985C49.9323 23.2985 49.9605 23.2994 49.9888 23.2981C49.9994 23.2976 50.0003 23.2985 49.9999 23.3091C49.9986 23.3374 49.9994 23.3657 49.9994 23.394C49.9994 26.5883 49.9994 29.7822 49.9994 32.9765ZM45.1421 31.8115C45.5306 31.8115 45.9195 31.8115 46.3079 31.8115C46.3362 31.8115 46.3645 31.8106 46.3928 31.8093C46.399 31.8089 46.4047 31.8031 46.41 31.7992C46.4122 31.7974 46.4127 31.793 46.4136 31.7899C46.4542 31.69 46.4984 31.591 46.5338 31.4894C46.5682 31.3908 46.6054 31.2936 46.6469 31.1977C46.6774 31.1274 46.7079 31.0571 46.7313 30.9842C46.7698 30.8645 46.8215 30.7504 46.867 30.6338C46.8997 30.5494 46.9359 30.4663 46.9664 30.3814C46.9934 30.3058 47.0234 30.232 47.053 30.1574C47.0866 30.0734 47.1268 29.9916 47.1551 29.9059C47.194 29.7866 47.2457 29.6721 47.2904 29.5554C47.3226 29.471 47.3602 29.3884 47.3902 29.3031C47.4168 29.2275 47.4473 29.1537 47.4769 29.079C47.51 28.9946 47.5507 28.9133 47.5789 28.8276C47.6196 28.7052 47.6704 28.5872 47.7186 28.4678C47.7513 28.387 47.7862 28.3074 47.8136 28.2248C47.8401 28.1452 47.8737 28.0688 47.9038 27.991C47.9365 27.9066 47.9749 27.8244 48.0045 27.7391C48.043 27.6268 48.0903 27.5186 48.1331 27.4085C48.1672 27.321 48.2056 27.2348 48.2379 27.1469C48.2679 27.0651 48.2975 26.9834 48.3316 26.9034C48.3656 26.8234 48.401 26.7434 48.4279 26.6612C48.4664 26.5454 48.5167 26.4345 48.5596 26.3205C48.5963 26.2228 48.6365 26.1265 48.6745 26.0292C48.7001 25.9643 48.724 25.8993 48.7496 25.8343C48.7832 25.7504 48.8226 25.6682 48.8513 25.5829C48.8915 25.464 48.9414 25.3491 48.9874 25.2329C49.0197 25.152 49.0572 25.0729 49.0842 24.9907C49.1324 24.8453 49.1929 24.7043 49.2517 24.5633C49.2937 24.4626 49.2773 24.4643 49.188 24.4643C48.5839 24.4648 47.9798 24.4648 47.3757 24.4648C47.358 24.4648 47.3403 24.4648 47.3226 24.4652C47.3032 24.4652 47.2921 24.4727 47.2851 24.4931C47.2219 24.6773 47.1653 24.8634 47.0955 25.0455C47.0186 25.2466 46.962 25.4552 46.8842 25.6562C46.8144 25.8379 46.7609 26.0253 46.6933 26.2082C46.6138 26.423 46.5497 26.644 46.4688 26.8587C46.3977 27.0475 46.3429 27.2415 46.2708 27.4302C46.2001 27.6149 46.1471 27.8063 46.0772 27.9919C46.0012 28.1934 45.9433 28.4011 45.866 28.6031C45.7966 28.7847 45.744 28.9725 45.6751 29.1546C45.5986 29.3561 45.5425 29.5647 45.4634 29.7654C45.4214 29.8719 45.3914 29.9828 45.3547 30.0919C45.3295 30.1675 45.3021 30.2427 45.276 30.3182C45.2632 30.3562 45.2402 30.3761 45.1978 30.3739C45.1518 30.3717 45.1059 30.3739 45.0599 30.373C45.0285 30.3726 45.0263 30.3704 45.0162 30.3403C44.9441 30.13 44.8725 29.9192 44.8009 29.7088C44.7559 29.5771 44.7117 29.4454 44.6661 29.3141C44.5552 28.992 44.4531 28.6671 44.3382 28.3463C44.2401 28.0714 44.1526 27.7926 44.0607 27.5159C43.9683 27.2388 43.8698 26.9639 43.7756 26.6877C43.6431 26.2997 43.518 25.909 43.3828 25.5219C43.2661 25.1873 43.1565 24.8501 43.0438 24.5138C43.0314 24.4776 43.0186 24.467 42.9846 24.4657C42.9669 24.4648 42.9492 24.4652 42.9315 24.4652C42.3274 24.4652 41.7233 24.4652 41.1192 24.4652C41.098 24.4652 41.0767 24.4657 41.0555 24.467C41.0383 24.4679 41.0255 24.4878 41.0321 24.5059C41.0515 24.558 41.0728 24.6093 41.0931 24.6614C41.1245 24.7428 41.155 24.8241 41.1863 24.9049C41.2182 24.9858 41.2553 25.0649 41.2827 25.1476C41.3185 25.2567 41.3662 25.3615 41.4069 25.4689C41.4497 25.5829 41.4953 25.696 41.539 25.8096C41.5792 25.9134 41.6181 26.0177 41.6583 26.1212C41.7025 26.2347 41.748 26.3479 41.7927 26.461C41.8081 26.4999 41.8205 26.5397 41.8373 26.5781C41.8806 26.6771 41.9129 26.7801 41.9531 26.88C41.9637 26.9056 41.9748 26.9312 41.9849 26.9573C42.0154 27.0351 42.0455 27.1129 42.076 27.1906C42.1126 27.2848 42.1493 27.3785 42.186 27.4726C42.2085 27.5309 42.2306 27.5897 42.2532 27.6476C42.2974 27.7612 42.3424 27.8743 42.3866 27.9879C42.4322 28.1046 42.4777 28.2212 42.5232 28.3379C42.555 28.4188 42.5908 28.4983 42.6187 28.5805C42.6558 28.6892 42.7017 28.7944 42.7433 28.9014C42.7861 29.0114 42.8299 29.1219 42.871 29.2324C42.9112 29.3398 42.9545 29.4463 42.9952 29.5532C43.0385 29.6672 43.08 29.7817 43.1278 29.894C43.1618 29.974 43.1905 30.0562 43.2223 30.137C43.2542 30.2179 43.2904 30.2975 43.3182 30.3797C43.3549 30.4888 43.4013 30.5935 43.4424 30.7005C43.4857 30.8141 43.5282 30.9285 43.575 31.0408C43.6086 31.1212 43.6364 31.2034 43.6683 31.2847C43.7085 31.3882 43.7553 31.4894 43.788 31.5963C43.8039 31.6493 43.8291 31.6997 43.8503 31.7514C43.8676 31.793 43.8905 31.8239 43.9436 31.8137C43.9639 31.8098 43.986 31.8133 44.0072 31.8133C44.386 31.8115 44.7643 31.8115 45.1421 31.8115Z" fill="#A3C626"/>
<path d="M27.1434 23.2985C27.1434 26.4818 27.1434 29.6655 27.143 32.8488C27.143 32.9973 27.1633 32.9761 27.0135 32.9761C23.8651 32.9765 20.7168 32.9765 17.5684 32.9765C17.5366 32.9765 17.5048 32.9769 17.473 32.9761C17.4447 32.9752 17.4341 32.9655 17.4332 32.9389C17.4323 32.9107 17.4328 32.8824 17.4328 32.8541C17.4328 29.7128 17.4328 26.572 17.4328 23.4307C17.4328 23.3856 17.4248 23.3388 17.454 23.2981C20.6841 23.2985 23.9138 23.2985 27.1434 23.2985ZM22.2742 31.8116C22.8748 31.8116 23.4758 31.8116 24.0764 31.8116C24.1612 31.8116 24.2461 31.812 24.3309 31.8111C24.3552 31.8107 24.3818 31.8111 24.403 31.8023C24.4273 31.7921 24.4507 31.7917 24.475 31.7903C24.5479 31.7868 24.6226 31.801 24.6938 31.7709C24.7088 31.7647 24.7287 31.7696 24.7464 31.7691C24.7605 31.7687 24.7773 31.7731 24.7883 31.7669C24.8458 31.7351 24.9147 31.7612 24.9713 31.7276C25.0526 31.7271 25.1255 31.6869 25.2055 31.6785C25.343 31.6286 25.4835 31.5875 25.6143 31.5181C25.7297 31.4567 25.8366 31.3864 25.9316 31.2967C25.9444 31.2848 25.9568 31.2706 25.9723 31.2636C26.0059 31.2476 26.0293 31.2247 26.0443 31.1902C26.051 31.1747 26.0655 31.1624 26.0784 31.15C26.1672 31.0634 26.2295 30.9577 26.2883 30.8508C26.3236 30.7867 26.3515 30.7182 26.3775 30.6502C26.4023 30.5852 26.4226 30.5185 26.4421 30.4522C26.4606 30.389 26.4712 30.3236 26.4823 30.259C26.4942 30.191 26.5203 30.1234 26.5079 30.0518C26.5062 30.042 26.5084 30.0297 26.5137 30.0213C26.5327 29.9921 26.5282 29.9603 26.5282 29.9289C26.5287 29.8723 26.5278 29.8158 26.5287 29.7596C26.5291 29.7389 26.5313 29.7177 26.5375 29.6978C26.5605 29.6253 26.5459 29.5511 26.5473 29.4777C26.5194 29.4362 26.5309 29.3893 26.5282 29.3442C26.5212 29.2293 26.5464 29.1122 26.5075 28.9991C26.5092 28.943 26.5097 28.8868 26.4863 28.8338C26.4995 28.7759 26.4584 28.7255 26.4642 28.6685C26.4438 28.6265 26.4505 28.5788 26.4359 28.5364C26.3908 28.4082 26.3559 28.2765 26.2905 28.1559C26.2268 28.0379 26.1544 27.9283 26.0576 27.8341C25.9736 27.7528 25.879 27.6887 25.7761 27.6348C25.6585 27.5725 25.537 27.5208 25.4071 27.4894C25.3801 27.4828 25.3562 27.4691 25.3266 27.4687C25.2961 27.4678 25.2661 27.451 25.2356 27.4505C25.1963 27.4496 25.1605 27.4377 25.1229 27.4306C25.0818 27.4231 25.0385 27.428 24.9961 27.4276C24.989 27.4276 24.9806 27.4284 24.9753 27.4249C24.9333 27.3966 24.8865 27.409 24.8414 27.4072C24.7954 27.405 24.7495 27.4055 24.7035 27.405C24.6549 27.3741 24.6005 27.3865 24.5484 27.3865C23.3291 27.386 22.1102 27.386 20.8909 27.3856C20.8246 27.3856 20.757 27.3975 20.6934 27.3666C20.6876 27.3639 20.6792 27.3652 20.6726 27.3652C20.62 27.3652 20.567 27.3692 20.5179 27.3445C20.4295 27.3498 20.3606 27.291 20.2793 27.272C20.1644 27.2066 20.0906 27.1071 20.0424 26.9865C20.0313 26.8866 19.9902 26.7912 19.9973 26.6882C20.0013 26.6356 19.9978 26.5826 19.9982 26.5295C19.9982 26.5119 19.9951 26.4929 20.0004 26.4769C20.0252 26.4045 20.0305 26.3276 20.0601 26.2564C20.0857 26.1941 20.1122 26.1344 20.163 26.0885C20.1918 26.0624 20.2192 26.0346 20.2457 26.0063C20.2656 25.9851 20.2885 25.9709 20.3142 25.9586C20.4149 25.9095 20.5153 25.86 20.6315 25.8609C20.6876 25.8299 20.7486 25.8414 20.8074 25.8414C21.857 25.841 22.9061 25.841 23.9557 25.8414C24.0079 25.8414 24.0614 25.8313 24.1109 25.86C24.1188 25.8649 24.1316 25.8627 24.1422 25.8622C24.2209 25.8569 24.2951 25.8825 24.3659 25.9086C24.4405 25.936 24.5179 25.9674 24.5691 26.035C24.5965 26.0712 24.6217 26.1088 24.6443 26.1481C24.6938 26.2339 24.7185 26.328 24.7251 26.4261C24.7269 26.4518 24.7349 26.4734 24.7464 26.4955C24.7534 26.5096 24.7627 26.5176 24.7782 26.518C24.7923 26.5185 24.8065 26.5189 24.8206 26.5189C25.3505 26.5189 25.8808 26.5189 26.4107 26.5189C26.4284 26.5189 26.4465 26.5194 26.4633 26.5158C26.4712 26.5141 26.4814 26.503 26.4823 26.4951C26.4845 26.4672 26.4925 26.4345 26.4814 26.4115C26.458 26.3634 26.4668 26.3148 26.4642 26.2666C26.4611 26.2074 26.4734 26.1468 26.4438 26.0907C26.4438 26.0063 26.4186 25.9263 26.4005 25.845C26.3731 25.7221 26.3409 25.6015 26.2777 25.4914C26.26 25.4609 26.2445 25.4296 26.2317 25.3969C26.1871 25.2837 26.104 25.1971 26.0315 25.1034C25.9732 25.0283 25.8967 24.9695 25.8189 24.9156C25.6545 24.8016 25.476 24.7141 25.2864 24.6487C25.1909 24.6155 25.0924 24.5956 24.9952 24.5695C24.951 24.5576 24.9055 24.5545 24.8621 24.5452C24.8171 24.536 24.7715 24.536 24.7282 24.5258C24.6589 24.5094 24.5899 24.5064 24.5201 24.5055C24.5135 24.5055 24.5055 24.5033 24.5002 24.4997C24.475 24.4825 24.4463 24.486 24.418 24.4856C24.3261 24.4851 24.2342 24.4856 24.1422 24.4851C24.1215 24.4851 24.0972 24.4882 24.0799 24.4794C24.0459 24.4613 24.0114 24.4648 23.9765 24.4648C22.9693 24.4648 21.9622 24.4648 20.9554 24.4648C20.9342 24.4648 20.9104 24.4591 20.8922 24.467C20.8277 24.4953 20.7605 24.482 20.6942 24.4856C20.5754 24.4922 20.4547 24.4675 20.338 24.5064C20.335 24.5072 20.331 24.5064 20.3274 24.5068C20.2541 24.5086 20.1812 24.5033 20.1082 24.5258C20.0667 24.5386 20.0198 24.5298 19.9743 24.5452C19.9328 24.5594 19.8859 24.5519 19.8409 24.5673C19.7892 24.585 19.7299 24.5797 19.6769 24.5952C19.6234 24.6106 19.5704 24.6261 19.5169 24.6416C19.3247 24.6977 19.1439 24.7821 18.9756 24.89C18.8814 24.9505 18.7908 25.0163 18.7135 25.099C18.687 25.1277 18.6675 25.1609 18.6432 25.19C18.5199 25.3367 18.4382 25.5056 18.3789 25.6859C18.3648 25.7287 18.3564 25.7734 18.3414 25.8158C18.3294 25.8494 18.3237 25.8825 18.3197 25.9175C18.3157 25.9515 18.2959 25.9829 18.3003 26.0195C18.302 26.0332 18.3025 26.05 18.2959 26.0606C18.2715 26.1 18.2822 26.1428 18.2795 26.1844C18.2773 26.2158 18.2808 26.2493 18.2707 26.2776C18.2609 26.3055 18.2587 26.332 18.2583 26.3598C18.2583 26.5008 18.2583 26.6422 18.2583 26.7832C18.2583 26.8009 18.2534 26.8217 18.2609 26.8354C18.2897 26.8888 18.276 26.9458 18.2791 27.0011C18.2808 27.0329 18.2729 27.0683 18.2844 27.0952C18.3012 27.1332 18.3012 27.1708 18.2994 27.2088C18.2976 27.2486 18.329 27.2804 18.3219 27.321C18.3193 27.3378 18.3206 27.3568 18.3259 27.3732C18.3701 27.5044 18.3887 27.6428 18.4452 27.7714C18.5124 27.9234 18.5871 28.0675 18.7073 28.1846C18.7298 28.2067 18.7528 28.2288 18.7745 28.2522C18.8523 28.3353 18.9473 28.3936 19.0467 28.4462C19.1828 28.5187 19.3273 28.5695 19.4763 28.6075C19.5399 28.6239 19.604 28.6482 19.6685 28.6526C19.7352 28.6575 19.7976 28.6884 19.8656 28.6778C19.8722 28.6769 19.8811 28.676 19.8864 28.6791C19.939 28.7074 19.9964 28.6963 20.0521 28.6986C20.0698 28.699 20.091 28.6937 20.1043 28.7017C20.1511 28.7286 20.2006 28.7176 20.2492 28.7193C20.2987 28.7211 20.3517 28.7096 20.3968 28.7242C20.4529 28.7423 20.5077 28.7405 20.5634 28.7405C21.613 28.741 22.6622 28.741 23.7118 28.7414C23.7675 28.7414 23.8245 28.7313 23.8775 28.76C23.8859 28.7644 23.8983 28.7618 23.9089 28.7622C23.9646 28.7635 24.0203 28.7582 24.0751 28.7812C24.0994 28.7914 24.1316 28.7812 24.1586 28.7878C24.2156 28.8024 24.2708 28.825 24.3278 28.8391C24.3902 28.8546 24.4436 28.8886 24.5006 28.9147C24.5833 28.9522 24.6434 29.0198 24.6951 29.0897C24.7468 29.1595 24.7671 29.2474 24.7875 29.3323C24.7976 29.376 24.8069 29.4211 24.8082 29.4658C24.8113 29.5537 24.8096 29.6421 24.8087 29.7305C24.8087 29.7513 24.8078 29.7733 24.8016 29.7924C24.783 29.8485 24.7689 29.9059 24.7517 29.9621C24.7327 30.0248 24.6991 30.0774 24.6611 30.1256C24.5625 30.2498 24.4131 30.3328 24.2452 30.3735C24.171 30.3916 24.0985 30.419 24.0203 30.4168C23.9787 30.4447 23.9319 30.434 23.8864 30.4354C23.8475 30.4367 23.8086 30.4354 23.7697 30.4358C23.7524 30.4363 23.7317 30.4336 23.718 30.4416C23.6813 30.4628 23.6424 30.4561 23.6044 30.4561C23.2084 30.4566 22.8129 30.4566 22.4169 30.4566C21.8729 30.4566 21.3284 30.4566 20.7844 30.4566C20.7526 30.4566 20.7177 30.4632 20.6903 30.4517C20.6558 30.4371 20.6222 30.434 20.5873 30.4363C20.5192 30.4407 20.4574 30.415 20.3928 30.4018C20.3407 30.3912 20.2969 30.3611 20.2461 30.3461C20.2077 30.3346 20.1776 30.2993 20.1374 30.2842C20.125 30.2794 20.1149 30.2674 20.1047 30.2577C20.0786 30.2338 20.0565 30.2038 20.0269 30.187C19.9911 30.1662 19.9805 30.1273 19.9505 30.1021C19.8837 30.046 19.8647 29.9603 19.8285 29.8856C19.8258 29.8799 19.8254 29.8715 19.8267 29.8648C19.8338 29.8277 19.8086 29.7977 19.8037 29.7632C19.8015 29.7468 19.7918 29.7384 19.7759 29.738C19.7512 29.7371 19.7264 29.7367 19.7017 29.7367C19.1859 29.7367 18.6697 29.7367 18.154 29.7367C18.1292 29.7367 18.1045 29.7367 18.0797 29.7371C18.0572 29.738 18.0466 29.7477 18.0462 29.7689C18.0457 29.8785 18.0457 29.9877 18.0457 30.0973C18.0457 30.1044 18.0444 30.1128 18.0475 30.1181C18.0709 30.1565 18.0594 30.2007 18.0683 30.2409C18.0797 30.2957 18.0873 30.3501 18.0939 30.4053C18.0943 30.4084 18.0974 30.4115 18.0983 30.4146C18.1085 30.4513 18.12 30.4875 18.1284 30.5246C18.1668 30.6895 18.2185 30.8163 18.2972 30.9599C18.3617 31.0779 18.4399 31.184 18.538 31.2755C18.5685 31.3038 18.6052 31.3259 18.6361 31.3537C18.7276 31.4372 18.8372 31.492 18.9446 31.5508C18.9915 31.5561 19.0286 31.5853 19.0706 31.6016C19.0869 31.6078 19.1028 31.614 19.1192 31.6206C19.2129 31.6587 19.3132 31.6737 19.4095 31.7037C19.4692 31.7223 19.5333 31.7214 19.5916 31.7457C19.6659 31.7391 19.7352 31.7784 19.8099 31.7691C19.8236 31.7674 19.8413 31.7656 19.8515 31.7718C19.8943 31.7983 19.9407 31.7877 19.9858 31.7895C20.0318 31.7912 20.0777 31.7908 20.1237 31.7917C20.1723 31.8222 20.2267 31.8102 20.2788 31.8102C20.9457 31.8116 21.6099 31.8116 22.2742 31.8116Z" fill="#0083C3"/>
<path d="M18.8749 36.4072C18.8749 35.8393 18.8749 35.2714 18.8749 34.7039C18.8749 34.5992 18.8669 34.6076 18.9721 34.6071C19.0605 34.6071 19.1489 34.6076 19.2368 34.6071C19.2647 34.6071 19.2841 34.6195 19.2965 34.6429C19.3473 34.7384 19.3977 34.8347 19.4489 34.9298C19.479 34.985 19.5108 35.0394 19.5422 35.0937C19.5718 35.1454 19.589 35.2038 19.6301 35.2488C19.6346 35.2537 19.6359 35.2617 19.639 35.2678C19.7026 35.3885 19.764 35.5105 19.8312 35.6293C19.8829 35.7208 19.936 35.8114 19.9797 35.9069C19.9841 35.9162 19.9925 35.9232 19.9996 35.9312C20.0084 35.9414 20.0301 35.94 20.0363 35.929C20.0787 35.8525 20.1207 35.7761 20.1631 35.6996C20.2241 35.5896 20.2811 35.4773 20.3412 35.3668C20.3761 35.3023 20.4071 35.2351 20.4468 35.1742C20.514 35.0716 20.556 34.955 20.6267 34.8542C20.6563 34.8118 20.6744 34.7605 20.6983 34.7137C20.7093 34.692 20.7186 34.6686 20.7332 34.6491C20.7527 34.6235 20.7761 34.6063 20.8132 34.6071C20.9117 34.6102 21.0107 34.6085 21.1097 34.6089C21.1314 34.6089 21.1416 34.62 21.1424 34.6412C21.1433 34.6624 21.1433 34.6836 21.1433 34.7048C21.1433 35.2727 21.1433 35.8406 21.1429 36.408C21.0085 36.408 20.8742 36.408 20.7398 36.408C20.7398 36.313 20.7398 36.2184 20.7398 36.1234C20.7398 35.9551 20.7398 35.7862 20.7398 35.6179C20.7398 35.5896 20.7407 35.5617 20.7394 35.5334C20.739 35.5246 20.7332 35.5158 20.7297 35.5069C20.7257 35.5122 20.7213 35.5175 20.7173 35.5228C20.6598 35.6019 20.621 35.6917 20.5701 35.7747C20.552 35.8044 20.5414 35.8388 20.5224 35.868C20.4574 35.967 20.4004 36.0704 20.3465 36.176C20.3372 36.1946 20.3249 36.2114 20.3142 36.2295C20.2811 36.2865 20.2449 36.3418 20.2307 36.4076C20.0893 36.4076 19.9479 36.4076 19.8065 36.4076C19.8034 36.3943 19.8029 36.3793 19.7967 36.3674C19.7685 36.3152 19.7375 36.2644 19.7088 36.2127C19.6681 36.1393 19.6341 36.062 19.5873 35.9931C19.5303 35.9087 19.4914 35.815 19.437 35.7292C19.3849 35.647 19.3429 35.5582 19.296 35.4725C19.2943 35.4698 19.289 35.4654 19.289 35.4658C19.285 35.4694 19.2784 35.4733 19.2779 35.4778C19.2766 35.5096 19.2766 35.541 19.2766 35.5728C19.2766 35.8508 19.2766 36.1292 19.2761 36.4072C19.1431 36.4072 19.0092 36.4072 18.8749 36.4072Z" fill="#4E5498"/>
<path d="M27.1223 36.4073C27.1223 35.8535 27.1223 35.3002 27.1223 34.7465C27.1223 34.7146 27.1223 34.6828 27.1241 34.6515C27.1249 34.6324 27.147 34.6108 27.1656 34.609C27.1833 34.6073 27.2009 34.6073 27.2186 34.6073C27.7976 34.6073 28.3765 34.6073 28.9554 34.6073C28.9731 34.6073 28.9912 34.6068 29.008 34.6104C29.016 34.6121 29.0231 34.6227 29.0279 34.6307C29.031 34.636 29.0306 34.6444 29.0306 34.6515C29.0306 34.7571 29.031 34.8631 29.0306 34.9688C29.0306 34.9975 29.0204 35.0081 28.9943 35.009C28.966 35.0099 28.9378 35.0094 28.9095 35.0094C28.4892 35.0094 28.0694 35.0094 27.6491 35.0094C27.6173 35.0094 27.5854 35.0099 27.5541 35.0112C27.5377 35.0116 27.5289 35.0218 27.5275 35.0377C27.5267 35.0448 27.5258 35.0518 27.5262 35.0589C27.5324 35.1248 27.5121 35.1919 27.5377 35.256C27.6 35.271 27.6637 35.2626 27.7264 35.2631C28.1219 35.264 28.517 35.2635 28.9126 35.2635C28.9444 35.2635 28.9762 35.264 29.0076 35.2666C29.0151 35.2675 29.0244 35.2781 29.0275 35.2865C29.0315 35.2958 29.0306 35.3073 29.0306 35.3179C29.0306 35.4164 29.031 35.5154 29.0306 35.614C29.0301 35.6622 29.0266 35.6648 28.9736 35.6657C28.9488 35.6661 28.9241 35.6657 28.8993 35.6657C28.4826 35.6657 28.0663 35.6657 27.6495 35.6657C27.6177 35.6657 27.5859 35.6661 27.5545 35.667C27.539 35.6675 27.5275 35.6763 27.5275 35.6927C27.5271 35.7877 27.5271 35.8831 27.528 35.9781C27.528 35.9954 27.5412 36.002 27.5563 36.0029C27.5881 36.0042 27.6199 36.0042 27.6517 36.0042C28.072 36.0042 28.4918 36.0042 28.9121 36.0042C28.9439 36.0042 28.9758 36.0042 29.0071 36.0073C29.0147 36.0082 29.0261 36.0184 29.0279 36.0263C29.0319 36.0431 29.0314 36.0612 29.0314 36.0789C29.0314 36.1881 29.0314 36.2977 29.0314 36.4068C28.3946 36.4073 27.7582 36.4073 27.1223 36.4073Z" fill="#0083C3"/>
<path d="M39.7377 36.4073C39.7377 35.8535 39.7377 35.2998 39.7377 34.7465C39.7377 34.7146 39.7377 34.6828 39.7395 34.6514C39.7404 34.632 39.762 34.6112 39.781 34.609C39.7987 34.6073 39.8164 34.6073 39.8341 34.6073C40.413 34.6073 40.9919 34.6073 41.5713 34.6073C41.589 34.6073 41.6071 34.6068 41.6239 34.6108C41.6319 34.6126 41.6416 34.6236 41.6429 34.6316C41.6464 34.6523 41.646 34.6735 41.646 34.6948C41.646 34.7898 41.6456 34.8852 41.6447 34.9802C41.6447 34.9953 41.6367 35.0076 41.6195 35.0081C41.5877 35.0094 41.5558 35.0099 41.5245 35.0099C41.1042 35.0099 40.6843 35.0099 40.2641 35.0099C40.2322 35.0099 40.2004 35.0103 40.169 35.0116C40.1527 35.0121 40.1443 35.0227 40.143 35.0386C40.1425 35.0421 40.1416 35.0457 40.1421 35.0492C40.1487 35.1181 40.1271 35.1888 40.154 35.2569C40.2168 35.2591 40.28 35.2635 40.3427 35.2635C40.7383 35.264 41.1338 35.264 41.5289 35.264C41.5607 35.264 41.5925 35.2644 41.6239 35.2671C41.6314 35.2679 41.6403 35.279 41.6438 35.2874C41.6478 35.2967 41.6469 35.3082 41.6469 35.3188C41.6469 35.4173 41.6473 35.5163 41.6469 35.6149C41.6464 35.6599 41.6411 35.6652 41.6 35.6661C41.5718 35.6666 41.5435 35.6666 41.5152 35.6666C41.0984 35.6666 40.6821 35.6666 40.2654 35.6666C40.2336 35.6666 40.2017 35.667 40.1704 35.6683C40.1545 35.6688 40.1439 35.6785 40.1439 35.6944C40.1434 35.7894 40.1434 35.8849 40.1443 35.9799C40.1443 35.9971 40.158 36.0038 40.173 36.0042C40.2048 36.0055 40.2367 36.0055 40.2685 36.0055C40.6852 36.0055 41.1015 36.0055 41.5183 36.0055C41.5466 36.0055 41.5748 36.0055 41.6031 36.0073C41.6221 36.0086 41.6442 36.0298 41.646 36.0484C41.6478 36.0661 41.6478 36.0838 41.6478 36.101C41.6478 36.2031 41.6478 36.3056 41.6478 36.4077C41.0096 36.4073 40.3737 36.4073 39.7377 36.4073Z" fill="#0083C3"/>
<path d="M24.3022 36.4072C24.3022 36.3051 24.3022 36.2026 24.3022 36.1005C24.3022 36.0828 24.3022 36.0651 24.304 36.0479C24.3058 36.0293 24.3279 36.0081 24.3469 36.0068C24.3751 36.005 24.4034 36.005 24.4317 36.005C24.8449 36.005 25.2581 36.005 25.6709 36.005C25.6921 36.005 25.7133 36.0046 25.7345 36.005C25.811 36.0059 25.8079 36.0019 25.8075 35.9268C25.807 35.8495 25.8066 35.7717 25.8057 35.6944C25.8057 35.678 25.7946 35.6687 25.7787 35.6683C25.7469 35.667 25.7151 35.6665 25.6837 35.6665C25.2634 35.6665 24.8432 35.6656 24.4233 35.667C24.3053 35.6674 24.3013 35.659 24.3018 35.5414C24.3031 35.2736 24.3022 35.0054 24.3022 34.7376C24.3022 34.7163 24.3018 34.6951 24.3022 34.6739C24.304 34.6271 24.3208 34.6098 24.3654 34.6076C24.3831 34.6067 24.4008 34.6076 24.4185 34.6076C24.9832 34.6076 25.5485 34.6076 26.1133 34.6076C26.218 34.6076 26.2105 34.5997 26.2105 34.7044C26.2105 34.7857 26.2109 34.8666 26.2105 34.9479C26.2101 35.0094 26.2096 35.0098 26.1429 35.0102C26.1217 35.0107 26.1005 35.0102 26.0793 35.0102C25.6625 35.0102 25.2458 35.0102 24.8295 35.0102C24.7976 35.0102 24.7658 35.0107 24.734 35.0116C24.7181 35.012 24.707 35.0208 24.707 35.0376C24.7066 35.1044 24.7066 35.1715 24.7075 35.2383C24.7075 35.2555 24.7212 35.2621 24.7358 35.2626C24.7676 35.2639 24.7994 35.2639 24.8312 35.2639C25.2515 35.2639 25.6718 35.2639 26.0916 35.2639C26.1234 35.2639 26.1553 35.2639 26.1866 35.267C26.1942 35.2679 26.2061 35.2789 26.207 35.2864C26.2101 35.3143 26.2101 35.3426 26.2105 35.3709C26.2105 35.7164 26.2105 36.062 26.2105 36.4076C25.5746 36.4072 24.9386 36.4072 24.3022 36.4072Z" fill="#0083C3"/>
<path d="M16.0547 36.4072C16.0547 35.8398 16.0547 35.2723 16.0547 34.7045C16.0547 34.5997 16.0459 34.6068 16.1506 34.6068C16.7225 34.6068 17.2939 34.6068 17.8658 34.6068C17.8905 34.6068 17.9153 34.6068 17.9396 34.6099C17.9471 34.6108 17.9577 34.6218 17.9595 34.6298C17.963 34.6466 17.9626 34.6647 17.9626 34.6824C17.9626 34.9785 17.9626 35.2746 17.9626 35.5707C17.9626 35.5848 17.963 35.5989 17.9617 35.6131C17.9595 35.6445 17.9396 35.6648 17.9069 35.6652C17.8362 35.6666 17.7659 35.6657 17.6952 35.6661C17.6705 35.6661 17.6457 35.6661 17.6214 35.6692C17.6152 35.6701 17.6055 35.6856 17.6068 35.6922C17.6108 35.709 17.6201 35.7244 17.6276 35.7399C17.739 35.9622 17.8508 36.1845 17.9621 36.4068C17.7995 36.4068 17.6369 36.4068 17.4747 36.4068C17.4716 36.3935 17.4707 36.3785 17.465 36.3666C17.3571 36.1505 17.2471 35.9357 17.141 35.7187C17.1202 35.6763 17.0933 35.6648 17.0504 35.6652C16.8741 35.6666 16.6978 35.6657 16.5219 35.6657C16.5077 35.6657 16.4931 35.6648 16.4799 35.6688C16.4719 35.671 16.4609 35.6811 16.4604 35.6886C16.4573 35.7165 16.4573 35.7448 16.4573 35.7731C16.4569 35.9843 16.4569 36.1956 16.4569 36.4068C16.3234 36.4072 16.1891 36.4072 16.0547 36.4072ZM16.9978 35.2635C17.118 35.2635 17.2378 35.2644 17.358 35.2631C17.4212 35.2626 17.484 35.2591 17.5472 35.2569C17.5754 35.1893 17.5529 35.1186 17.5595 35.0496C17.56 35.0461 17.5591 35.0425 17.5586 35.039C17.5569 35.024 17.5507 35.012 17.5335 35.0112C17.5158 35.0103 17.4981 35.0094 17.4804 35.0094C17.1662 35.0094 16.852 35.0094 16.5378 35.0094C16.5201 35.0094 16.5024 35.0098 16.4847 35.0112C16.4679 35.012 16.4591 35.0227 16.4591 35.0381C16.4582 35.0947 16.4573 35.1508 16.4578 35.2074C16.4582 35.2595 16.4613 35.2631 16.5104 35.2631C16.673 35.2635 16.8356 35.2635 16.9978 35.2635Z" fill="#4E5498"/>
<path d="M29.9634 36.4073C29.9634 35.8389 29.9634 35.2711 29.963 34.7027C29.963 34.598 29.9563 34.6073 30.0615 34.6073C30.6232 34.6073 31.1849 34.6073 31.7471 34.6073C31.7718 34.6073 31.7966 34.6077 31.8213 34.6086C31.8368 34.6095 31.8478 34.6174 31.8487 34.6342C31.8496 34.6519 31.8505 34.6696 31.8505 34.6873C31.8505 34.9873 31.8505 35.2874 31.8505 35.587C31.8505 35.6047 31.8496 35.6224 31.8487 35.6396C31.8478 35.6569 31.8355 35.6644 31.8204 35.6644C31.732 35.6653 31.6437 35.6653 31.5557 35.6657C31.5416 35.6657 31.5274 35.6653 31.5133 35.667C31.5018 35.6688 31.4965 35.6768 31.5027 35.6887C31.5429 35.7704 31.5831 35.8522 31.6238 35.934C31.6927 36.0723 31.7617 36.2102 31.831 36.3481C31.8403 36.3666 31.854 36.3839 31.8505 36.4068C31.6949 36.4068 31.5394 36.4068 31.3842 36.4068C31.3484 36.3348 31.3126 36.2632 31.2768 36.1912C31.1973 36.0321 31.1164 35.873 31.0382 35.713C31.0205 35.6768 30.9971 35.6639 30.9573 35.6648C30.7991 35.667 30.6409 35.6657 30.4827 35.6657C30.4544 35.6657 30.4266 35.6657 30.3983 35.6666C30.378 35.6675 30.3682 35.6785 30.3673 35.7006C30.3669 35.7148 30.3669 35.7289 30.3669 35.7426C30.3669 35.964 30.3669 36.1854 30.3669 36.4064C30.2321 36.4073 30.0978 36.4073 29.9634 36.4073ZM30.8963 35.2631C30.8963 35.2635 30.8963 35.2635 30.8963 35.2631C31.013 35.2631 31.1292 35.264 31.2459 35.2631C31.3091 35.2627 31.3719 35.2591 31.4351 35.2569C31.4629 35.1893 31.4408 35.1186 31.4474 35.0492C31.4479 35.0457 31.447 35.0421 31.4466 35.0386C31.4448 35.0231 31.4377 35.0121 31.4209 35.0112C31.4032 35.0103 31.3856 35.0094 31.3679 35.0094C31.0607 35.0094 30.7536 35.0094 30.4465 35.0094C30.4288 35.0094 30.4111 35.0103 30.3934 35.0112C30.3766 35.0121 30.3682 35.0231 30.3678 35.0386C30.3669 35.0987 30.366 35.1584 30.3665 35.2185C30.3669 35.2556 30.3735 35.2631 30.4089 35.2631C30.5715 35.2635 30.7337 35.2631 30.8963 35.2631Z" fill="#0083C3"/>
<path d="M13.2348 36.4073C13.2348 35.8394 13.2348 35.2719 13.2348 34.704C13.2348 34.5993 13.2264 34.6068 13.3315 34.6068C13.8963 34.6068 14.4611 34.6068 15.0259 34.6068C15.0507 34.6068 15.0754 34.6068 15.1002 34.6086C15.1187 34.6099 15.1404 34.632 15.1417 34.651C15.1435 34.6828 15.1435 34.7142 15.1435 34.746C15.1435 35.2998 15.1435 35.8531 15.1435 36.4068C14.5071 36.4073 13.8712 36.4073 13.2348 36.4073ZM14.1916 35.0099C14.0395 35.0094 13.8879 35.0094 13.7359 35.0099C13.7112 35.0099 13.6864 35.0099 13.6621 35.0125C13.6542 35.0134 13.6436 35.0236 13.6413 35.0315C13.6374 35.0448 13.6383 35.0594 13.6383 35.0735C13.6383 35.3625 13.6383 35.652 13.6383 35.941C13.6383 35.9552 13.6374 35.9697 13.6413 35.983C13.644 35.991 13.6542 36.0007 13.6621 36.002C13.6829 36.0051 13.7041 36.0051 13.7253 36.0051C14.0325 36.0051 14.3396 36.0051 14.6472 36.0051C14.6684 36.0051 14.6896 36.0051 14.7108 36.0038C14.7263 36.0029 14.7373 35.9954 14.7387 35.9786C14.7396 35.9644 14.7404 35.9503 14.7404 35.9362C14.7404 35.682 14.7404 35.4284 14.7404 35.1743C14.7404 35.1318 14.7409 35.0894 14.74 35.0474C14.7396 35.0209 14.729 35.0107 14.7007 35.0103C14.5305 35.0094 14.3613 35.0099 14.1916 35.0099Z" fill="#4E5498"/>
<path d="M7.59518 36.4072C7.59518 35.8394 7.59518 35.2715 7.59518 34.7036C7.59518 34.5988 7.58767 34.6072 7.69285 34.6072C7.77416 34.6072 7.85548 34.609 7.93635 34.6063C7.97569 34.605 8.00397 34.6187 8.02828 34.6474C8.0327 34.6528 8.03977 34.6567 8.04286 34.6629C8.07998 34.7327 8.14318 34.7796 8.19577 34.8362C8.22671 34.8693 8.26074 34.8989 8.28372 34.9405C8.30051 34.9701 8.33189 34.9917 8.35575 35.0174C8.40569 35.0713 8.46535 35.1163 8.50248 35.1822C8.51573 35.2061 8.54137 35.2224 8.56081 35.2432C8.60633 35.2918 8.65494 35.336 8.69339 35.3926C8.72875 35.4443 8.78178 35.4836 8.82553 35.5296C8.8494 35.5547 8.88121 35.5742 8.89138 35.6104C8.94839 35.6679 9.0054 35.7253 9.06285 35.7823C9.06418 35.7837 9.07655 35.7784 9.07699 35.7757C9.07876 35.7443 9.07964 35.7125 9.07964 35.6807C9.07964 35.3634 9.08097 35.0456 9.0792 34.7283C9.07832 34.6094 9.08848 34.6055 9.20515 34.6077C9.28647 34.609 9.36779 34.6081 9.44866 34.6086C9.47032 34.6086 9.48092 34.6196 9.48181 34.6408C9.48269 34.662 9.48269 34.6832 9.48269 34.7045C9.48269 35.2723 9.48269 35.8402 9.48225 36.4081C9.3479 36.4081 9.21355 36.4081 9.0792 36.4081C9.04075 36.3405 8.98993 36.2835 8.93381 36.2309C8.90066 36.1995 8.86177 36.1704 8.83879 36.1324C8.80697 36.0798 8.76189 36.0418 8.72168 35.9984C8.69781 35.9728 8.66555 35.952 8.6492 35.9224C8.61561 35.8623 8.56258 35.8217 8.5175 35.7731C8.49098 35.7448 8.45607 35.7218 8.43751 35.6895C8.40127 35.6272 8.34559 35.5844 8.2983 35.5326C8.27223 35.5044 8.23908 35.4805 8.21875 35.4487C8.16528 35.3643 8.08617 35.3046 8.01811 35.2343C8.0159 35.2321 8.00927 35.2304 8.00839 35.2312C8.00441 35.2361 7.99911 35.2419 7.99911 35.2476C7.99823 35.2794 7.99823 35.3108 7.99823 35.3426C7.99823 35.6979 7.99823 36.0528 7.99823 36.4081C7.86388 36.4072 7.72953 36.4072 7.59518 36.4072Z" fill="#4E5498"/>
<path d="M36.9178 36.4073C36.9178 35.8535 36.9178 35.2998 36.9178 34.7465C36.9178 34.7146 36.9178 34.6828 36.9195 34.6514C36.9204 34.6324 36.9425 34.6108 36.9611 34.609C36.9788 34.6073 36.9964 34.6073 37.0141 34.6073C37.593 34.6073 38.172 34.6073 38.7514 34.6073C38.769 34.6073 38.7872 34.6068 38.804 34.6108C38.8119 34.6126 38.8221 34.6236 38.823 34.6311C38.8261 34.6554 38.8261 34.6802 38.8261 34.7049C38.8261 34.7964 38.8256 34.8883 38.8247 34.9798C38.8247 34.9984 38.8115 35.0085 38.7894 35.0094C38.7611 35.0099 38.7328 35.0099 38.7045 35.0099C38.2842 35.0099 37.8644 35.0099 37.4441 35.0099C37.4123 35.0099 37.3805 35.0103 37.3491 35.0116C37.3327 35.0121 37.3239 35.0222 37.323 35.0381C37.3217 35.0558 37.3217 35.0735 37.3217 35.0907C37.3217 35.3692 37.3217 35.648 37.3217 35.9264C37.3217 35.937 37.3217 35.9476 37.3217 35.9583C37.323 35.9963 37.3288 36.0033 37.3628 36.0042C37.3911 36.0051 37.4194 36.0047 37.4477 36.0047C37.8644 36.0047 38.2807 36.0047 38.6974 36.0047C38.7257 36.0047 38.754 36.0047 38.7823 36.0064C38.8013 36.0078 38.8234 36.029 38.8252 36.0475C38.8269 36.0652 38.8269 36.0829 38.8269 36.1001C38.8269 36.2022 38.8269 36.3047 38.8269 36.4068C38.1897 36.4073 37.5537 36.4073 36.9178 36.4073Z" fill="#0083C3"/>
<path d="M10.4153 36.4072C10.4153 35.8389 10.4153 35.271 10.4153 34.7027C10.4153 34.5979 10.4087 34.6072 10.5134 34.6072C11.0787 34.6072 11.6439 34.6076 12.2092 34.6068C12.3104 34.6068 12.3267 34.6138 12.3236 34.7181C12.3214 34.7959 12.3236 34.8732 12.3227 34.951C12.3223 34.9886 12.3011 35.008 12.2626 35.0094C12.2343 35.0102 12.2061 35.0098 12.1778 35.0098C11.7646 35.0098 11.3509 35.0098 10.9377 35.0098C10.9059 35.0098 10.8741 35.0098 10.8427 35.0124C10.8347 35.0133 10.8215 35.0239 10.8215 35.0306C10.8197 35.1008 10.8197 35.1715 10.8215 35.2418C10.8215 35.2484 10.8347 35.2595 10.8422 35.2604C10.8736 35.263 10.9059 35.263 10.9373 35.263C11.3575 35.263 11.7783 35.2639 12.1986 35.2626C12.3157 35.2621 12.3263 35.2661 12.3232 35.385C12.3214 35.4592 12.3236 35.533 12.3223 35.6073C12.3219 35.6444 12.3006 35.6639 12.2622 35.6652C12.2339 35.6661 12.2056 35.6656 12.1773 35.6656C11.7641 35.6656 11.3505 35.6656 10.9373 35.6656C10.9054 35.6656 10.8736 35.6656 10.8422 35.6683C10.8343 35.6692 10.8224 35.6798 10.8215 35.6868C10.8179 35.7111 10.8179 35.7359 10.8179 35.7606C10.8175 35.9759 10.8179 36.1911 10.8179 36.4063C10.6836 36.4072 10.5492 36.4072 10.4153 36.4072Z" fill="#4E5498"/>
<path d="M33.5255 36.4072C33.5241 36.3966 33.5255 36.3851 33.521 36.3763C33.4565 36.2446 33.4008 36.1098 33.3491 35.9723C33.3222 35.9007 33.2864 35.8322 33.2546 35.7624C33.2457 35.7434 33.2364 35.7244 33.2298 35.7045C33.1891 35.5896 33.1366 35.4791 33.0893 35.3669C33.0787 35.3413 33.0685 35.3152 33.0579 35.2896C33.015 35.1866 32.9748 35.0823 32.9284 34.9815C32.8975 34.9148 32.8723 34.8467 32.8453 34.7787C32.8285 34.7367 32.8055 34.6969 32.7865 34.6554C32.7764 34.6337 32.7905 34.609 32.8126 34.6085C32.9187 34.6076 33.0243 34.6076 33.1304 34.6072C33.1587 34.6072 33.1754 34.6231 33.1865 34.6479C33.221 34.7243 33.263 34.7981 33.2886 34.8772C33.3111 34.9475 33.3505 35.0094 33.373 35.0796C33.3942 35.1455 33.4353 35.2056 33.4543 35.2723C33.4738 35.3404 33.5219 35.3956 33.5321 35.4663C33.5926 35.5728 33.6222 35.693 33.6775 35.8022C33.6885 35.8239 33.693 35.8482 33.7031 35.8703C33.7097 35.8844 33.7212 35.8963 33.7305 35.9091C33.7341 35.8959 33.7363 35.8822 33.742 35.8698C33.776 35.7934 33.8114 35.7173 33.8454 35.6404C33.864 35.5989 33.8825 35.5578 33.898 35.5154C33.9338 35.4168 33.982 35.3236 34.02 35.2264C34.0602 35.1225 34.104 35.02 34.1468 34.9174C34.1844 34.8277 34.2233 34.738 34.2595 34.6474C34.2688 34.624 34.2816 34.6063 34.3125 34.6068C34.4221 34.6085 34.5313 34.6076 34.6409 34.6085C34.663 34.6085 34.6718 34.6222 34.6639 34.643C34.6405 34.7049 34.617 34.7667 34.5914 34.8273C34.5454 34.9364 34.4951 35.0438 34.4518 35.1543C34.3908 35.3099 34.3161 35.4597 34.26 35.6175C34.233 35.693 34.1946 35.7642 34.1619 35.8376C34.1437 35.8791 34.1252 35.9202 34.1097 35.9631C34.0739 36.0616 34.0266 36.1549 33.9882 36.2521C33.9678 36.3034 33.9387 36.352 33.9289 36.4077C33.7937 36.4072 33.6598 36.4072 33.5255 36.4072Z" fill="#0083C3"/>
<path d="M48.367 36.4072C48.3555 36.371 48.3485 36.333 48.3325 36.2985C48.2959 36.2194 48.264 36.1385 48.2336 36.0572C48.2066 35.9856 48.1704 35.9176 48.1394 35.8473C48.1195 35.8027 48.101 35.7576 48.0837 35.7121C48.025 35.5556 47.9485 35.4067 47.8924 35.2489C47.8654 35.1734 47.827 35.1026 47.7947 35.0288C47.7792 34.9939 47.7638 34.9586 47.7523 34.9223C47.728 34.8459 47.6816 34.7783 47.6612 34.7C47.6537 34.6713 47.6201 34.651 47.6356 34.6156C47.663 34.613 47.6909 34.6081 47.7183 34.6077C47.8066 34.6068 47.8946 34.6077 47.983 34.6072C48.006 34.6072 48.0219 34.613 48.032 34.6373C48.0559 34.6952 48.0895 34.75 48.1067 34.8096C48.1275 34.8808 48.1637 34.9444 48.1911 35.0121C48.245 35.1442 48.2954 35.2781 48.356 35.4071C48.4077 35.5181 48.4444 35.6347 48.5 35.7439C48.5221 35.7872 48.5385 35.8332 48.5584 35.8778C48.5606 35.8831 48.5677 35.8902 48.5712 35.8897C48.5774 35.8889 48.5845 35.8836 48.588 35.8782C48.5955 35.8668 48.6026 35.8544 48.6074 35.8411C48.6662 35.6847 48.7427 35.5357 48.7988 35.378C48.8258 35.3024 48.8646 35.2317 48.8969 35.1583C48.915 35.1168 48.9336 35.0752 48.9486 35.0328C48.9919 34.9113 49.0551 34.7982 49.0962 34.6757C49.1006 34.6625 49.1073 34.6501 49.1148 34.6382C49.1263 34.6192 49.1431 34.6072 49.1665 34.6077C49.2089 34.6077 49.2513 34.6077 49.2938 34.6077C49.3503 34.6077 49.4069 34.6086 49.463 34.6077C49.5037 34.6068 49.5231 34.6249 49.5041 34.666C49.4895 34.6978 49.4767 34.7297 49.4652 34.7628C49.4436 34.8251 49.4095 34.883 49.3861 34.9449C49.3455 35.0523 49.292 35.1544 49.2553 35.2635C49.2354 35.3227 49.2045 35.378 49.1802 35.4359C49.1466 35.5163 49.1126 35.5959 49.0816 35.6776C49.0547 35.7492 49.0184 35.8173 48.9875 35.8875C48.9707 35.9255 48.9566 35.9649 48.9402 36.0038C48.8942 36.1129 48.8527 36.2238 48.7988 36.3299C48.7864 36.3547 48.7793 36.3816 48.7701 36.4077C48.6353 36.4072 48.5009 36.4072 48.367 36.4072Z" fill="#A3C626"/>
<path d="M45.547 36.4072C45.547 35.9807 45.547 35.5538 45.547 35.1274C45.547 35.0955 45.547 35.0637 45.5439 35.0323C45.543 35.0248 45.5315 35.0138 45.524 35.0129C45.4997 35.0098 45.475 35.0098 45.4502 35.0098C45.2668 35.0098 45.083 35.0098 44.8996 35.0098C44.8784 35.0098 44.8571 35.0098 44.8359 35.0085C44.816 35.0076 44.8054 34.9961 44.8054 34.974C44.805 34.9245 44.805 34.8754 44.805 34.826C44.8054 34.7623 44.8054 34.6991 44.8068 34.6355C44.8072 34.6196 44.8165 34.6094 44.8328 34.6085C44.854 34.6072 44.8753 34.6068 44.8965 34.6068C45.4648 34.6068 46.0331 34.6068 46.6015 34.6068C46.6227 34.6068 46.6439 34.6072 46.6651 34.6085C46.6815 34.6094 46.6912 34.6196 46.6912 34.6355C46.6916 34.7517 46.6912 34.8679 46.6907 34.9842C46.6907 35.001 46.6766 35.0076 46.662 35.008C46.6337 35.0094 46.6054 35.0094 46.5772 35.0094C46.3902 35.0094 46.2028 35.0094 46.0159 35.0094C46.0018 35.0094 45.9872 35.0085 45.9739 35.0124C45.966 35.0147 45.9545 35.0248 45.954 35.0323C45.9509 35.0637 45.9509 35.0955 45.9509 35.1274C45.9509 35.5538 45.9509 35.9807 45.9505 36.4072C45.8153 36.4072 45.6814 36.4072 45.547 36.4072Z" fill="#DD3923"/>
<path d="M6.25919 36.4073C6.25919 35.854 6.25919 35.3007 6.25919 34.7474C6.25919 34.7155 6.25919 34.6837 6.26095 34.6523C6.26184 34.6333 6.28349 34.6121 6.30161 34.609C6.30515 34.6086 6.30868 34.6082 6.31222 34.6082C6.41828 34.6082 6.52391 34.6082 6.62997 34.6086C6.65118 34.6086 6.66091 34.6196 6.66179 34.6417C6.66267 34.663 6.66223 34.6842 6.66223 34.7054C6.66223 35.2728 6.66223 35.8403 6.66179 36.4077C6.52788 36.4073 6.39353 36.4073 6.25919 36.4073Z" fill="#4E5498"/>
<path d="M35.603 36.4072C35.603 35.8433 35.603 35.2794 35.603 34.7155C35.603 34.6872 35.603 34.6589 35.6061 34.6311C35.607 34.6235 35.6176 34.6151 35.6256 34.6103C35.6309 34.6067 35.6393 34.6076 35.6463 34.6076C35.7453 34.6076 35.8439 34.6067 35.9429 34.6076C35.9879 34.6081 36.0047 34.6266 36.0061 34.673C36.0069 34.6978 36.0061 34.7225 36.0061 34.7468C36.0061 35.3001 36.0061 35.8535 36.0061 36.4068C35.8717 36.4072 35.7374 36.4072 35.603 36.4072Z" fill="#0083C3"/>
<path d="M11.7296 28.1372C11.7296 29.3194 11.7301 30.5016 11.7292 31.6838C11.7292 31.8327 11.75 31.8111 11.6001 31.8111C11.1056 31.8119 10.6111 31.8115 10.1161 31.8115C10.0878 31.8115 10.0595 31.8119 10.0313 31.8111C10.0025 31.8102 9.99237 31.8009 9.99149 31.7744C9.9906 31.7461 9.99105 31.7178 9.99105 31.6895C9.99105 29.3216 9.99105 26.9537 9.99105 24.5858C9.99105 24.554 9.99149 24.5222 9.99281 24.4908C9.99326 24.474 10.0043 24.4656 10.0198 24.4652C10.0445 24.4639 10.0693 24.4639 10.094 24.4639C10.6062 24.4639 11.1184 24.4639 11.6311 24.4639C11.6558 24.4639 11.6806 24.4639 11.7049 24.4665C11.7128 24.4674 11.7243 24.4776 11.7256 24.4851C11.7292 24.5059 11.7292 24.5271 11.7292 24.5483C11.7292 24.7175 11.7292 24.8872 11.7292 25.0565C11.7296 26.0836 11.7296 27.1102 11.7296 28.1372Z" fill="white"/>
<path d="M33.719 24.4639C34.9944 24.4639 36.2699 24.4639 37.5453 24.4639C37.5771 24.4639 37.6089 24.4635 37.6408 24.4644C37.6695 24.4648 37.6796 24.4745 37.6805 24.501C37.681 24.5187 37.681 24.5364 37.681 24.5541C37.681 24.9739 37.681 25.3942 37.681 25.814C37.681 25.8352 37.6801 25.8565 37.6792 25.8772C37.6783 25.8945 37.6659 25.9015 37.6509 25.902C37.6191 25.9033 37.5873 25.9033 37.5555 25.9033C36.6049 25.9033 35.6547 25.9033 34.7041 25.9033C34.6723 25.9033 34.6405 25.9033 34.6086 25.9051C34.5896 25.906 34.568 25.9276 34.5658 25.9462C34.5644 25.9568 34.564 25.9674 34.564 25.978C34.564 26.0063 34.564 26.0346 34.564 26.0628C34.564 27.9331 34.564 29.8034 34.5636 31.6741C34.5636 31.7161 34.5591 31.7576 34.5569 31.7996C34.5141 31.8239 34.4677 31.8116 34.423 31.8116C33.9391 31.8124 33.4547 31.8124 32.9708 31.812C32.939 31.812 32.9072 31.8116 32.8754 31.8107C32.8599 31.8102 32.8484 31.8023 32.848 31.785C32.8471 31.7497 32.8462 31.7143 32.8462 31.6794C32.8462 29.8056 32.8462 27.9318 32.8462 26.0575C32.8462 26.0222 32.8466 25.9868 32.8449 25.9519C32.8435 25.9272 32.8219 25.9064 32.7963 25.9051C32.7644 25.9037 32.7326 25.9042 32.7008 25.9042C31.7573 25.9042 30.8142 25.9042 29.8706 25.9037C29.7354 25.9037 29.7513 25.9219 29.7513 25.7875C29.7509 25.3854 29.7513 24.9828 29.7513 24.5806C29.7513 24.5523 29.7513 24.524 29.7522 24.4957C29.7531 24.475 29.7637 24.4652 29.7862 24.4644C29.818 24.4635 29.8499 24.4639 29.8817 24.4639C31.1611 24.4639 32.4401 24.4639 33.719 24.4639Z" fill="white"/>
<path d="M45.1422 31.8116C44.7644 31.8116 44.3861 31.8116 44.0082 31.8116C43.987 31.8116 43.9654 31.8085 43.9446 31.812C43.8915 31.8222 43.8681 31.7912 43.8513 31.7497C43.8301 31.698 43.8049 31.6476 43.789 31.5946C43.7568 31.4876 43.7099 31.3864 43.6693 31.283C43.6379 31.2021 43.61 31.1195 43.576 31.039C43.5287 30.9268 43.4867 30.8123 43.4434 30.6988C43.4023 30.5914 43.3559 30.4866 43.3192 30.3779C43.2914 30.2957 43.2552 30.2162 43.2233 30.1353C43.1915 30.0544 43.1628 29.9722 43.1288 29.8922C43.081 29.78 43.0395 29.6655 42.9962 29.5515C42.9555 29.4441 42.9118 29.338 42.872 29.2306C42.8309 29.1197 42.7872 29.0097 42.7443 28.8996C42.7027 28.7927 42.6568 28.6875 42.6197 28.5788C42.5918 28.4966 42.556 28.417 42.5242 28.3362C42.4782 28.2195 42.4332 28.1028 42.3876 27.9861C42.3434 27.8726 42.2984 27.7594 42.2542 27.6459C42.2312 27.5875 42.2095 27.5292 42.187 27.4709C42.1503 27.3767 42.1136 27.283 42.077 27.1889C42.0465 27.1111 42.0164 27.0333 41.9859 26.9556C41.9758 26.9295 41.9647 26.9043 41.9541 26.8782C41.9139 26.7783 41.8816 26.6749 41.8383 26.5764C41.8215 26.5384 41.8091 26.4981 41.7937 26.4593C41.749 26.3457 41.7035 26.233 41.6593 26.1194C41.6191 26.0156 41.5798 25.9117 41.54 25.8078C41.4963 25.6943 41.4507 25.5811 41.4079 25.4671C41.3672 25.3597 41.3199 25.2554 41.2837 25.1458C41.2567 25.0632 41.2192 24.9841 41.1873 24.9032C41.1555 24.8223 41.125 24.7406 41.0941 24.6597C41.0742 24.608 41.0525 24.5563 41.0331 24.5041C41.0265 24.486 41.0393 24.4661 41.0565 24.4652C41.0777 24.4639 41.099 24.4635 41.1202 24.4635C41.7243 24.4635 42.3284 24.4635 42.9325 24.4635C42.9502 24.4635 42.9679 24.463 42.9856 24.4639C43.0196 24.4652 43.0324 24.4758 43.0448 24.5121C43.1575 24.848 43.2671 25.1856 43.3838 25.5201C43.519 25.9073 43.6441 26.298 43.7766 26.686C43.8708 26.9622 43.9693 27.2371 44.0617 27.5142C44.1541 27.7913 44.2411 28.0697 44.3392 28.3446C44.4541 28.6654 44.5562 28.9902 44.6671 29.3124C44.7122 29.4437 44.7569 29.5754 44.8019 29.707C44.8735 29.9174 44.9456 30.1282 45.0172 30.3386C45.0273 30.3686 45.0295 30.3708 45.0609 30.3713C45.1069 30.3717 45.1528 30.3695 45.1988 30.3722C45.2412 30.3744 45.2642 30.3545 45.277 30.3165C45.3027 30.2409 45.3301 30.1658 45.3557 30.0902C45.3919 29.9815 45.4224 29.8701 45.4644 29.7636C45.5435 29.563 45.5992 29.3539 45.6761 29.1529C45.7455 28.9708 45.7976 28.783 45.867 28.6013C45.9439 28.3998 46.0022 28.1921 46.0783 27.9901C46.1481 27.8045 46.2016 27.6132 46.2718 27.4284C46.3439 27.2397 46.3987 27.0457 46.4698 26.857C46.5507 26.6422 46.6148 26.4217 46.6943 26.2065C46.7619 26.024 46.815 25.8361 46.8852 25.6545C46.963 25.453 47.0196 25.2448 47.0965 25.0437C47.1663 24.8617 47.2229 24.6756 47.2861 24.4913C47.2931 24.471 47.3042 24.4635 47.3236 24.4635C47.3413 24.4635 47.359 24.463 47.3767 24.463C47.9808 24.463 48.5849 24.463 49.189 24.4626C49.2783 24.4626 49.2947 24.4604 49.2527 24.5616C49.1939 24.703 49.1338 24.8435 49.0852 24.9889C49.0578 25.0711 49.0202 25.1502 48.9884 25.2311C48.942 25.3473 48.8921 25.4622 48.8523 25.5811C48.8236 25.6669 48.7842 25.7486 48.7506 25.8326C48.7246 25.8971 48.7007 25.9625 48.6755 26.0275C48.6375 26.1247 48.5973 26.2211 48.5606 26.3187C48.5177 26.4327 48.4674 26.5437 48.4289 26.6595C48.4015 26.7417 48.3666 26.8216 48.3326 26.9016C48.2985 26.9816 48.2689 27.0634 48.2389 27.1451C48.2066 27.2335 48.1682 27.3193 48.1341 27.4068C48.0913 27.5168 48.044 27.6255 48.0055 27.7373C47.9764 27.8226 47.9375 27.9048 47.9048 27.9892C47.8747 28.067 47.8411 28.1435 47.8146 28.223C47.7872 28.3052 47.7523 28.3852 47.7196 28.4661C47.6714 28.5854 47.6202 28.7034 47.58 28.8258C47.5517 28.9116 47.511 28.9933 47.4779 29.0773C47.4483 29.1515 47.4182 29.2258 47.3912 29.3014C47.3612 29.3866 47.3241 29.4693 47.2914 29.5537C47.2463 29.6704 47.195 29.7848 47.1561 29.9042C47.1278 29.9899 47.0876 30.0716 47.054 30.1556C47.0244 30.2299 46.9944 30.3041 46.9674 30.3797C46.9369 30.4645 46.9011 30.5481 46.868 30.632C46.8225 30.7487 46.7708 30.8627 46.7323 30.9825C46.7089 31.0554 46.6784 31.1257 46.6479 31.1959C46.6064 31.2918 46.5692 31.3891 46.5348 31.4876C46.499 31.5893 46.4548 31.6883 46.4146 31.7881C46.4132 31.7912 46.4132 31.7956 46.411 31.7974C46.4057 31.8018 46.3995 31.8076 46.3938 31.8076C46.3655 31.8093 46.3372 31.8098 46.3089 31.8098C45.9196 31.8116 45.5311 31.8116 45.1422 31.8116Z" fill="white"/>
<path d="M22.2741 31.8116C21.6099 31.8116 20.9456 31.812 20.281 31.8111C20.2288 31.8111 20.1749 31.8226 20.1258 31.7926C20.0799 31.7921 20.0339 31.7921 19.988 31.7903C19.9429 31.7886 19.8965 31.7992 19.8536 31.7727C19.843 31.766 19.8258 31.7682 19.8121 31.77C19.7374 31.7793 19.668 31.74 19.5938 31.7466C19.5354 31.7223 19.4709 31.7232 19.4117 31.7046C19.3153 31.675 19.215 31.6595 19.1213 31.6215C19.1054 31.6149 19.0891 31.6087 19.0727 31.6025C19.0303 31.5862 18.9932 31.557 18.9468 31.5517C18.8394 31.4929 18.7298 31.4381 18.6383 31.3546C18.6074 31.3263 18.5707 31.3047 18.5402 31.2764C18.4421 31.1849 18.3638 31.0788 18.2993 30.9608C18.2211 30.8172 18.169 30.6904 18.1305 30.5255C18.1221 30.4884 18.1106 30.4522 18.1004 30.4155C18.0996 30.4119 18.0965 30.4093 18.096 30.4062C18.0894 30.351 18.0819 30.2962 18.0704 30.2418C18.062 30.2016 18.0735 30.1574 18.0496 30.1189C18.0465 30.1136 18.0479 30.1052 18.0479 30.0982C18.0479 29.9886 18.0479 29.8794 18.0483 29.7698C18.0483 29.7486 18.0594 29.7389 18.0819 29.738C18.1066 29.7371 18.1314 29.7376 18.1561 29.7376C18.6719 29.7376 19.1881 29.7376 19.7038 29.7376C19.7285 29.7376 19.7533 29.738 19.778 29.7389C19.794 29.7393 19.8037 29.7482 19.8059 29.7641C19.8107 29.7985 19.8359 29.8281 19.8289 29.8657C19.8275 29.8723 19.8275 29.8807 19.8306 29.8865C19.8669 29.9612 19.8859 30.0469 19.9526 30.103C19.9827 30.1282 19.9928 30.1671 20.0291 30.1879C20.0587 30.2051 20.0812 30.2347 20.1068 30.2586C20.117 30.2683 20.1272 30.2802 20.1395 30.2851C20.1798 30.3001 20.2103 30.3359 20.2483 30.347C20.2991 30.362 20.3428 30.3916 20.395 30.4027C20.4595 30.4159 20.5214 30.4416 20.5894 30.4371C20.6243 30.4349 20.6579 30.438 20.6924 30.4526C20.7198 30.4641 20.7552 30.4575 20.7865 30.4575C21.3306 30.4575 21.875 30.4575 22.4191 30.4575C22.815 30.4575 23.2106 30.4575 23.6065 30.457C23.6445 30.457 23.6834 30.4632 23.7201 30.4424C23.7338 30.4345 23.7541 30.4371 23.7718 30.4367C23.8107 30.4358 23.8496 30.4371 23.8885 30.4363C23.9336 30.4349 23.9809 30.4455 24.0224 30.4177C24.1006 30.4199 24.1727 30.3925 24.2473 30.3744C24.4153 30.3337 24.5647 30.2511 24.6632 30.1265C24.7017 30.0783 24.7348 30.0257 24.7538 29.9629C24.771 29.9068 24.7852 29.8494 24.8037 29.7932C24.8099 29.7738 24.8108 29.7521 24.8108 29.7314C24.8117 29.643 24.8135 29.555 24.8104 29.4666C24.8086 29.422 24.7998 29.3769 24.7896 29.3332C24.7697 29.2483 24.7489 29.1604 24.6972 29.0906C24.646 29.0207 24.5859 28.9531 24.5028 28.9155C24.4458 28.8895 24.3923 28.8554 24.33 28.84C24.273 28.8258 24.2177 28.8033 24.1607 28.7887C24.1338 28.7816 24.1015 28.7922 24.0772 28.7821C24.0228 28.7591 23.9672 28.7644 23.911 28.7631C23.9004 28.7626 23.8881 28.7657 23.8797 28.7609C23.8266 28.7321 23.7696 28.7423 23.7139 28.7423C22.6643 28.7419 21.6152 28.7419 20.5656 28.7414C20.5099 28.7414 20.4555 28.7432 20.399 28.7251C20.3539 28.7105 20.3009 28.7224 20.2514 28.7202C20.2027 28.7184 20.1532 28.7295 20.1064 28.7025C20.0927 28.6946 20.0719 28.6999 20.0543 28.6994C19.9986 28.6972 19.9416 28.7083 19.8885 28.68C19.8828 28.6769 19.8744 28.6773 19.8678 28.6787C19.7997 28.6897 19.7374 28.6583 19.6706 28.6535C19.6061 28.6491 19.5425 28.6248 19.4784 28.6084C19.3295 28.5704 19.1854 28.5196 19.0488 28.4471C18.9494 28.3945 18.8544 28.3362 18.7766 28.2531C18.755 28.2301 18.732 28.208 18.7094 28.1855C18.5892 28.0684 18.5145 27.9238 18.4474 27.7723C18.3904 27.6437 18.3722 27.5053 18.328 27.3741C18.3227 27.3582 18.321 27.3387 18.3241 27.3219C18.3311 27.2813 18.2998 27.2494 18.3015 27.2097C18.3033 27.1717 18.3029 27.1341 18.2865 27.0961C18.2746 27.0691 18.283 27.0338 18.2812 27.002C18.2777 26.9467 18.2918 26.8897 18.2631 26.8362C18.2556 26.8221 18.2604 26.8018 18.2604 26.7841C18.2604 26.6431 18.2604 26.5017 18.2604 26.3607C18.2604 26.3329 18.2626 26.3064 18.2728 26.2785C18.283 26.2498 18.2794 26.2166 18.2816 26.1853C18.2843 26.1437 18.2737 26.1009 18.298 26.0615C18.3046 26.0509 18.3042 26.0337 18.3024 26.0204C18.298 25.9837 18.3179 25.9524 18.3219 25.9183C18.3258 25.8834 18.3316 25.8498 18.3435 25.8167C18.3585 25.7743 18.3669 25.7296 18.3811 25.6868C18.4403 25.5065 18.5221 25.3376 18.6454 25.1909C18.6701 25.1617 18.6891 25.1282 18.7156 25.0999C18.793 25.0172 18.8836 24.9509 18.9777 24.8908C19.1461 24.783 19.3264 24.6986 19.5191 24.6425C19.5725 24.627 19.6256 24.6115 19.679 24.5961C19.7321 24.5806 19.7913 24.5855 19.843 24.5682C19.8881 24.5532 19.9349 24.5607 19.9765 24.5461C20.0215 24.5307 20.0684 24.5395 20.1104 24.5267C20.1833 24.5041 20.2562 24.5094 20.3296 24.5077C20.3331 24.5077 20.3371 24.5086 20.3402 24.5072C20.4573 24.4683 20.5775 24.4931 20.6964 24.4865C20.7622 24.4825 20.8294 24.4962 20.8944 24.4679C20.9125 24.4599 20.9364 24.4657 20.9576 24.4657C21.9647 24.4657 22.9719 24.4657 23.9786 24.4657C24.0136 24.4657 24.048 24.4622 24.0821 24.4803C24.0989 24.4896 24.1232 24.486 24.1444 24.486C24.2363 24.4865 24.3282 24.486 24.4201 24.4865C24.448 24.4865 24.4767 24.4829 24.5023 24.5006C24.5076 24.5041 24.5156 24.5063 24.5222 24.5063C24.5921 24.5072 24.661 24.5103 24.7304 24.5267C24.7737 24.5368 24.8192 24.5368 24.8643 24.5461C24.908 24.5554 24.9531 24.5585 24.9973 24.5704C25.0945 24.5965 25.1931 24.6164 25.2885 24.6495C25.4781 24.7149 25.6562 24.8024 25.8211 24.9165C25.8989 24.9704 25.9753 25.0292 26.0337 25.1043C26.1061 25.1975 26.1892 25.2846 26.2338 25.3977C26.2467 25.4304 26.2626 25.4618 26.2798 25.4923C26.3434 25.6024 26.3757 25.7234 26.4027 25.8459C26.4208 25.9272 26.446 26.0072 26.446 26.0916C26.4751 26.1477 26.4632 26.2082 26.4663 26.2675C26.469 26.3161 26.4601 26.3647 26.4835 26.4124C26.4946 26.435 26.4866 26.4681 26.4844 26.4959C26.484 26.5035 26.4734 26.5149 26.4654 26.5167C26.4486 26.5207 26.4305 26.5198 26.4128 26.5198C25.883 26.5198 25.3526 26.5198 24.8227 26.5198C24.8086 26.5198 24.7945 26.5194 24.7803 26.5189C24.7649 26.518 24.7556 26.5105 24.7485 26.4964C24.7375 26.4743 24.7291 26.4526 24.7273 26.427C24.7207 26.3285 24.6959 26.2348 24.6464 26.149C24.6239 26.1097 24.5982 26.0721 24.5713 26.0359C24.52 25.9683 24.4431 25.9369 24.368 25.9095C24.2968 25.8834 24.223 25.8578 24.1444 25.8631C24.1338 25.864 24.121 25.8657 24.113 25.8609C24.0635 25.8322 24.01 25.8423 23.9579 25.8423C22.9083 25.8419 21.8591 25.8419 20.8095 25.8423C20.7503 25.8423 20.6893 25.8308 20.6336 25.8618C20.5174 25.8613 20.4171 25.9104 20.3163 25.9594C20.2907 25.9718 20.2673 25.9864 20.2478 26.0072C20.2213 26.0354 20.1943 26.0633 20.1652 26.0894C20.1139 26.1353 20.0878 26.1954 20.0622 26.2573C20.0326 26.3289 20.0273 26.4058 20.0025 26.4778C19.9972 26.4937 20.0003 26.5127 20.0003 26.5304C20.0003 26.5834 20.0034 26.6365 19.9995 26.6891C19.9919 26.7925 20.0335 26.8875 20.0445 26.9874C20.0927 27.108 20.1665 27.2075 20.2814 27.2729C20.3627 27.2919 20.4317 27.3502 20.5201 27.3453C20.5691 27.3701 20.6221 27.3661 20.6747 27.3661C20.6818 27.3661 20.6898 27.3648 20.6955 27.3674C20.7591 27.3984 20.8268 27.3864 20.893 27.3864C22.1123 27.3869 23.3312 27.3869 24.5505 27.3873C24.6027 27.3873 24.657 27.3754 24.7056 27.4059C24.7516 27.4063 24.7976 27.4063 24.8435 27.4081C24.8886 27.4099 24.9359 27.3975 24.9774 27.4258C24.9827 27.4293 24.9911 27.4284 24.9982 27.4284C25.0406 27.4293 25.0839 27.424 25.125 27.4315C25.1626 27.4386 25.1984 27.4505 25.2377 27.4514C25.2682 27.4519 25.2983 27.4691 25.3288 27.4695C25.3584 27.4704 25.3827 27.4841 25.4092 27.4903C25.5391 27.5217 25.6602 27.5734 25.7782 27.6357C25.8812 27.6901 25.9753 27.7537 26.0597 27.835C26.157 27.9291 26.229 28.0392 26.2926 28.1567C26.358 28.2774 26.3929 28.4091 26.438 28.5373C26.453 28.5792 26.4464 28.6274 26.4663 28.6694C26.4601 28.7264 26.5012 28.7768 26.4884 28.8347C26.5118 28.8877 26.5114 28.9438 26.5096 29C26.5489 29.1131 26.5233 29.2302 26.5304 29.3451C26.533 29.3902 26.5216 29.437 26.5494 29.4786C26.5476 29.5519 26.5627 29.6257 26.5397 29.6987C26.5335 29.7181 26.5313 29.7398 26.5308 29.7605C26.5295 29.8171 26.5308 29.8737 26.5304 29.9298C26.5299 29.9612 26.5344 29.993 26.5158 30.0222C26.5105 30.0301 26.5083 30.0429 26.5101 30.0527C26.5224 30.1242 26.4964 30.1919 26.4844 30.2599C26.4734 30.3244 26.4623 30.3898 26.4442 30.453C26.4248 30.5198 26.4044 30.5865 26.3797 30.651C26.3532 30.7195 26.3258 30.788 26.2904 30.8517C26.2316 30.9586 26.1693 31.0642 26.0805 31.1509C26.0681 31.1632 26.0535 31.1756 26.0465 31.1911C26.0314 31.2251 26.008 31.2485 25.9744 31.2644C25.959 31.2715 25.9466 31.2857 25.9338 31.2976C25.8392 31.3873 25.7318 31.4576 25.6165 31.519C25.4857 31.5884 25.3456 31.6299 25.2077 31.6794C25.1277 31.6874 25.0548 31.7276 24.9734 31.7285C24.9173 31.7621 24.8479 31.736 24.7905 31.7678C24.7794 31.774 24.7626 31.77 24.7485 31.77C24.7308 31.7705 24.7109 31.7652 24.6959 31.7718C24.6248 31.8018 24.5501 31.7877 24.4772 31.7912C24.4528 31.7926 24.4294 31.793 24.4051 31.8032C24.3835 31.8124 24.3574 31.812 24.3331 31.812C24.2482 31.8129 24.1634 31.8124 24.0785 31.8124C23.4757 31.8116 22.8751 31.8116 22.2741 31.8116Z" fill="white"/>
<rect x="0.5" y="0.5" width="55" height="55" rx="27.5" stroke="#EAECF0"/>
</svg>
