<svg width="56" height="56" viewBox="0 0 56 56" fill="none" xmlns="http://www.w3.org/2000/svg">
<g clip-path="url(#clip0_200_558)">
<rect width="56" height="56" rx="28" fill="#FF8C00"/>
<circle cx="28" cy="28" r="28" fill="#FF8C00"/>
<path d="M43.308 43.9168C40.1035 39.8715 37.1412 39.1019 34.1863 38.4497C30.5718 37.6534 28.7118 35.6196 27.4164 33.3867C27.1593 32.9411 27.0435 33.0213 27.0197 33.5918C26.9942 34.4374 27.0534 35.2835 27.1965 36.1173C27.0479 36.1173 26.8994 36.1173 26.7508 36.1173C24.8629 36.1074 23.0224 35.5248 21.4726 34.4464C19.9229 33.3681 18.737 31.8448 18.0716 30.078C17.4061 28.3111 17.2926 26.384 17.7459 24.5512C18.1993 22.7185 19.1981 21.0665 20.6105 19.8136C22.0228 18.5607 23.7822 17.766 25.6559 17.5344C27.5296 17.3029 29.4295 17.6454 31.1044 18.5168C32.7792 19.3882 34.1502 20.7473 35.0361 22.4146C35.9219 24.0818 36.2809 25.9787 36.0656 27.8543C35.3822 27.731 34.0363 27.7176 33.0944 27.7993C32.7378 27.8291 32.7883 27.9954 33.0572 28.043C36.1518 28.6031 38.2792 30.521 38.765 34.0018C38.7668 34.0196 38.7741 34.0364 38.786 34.0498C38.798 34.0631 38.8138 34.0724 38.8313 34.0762C38.8488 34.08 38.867 34.0781 38.8834 34.0709C38.8998 34.0637 38.9135 34.0514 38.9225 34.036C40.5277 31.3518 41.1996 28.2118 40.8331 25.1058C40.4667 21.9998 39.0827 19.1023 36.8969 16.8654C34.7111 14.6285 31.8464 13.1778 28.7497 12.7397C25.653 12.3015 22.4983 12.9006 19.7778 14.4434C17.0572 15.9862 14.9237 18.3859 13.71 21.2684C12.4964 24.1509 12.2708 27.354 13.0684 30.3781C13.8661 33.4022 15.6421 36.0774 18.1196 37.9863C20.5971 39.8951 23.6366 40.9305 26.7642 40.9307C28.844 40.9307 30.8972 40.5266 33.9189 40.5266C36.6331 40.5266 39.5791 41.4581 42.8326 44.3461C43.158 44.6358 43.5918 44.2763 43.308 43.9168Z" fill="white"/>
<path d="M33.9461 34.9757C33.8209 34.9693 33.6958 34.9911 33.5802 35.0395C33.4645 35.0878 33.3611 35.1614 33.2776 35.255C32.9047 35.717 33.0726 36.5281 33.646 37.0288C33.9158 37.2548 34.2567 37.3784 34.6087 37.3779C34.7698 37.3856 34.9305 37.3552 35.0776 37.2891C35.2248 37.223 35.3542 37.1232 35.4555 36.9976C35.7883 36.5519 35.6041 35.9176 34.9667 35.3857C34.6853 35.1333 34.3239 34.9881 33.9461 34.9757Z" fill="white"/>
<path d="M37.0856 32.6566C36.8137 32.5541 36.5983 32.6358 36.4913 32.823C36.3428 33.1082 36.4512 33.6698 36.7647 34.16C37.0781 34.6503 37.3589 34.9028 37.5684 34.9028C37.7779 34.9028 37.9606 34.6458 37.8655 34.0248C37.818 33.6594 37.6115 32.8557 37.0856 32.6566Z" fill="white"/>
</g>
<defs>
<clipPath id="clip0_200_558">
<rect width="56" height="56" rx="28" fill="white"/>
</clipPath>
</defs>
</svg>
