<svg width="56" height="56" viewBox="0 0 56 56" fill="none" xmlns="http://www.w3.org/2000/svg">
<g clip-path="url(#clip0_200_564)">
<rect width="56" height="56" rx="28" fill="#FF9800"/>
<circle cx="28" cy="28" r="28" fill="#FF9800"/>
<path d="M31.442 34.42C33.0155 34.105 34.484 33.475 35.7428 32.635C36.7918 32.005 37.1065 30.64 36.4771 29.59C35.8477 28.54 34.484 28.225 33.4351 28.855C30.393 30.745 26.407 30.745 23.3649 28.855C22.316 28.225 20.9523 28.54 20.3229 29.59C19.6935 30.64 20.0082 32.005 21.0572 32.635C22.4209 33.475 23.8894 34.105 25.358 34.42L21.1621 38.62C20.3229 39.46 20.3229 40.825 21.1621 41.77C21.5817 42.19 22.1062 42.4 22.7356 42.4C23.26 42.4 23.8894 42.19 24.309 41.77L28.4 37.675L32.491 41.77C33.3302 42.61 34.6938 42.61 35.6379 41.77C36.4771 40.93 36.4771 39.565 35.6379 38.62L31.442 34.42ZM28.4 13C24.309 13 21.0572 16.255 21.0572 20.35C21.0572 24.445 24.309 27.7 28.4 27.7C32.491 27.7 35.7428 24.445 35.7428 20.35C35.7428 16.255 32.491 13 28.4 13ZM28.4 23.5C26.6168 23.5 25.2531 22.135 25.2531 20.35C25.2531 18.565 26.6168 17.2 28.4 17.2C30.1832 17.2 31.5469 18.565 31.5469 20.35C31.5469 22.135 30.1832 23.5 28.4 23.5Z" fill="white"/>
</g>
<defs>
<clipPath id="clip0_200_564">
<rect width="56" height="56" rx="28" fill="white"/>
</clipPath>
</defs>
</svg>
