<svg width="56" height="56" viewBox="0 0 56 56" fill="none" xmlns="http://www.w3.org/2000/svg">
<rect x="0.5" y="0.5" width="55" height="55" rx="27.5" fill="white"/>
<path d="M10.8 33.1283C10.6564 32.7906 10.4945 32.481 10.388 32.1509C10.0514 31.0835 9.98015 29.9802 10.0043 28.8704C10.0867 25.0867 10.9889 21.5114 12.788 18.1767C13.7085 16.4702 14.8808 14.9609 16.4416 13.7846C17.501 12.9855 18.648 12.387 20.0016 12.2323C24.0395 11.7704 27.6178 15.3993 26.7315 19.3977C26.3783 20.9794 25.4273 22.1522 24.1025 23.046C23.265 23.6103 22.3422 23.9793 21.3723 24.2435C19.2312 24.8243 17.1531 25.5651 15.2946 26.825C13.107 28.3049 11.6351 30.2968 10.9453 32.8565C10.9271 32.9218 10.9083 32.9877 10.8865 33.0518C10.8812 33.0624 10.8612 33.0736 10.8 33.1283Z" fill="#FF5E12"/>
<path d="M33.1429 45.149C32.4767 45.5732 31.7963 45.7492 31.0966 45.8498C28.8672 46.1711 26.6649 45.9422 24.4768 45.492C22.1503 45.013 19.9351 44.2251 17.8723 43.0382C16.0849 42.0102 14.5336 40.7192 13.3771 38.9857C12.1742 37.1833 11.8358 35.2526 12.5632 33.1995C13.4966 30.5657 16.2709 28.5803 19.3866 29.267C20.9815 29.6201 22.158 30.5786 23.0537 31.915C23.6052 32.7388 23.973 33.6385 24.2308 34.59C24.8046 36.7043 25.5255 38.7556 26.7497 40.6003C28.2387 42.8464 30.2573 44.3593 32.8704 45.0613C32.9434 45.0789 33.014 45.1066 33.1429 45.149Z" fill="#FF5E12"/>
<path d="M45.1418 22.8672C45.4661 23.3244 45.6203 23.7951 45.7303 24.2794C46.057 25.6981 46.0387 27.1333 45.9263 28.575C45.7861 30.3424 45.4462 32.0883 44.9129 33.7792C44.129 36.2759 43.0296 38.6097 41.2858 40.5986C40.2606 41.769 39.0776 42.7393 37.6369 43.3501C34.1298 44.8347 29.9642 42.644 29.2451 38.9074C28.8101 36.6507 29.6111 34.8083 31.3543 33.3602C32.4237 32.4717 33.6967 32.0115 35.0226 31.6478C37.0601 31.0888 39.0246 30.3427 40.7796 29.1334C42.9354 27.6494 44.3897 25.6652 45.0624 23.1237C45.0788 23.059 45.1012 22.9925 45.1418 22.8672Z" fill="#FF5E12"/>
<path d="M22.8907 10.7606C23.365 10.5953 23.8288 10.3887 24.3149 10.2728C25.7398 9.93211 27.1881 9.96329 28.6371 10.0833C30.4724 10.237 32.2838 10.6025 34.0351 11.1725C36.0202 11.8151 37.9023 12.6766 39.5949 13.9141C41.035 14.9668 42.2468 16.226 43.0914 17.816C44.5692 20.5981 43.6705 24.0682 41.0809 25.8529C38.6091 27.5535 34.9803 27.2063 32.9398 24.0788C32.4111 23.2531 32.0157 22.3494 31.7681 21.4008C31.2343 19.4401 30.5728 17.5318 29.4987 15.7877C27.9903 13.3374 25.8945 11.6686 23.0902 10.9348C23.0313 10.9201 22.9807 10.8971 22.926 10.876L22.8907 10.7606Z" fill="#FF5E12"/>
<rect x="0.5" y="0.5" width="55" height="55" rx="27.5" stroke="#EAECF0"/>
</svg>
