<svg width="56" height="56" viewBox="0 0 56 56" fill="none" xmlns="http://www.w3.org/2000/svg">
<g clip-path="url(#clip0_860_695)">
<rect width="56" height="56" rx="28" fill="#E42126"/>
<circle cx="28" cy="28" r="28" fill="#FEE700"/>
<path d="M46.9906 28.0015C46.9906 32.7384 46.993 37.4721 46.998 42.2027C47.0056 42.6692 46.8852 43.1287 46.6501 43.5302C45.0947 46.2246 42.7408 47.6176 39.7013 47.9168C38.9944 47.986 38.2893 48 37.5806 48C30.9686 48 24.356 47.9984 17.7429 47.9953C15.7452 47.9953 13.8197 47.6541 12.108 46.5135C10.823 45.6681 9.79188 44.4831 9.12676 43.0871C9.03462 42.8728 8.99342 42.6397 9.00648 42.4065C9.00648 32.7988 9.00432 23.1911 9 13.5835C9 13.1338 9.18505 12.7701 9.39046 12.4092C10.9162 9.78591 13.2183 8.41347 16.1847 8.09561C16.9659 8.02242 17.7504 7.99122 18.5349 8.00212C25.1351 8.00212 31.7326 8.00368 38.3273 8.00679C40.4424 8.01147 42.4604 8.41534 44.2166 9.70644C45.2187 10.4383 46.0512 11.3816 46.6565 12.4709C46.8868 12.8743 47.0054 13.3329 46.9998 13.7985C46.9869 18.5353 46.9838 23.2697 46.9906 28.0015ZM33.3151 46.6061C36.758 45.3617 40.1029 44.1557 43.4449 42.9422C44.1491 42.687 44.2823 42.4747 44.2823 41.739C44.2823 37.5668 44.2823 33.3944 44.2823 29.2216C44.2823 28.3484 44.0195 28.0847 43.1516 28.0847H13.5162C12.6224 28.0847 12.3707 28.3409 12.3707 29.2552V41.724C12.3707 42.686 12.6243 42.9394 13.5736 42.9394H34.5772C34.1515 44.1772 33.7491 45.3449 33.316 46.6042L33.3151 46.6061ZM25.4318 16.4789L25.516 16.4985V16.8725C25.516 19.1302 25.5216 21.388 25.516 23.6449C25.516 24.0385 25.6409 24.2227 26.0508 24.2058C26.4823 24.1814 26.9147 24.1814 27.3462 24.2058C27.794 24.2348 27.9319 24.0572 27.93 23.6103C27.9152 20.4497 27.9152 17.2894 27.93 14.1295C27.93 13.662 27.7533 13.533 27.3268 13.5423C26.4336 13.5617 25.5392 13.5617 24.6435 13.5423C24.2299 13.533 24.0282 13.6994 23.9412 14.1033C23.6673 15.3598 23.3768 16.6154 23.0909 17.8728C22.9456 18.5104 22.793 19.1461 22.644 19.7819C22.5441 19.6654 22.477 19.524 22.4497 19.3724C22.0463 17.6157 21.641 15.8609 21.2468 14.1023C21.1691 13.7602 21.035 13.5349 20.6417 13.5414C19.6711 13.5517 18.6987 13.547 17.729 13.5414C17.4014 13.5414 17.2608 13.6826 17.2617 14.0229C17.2673 17.2601 17.2673 20.4983 17.2617 23.7374C17.2617 24.0871 17.4172 24.2049 17.741 24.1974C18.1879 24.1862 18.6367 24.1731 19.0817 24.1974C19.5268 24.2217 19.6767 24.0469 19.673 23.6019C19.6572 21.3936 19.6656 19.1826 19.6656 16.9772V16.4835C19.7636 16.6228 19.8294 16.7826 19.858 16.951C20.3623 19.1733 20.8721 21.3993 21.3606 23.629C21.4532 24.0553 21.6595 24.2367 22.0953 24.2002C22.4489 24.175 22.8039 24.175 23.1575 24.2002C23.536 24.2217 23.7201 24.0544 23.796 23.6879C23.9514 22.9418 24.1309 22.2023 24.2993 21.4647C24.6768 19.8012 25.0543 18.1393 25.4318 16.4789ZM32.5379 21.5844C32.5379 22.4865 32.5481 23.0942 32.5333 23.7019C32.5249 24.0637 32.6757 24.2058 33.0301 24.1983C33.6621 24.1843 34.295 24.1759 34.926 24.1983C35.3525 24.2142 35.4978 24.045 35.4904 23.6224C35.4719 22.5482 35.496 21.4722 35.4793 20.3989C35.468 19.9629 35.5852 19.5334 35.8161 19.1648C36.8441 17.4661 37.8517 15.7571 38.8695 14.05C39.1258 13.619 39.0869 13.5451 38.6067 13.5414C37.898 13.5414 37.1883 13.5508 36.4786 13.5358C36.0937 13.5274 35.8466 13.677 35.6681 14.0248C35.2054 14.9223 34.7187 15.8011 34.2524 16.6986C34.0673 17.0435 33.9378 17.0192 33.7676 16.692C33.3049 15.8113 32.8266 14.9438 32.3797 14.0584C32.1946 13.6966 31.9513 13.5246 31.5469 13.5349C30.8382 13.5536 30.1285 13.5349 29.4188 13.5414C28.9284 13.5414 28.8886 13.6134 29.1412 14.0378C29.9101 15.3317 30.6328 16.6556 31.4683 17.9055C32.2788 19.1274 32.834 20.3746 32.5388 21.5844H32.5379Z" fill="#FEE700"/>
<path d="M33.316 46.6042C33.7491 45.3449 34.1488 44.1735 34.5762 42.9431H13.5727C12.6233 42.9431 12.3698 42.686 12.3698 41.7278V29.2534C12.3698 28.339 12.6215 28.0829 13.5153 28.0829H43.1516C44.0195 28.0829 44.2823 28.3465 44.2823 29.2197C44.2823 33.3925 44.2823 37.5649 44.2823 41.7371C44.2823 42.4738 44.1491 42.6851 43.4449 42.9403C40.1038 44.1538 36.7589 45.3598 33.316 46.6042ZM31.9753 30.321C31.6515 30.321 31.3276 30.321 31.0047 30.321C30.5421 30.3276 30.5115 30.3734 30.7392 30.7969C31.4377 32.0927 32.1271 33.394 32.846 34.6795C33.0597 35.0628 33.0597 35.3844 32.846 35.7659C32.0355 37.2131 31.2518 38.6753 30.4468 40.1253C30.2663 40.4516 30.3348 40.5703 30.6994 40.5657C31.3304 40.5563 31.9633 40.5498 32.5943 40.5657C32.9829 40.5769 33.2207 40.4245 33.391 40.0702C33.7676 39.2877 34.1728 38.5192 34.5707 37.7479C34.6308 37.6319 34.6577 37.4496 34.8307 37.4674C34.9649 37.4796 34.9963 37.6348 35.0518 37.7432C35.4469 38.5164 35.8531 39.2839 36.2306 40.0655C36.4009 40.4161 36.6313 40.5806 37.0245 40.5675C37.6398 40.5479 38.256 40.5675 38.875 40.561C39.358 40.561 39.396 40.4927 39.16 40.058C38.3967 38.6557 37.6426 37.2477 36.8561 35.8594C36.6202 35.4443 36.6211 35.1068 36.8496 34.6917C37.5612 33.4025 38.2375 32.0964 38.9287 30.7931C39.1471 30.3799 39.1138 30.3257 38.6428 30.3201C38.0571 30.3201 37.4705 30.3416 36.8848 30.3117C36.4619 30.2911 36.2371 30.4762 36.0733 30.8483C35.7708 31.5448 35.4451 32.231 35.1194 32.9172C35.0583 33.0472 35.0491 33.265 34.8594 33.2575C34.6697 33.2501 34.6641 33.0369 34.5985 32.9051C34.3764 32.461 34.1701 32.0104 33.9508 31.5635C33.2346 30.0733 33.5797 30.3509 31.9753 30.321ZM25.6391 30.321C25.3616 30.3356 25.0836 30.3337 24.8063 30.3154C24.3113 30.2565 24.093 30.4893 23.9588 30.9493C23.5526 32.3339 23.1113 33.7063 22.6838 35.0843C22.1693 36.7438 21.666 38.406 21.134 40.0599C21.01 40.4469 21.1081 40.5816 21.493 40.5666C21.7853 40.5554 22.0787 40.5666 22.371 40.5666C23.8283 40.5526 23.6155 40.7405 23.9394 39.3615C24.0189 39.024 24.2031 38.8557 24.5556 38.866C24.9562 38.8782 25.3569 38.866 25.7584 38.866C27.2537 38.866 27.0011 38.7398 27.3407 40.0711C27.4332 40.4451 27.6321 40.5778 27.9939 40.5675C28.5176 40.5526 29.0413 40.5675 29.5668 40.5675C30.1747 40.5675 30.2025 40.5264 30.0147 39.9234C29.1579 37.1692 28.3103 34.4075 27.4415 31.6607C26.94 30.0751 27.2676 30.3463 25.6391 30.321ZM18.7597 36.7438V33.5249C18.7597 32.8705 18.781 32.8518 19.4472 32.8518C19.9561 32.8518 20.465 32.8453 20.973 32.8518C21.3042 32.8574 21.4504 32.7144 21.443 32.375C21.4319 31.8458 21.43 31.3167 21.443 30.7857C21.4513 30.4435 21.3079 30.3182 20.9739 30.3182C18.6299 30.3257 16.2859 30.3257 13.9419 30.3182C13.5717 30.3182 13.4487 30.4687 13.4607 30.8231C13.4774 31.3204 13.482 31.8206 13.4607 32.3189C13.4422 32.7359 13.6263 32.8705 14.0159 32.8565C14.5081 32.8368 15.0022 32.8509 15.4963 32.8565C16.1199 32.8565 16.1495 32.8864 16.1495 33.5184C16.1495 35.6827 16.1588 37.847 16.1421 40.0113C16.1421 40.4441 16.292 40.5965 16.7093 40.5778C17.2164 40.5554 17.7271 40.5573 18.2342 40.5778C18.6404 40.5937 18.7727 40.4226 18.7653 40.0225C18.7477 38.924 18.7597 37.8339 18.7597 36.7438ZM42.9943 35.4789C42.9943 33.9382 42.9841 32.3984 43.0008 30.8586C43.0008 30.4519 42.8639 30.2976 42.4614 30.3154C41.9238 30.3388 41.3834 30.3322 40.8449 30.3154C40.5118 30.3061 40.373 30.4369 40.373 30.7829C40.3786 33.8942 40.3786 37.0056 40.373 40.1169C40.373 40.4348 40.5044 40.5703 40.8135 40.5675C41.3529 40.561 41.8923 40.5498 42.4308 40.5675C42.8426 40.5844 43.0064 40.4404 43.0008 40.0066C42.9823 38.4967 42.9943 36.9841 42.9943 35.4789Z" fill="#21201A"/>
<path d="M25.4318 16.4789C25.0543 18.1393 24.6768 19.8012 24.2993 21.4647C24.1309 22.2023 23.9514 22.9418 23.7978 23.687C23.7219 24.0534 23.5378 24.2208 23.1594 24.1993C22.8057 24.174 22.4508 24.174 22.0972 24.1993C21.6614 24.2357 21.4569 24.0544 21.3625 23.6281C20.8721 21.3993 20.3623 19.1733 19.858 16.9463C19.8294 16.7779 19.7636 16.6181 19.6656 16.4789V16.9772C19.6656 19.1873 19.6572 21.3983 19.672 23.6094C19.672 24.0544 19.5258 24.2329 19.0808 24.2049C18.6357 24.1768 18.187 24.1909 17.7401 24.2049C17.4162 24.2133 17.2608 24.0946 17.2608 23.7449C17.2676 20.5039 17.2676 17.2657 17.2608 14.0304C17.2608 13.6901 17.4005 13.548 17.728 13.5489C18.6987 13.5489 19.6711 13.5573 20.6408 13.5489C21.034 13.5489 21.1682 13.7705 21.2459 14.1098C21.6401 15.8684 22.0453 17.6232 22.4488 19.3799C22.4776 19.5289 22.545 19.6676 22.644 19.7819C22.793 19.1452 22.9456 18.5095 23.0909 17.8719C23.3768 16.6144 23.6673 15.3589 23.9375 14.0977C24.0245 13.6929 24.2262 13.5264 24.6398 13.5367C25.5336 13.5561 26.428 13.5561 27.3231 13.5367C27.7496 13.5274 27.9282 13.6601 27.9263 14.1239C27.9115 17.2838 27.9115 20.4441 27.9263 23.6047C27.9263 24.0516 27.7903 24.2292 27.3425 24.2002C26.911 24.1758 26.4786 24.1758 26.0471 24.2002C25.6372 24.2208 25.5105 24.0366 25.5123 23.6393C25.5225 21.3824 25.5123 19.1246 25.5123 16.8669V16.4929L25.4318 16.4789Z" fill="#21201A"/>
<path d="M32.5388 21.5844C32.834 20.3746 32.2788 19.1274 31.4636 17.9121C30.6309 16.664 29.9055 15.3383 29.1366 14.0444C28.884 13.6199 28.9238 13.5498 29.4142 13.548C30.1239 13.548 30.8335 13.5601 31.5423 13.5414C31.9503 13.5311 32.1955 13.7031 32.375 14.065C32.8256 14.9503 33.3077 15.8179 33.7629 16.6986C33.9332 17.0258 34.0673 17.0501 34.2478 16.7051C34.7104 15.8104 35.2036 14.9288 35.6634 14.0313C35.842 13.6835 36.0891 13.5339 36.474 13.5423C37.1827 13.5573 37.8924 13.5423 38.6021 13.548C39.0823 13.548 39.1212 13.6255 38.8649 14.0565C37.8471 15.7637 36.8385 17.4727 35.8115 19.1714C35.5806 19.5399 35.4634 19.9695 35.4747 20.4055C35.4913 21.4797 35.4673 22.5557 35.4858 23.629C35.4932 24.0516 35.3479 24.2208 34.9214 24.2049C34.2903 24.1796 33.6575 24.1881 33.0255 24.2049C32.6711 24.2124 32.5203 24.0703 32.5286 23.7085C32.549 23.0942 32.5388 22.4865 32.5388 21.5844Z" fill="#21201A"/>
<path d="M31.9753 30.321C33.5797 30.3509 33.2346 30.0733 33.9526 31.5654C34.1682 32.0123 34.3745 32.4629 34.6003 32.907C34.666 33.0388 34.6826 33.251 34.8612 33.2594C35.0398 33.2678 35.0602 33.0491 35.1212 32.9191C35.4469 32.2329 35.7689 31.5467 36.0752 30.8502C36.2371 30.4762 36.4638 30.2892 36.8866 30.3135C37.4705 30.3435 38.0571 30.3135 38.6446 30.322C39.1073 30.322 39.1489 30.3818 38.9306 30.795C38.244 32.0983 37.563 33.4043 36.8515 34.6936C36.6229 35.1086 36.622 35.4461 36.858 35.8612C37.6444 37.2496 38.3985 38.6575 39.1619 40.0599C39.3978 40.4946 39.3599 40.5601 38.8769 40.5629C38.2607 40.5675 37.6444 40.5498 37.0264 40.5694C36.6331 40.5825 36.4027 40.418 36.2325 40.0674C35.855 39.2858 35.4488 38.5182 35.0537 37.7451C34.9982 37.6366 34.9667 37.4814 34.8325 37.4693C34.6595 37.4534 34.6327 37.6357 34.5725 37.7497C34.1747 38.521 33.7694 39.2895 33.3928 40.072C33.2226 40.4264 32.9848 40.5788 32.5962 40.5675C31.9651 40.5488 31.3323 40.5554 30.7012 40.5675C30.3367 40.5722 30.2682 40.4535 30.4486 40.1272C31.2536 38.6772 32.0373 37.215 32.8478 35.7678C33.0625 35.3863 33.0625 35.0647 32.8478 34.6814C32.1308 33.3959 31.4396 32.0945 30.741 30.7988C30.5134 30.3752 30.5412 30.3313 31.0066 30.3229C31.3276 30.3182 31.6515 30.321 31.9753 30.321Z" fill="#FEE700"/>
<path d="M25.6391 30.321C27.2676 30.3463 26.94 30.0751 27.4397 31.6551C28.3085 34.4065 29.156 37.1636 30.0128 39.9178C30.1979 40.5208 30.1729 40.5601 29.565 40.5619C29.0413 40.5619 28.5176 40.5507 27.992 40.5619C27.6303 40.5722 27.4369 40.4404 27.3388 40.0655C26.9992 38.7342 27.2518 38.8632 25.7566 38.8604C25.356 38.8604 24.9553 38.8698 24.5537 38.8604C24.2012 38.8501 24.0171 39.0184 23.9375 39.3559C23.6137 40.7349 23.8265 40.547 22.3692 40.561C22.0768 40.561 21.7835 40.5526 21.4911 40.561C21.1062 40.576 21.0081 40.4413 21.1321 40.0543C21.6623 38.4004 22.1675 36.7382 22.6819 35.0787C23.1094 33.7007 23.5508 32.3282 23.9569 30.9437C24.0911 30.4837 24.3095 30.2509 24.8045 30.3098C25.0822 30.33 25.3609 30.3338 25.6391 30.321ZM25.5364 33.0911C25.3254 33.9176 25.1311 34.6468 24.9544 35.3798C24.6037 36.8363 24.4168 36.6596 26.012 36.6718C26.3608 36.6718 26.4866 36.539 26.3821 36.18C26.2266 35.6294 26.1045 35.0666 25.9546 34.514C25.8343 34.0728 25.7779 33.61 25.5364 33.0911Z" fill="#FEE700"/>
<path d="M18.7597 36.7438C18.7597 37.8339 18.7477 38.924 18.7662 40.0159C18.7736 40.4161 18.6413 40.5872 18.2351 40.5713C17.7271 40.5507 17.2173 40.5488 16.7103 40.5713C16.293 40.59 16.1394 40.4376 16.1431 40.0047C16.1597 37.8404 16.1514 35.6761 16.1505 33.5118C16.1505 32.8798 16.1209 32.8509 15.4972 32.8499C15.0041 32.8499 14.51 32.835 14.0168 32.8499C13.6291 32.864 13.445 32.7293 13.4616 32.3124C13.4838 31.8159 13.4792 31.3158 13.4616 30.8165C13.4496 30.4622 13.5754 30.3107 13.9428 30.3117C16.2868 30.321 18.6308 30.321 20.9748 30.3117C21.3088 30.3117 21.4522 30.4379 21.4439 30.7791C21.43 31.3083 21.4319 31.8374 21.4439 32.3685C21.4513 32.7078 21.3051 32.8509 20.9739 32.8453C20.4659 32.8368 19.9561 32.8453 19.4481 32.8453C18.7819 32.8453 18.7616 32.8649 18.7606 33.5184L18.7597 36.7438Z" fill="#FEE700"/>
<path d="M42.9943 35.4789C42.9943 36.9878 42.9823 38.4967 43.0017 40.0057C43.0073 40.4423 42.8435 40.5862 42.4318 40.5666C41.8933 40.5451 41.3538 40.5563 40.8144 40.5666C40.5054 40.5666 40.373 40.4338 40.374 40.116C40.3789 37.0046 40.3789 33.8933 40.374 30.7819C40.374 30.4398 40.5128 30.3089 40.8459 30.3145C41.3844 30.3294 41.9247 30.336 42.4623 30.3145C42.8648 30.2976 43.0054 30.451 43.0017 30.8577C42.9841 32.403 42.9943 33.9382 42.9943 35.4789Z" fill="#FEE700"/>
<path d="M25.5364 33.0911C25.7779 33.61 25.8343 34.0728 25.9574 34.514C26.1119 35.0666 26.2294 35.6294 26.3848 36.18C26.4866 36.539 26.3608 36.6746 26.0147 36.6718C24.4196 36.6596 24.6065 36.8363 24.9572 35.3798C25.1311 34.6468 25.3254 33.9176 25.5364 33.0911Z" fill="#21201A"/>
</g>
<defs>
<clipPath id="clip0_860_695">
<rect width="56" height="56" rx="28" fill="white"/>
</clipPath>
</defs>
</svg>
