<svg width="56" height="56" viewBox="0 0 56 56" fill="none" xmlns="http://www.w3.org/2000/svg">
<rect width="56" height="56" rx="28" fill="#1B75BB"/>
<path fill-rule="evenodd" clip-rule="evenodd" d="M16.382 25.8963C16.6543 23.9022 17.9012 22.6056 19.8813 22.2015C20.4708 22.0791 21.0847 22.0403 21.6893 22.0304C23.0509 22.0074 24.4125 22.033 25.7774 22.0199C27.1113 22.008 27.8452 21.319 27.8564 20.0961C27.8597 19.8092 27.8564 19.5255 27.8564 19.2274H33.0701C33.0984 20.0797 32.7786 21.082 33.707 21.5519C34.4732 21.937 35.4247 22.0061 36.3511 22.2292V26.7454H22.5313C21.4302 26.7454 21.4315 26.7467 21.3992 27.7938C21.3946 27.9215 21.3537 28.0465 21.3293 28.1906H16.3695C16.3695 27.3772 16.2811 26.6262 16.382 25.8963ZM16.6135 27.4621C16.6405 27.597 16.8067 27.7023 16.9141 27.8234C17.0196 27.7049 17.1957 27.597 17.2181 27.47C17.2623 27.158 17.2287 26.8395 17.2346 26.5216C17.2761 24.4945 18.4689 23.1716 20.6475 22.9821C22.3104 22.8327 23.9951 22.9038 25.6693 22.8524C26.1236 22.8406 26.597 22.8057 27.0263 22.6734C28.2389 22.2963 28.9424 21.2525 28.8059 20.0968C28.7861 19.9474 28.5982 19.8151 28.4901 19.6743C28.3767 19.8111 28.1854 19.9395 28.167 20.0902C27.9613 21.7566 27.3639 22.2575 25.5546 22.2713C23.9516 22.2818 22.3362 22.2042 20.7523 22.372C17.9454 22.6734 16.6042 24.1806 16.5963 26.7875C16.5963 27.0139 16.5581 27.2469 16.6135 27.4621ZM34.0156 22.0653C33.2672 21.8145 32.7622 21.3005 32.8208 20.4732C32.8208 20.3653 32.834 20.2324 32.78 20.1429C32.6896 19.9783 32.5505 19.8316 32.4325 19.6822C32.3349 19.8316 32.1667 19.9757 32.1522 20.133C32.0401 21.5164 33.0154 22.6273 34.5042 22.8228C34.8405 22.8682 35.1886 22.8926 35.5177 22.8406C35.6944 22.8123 35.8355 22.6004 36.0834 22.3944C35.1939 22.2608 34.5728 22.2496 34.0156 22.0653ZM14.7758 12.0003C17.8373 12.0029 20.8981 11.9911 23.9622 12.0194C24.3281 12.0247 24.7666 12.1819 25.0515 12.4005C26.0346 13.1573 26.9715 13.9721 27.9224 14.7573C28.3721 14.3854 30.4715 14.2834 32.7997 14.492C33.0938 15.73 33.3905 16.9982 33.6985 18.2954H27.2465C27.3566 17.8051 27.4186 17.3582 27.5676 16.9324C27.7239 16.4809 27.6052 16.19 27.2182 15.8873C26.3221 15.1936 25.4932 14.4242 24.584 13.7444C24.2609 13.5035 23.7835 13.3159 23.3747 13.308C20.5301 13.2705 17.6843 13.2633 14.845 13.3054C14.1362 13.3159 13.9278 13.0889 14.0208 12.4959C14.0386 12.3656 14.0426 12.232 14.0557 12.0003H14.7758ZM14.0485 12.1681C14.845 12.5525 23.9292 12.4926 24.3644 12.1681H14.0485ZM32.5703 15.239C32.5175 15.0436 32.2564 14.8955 32.0942 14.7244C32.0065 14.7717 31.9241 14.8204 31.8364 14.8659C32.0685 15.8425 32.2795 16.8271 32.5505 17.7939C32.5815 17.9071 32.9197 17.9479 33.2725 18.0835C33.0114 16.9864 32.8208 16.1091 32.5703 15.239ZM28.4189 17.6919C28.676 16.7679 28.8811 15.8261 29.1059 14.8902L28.9002 14.7362C28.7235 14.8876 28.4386 15.0126 28.3899 15.1943C28.1327 16.0795 27.9375 16.9805 27.7206 17.8775C27.7892 17.9368 27.8518 17.996 27.9217 18.0552C28.0898 17.9361 28.3753 17.8426 28.4189 17.6919ZM38.0727 28.4802H38.9194V20.2817H38.1018C38.0655 20.9399 38.1453 21.6388 37.2868 21.9343C37.207 21.96 37.1964 22.2173 37.1964 22.3654C37.1872 23.7172 37.1872 25.0691 37.1964 26.4209C37.1964 26.569 37.2096 26.8151 37.294 26.848C38.0767 27.158 38.0932 27.7885 38.0727 28.4802ZM23.0958 28.8231V30.0979H14.5786V28.8231H23.0958ZM15.1635 29.99C15.2578 29.8182 15.4299 29.6464 15.4239 29.4806C15.416 29.3233 15.2189 29.1752 15.1068 29.0238C14.9776 29.1719 14.8496 29.3193 14.6439 29.5629C14.8727 29.7491 15.0178 29.8709 15.1635 29.99ZM39.7054 26.6776V22.1127H42V26.6776H39.7054ZM40.4973 22.8643C40.7623 22.8485 41.0412 22.8978 41.2964 22.8445C41.4533 22.8136 41.5852 22.653 41.7257 22.5484C41.5958 22.4595 41.4685 22.2989 41.3274 22.2871C40.9199 22.2509 40.5078 22.2752 40.1168 22.2752C39.9368 22.6991 40.0357 22.8913 40.4973 22.8643ZM20.937 31.8855C20.8677 32.0467 20.633 32.2448 20.4708 32.2527C19.4077 32.2834 18.344 32.2865 17.2807 32.2619C17.1119 32.2593 16.8515 32.1257 16.8001 31.9947C16.6557 31.6571 16.6082 31.2826 16.5146 30.8844H21.1697C21.0814 31.2819 21.0583 31.6024 20.9383 31.8855M16.9853 31.1286C17.0394 32.0711 17.0664 32.0954 17.9071 31.9796C17.7601 31.4985 17.857 30.8581 16.9853 31.1286ZM21.1704 32.9161C21.1361 33.1261 21.1018 33.2781 21.0847 33.4347C21.0293 34.0738 20.7286 34.3719 19.9716 34.2949C19.2582 34.2205 18.5276 34.2331 17.8102 34.287C17.133 34.3357 16.6669 34.2344 16.6392 33.4986C16.6319 33.3202 16.5779 33.1471 16.5324 32.9161H21.1677M17.0269 33.1214C16.9642 33.9981 17.0869 34.1304 17.886 33.9711C17.7588 33.5381 17.9177 32.8997 17.0269 33.1214ZM17.5188 34.932L18.0041 36.1048C17.615 36.0429 17.2412 36.0778 17.1746 35.9587C17.0137 35.6658 16.9893 35.3052 16.8996 34.9109H16.6036C16.5805 34.9662 16.5455 35.009 16.5541 35.0439C16.8456 36.2588 16.8482 36.2588 18.1966 36.2647C18.7762 36.2687 19.3644 36.2239 19.9367 36.2786C20.6442 36.3444 21.0418 36.1318 21.0814 35.444C21.0906 35.2913 21.1341 35.1367 21.1743 34.9307C19.9202 34.932 18.7017 34.932 17.5188 34.932Z" fill="white"/>
<path fill-rule="evenodd" clip-rule="evenodd" d="M29.2873 13.8497H31.6023C31.5212 13.2527 31.1493 12.9697 30.5645 12.9243C29.8847 12.873 29.4963 13.1975 29.2873 13.8497ZM16.5943 26.7894C16.5943 27.0158 16.5554 27.2488 16.6108 27.464C16.6379 27.599 16.804 27.7043 16.9115 27.8254C17.017 27.7069 17.193 27.599 17.2155 27.4719C17.2596 27.16 17.226 26.8414 17.2319 26.5236C17.2735 24.4965 18.4663 23.1736 20.6449 22.9841C22.3078 22.8347 23.9925 22.9057 25.6666 22.8544C26.121 22.8426 26.5944 22.8077 27.0236 22.6754C28.2362 22.2983 28.9398 21.2545 28.8033 20.0988C28.7835 19.9494 28.5956 19.8171 28.4874 19.6762C28.374 19.8131 28.1828 19.9415 28.1643 20.0922C27.9586 21.7586 27.3612 22.2594 25.5519 22.2733C23.949 22.2838 22.3335 22.2061 20.7497 22.374C17.9428 22.6747 16.6022 24.1819 16.5943 26.7894ZM36.0834 22.3944C35.1939 22.2608 34.5728 22.2496 34.0156 22.0653C33.2672 21.8145 32.7622 21.3005 32.8208 20.4732C32.8208 20.3653 32.834 20.2324 32.78 20.1429C32.6896 19.9783 32.5505 19.8316 32.4325 19.6822C32.3349 19.8316 32.1667 19.9757 32.1522 20.133C32.0401 21.5164 33.0154 22.6273 34.5042 22.8228C34.8405 22.8682 35.1886 22.8926 35.5177 22.8406C35.6944 22.8123 35.8355 22.6004 36.0834 22.3944ZM24.3644 12.1681H14.0485C14.845 12.5525 23.9292 12.4926 24.3644 12.1681ZM33.2725 18.0835C33.0114 16.9864 32.8208 16.1091 32.5703 15.239C32.5175 15.0436 32.2564 14.8955 32.0942 14.7244C32.0065 14.7717 31.9241 14.8204 31.8364 14.8659C32.0685 15.8425 32.2795 16.8271 32.5505 17.7939C32.5815 17.9071 32.9197 17.9479 33.2725 18.0835ZM27.9217 18.0552C28.0898 17.9361 28.3753 17.8426 28.4189 17.6919C28.676 16.7679 28.8811 15.8261 29.1059 14.8902L28.9002 14.7362C28.7235 14.8876 28.4386 15.0126 28.3899 15.1943C28.1327 16.0795 27.9375 16.9805 27.7206 17.8775C27.7892 17.9368 27.8518 17.996 27.9217 18.0552ZM14.6492 29.5596C14.878 29.7458 15.023 29.8682 15.1688 29.9867C15.2631 29.8149 15.4352 29.6432 15.4292 29.4773C15.4213 29.32 15.2242 29.1719 15.1121 29.0206C14.9828 29.1686 14.8549 29.3161 14.6492 29.5596ZM40.1155 22.2739C39.9361 22.6978 40.0344 22.8893 40.4959 22.8623C40.761 22.8465 41.0399 22.8959 41.2951 22.8426C41.452 22.8116 41.5839 22.651 41.7244 22.5464C41.5945 22.4575 41.4672 22.297 41.3261 22.2851C40.9186 22.2496 40.5065 22.2739 40.1155 22.2739ZM17.9065 31.9822C17.7588 31.5011 17.8557 30.8607 16.9847 31.1312C17.0381 32.0737 17.0651 32.098 17.9065 31.9822ZM17.8867 33.9698C17.7594 33.5374 17.919 32.8983 17.0275 33.1201C16.9656 33.9968 17.0882 34.1291 17.8867 33.9698Z" fill="white"/>
<path d="M17.2405 42.0781C17.2755 43.1529 18.0232 44.0012 18.9087 43.9716C19.7956 43.942 20.486 43.0463 20.451 41.9715C20.4121 40.8981 19.607 38.2714 18.7215 38.2984C17.8359 38.328 17.2043 41.0034 17.2405 42.0781Z" fill="white"/>
<path d="M18.6569 38.3004C17.7951 38.4531 17.1937 41.0363 17.228 42.0919C17.2623 43.1759 18.0146 44.0289 18.9094 43.9993C19.3156 43.9861 19.6749 43.7873 19.9512 43.4754C18.6377 42.1709 18.1716 40.1715 18.6569 38.3004Z" fill="white"/>
</svg>
