<svg width="56" height="56" viewBox="0 0 56 56" fill="none" xmlns="http://www.w3.org/2000/svg">
<g clip-path="url(#clip0_200_561)">
<rect width="56" height="56" rx="28" fill="white"/>
<circle cx="28" cy="28" r="28" fill="white"/>
<g clip-path="url(#clip1_200_561)">
<path d="M27.8858 4C31.6306 4 35.1883 4.79329 38.425 6.37656C38.9264 6.60627 39.4205 6.89827 39.9203 7.17344L37.7043 9.18135L34.4178 5.74267L28.7548 10.7855L25.42 7.16305L15.0065 16.5622L21.6735 23.9437L19.0708 26.2356L25.6485 33.6171L23.0456 35.908L32.4546 46.4073L38.0234 41.2721L43.0195 46.7312C42.0596 47.4648 40.8608 48.3307 39.7203 48.9715C36.2486 50.9427 32.2246 52 27.9319 52C14.7315 52 4.00015 41.2281 4.00015 27.9794C3.95354 14.8202 14.6868 4 27.8858 4ZM23.5006 26.5112L29.2098 21.376L34.3262 27.1068L28.6158 32.2415L23.5006 26.5112ZM27.5665 36.4145L33.2293 31.2339L38.3907 36.9642L32.6813 42.0996L27.5665 36.4145ZM19.4381 16.7462L25.1457 11.611L30.2609 17.3418L24.5515 22.4767L19.4381 16.7462ZM29.895 13.9945L34.1429 10.1435L37.9803 14.4075L33.7324 18.3039L29.895 13.9945ZM37.4774 31.6457L41.7239 27.7945L45.5611 32.1029L41.313 35.9565L37.4774 31.6457ZM40.4461 39.8085L44.6942 35.9565L47.9643 39.593L48.5283 40.2203L45.6838 42.83L44.2819 44.1162L40.4461 39.8085ZM42.9579 20.5048L45.7891 17.9371L48.3459 20.7807L45.5151 23.3475L42.9579 20.5048ZM39.304 12.023L42.1355 9.41033L44.6942 12.2982L41.8606 14.8657L39.304 12.023ZM46.5655 28.9873L49.3968 26.4198L52 29.2624L49.1237 31.8292L46.5655 28.9873ZM33.8233 22.6143L38.0714 18.7631L41.907 23.0261L37.6607 26.878L33.8233 22.6143Z" fill="#036CB5"/>
</g>
</g>
<defs>
<clipPath id="clip0_200_561">
<rect width="56" height="56" rx="28" fill="white"/>
</clipPath>
<clipPath id="clip1_200_561">
<rect width="48" height="48" fill="white" transform="translate(4 4)"/>
</clipPath>
</defs>
</svg>
