<svg width="56" height="56" viewBox="0 0 56 56" fill="none" xmlns="http://www.w3.org/2000/svg">
<g clip-path="url(#clip0_200_560)">
<rect width="56" height="56" rx="28" fill="white"/>
<circle cx="28" cy="28" r="28" fill="white"/>
<g clip-path="url(#clip1_200_560)">
<path d="M27.7929 8C29.4605 8.94879 30.8187 10.3084 32.3246 11.4706C33.1142 12.0803 33.8909 12.7139 34.6698 13.341C35.7553 14.2152 36.8353 15.0965 37.9213 15.9702C39.1234 16.9373 40.3306 17.8973 41.5328 18.8639C42.5286 19.665 43.518 20.4736 44.5139 21.2746C45.6008 22.1493 46.6854 23.0273 47.7826 23.8888C48.3023 24.2973 48.7362 24.7593 48.9029 25.4206C49.1974 26.5893 48.8133 27.5874 47.8713 28.3284C46.5874 29.341 45.3054 30.3564 44.0466 31.4013C43.2472 32.0645 42.4265 32.7023 41.6168 33.3528C40.6984 34.0916 39.7807 34.8314 38.8638 35.5721C37.5012 36.674 36.1406 37.7772 34.7818 38.8819C33.8902 39.6038 32.9978 40.3242 32.1044 41.043C31.3802 41.6269 30.6593 42.2155 29.9273 42.7896C29.7415 42.9359 29.6797 43.0982 29.6811 43.3294C29.6895 44.6187 29.6839 45.9089 29.6848 47.1972C29.6848 47.821 29.5543 48.4002 29.1883 48.9204C28.25 50.2537 26.2155 50.3743 25.1625 49.1384C24.7444 48.6474 24.5052 48.0738 24.5071 47.4088C24.5126 45.5178 24.514 43.6261 24.5113 41.7338C24.5113 40.9647 24.8364 40.3447 25.384 39.8438C26.3293 38.9808 27.3596 38.221 28.3508 37.4139C29.5656 36.4252 30.7804 35.4367 31.9952 34.4484C33.1565 33.5076 34.3275 32.5752 35.492 31.6344C37.193 30.2627 38.893 28.8892 40.5922 27.5137C41.0929 27.1099 41.5913 26.7028 42.0953 26.3037C42.243 26.1865 42.2481 26.1161 42.0906 25.9918C40.6126 24.8112 39.1387 23.6254 37.6691 22.4345C35.7749 20.9039 33.8812 19.3719 31.9883 17.8382C30.6124 16.7291 29.2282 15.6297 27.8515 14.5215C27.0112 13.8541 26.156 13.1984 25.3506 12.4846C24.3752 11.6216 24.1926 10.2803 24.8578 9.16547C25.1606 8.65754 25.6103 8.30344 26.1672 8.09802C26.2462 8.06847 26.3223 8.03283 26.3994 8H27.7929Z" fill="#FCC100"/>
<path d="M14.8414 24.0056C15.213 24.0126 15.7499 24.2181 16.2251 24.6008C17.7542 25.8321 19.2833 27.0629 20.8125 28.2932C21.9119 29.1796 23.0109 30.066 24.1016 30.9637C24.247 31.0833 24.3338 31.0575 24.4578 30.9595C25.0713 30.4592 25.6861 29.961 26.3024 29.4648C27.5828 28.433 28.8639 27.4012 30.1456 26.3694C30.8888 25.7705 31.6278 25.1673 32.372 24.5703C32.8594 24.176 33.4724 23.9743 34.0963 24.0029C34.7203 24.0315 35.3126 24.2883 35.7628 24.7255C36.6881 25.6082 36.8232 27.0593 36.0731 28.1206C35.7944 28.5141 35.4023 28.7871 35.0349 29.0844C33.9012 30.0018 32.7654 30.9171 31.6274 31.8304C30.4856 32.7506 29.344 33.6714 28.2026 34.5928C27.4534 35.1969 26.6953 35.7902 25.9572 36.4074C25.0255 37.1864 23.6766 37.2479 22.7211 36.4956C21.4228 35.4732 20.1431 34.4268 18.856 33.3903C17.8292 32.5633 16.8025 31.736 15.7759 30.9084C14.7977 30.1186 13.8079 29.3433 12.8496 28.5319C11.6558 27.5241 11.7413 25.4872 12.9931 24.5557C13.5087 24.1707 13.9909 24.0061 14.8414 24.0056Z" fill="#050505"/>
<path d="M24.2785 17.8603C26.8026 17.8452 28.8947 19.9384 28.9026 22.4874C28.911 25.051 26.8221 27.1821 24.279 27.1704C23.1072 27.1705 21.9792 26.7206 21.1238 25.9121C20.2683 25.1035 19.7493 23.9968 19.6721 22.8162C19.4979 19.9998 21.7535 17.8321 24.2785 17.8603Z" fill="#050505"/>
</g>
</g>
<rect x="0.5" y="0.5" width="55" height="55" rx="27.5" stroke="#EAECF0"/>
<defs>
<clipPath id="clip0_200_560">
<rect width="56" height="56" rx="28" fill="white"/>
</clipPath>
<clipPath id="clip1_200_560">
<rect width="37" height="42" fill="white" transform="translate(12 8)"/>
</clipPath>
</defs>
</svg>
