<svg width="76" height="76" viewBox="0 0 76 76" fill="none" xmlns="http://www.w3.org/2000/svg">
<rect width="76" height="76" rx="38" fill="#6E7279"/>
<path fill-rule="evenodd" clip-rule="evenodd" d="M38 51.5C45.4558 51.5 51.5 45.4558 51.5 38C51.5 30.5442 45.4558 24.5 38 24.5C30.5442 24.5 24.5 30.5442 24.5 38C24.5 45.4558 30.5442 51.5 38 51.5ZM36.3125 29.0042C36.0018 29.0042 35.75 29.256 35.75 29.5667V40.5689C35.75 40.8796 36.0018 41.1314 36.3125 41.1314H45.3119C45.6226 41.1314 45.8744 40.8796 45.8744 40.5689V38.5439C45.8744 38.2333 45.6226 37.9814 45.3119 37.9814H38.9V29.5667C38.9 29.256 38.6482 29.0042 38.3375 29.0042H36.3125Z" fill="white"/>
</svg>
