<svg width="76" height="76" viewBox="0 0 76 76" fill="none" xmlns="http://www.w3.org/2000/svg">
<rect width="76" height="76" rx="38" fill="#EF9B38"/>
<path d="M49.7571 27.5533C46.8778 24.3049 42.6881 22.25 38 22.25C29.4012 22.25 22.4133 29.1385 22.2528 37.6989C22.2497 37.8646 22.3843 38 22.55 38H25.8875C26.0532 38 26.1871 37.8648 26.1912 37.6991C26.3507 31.3107 31.573 26.1875 38 26.1875C41.5991 26.1875 44.7922 27.8179 46.9517 30.3588L43.7601 33.5504C43.5711 33.7394 43.7049 34.0625 43.9722 34.0625H53.45C53.6157 34.0625 53.75 33.9282 53.75 33.7625V24.2847C53.75 24.0174 53.4269 23.8836 53.2379 24.0726L49.7571 27.5533ZM38 49.8125C34.4009 49.8125 31.2078 48.1821 29.0483 45.6412L32.2399 42.4496C32.4289 42.2606 32.2951 41.9375 32.0278 41.9375H22.55C22.3843 41.9375 22.25 42.0718 22.25 42.2375V51.7153C22.25 51.9826 22.5731 52.1164 22.7621 51.9274L26.2429 48.4467C29.1222 51.6951 33.3181 53.75 38 53.75C46.5988 53.75 53.5867 46.8615 53.7472 38.3011C53.7503 38.1354 53.6157 38 53.45 38H50.1125C49.9468 38 49.8129 38.1352 49.8088 38.3009C49.6493 44.6893 44.427 49.8125 38 49.8125Z" fill="white"/>
</svg>
