<svg width="76" height="76" viewBox="0 0 76 76" fill="none" xmlns="http://www.w3.org/2000/svg">
<rect width="76" height="76" rx="38" fill="#FF3333"/>
<path d="M42.2647 38.0002L48.6612 31.6037C49.4461 30.8187 49.4461 29.5461 48.6612 28.7605L47.2396 27.3389C46.4547 26.5539 45.182 26.5539 44.3964 27.3389L37.9999 33.7354L31.6034 27.3389C30.8184 26.5539 29.5458 26.5539 28.7602 27.3389L27.3386 28.7605C26.5537 29.5454 26.5537 30.8181 27.3386 31.6037L33.7351 38.0002L27.3386 44.3967C26.5537 45.1816 26.5537 46.4543 27.3386 47.2399L28.7602 48.6615C29.5451 49.4464 30.8184 49.4464 31.6034 48.6615L37.9999 42.265L44.3964 48.6615C45.1814 49.4464 46.4547 49.4464 47.2396 48.6615L48.6612 47.2399C49.4461 46.4549 49.4461 45.1823 48.6612 44.3967L42.2647 38.0002Z" fill="white"/>
</svg>
