<svg width="106" height="40" viewBox="0 0 106 40" fill="none" xmlns="http://www.w3.org/2000/svg">
<g clip-path="url(#clip0_992_16737)">
<path d="M48.2996 3.79328C48.2876 2.66159 47.9462 1.52104 46.9788 0.887007C46.0114 0.252976 44.7849 0.281316 44.0439 1.22174C43.9838 1.29789 43.8552 1.42894 43.8929 1.54052C43.9307 1.65209 44.1639 1.62553 44.2617 1.67512C44.3383 1.71791 44.401 1.78308 44.4419 1.86247C44.4827 1.94185 44.5 2.03193 44.4916 2.12142C44.4916 2.33748 44.483 4.40074 44.4761 7.24502L37.2031 7.20075C37.0965 5.80931 37.1768 4.40934 37.4416 3.04059C37.4999 2.73951 37.5668 2.4402 37.6423 2.14267C37.7246 1.8168 37.9527 1.41655 37.9287 1.08005C37.9279 1.03338 37.9129 0.988172 37.8858 0.950767C37.8207 0.867528 37.6971 0.881693 37.5959 0.908259C36.9675 1.07973 36.3878 1.40332 35.9046 1.85222C35.5497 2.18975 35.2502 2.58451 35.0178 3.0211C34.0847 4.74609 34.0126 7.19012 34.0126 7.19012C33.9646 8.76988 33.9046 11.9719 35.5341 15.2962C35.5341 15.2962 36.6782 17.6268 38.3112 18.2024C38.6337 18.3158 38.7212 18.2396 38.7504 18.2024C38.8773 18.0342 38.6046 17.7455 38.5239 17.6162C38.3759 17.3777 38.2468 17.1271 38.138 16.8671C37.9173 16.3277 37.7534 15.7654 37.6491 15.1899C37.2845 13.4535 37.1118 11.68 37.1345 9.90335H44.4778V16.5926C44.4652 16.8096 44.5121 17.0259 44.6132 17.2167C44.7142 17.4074 44.8653 17.5649 45.0491 17.6711C45.294 17.7851 45.5564 17.854 45.8244 17.8748C46.2881 17.9501 46.7604 17.9501 47.2241 17.8748C47.4978 17.8306 47.754 17.7079 47.9634 17.5206C48.2876 17.2106 48.2927 16.7909 48.2927 16.3676C48.2927 13.0027 48.3219 9.64832 48.3185 6.2869C48.3162 5.45805 48.3099 4.62684 48.2996 3.79328Z" fill="white"/>
<path d="M38.2398 19.0344C35.2774 18.1489 34.123 14.8991 33.4883 12.0884C33.3511 11.4756 33.219 10.8735 33.1452 10.2465C32.9085 8.35685 32.9188 6.27943 33.5123 4.45703C33.0612 4.56152 32.8554 4.96355 32.5912 5.28942C31.6272 6.47956 31.55 7.86982 31.5037 9.25122C31.4239 11.3485 31.8694 13.4316 32.797 15.2993C33.1794 16.0403 33.6458 16.7318 34.1865 17.359C34.7276 17.9768 35.342 18.5219 36.015 18.9813C34.9274 18.7054 33.9465 18.0952 33.2019 17.2315C32.8975 16.8305 32.6206 16.4079 32.3733 15.967C31.9033 15.124 31.3167 14.072 31.0165 12.664C30.9325 12.2691 30.8759 11.867 30.7249 11.8511C30.5088 11.8281 30.2618 12.6286 30.2103 12.8021C30.075 13.2374 30.0039 13.6911 29.9993 14.1481C30.0113 15.2107 30.7815 17.2776 32.6272 18.6802C32.6272 18.6802 34.2396 19.9058 36.9979 19.9996C37.4496 20.0032 37.8927 19.8723 38.2741 19.6224C38.5125 19.4453 38.6738 19.169 38.2398 19.0344Z" fill="white"/>
<path d="M33.511 4.44824C33.5123 4.45304 33.5123 4.45806 33.511 4.46286H33.5263L33.511 4.44824Z" fill="white"/>
<path d="M33.511 4.44766L33.5178 4.45453L33.5516 4.4082L33.511 4.44766Z" fill="white"/>
<path d="M86.2126 3.39857C86.2305 2.84135 86.1856 2.28386 86.0788 1.73734C86.0592 1.58029 86.0194 1.42663 85.9605 1.28042C85.8616 1.03315 85.6946 0.821302 85.4802 0.67118C85.3206 0.562892 85.1342 0.504468 84.9433 0.50293C84.8095 0.50293 84.6757 0.513561 84.5419 0.513561C84.3566 0.513561 84.1731 0.513561 83.9878 0.513561C83.6276 0.513561 83.2674 0.513559 82.9072 0.522414C82.7472 0.522852 82.5889 0.556288 82.4416 0.620764C82.2943 0.685241 82.161 0.779456 82.0495 0.897872C81.7751 1.19364 81.5589 1.61514 81.1918 2.51837C81.1301 2.66714 81.0838 2.79465 81.0495 2.88143C80.914 3.18782 78.9756 7.52155 78.2449 8.77721C78.1917 8.87108 78.0734 9.0712 77.9224 9.06412C77.7715 9.05703 77.6548 8.87108 77.6017 8.77721C76.8709 7.52155 74.9326 3.18782 74.7954 2.88143C74.7628 2.79465 74.7165 2.66714 74.6547 2.51837C74.2945 1.61514 74.0767 1.19364 73.7971 0.897872C73.6855 0.779456 73.5522 0.685241 73.4049 0.620764C73.2576 0.556288 73.0994 0.522852 72.9394 0.522414C72.5792 0.508246 72.219 0.522416 71.8587 0.513561H71.3047C71.1709 0.513561 71.0371 0.504701 70.9033 0.50293C70.7124 0.504468 70.5259 0.562892 70.3664 0.67118C70.151 0.820191 69.9837 1.03238 69.8861 1.28042C69.8272 1.42663 69.7874 1.58029 69.7677 1.73734C69.6614 2.28395 69.616 2.84131 69.6322 3.39857L69.2103 16.7787C69.2155 16.8785 69.2345 16.9769 69.2669 17.071C69.4881 17.7227 70.2961 18.045 70.9102 18.0539C71.5242 18.0627 72.2824 17.7564 72.5449 17.1684C72.5787 17.0887 72.6046 17.0056 72.6221 16.9204C72.8056 16.0119 72.9119 8.69574 72.9514 5.50788C74.641 9.08714 75.9652 11.7596 76.5759 12.9462C76.7011 13.1906 76.967 13.6777 77.4541 13.8424C77.7506 13.9463 78.072 13.9463 78.3684 13.8424C78.8556 13.6777 79.1214 13.1906 79.2449 12.9462C79.8573 11.7667 81.1798 9.09422 82.8712 5.50788C82.9106 8.69574 83.017 16.0119 83.2005 16.9204C83.218 17.0056 83.2439 17.0887 83.2777 17.1684C83.5419 17.7617 84.288 18.0663 84.9124 18.0539C85.5368 18.0415 86.3327 17.7227 86.5557 17.071C86.5872 16.9766 86.6062 16.8783 86.6123 16.7787C86.4876 12.3181 86.3544 7.85804 86.2126 3.39857Z" fill="white"/>
<path d="M65.8618 1.0336C65.5101 0.574899 64.9081 0.55896 64.3317 0.54125C63.7845 0.527081 63.0881 0.507601 62.6524 1.00703C62.4634 1.23258 62.3481 1.51396 62.3231 1.81108C62.3128 5.10285 62.303 8.39461 62.2939 11.6864C62.3025 12.2219 62.1929 12.7523 61.9732 13.2375C61.7536 13.7227 61.4297 14.1498 61.0263 14.4864C60.4832 14.8986 59.8439 15.1546 59.1737 15.2284C59.0674 15.2284 58.9576 15.2426 58.9576 15.2426H58.786C58.786 15.2426 58.6745 15.2426 58.5699 15.2284C57.8997 15.1546 57.2604 14.8986 56.7174 14.4864C56.3142 14.1496 55.9907 13.7224 55.7713 13.2373C55.552 12.7521 55.4426 12.2217 55.4514 11.6864L55.4206 1.81108C55.396 1.51416 55.2813 1.23281 55.0929 1.00703C54.6555 0.507601 53.9608 0.527081 53.4119 0.54125C52.8356 0.55896 52.2352 0.574899 51.8836 1.0336C51.6861 1.32386 51.6061 1.68223 51.6606 2.03246V12.3682C51.6716 13.6165 52.079 14.8266 52.8201 15.8129C53.8236 17.1713 55.249 17.777 55.6882 17.9381C56.3449 18.1799 57.0283 18.3358 57.7225 18.4021C58.4912 18.4588 59.2627 18.4588 60.0314 18.4021C60.7256 18.3358 61.4091 18.1799 62.0658 17.9381C62.5049 17.761 63.9303 17.1642 64.9321 15.8129C65.6743 14.8271 66.0823 13.6168 66.0934 12.3682V2.03246C66.1454 1.68107 66.0623 1.32259 65.8618 1.0336Z" fill="white"/>
<path d="M105.583 6.00892C105.1 4.34654 104.114 2.88746 102.77 1.84522C101.245 0.648138 99.3816 0 97.4659 0C95.5501 0 93.6871 0.648138 92.1621 1.84522C90.8181 2.88807 89.8319 4.34685 89.3472 6.00892C87.9664 10.773 90.0436 16.8512 95.0078 18.1936C96.62 18.5738 98.2945 18.5738 99.9068 18.1936C104.888 16.8512 106.964 10.773 105.583 6.00892ZM101.893 11.322C101.379 13.5766 99.9222 16.0011 97.4659 16.0277C95.0095 16.0011 93.5584 13.5766 93.0386 11.322C92.5377 9.14719 92.6304 6.58805 93.8088 4.64876C94.1851 3.99354 94.72 3.45072 95.3611 3.07368C96.0022 2.69664 96.7272 2.49837 97.465 2.49837C98.2028 2.49837 98.9279 2.69664 99.5689 3.07368C100.21 3.45072 100.745 3.99354 101.121 4.64876C102.301 6.59336 102.392 9.1525 101.893 11.3273V11.322Z" fill="white"/>
</g>
<defs>
<clipPath id="clip0_992_16737">
<rect width="106" height="40" fill="white"/>
</clipPath>
</defs>
</svg>
