<svg width="106" height="40" viewBox="0 0 106 40" fill="none" xmlns="http://www.w3.org/2000/svg">
<path d="M43.9682 13.1439H38.9205V17.0134H37.2379V5.40479H43.9682C44.9104 5.40479 45.7069 5.77884 46.3573 6.52696C47.0079 7.27505 47.3333 8.19086 47.3333 9.27433C47.3333 10.3578 47.0079 11.2736 46.3573 12.0217C45.7069 12.7698 44.9104 13.1439 43.9682 13.1439ZM38.9205 11.2091H43.9682C44.4281 11.2091 44.8205 11.0221 45.1458 10.648C45.4825 10.2611 45.6506 9.80319 45.6506 9.27433C45.6506 8.74549 45.4825 8.29406 45.1458 7.92C44.8205 7.53303 44.4281 7.33957 43.9682 7.33957H38.9205V11.2091ZM59.0666 17.0134H57.384V14.1113H50.6539V17.0134H48.9712V11.2091C48.9712 9.59679 49.4591 8.22955 50.4351 7.1074C51.4221 5.97233 52.6167 5.40479 54.0189 5.40479C55.4209 5.40479 56.6102 5.97233 57.5859 7.1074C58.573 8.22955 59.0666 9.59679 59.0666 11.2091V17.0134ZM57.384 12.1765V11.2091C57.384 10.1256 57.0587 9.20984 56.4083 8.46172C55.7576 7.71363 54.9611 7.33957 54.0189 7.33957C53.0768 7.33957 52.2803 7.71363 51.6296 8.46172C50.979 9.20984 50.6539 10.1256 50.6539 11.2091V12.1765H57.384ZM69.1174 5.40479H70.8V7.33957C70.8 8.75841 70.4018 10.0096 69.6052 11.093C68.8201 12.1765 67.8161 12.8343 66.5935 13.0665V17.0134H64.9109V13.0665C63.6883 12.8343 62.6788 12.1765 61.8822 11.093C61.0971 10.0096 60.7046 8.75841 60.7046 7.33957V5.40479H62.387V7.33957C62.387 8.42303 62.7123 9.33884 63.363 10.0869C64.0136 10.8351 64.8099 11.2091 65.7523 11.2091C66.6945 11.2091 67.491 10.8351 68.1414 10.0869C68.792 9.33884 69.1174 8.42303 69.1174 7.33957V5.40479ZM77.4857 7.33957C76.5322 7.33957 75.7301 7.71363 75.0795 8.46172C74.4402 9.19695 74.1204 10.1127 74.1204 11.2091V17.0134H72.438V11.2091C72.438 9.5839 72.9259 8.21022 73.9018 7.08804C74.8776 5.96586 76.0723 5.40479 77.4857 5.40479C78.8991 5.40479 80.0936 5.96586 81.0696 7.08804C82.0453 8.21022 82.5334 9.5839 82.5334 11.2091V17.0134H80.8508V11.2091C80.8508 10.1127 80.5254 9.19695 79.8748 8.46172C79.2355 7.71363 78.439 7.33957 77.4857 7.33957ZM85.9547 10.2417H94.2665V12.1765H85.9547C86.1455 13.0278 86.5436 13.7243 87.1493 14.266C87.7664 14.8078 88.4561 15.0787 89.2188 15.0787H94.2665V17.0134H89.2188C87.8168 17.0134 86.622 16.4524 85.635 15.3302C84.6592 14.1951 84.1711 12.8214 84.1711 11.2091C84.1711 9.59679 84.6592 8.22955 85.635 7.1074C86.622 5.97233 87.8168 5.40479 89.2188 5.40479H94.2665V7.33957H89.2188C88.4561 7.33957 87.7664 7.61043 87.1493 8.15218C86.5436 8.69389 86.1455 9.39041 85.9547 10.2417ZM101.794 7.33957V17.0134H100.111V7.33957H95.9045V5.40479H106V7.33957H101.794Z" fill="white"/>
<path d="M32.5626 10.6703C32.5626 4.77727 27.9595 0 22.2813 0C16.6031 0 12 4.77727 12 10.6703C12 16.5634 16.6031 21.3407 22.2813 21.3407C27.9595 21.3407 32.5626 16.5634 32.5626 10.6703Z" fill="white"/>
</svg>
