<svg width="106" height="40" viewBox="0 0 106 40" fill="none" xmlns="http://www.w3.org/2000/svg">
<g clip-path="url(#clip0_992_16736)">
<path fill-rule="evenodd" clip-rule="evenodd" d="M105.042 16.725C105.042 21.6583 103.839 25.3272 101.432 27.7316C99.0255 30.1276 95.3129 31.3254 90.2944 31.325C85.6115 31.325 82.0584 30.1272 79.635 27.7316C77.2117 25.3361 76.0005 21.7225 76.0015 16.891V0.690956C76.0018 0.508533 76.0793 0.333674 76.2171 0.204619C76.3548 0.0755641 76.5414 0.00281724 76.7363 0.00228882H85.2282C85.4231 0.00281648 85.6098 0.0755418 85.7477 0.204578C85.8855 0.333613 85.9631 0.508472 85.9637 0.690956V17.2476C85.9637 19.2203 86.3532 20.7376 87.1464 21.8083C87.5398 22.297 88.0471 22.6951 88.6299 22.9723C89.2126 23.2494 89.8552 23.3983 90.5087 23.4075C91.1622 23.4167 91.8094 23.286 92.4007 23.0253C92.9921 22.7647 93.512 22.381 93.9208 21.9036C94.6965 20.8992 95.0829 19.4185 95.0801 17.4616V14.361H105.042V16.725Z" fill="white"/>
<path fill-rule="evenodd" clip-rule="evenodd" d="M104.273 12.5493H95.0807V0.721334C95.0811 0.530248 95.1623 0.347079 95.3066 0.211898C95.4508 0.0767169 95.6464 0.000528513 95.8505 0H97.2269C97.2282 1.93952 98.052 3.79917 99.5173 5.17018C100.983 6.54118 102.969 7.31133 105.041 7.31133V12.5493H104.273Z" fill="white"/>
<path fill-rule="evenodd" clip-rule="evenodd" d="M99.1843 0H104.273C104.477 0.000527791 104.672 0.0766946 104.817 0.211857C104.961 0.347019 105.042 0.530187 105.043 0.721334V5.49067C103.489 5.49067 101.999 4.91275 100.9 3.88405C99.8015 2.85535 99.1843 1.46013 99.1843 0.00533346V0Z" fill="white"/>
<path fill-rule="evenodd" clip-rule="evenodd" d="M103.087 38.4853H102.417V36.3233H103.087C103.373 36.3035 103.655 36.3907 103.872 36.5657C104.089 36.7407 104.223 36.9892 104.245 37.2567C104.248 37.3062 104.248 37.3558 104.245 37.4053C104.257 37.6796 104.153 37.9473 103.954 38.1495C103.756 38.3516 103.48 38.4717 103.187 38.4833C103.153 38.4833 103.119 38.4833 103.085 38.4833L103.087 38.4853ZM103.087 39.1333C104.245 39.1333 105.048 38.4487 105.048 37.4067C105.048 36.3647 104.243 35.6733 103.087 35.6733H101.627V39.132L103.087 39.1333ZM98.2316 37.256H97.4035V36.3227H98.2259C98.2913 36.3162 98.3575 36.3218 98.4206 36.3393C98.4837 36.3568 98.5426 36.3857 98.5937 36.4245C98.6449 36.4632 98.6874 36.511 98.7189 36.5652C98.7503 36.6193 98.7701 36.6787 98.777 36.74C98.7839 36.8013 98.7779 36.8632 98.7592 36.9223C98.7406 36.9814 98.7097 37.0365 98.6683 37.0844C98.6269 37.1323 98.5758 37.1722 98.518 37.2016C98.4602 37.231 98.3967 37.2495 98.3312 37.256C98.2962 37.2593 98.2609 37.2593 98.2259 37.256H98.2316ZM100.136 40L98.7827 37.816C99.0251 37.7615 99.2392 37.6286 99.3871 37.4408C99.5351 37.253 99.6075 37.0223 99.5916 36.7893C99.5974 36.648 99.5734 36.5069 99.521 36.3743C99.4685 36.2416 99.3887 36.1199 99.286 36.0161C99.1833 35.9123 99.0597 35.8285 98.9224 35.7695C98.7851 35.7105 98.6368 35.6773 98.4858 35.672C98.4409 35.6697 98.396 35.6697 98.3512 35.672H96.6166V39.1307H97.4035V37.904H97.9795L99.2299 39.9993L100.136 40ZM93.4851 37.898H92.3301L92.9047 36.41L93.4808 37.898H93.4851ZM94.8258 39.1327L93.4017 35.674H92.4141L90.9822 39.1327H91.8794L92.1122 38.546H93.6965L93.9237 39.1327H94.8258ZM87.9539 39.1947C88.2705 39.2016 88.5828 39.1256 88.8558 38.9753C89.1288 38.825 89.3516 38.6064 89.499 38.344L88.8218 38.038C88.7395 38.1881 88.6149 38.3143 88.4615 38.403C88.3082 38.4917 88.1319 38.5395 87.9517 38.5413C87.6414 38.5256 87.3493 38.3991 87.1356 38.1878C86.9218 37.9766 86.8027 37.6966 86.8027 37.4057C86.8027 37.1147 86.9218 36.8348 87.1356 36.6235C87.3493 36.4123 87.6414 36.2857 87.9517 36.27C88.1316 36.2729 88.3073 36.3211 88.4604 36.4096C88.6135 36.498 88.7384 36.6235 88.8218 36.7727L89.499 36.4613C89.3517 36.1992 89.1288 35.9811 88.8557 35.8316C88.5825 35.6822 88.2701 35.6075 87.9539 35.616C87.7029 35.609 87.4529 35.6483 87.2182 35.7318C86.9834 35.8152 86.7686 35.9412 86.5858 36.1024C86.403 36.2636 86.256 36.4569 86.153 36.6713C86.0501 36.8857 85.9932 37.117 85.9858 37.352C85.9783 37.587 86.0203 37.821 86.1094 38.0408C86.1986 38.2606 86.3331 38.4618 86.5052 38.6329C86.6774 38.804 86.8839 38.9417 87.1129 39.038C87.3419 39.1344 87.589 39.1877 87.8399 39.1947C87.8777 39.1947 87.9161 39.1947 87.9539 39.1947ZM84.195 39.1327V38.4847H82.4148L84.1594 36.2633V35.672H81.3824V36.3207H83.1269L81.3824 38.5347V39.13H84.1957L84.195 39.1327ZM77.6719 39.1947C78.7962 39.1947 79.3395 38.6087 79.3395 37.748V35.674H78.5313V37.7273C78.5313 37.9425 78.44 38.1489 78.2775 38.301C78.115 38.4532 77.8946 38.5387 77.6648 38.5387C77.4349 38.5387 77.2145 38.4532 77.052 38.301C76.8895 38.1489 76.7982 37.9425 76.7982 37.7273V35.674H76V37.7573C76 38.6073 76.5426 39.1987 77.6676 39.1987L77.6719 39.1947Z" fill="white"/>
<path fill-rule="evenodd" clip-rule="evenodd" d="M106 35.6087V35.6173C106 35.7447 105.96 35.8692 105.884 35.9751C105.809 36.081 105.701 36.1636 105.575 36.2123C105.45 36.261 105.311 36.2738 105.178 36.249C105.045 36.2241 104.922 36.1628 104.826 36.0727C104.73 35.9826 104.664 35.8679 104.638 35.743C104.611 35.618 104.625 35.4886 104.677 35.3709C104.729 35.2532 104.817 35.1526 104.93 35.0819C105.043 35.0111 105.176 34.9733 105.312 34.9733H106V35.6087Z" fill="white"/>
</g>
<defs>
<clipPath id="clip0_992_16736">
<rect width="30" height="40" fill="white" transform="translate(76)"/>
</clipPath>
</defs>
</svg>
