<svg width="32" height="32" viewBox="0 0 32 32" fill="none" xmlns="http://www.w3.org/2000/svg">
<rect width="32" height="32" rx="16" fill="#464E5C"/>
<path d="M15.9997 9.33301C12.318 9.33301 9.33301 12.3191 9.33301 15.9997C9.33301 19.6824 12.318 22.6663 15.9997 22.6663C19.6813 22.6663 22.6663 19.6824 22.6663 15.9997C22.6663 12.3191 19.6813 9.33301 15.9997 9.33301ZM15.9997 12.29C16.6232 12.29 17.1287 12.7955 17.1287 13.419C17.1287 14.0426 16.6232 14.5481 15.9997 14.5481C15.3761 14.5481 14.8706 14.0426 14.8706 13.419C14.8706 12.7955 15.3761 12.29 15.9997 12.29ZM17.5051 19.118C17.5051 19.2961 17.3606 19.4405 17.1825 19.4405H14.8169C14.6387 19.4405 14.4943 19.2961 14.4943 19.118V18.4728C14.4943 18.2946 14.6387 18.1502 14.8169 18.1502H15.1395V16.4298H14.8169C14.6387 16.4298 14.4943 16.2853 14.4943 16.1072V15.462C14.4943 15.2839 14.6387 15.1395 14.8169 15.1395H16.5373C16.7155 15.1395 16.8599 15.2839 16.8599 15.462V18.1502H17.1825C17.3606 18.1502 17.5051 18.2946 17.5051 18.4728V19.118Z" fill="white"/>
</svg>
