<svg width="16" height="16" viewBox="0 0 16 16" fill="none" xmlns="http://www.w3.org/2000/svg">
<path fill-rule="evenodd" clip-rule="evenodd" d="M1.33325 7.99967C1.33325 4.35055 4.3508 1.33301 7.99992 1.33301C11.649 1.33301 14.6666 4.35055 14.6666 7.99967C14.6666 11.6488 11.649 14.6663 7.99992 14.6663C4.3508 14.6663 1.33325 11.6488 1.33325 7.99967ZM6.99992 5.66634C6.99992 5.11406 7.44763 4.66634 7.99992 4.66634C8.5522 4.66634 8.99992 5.11406 8.99992 5.66634V7.83301C8.99992 8.38529 8.5522 8.83301 7.99992 8.83301C7.44763 8.83301 6.99992 8.38529 6.99992 7.83301V5.66634ZM8.83325 10.4997C8.83325 10.9599 8.46016 11.333 7.99992 11.333C7.53968 11.333 7.16658 10.9599 7.16658 10.4997C7.16658 10.0394 7.53968 9.66634 7.99992 9.66634C8.46016 9.66634 8.83325 10.0394 8.83325 10.4997Z" fill="#EF9B38"/>
</svg>
