<svg width="16" height="16" viewBox="0 0 16 16" fill="none" xmlns="http://www.w3.org/2000/svg">
<path d="M13.5185 6.78693L13.2063 6.00638L12.6527 4.62221C12.1774 3.43416 11.0438 2.66666 9.76405 2.66666H6.23627C4.95683 2.66666 3.82294 3.43416 3.34766 4.62221L2.79405 6.00638L2.48183 6.78693C1.81183 7.04166 1.3335 7.68499 1.3335 8.44443V9.77777C1.3335 10.2255 1.50461 10.6297 1.77794 10.9425V12.4444C1.77794 12.9353 2.176 13.3333 2.66683 13.3333H3.55572C4.04655 13.3333 4.44461 12.9353 4.44461 12.4444V11.5555H11.5557V12.4444C11.5557 12.9353 11.9538 13.3333 12.4446 13.3333H13.3335C13.8243 13.3333 14.2224 12.9353 14.2224 12.4444V10.9425C14.4957 10.63 14.6668 10.2258 14.6668 9.77777V8.44443C14.6668 7.68499 14.1885 7.04166 13.5185 6.78693ZM4.99822 5.28249C5.20072 4.77638 5.691 4.44443 6.23627 4.44443H9.76405C10.3093 4.44443 10.7996 4.77638 11.0021 5.28249L11.5557 6.66666H4.44461L4.99822 5.28249ZM3.55572 9.77221C3.02239 9.77221 2.66683 9.41777 2.66683 8.8861C2.66683 8.35443 3.02239 7.99999 3.55572 7.99999C4.08905 7.99999 4.88905 8.79749 4.88905 9.32916C4.88905 9.86082 4.08905 9.77221 3.55572 9.77221ZM12.4446 9.77221C11.9113 9.77221 11.1113 9.86082 11.1113 9.32916C11.1113 8.79749 11.9113 7.99999 12.4446 7.99999C12.9779 7.99999 13.3335 8.35443 13.3335 8.8861C13.3335 9.41777 12.9779 9.77221 12.4446 9.77221Z" fill="white"/>
</svg>
