<svg width="32" height="32" viewBox="0 0 32 32" fill="none" xmlns="http://www.w3.org/2000/svg">
<rect width="32" height="32" rx="16" fill="#3D4453"/>
<path fill-rule="evenodd" clip-rule="evenodd" d="M24 16.0003C24 14.4765 20.8 10.667 16 10.667C11.2 10.667 8 14.4765 8 16.0003C8 17.5241 11.2 21.3337 16 21.3337C20.8 21.3337 24 17.5241 24 16.0003ZM15.9999 12.5332C14.0853 12.5332 12.5332 14.0853 12.5332 15.9999C12.5332 17.9145 14.0853 19.4665 15.9999 19.4665C17.9145 19.4665 19.4665 17.9145 19.4665 15.9999C19.4665 14.0853 17.9145 12.5332 15.9999 12.5332ZM13.9665 15.9999C13.9665 14.8769 14.8769 13.9665 15.9999 13.9665C17.1228 13.9665 18.0332 14.8769 18.0332 15.9999C18.0332 17.1228 17.1228 18.0332 15.9999 18.0332C14.8769 18.0332 13.9665 17.1228 13.9665 15.9999Z" fill="white"/>
<path d="M16 10.867C18.3457 10.867 20.3023 11.7978 21.6735 12.9172C22.3592 13.4769 22.895 14.081 23.2578 14.6339C23.6251 15.1936 23.8 15.6775 23.8 16.0003H24.2C24.2 15.5613 23.9749 14.9975 23.5922 14.4144C23.205 13.8244 22.6408 13.1904 21.9265 12.6073C20.4977 11.4409 18.4543 10.467 16 10.467V10.867ZM8.2 16.0003C8.2 15.6775 8.3749 15.1936 8.74221 14.6339C9.10504 14.081 9.64084 13.4769 10.3265 12.9172C11.6977 11.7978 13.6543 10.867 16 10.867V10.467C13.5457 10.467 11.5023 11.4409 10.0735 12.6073C9.35916 13.1904 8.79496 13.8244 8.40779 14.4144C8.0251 14.9975 7.8 15.5613 7.8 16.0003H8.2ZM16 21.1337C13.6543 21.1337 11.6977 20.2028 10.3265 19.0835C9.64084 18.5238 9.10504 17.9197 8.74221 17.3668C8.3749 16.8071 8.2 16.3232 8.2 16.0003H7.8C7.8 16.4394 8.0251 17.0031 8.40779 17.5862C8.79496 18.1762 9.35916 18.8102 10.0735 19.3934C11.5023 20.5597 13.5457 21.5337 16 21.5337V21.1337ZM23.8 16.0003C23.8 16.3232 23.6251 16.8071 23.2578 17.3668C22.895 17.9197 22.3592 18.5238 21.6735 19.0835C20.3023 20.2028 18.3457 21.1337 16 21.1337V21.5337C18.4543 21.5337 20.4977 20.5597 21.9265 19.3934C22.6408 18.8102 23.205 18.1762 23.5922 17.5862C23.9749 17.0031 24.2 16.4394 24.2 16.0003H23.8ZM12.7332 15.9999C12.7332 14.1957 14.1957 12.7332 15.9999 12.7332V12.3332C13.9748 12.3332 12.3332 13.9748 12.3332 15.9999H12.7332ZM15.9999 19.2665C14.1957 19.2665 12.7332 17.804 12.7332 15.9999H12.3332C12.3332 18.0249 13.9748 19.6665 15.9999 19.6665V19.2665ZM19.2665 15.9999C19.2665 17.804 17.804 19.2665 15.9999 19.2665V19.6665C18.0249 19.6665 19.6665 18.0249 19.6665 15.9999H19.2665ZM15.9999 12.7332C17.804 12.7332 19.2665 14.1957 19.2665 15.9999H19.6665C19.6665 13.9748 18.0249 12.3332 15.9999 12.3332V12.7332ZM15.9999 13.7665C14.7664 13.7665 13.7665 14.7664 13.7665 15.9999H14.1665C14.1665 14.9873 14.9873 14.1665 15.9999 14.1665V13.7665ZM18.2332 15.9999C18.2332 14.7664 17.2333 13.7665 15.9999 13.7665V14.1665C17.0124 14.1665 17.8332 14.9873 17.8332 15.9999H18.2332ZM15.9999 18.2332C17.2333 18.2332 18.2332 17.2333 18.2332 15.9999H17.8332C17.8332 17.0124 17.0124 17.8332 15.9999 17.8332V18.2332ZM13.7665 15.9999C13.7665 17.2333 14.7664 18.2332 15.9999 18.2332V17.8332C14.9873 17.8332 14.1665 17.0124 14.1665 15.9999H13.7665Z" fill="white"/>
</svg>
