<svg width="32" height="32" viewBox="0 0 32 32" fill="none" xmlns="http://www.w3.org/2000/svg">
<rect width="32" height="32" rx="16" fill="#464E5C"/>
<path d="M22.396 11.7317L16.2924 9.38613C16.1038 9.3153 15.8958 9.3153 15.7072 9.38613L9.60332 11.7317C9.52392 11.7615 9.4555 11.8148 9.4072 11.8845C9.3589 11.9542 9.33301 12.037 9.33301 12.1218V13.083C9.33301 13.3132 9.51947 13.4997 9.74967 13.4997H22.2497C22.4799 13.4997 22.6663 13.3132 22.6663 13.083V12.1218C22.6663 11.9481 22.5585 11.7926 22.396 11.7317ZM10.9997 14.333V18.4997H10.583C10.3528 18.4997 10.1663 18.6861 10.1663 18.9163V20.1663H21.833V18.9163C21.833 18.6861 21.6466 18.4997 21.4163 18.4997H20.9997V14.333H19.333V18.4997H16.833V14.333H15.1663V18.4997H12.6663V14.333H10.9997ZM22.2497 20.9997H9.74967C9.51947 20.9997 9.33301 21.1861 9.33301 21.4163V22.2497C9.33301 22.4799 9.51947 22.6663 9.74967 22.6663H22.2497C22.4799 22.6663 22.6663 22.4799 22.6663 22.2497V21.4163C22.6663 21.1861 22.4799 20.9997 22.2497 20.9997Z" fill="white"/>
</svg>
