<svg width="18" height="20" viewBox="0 0 18 20" fill="none" xmlns="http://www.w3.org/2000/svg">
<path fill-rule="evenodd" clip-rule="evenodd" d="M0 14.2584V14.4597C0 15.1961 0.596954 15.793 1.33333 15.793H16.6667C17.4031 15.793 18 15.1961 18 14.4597V14.2584C18 13.8496 17.8125 13.4634 17.4913 13.2106L17.2449 13.0167C15.9992 12.0363 15.1921 10.6029 14.9999 9.0294L14.5503 5.35002C14.2076 2.54499 11.8259 0.436554 9 0.436554C6.17411 0.436554 3.7924 2.54499 3.44969 5.35002L3.00015 9.0294C2.80791 10.6029 2.0008 12.0363 0.755122 13.0167L0.508737 13.2106C0.187511 13.4634 0 13.8496 0 14.2584ZM8.99994 19.5617C10.4911 19.5617 11.6999 18.42 11.6999 17.0118H6.29994C6.29994 18.42 7.50877 19.5617 8.99994 19.5617Z" fill="#35383F"/>
</svg>
