<svg width="24" height="24" viewBox="0 0 24 24" fill="none" xmlns="http://www.w3.org/2000/svg">
<mask id="mask0_1122_23733" style="mask-type:alpha" maskUnits="userSpaceOnUse" x="12" y="0" width="12" height="24">
<path d="M24 0H12V20L14.5 24H24V0Z" fill="#D9D9D9"/>
</mask>
<g mask="url(#mask0_1122_23733)">
<path d="M8.06043 5.0375C9.90483 4.1483 13.8408 3.3131 18.2724 6.2003C18.3385 6.24332 18.4123 6.27291 18.4898 6.28739C18.5672 6.30187 18.6468 6.30095 18.7239 6.28468C18.801 6.26841 18.8742 6.23711 18.9392 6.19257C19.0042 6.14803 19.0598 6.09112 19.1028 6.0251C19.1458 5.95907 19.1754 5.88521 19.1899 5.80775C19.2044 5.73028 19.2035 5.65072 19.1872 5.57361C19.1709 5.4965 19.1396 5.42335 19.0951 5.35834C19.0506 5.29332 18.9937 5.23772 18.9276 5.1947C14.0832 2.0387 9.69123 2.9183 7.53963 3.9575C7.46545 3.98963 7.39852 4.03642 7.34288 4.09506C7.28723 4.1537 7.24401 4.22299 7.21581 4.29875C7.18761 4.37451 7.17501 4.45519 7.17876 4.53594C7.18252 4.6167 7.20256 4.69586 7.23767 4.76868C7.27278 4.84149 7.32225 4.90646 7.3831 4.95969C7.44395 5.01291 7.51493 5.05329 7.59177 5.07839C7.66861 5.1035 7.74974 5.11282 7.83028 5.10579C7.91081 5.09876 7.98909 5.07553 8.06043 5.0375ZM5.89083 5.8079C5.97808 5.9408 6.00902 6.1029 5.97684 6.2586C5.94467 6.4143 5.85201 6.55086 5.71923 6.6383C5.09163 7.0511 4.38723 7.9403 4.11723 8.4023C4.07728 8.47022 4.02434 8.5296 3.96145 8.57706C3.89855 8.62453 3.82692 8.65913 3.75064 8.67891C3.67437 8.69869 3.59494 8.70325 3.51691 8.69234C3.43887 8.68142 3.36375 8.65524 3.29583 8.6153C3.15866 8.53462 3.05916 8.40275 3.01921 8.24871C2.99943 8.17244 2.99487 8.09301 3.00579 8.01498C3.0167 7.93694 3.04288 7.86182 3.08283 7.7939C3.40683 7.2419 4.22283 6.1859 5.06043 5.6351C5.19348 5.54796 5.35568 5.51721 5.5114 5.54961C5.66711 5.58201 5.80358 5.67492 5.89083 5.8079ZM12.6 5.7455C12.4409 5.7455 12.2883 5.80871 12.1758 5.92123C12.0632 6.03375 12 6.18637 12 6.3455C12 6.50463 12.0632 6.65724 12.1758 6.76976C12.2883 6.88228 12.4409 6.9455 12.6 6.9455C14.5872 6.9455 19.2168 8.5967 20.412 14.8091C20.4235 14.8895 20.4511 14.9667 20.4933 15.0361C20.5355 15.1055 20.5913 15.1657 20.6574 15.2128C20.7235 15.26 20.7985 15.2933 20.8778 15.3107C20.9572 15.328 21.0392 15.3291 21.119 15.3138C21.1987 15.2985 21.2746 15.2672 21.3419 15.2217C21.4092 15.1763 21.4665 15.1176 21.5105 15.0494C21.5545 14.9811 21.5841 14.9046 21.5976 14.8245C21.6112 14.7444 21.6083 14.6624 21.5892 14.5835C20.2716 7.7291 15.0816 5.7455 12.6012 5.7455H12.6ZM11.214 13.2587C10.17 14.1071 9.38163 16.4819 11.8836 21.0059C11.9606 21.1453 11.9791 21.3096 11.935 21.4626C11.8909 21.6156 11.7878 21.7449 11.6484 21.8219C11.509 21.8989 11.3447 21.9174 11.1917 21.8733C11.0387 21.8292 10.9094 21.7261 10.8324 21.5867C8.25483 16.9235 8.69883 13.7555 10.4568 12.3275C12.1656 10.9403 14.8608 11.5415 15.5964 13.9163C15.6936 14.2319 15.7716 14.6099 15.8484 14.9879L15.888 15.1775C15.984 15.6323 16.0896 16.1075 16.2456 16.5863C16.5564 17.5379 17.0568 18.4727 18.0228 19.1867C18.1459 19.283 18.2266 19.4235 18.2477 19.5783C18.2688 19.7332 18.2287 19.8902 18.1358 20.0159C18.0429 20.1416 17.9047 20.2261 17.7505 20.2514C17.5962 20.2767 17.4382 20.2409 17.31 20.1515C16.0776 19.2419 15.4632 18.0563 15.1044 16.9595C14.9456 16.4548 14.815 15.9416 14.7132 15.4223L14.6724 15.2207C14.6124 14.9007 14.5379 14.5836 14.4492 14.2703C13.9824 12.7619 12.306 12.3719 11.214 13.2587ZM18.5988 14.6627C18.5969 14.5824 18.5789 14.5032 18.5458 14.43C18.5127 14.3567 18.4652 14.2909 18.4062 14.2364C18.3472 14.1818 18.2778 14.1397 18.2022 14.1125C18.1265 14.0853 18.0462 14.0735 17.966 14.0779C17.8857 14.0824 17.8072 14.1029 17.735 14.1382C17.6629 14.1736 17.5985 14.2231 17.5458 14.2838C17.4932 14.3445 17.4532 14.4151 17.4284 14.4916C17.4035 14.568 17.3943 14.6486 17.4012 14.7287C17.5188 16.8983 18.8604 18.0239 19.6164 18.2675C19.7675 18.3148 19.9312 18.3004 20.0718 18.2275C20.2123 18.1547 20.3184 18.0292 20.3668 17.8785C20.4153 17.7277 20.4022 17.564 20.3304 17.4229C20.2586 17.2817 20.134 17.1747 19.9836 17.1251C19.7112 17.0375 18.6912 16.3475 18.5988 14.6639V14.6627ZM13.2 15.2975C13.2 15.1384 13.1368 14.9858 13.0243 14.8732C12.9118 14.7607 12.7592 14.6975 12.6 14.6975C12.4409 14.6975 12.2883 14.7607 12.1758 14.8732C12.0632 14.9858 12 15.1384 12 15.2975C12 16.5515 12.1548 17.5187 12.5244 18.4631C12.8892 19.3931 13.4508 20.2679 14.2104 21.3431C14.2548 21.4098 14.3121 21.467 14.379 21.5112C14.4459 21.5555 14.5209 21.5858 14.5997 21.6006C14.6785 21.6153 14.7595 21.6141 14.8378 21.597C14.9161 21.58 14.9902 21.5474 15.0557 21.5012C15.1212 21.455 15.1768 21.3961 15.2192 21.3281C15.2616 21.2601 15.29 21.1842 15.3025 21.1051C15.3151 21.0259 15.3117 20.945 15.2926 20.8672C15.2734 20.7893 15.2388 20.7161 15.1908 20.6519C14.4372 19.5839 13.9488 18.8099 13.6416 18.0239C13.3392 17.2547 13.2 16.4435 13.2 15.2975ZM9.56403 10.8455C7.50483 12.4391 6.32163 15.8159 8.33763 19.8287C8.40746 19.9708 8.4183 20.1347 8.36779 20.2848C8.31727 20.4348 8.2095 20.5588 8.06795 20.6298C7.92641 20.7007 7.76256 20.7128 7.61212 20.6634C7.46169 20.6141 7.33685 20.5073 7.26483 20.3663C5.01963 15.9011 6.26523 11.8811 8.82723 9.8975C10.1004 8.9123 11.6952 8.4383 13.2996 8.6975C14.91 8.9591 16.464 9.9503 17.6712 11.7659C17.7149 11.8315 17.7452 11.9051 17.7604 11.9825C17.7756 12.0598 17.7754 12.1394 17.7599 12.2167C17.7443 12.2939 17.7137 12.3674 17.6698 12.4328C17.6259 12.4983 17.5695 12.5544 17.5038 12.5981C17.4382 12.6417 17.3646 12.672 17.2873 12.6873C17.2099 12.7025 17.1303 12.7023 17.0531 12.6868C16.9758 12.6712 16.9023 12.6406 16.8369 12.5967C16.7714 12.5527 16.7153 12.4963 16.6716 12.4307C15.6216 10.8503 14.3424 10.0835 13.1076 9.8831C11.8656 9.6815 10.5996 10.0427 9.56283 10.8467L9.56403 10.8455ZM10.1484 7.2503C10.2225 7.22335 10.2905 7.18208 10.3486 7.12884C10.4068 7.0756 10.4538 7.01143 10.4871 6.94001C10.5205 6.86858 10.5394 6.79129 10.5428 6.71255C10.5463 6.63381 10.5342 6.55516 10.5072 6.4811C10.4803 6.40703 10.439 6.339 10.3858 6.28088C10.3325 6.22277 10.2684 6.17571 10.1969 6.14239C10.1255 6.10907 10.0482 6.09015 9.96948 6.0867C9.89074 6.08325 9.81209 6.09535 9.73803 6.1223C4.12203 8.1623 2.79003 13.5455 3.30843 17.1827C3.33102 17.3402 3.41528 17.4823 3.54265 17.5778C3.67003 17.6732 3.83009 17.7141 3.98763 17.6915C4.14517 17.6689 4.28728 17.5846 4.38269 17.4573C4.47811 17.3299 4.51902 17.1698 4.49643 17.0123C4.02723 13.7267 5.24283 9.0323 10.1484 7.2503Z" fill="#35383F" stroke="black" stroke-width="0.4"/>
</g>
<mask id="mask1_1122_23733" style="mask-type:alpha" maskUnits="userSpaceOnUse" x="0" y="0" width="12" height="24">
<rect width="11.5" height="24" fill="#D9D9D9"/>
</mask>
<g mask="url(#mask1_1122_23733)">
<path d="M7 3H5C4.46957 3 3.96086 3.21071 3.58579 3.58579C3.21071 3.96086 3 4.46957 3 5V7M17 3H19C19.5304 3 20.0391 3.21071 20.4142 3.58579C20.7893 3.96086 21 4.46957 21 5V7M16 8V10M8 8V10M9 16C9 16 10 17 12 17C14 17 15 16 15 16M12 8L11 13H12M7 21H5C4.46957 21 3.96086 20.7893 3.58579 20.4142C3.21071 20.0391 3 19.5304 3 19V17M17 21H19C19.5304 21 20.0391 20.7893 20.4142 20.4142C20.7893 20.0391 21 19.5304 21 19V17" stroke="#35383F" stroke-width="2" stroke-linecap="round" stroke-linejoin="round"/>
</g>
</svg>
