<svg width="12" height="12" viewBox="0 0 12 12" fill="none" xmlns="http://www.w3.org/2000/svg">
<rect width="12" height="12" rx="6" fill="white"/>
<path d="M5.68579 10.1667C5.53187 10.1419 5.37722 10.1204 5.22404 10.0917C4.50571 9.95996 3.8361 9.63359 3.28647 9.14731C2.55449 8.50491 2.08145 7.70093 1.90975 6.73648C1.67322 5.40763 1.98698 4.21487 2.85436 3.18444C3.37205 2.5696 4.02549 2.15345 4.78674 1.91426C5.16636 1.79594 5.56104 1.73443 5.95825 1.73168C6.02252 1.73168 6.08697 1.73168 6.17736 1.73168L5.73861 1.34511C5.65372 1.27031 5.64772 1.14006 5.72532 1.05773C5.78516 0.994253 5.84481 0.930928 5.90478 0.867255C5.98016 0.787217 6.10601 0.783024 6.18654 0.857877L7.4937 2.07285L6.30618 3.35059C6.22995 3.43261 6.10123 3.43607 6.02071 3.35826L5.82766 3.17172C5.75003 3.0967 5.74594 2.97361 5.81842 2.89361L6.16736 2.50849C5.04308 2.38908 3.43076 3.06166 2.80657 4.71574C2.51794 5.47313 2.50309 6.3094 2.76463 7.0768C3.02617 7.84421 3.54728 8.49337 4.2359 8.90962C5.7797 9.84932 7.68226 9.42643 8.73189 8.03253C9.73434 6.70103 9.69108 4.62817 8.24797 3.33467C8.16725 3.26231 8.15209 3.13985 8.21838 3.05407C8.25368 3.00839 8.28905 2.96267 8.32422 2.91694L8.42647 2.78408C8.49832 2.69072 8.63534 2.67888 8.72294 2.75765C8.81601 2.84136 8.90706 2.92409 8.99156 3.0133C9.57241 3.62383 9.9521 4.34552 10.0955 5.18006C10.3098 6.42625 10.0436 7.56409 9.26976 8.56321C8.6678 9.34039 7.87822 9.83376 6.92916 10.061C6.75339 10.1031 6.57169 10.1194 6.39203 10.1487C6.37167 10.1535 6.35167 10.1597 6.3322 10.1674L5.68579 10.1667Z" fill="#17A53C"/>
<path d="M5.74347 8.09976C5.74347 7.98522 5.74014 7.8825 5.74477 7.77996C5.74791 7.7121 5.73032 7.68624 5.65716 7.6733C5.27802 7.61032 4.95685 7.44442 4.7407 7.10907C4.69421 7.03671 4.65791 6.95779 4.61105 6.8695L5.22227 6.60576C5.49657 7.0369 6.03574 7.19755 6.4836 6.98347C6.53085 6.96069 6.57453 6.93101 6.61325 6.89537C6.74828 6.76997 6.74068 6.54765 6.57769 6.46742C6.42359 6.3915 6.24949 6.35232 6.08057 6.31352C5.8296 6.25578 5.56918 6.23348 5.32414 6.15831C4.96796 6.0494 4.78219 5.7834 4.76848 5.40606C4.75552 5.04728 4.90554 4.76872 5.21949 4.60133C5.38007 4.51566 5.55955 4.46598 5.74495 4.39513V4.04834H6.40322V4.42231C6.8144 4.49392 7.13409 4.68999 7.30727 5.09564L6.75458 5.35564C6.48101 5.00772 6.12113 4.97061 5.72921 5.06133C5.65782 5.07936 5.59155 5.11395 5.53565 5.16237C5.39674 5.28159 5.41934 5.48104 5.58807 5.5489C5.72865 5.60514 5.88349 5.62613 6.0326 5.658C6.29338 5.71423 6.56121 5.74516 6.81477 5.82389C7.15761 5.93055 7.36913 6.17368 7.40302 6.54783C7.44173 6.97466 7.28541 7.30683 6.90608 7.50797C6.77254 7.57864 6.61955 7.61407 6.47286 7.65624C6.42433 7.67011 6.40618 7.68455 6.40711 7.7346C6.4097 7.85513 6.40803 7.97566 6.40803 8.10051L5.74347 8.09976Z" fill="#17A53C"/>
</svg>
