<svg width="16" height="16" viewBox="0 0 16 16" fill="none" xmlns="http://www.w3.org/2000/svg">
<path d="M2 13.6875C2 14.4121 2.58789 15 3.3125 15H12.9375C13.6621 15 14.25 14.4121 14.25 13.6875V6.25H2V13.6875ZM3.75 8.4375C3.75 8.19688 3.94687 8 4.1875 8H12.0625C12.3031 8 12.5 8.19688 12.5 8.4375V10.1875C12.5 10.4281 12.3031 10.625 12.0625 10.625H4.1875C3.94687 10.625 3.75 10.4281 3.75 10.1875V8.4375ZM12.9375 2.75H11.625V1.4375C11.625 1.19687 11.4281 1 11.1875 1H10.3125C10.0719 1 9.875 1.19687 9.875 1.4375V2.75H6.375V1.4375C6.375 1.19687 6.17812 1 5.9375 1H5.0625C4.82188 1 4.625 1.19687 4.625 1.4375V2.75H3.3125C2.58789 2.75 2 3.33789 2 4.0625V5.375H14.25V4.0625C14.25 3.33789 13.6621 2.75 12.9375 2.75Z" fill="#464E5C"/>
</svg>
