<svg width="12" height="12" viewBox="0 0 12 12" fill="none" xmlns="http://www.w3.org/2000/svg">
<path fill-rule="evenodd" clip-rule="evenodd" d="M12 6C12 9.31371 9.31371 12 6 12C2.68629 12 0 9.31371 0 6C0 2.68629 2.68629 0 6 0C9.31371 0 12 2.68629 12 6ZM6.69999 9.30486C6.69999 9.69146 6.38659 10.0049 5.99999 10.0049C5.61339 10.0049 5.29999 9.69146 5.29999 9.30486C5.29999 8.91826 5.61339 8.60486 5.99999 8.60486C6.38659 8.60486 6.69999 8.91826 6.69999 9.30486ZM5.29999 7.25C5.29999 7.38807 5.41192 7.5 5.54999 7.5H6.44999C6.58806 7.5 6.69999 7.38807 6.69999 7.25V2.25C6.69999 2.11193 6.58806 2 6.44999 2H5.54999C5.41192 2 5.29999 2.11193 5.29999 2.25V7.25Z" fill="#FF3333"/>
</svg>
