<svg width="12" height="12" viewBox="0 0 12 12" fill="none" xmlns="http://www.w3.org/2000/svg">
<path fill-rule="evenodd" clip-rule="evenodd" d="M6 12C9.31371 12 12 9.31371 12 6C12 2.68629 9.31371 0 6 0C2.68629 0 0 2.68629 0 6C0 9.31371 2.68629 12 6 12ZM5.25 2.00186C5.11193 2.00186 5 2.11379 5 2.25186V7.14175C5 7.27982 5.11193 7.39175 5.25 7.39175H9.24974C9.38781 7.39175 9.49974 7.27982 9.49974 7.14175V6.24175C9.49974 6.10368 9.38781 5.99175 9.24974 5.99175H6.4V2.25186C6.4 2.11379 6.28807 2.00186 6.15 2.00186H5.25Z" fill="#6E7279"/>
</svg>
