<svg width="12" height="12" viewBox="0 0 12 12" fill="none" xmlns="http://www.w3.org/2000/svg">
<path fill-rule="evenodd" clip-rule="evenodd" d="M9 3C9 3 9 0 6 0C3 0 3 3 3 3V4H2C1.44772 4 1 4.44772 1 5V11C1 11.5523 1.44772 12 2 12H10C10.5523 12 11 11.5523 11 11V5C11 4.44772 10.5523 4 10 4H9V3ZM7.6 4V3.01166C7.5968 2.96684 7.58742 2.85287 7.57217 2.76141C7.54058 2.57185 7.48 2.3405 7.3728 2.1261C7.26834 1.91718 7.13364 1.75085 6.95779 1.63362C6.79071 1.52223 6.50502 1.4 6 1.4C5.49498 1.4 5.20929 1.52223 5.04221 1.63362C4.86636 1.75085 4.73166 1.91718 4.6272 2.1261C4.52 2.3405 4.45942 2.57185 4.42783 2.76141C4.41258 2.85287 4.4032 2.96685 4.4 3.01166V4H7.6ZM6.69999 8.6127C7.11844 8.37063 7.39998 7.91819 7.39998 7.4C7.39998 6.6268 6.77317 6 5.99998 6C5.22678 6 4.59998 6.6268 4.59998 7.4C4.59998 7.9182 4.88152 8.37065 5.29999 8.61271V9.75C5.29999 9.88807 5.41192 10 5.54999 10H6.44999C6.58806 10 6.69999 9.88807 6.69999 9.75V8.6127Z" fill="#6E7279"/>
</svg>
