<svg width="46" height="46" viewBox="0 0 46 46" fill="none" xmlns="http://www.w3.org/2000/svg">
<rect width="46" height="46" rx="23" fill="#17A53C"/>
<path d="M22.2454 33.0001C21.876 32.9407 21.5048 32.889 21.1372 32.8202C19.4132 32.504 17.8062 31.7207 16.4871 30.5536C14.7303 29.0119 13.595 27.0823 13.1829 24.7677C12.6153 21.5784 13.3683 18.7158 15.45 16.2428C16.6924 14.7671 18.2607 13.7684 20.0877 13.1943C20.9988 12.9103 21.946 12.7627 22.8993 12.7561C23.0536 12.7561 23.2083 12.7561 23.4252 12.7561L22.6659 12.1359C22.576 12.0625 22.5673 11.928 22.6486 11.8452C22.9017 11.5878 23.1128 11.3985 23.3691 11.136C23.443 11.0603 23.5629 11.0529 23.6441 11.1207L26.5844 13.5749L23.6408 16.366C23.5622 16.4406 23.4384 16.4389 23.3618 16.3623L22.6427 15.6432C22.5639 15.5644 22.5647 15.4364 22.6445 15.3586L23.4012 14.6205C20.7029 14.3339 16.8333 15.9481 15.3353 19.9179C14.6426 21.7356 14.6069 23.7427 15.2346 25.5844C15.8623 27.4262 17.113 28.9842 18.7657 29.9832C22.4708 32.2385 27.0369 31.2235 29.556 27.8782C32.0085 24.6207 31.8532 19.5142 28.1895 16.425C28.1066 16.3551 28.0909 16.2317 28.157 16.1458C28.2966 15.9644 28.4378 15.7826 28.5777 15.6008L29.0105 15.0383C29.0824 14.9449 29.219 14.9336 29.3062 15.0127C29.608 15.2865 29.9077 15.5454 30.1793 15.832C31.5733 17.2973 32.4846 19.0294 32.8286 21.0322C33.3429 24.0231 32.7042 26.7539 30.8469 29.1518C29.4022 31.017 27.5072 32.2011 25.2295 32.7464C24.8076 32.8476 24.3716 32.8868 23.9404 32.9569C23.8915 32.9684 23.8435 32.9835 23.7968 33.0019L22.2454 33.0001Z" fill="white"/>
<path fill-rule="evenodd" clip-rule="evenodd" d="M23 29C26.3137 29 29 26.3137 29 23C29 19.6863 26.3137 17 23 17C19.6863 17 17 19.6863 17 23C17 26.3137 19.6863 29 23 29ZM22.4273 26.7996C22.428 26.8642 22.4286 26.9303 22.4286 26.9985L23.8538 27C23.8538 26.9302 23.8541 26.8611 23.8544 26.7924C23.8551 26.6187 23.8558 26.4482 23.8518 26.2776C23.8499 26.1788 23.8888 26.1503 23.9929 26.1229C24.0473 26.1085 24.1021 26.0945 24.157 26.0805C24.4197 26.0134 24.6851 25.9456 24.922 25.8302C25.7355 25.4331 26.0707 24.7773 25.9877 23.9346C25.915 23.196 25.4614 22.716 24.7261 22.5054C24.3701 22.4036 24.001 22.3423 23.6317 22.281C23.4368 22.2486 23.2418 22.2162 23.0487 22.1779C22.972 22.1628 22.8946 22.1489 22.8171 22.1351C22.5714 22.0911 22.3245 22.0469 22.0953 21.9625C21.7335 21.8285 21.685 21.4348 21.9829 21.1994C22.1028 21.1038 22.2449 21.0355 22.398 20.9999C23.2385 20.8208 24.0103 20.8941 24.597 21.5809L25.7823 21.0676C25.4109 20.2668 24.7253 19.8797 23.8435 19.7383V19H22.4318V19.6846C22.3087 19.728 22.1868 19.7673 22.067 19.8059C21.7997 19.8921 21.5426 19.975 21.3049 20.0917C20.6316 20.4222 20.3098 20.9722 20.3376 21.6805C20.367 22.4255 20.7654 22.9506 21.5293 23.1656C21.8444 23.2546 22.1714 23.3061 22.4988 23.3576C22.7174 23.392 22.9361 23.4264 23.1515 23.472L23.1726 23.4765C23.5282 23.5517 23.8936 23.6289 24.2177 23.7759C24.5672 23.9343 24.5835 24.3732 24.294 24.6208C24.2109 24.6911 24.1172 24.7497 24.0159 24.7947C23.0554 25.2173 21.8991 24.9002 21.3108 24.049L20 24.5697C20.03 24.6217 20.058 24.6721 20.0852 24.721C20.1489 24.8359 20.2081 24.9425 20.2781 25.0427C20.7416 25.7047 21.4304 26.0322 22.2435 26.1566C22.4004 26.1821 22.4381 26.2332 22.4314 26.3672C22.4245 26.5085 22.4258 26.65 22.4273 26.7996Z" fill="white"/>
</svg>
