<svg width="16" height="16" viewBox="0 0 16 16" fill="none" xmlns="http://www.w3.org/2000/svg">
<path fill-rule="evenodd" clip-rule="evenodd" d="M3.47949 14.642L5.32051 13.2674C5.42697 13.1879 5.57303 13.1879 5.67949 13.2674L7.82051 14.866C7.92697 14.9455 8.07303 14.9455 8.17949 14.866L10.3205 13.2674C10.427 13.1879 10.573 13.1879 10.6795 13.2674L12.5205 14.642C12.7184 14.7897 13 14.6485 13 14.4016V1.6C13 1.26863 12.7314 1 12.4 1H3.6C3.26863 1 3 1.26863 3 1.6V14.4016C3 14.6485 3.28164 14.7897 3.47949 14.642ZM5.3 4C5.13431 4 5 4.13431 5 4.3V4.7C5 4.86569 5.13431 5 5.3 5H10.7C10.8657 5 11 4.86569 11 4.7V4.3C11 4.13431 10.8657 4 10.7 4H5.3ZM5 6.3C5 6.13431 5.13431 6 5.3 6H10.7C10.8657 6 11 6.13431 11 6.3V6.7C11 6.86569 10.8657 7 10.7 7H5.3C5.13431 7 5 6.86569 5 6.7V6.3ZM5.3 8C5.13431 8 5 8.13431 5 8.3V8.7C5 8.86569 5.13431 9 5.3 9H10.7C10.8657 9 11 8.86569 11 8.7V8.3C11 8.13431 10.8657 8 10.7 8H5.3Z" fill="white"/>
</svg>
