<svg width="32" height="32" viewBox="0 0 32 32" fill="none" xmlns="http://www.w3.org/2000/svg">
<rect width="32" height="32" rx="16" fill="#464E5C"/>
<path d="M15.9999 10.0741C14.389 10.0741 13.0833 11.3799 13.0833 12.9908C13.0833 14.2931 14.9895 16.6667 15.7198 17.5283C15.8677 17.7028 16.1323 17.7028 16.28 17.5283C17.0103 16.6667 18.9166 14.2931 18.9166 12.9908C18.9166 11.3799 17.6108 10.0741 15.9999 10.0741ZM15.9999 13.963C15.4629 13.963 15.0277 13.5278 15.0277 12.9908C15.0277 12.4537 15.4629 12.0185 15.9999 12.0185C16.537 12.0185 16.9721 12.4537 16.9721 12.9908C16.9721 13.5278 16.537 13.963 15.9999 13.963ZM9.79899 15.0729C9.66153 15.1279 9.5437 15.2228 9.46068 15.3454C9.37767 15.468 9.33328 15.6126 9.33325 15.7607V21.5551C9.33325 21.8172 9.59784 21.9963 9.84112 21.8991L13.037 20.4445V15.0491C12.8323 14.6792 12.665 14.319 12.5451 13.9746L9.79899 15.0729ZM15.9999 18.3998C15.6742 18.3998 15.3661 18.2567 15.1548 18.0072C14.6997 17.4702 14.2157 16.8586 13.7777 16.2313V20.4442L18.2221 21.9257V16.2315C17.7842 16.8586 17.3004 17.4704 16.8451 18.0074C16.6337 18.2567 16.3256 18.3998 15.9999 18.3998ZM22.1587 13.8047L18.9629 15.2593V21.9259L22.2008 20.6308C22.3383 20.5759 22.4562 20.481 22.5392 20.3584C22.6222 20.2358 22.6666 20.0911 22.6666 19.9431V14.1486C22.6666 13.8866 22.402 13.7074 22.1587 13.8047Z" fill="white"/>
</svg>
