<svg width="32" height="32" viewBox="0 0 32 32" fill="none" xmlns="http://www.w3.org/2000/svg">
<rect width="32" height="32" rx="16" fill="#464E5C"/>
<path d="M9.33325 20.0741C9.33325 20.6875 9.83094 21.1852 10.4444 21.1852H21.5555C22.1689 21.1852 22.6666 20.6875 22.6666 20.0741V16H9.33325V20.0741ZM13.7777 18.5C13.7777 18.3472 13.9027 18.2222 14.0555 18.2222H17.2036C17.3564 18.2222 17.4814 18.3472 17.4814 18.5V19.4259C17.4814 19.5787 17.3564 19.7037 17.2036 19.7037H14.0555C13.9027 19.7037 13.7777 19.5787 13.7777 19.4259V18.5ZM10.8147 18.5C10.8147 18.3472 10.9397 18.2222 11.0925 18.2222H12.7592C12.912 18.2222 13.037 18.3472 13.037 18.5V19.4259C13.037 19.5787 12.912 19.7037 12.7592 19.7037H11.0925C10.9397 19.7037 10.8147 19.5787 10.8147 19.4259V18.5ZM22.6666 11.9259V13.037H9.33325V11.9259C9.33325 11.3125 9.83094 10.8148 10.4444 10.8148H21.5555C22.1689 10.8148 22.6666 11.3125 22.6666 11.9259Z" fill="white"/>
</svg>
