<svg width="24" height="24" viewBox="0 0 24 24" fill="none" xmlns="http://www.w3.org/2000/svg">
<path fill-rule="evenodd" clip-rule="evenodd" d="M12.25 21.5C17.359 21.5 21.5 17.359 21.5 12.25C21.5 7.141 17.359 3 12.25 3C7.141 3 3 7.141 3 12.25C3 17.359 7.141 21.5 12.25 21.5ZM12.6616 8.09619C12.6616 7.68198 12.3258 7.34619 11.9116 7.34619C11.4974 7.34619 11.1616 7.68198 11.1616 8.09619V12.9432C11.1616 13.2073 11.3006 13.452 11.5274 13.5873L15.2974 15.8363C15.6531 16.0485 16.1135 15.9322 16.3257 15.5764C16.5379 15.2207 16.4216 14.7603 16.0659 14.5481L12.6616 12.5173V8.09619Z" fill="#757575"/>
</svg>
