<svg width="16" height="16" viewBox="0 0 16 16" fill="none" xmlns="http://www.w3.org/2000/svg">
<path d="M10.9998 2.16666C10.9998 1.94565 10.912 1.73369 10.7558 1.57741C10.5995 1.42113 10.3875 1.33333 10.1665 1.33333C9.94549 1.33333 9.73353 1.42113 9.57725 1.57741C9.42097 1.73369 9.33317 1.94565 9.33317 2.16666V4.66666H10.9998V2.16666ZM12.2498 5.5H3.08317C2.97266 5.5 2.86668 5.54389 2.78854 5.62203C2.7104 5.70017 2.6665 5.80615 2.6665 5.91666V6.75C2.6665 6.8605 2.7104 6.96648 2.78854 7.04462C2.86668 7.12276 2.97266 7.16666 3.08317 7.16666H3.49984V8C3.49998 8.96045 3.83179 9.89139 4.43916 10.6354C5.04653 11.3794 5.89219 11.8909 6.83317 12.0833V14.6667H8.49984V12.0833C9.44082 11.8909 10.2865 11.3794 10.8938 10.6354C11.5012 9.89139 11.833 8.96045 11.8332 8V7.16666H12.2498C12.3603 7.16666 12.4663 7.12276 12.5445 7.04462C12.6226 6.96648 12.6665 6.8605 12.6665 6.75V5.91666C12.6665 5.80615 12.6226 5.70017 12.5445 5.62203C12.4663 5.54389 12.3603 5.5 12.2498 5.5ZM5.99984 2.16666C5.99984 1.94565 5.91204 1.73369 5.75576 1.57741C5.59948 1.42113 5.38752 1.33333 5.1665 1.33333C4.94549 1.33333 4.73353 1.42113 4.57725 1.57741C4.42097 1.73369 4.33317 1.94565 4.33317 2.16666V4.66666H5.99984V2.16666Z" fill="white"/>
</svg>
