<svg width="16" height="16" viewBox="0 0 16 16" fill="none" xmlns="http://www.w3.org/2000/svg">
<path d="M1.33337 12.0741C1.33337 12.6875 1.83106 13.1852 2.44449 13.1852H13.5556C14.169 13.1852 14.6667 12.6875 14.6667 12.0741V7.33334H1.33337V12.0741ZM5.77782 10.5C5.77782 10.3472 5.90282 10.2222 6.0556 10.2222H9.20374C9.35652 10.2222 9.48152 10.3472 9.48152 10.5V11.4259C9.48152 11.5787 9.35652 11.7037 9.20374 11.7037H6.0556C5.90282 11.7037 5.77782 11.5787 5.77782 11.4259V10.5ZM2.81486 10.5C2.81486 10.3472 2.93986 10.2222 3.09263 10.2222H4.7593C4.91208 10.2222 5.03708 10.3472 5.03708 10.5V11.4259C5.03708 11.5787 4.91208 11.7037 4.7593 11.7037H3.09263C2.93986 11.7037 2.81486 11.5787 2.81486 11.4259V10.5ZM14.6667 3.92593V5.70371H1.33337V3.92593C1.33337 3.3125 1.83106 2.81482 2.44449 2.81482H13.5556C14.169 2.81482 14.6667 3.3125 14.6667 3.92593Z" fill="white"/>
</svg>
