<svg width="16" height="16" viewBox="0 0 16 16" fill="none" xmlns="http://www.w3.org/2000/svg">
<path d="M13.6667 10.7083V1.95831C13.6667 1.61196 13.388 1.33331 13.0417 1.33331H4.5C3.11979 1.33331 2 2.4531 2 3.83331V12.1666C2 13.5469 3.11979 14.6666 4.5 14.6666H13.0417C13.388 14.6666 13.6667 14.388 13.6667 14.0416V13.625C13.6667 13.4297 13.5755 13.2526 13.4349 13.138C13.3255 12.737 13.3255 11.5937 13.4349 11.1927C13.5755 11.0807 13.6667 10.9036 13.6667 10.7083ZM5.33333 4.8229C5.33333 4.73696 5.40365 4.66665 5.48958 4.66665H11.0104C11.0964 4.66665 11.1667 4.73696 11.1667 4.8229V5.34373C11.1667 5.42967 11.0964 5.49998 11.0104 5.49998H5.48958C5.40365 5.49998 5.33333 5.42967 5.33333 5.34373V4.8229ZM5.33333 6.48956C5.33333 6.40363 5.40365 6.33331 5.48958 6.33331H11.0104C11.0964 6.33331 11.1667 6.40363 11.1667 6.48956V7.0104C11.1667 7.09633 11.0964 7.16665 11.0104 7.16665H5.48958C5.40365 7.16665 5.33333 7.09633 5.33333 7.0104V6.48956ZM11.9323 13H4.5C4.03906 13 3.66667 12.6276 3.66667 12.1666C3.66667 11.7083 4.04167 11.3333 4.5 11.3333H11.9323C11.8828 11.7786 11.8828 12.5547 11.9323 13Z" fill="white"/>
</svg>
