<svg width="76" height="76" viewBox="0 0 76 76" fill="none" xmlns="http://www.w3.org/2000/svg">
    <path d="M8 49V66.5C8 69.5376 10.4624 72 13.5 72H55V49C53.6667 49.6667 51.7 51 50.5 51C49 51 47.5 49 46 49C44.5 49 42.5 51 41 51C39.5 51 38 49 36.5 49C35 49 33 51 31.5 51C30 51 28.5 49 27 49C25.5 49 23.5 51 22 51C20.5 51 18.5 49 17 49C15.5 49 14 51 12.5 51C11.3 51 8.66667 49.6667 8 49Z" fill="#CACCCE" stroke="#6E7279" stroke-width="2" stroke-linejoin="round"/>
    <path d="M19 66.5V4C19.6667 4.66667 22.3 6 23.5 6C25 6 26.5 4 28 4C29.5 4 31.5 6 33 6C34.5 6 36.5 4 38 4C39.5 4 41 6 42.5 6C44 6 46 4 47.5 4C49 4 50.5 6 52 6C53.5 6 55.5 4 57 4C58.5 4 60 6 61.5 6C62.7 6 64.6667 4.66667 66 4V66.5C66 69.5376 63.5376 72 60.5 72H13.5C16.5376 72 19 69.5376 19 66.5Z" fill="#F7F8F9" stroke="#6E7279" stroke-width="2" stroke-linejoin="round"/>
    <rect x="30" y="15" width="25" height="7" rx="2" fill="#CACCCE"/>
    <rect x="25" y="28" width="35" height="4" rx="2" fill="#CACCCE"/>
    <rect x="25" y="52" width="16" height="4" rx="2" fill="#CACCCE"/>
    <rect x="25" y="35" width="35" height="4" rx="2" fill="#CACCCE"/>
    <rect x="25" y="59" width="16" height="4" rx="2" fill="#CACCCE"/>
    <rect x="25" y="42" width="35" height="4" rx="2" fill="#CACCCE"/>
    <circle cx="60" cy="63" r="12" fill="#17A53C"/>
    <path d="M59.908 71C59.6587 71 59.4495 70.9147 59.2805 70.744C59.1122 70.5739 59.028 70.363 59.028 70.1111V69.0889C58.368 68.9407 57.7886 68.6815 57.29 68.3111C56.7913 67.9407 56.388 67.4222 56.08 66.7556C55.9773 66.5481 55.9735 66.3298 56.0685 66.1004C56.1642 65.8705 56.3366 65.7037 56.586 65.6C56.7913 65.5111 57.004 65.515 57.224 65.6116C57.444 65.7076 57.6126 65.8667 57.73 66.0889C57.9793 66.5333 58.2946 66.8705 58.676 67.1004C59.0573 67.3298 59.5267 67.4444 60.084 67.4444C60.6853 67.4444 61.1951 67.3076 61.6134 67.0338C62.0311 66.7594 62.24 66.3333 62.24 65.7556C62.24 65.237 62.0787 64.8258 61.756 64.5218C61.4333 64.2184 60.6853 63.8741 59.512 63.4889C58.2506 63.0889 57.3853 62.6113 56.916 62.056C56.4466 61.5001 56.212 60.8222 56.212 60.0222C56.212 59.0593 56.52 58.3111 57.136 57.7778C57.752 57.2444 58.3826 56.9407 59.028 56.8667V55.8889C59.028 55.637 59.1122 55.4258 59.2805 55.2551C59.4495 55.085 59.6587 55 59.908 55C60.1573 55 60.3665 55.085 60.5354 55.2551C60.7038 55.4258 60.788 55.637 60.788 55.8889V56.8667C61.3453 56.9556 61.8293 57.1372 62.24 57.4116C62.6507 57.6853 62.988 58.0222 63.252 58.4222C63.384 58.6148 63.4098 58.8296 63.3294 59.0667C63.2485 59.3037 63.0833 59.4741 62.834 59.5778C62.6287 59.6667 62.416 59.6702 62.196 59.5884C61.976 59.5073 61.7707 59.363 61.58 59.1556C61.3893 58.9481 61.1658 58.7887 60.9094 58.6773C60.6525 58.5665 60.3333 58.5111 59.952 58.5111C59.3066 58.5111 58.8153 58.6557 58.478 58.9449C58.1406 59.2335 57.972 59.5926 57.972 60.0222C57.972 60.5111 58.192 60.8963 58.632 61.1778C59.072 61.4593 59.8347 61.7556 60.92 62.0667C61.932 62.363 62.6985 62.8332 63.2194 63.4773C63.7398 64.1221 64 64.8667 64 65.7111C64 66.763 63.692 67.563 63.076 68.1111C62.46 68.6593 61.6973 69 60.788 69.1333V70.1111C60.788 70.363 60.7038 70.5739 60.5354 70.744C60.3665 70.9147 60.1573 71 59.908 71V71Z" fill="white"/>
</svg>
