<svg width="16" height="16" viewBox="0 0 16 16" fill="none" xmlns="http://www.w3.org/2000/svg">
<path fill-rule="evenodd" clip-rule="evenodd" d="M8 3C12.2 3 15 6.57143 15 8C15 9.42857 12.2 13 8 13C3.8 13 1 9.42857 1 8C1 6.57143 3.8 3 8 3ZM11.5 8C11.5 9.97245 9.933 11.5714 8 11.5714C6.067 11.5714 4.5 9.97245 4.5 8C4.5 6.02755 6.067 4.42857 8 4.42857C9.933 4.42857 11.5 6.02755 11.5 8ZM8 10.1429C9.1598 10.1429 10.1 9.18347 10.1 8C10.1 6.81653 9.1598 5.85714 8 5.85714C6.8402 5.85714 5.9 6.81653 5.9 8C5.9 9.18347 6.8402 10.1429 8 10.1429Z" fill="#35383F"/>
</svg>
