<svg width="76" height="76" viewBox="0 0 76 76" fill="none" xmlns="http://www.w3.org/2000/svg">
<path fill-rule="evenodd" clip-rule="evenodd" d="M9.67561 9.67561C11.3087 8.04248 13.5237 7.125 15.8333 7.125H22.1667C23.4783 7.125 24.5417 8.18832 24.5417 9.5C24.5417 10.8117 23.4783 11.875 22.1667 11.875H15.8333C14.7835 11.875 13.7767 12.292 13.0344 13.0344C12.292 13.7767 11.875 14.7835 11.875 15.8333V22.1667C11.875 23.4783 10.8117 24.5417 9.5 24.5417C8.18832 24.5417 7.125 23.4783 7.125 22.1667V15.8333C7.125 13.5237 8.04248 11.3087 9.67561 9.67561ZM51.4583 9.5C51.4583 8.18832 52.5217 7.125 53.8333 7.125H60.1667C62.4763 7.125 64.6913 8.04248 66.3244 9.67561C67.9575 11.3087 68.875 13.5237 68.875 15.8333V22.1667C68.875 23.4783 67.8117 24.5417 66.5 24.5417C65.1883 24.5417 64.125 23.4783 64.125 22.1667V15.8333C64.125 14.7835 63.708 13.7767 62.9656 13.0344C62.2233 12.292 61.2165 11.875 60.1667 11.875H53.8333C52.5217 11.875 51.4583 10.8117 51.4583 9.5ZM38.4658 23.0045C39.752 23.2617 40.5861 24.5129 40.3289 25.7991L37.7304 38.7917H38C39.3117 38.7917 40.375 39.855 40.375 41.1667C40.375 42.4783 39.3117 43.5417 38 43.5417H34.8333C34.1218 43.5417 33.4478 43.2226 32.9966 42.6724C32.5455 42.1221 32.3649 41.3986 32.5045 40.7009L35.6711 24.8676C35.9284 23.5814 37.1796 22.7472 38.4658 23.0045ZM25.3333 22.9583C26.645 22.9583 27.7083 24.0217 27.7083 25.3333V31.6667C27.7083 32.9783 26.645 34.0417 25.3333 34.0417C24.0217 34.0417 22.9583 32.9783 22.9583 31.6667V25.3333C22.9583 24.0217 24.0217 22.9583 25.3333 22.9583ZM50.6667 22.9583C51.9783 22.9583 53.0417 24.0217 53.0417 25.3333V31.6667C53.0417 32.9783 51.9783 34.0417 50.6667 34.0417C49.355 34.0417 48.2917 32.9783 48.2917 31.6667V25.3333C48.2917 24.0217 49.355 22.9583 50.6667 22.9583ZM30.1778 48.9857C30.1778 48.9857 30.1778 48.9857 30.1778 48.9857L30.1755 48.9834L30.1684 48.9764L30.1618 48.9699C30.1588 48.967 30.159 48.9673 30.1618 48.9699C30.1619 48.97 30.1617 48.9698 30.1618 48.9699C30.1677 48.9754 30.1846 48.991 30.2124 49.0154C30.2692 49.0651 30.3714 49.151 30.5187 49.2615C30.8137 49.4827 31.2868 49.8006 31.9371 50.1257C33.23 50.7722 35.2436 51.4583 38 51.4583C40.7564 51.4583 42.77 50.7722 44.0629 50.1257C44.7132 49.8006 45.1863 49.4827 45.4813 49.2615C45.6286 49.151 45.7308 49.0651 45.7876 49.0154C45.816 48.9905 45.833 48.9748 45.8385 48.9696C45.8413 48.967 45.8415 48.9667 45.8385 48.9696L45.8316 48.9764L45.8266 48.9813L45.8238 48.9841C46.7514 48.0583 48.2524 48.0603 49.1794 48.9873C50.1069 49.9148 50.1069 51.4186 49.1794 52.346L47.5 50.6667C49.1794 52.346 49.1802 52.3452 49.1794 52.346L49.1722 52.3532L49.1638 52.3615L49.1432 52.3816L49.0872 52.4349C49.0433 52.4761 48.9861 52.5284 48.9155 52.5901C48.7745 52.7135 48.5798 52.8751 48.3312 53.0615C47.8346 53.434 47.1201 53.9078 46.1871 54.3743C44.3134 55.3111 41.577 56.2083 38 56.2083C34.423 56.2083 31.6866 55.3111 29.8129 54.3743C28.8799 53.9078 28.1654 53.434 27.6688 53.0615C27.4202 52.8751 27.2255 52.7135 27.0845 52.5901C27.0139 52.5284 26.9567 52.4761 26.9128 52.4349L26.8568 52.3816L26.8362 52.3615L26.8278 52.3532L26.8241 52.3495C26.8232 52.3486 26.8206 52.346 28.5 50.6667L26.8206 52.346C25.8931 51.4186 25.8931 49.9148 26.8206 48.9873C27.7423 48.0656 29.233 48.0598 30.1618 48.9699M30.1755 48.9834L30.1778 48.9857C30.1778 48.9857 30.1778 48.9857 30.1778 48.9857M9.5 51.4583C10.8117 51.4583 11.875 52.5217 11.875 53.8333V60.1667C11.875 61.2165 12.292 62.2233 13.0344 62.9656C13.7767 63.708 14.7835 64.125 15.8333 64.125H22.1667C23.4783 64.125 24.5417 65.1883 24.5417 66.5C24.5417 67.8117 23.4783 68.875 22.1667 68.875H15.8333C13.5237 68.875 11.3087 67.9575 9.67561 66.3244C8.04248 64.6913 7.125 62.4763 7.125 60.1667V53.8333C7.125 52.5217 8.18832 51.4583 9.5 51.4583ZM66.5 51.4583C67.8117 51.4583 68.875 52.5217 68.875 53.8333V60.1667C68.875 62.4763 67.9575 64.6913 66.3244 66.3244C64.6913 67.9575 62.4763 68.875 60.1667 68.875H53.8333C52.5217 68.875 51.4583 67.8117 51.4583 66.5C51.4583 65.1883 52.5217 64.125 53.8333 64.125H60.1667C61.2165 64.125 62.2233 63.708 62.9656 62.9656C63.708 62.2233 64.125 61.2165 64.125 60.1667V53.8333C64.125 52.5217 65.1883 51.4583 66.5 51.4583Z" fill="#17A53C"/>
</svg>
