<svg width="76" height="76" viewBox="0 0 76 76" fill="none" xmlns="http://www.w3.org/2000/svg">
<rect width="76" height="76" rx="38" fill="#FF3333"/>
<path d="M42.5017 38.0002L49.2536 31.2484C50.0821 30.4198 50.0821 29.0765 49.2536 28.2472L47.753 26.7467C46.9245 25.9181 45.5811 25.9181 44.7519 26.7467L38 33.4985L31.2481 26.7467C30.4196 25.9181 29.0762 25.9181 28.247 26.7467L26.7464 28.2472C25.9179 29.0758 25.9179 30.4191 26.7464 31.2484L33.4983 38.0002L26.7464 44.7521C25.9179 45.5807 25.9179 46.924 26.7464 47.7533L28.247 49.2538C29.0755 50.0824 30.4196 50.0824 31.2481 49.2538L38 42.5019L44.7519 49.2538C45.5804 50.0824 46.9245 50.0824 47.753 49.2538L49.2536 47.7533C50.0821 46.9247 50.0821 45.5814 49.2536 44.7521L42.5017 38.0002Z" fill="white"/>
</svg>
