<svg width="76" height="76" viewBox="0 0 76 76" fill="none" xmlns="http://www.w3.org/2000/svg">
<rect width="76" height="76" rx="38" fill="#6E7279"/>
<path d="M42.2647 38L48.6612 31.6035C49.4461 30.8185 49.4461 29.5459 48.6612 28.7603L47.2396 27.3387C46.4546 26.5538 45.182 26.5538 44.3964 27.3387L37.9999 33.7352L31.6034 27.3387C30.8184 26.5538 29.5458 26.5538 28.7602 27.3387L27.3386 28.7603C26.5536 29.5452 26.5536 30.8179 27.3386 31.6035L33.7351 38L27.3386 44.3965C26.5536 45.1815 26.5536 46.4541 27.3386 47.2397L28.7602 48.6613C29.5451 49.4462 30.8184 49.4462 31.6034 48.6613L37.9999 42.2648L44.3964 48.6613C45.1813 49.4462 46.4546 49.4462 47.2396 48.6613L48.6612 47.2397C49.4461 46.4548 49.4461 45.1821 48.6612 44.3965L42.2647 38Z" fill="white"/>
</svg>
