<svg width="24" height="24" viewBox="0 0 24 24" fill="none" xmlns="http://www.w3.org/2000/svg">
<path d="M23.1429 18.9375H22.7143V17.6719C22.7143 16.1988 21.4964 15 20 15C18.5036 15 17.2857 16.1988 17.2857 17.6719V18.9375H16.8571C16.3839 18.9375 16 19.3154 16 19.7812V23.1562C16 23.6221 16.3839 24 16.8571 24H23.1429C23.6161 24 24 23.6221 24 23.1562V19.7812C24 19.3154 23.6161 18.9375 23.1429 18.9375ZM21.2857 18.9375H18.7143V17.6719C18.7143 16.974 19.2911 16.4062 20 16.4062C20.7089 16.4062 21.2857 16.974 21.2857 17.6719V18.9375Z" fill="#35383F"/>
<path fill-rule="evenodd" clip-rule="evenodd" d="M13.25 2V7.3125C13.25 7.82812 13.6719 8.25 14.1875 8.25H19.5V14.0332C17.698 14.2746 16.2857 15.8017 16.2857 17.6719V18.0269C15.5466 18.2647 15 18.9513 15 19.7812V22H5.4375C4.91797 22 4.5 21.582 4.5 21.0625V2.9375C4.5 2.41797 4.91797 2 5.4375 2H13.25ZM19.5 15.0455C18.2415 15.2772 17.2857 16.3669 17.2857 17.6719V18.9375H16.8571C16.3839 18.9375 16 19.3154 16 19.7812V22H18.5625C19.082 22 19.5 21.582 19.5 21.0625V18.9375H18.7143V17.6719C18.7143 17.1485 19.0387 16.6983 19.5 16.5059V15.0455ZM15.2812 17C15.5391 17 15.75 16.7891 15.75 16.5312V16.2188C15.75 15.9609 15.5391 15.75 15.2812 15.75H8.71875C8.46094 15.75 8.25 15.9609 8.25 16.2188V16.5312C8.25 16.7891 8.46094 17 8.71875 17H15.2812ZM15.2812 14.5C15.5391 14.5 15.75 14.2891 15.75 14.0312V13.7188C15.75 13.4609 15.5391 13.25 15.2812 13.25H8.71875C8.46094 13.25 8.25 13.4609 8.25 13.7188V14.0312C8.25 14.2891 8.46094 14.5 8.71875 14.5H15.2812ZM15.75 11.5312V11.2188C15.75 10.9609 15.5391 10.75 15.2812 10.75H8.71875C8.46094 10.75 8.25 10.9609 8.25 11.2188V11.5312C8.25 11.7891 8.46094 12 8.71875 12H15.2812C15.5391 12 15.75 11.7891 15.75 11.5312ZM19.5 7V6.76172C19.5 6.51562 19.4023 6.27734 19.2266 6.10156L15.4023 2.27344C15.2266 2.09766 14.9883 2 14.7383 2H14.5V7H19.5Z" fill="#35383F"/>
</svg>
