<svg width="16" height="16" viewBox="0 0 16 16" fill="none" xmlns="http://www.w3.org/2000/svg">
<path d="M8.00353 7.73822C7.65848 7.73822 7.37853 8.0179 7.37853 8.36322C7.40822 10.2447 7.16655 12.0585 6.65718 13.8723C6.58608 14.1255 6.71317 14.6663 7.25926 14.6663C7.53218 14.6663 7.78296 14.4861 7.86056 14.2101C8.21291 12.9624 8.6689 10.9442 8.62827 8.36322C8.62853 8.01816 8.34884 7.73822 8.00353 7.73822V7.73822ZM7.98114 5.60983C6.38582 5.60801 5.27254 6.83561 5.29468 8.24238C5.31421 9.49082 5.19702 10.74 4.9465 11.9546C4.87645 12.2926 5.09416 12.6236 5.43192 12.6932C5.77176 12.7627 6.10041 12.5458 6.17046 12.2077C6.43973 10.9033 6.56551 9.56244 6.54468 8.22285C6.534 7.54707 7.06343 6.85592 7.96265 6.85983C8.77801 6.87207 9.45093 7.51973 9.46317 8.30436C9.48322 9.55566 9.38999 10.813 9.18687 12.0426C9.13036 12.3827 9.36108 12.7046 9.70145 12.7609C10.2215 12.8476 10.3996 12.3676 10.4197 12.246C10.6353 10.9432 10.7337 9.61035 10.7132 8.28483C10.6903 6.83171 9.46473 5.6317 7.98114 5.60983V5.60983ZM5.09858 5.09473C4.83035 4.87754 4.43791 4.91764 4.21942 5.18535C3.55223 6.00566 3.19364 7.0416 3.2103 8.10202C3.22567 9.08066 3.14598 10.0622 2.97306 11.02C2.91213 11.3598 3.13739 11.6848 3.47723 11.7463C4.00093 11.8374 4.18218 11.3606 4.20353 11.2421C4.39077 10.2046 4.47697 9.1416 4.4603 8.08249C4.44806 7.30436 4.69989 6.57519 5.18947 5.97389C5.40692 5.70618 5.36629 5.31269 5.09858 5.09473ZM7.94937 3.47155C7.54806 3.46087 7.14546 3.50905 6.75718 3.60098C6.4215 3.68066 6.21369 4.01712 6.29285 4.35332C6.37254 4.689 6.70952 4.89577 7.0452 4.81764C7.33296 4.74967 7.63036 4.71947 7.93062 4.72155C9.89494 4.75098 11.5173 6.32311 11.5473 8.22624C11.5626 9.2127 11.5139 10.2083 11.402 11.1854C11.3629 11.5283 11.609 11.8385 11.9517 11.8775C12.3871 11.9283 12.616 11.5682 12.6439 11.3278C12.7622 10.2918 12.8135 9.24929 12.7973 8.20671C12.7567 5.63509 10.5819 3.51061 7.94937 3.47155V3.47155ZM14.5137 6.63431C14.4392 6.29785 14.1098 6.08223 13.7686 6.15853C13.4317 6.23301 13.2186 6.56634 13.2931 6.90358C13.4158 7.46113 13.421 7.8778 13.4155 8.50775C13.4126 8.85332 13.6903 9.13509 14.0353 9.13796H14.0405C14.3835 9.13796 14.6626 8.86165 14.6655 8.51816C14.6702 7.94056 14.6759 7.36947 14.5137 6.63431ZM13.4689 4.27181C12.2007 2.46478 10.1254 1.3666 7.91733 1.33353C6.09989 1.31165 4.4189 1.9817 3.16864 3.23249C1.96108 4.4416 1.3103 6.04759 1.33739 7.75618L1.33426 8.3153C1.3241 8.66035 1.59546 8.94837 1.94051 8.95827C1.9465 8.95879 1.95301 8.95879 1.95926 8.95879C2.29572 8.95879 2.57358 8.69056 2.58348 8.35202L2.58765 7.73639C2.56603 6.36921 3.0866 5.08379 4.05327 4.1166C5.06265 3.10618 6.43192 2.56269 7.8991 2.58379C9.7077 2.61061 11.4077 3.50983 12.4465 4.98978C12.6447 5.27259 13.034 5.34004 13.3168 5.14238C13.5991 4.94394 13.6673 4.5541 13.4689 4.27181V4.27181Z" fill="white"/>
</svg>
