<svg width="32" height="24" viewBox="0 0 32 24" fill="none" xmlns="http://www.w3.org/2000/svg">
<rect width="32" height="24" rx="6" fill="#30C6E0"/>
<path fill-rule="evenodd" clip-rule="evenodd" d="M16.8895 16.5234C19.2995 16.5234 21.2532 14.591 21.2532 12.2074C21.2532 9.8237 19.2995 7.89136 16.8895 7.89136C14.4795 7.89136 12.5259 9.8237 12.5259 12.2074C12.5259 14.591 14.4795 16.5234 16.8895 16.5234Z" fill="#FFCD4B"/>
<path fill-rule="evenodd" clip-rule="evenodd" d="M15.1087 19.9216L16.8889 17.2933L18.6691 19.9216L19.12 16.7896L21.8768 18.3937L20.9092 15.3784L24.0967 15.6405L21.9021 13.3391L24.8889 12.2073L21.9021 11.0756L24.0967 8.77415L20.9092 9.03626L21.8768 6.02095L19.12 7.62501L18.6691 4.49304L16.8889 7.12134L15.1087 4.49304L14.6578 7.62501L11.901 6.02095L12.8686 9.03626L9.68117 8.77415L11.8757 11.0756L8.88892 12.2073L11.8757 13.3391L9.68117 15.6405L12.8686 15.3784L11.901 18.3937L14.6578 16.7896L15.1087 19.9216ZM21.9798 12.2074C21.9798 14.9883 19.7005 17.2427 16.8889 17.2427C14.0773 17.2427 11.798 14.9883 11.798 12.2074C11.798 9.42641 14.0773 7.17201 16.8889 7.17201C19.7005 7.17201 21.9798 9.42641 21.9798 12.2074Z" fill="#FFCD4B"/>
<path fill-rule="evenodd" clip-rule="evenodd" d="M1.52417 3.23336C1.52417 3.04926 1.67341 2.90002 1.8575 2.90002H2.71465C2.89874 2.90002 3.04798 3.04926 3.04798 3.23336V3.96669C3.04798 4.15079 2.89874 4.30002 2.71465 4.30002H1.8575C1.67341 4.30002 1.52417 4.15079 1.52417 3.96669V3.23336ZM1.52417 6.03329C1.52417 5.8492 1.67341 5.69996 1.8575 5.69996H2.71465C2.89874 5.69996 3.04798 5.8492 3.04798 6.03329V6.76663C3.04798 6.95072 2.89874 7.09996 2.71465 7.09996H1.8575C1.67341 7.09996 1.52417 6.95072 1.52417 6.76663V6.03329ZM1.8575 8.50004C1.67341 8.50004 1.52417 8.64928 1.52417 8.83337V9.56671C1.52417 9.7508 1.67341 9.90004 1.8575 9.90004H2.71465C2.89874 9.90004 3.04798 9.7508 3.04798 9.56671V8.83337C3.04798 8.64928 2.89874 8.50004 2.71465 8.50004H1.8575ZM1.52417 11.6333C1.52417 11.4492 1.67341 11.3 1.8575 11.3H2.71465C2.89874 11.3 3.04798 11.4492 3.04798 11.6333V12.3667C3.04798 12.5507 2.89874 12.7 2.71465 12.7H1.8575C1.67341 12.7 1.52417 12.5507 1.52417 12.3667V11.6333ZM1.8575 14.1C1.67341 14.1 1.52417 14.2492 1.52417 14.4333V15.1666C1.52417 15.3507 1.67341 15.5 1.8575 15.5H2.71465C2.89874 15.5 3.04798 15.3507 3.04798 15.1666V14.4333C3.04798 14.2492 2.89874 14.1 2.71465 14.1H1.8575ZM1.52417 17.2334C1.52417 17.0493 1.67341 16.9001 1.8575 16.9001H2.71465C2.89874 16.9001 3.04798 17.0493 3.04798 17.2334V17.9667C3.04798 18.1508 2.89874 18.3001 2.71465 18.3001H1.8575C1.67341 18.3001 1.52417 18.1508 1.52417 17.9667V17.2334ZM1.8575 19.7C1.67341 19.7 1.52417 19.8492 1.52417 20.0333V20.7667C1.52417 20.9508 1.67341 21.1 1.8575 21.1H2.71465C2.89874 21.1 3.04798 20.9508 3.04798 20.7667V20.0333C3.04798 19.8492 2.89874 19.7 2.71465 19.7H1.8575ZM3.04761 18.6334C3.04761 18.4493 3.19685 18.3 3.38094 18.3H4.23808C4.42218 18.3 4.57142 18.4493 4.57142 18.6334V19.3667C4.57142 19.5508 4.42218 19.7 4.23808 19.7H3.38094C3.19685 19.7 3.04761 19.5508 3.04761 19.3667V18.6334ZM3.38094 15.5C3.19685 15.5 3.04761 15.6493 3.04761 15.8334V16.5667C3.04761 16.7508 3.19685 16.9 3.38094 16.9H4.23808C4.42218 16.9 4.57142 16.7508 4.57142 16.5667V15.8334C4.57142 15.6493 4.42218 15.5 4.23808 15.5H3.38094ZM3.04761 13.0333C3.04761 12.8492 3.19685 12.7 3.38094 12.7H4.23808C4.42218 12.7 4.57142 12.8492 4.57142 13.0333V13.7667C4.57142 13.9508 4.42218 14.1 4.23808 14.1H3.38094C3.19685 14.1 3.04761 13.9508 3.04761 13.7667V13.0333ZM3.38094 9.90001C3.19685 9.90001 3.04761 10.0493 3.04761 10.2333V10.9667C3.04761 11.1508 3.19685 11.3 3.38094 11.3H4.23808C4.42218 11.3 4.57142 11.1508 4.57142 10.9667V10.2333C4.57142 10.0493 4.42218 9.90001 4.23808 9.90001H3.38094ZM3.04761 7.43336C3.04761 7.24926 3.19685 7.10002 3.38094 7.10002H4.23808C4.42218 7.10002 4.57142 7.24926 4.57142 7.43336V8.16669C4.57142 8.35079 4.42218 8.50002 4.23808 8.50002H3.38094C3.19685 8.50002 3.04761 8.35079 3.04761 8.16669V7.43336ZM3.38094 4.29999C3.19685 4.29999 3.04761 4.44923 3.04761 4.63332V5.36666C3.04761 5.55075 3.19685 5.69999 3.38094 5.69999H4.23808C4.42218 5.69999 4.57142 5.55075 4.57142 5.36666V4.63332C4.57142 4.44923 4.42218 4.29999 4.23808 4.29999H3.38094Z" fill="#FFCD4B"/>
</svg>
