<svg width="16" height="16" viewBox="0 0 16 16" fill="none" xmlns="http://www.w3.org/2000/svg">
<path fill-rule="evenodd" clip-rule="evenodd" d="M6.47715 14.7955C6.43717 15.0807 6.65306 15.3334 6.93292 15.3334C7.10083 15.3334 7.25275 15.2437 7.33271 15.097C7.45371 14.8818 7.65701 14.5191 7.94297 14.0089C8.37023 13.2467 8.98201 12.1553 9.77941 10.7348L5.14747 7.20199C4.77344 7.87188 4.44093 8.46863 4.15034 8.99284C4.14985 8.99359 4.14895 8.99489 4.14771 8.99672C4.1084 9.05427 3.71619 9.62852 4.39821 9.62852H7.19678L6.47715 14.7955ZM5.76651 6.09412L10.4006 9.62855C10.8606 8.80942 11.3705 7.90207 11.9304 6.90649C12.1063 6.52346 11.9304 6.36861 11.6105 6.36861H8.80396L9.52359 1.20166C9.5383 1.09378 9.51581 0.984042 9.45997 0.891183C9.40413 0.798324 9.31839 0.728102 9.2174 0.692508C9.1164 0.656913 9.00642 0.658154 8.90623 0.696018C8.80603 0.733881 8.72184 0.80602 8.66803 0.900116C7.75568 2.53675 6.94493 3.98664 6.2373 5.25212C6.07494 5.54249 5.918 5.82314 5.76651 6.09412Z" fill="white"/>
<path d="M13.7668 12.6009L2.12224 3.71948C1.98429 3.61362 1.95935 3.41733 2.06662 3.28101L2.45533 2.78746C2.56261 2.65113 2.76171 2.62652 2.89986 2.73257L14.5444 11.614C14.6824 11.7198 14.7073 11.9161 14.6 12.0524L14.2113 12.546C14.1041 12.6823 13.905 12.7067 13.7668 12.6009Z" fill="white"/>
</svg>
