<svg width="16" height="16" viewBox="0 0 16 16" fill="none" xmlns="http://www.w3.org/2000/svg">
<path d="M8.00016 1.33334C4.31817 1.33334 1.3335 4.31802 1.3335 8.00001C1.3335 11.682 4.31817 14.6667 8.00016 14.6667C11.6822 14.6667 14.6668 11.682 14.6668 8.00001C14.6668 4.31802 11.6822 1.33334 8.00016 1.33334ZM10.2123 10.9462C10.1074 11.0505 9.99747 11.16 9.90823 11.2495C9.82785 11.3301 9.77113 11.4296 9.74237 11.5374C9.70178 11.6895 9.66898 11.8433 9.61414 11.9909L9.14667 13.2503C8.77678 13.3309 8.39398 13.3764 8.00016 13.3764V12.6403C8.04559 12.3011 7.79479 11.6656 7.39183 11.2626C7.23054 11.1014 7.13995 10.8825 7.13995 10.6543V9.79383C7.13995 9.48092 6.9714 9.19329 6.69747 9.04195C6.31118 8.82824 5.76172 8.52958 5.38538 8.34006C5.07678 8.18469 4.79129 7.98684 4.53457 7.75539L4.51307 7.73603C4.32948 7.57032 4.16648 7.38313 4.02758 7.1785C3.77543 6.80834 3.36468 6.19947 3.09774 5.80377C3.64801 4.58066 4.63968 3.5984 5.87194 3.0648L6.51737 3.38764C6.80339 3.53066 7.13995 3.32286 7.13995 3.00297V2.6992C7.35473 2.66453 7.57328 2.64248 7.79559 2.63415L8.55635 3.3949C8.72436 3.56291 8.72436 3.83523 8.55635 4.00324L8.43027 4.12904L8.15231 4.407C8.06844 4.49087 8.06844 4.62716 8.15231 4.71103L8.27839 4.83711C8.36226 4.92098 8.36226 5.05727 8.27839 5.14114L8.06333 5.35619C8.02296 5.39649 7.96823 5.41912 7.91118 5.4191H7.66952C7.6136 5.4191 7.55984 5.44087 7.51952 5.48012L7.25285 5.73953C7.22016 5.77136 7.19843 5.81275 7.1908 5.85773C7.18317 5.90272 7.19002 5.94896 7.21038 5.9898L7.62946 6.82824C7.70097 6.97125 7.59694 7.13953 7.43726 7.13953H7.28565C7.23377 7.13953 7.18376 7.12071 7.14479 7.08684L6.89532 6.87017C6.83887 6.8212 6.77065 6.78776 6.69735 6.77315C6.62406 6.75854 6.54823 6.76326 6.47731 6.78684L5.63941 7.06614C5.57544 7.08747 5.5198 7.12839 5.48038 7.1831C5.44097 7.23782 5.41977 7.30354 5.41979 7.37098C5.41979 7.49275 5.4886 7.60377 5.59747 7.65834L5.89532 7.80727C6.14828 7.93388 6.42731 7.99974 6.71011 7.99974C6.9929 7.99974 7.31737 8.73334 7.57032 8.85996H9.36468C9.59291 8.85996 9.81145 8.95055 9.97301 9.11184L10.341 9.47985C10.4948 9.63365 10.5811 9.84222 10.5811 10.0597C10.581 10.2245 10.5484 10.3876 10.4851 10.5398C10.4218 10.6919 10.3291 10.83 10.2123 10.9462ZM12.5432 8.4906C12.3875 8.45162 12.2518 8.35619 12.1628 8.22259L11.6795 7.49759C11.6087 7.39167 11.571 7.26716 11.571 7.1398C11.571 7.01243 11.6087 6.88792 11.6795 6.782L12.2061 5.99221C12.2684 5.89893 12.3539 5.82313 12.4545 5.77313L12.8034 5.59867C13.1668 6.32232 13.3765 7.1363 13.3765 8.00001C13.3765 8.23307 13.3566 8.4613 13.3276 8.68657L12.5432 8.4906Z" fill="white"/>
</svg>
