<svg width="16" height="16" viewBox="0 0 16 16" fill="none" xmlns="http://www.w3.org/2000/svg">
<path d="M14.2965 3.48148C14.5011 3.48148 14.6668 3.31574 14.6668 3.11111V2.37037C14.6668 2.16574 14.5011 2 14.2965 2H1.70387C1.49924 2 1.3335 2.16574 1.3335 2.37037V3.11111C1.3335 3.31574 1.49924 3.48148 1.70387 3.48148H2.07377V12.3704H1.70387C1.49924 12.3704 1.3335 12.5361 1.3335 12.7407V13.4815C1.3335 13.6861 1.49924 13.8519 1.70387 13.8519H7.25942V12C7.25942 11.7963 7.42609 11.6296 7.62979 11.6296H8.37053C8.57424 11.6296 8.7409 11.7963 8.7409 12V13.8519H14.2965C14.5011 13.8519 14.6668 13.6861 14.6668 13.4815V12.7407C14.6668 12.5361 14.5011 12.3704 14.2965 12.3704H13.9261V3.48148H14.2965ZM7.25942 4.51852C7.25942 4.37037 7.40757 4.22222 7.55572 4.22222H8.44461C8.59276 4.22222 8.7409 4.37037 8.7409 4.51852V5.40741C8.7409 5.55556 8.59276 5.7037 8.44461 5.7037H7.55572C7.40757 5.7037 7.25942 5.55556 7.25942 5.40741V4.51852ZM7.25942 6.74074C7.25942 6.59259 7.40757 6.44444 7.55572 6.44444H8.44461C8.59276 6.44444 8.7409 6.59259 8.7409 6.74074V7.62963C8.7409 7.77778 8.59276 7.92593 8.44461 7.92593H7.55572C7.40757 7.92593 7.25942 7.77778 7.25942 7.62963V6.74074ZM4.29646 4.51852C4.29646 4.37037 4.44461 4.22222 4.59276 4.22222H5.48164C5.62979 4.22222 5.77794 4.37037 5.77794 4.51852V5.40741C5.77794 5.55556 5.62979 5.7037 5.48164 5.7037H4.59276C4.44461 5.7037 4.29646 5.55556 4.29646 5.40741V4.51852ZM5.48164 7.92593H4.59276C4.44461 7.92593 4.29646 7.77778 4.29646 7.62963V6.74074C4.29646 6.59259 4.44461 6.44444 4.59276 6.44444H5.48164C5.62979 6.44444 5.77794 6.59259 5.77794 6.74074V7.62963C5.77794 7.77778 5.62979 7.92593 5.48164 7.92593ZM5.77794 10.8889C5.77794 9.66157 6.77285 8.66667 8.00016 8.66667C9.22748 8.66667 10.2224 9.66157 10.2224 10.8889H5.77794ZM11.7039 7.62963C11.7039 7.77778 11.5557 7.92593 11.4076 7.92593H10.5187C10.3705 7.92593 10.2224 7.77778 10.2224 7.62963V6.74074C10.2224 6.59259 10.3705 6.44444 10.5187 6.44444H11.4076C11.5557 6.44444 11.7039 6.59259 11.7039 6.74074V7.62963ZM11.7039 5.40741C11.7039 5.55556 11.5557 5.7037 11.4076 5.7037H10.5187C10.3705 5.7037 10.2224 5.55556 10.2224 5.40741V4.51852C10.2224 4.37037 10.3705 4.22222 10.5187 4.22222H11.4076C11.5557 4.22222 11.7039 4.37037 11.7039 4.51852V5.40741Z" fill="white"/>
</svg>
