<svg width="19" height="5" viewBox="0 0 19 5" fill="none" xmlns="http://www.w3.org/2000/svg">
<path d="M4.57507 0.948563C4.57207 0.66564 4.48673 0.380504 4.24487 0.221996C4.00301 0.0634882 3.69639 0.070573 3.51114 0.305678C3.49613 0.324717 3.46396 0.35748 3.4734 0.385374C3.48283 0.413268 3.54115 0.406627 3.5656 0.419024C3.58475 0.429721 3.60041 0.446013 3.61063 0.46586C3.62085 0.485708 3.62518 0.508227 3.62306 0.530599C3.62306 0.584615 3.62092 1.10043 3.6192 1.8115L1.80095 1.80043C1.7743 1.45257 1.79436 1.10258 1.86056 0.760391C1.87514 0.685122 1.89186 0.610295 1.91073 0.535912C1.93132 0.454444 1.98835 0.354381 1.98235 0.270256C1.98214 0.25859 1.97839 0.247287 1.97163 0.237936C1.95533 0.217126 1.92445 0.220667 1.89915 0.227309C1.74205 0.270176 1.59711 0.351074 1.47633 0.4633C1.3876 0.547682 1.31272 0.646371 1.25462 0.75552C1.02133 1.18677 1.00332 1.79777 1.00332 1.79777C0.991316 2.19272 0.976307 2.99322 1.3837 3.82428C1.3837 3.82428 1.66973 4.40695 2.07798 4.55085C2.1586 4.57918 2.18047 4.56015 2.18776 4.55085C2.21949 4.50879 2.15131 4.43662 2.13115 4.40429C2.09413 4.34467 2.06186 4.28203 2.03466 4.21701C1.97949 4.08217 1.93852 3.9416 1.91245 3.79771C1.82129 3.36361 1.77813 2.92023 1.7838 2.47608H3.61963V4.14838C3.61648 4.20264 3.6282 4.25672 3.65346 4.30441C3.67872 4.35211 3.71649 4.39148 3.76243 4.41802C3.82368 4.44652 3.88927 4.46375 3.95626 4.46894C4.07219 4.48776 4.19026 4.48776 4.30619 4.46894C4.37462 4.4579 4.43867 4.42722 4.49102 4.38039C4.57207 4.3029 4.57335 4.19797 4.57335 4.09215C4.57335 3.25091 4.58064 2.41232 4.57979 1.57197C4.57921 1.36476 4.57764 1.15696 4.57507 0.948563Z" fill="white"/>
<path d="M2.06011 4.7586C1.31952 4.53723 1.03091 3.72476 0.872245 3.02211C0.837939 2.86891 0.804919 2.71837 0.786479 2.56164C0.7273 2.08921 0.729873 1.56986 0.87825 1.11426C0.765467 1.14038 0.714007 1.24089 0.647967 1.32235C0.406963 1.61989 0.387665 1.96745 0.376086 2.31281C0.356141 2.83713 0.467507 3.35791 0.699426 3.82483C0.795018 4.01009 0.911622 4.18294 1.04678 4.33975C1.18208 4.4942 1.33566 4.63047 1.50392 4.74532C1.23201 4.67635 0.986783 4.52381 0.800631 4.30788C0.724537 4.20761 0.655326 4.10198 0.593504 3.99175C0.476004 3.78099 0.329344 3.518 0.254298 3.166C0.233285 3.06727 0.219134 2.96676 0.181397 2.96278C0.127364 2.95702 0.0656119 3.15715 0.0527469 3.20054C0.0189254 3.30934 0.00114397 3.42277 0 3.53703C0.00300183 3.80269 0.195548 4.31939 0.656972 4.67005C0.656972 4.67005 1.06007 4.97644 1.74964 4.99991C1.86256 5.00081 1.97334 4.96806 2.06869 4.9056C2.1283 4.86133 2.16861 4.79225 2.06011 4.7586Z" fill="white"/>
<path d="M0.87793 1.1123C0.878252 1.1135 0.878252 1.11476 0.87793 1.11596H0.881739L0.87793 1.1123Z" fill="white"/>
<path d="M0.87793 1.11192L0.879619 1.11363L0.888068 1.10205L0.87793 1.11192Z" fill="white"/>
<path d="M14.0533 0.849887C14.0578 0.710581 14.0466 0.57121 14.0199 0.434579C14.015 0.395316 14.005 0.356902 13.9903 0.320348C13.9656 0.258531 13.9238 0.20557 13.8702 0.168039C13.8303 0.140967 13.7837 0.126361 13.736 0.125977C13.7025 0.125977 13.6691 0.128634 13.6356 0.128634C13.5893 0.128634 13.5434 0.128634 13.4971 0.128634C13.4071 0.128634 13.317 0.128634 13.227 0.130848C13.187 0.130957 13.1474 0.139316 13.1106 0.155435C13.0738 0.171554 13.0404 0.195108 13.0125 0.224712C12.9439 0.298653 12.8899 0.404029 12.7981 0.629836C12.7827 0.667028 12.7711 0.698907 12.7625 0.720603C12.7287 0.7972 12.2441 1.88063 12.0614 2.19455C12.0481 2.21801 12.0185 2.26804 11.9808 2.26627C11.943 2.2645 11.9139 2.21801 11.9006 2.19455C11.7179 1.88063 11.2333 0.7972 11.199 0.720603C11.1909 0.698907 11.1793 0.667028 11.1638 0.629836C11.0738 0.404029 11.0193 0.298653 10.9494 0.224712C10.9216 0.195108 10.8882 0.171554 10.8514 0.155435C10.8146 0.139316 10.775 0.130957 10.735 0.130848C10.645 0.127306 10.5549 0.130848 10.4649 0.128634H10.3263C10.2929 0.128634 10.2594 0.126419 10.226 0.125977C10.1783 0.126361 10.1317 0.140967 10.0918 0.168039C10.0379 0.205292 9.99609 0.258339 9.97169 0.320348C9.95697 0.356902 9.94702 0.395316 9.9421 0.434579C9.91553 0.571231 9.90416 0.710571 9.90823 0.849887L9.80273 4.19493C9.80403 4.21986 9.8088 4.24446 9.81689 4.26798C9.8722 4.43092 10.0742 4.5115 10.2277 4.51372C10.3812 4.51593 10.5708 4.43933 10.6364 4.29234C10.6448 4.27241 10.6513 4.25164 10.6557 4.23035C10.7016 4.00322 10.7282 2.17418 10.738 1.37721C11.1604 2.27203 11.4915 2.94015 11.6441 3.2368C11.6754 3.2979 11.7419 3.41966 11.8637 3.46084C11.9378 3.48681 12.0182 3.48681 12.0923 3.46084C12.2141 3.41966 12.2805 3.2979 12.3114 3.2368C12.4645 2.94192 12.7951 2.2738 13.218 1.37721C13.2278 2.17418 13.2544 4.00322 13.3003 4.23035C13.3047 4.25164 13.3111 4.27241 13.3196 4.29234C13.3856 4.44066 13.5722 4.51682 13.7283 4.51372C13.8844 4.51062 14.0833 4.43092 14.1391 4.26798C14.147 4.2444 14.1517 4.21983 14.1532 4.19493C14.1221 3.07977 14.0888 1.96475 14.0533 0.849887Z" fill="white"/>
<path d="M8.96561 0.258643C8.8777 0.143969 8.72718 0.139984 8.58309 0.135557C8.4463 0.132014 8.27219 0.127144 8.16327 0.252002C8.11602 0.308389 8.0872 0.378734 8.08093 0.453015C8.07836 1.27596 8.07593 2.0989 8.07364 2.92184C8.0758 3.05571 8.04839 3.18833 7.99347 3.30962C7.93856 3.43091 7.8576 3.53769 7.75673 3.62184C7.62097 3.72489 7.46115 3.78891 7.2936 3.80736C7.26701 3.80736 7.23956 3.8109 7.23956 3.8109H7.19668C7.19668 3.8109 7.16881 3.8109 7.14265 3.80736C6.97509 3.78891 6.81527 3.72489 6.67951 3.62184C6.57872 3.53765 6.49784 3.43085 6.443 3.30956C6.38817 3.18827 6.36082 3.05567 6.36303 2.92184L6.35531 0.453015C6.34916 0.378785 6.3205 0.308446 6.2734 0.252002C6.16405 0.127144 5.99037 0.132014 5.85315 0.135557C5.70906 0.139984 5.55897 0.143969 5.47106 0.258643C5.42169 0.33121 5.40169 0.420802 5.41531 0.50836V3.0923C5.41807 3.40437 5.51991 3.70689 5.7052 3.95347C5.95607 4.29306 6.31243 4.44449 6.42221 4.48478C6.58638 4.54522 6.75724 4.58419 6.9308 4.60078C7.12296 4.61495 7.31585 4.61495 7.50801 4.60078C7.68157 4.58419 7.85243 4.54522 8.01661 4.48478C8.12639 4.4405 8.48275 4.29129 8.73319 3.95347C8.91874 3.70701 9.02075 3.40445 9.02351 3.0923V0.50836C9.03651 0.420511 9.01574 0.330892 8.96561 0.258643Z" fill="white"/>
<path d="M18.8959 1.50223C18.7751 1.08664 18.5286 0.721866 18.1926 0.461304C17.8113 0.162034 17.3456 0 16.8666 0C16.3877 0 15.922 0.162034 15.5407 0.461304C15.2047 0.722016 14.9581 1.08671 14.837 1.50223C14.4918 2.69325 15.0111 4.2128 16.2521 4.54841C16.6552 4.64346 17.0738 4.64346 17.4769 4.54841C18.7222 4.2128 19.2411 2.69325 18.8959 1.50223ZM17.9735 2.83051C17.8448 3.39414 17.4807 4.00028 16.8666 4.00692C16.2525 4.00028 15.8898 3.39414 15.7598 2.83051C15.6346 2.2868 15.6578 1.64701 15.9524 1.16219C16.0464 0.998385 16.1802 0.86268 16.3404 0.76842C16.5007 0.674161 16.682 0.624593 16.8664 0.624593C17.0509 0.624593 17.2321 0.674161 17.3924 0.76842C17.5527 0.86268 17.6864 0.998385 17.7805 1.16219C18.0755 1.64834 18.0982 2.28813 17.9735 2.83183V2.83051Z" fill="white"/>
</svg>
