<svg width="16" height="16" viewBox="0 0 16 16" fill="none" xmlns="http://www.w3.org/2000/svg">
<g clip-path="url(#clip0_445_317)">
<path d="M3.0535 14.6664C3.01418 14.6442 2.9746 14.6228 2.93604 14.5996C2.77416 14.5036 2.67508 14.3649 2.67125 14.1698C2.6664 13.9053 2.66359 13.6402 2.67125 13.376C2.67994 13.1238 2.87961 12.9201 3.12423 12.8958C3.18321 12.8901 3.24296 12.8882 3.30297 12.8882C6.36537 12.8882 9.42751 12.8882 12.4894 12.8882C12.5866 12.8851 12.6837 12.8964 12.7777 12.9216C12.8745 12.9497 12.9599 13.009 13.0212 13.0905C13.0825 13.1721 13.1165 13.2716 13.118 13.3744C13.1257 13.6217 13.1237 13.87 13.1229 14.1165C13.1229 14.3698 13.0014 14.5415 12.7738 14.6382C12.7604 14.6455 12.7478 14.6542 12.7363 14.6643L3.0535 14.6664Z" fill="#17A53C"/>
<path d="M8.77105 8.89313C8.83004 8.83575 8.86425 8.80418 8.89668 8.77106C9.43971 8.21459 9.98282 7.65882 10.526 7.10374C10.8312 6.79072 11.1102 6.79281 11.4174 7.10635L11.7777 7.4757C12.0627 7.76811 12.0619 8.06339 11.7736 8.35814L8.33212 11.873C8.31399 11.8913 8.29637 11.9101 8.27773 11.9278C8.04103 12.1529 7.74969 12.1532 7.51682 11.9228C7.31867 11.7267 7.12563 11.5248 6.92953 11.3255C5.96264 10.3383 4.99532 9.35065 4.02757 8.36257C3.72831 8.05713 3.72959 7.76889 4.03038 7.46083C4.15346 7.33511 4.27628 7.20886 4.39986 7.08365C4.67563 6.80403 4.9731 6.80246 5.24683 7.08131C5.7999 7.64525 6.35229 8.20989 6.904 8.77523C6.93694 8.80914 6.96426 8.84853 6.99413 8.88531L7.02886 8.87383V8.72906C7.02886 6.45537 7.02886 4.18158 7.02886 1.90771C7.02886 1.60096 7.21168 1.3662 7.47724 1.33829C7.57924 1.33165 7.68151 1.33026 7.78365 1.33412C7.94068 1.33412 8.09797 1.33229 8.25501 1.33412C8.38347 1.33431 8.50714 1.38396 8.60136 1.47315C8.69558 1.56235 8.75344 1.68454 8.76339 1.81537C8.76978 1.8845 8.77105 1.95414 8.77105 2.02405C8.77105 4.24992 8.77105 6.4758 8.77105 8.70167V8.89313Z" fill="#17A53C"/>
</g>
<defs>
<clipPath id="clip0_445_317">
<rect width="10.4575" height="13.3333" fill="white" transform="translate(2.66663 1.33333)"/>
</clipPath>
</defs>
</svg>
