<svg width="16" height="16" viewBox="0 0 16 16" fill="none" xmlns="http://www.w3.org/2000/svg">
<path d="M14.25 11.1667H5.50004V10.75C5.50004 10.5208 5.31254 10.3333 5.08337 10.3333H4.25004C4.02087 10.3333 3.83337 10.5208 3.83337 10.75V11.1667H1.75004C1.52087 11.1667 1.33337 11.3542 1.33337 11.5833V12.4167C1.33337 12.6458 1.52087 12.8333 1.75004 12.8333H3.83337V13.25C3.83337 13.4792 4.02087 13.6667 4.25004 13.6667H5.08337C5.31254 13.6667 5.50004 13.4792 5.50004 13.25V12.8333H14.25C14.4792 12.8333 14.6667 12.6458 14.6667 12.4167V11.5833C14.6667 11.3542 14.4792 11.1667 14.25 11.1667ZM14.25 7H12.1667V6.58333C12.1667 6.35417 11.9792 6.16667 11.75 6.16667H10.9167C10.6875 6.16667 10.5 6.35417 10.5 6.58333V7H1.75004C1.52087 7 1.33337 7.1875 1.33337 7.41667V8.25C1.33337 8.47917 1.52087 8.66667 1.75004 8.66667H10.5V9.08333C10.5 9.3125 10.6875 9.5 10.9167 9.5H11.75C11.9792 9.5 12.1667 9.3125 12.1667 9.08333V8.66667H14.25C14.4792 8.66667 14.6667 8.47917 14.6667 8.25V7.41667C14.6667 7.1875 14.4792 7 14.25 7ZM14.25 2.83333H8.83337V2.41667C8.83337 2.1875 8.64587 2 8.41671 2H7.58337C7.35421 2 7.16671 2.1875 7.16671 2.41667V2.83333H1.75004C1.52087 2.83333 1.33337 3.02083 1.33337 3.25V4.08333C1.33337 4.3125 1.52087 4.5 1.75004 4.5H7.16671V4.91667C7.16671 5.14583 7.35421 5.33333 7.58337 5.33333H8.41671C8.64587 5.33333 8.83337 5.14583 8.83337 4.91667V4.5H14.25C14.4792 4.5 14.6667 4.3125 14.6667 4.08333V3.25C14.6667 3.02083 14.4792 2.83333 14.25 2.83333Z" fill="#181A20"/>
</svg>
