<svg width="24" height="24" viewBox="0 0 24 24" fill="none" xmlns="http://www.w3.org/2000/svg">
<g clip-path="url(#clip0_2422_3933)">
<rect x="2.25" y="4.25" width="19.5" height="15.5" rx="1.75" fill="white" stroke="#F5F5F5" stroke-width="0.5"/>
<mask id="mask0_2422_3933" style="mask-type:alpha" maskUnits="userSpaceOnUse" x="2" y="4" width="20" height="16">
<rect x="2.25" y="4.25" width="19.5" height="15.5" rx="1.75" fill="white" stroke="white" stroke-width="0.5"/>
</mask>
<g mask="url(#mask0_2422_3933)">
<path fill-rule="evenodd" clip-rule="evenodd" d="M2 9.33333H22V4H2V9.33333Z" fill="#04AAC8"/>
<path fill-rule="evenodd" clip-rule="evenodd" d="M2 20H22V14.6666H2V20Z" fill="#23C840"/>
<path fill-rule="evenodd" clip-rule="evenodd" d="M5.33336 8.26665C5.62713 8.26665 5.90019 8.16734 6.12723 7.99705C6.10093 7.999 6.07439 7.99998 6.04764 7.99998C5.39016 7.99998 4.85717 7.40303 4.85717 6.66665C4.85717 5.93027 5.39016 5.33332 6.04764 5.33332C6.07439 5.33332 6.10093 5.3343 6.12723 5.33625C5.90019 5.16596 5.62713 5.06665 5.33336 5.06665C4.54438 5.06665 3.90479 5.78299 3.90479 6.66665C3.90479 7.55031 4.54438 8.26665 5.33336 8.26665ZM7.71431 7.73332C7.71431 8.02787 7.50111 8.26665 7.23812 8.26665C6.97513 8.26665 6.76193 8.02787 6.76193 7.73332C6.76193 7.43877 6.97513 7.19998 7.23812 7.19998C7.50111 7.19998 7.71431 7.43877 7.71431 7.73332ZM9.14288 6.13332C9.40587 6.13332 9.61907 5.89454 9.61907 5.59998C9.61907 5.30543 9.40587 5.06665 9.14288 5.06665C8.87989 5.06665 8.66669 5.30543 8.66669 5.59998C8.66669 5.89454 8.87989 6.13332 9.14288 6.13332ZM11.5238 5.59998C11.5238 5.89454 11.3106 6.13332 11.0476 6.13332C10.7846 6.13332 10.5715 5.89454 10.5715 5.59998C10.5715 5.30543 10.7846 5.06665 11.0476 5.06665C11.3106 5.06665 11.5238 5.30543 11.5238 5.59998ZM11.0476 8.26665C11.3106 8.26665 11.5238 8.02787 11.5238 7.73332C11.5238 7.43877 11.3106 7.19998 11.0476 7.19998C10.7846 7.19998 10.5715 7.43877 10.5715 7.73332C10.5715 8.02787 10.7846 8.26665 11.0476 8.26665ZM9.61907 7.73332C9.61907 8.02787 9.40587 8.26665 9.14288 8.26665C8.87989 8.26665 8.66669 8.02787 8.66669 7.73332C8.66669 7.43877 8.87989 7.19998 9.14288 7.19998C9.40587 7.19998 9.61907 7.43877 9.61907 7.73332Z" fill="white"/>
</g>
</g>
<rect x="2" y="4" width="20" height="16" rx="3" stroke="#E3E3E3" stroke-width="0.5"/>
<defs>
<clipPath id="clip0_2422_3933">
<rect x="2" y="4" width="20" height="16" rx="3" fill="white"/>
</clipPath>
</defs>
</svg>
