<svg width="24" height="24" viewBox="0 0 24 24" fill="none" xmlns="http://www.w3.org/2000/svg">
<rect x="2" y="4" width="20" height="16" rx="3" fill="#30C6E0"/>
<path fill-rule="evenodd" clip-rule="evenodd" d="M12.0002 14.8C13.5782 14.8 14.8574 13.5463 14.8574 12C14.8574 10.4536 13.5782 9.19995 12.0002 9.19995C10.4223 9.19995 9.14307 10.4536 9.14307 12C9.14307 13.5463 10.4223 14.8 12.0002 14.8Z" fill="#FFCD4B"/>
<path fill-rule="evenodd" clip-rule="evenodd" d="M10.8342 17.0046L11.9998 15.2995L13.1654 17.0046L13.4606 14.9728L15.2657 16.0134L14.6321 14.0572L16.7192 14.2273L15.2823 12.7342L17.2379 12L15.2823 11.2658L16.7192 9.77272L14.6321 9.94277L15.2657 7.98659L13.4606 9.02722L13.1654 6.99536L11.9998 8.70046L10.8342 6.99536L10.539 9.02722L8.73391 7.98659L9.36749 9.94277L7.28045 9.77272L8.71736 11.2658L6.76172 12L8.71736 12.7342L7.28045 14.2273L9.36749 14.0572L8.73391 16.0134L10.539 14.9728L10.8342 17.0046ZM15.3332 12C15.3332 13.8041 13.8408 15.2667 11.9998 15.2667C10.1589 15.2667 8.6665 13.8041 8.6665 12C8.6665 10.1959 10.1589 8.73335 11.9998 8.73335C13.8408 8.73335 15.3332 10.1959 15.3332 12Z" fill="#FFCD4B"/>
<path fill-rule="evenodd" clip-rule="evenodd" d="M2.95264 6.26668C2.95264 6.08259 3.10188 5.93335 3.28597 5.93335H3.57168C3.75578 5.93335 3.90502 6.08259 3.90502 6.26668V6.53335C3.90502 6.71744 3.75578 6.86668 3.57168 6.86668H3.28597C3.10188 6.86668 2.95264 6.71744 2.95264 6.53335V6.26668ZM2.95264 8.13331C2.95264 7.94921 3.10188 7.79997 3.28597 7.79997H3.57168C3.75578 7.79997 3.90502 7.94921 3.90502 8.13331V8.39997C3.90502 8.58407 3.75578 8.73331 3.57168 8.73331H3.28597C3.10188 8.73331 2.95264 8.58407 2.95264 8.39997V8.13331ZM3.28597 9.66669C3.10188 9.66669 2.95264 9.81593 2.95264 10V10.2667C2.95264 10.4508 3.10188 10.6 3.28597 10.6H3.57168C3.75578 10.6 3.90502 10.4508 3.90502 10.2667V10C3.90502 9.81593 3.75578 9.66669 3.57168 9.66669H3.28597ZM2.95264 11.8667C2.95264 11.6826 3.10188 11.5333 3.28597 11.5333H3.57168C3.75578 11.5333 3.90502 11.6826 3.90502 11.8667V12.1333C3.90502 12.3174 3.75578 12.4667 3.57168 12.4667H3.28597C3.10188 12.4667 2.95264 12.3174 2.95264 12.1333V11.8667ZM3.28597 13.4C3.10188 13.4 2.95264 13.5492 2.95264 13.7333V14C2.95264 14.1841 3.10188 14.3333 3.28597 14.3333H3.57168C3.75578 14.3333 3.90502 14.1841 3.90502 14V13.7333C3.90502 13.5492 3.75578 13.4 3.57168 13.4H3.28597ZM2.95264 15.6C2.95264 15.4159 3.10188 15.2667 3.28597 15.2667H3.57168C3.75578 15.2667 3.90502 15.4159 3.90502 15.6V15.8667C3.90502 16.0508 3.75578 16.2 3.57168 16.2H3.28597C3.10188 16.2 2.95264 16.0508 2.95264 15.8667V15.6ZM3.28597 17.1333C3.10188 17.1333 2.95264 17.2826 2.95264 17.4667V17.7333C2.95264 17.9174 3.10188 18.0667 3.28597 18.0667H3.57168C3.75578 18.0667 3.90502 17.9174 3.90502 17.7333V17.4667C3.90502 17.2826 3.75578 17.1333 3.57168 17.1333H3.28597ZM3.90479 16.5334C3.90479 16.3493 4.05402 16.2 4.23812 16.2H4.52383C4.70793 16.2 4.85717 16.3493 4.85717 16.5333V16.8C4.85717 16.9841 4.70793 17.1334 4.52383 17.1334H4.23812C4.05402 17.1334 3.90479 16.9841 3.90479 16.8V16.5334ZM4.23812 14.3334C4.05402 14.3334 3.90479 14.4826 3.90479 14.6667V14.9334C3.90479 15.1175 4.05402 15.2667 4.23812 15.2667H4.52383C4.70793 15.2667 4.85717 15.1175 4.85717 14.9334V14.6667C4.85717 14.4826 4.70793 14.3334 4.52383 14.3334H4.23812ZM3.90479 12.8C3.90479 12.6159 4.05402 12.4667 4.23812 12.4667H4.52383C4.70793 12.4667 4.85717 12.6159 4.85717 12.8V13.0667C4.85717 13.2508 4.70793 13.4 4.52383 13.4H4.23812C4.05402 13.4 3.90479 13.2508 3.90479 13.0667V12.8ZM4.23812 10.6C4.05402 10.6 3.90479 10.7492 3.90479 10.9333V11.2C3.90479 11.3841 4.05402 11.5333 4.23812 11.5333H4.52383C4.70793 11.5333 4.85717 11.3841 4.85717 11.2V10.9333C4.85717 10.7492 4.70793 10.6 4.52383 10.6H4.23812ZM3.90479 9.06668C3.90479 8.88259 4.05402 8.73335 4.23812 8.73335H4.52383C4.70793 8.73335 4.85717 8.88259 4.85717 9.06668V9.33335C4.85717 9.51744 4.70793 9.66668 4.52383 9.66668H4.23812C4.05402 9.66668 3.90479 9.51744 3.90479 9.33335V9.06668ZM4.23812 6.86666C4.05402 6.86666 3.90479 7.0159 3.90479 7.19999V7.46666C3.90479 7.65075 4.05402 7.79999 4.23812 7.79999H4.52383C4.70793 7.79999 4.85717 7.65075 4.85717 7.46666V7.19999C4.85717 7.0159 4.70793 6.86666 4.52383 6.86666H4.23812Z" fill="#FFCD4B"/>
</svg>
