<svg width="16" height="16" viewBox="0 0 16 16" fill="none" xmlns="http://www.w3.org/2000/svg">
<path d="M8.94027 7.993L12.3287 11.3319C12.4605 11.4617 12.462 11.6739 12.3322 11.8057L11.869 12.2756C11.7392 12.4074 11.527 12.409 11.3953 12.2791L8.00685 8.94027L4.66798 12.3287C4.53811 12.4605 4.32598 12.462 4.19418 12.3322L3.7242 11.869C3.5924 11.7392 3.59084 11.527 3.72071 11.3953L7.05957 8.00685L3.67117 4.66798C3.53937 4.53811 3.53781 4.32598 3.66768 4.19418L4.1308 3.72419C4.26067 3.5924 4.47279 3.59084 4.60459 3.72071L7.993 7.05958L11.3319 3.67117C11.4617 3.53937 11.6739 3.53781 11.8057 3.66768L12.2756 4.1308C12.4074 4.26067 12.409 4.47279 12.2791 4.60459L8.94027 7.993Z" fill="white"/>
</svg>
