<svg width="32" height="32" viewBox="0 0 32 32" fill="none" xmlns="http://www.w3.org/2000/svg">
<g clip-path="url(#clip0_2971_99943)">
<path d="M11.8149 13.0516C11.93 13.0093 11.9653 12.8993 12.0188 12.8064C12.7322 11.5681 13.432 10.3261 14.1608 9.09827C14.8742 7.89552 15.6487 6.73299 16.6042 5.70413C17.099 5.17152 17.5852 4.62973 18.162 4.1809C18.1832 4.21509 18.2101 4.24543 18.2415 4.27061C19.906 5.23269 21.5715 6.19419 23.2379 7.1551L23.2598 7.20159C23.2355 7.22419 23.2146 7.25024 23.1979 7.2789C22.9399 7.89292 22.6466 8.49143 22.3195 9.07143C21.9813 9.69716 21.6149 10.3074 21.2592 10.9263C21.214 11.0033 21.1872 11.0985 21.0921 11.1376C21.0721 11.0822 21.0503 11.0283 21.0322 10.9725C20.568 9.53237 18.9575 8.69052 17.5066 9.12642C17.1663 9.20075 16.8441 9.34178 16.5586 9.5414C16.273 9.74101 16.0298 9.99527 15.8429 10.2895C15.2787 11.1486 15.1558 12.0706 15.5753 13.0357C15.7361 13.5149 16.0362 13.9352 16.437 14.2426C17.2037 14.8571 18.0751 15.0006 19.0174 14.7921C18.1451 16.3111 17.2724 17.8298 16.3993 19.3483C16.3801 19.3757 16.3587 19.4014 16.3352 19.4251C16.2539 19.383 16.1705 19.3447 16.092 19.2976C14.7965 18.548 13.5022 17.7991 12.2092 17.0509C11.5642 16.6761 10.9202 16.2968 10.2756 15.9197C10.2858 15.8188 10.3242 15.7228 10.3865 15.6429C10.8354 14.8636 11.2836 14.0841 11.7311 13.3045C11.7743 13.228 11.8552 13.1592 11.8149 13.0516Z" fill="#EEF7FF"/>
<path d="M21.0827 11.1362C21.1768 11.0973 21.2037 10.999 21.2497 10.9249C21.6064 10.3057 21.9729 9.69967 22.31 9.07003C22.6371 8.49004 22.9304 7.89153 23.1884 7.27751C23.2052 7.24885 23.226 7.2228 23.2503 7.2002C23.8386 7.51587 24.4159 7.84988 24.982 8.20223C24.9778 8.61175 24.851 8.99654 24.748 9.38438C24.3038 11.0418 23.6342 12.6299 22.758 14.1042C22.0386 15.3201 21.3449 16.55 20.6404 17.7744C20.5904 17.8611 20.5482 17.9531 20.5032 18.0426C20.4582 18.1321 20.3888 18.2083 20.3391 18.296L18.8372 20.886L16.3555 19.4566C16.3518 19.4429 16.3403 19.4314 16.3337 19.4185C16.3572 19.3947 16.3786 19.369 16.3978 19.3416C17.2717 17.8236 18.1444 16.3049 19.0159 14.7854L19.0112 14.7678C20.5808 14.4237 21.577 12.7001 21.0831 11.1884L21.0827 11.1362Z" fill="#C3D7EF"/>
<path d="M12.4107 26.1701C12.6558 27.1705 12.2916 28.066 11.5603 28.8473C10.7321 29.7311 9.73303 30.3946 8.70455 31.0147C8.1921 31.3216 7.66497 31.6011 7.14266 31.8908C7.09127 31.9189 7.03707 31.9415 6.98096 31.9582C6.67003 32.0499 6.56628 31.9709 6.55377 31.6433C6.50843 30.5864 6.53056 29.5276 6.62001 28.4736C6.71375 27.4777 6.82317 26.4819 7.27392 25.5663C7.76584 24.5664 8.88534 23.97 10.0278 24.0953C10.5865 24.1628 11.1122 24.3966 11.537 24.7665C11.9619 25.1364 12.2662 25.6253 12.4107 26.1701ZM11.5277 25.3826C11.3536 24.7328 10.8791 24.3626 10.2374 24.3743C9.52493 24.3872 9.02403 24.8387 8.83932 25.616C8.65461 26.3933 8.64902 27.1759 8.67415 27.964C8.68419 28.2901 8.77301 28.3564 9.07057 28.1992C9.75576 27.866 10.3917 27.4398 10.9605 26.9325C11.4074 26.5175 11.7368 26.046 11.5277 25.3826Z" fill="#F4964C"/>
<path d="M23.2342 7.15591C21.5678 6.195 19.9037 5.23316 18.2417 4.27038C18.2103 4.2452 18.1835 4.21486 18.1622 4.18066C19.1619 3.33582 20.1981 2.5419 21.347 1.90315C22.1051 1.48901 22.8853 1.1167 23.6841 0.787894C24.0824 0.620438 24.4909 0.647116 24.8261 0.981409C24.6656 0.967844 24.7143 1.09094 24.7064 1.17055C24.651 1.76344 24.5916 2.3532 24.4894 2.94293C24.2311 4.39035 23.81 5.80367 23.2342 7.15591Z" fill="#8BD29D"/>
<path d="M16.3545 19.46L18.8362 20.8894L18.0302 22.3515C17.8798 22.6013 17.7283 22.8513 17.5823 23.1061C17.2862 23.6158 17.041 23.6836 16.5371 23.3946C16.0332 23.1055 15.5496 22.8298 15.0562 22.5484L10.702 20.0248C10.1839 19.7217 9.66246 19.4216 9.14793 19.1123C8.7616 18.8797 8.70005 18.5915 8.93641 18.2098C9.27621 17.9177 9.59782 17.9478 9.98596 18.1715C11.4429 19.0179 12.8783 19.9087 14.3722 20.6823C14.6297 20.8196 14.9301 20.8517 15.2106 20.7721C15.491 20.6925 15.7297 20.5072 15.8767 20.2551L16.3545 19.46Z" fill="#118A31"/>
<path d="M16.354 19.4603L15.8767 20.2573C15.7297 20.5094 15.491 20.6947 15.2106 20.7743C14.9301 20.854 14.6297 20.8218 14.3722 20.6845C12.8778 19.909 11.4424 19.0181 9.98517 18.1708C9.598 17.9468 9.27542 17.917 8.93562 18.2091L9.40085 17.3514L9.55978 17.067C9.59198 17.0311 9.62984 16.9969 9.59925 16.9412C9.70456 16.913 9.71349 16.8059 9.76176 16.7364C9.93985 16.4687 10.055 16.1614 10.2737 15.9164C10.9182 16.2935 11.5623 16.6728 12.2073 17.0477C13.4998 17.7967 14.7932 18.5448 16.0873 19.2919C16.1677 19.3385 16.2512 19.3768 16.3305 19.4195C16.3408 19.4345 16.3503 19.4466 16.354 19.4603Z" fill="#8BD29D"/>
<path d="M4.85806 13.7555C4.8353 13.6433 4.91159 13.5652 4.9601 13.481C5.45946 12.6142 5.97831 11.7422 6.46106 10.8641C7.0838 9.72438 8.49469 9.56414 9.34186 10.6273C9.22339 11.1135 8.95782 11.5344 8.71633 11.9593C8.18792 12.8737 7.66148 13.789 7.13701 14.7052C7.08805 14.7916 7.05023 14.8844 7.00647 14.9747L6.91737 14.9776C6.83488 14.9233 6.75283 14.8667 6.66527 14.8169L4.85806 13.7555Z" fill="#EEF7FF"/>
<path d="M21.4164 21.397C21.7385 20.8479 22.0448 20.2862 22.3868 19.7527C22.9321 18.8976 24.3988 18.7036 25.088 19.7389C25.0365 20.0173 24.933 20.2834 24.7829 20.5233C24.145 21.622 23.5109 22.727 22.8755 23.8272C22.8142 23.9071 22.7715 23.9998 22.7506 24.0983L22.7145 24.108L20.5987 22.878C20.8568 22.3784 21.0953 21.8642 21.4164 21.397Z" fill="#EEF7FF"/>
<path d="M23.2341 7.1563C23.8082 5.80493 24.2278 4.39272 24.4849 2.94659C24.5879 2.35979 24.6465 1.7671 24.7019 1.17421C24.7099 1.0946 24.6622 0.975409 24.8216 0.985067C25.1886 1.27419 25.2275 1.69626 25.267 2.11291C25.4567 4.07686 25.4324 6.03007 25.0658 7.97344C25.0507 8.05391 25.0579 8.14309 24.9884 8.2036C24.4215 7.85077 23.8442 7.51676 23.2567 7.20157L23.2341 7.1563Z" fill="#118A31"/>
<path d="M10.7016 20.0246L15.0549 22.5453C15.0215 22.9536 14.9882 23.3622 14.9549 23.7711C14.9121 24.1809 14.7942 24.5792 14.6071 24.946C14.5513 25.0657 14.4966 25.0877 14.3781 25.0158C13.934 24.7473 13.4838 24.4868 13.0359 24.2235C13.0098 24.1258 13.0737 24.0448 13.096 23.9561C13.1808 23.6488 13.1941 23.326 13.1348 23.0127C13.0099 22.4178 12.6096 22.0591 12.1187 21.7676C11.4179 21.3522 10.695 20.9752 10.0101 20.5293L10.7016 20.0246Z" fill="#6E9ABB"/>
<path d="M10.0129 20.5287C10.6946 20.9743 11.4178 21.3523 12.1215 21.7669C12.6163 22.0532 13.0135 22.4201 13.1376 23.012C13.197 23.3254 13.1837 23.6482 13.0988 23.9555C13.0766 24.0441 13.0177 24.1248 13.0388 24.2229C11.6782 23.4383 10.3184 22.6543 8.95946 21.8707C8.81871 21.7901 8.82229 21.7137 8.89876 21.5896C9.17384 21.1378 9.57231 20.8112 10.0129 20.5287Z" fill="#9AB4CE"/>
<path d="M10.2758 15.9185C10.06 16.1627 9.94484 16.47 9.76383 16.7384C9.71634 16.8108 9.70716 16.917 9.60132 16.9432C9.52186 16.5687 9.2873 16.3174 8.97301 16.1157C8.56757 15.8547 8.51169 15.611 8.74838 15.1916C8.98507 14.7721 9.24353 14.3363 9.48664 13.9057C9.53087 13.8289 9.60535 13.7598 9.57734 13.6552L11.8153 13.0514C11.8585 13.1581 11.7776 13.2269 11.7344 13.3034C11.2882 14.0827 10.8399 14.8619 10.3895 15.6409C10.326 15.7207 10.2866 15.817 10.2758 15.9185Z" fill="#9AB4CE"/>
<path d="M18.0311 22.3477L18.8371 20.8856L20.3424 18.2926C20.3926 18.2069 20.4521 18.125 20.5065 18.0392L20.6482 18.6149C20.5997 18.6446 20.5949 18.6888 20.597 18.7438C20.6073 19.2581 20.4666 19.764 20.1926 20.1988C19.9533 20.5928 19.7278 20.9956 19.5001 21.398C19.3633 21.6441 19.2888 21.8966 19.4815 22.1476C19.5916 22.2744 19.7231 22.3809 19.87 22.4623C20.1008 22.6099 20.3691 22.7024 20.5673 22.9038L20.1822 23.5651C19.5679 23.2658 18.9976 22.8888 18.4011 22.5585C18.2767 22.4882 18.1543 22.4173 18.0311 22.3477Z" fill="#6E9ABB"/>
<path d="M4.85792 13.7554L6.66513 14.8168C6.74977 14.8674 6.83181 14.924 6.91723 14.9775C6.79048 15.4094 6.5431 15.7773 6.27507 16.1266C6.17439 16.2623 6.0285 16.3573 5.86382 16.3945C5.69914 16.4318 5.52654 16.4087 5.37727 16.3295C4.86299 16.0484 4.36459 15.7369 3.85932 15.4387C4.16752 14.8961 4.47542 14.3549 4.78302 13.8152C4.80412 13.7909 4.8295 13.7706 4.85792 13.7554Z" fill="#8BD29D"/>
<path d="M20.1814 23.5637L20.5662 22.9014C20.5778 22.8952 20.5888 22.8881 20.5992 22.88L22.715 24.1101C22.5726 24.4875 22.3396 24.8117 22.1196 25.145C21.8597 25.5404 21.4702 25.651 21.0653 25.4192C20.6603 25.1873 20.2395 24.943 19.8283 24.7034C19.7575 24.6617 19.6724 24.6405 19.6502 24.5417C19.8267 24.2152 20.0038 23.8892 20.1814 23.5637Z" fill="#8BD29D"/>
<path d="M20.5995 22.88C20.5891 22.8881 20.5781 22.8952 20.5665 22.9014C20.3686 22.701 20.1 22.6075 19.8692 22.4599C19.7224 22.3785 19.5909 22.272 19.4807 22.1452C19.288 21.8942 19.362 21.6398 19.4994 21.3956C19.727 20.9932 19.9525 20.5904 20.1918 20.1964C20.4659 19.7616 20.6065 19.2557 20.5963 18.7414C20.5941 18.6864 20.599 18.6422 20.6475 18.6125L21.2815 20.9087C21.3247 21.0699 21.3679 21.2311 21.4124 21.3972C21.0955 21.8643 20.857 22.3785 20.5995 22.88Z" fill="#9AB4CE"/>
<path d="M22.7515 24.1013C22.7719 24.0017 22.8143 23.9081 22.8756 23.8272C23.5103 22.7241 24.1424 21.6196 24.7823 20.5203C24.9324 20.2805 25.0359 20.0144 25.0874 19.7359C25.4807 20.2871 25.5231 20.8863 25.2093 21.4625C24.6488 22.4913 24.0416 23.4938 23.4541 24.5078L22.7515 24.1013Z" fill="#C3D7EF"/>
<path d="M9.57408 13.6586C9.6021 13.7631 9.52761 13.8323 9.48338 13.9091C9.24365 14.3367 8.99161 14.7613 8.75143 15.1911C8.51124 15.621 8.57062 15.8543 8.97606 16.1153C9.29034 16.317 9.52491 16.5683 9.60436 16.9428C9.5322 16.9621 9.55597 17.0197 9.5649 17.0686L9.40596 17.3531C8.71083 16.9431 8.01563 16.5343 7.32036 16.1264C7.36231 16.045 7.41017 15.9663 7.44548 15.8835C7.51134 15.7119 7.68621 15.5844 7.67819 15.375C7.72879 15.2986 7.78311 15.2244 7.8261 15.1469C8.06983 14.7381 8.31242 14.329 8.55385 13.9194L9.57408 13.6586Z" fill="#6E9ABB"/>
<path d="M8.55737 13.9186C8.31463 14.3285 8.07205 14.7376 7.82961 15.1461C7.78272 15.2246 7.72841 15.2989 7.68171 15.3742L7.00033 14.9766C7.04408 14.8864 7.08191 14.7935 7.13087 14.7071C7.65811 13.7909 8.18553 12.8754 8.71311 11.9605C8.95948 11.5342 9.21823 11.1152 9.33864 10.6284C9.72017 11.2487 9.71372 11.8683 9.35355 12.4978C9.08513 12.9666 8.7901 13.4258 8.55737 13.9186Z" fill="#C3D7EF"/>
<path d="M22.7515 24.1011L23.4556 24.5093C23.4589 24.5386 23.4563 24.5682 23.4481 24.5965C23.4399 24.6247 23.4262 24.6511 23.4077 24.674C23.051 25.2931 22.693 25.9074 22.3435 26.5299C22.2774 26.646 22.2267 26.6868 22.0941 26.6093C21.2261 26.1005 20.3553 25.5966 19.4817 25.0976C19.3669 25.0321 19.3443 24.9753 19.4209 24.871C19.4975 24.7667 19.5353 24.6309 19.6464 24.5425C19.6726 24.6402 19.7544 24.6643 19.8246 24.7042C20.2368 24.9435 20.6492 25.1838 21.0615 25.4199C21.4739 25.656 21.856 25.5411 22.1158 25.1458C22.3398 24.8114 22.5669 24.4888 22.7112 24.1108L22.7515 24.1011Z" fill="#118A31"/>
<path d="M7.00056 14.9762L7.67511 15.3755C7.68163 15.5832 7.51021 15.7119 7.4385 15.885C7.40372 15.9698 7.35585 16.0486 7.31338 16.128C7.07043 16.5397 6.81882 16.9464 6.59027 17.3689C6.50053 17.5333 6.43136 17.556 6.26749 17.4554C5.44609 16.9669 4.61807 16.4875 3.78343 16.0172C3.59327 15.9122 3.56918 15.8223 3.69777 15.6664C3.75534 15.5965 3.77371 15.4973 3.85557 15.444C4.36084 15.7421 4.85508 16.0537 5.37353 16.3347C5.52306 16.4144 5.69613 16.4377 5.86126 16.4003C6.02638 16.363 6.17259 16.2675 6.27327 16.1313C6.5413 15.782 6.78868 15.4141 6.91544 14.9822L7.00056 14.9762Z" fill="#118A31"/>
<path d="M20.9887 26.6147C21.1173 27.0944 20.8807 27.3818 20.6392 27.6508C20.2453 28.0956 19.7336 28.3898 19.2152 28.6669C19.1521 28.7006 19.0462 28.7771 19.0525 28.6058C19.0746 28.0019 19.0526 27.3931 19.2171 26.8056C19.4134 26.1027 20.1149 25.8655 20.7104 26.2861C20.8365 26.3622 20.9343 26.4776 20.9887 26.6147Z" fill="#F4974E"/>
<path d="M5.26412 17.6082C5.28171 17.707 5.27865 17.8084 5.25512 17.9059C5.2316 18.0034 5.18812 18.0949 5.12744 18.1747C4.70761 18.7961 4.07536 19.1436 3.44363 19.4929C3.35265 19.5435 3.31818 19.5046 3.31993 19.4214C3.30544 18.7666 3.27298 18.1072 3.53262 17.4847C3.60711 17.309 3.73672 17.1624 3.90184 17.0672C4.06697 16.9719 4.25862 16.9332 4.44782 16.9567C4.80208 16.9917 5.17387 17.2753 5.26412 17.6082Z" fill="#F4974E"/>
<path d="M21.0822 11.1361L21.0787 11.1894C20.9284 11.2298 20.7973 11.3225 20.709 11.451C20.6206 11.5794 20.5808 11.7351 20.5966 11.8903C20.6178 12.7925 20.1927 13.4646 19.4635 13.9375C19.1372 14.1474 18.9535 14.3747 19.0127 14.7672L19.0182 14.7877C18.0759 14.9962 17.205 14.8547 16.4378 14.2382C16.0357 13.9317 15.7343 13.5117 15.5722 13.0324C15.5033 12.8414 15.4883 12.68 15.7172 12.5632C15.9088 12.4668 15.9403 12.2605 15.939 12.0608C15.9302 11.8261 15.9565 11.5914 16.0169 11.3645C16.2089 10.712 16.6183 10.2389 17.1874 9.88218C17.5327 9.66505 17.5932 9.49699 17.5064 9.12232C18.9574 8.68642 20.5649 9.52906 21.0321 10.9684C21.0404 11.0269 21.0622 11.0807 21.0822 11.1361ZM19.4042 10.5919C18.797 10.12 18.1461 10.0431 17.454 10.3815C17.1522 10.5304 16.9011 10.7653 16.7321 11.0566C16.5631 11.348 16.4837 11.6829 16.5038 12.0194C16.5704 12.7984 17.0334 13.4147 17.7149 13.6175C18.511 13.8231 19.2535 13.5791 19.6906 12.9949C19.9421 12.6389 20.0569 12.2039 20.0137 11.7697C19.9705 11.3355 19.7723 10.9314 19.4556 10.6316C19.4516 10.6012 19.4307 10.5932 19.4042 10.5919Z" fill="#17A53C"/>
<path d="M17.4997 9.12424C17.5875 9.49865 17.527 9.66671 17.1808 9.88409C16.6149 10.2452 16.2041 10.7133 16.0102 11.3664C15.9523 11.5931 15.9283 11.8271 15.9391 12.0609C15.9404 12.2605 15.9089 12.4669 15.7174 12.5632C15.4884 12.6801 15.5029 12.8396 15.5724 13.0325C15.1528 12.0674 15.2758 11.1454 15.8399 10.2863C16.0265 9.99265 16.2692 9.73883 16.554 9.53942C16.8388 9.34001 17.1602 9.19891 17.4997 9.12424Z" fill="#17A53C"/>
<path d="M19.0109 14.768C18.9507 14.3757 19.1354 14.1482 19.4617 13.9382C20.1912 13.4663 20.6175 12.7908 20.5948 11.8911C20.579 11.7355 20.619 11.5794 20.7078 11.4509C20.7965 11.3223 20.9281 11.2297 21.0789 11.1896C21.5767 12.7003 20.5805 14.4238 19.0109 14.768Z" fill="#118A31"/>
<path d="M11.528 25.3829C11.7371 26.0463 11.4077 26.5178 10.9608 26.9329C10.3921 27.4401 9.75608 27.8664 9.07088 28.1995C8.77228 28.3528 8.6845 28.2905 8.67446 27.9644C8.64934 27.1763 8.65609 26.3901 8.83963 25.6163C9.02318 24.8425 9.52472 24.3856 10.2377 24.3746C10.8795 24.3629 11.3539 24.7332 11.528 25.3829Z" fill="#F9BA76"/>
<path d="M9.56092 17.0708C9.54819 17.0232 9.53365 16.969 9.60008 16.946C9.63238 17.0007 9.59287 17.0352 9.56092 17.0708Z" fill="#9AB4CE"/>
<path d="M19.4519 10.6326C19.7687 10.9324 19.9668 11.3366 20.01 11.7707C20.0532 12.2049 19.9385 12.64 19.687 12.9959C19.2499 13.5801 18.5071 13.8231 17.7112 13.6186C17.5712 13.4625 17.4589 13.2836 17.3793 13.0897C17.2779 12.8636 17.2251 12.6188 17.2242 12.3711C17.2234 12.1234 17.2745 11.8783 17.3744 11.6518C17.4742 11.4253 17.6206 11.2224 17.8038 11.0563C17.9871 10.8901 18.2032 10.7645 18.4382 10.6875C18.7602 10.5865 19.0859 10.6511 19.4047 10.5929L19.4519 10.6326Z" fill="#CFECFF"/>
<path d="M19.4048 10.5927C19.0859 10.6509 18.7603 10.5864 18.4383 10.6873C18.2033 10.7643 17.9872 10.8899 17.8039 11.0561C17.6206 11.2222 17.4743 11.4251 17.3745 11.6516C17.2746 11.8782 17.2234 12.1232 17.2243 12.3709C17.2251 12.6186 17.278 12.8635 17.3793 13.0895C17.4603 13.2834 17.5739 13.4619 17.7152 13.6173C17.0406 13.4127 16.5746 12.7972 16.508 12.0182C16.4877 11.6822 16.5667 11.3479 16.7349 11.0568C16.9032 10.7657 17.1534 10.5307 17.4543 10.3813C18.1467 10.0439 18.7976 10.1208 19.4048 10.5927Z" fill="#A7D0EB"/>
<path d="M19.4517 10.6326L19.4043 10.5919C19.4307 10.5932 19.4517 10.6012 19.4517 10.6326Z" fill="#539BD4"/>
</g>
<defs>
<clipPath id="clip0_2971_99943">
<rect width="32" height="32" fill="white"/>
</clipPath>
</defs>
</svg>
