<svg width="32" height="32" viewBox="0 0 32 32" fill="none" xmlns="http://www.w3.org/2000/svg">
<rect width="32" height="32" rx="16" fill="#3E4551"/>
<path d="M19.7335 9.33331H18.5604C18.2511 9.33331 18 9.57304 18 9.86902C18 10.1643 18.2511 10.4033 18.5604 10.4033H19.7335C20.7328 10.4033 21.5458 11.1795 21.5458 12.1335V13.4643C21.5458 13.7595 21.797 14 22.1063 14C22.4163 14 22.6667 13.7595 22.6667 13.4643V12.1335C22.6667 10.5889 21.3514 9.33331 19.7335 9.33331Z" fill="white"/>
<path d="M14.0002 9.86902C14.0002 9.57304 13.7501 9.33331 13.4422 9.33331H13.4415L12.2471 9.33402C10.6407 9.33542 9.3335 10.5903 9.3335 12.1313V13.4643C9.3335 13.7595 9.58351 14 9.89144 14C10.1994 14 10.4501 13.7595 10.4501 13.4643V12.1313C10.4501 11.1802 11.2566 10.4061 12.2479 10.4047L13.4422 10.404C13.7509 10.404 14.0002 10.1643 14.0002 9.86902Z" fill="white"/>
<path d="M17.8293 12H14.1697C13.3324 12.009 12.6593 12.7236 12.6666 13.5986V14.4771C12.6685 14.5795 12.7474 14.6632 12.8454 14.6667H19.1523C19.251 14.6639 19.3299 14.5802 19.3332 14.4771V13.5986C19.3338 13.176 19.1775 12.7699 18.8953 12.4676C18.615 12.1681 18.2301 12 17.8293 12Z" fill="white"/>
<path d="M23.4465 16H8.55418C8.24873 16 8 16.2488 8 16.556C8 16.8625 8.24873 17.1106 8.55418 17.1106H9.32582V19.7624C9.32582 21.3619 10.6233 22.6645 12.2167 22.6659L13.4015 22.6667C13.7076 22.6667 13.9549 22.4178 13.9556 22.1106C13.9556 21.8041 13.7076 21.5553 13.4022 21.5553L12.2182 21.5546C11.2342 21.5531 10.4335 20.7497 10.4335 19.7624V17.1106H12.3411V17.8484C12.3338 18.7715 13.072 19.526 13.9913 19.5347H18.0087C18.9287 19.526 19.6669 18.7715 19.6596 17.8484V17.1106H21.5673V19.7595C21.5673 20.7504 20.7644 21.5553 19.7775 21.5553H18.6189C18.3127 21.5553 18.0647 21.8041 18.0647 22.1106C18.0647 22.4178 18.3127 22.6667 18.6189 22.6667H19.7775C21.3745 22.6667 22.6742 21.3634 22.6742 19.7595V17.1106H23.4465C23.752 17.1106 24 16.8625 24 16.556C24 16.2488 23.752 16 23.4465 16Z" fill="white"/>
</svg>
