<svg width="16" height="16" viewBox="0 0 16 16" fill="none" xmlns="http://www.w3.org/2000/svg">
<path fill-rule="evenodd" clip-rule="evenodd" d="M11 5C11 5 11 2 8 2C5 2 5 5 5 5V6H4C3.44772 6 3 6.44772 3 7V13C3 13.5523 3.44772 14 4 14H12C12.5523 14 13 13.5523 13 13V7C13 6.44772 12.5523 6 12 6H11V5ZM9.6 6V5.01166C9.5968 4.96684 9.58742 4.85287 9.57217 4.76141C9.54058 4.57185 9.48 4.3405 9.3728 4.1261C9.26834 3.91718 9.13364 3.75085 8.95779 3.63362C8.79071 3.52223 8.50502 3.4 8 3.4C7.49498 3.4 7.20929 3.52223 7.04221 3.63362C6.86636 3.75085 6.73166 3.91718 6.6272 4.1261C6.52 4.3405 6.45942 4.57185 6.42783 4.76141C6.41258 4.85287 6.4032 4.96685 6.4 5.01166V6H9.6ZM8.69999 10.6127C9.11844 10.3706 9.39998 9.91819 9.39998 9.4C9.39998 8.6268 8.77317 8 7.99998 8C7.22678 8 6.59998 8.6268 6.59998 9.4C6.59998 9.9182 6.88152 10.3706 7.29999 10.6127V11.75C7.29999 11.8881 7.41192 12 7.54999 12H8.44999C8.58806 12 8.69999 11.8881 8.69999 11.75V10.6127Z" fill="#6E7279"/>
</svg>
