<svg width="15" height="14" viewBox="0 0 15 14" fill="none" xmlns="http://www.w3.org/2000/svg">
<path fill-rule="evenodd" clip-rule="evenodd" d="M7.50001 13.6667C11.1819 13.6667 14.1667 10.6819 14.1667 7C14.1667 3.3181 11.1819 0.333328 7.50001 0.333328C3.81811 0.333328 0.833344 3.3181 0.833344 7C0.833344 10.6819 3.81811 13.6667 7.50001 13.6667ZM10.6503 4.78824C10.7805 4.65806 10.7805 4.44701 10.6503 4.31683L10.1835 3.84998C10.0533 3.71981 9.84225 3.71981 9.71208 3.84998L7.50016 6.0619L5.28825 3.84998C5.15807 3.71981 4.94702 3.71981 4.81684 3.84998L4.34999 4.31683C4.21982 4.44701 4.21982 4.65806 4.34999 4.78824L6.56191 7.00015L4.34999 9.21207C4.21982 9.34225 4.21982 9.5533 4.34999 9.68348L4.81684 10.1503C4.94702 10.2805 5.15807 10.2805 5.28825 10.1503L7.50016 7.93841L9.71208 10.1503C9.84225 10.2805 10.0533 10.2805 10.1835 10.1503L10.6503 9.68348C10.7805 9.5533 10.7805 9.34225 10.6503 9.21207L8.43842 7.00015L10.6503 4.78824Z" fill="white"/>
</svg>
