<svg width="56" height="46" viewBox="0 0 56 46" fill="none" xmlns="http://www.w3.org/2000/svg">
<rect y="3" width="56" height="40" rx="8" fill="#EAECF0"/>
<path d="M18 29.1111C18 30.0313 18.7465 30.7778 19.6667 30.7778H36.3333C37.2535 30.7778 38 30.0313 38 29.1111V23H18V29.1111ZM24.6667 26.75C24.6667 26.5208 24.8542 26.3333 25.0833 26.3333H29.8056C30.0347 26.3333 30.2222 26.5208 30.2222 26.75V28.1389C30.2222 28.3681 30.0347 28.5556 29.8056 28.5556H25.0833C24.8542 28.5556 24.6667 28.3681 24.6667 28.1389V26.75ZM20.2222 26.75C20.2222 26.5208 20.4097 26.3333 20.6389 26.3333H23.1389C23.3681 26.3333 23.5556 26.5208 23.5556 26.75V28.1389C23.5556 28.3681 23.3681 28.5556 23.1389 28.5556H20.6389C20.4097 28.5556 20.2222 28.3681 20.2222 28.1389V26.75ZM38 16.8889V18.5556H18V16.8889C18 15.9688 18.7465 15.2222 19.6667 15.2222H36.3333C37.2535 15.2222 38 15.9688 38 16.8889Z" fill="#464E5C"/>
</svg>
