<svg width="56" height="40" viewBox="0 0 56 40" fill="none" xmlns="http://www.w3.org/2000/svg">
<rect width="56" height="40" rx="8" fill="#3E4551"/>
<path d="M18 26.1111C18 27.0312 18.7465 27.7777 19.6667 27.7777H36.3333C37.2535 27.7777 38 27.0312 38 26.1111V18.9999H18V26.1111ZM24.6667 23.7499C24.6667 23.5208 24.8542 23.3333 25.0833 23.3333H29.8056C30.0347 23.3333 30.2222 23.5208 30.2222 23.7499V25.1388C30.2222 25.368 30.0347 25.5555 29.8056 25.5555H25.0833C24.8542 25.5555 24.6667 25.368 24.6667 25.1388V23.7499ZM20.2222 23.7499C20.2222 23.5208 20.4097 23.3333 20.6389 23.3333H23.1389C23.3681 23.3333 23.5556 23.5208 23.5556 23.7499V25.1388C23.5556 25.368 23.3681 25.5555 23.1389 25.5555H20.6389C20.4097 25.5555 20.2222 25.368 20.2222 25.1388V23.7499ZM38 13.8888V16.5555H18V13.8888C18 12.9687 18.7465 12.2222 19.6667 12.2222H36.3333C37.2535 12.2222 38 12.9687 38 13.8888Z" fill="white"/>
</svg>
