<svg width="46" height="46" viewBox="0 0 46 46" fill="none" xmlns="http://www.w3.org/2000/svg">
<rect width="46" height="46" rx="23" fill="#EAECF0"/>
<path fill-rule="evenodd" clip-rule="evenodd" d="M17.3927 24.9838C16.8694 25.5108 16.869 26.3656 17.3918 26.893L22.0525 31.5951C22.3037 31.8485 22.6446 31.9909 23 31.9909C23.3554 31.9909 23.6963 31.8485 23.9475 31.5951L28.6082 26.893C29.131 26.3656 29.1306 25.5108 28.6073 24.9838C28.084 24.4569 27.2359 24.4573 26.7131 24.9848L23 28.7308L19.2869 24.9848C18.7641 24.4573 17.9161 24.4569 17.3927 24.9838Z" fill="#3E4551"/>
<path d="M21.6556 30.65C21.6556 31.3956 22.2553 32 22.995 32C23.7347 32 24.3344 31.3956 24.3344 30.65V15.35C24.3344 14.6044 23.7347 14 22.995 14C22.2553 14 21.6556 14.6044 21.6556 15.35V30.65Z" fill="#3E4551"/>
</svg>
