<svg width="16" height="16" viewBox="0 0 16 16" fill="none" xmlns="http://www.w3.org/2000/svg">
<path d="M13.5557 2H2.44461C1.83118 2 1.3335 2.49769 1.3335 3.11111V10.5185C1.3335 11.1319 1.83118 11.6296 2.44461 11.6296H6.88905L6.51868 12.7407H4.85201C4.54414 12.7407 4.29646 12.9884 4.29646 13.2963C4.29646 13.6042 4.54414 13.8519 4.85201 13.8519H11.1483C11.4562 13.8519 11.7039 13.6042 11.7039 13.2963C11.7039 12.9884 11.4562 12.7407 11.1483 12.7407H9.48164L9.11127 11.6296H13.5557C14.1691 11.6296 14.6668 11.1319 14.6668 10.5185V3.11111C14.6668 2.49769 14.1691 2 13.5557 2ZM13.1853 10.1481H2.81498V3.48148H13.1853V10.1481Z" fill="white"/>
</svg>
