<svg width="16" height="16" viewBox="0 0 16 16" fill="none" xmlns="http://www.w3.org/2000/svg">
<path d="M8.9643 14.0563C8.83036 14.5514 8.32443 14.6667 7.83333 14.6667C7.34227 14.6667 6.8363 14.5514 6.7024 14.0563C6.50331 13.316 6.16667 11.4609 6.16667 10.5977C6.16667 9.68215 6.97766 9.45834 7.83333 9.45834C8.68901 9.45834 9.5 9.68215 9.5 10.5977C9.5 11.4557 9.16482 13.3107 8.9643 14.0563ZM6.08508 8.84777C5.59828 8.371 5.30492 7.69743 5.33549 6.95717C5.38898 5.66228 6.43953 4.61457 7.73456 4.56444C9.15787 4.50933 10.3333 5.65123 10.3333 7.06251C10.3333 7.76113 10.0452 8.39366 9.58161 8.84772C9.51195 8.91595 9.51909 9.02965 9.59797 9.08696C9.84047 9.26314 10.0266 9.48652 10.1509 9.74746C10.1963 9.84261 10.3201 9.86881 10.397 9.7967C11.1477 9.09246 11.6093 8.0836 11.5822 6.96949C11.5339 4.98496 9.92607 3.37032 7.94174 3.31405C5.82471 3.25399 4.08333 4.95873 4.08333 7.06251C4.08333 8.13962 4.5399 9.11199 5.26953 9.7966C5.34643 9.86876 5.47034 9.84269 5.5157 9.74746C5.64003 9.4865 5.8262 9.26314 6.0687 9.08696C6.14758 9.02967 6.15474 8.91597 6.08508 8.84777ZM7.83333 1.33334C4.60948 1.33334 2 3.94233 2 7.16668C2 9.51022 3.36984 11.4804 5.27445 12.4117C5.38729 12.4668 5.51578 12.3715 5.49672 12.2474C5.43469 11.8434 5.38365 11.4415 5.35594 11.0927C5.35214 11.0449 5.32602 11.0019 5.2862 10.9752C4.05182 10.1469 3.24026 8.73519 3.25008 7.13803C3.26549 4.63186 5.31492 2.58991 7.82115 2.58337C10.354 2.57676 12.4167 4.63535 12.4167 7.16668C12.4167 8.77949 11.5792 10.2003 10.3164 11.0174C10.2904 11.3829 10.2365 11.8139 10.1699 12.2473C10.1509 12.3715 10.2794 12.4668 10.3922 12.4117C12.2924 11.4825 13.6667 9.5153 13.6667 7.16668C13.6667 3.94285 11.0577 1.33334 7.83333 1.33334ZM7.83333 5.50001C6.91286 5.50001 6.16667 6.24621 6.16667 7.16668C6.16667 8.08715 6.91286 8.83334 7.83333 8.83334C8.7538 8.83334 9.5 8.08715 9.5 7.16668C9.5 6.24621 8.7538 5.50001 7.83333 5.50001Z" fill="white"/>
</svg>
