<svg width="32" height="32" viewBox="0 0 32 32" fill="none" xmlns="http://www.w3.org/2000/svg">
<rect width="32" height="32" rx="16" fill="#30C6E0"/>
<path fill-rule="evenodd" clip-rule="evenodd" d="M15.9848 19.4062C18.0888 19.4062 19.7943 17.7347 19.7943 15.6729C19.7943 13.611 18.0888 11.9395 15.9848 11.9395C13.8809 11.9395 12.1753 13.611 12.1753 15.6729C12.1753 17.7347 13.8809 19.4062 15.9848 19.4062Z" fill="#FFCD4B"/>
<path fill-rule="evenodd" clip-rule="evenodd" d="M14.43 22.3457L15.9841 20.0722L17.5382 22.3457L17.9319 19.6365L20.3387 21.024L19.4939 18.4158L22.2766 18.6425L20.3607 16.6518L22.9683 15.6728L20.3607 14.6939L22.2766 12.7031L19.4939 12.9299L20.3387 10.3216L17.9319 11.7091L17.5382 9L15.9841 11.2735L14.43 9L14.0364 11.7091L11.6296 10.3216L12.4744 12.9299L9.69165 12.7031L11.6075 14.6939L9 15.6728L11.6075 16.6518L9.69165 18.6425L12.4744 18.4158L11.6296 21.024L14.0364 19.6365L14.43 22.3457ZM20.4286 15.6729C20.4286 18.0784 18.4388 20.0284 15.9842 20.0284C13.5296 20.0284 11.5397 18.0784 11.5397 15.6729C11.5397 13.2674 13.5296 11.3173 15.9842 11.3173C18.4388 11.3173 20.4286 13.2674 20.4286 15.6729Z" fill="#FFCD4B"/>
<path d="M4 8.33333C4 8.14924 4.14924 8 4.33333 8H4.93651C5.1206 8 5.26984 8.14924 5.26984 8.33333V8.91111C5.26984 9.09521 5.1206 9.24445 4.93651 9.24445H4.33333C4.14924 9.24445 4 9.09521 4 8.91111V8.33333Z" fill="#FFCD4B"/>
<path d="M4 10.8222C4 10.6381 4.14924 10.4888 4.33333 10.4888H4.93651C5.1206 10.4888 5.26984 10.6381 5.26984 10.8222V11.3999C5.26984 11.584 5.1206 11.7333 4.93651 11.7333H4.33333C4.14924 11.7333 4 11.584 4 11.3999V10.8222Z" fill="#FFCD4B"/>
<path d="M4.33333 12.9778C4.14924 12.9778 4 13.127 4 13.3111V13.8889C4 14.073 4.14924 14.2222 4.33333 14.2222H4.93651C5.1206 14.2222 5.26984 14.073 5.26984 13.8889V13.3111C5.26984 13.127 5.1206 12.9778 4.93651 12.9778H4.33333Z" fill="#FFCD4B"/>
<path d="M4 15.8C4 15.6159 4.14924 15.4666 4.33333 15.4666H4.93651C5.1206 15.4666 5.26984 15.6159 5.26984 15.8V16.3777C5.26984 16.5618 5.1206 16.7111 4.93651 16.7111H4.33333C4.14924 16.7111 4 16.5618 4 16.3777V15.8Z" fill="#FFCD4B"/>
<path d="M4.33333 17.9555C4.14924 17.9555 4 18.1048 4 18.2888V18.8666C4 19.0507 4.14924 19.2 4.33333 19.2H4.93651C5.1206 19.2 5.26984 19.0507 5.26984 18.8666V18.2888C5.26984 18.1048 5.1206 17.9555 4.93651 17.9555H4.33333Z" fill="#FFCD4B"/>
<path d="M4 20.7778C4 20.5937 4.14924 20.4445 4.33333 20.4445H4.93651C5.1206 20.4445 5.26984 20.5937 5.26984 20.7778V21.3556C5.26984 21.5397 5.1206 21.6889 4.93651 21.6889H4.33333C4.14924 21.6889 4 21.5397 4 21.3556V20.7778Z" fill="#FFCD4B"/>
<path d="M4.33333 22.9333C4.14924 22.9333 4 23.0826 4 23.2666V23.8444C4 24.0285 4.14924 24.1778 4.33333 24.1778H4.93651C5.1206 24.1778 5.26984 24.0285 5.26984 23.8444V23.2666C5.26984 23.0826 5.1206 22.9333 4.93651 22.9333H4.33333Z" fill="#FFCD4B"/>
<path d="M5.26953 22.0222C5.26953 21.8381 5.41877 21.6889 5.60286 21.6889H6.20604C6.39013 21.6889 6.53937 21.8381 6.53937 22.0222V22.6C6.53937 22.7841 6.39013 22.9333 6.20604 22.9333H5.60286C5.41877 22.9333 5.26953 22.7841 5.26953 22.6V22.0222Z" fill="#FFCD4B"/>
<path d="M5.60286 19.2C5.41877 19.2 5.26953 19.3493 5.26953 19.5333V20.1111C5.26953 20.2952 5.41877 20.4445 5.60286 20.4445H6.20604C6.39013 20.4445 6.53937 20.2952 6.53937 20.1111V19.5333C6.53937 19.3493 6.39013 19.2 6.20604 19.2H5.60286Z" fill="#FFCD4B"/>
<path d="M5.26953 17.0444C5.26953 16.8603 5.41877 16.7111 5.60286 16.7111H6.20604C6.39013 16.7111 6.53937 16.8603 6.53937 17.0444V17.6222C6.53937 17.8063 6.39013 17.9555 6.20604 17.9555H5.60286C5.41877 17.9555 5.26953 17.8063 5.26953 17.6222V17.0444Z" fill="#FFCD4B"/>
<path d="M5.60286 14.2222C5.41877 14.2222 5.26953 14.3715 5.26953 14.5555V15.1333C5.26953 15.3174 5.41877 15.4667 5.60286 15.4667H6.20604C6.39013 15.4667 6.53937 15.3174 6.53937 15.1333V14.5555C6.53937 14.3715 6.39013 14.2222 6.20604 14.2222H5.60286Z" fill="#FFCD4B"/>
<path d="M5.26953 12.0667C5.26953 11.8826 5.41877 11.7333 5.60286 11.7333H6.20604C6.39013 11.7333 6.53937 11.8826 6.53937 12.0667V12.6444C6.53937 12.8285 6.39013 12.9778 6.20604 12.9778H5.60286C5.41877 12.9778 5.26953 12.8285 5.26953 12.6444V12.0667Z" fill="#FFCD4B"/>
<path d="M5.60286 9.24442C5.41877 9.24442 5.26953 9.39365 5.26953 9.57775V10.1555C5.26953 10.3396 5.41877 10.4889 5.60286 10.4889H6.20604C6.39013 10.4889 6.53937 10.3396 6.53937 10.1555V9.57775C6.53937 9.39365 6.39013 9.24442 6.20604 9.24442H5.60286Z" fill="#FFCD4B"/>
<path d="M4 5.7778C4 5.59371 4.14924 5.44447 4.33333 5.44447H4.93651C5.1206 5.44447 5.26984 5.59371 5.26984 5.7778V6.35558C5.26984 6.53968 5.1206 6.68892 4.93651 6.68892H4.33333C4.14924 6.68892 4 6.53968 4 6.35558V5.7778Z" fill="#FFCD4B"/>
<path d="M4.33333 7.93331C4.14924 7.93331 4 8.08255 4 8.26664V8.84442C4 9.02852 4.14924 9.17776 4.33333 9.17776H4.93651C5.1206 9.17776 5.26984 9.02852 5.26984 8.84442V8.26664C5.26984 8.08255 5.1206 7.93331 4.93651 7.93331H4.33333Z" fill="#FFCD4B"/>
<path d="M5.26953 7.02222C5.26953 6.83813 5.41877 6.68889 5.60286 6.68889H6.20604C6.39013 6.68889 6.53937 6.83813 6.53937 7.02222V7.6C6.53937 7.7841 6.39013 7.93333 6.20604 7.93333H5.60286C5.41877 7.93333 5.26953 7.7841 5.26953 7.6V7.02222Z" fill="#FFCD4B"/>
<path d="M5.60286 4.20001C5.41877 4.20001 5.26953 4.34925 5.26953 4.53335V5.11112C5.26953 5.29522 5.41877 5.44446 5.60286 5.44446H6.20604C6.39013 5.44446 6.53937 5.29522 6.53937 5.11112V4.53335C6.53937 4.34925 6.39013 4.20001 6.20604 4.20001H5.60286Z" fill="#FFCD4B"/>
<path d="M4 23.3333C4 23.1492 4.14924 23 4.33333 23H4.93651C5.1206 23 5.26984 23.1492 5.26984 23.3333V23.9111C5.26984 24.0952 5.1206 24.2444 4.93651 24.2444H4.33333C4.14924 24.2444 4 24.0952 4 23.9111V23.3333Z" fill="#FFCD4B"/>
<path d="M4 25.8222C4 25.6381 4.14924 25.4888 4.33333 25.4888H4.93651C5.1206 25.4888 5.26984 25.6381 5.26984 25.8222V26.3999C5.26984 26.584 5.1206 26.7333 4.93651 26.7333H4.33333C4.14924 26.7333 4 26.584 4 26.3999V25.8222Z" fill="#FFCD4B"/>
<path d="M5.26953 27.0667C5.26953 26.8826 5.41877 26.7333 5.60286 26.7333H6.20604C6.39013 26.7333 6.53937 26.8826 6.53937 27.0667V27.6444C6.53937 27.8285 6.39013 27.9778 6.20604 27.9778H5.60286C5.41877 27.9778 5.26953 27.8285 5.26953 27.6444V27.0667Z" fill="#FFCD4B"/>
<path d="M5.60286 24.2444C5.41877 24.2444 5.26953 24.3937 5.26953 24.5777V25.1555C5.26953 25.3396 5.41877 25.4889 5.60286 25.4889H6.20604C6.39013 25.4889 6.53937 25.3396 6.53937 25.1555V24.5777C6.53937 24.3937 6.39013 24.2444 6.20604 24.2444H5.60286Z" fill="#FFCD4B"/>
</svg>
