<svg width="14" height="20" viewBox="0 0 14 20" fill="none" xmlns="http://www.w3.org/2000/svg">
<path d="M3.87726 17.7477C3.87765 17.9934 3.95031 18.234 4.08663 18.4387L4.7542 19.4422C4.86824 19.6137 5.02291 19.7544 5.20447 19.8518C5.38602 19.9491 5.58881 20 5.7948 20H8.2053C8.41129 20 8.61408 19.9491 8.79563 19.8518C8.97718 19.7544 9.13186 19.6137 9.2459 19.4422L9.91346 18.4387C10.0497 18.234 10.1226 17.9936 10.1228 17.7477L10.1244 16.2497H3.87531L3.87726 17.7477ZM0.125 6.87489C0.125 8.60805 0.767564 10.1893 1.82653 11.3974C2.47183 12.1338 3.48118 13.672 3.86594 14.9696C3.8675 14.9798 3.86867 14.99 3.87023 15.0001H10.1295C10.131 14.99 10.1322 14.9802 10.1338 14.9696C10.5185 13.672 11.5279 12.1338 12.1732 11.3974C13.2321 10.1893 13.8747 8.60805 13.8747 6.87489C13.8747 3.07067 10.7853 -0.0116852 6.97837 3.33031e-05C2.99369 0.0121424 0.125 3.24098 0.125 6.87489ZM6.99985 3.74995C5.27684 3.74995 3.87492 5.15188 3.87492 6.87489C3.87492 7.22019 3.59524 7.49987 3.24993 7.49987C2.90463 7.49987 2.62495 7.22019 2.62495 6.87489C2.62495 4.46244 4.58741 2.49998 6.99985 2.49998C7.34516 2.49998 7.62484 2.77966 7.62484 3.12497C7.62484 3.47027 7.34516 3.74995 6.99985 3.74995Z" fill="#35383F"/>
</svg>
