<svg width="16" height="16" viewBox="0 0 16 16" fill="none" xmlns="http://www.w3.org/2000/svg">
<path d="M1.3335 12.0741C1.3335 12.6875 1.83118 13.1852 2.44461 13.1852H13.5557C14.1691 13.1852 14.6668 12.6875 14.6668 12.0741V8H1.3335V12.0741ZM5.77794 10.5C5.77794 10.3472 5.90294 10.2222 6.05572 10.2222H9.20387C9.35664 10.2222 9.48164 10.3472 9.48164 10.5V11.4259C9.48164 11.5787 9.35664 11.7037 9.20387 11.7037H6.05572C5.90294 11.7037 5.77794 11.5787 5.77794 11.4259V10.5ZM2.81498 10.5C2.81498 10.3472 2.93998 10.2222 3.09276 10.2222H4.75942C4.9122 10.2222 5.0372 10.3472 5.0372 10.5V11.4259C5.0372 11.5787 4.9122 11.7037 4.75942 11.7037H3.09276C2.93998 11.7037 2.81498 11.5787 2.81498 11.4259V10.5ZM14.6668 3.92593V5.03704H1.3335V3.92593C1.3335 3.3125 1.83118 2.81482 2.44461 2.81482H13.5557C14.1691 2.81482 14.6668 3.3125 14.6668 3.92593Z" fill="white"/>
</svg>
