<svg width="32" height="32" viewBox="0 0 32 32" fill="none" xmlns="http://www.w3.org/2000/svg">
<rect width="32" height="32" rx="16" fill="#464E5C"/>
<path d="M20.5837 15.1663H19.9587V13.2913C19.9587 11.109 18.1826 9.33301 16.0003 9.33301C13.818 9.33301 12.042 11.109 12.042 13.2913V15.1663H11.417C10.7269 15.1663 10.167 15.7262 10.167 16.4163V21.4163C10.167 22.1064 10.7269 22.6663 11.417 22.6663H20.5837C21.2738 22.6663 21.8337 22.1064 21.8337 21.4163V16.4163C21.8337 15.7262 21.2738 15.1663 20.5837 15.1663ZM17.8753 15.1663H14.1253V13.2913C14.1253 12.2575 14.9665 11.4163 16.0003 11.4163C17.0342 11.4163 17.8753 12.2575 17.8753 13.2913V15.1663Z" fill="white"/>
</svg>
