<svg width="12" height="14" viewBox="0 0 12 14" fill="none" xmlns="http://www.w3.org/2000/svg">
<path d="M10.5827 6.16634H9.95768V4.29134C9.95768 2.10905 8.18164 0.333008 5.99935 0.333008C3.81706 0.333008 2.04102 2.10905 2.04102 4.29134V6.16634H1.41602C0.725911 6.16634 0.166016 6.72624 0.166016 7.41634V12.4163C0.166016 13.1064 0.725911 13.6663 1.41602 13.6663H10.5827C11.2728 13.6663 11.8327 13.1064 11.8327 12.4163V7.41634C11.8327 6.72624 11.2728 6.16634 10.5827 6.16634ZM7.87435 6.16634H4.12435V4.29134C4.12435 3.25749 4.96549 2.41634 5.99935 2.41634C7.0332 2.41634 7.87435 3.25749 7.87435 4.29134V6.16634Z" fill="white"/>
</svg>
