<svg width="32" height="32" viewBox="0 0 32 32" fill="none" xmlns="http://www.w3.org/2000/svg">
<rect width="32" height="32" rx="16" fill="#464E5C"/>
<path d="M22.4137 14.3021C22.5153 14.2214 22.6663 14.2969 22.6663 14.4245V19.75C22.6663 20.4401 22.1064 21 21.4163 21H10.583C9.8929 21 9.33301 20.4401 9.33301 19.75V14.4271C9.33301 14.2969 9.48145 14.224 9.58561 14.3047C10.1689 14.7578 10.9424 15.3333 13.5986 17.263C14.1481 17.6641 15.0752 18.5078 15.9997 18.5026C16.9294 18.5104 17.8747 17.6484 18.4033 17.263C21.0596 15.3333 21.8304 14.7552 22.4137 14.3021ZM15.9997 17.6667C16.6038 17.6771 17.4736 16.9062 17.9111 16.5885C21.3669 14.0807 21.6299 13.862 22.4268 13.237C22.5778 13.1198 22.6663 12.9375 22.6663 12.7448V12.25C22.6663 11.5599 22.1064 11 21.4163 11H10.583C9.8929 11 9.33301 11.5599 9.33301 12.25V12.7448C9.33301 12.9375 9.42155 13.1172 9.57259 13.237C10.3695 13.8594 10.6325 14.0807 14.0882 16.5885C14.5257 16.9062 15.3955 17.6771 15.9997 17.6667Z" fill="white"/>
</svg>
