<svg width="16" height="16" viewBox="0 0 16 16" fill="none" xmlns="http://www.w3.org/2000/svg">
<path d="M11.0833 1.33334H5.25C4.5599 1.33334 4 1.89323 4 2.58334V13.4167C4 14.1068 4.5599 14.6667 5.25 14.6667H11.0833C11.7734 14.6667 12.3333 14.1068 12.3333 13.4167V2.58334C12.3333 1.89323 11.7734 1.33334 11.0833 1.33334ZM8.16667 13.8333C7.70573 13.8333 7.33333 13.4609 7.33333 13C7.33333 12.5391 7.70573 12.1667 8.16667 12.1667C8.6276 12.1667 9 12.5391 9 13C9 13.4609 8.6276 13.8333 8.16667 13.8333ZM11.0833 11.0208C11.0833 11.1927 10.9427 11.3333 10.7708 11.3333H5.5625C5.39062 11.3333 5.25 11.1927 5.25 11.0208V2.89584C5.25 2.72396 5.39062 2.58334 5.5625 2.58334H10.7708C10.9427 2.58334 11.0833 2.72396 11.0833 2.89584V11.0208Z" fill="white"/>
</svg>
