<svg width="20" height="12" viewBox="0 0 20 12" fill="none" xmlns="http://www.w3.org/2000/svg">
<path d="M19 0H1C0.447812 0 0 0.447812 0 1V11C0 11.5522 0.447812 12 1 12H19C19.5522 12 20 11.5522 20 11V1C20 0.447812 19.5522 0 19 0ZM1.5 10.5V8.5C2.60469 8.5 3.5 9.39531 3.5 10.5H1.5ZM1.5 3.5V1.5H3.5C3.5 2.60469 2.60469 3.5 1.5 3.5ZM10 9C8.61906 9 7.5 7.65656 7.5 6C7.5 4.34312 8.61938 3 10 3C11.3806 3 12.5 4.34312 12.5 6C12.5 7.65719 11.3803 9 10 9ZM18.5 10.5H16.5C16.5 9.39531 17.3953 8.5 18.5 8.5V10.5ZM18.5 3.5C17.3953 3.5 16.5 2.60469 16.5 1.5H18.5V3.5Z" fill="#35383F"/>
</svg>
