<svg width="16" height="16" viewBox="0 0 16 16" fill="none" xmlns="http://www.w3.org/2000/svg">
<path fill-rule="evenodd" clip-rule="evenodd" d="M10.9272 2H5.16495C3.23284 2 1.6665 3.56634 1.6665 5.49844V10.2831C1.6665 12.2152 3.23284 13.7816 5.16495 13.7816H10.9272C12.8593 13.7816 14.4257 12.2152 14.4257 10.2831V10.0971H11.7269C10.4603 10.0963 9.43294 9.07033 9.43216 7.80325C9.43216 6.53564 10.4606 5.50953 11.7269 5.50876L14.4257 5.50876V5.49844C14.4257 3.56634 12.8593 2 10.9272 2ZM14.4257 6.50876H11.7271C11.0117 6.50926 10.4323 7.08849 10.4322 7.80263C10.4327 8.51741 11.012 9.09668 11.7273 9.09712H14.4257V6.50876ZM4.69027 4.52539C4.41412 4.52539 4.19027 4.74925 4.19027 5.02539C4.19027 5.30153 4.41412 5.52539 4.69027 5.52539H8.28957C8.56571 5.52539 8.78957 5.30153 8.78957 5.02539C8.78957 4.74925 8.56571 4.52539 8.28957 4.52539H4.69027ZM11.3245 7.76187C11.3245 7.68652 11.3411 7.61506 11.371 7.55098C11.4505 7.38023 11.6237 7.26187 11.8245 7.26187H12.0323C12.1122 7.26187 12.1879 7.28065 12.2549 7.31405C12.4193 7.39595 12.5323 7.56572 12.5323 7.76187C12.5323 8.03801 12.3084 8.26187 12.0323 8.26187H11.8245C11.5483 8.26187 11.3245 8.03801 11.3245 7.76187Z" fill="white"/>
</svg>
