<svg width="24" height="24" viewBox="0 0 24 24" fill="none" xmlns="http://www.w3.org/2000/svg">
<path fill-rule="evenodd" clip-rule="evenodd" d="M6.03197 12.7348L10.2852 16.6609C10.4881 16.8482 10.5008 17.1645 10.3135 17.3674L9.63518 18.1022C9.44788 18.3051 9.13155 18.3178 8.92864 18.1305L2.39802 12.1022C2.18354 11.9042 2.18354 11.5654 2.39802 11.3674L8.92864 5.33914C9.13155 5.15184 9.44788 5.16449 9.63518 5.3674L10.3135 6.10221C10.5008 6.30512 10.4881 6.62144 10.2852 6.80875L6.03197 10.7348H21.9743C22.2505 10.7348 22.4743 10.9587 22.4743 11.2348V12.2348C22.4743 12.5109 22.2505 12.7348 21.9743 12.7348H6.03197Z" fill="#6E7279"/>
</svg>
