<svg width="80" height="100" viewBox="0 0 80 100" fill="none" xmlns="http://www.w3.org/2000/svg">
<g clip-path="url(#clip0_3312_110655)">
<rect x="3.4165" y="34.1533" width="68.3311" height="43.1011" rx="6" transform="rotate(-13.6743 3.4165 34.1533)" fill="#CB4B2E"/>
<rect x="5.83954" y="44.1123" width="68.3311" height="6.83311" transform="rotate(-13.6743 5.83954 44.1123)" fill="#9A3623"/>
</g>
<g clip-path="url(#clip1_3312_110655)">
<rect y="38.1387" width="68" height="43" fill="#ED6647"/>
<rect y="38.1387" width="68" height="12.782" fill="#F08456"/>
<path d="M53.874 51.242C53.9724 51.3403 54.0892 51.4182 54.2179 51.4715C54.3466 51.5247 54.4846 51.5521 54.6239 51.5521C54.7633 51.5521 54.9013 51.5247 55.03 51.4715C55.1587 51.4182 55.2755 51.3403 55.3738 51.242C55.4728 51.1442 55.5514 51.0278 55.605 50.8997C55.6587 50.7715 55.6864 50.6341 55.6865 50.4953C55.6866 50.3564 55.6591 50.219 55.6056 50.0907C55.5521 49.9625 55.4737 49.8461 55.3749 49.7481C55.277 49.6472 55.1599 49.5668 55.0304 49.5114C54.9009 49.456 54.7616 49.4269 54.6206 49.4257C54.4797 49.4244 54.3399 49.4512 54.2095 49.5043C54.079 49.5574 53.9605 49.6358 53.8609 49.735C53.7612 49.8342 53.6824 49.9522 53.629 50.082C53.5757 50.2119 53.5488 50.351 53.55 50.4913C53.5513 50.6315 53.5805 50.7702 53.6362 50.899C53.6918 51.0279 53.7727 51.1445 53.874 51.242ZM58.0651 54.9771C58.0648 54.8383 58.0922 54.7009 58.1456 54.5727C58.1989 54.4445 58.2773 54.3281 58.3761 54.2302C60.4454 52.1706 60.4448 48.8195 58.3761 46.7594C58.177 46.5613 58.0652 46.2925 58.0652 46.0122C58.0652 45.732 58.177 45.4632 58.3761 45.2651C58.5752 45.0669 58.8452 44.9556 59.1268 44.9556C59.4084 44.9556 59.6784 45.0669 59.8775 45.2651C62.7742 48.1487 62.7742 52.8404 59.8775 55.7235C59.7291 55.8713 59.54 55.972 59.3341 56.0129C59.1282 56.0538 58.9147 56.0329 58.7207 55.953C58.5267 55.8731 58.3609 55.7378 58.2442 55.564C58.1275 55.3903 58.0651 55.1861 58.0651 54.9771ZM55.8138 48.2538C55.8138 48.0449 55.8761 47.8407 55.9928 47.667C56.1094 47.4933 56.2751 47.3579 56.4691 47.278C56.663 47.198 56.8764 47.1771 57.0822 47.2178C57.2881 47.2586 57.4772 47.3592 57.6257 47.5069C59.281 49.1539 59.281 51.8352 57.6257 53.4827C57.4266 53.6809 57.1565 53.7922 56.875 53.7922C56.5934 53.7922 56.3234 53.6809 56.1243 53.4827C55.9252 53.2846 55.8133 53.0158 55.8133 52.7355C55.8133 52.4553 55.9252 52.1865 56.1243 51.9884C56.5218 51.5918 56.745 51.0544 56.745 50.4943C56.745 49.9341 56.5218 49.3968 56.1243 49.0002C56.0256 48.9023 55.9474 48.7859 55.8941 48.6578C55.8408 48.5297 55.8135 48.3924 55.8138 48.2538Z" fill="#D8E7FD"/>
<rect x="6.79999" y="68.8154" width="11.9" height="4.26067" rx="1" fill="#9A3623"/>
<rect x="21.25" y="68.8154" width="11.9" height="4.26067" rx="1" fill="#9A3623"/>
<rect x="35.7" y="68.8154" width="11.9" height="4.26067" rx="1" fill="#9A3623"/>
<rect x="50.15" y="68.8154" width="11.9" height="4.26067" rx="1" fill="#9A3623"/>
<rect x="6.79999" y="44.9556" width="13.6" height="11.0777" rx="2" fill="#F3B162"/>
<path d="M6.79999 46.9556C6.79999 45.851 7.69542 44.9556 8.79999 44.9556H18.4C19.5046 44.9556 20.4 45.851 20.4 46.9556V50.9205H6.79999V46.9556Z" fill="#F9D77E"/>
<rect x="10.2" y="48.3643" width="6.8" height="4.26067" rx="2.13034" fill="#FBE67E"/>
</g>
<defs>
<clipPath id="clip0_3312_110655">
<rect x="3.4165" y="34.1533" width="68.3311" height="43.1011" rx="6" transform="rotate(-13.6743 3.4165 34.1533)" fill="white"/>
</clipPath>
<clipPath id="clip1_3312_110655">
<rect y="38.1387" width="68" height="43" rx="6" fill="white"/>
</clipPath>
</defs>
</svg>
