<svg width="32" height="24" viewBox="0 0 32 24" fill="none" xmlns="http://www.w3.org/2000/svg">
<g clip-path="url(#clip0_2070_2237)">
<path d="M0 21.4286C0 22.8482 1.19444 24 2.66667 24H29.3333C30.8056 24 32 22.8482 32 21.4286V10H0V21.4286ZM10.6667 17.7857C10.6667 17.4321 10.9667 17.1429 11.3333 17.1429H18.8889C19.2556 17.1429 19.5556 17.4321 19.5556 17.7857V19.9286C19.5556 20.2821 19.2556 20.5714 18.8889 20.5714H11.3333C10.9667 20.5714 10.6667 20.2821 10.6667 19.9286V17.7857ZM3.55556 17.7857C3.55556 17.4321 3.85556 17.1429 4.22222 17.1429H8.22222C8.58889 17.1429 8.88889 17.4321 8.88889 17.7857V19.9286C8.88889 20.2821 8.58889 20.5714 8.22222 20.5714H4.22222C3.85556 20.5714 3.55556 20.2821 3.55556 19.9286V17.7857ZM32 2.57143V7.14286H0V2.57143C0 1.15179 1.19444 0 2.66667 0H29.3333C30.8056 0 32 1.15179 32 2.57143Z" fill="#6E7279"/>
</g>
<defs>
<clipPath id="clip0_2070_2237">
<rect width="32" height="24" rx="6" fill="white"/>
</clipPath>
</defs>
</svg>
