<svg width="24" height="24" viewBox="0 0 24 24" fill="none" xmlns="http://www.w3.org/2000/svg">
<path d="M21.3284 14.4032L19.6107 13.4113C19.784 12.4758 19.784 11.5161 19.6107 10.5807L21.3284 9.58872C21.526 9.47582 21.6147 9.24195 21.5502 9.0242C21.1026 7.58873 20.3405 6.29034 19.3445 5.2097C19.1913 5.04438 18.9413 5.00406 18.7477 5.11696L17.03 6.10889C16.3082 5.48793 15.4776 5.00809 14.5784 4.69358V2.71374C14.5784 2.48794 14.4212 2.29036 14.1994 2.24197C12.7195 1.91133 11.2034 1.92746 9.79617 2.24197C9.5744 2.29036 9.41714 2.48794 9.41714 2.71374V4.69761C8.52198 5.01616 7.69134 5.49599 6.96554 6.11293L5.25183 5.12099C5.05425 5.00809 4.80829 5.04438 4.65506 5.21374C3.6591 6.29034 2.89701 7.58873 2.44943 9.02824C2.38088 9.24598 2.47362 9.47985 2.6712 9.59275L4.38893 10.5847C4.21555 11.5202 4.21555 12.4798 4.38893 13.4153L2.6712 14.4072C2.47362 14.5202 2.38491 14.754 2.44943 14.9718C2.89701 16.4072 3.6591 17.7056 4.65506 18.7863C4.80829 18.9516 5.05829 18.9919 5.25183 18.879L6.96957 17.8871C7.69134 18.508 8.52198 18.9879 9.42117 19.3024V21.2863C9.42117 21.5121 9.57843 21.7096 9.80021 21.758C11.28 22.0887 12.7962 22.0725 14.2034 21.758C14.4252 21.7096 14.5824 21.5121 14.5824 21.2863V19.3024C15.4776 18.9838 16.3082 18.504 17.034 17.8871L18.7518 18.879C18.9494 18.9919 19.1953 18.9556 19.3486 18.7863C20.3445 17.7097 21.1066 16.4113 21.5542 14.9718C21.6147 14.75 21.526 14.5161 21.3284 14.4032ZM11.9978 15.2218C10.2196 15.2218 8.77198 13.7742 8.77198 11.996C8.77198 10.2177 10.2196 8.77017 11.9978 8.77017C13.776 8.77017 15.2236 10.2177 15.2236 11.996C15.2236 13.7742 13.776 15.2218 11.9978 15.2218Z" fill="#464E5C"/>
</svg>
