<svg width="16" height="16" viewBox="0 0 16 16" fill="none" xmlns="http://www.w3.org/2000/svg">
<path fill-rule="evenodd" clip-rule="evenodd" d="M1.33331 8.00004C1.33331 4.35092 4.35086 1.33337 7.99998 1.33337C11.6491 1.33337 14.6666 4.35092 14.6666 8.00004C14.6666 11.6492 11.6491 14.6667 7.99998 14.6667C4.35086 14.6667 1.33331 11.6492 1.33331 8.00004ZM6.99998 5.66671C6.99998 5.11442 7.44769 4.66671 7.99998 4.66671C8.55226 4.66671 8.99998 5.11442 8.99998 5.66671V7.83337C8.99998 8.38566 8.55226 8.83337 7.99998 8.83337C7.44769 8.83337 6.99998 8.38566 6.99998 7.83337V5.66671ZM8.83331 10.5C8.83331 10.9603 8.46022 11.3334 7.99998 11.3334C7.53974 11.3334 7.16665 10.9603 7.16665 10.5C7.16665 10.0398 7.53974 9.66671 7.99998 9.66671C8.46022 9.66671 8.83331 10.0398 8.83331 10.5Z" fill="#00C247"/>
</svg>
