<svg width="16" height="16" viewBox="0 0 16 16" fill="none" xmlns="http://www.w3.org/2000/svg">
<path d="M9.93565 7.93548C9.93565 9.00538 9.07006 9.87097 8.00016 9.87097C6.93027 9.87097 6.06468 9.00538 6.06468 7.93548C6.06468 6.86559 6.93027 6 8.00016 6C9.07006 6 9.93565 6.86559 9.93565 7.93548ZM12.7313 6C11.6615 6 10.7959 6.86559 10.7959 7.93548C10.7959 9.00538 11.6615 9.87097 12.7313 9.87097C13.8012 9.87097 14.6668 9.00538 14.6668 7.93548C14.6668 6.86559 13.8012 6 12.7313 6ZM3.26898 6C2.19909 6 1.3335 6.86559 1.3335 7.93548C1.3335 9.00538 2.19909 9.87097 3.26898 9.87097C4.33887 9.87097 5.20446 9.00538 5.20446 7.93548C5.20446 6.86559 4.33887 6 3.26898 6Z" fill="white"/>
</svg>
