<svg width="46" height="46" viewBox="0 0 46 46" fill="none" xmlns="http://www.w3.org/2000/svg">
<rect width="46" height="46" rx="23" fill="#EAECF0"/>
<path fill-rule="evenodd" clip-rule="evenodd" d="M17.3927 21.0162C16.8694 20.4892 16.869 19.6344 17.3918 19.107L22.0525 14.4049C22.3037 14.1515 22.6446 14.0091 23 14.0091C23.3554 14.0091 23.6963 14.1515 23.9475 14.4049L28.6082 19.107C29.131 19.6344 29.1306 20.4892 28.6073 21.0162C28.084 21.5431 27.2359 21.5427 26.7131 21.0152L23 17.2692L19.2869 21.0152C18.7641 21.5427 17.9161 21.5431 17.3927 21.0162Z" fill="#3E4551"/>
<path d="M21.6556 15.35C21.6556 14.6044 22.2553 14 22.995 14C23.7347 14 24.3344 14.6044 24.3344 15.35V30.65C24.3344 31.3956 23.7347 32 22.995 32C22.2553 32 21.6556 31.3956 21.6556 30.65V15.35Z" fill="#3E4551"/>
</svg>
