<svg width="16" height="16" viewBox="0 0 16 16" fill="none" xmlns="http://www.w3.org/2000/svg">
<path fill-rule="evenodd" clip-rule="evenodd" d="M13.9525 2.52022C14.0176 2.58531 14.0176 2.69083 13.9525 2.75592L9.92441 6.78422C9.97367 6.95797 10 7.14135 10 7.33089C10 8.43546 9.10461 9.33089 8.00004 9.33089C7.81054 9.33089 7.6272 9.30454 7.45347 9.25529L3.42385 13.2851C3.35877 13.3502 3.25324 13.3502 3.18815 13.2851L2.71674 12.8137C2.65166 12.7486 2.65166 12.6431 2.71674 12.578L13.2454 2.04882C13.3105 1.98373 13.416 1.98373 13.4811 2.04882L13.9525 2.52022ZM8.00004 10.6642C7.80377 10.6642 7.61147 10.6473 7.42451 10.6147L6.25547 11.7833C6.80229 11.9213 7.38542 12 8.00004 12C12 12 14.6667 8.66667 14.6667 7.33333C14.6667 6.74071 14.1399 5.75298 13.2034 4.83844L11.2841 6.75682C11.3165 6.94332 11.3334 7.13514 11.3334 7.33089C11.3334 9.17184 9.84099 10.6642 8.00004 10.6642ZM8.00004 3.99756C8.54666 3.99756 9.06255 4.12913 9.51777 4.36234L10.6883 3.19171C9.88601 2.86809 8.98331 2.66667 8.00004 2.66667C4.00004 2.66667 1.33337 6 1.33337 7.33333C1.33337 8.05545 2.11555 9.36419 3.46809 10.4123L5.03157 8.84878C4.79831 8.39352 4.66671 7.87758 4.66671 7.33089C4.66671 5.48994 6.15909 3.99756 8.00004 3.99756ZM6.00004 7.33089C6.00004 6.22632 6.89547 5.33089 8.00004 5.33089C8.16824 5.33089 8.3316 5.35166 8.48768 5.39076L6.06068 7.8216C6.02108 7.66459 6.00004 7.5002 6.00004 7.33089Z" fill="#000000"/>
</svg>
