<svg width="56" height="40" viewBox="0 0 56 40" fill="none" xmlns="http://www.w3.org/2000/svg">
<rect width="56" height="40" rx="8" fill="#464E5C"/>
<path d="M28 20C30.525 20 32.5714 17.9855 32.5714 15.5C32.5714 13.0145 30.525 11 28 11C25.475 11 23.4286 13.0145 23.4286 15.5C23.4286 17.9855 25.475 20 28 20ZM31.2 21.125H30.6036C29.8107 21.4836 28.9286 21.6875 28 21.6875C27.0714 21.6875 26.1929 21.4836 25.3964 21.125H24.8C22.15 21.125 20 23.2414 20 25.85V27.3125C20 28.2441 20.7679 29 21.7143 29H34.2857C35.2321 29 36 28.2441 36 27.3125V25.85C36 23.2414 33.85 21.125 31.2 21.125Z" fill="white"/>
</svg>
