<svg width="32" height="32" viewBox="0 0 32 32" fill="none" xmlns="http://www.w3.org/2000/svg">
<rect width="32" height="32" rx="16" fill="#464E5C"/>
<path d="M15.9997 10.0742C14.3888 10.0742 13.083 11.38 13.083 12.9909C13.083 14.2932 14.9893 16.6668 15.7196 17.5284C15.8675 17.7029 16.1321 17.7029 16.2798 17.5284C17.0101 16.6668 18.9163 14.2932 18.9163 12.9909C18.9163 11.38 17.6106 10.0742 15.9997 10.0742ZM15.9997 13.9631C15.4626 13.9631 15.0275 13.5279 15.0275 12.9909C15.0275 12.4538 15.4626 12.0187 15.9997 12.0187C16.5367 12.0187 16.9719 12.4538 16.9719 12.9909C16.9719 13.5279 16.5367 13.9631 15.9997 13.9631ZM9.79875 15.0731C9.66129 15.128 9.54345 15.2229 9.46044 15.3455C9.37743 15.4681 9.33304 15.6127 9.33301 15.7608V21.5552C9.33301 21.8173 9.59759 21.9964 9.84088 21.8992L13.0367 20.4446V15.0492C12.8321 14.6793 12.6647 14.3191 12.5448 13.9747L9.79875 15.0731ZM15.9997 18.3999C15.674 18.3999 15.3659 18.2569 15.1545 18.0073C14.6994 17.4703 14.2154 16.8587 13.7775 16.2314V20.4444L18.2219 21.9258V16.2316C17.7839 16.8587 17.3001 17.4705 16.8448 18.0076C16.6335 18.2569 16.3254 18.3999 15.9997 18.3999ZM22.1585 13.8048L18.9626 15.2594V21.9261L22.2006 20.6309C22.3381 20.576 22.4559 20.4811 22.5389 20.3585C22.622 20.2359 22.6663 20.0913 22.6663 19.9432V14.1488C22.6663 13.8867 22.4018 13.7076 22.1585 13.8048Z" fill="white"/>
</svg>
