<svg width="56" height="56" viewBox="0 0 56 56" fill="none" xmlns="http://www.w3.org/2000/svg">
<path d="M0 28C0 12.536 12.536 0 28 0C43.464 0 56 12.536 56 28C56 43.464 43.464 56 28 56C12.536 56 0 43.464 0 28Z" fill="#464E5C"/>
<path d="M35.8381 21.0355C33.9186 18.8699 31.1254 17.5 28 17.5C22.301 17.5 17.6634 22.0388 17.5042 27.6993C17.4996 27.8649 17.6343 28 17.8 28H19.825C19.9907 28 20.1244 27.8652 20.1306 27.6996C20.2883 23.4873 23.7488 20.125 28 20.125C30.3994 20.125 32.5281 21.2119 33.9678 22.9059L32.0108 24.8629C31.8218 25.0519 31.9556 25.375 32.2229 25.375H38.2C38.3657 25.375 38.5 25.2407 38.5 25.075V19.0979C38.5 18.8306 38.1769 18.6968 37.9879 18.8858L35.8381 21.0355ZM28 35.875C25.6006 35.875 23.4719 34.7881 22.0322 33.0941L23.9892 31.1371C24.1782 30.9481 24.0444 30.625 23.7771 30.625H17.8C17.6343 30.625 17.5 30.7593 17.5 30.925V36.9021C17.5 37.1694 17.8231 37.3032 18.0121 37.1142L20.1619 34.9645C22.0814 37.1301 24.8787 38.5 28 38.5C33.699 38.5 38.3366 33.9612 38.4958 28.3007C38.5004 28.1351 38.3657 28 38.2 28H36.175C36.0093 28 35.8756 28.1348 35.8694 28.3004C35.7117 32.5127 32.2512 35.875 28 35.875Z" fill="white"/>
</svg>
