<svg width="32" height="32" viewBox="0 0 32 32" fill="none" xmlns="http://www.w3.org/2000/svg">
<path d="M25.3291 18.4032L23.6114 17.4113C23.7848 16.4758 23.7848 15.5161 23.6114 14.5807L25.3291 13.5887C25.5267 13.4758 25.6154 13.2419 25.5509 13.0242C25.1033 11.5887 24.3412 10.2903 23.3453 9.2097C23.192 9.04438 22.942 9.00406 22.7485 9.11696L21.0307 10.1089C20.309 9.48793 19.4783 9.00809 18.5791 8.69358V6.71374C18.5791 6.48794 18.4219 6.29036 18.2001 6.24197C16.7203 5.91133 15.2042 5.92746 13.7969 6.24197C13.5751 6.29036 13.4179 6.48794 13.4179 6.71374V8.69761C12.5227 9.01616 11.6921 9.49599 10.9663 10.1129L9.25257 9.12099C9.05499 9.00809 8.80902 9.04438 8.6558 9.21374C7.65983 10.2903 6.89774 11.5887 6.45016 13.0282C6.38161 13.246 6.47435 13.4798 6.67193 13.5928L8.38967 14.5847C8.21628 15.5202 8.21628 16.4798 8.38967 17.4153L6.67193 18.4072C6.47435 18.5202 6.38564 18.754 6.45016 18.9718C6.89774 20.4072 7.65983 21.7056 8.6558 22.7863C8.80902 22.9516 9.05902 22.9919 9.25257 22.879L10.9703 21.8871C11.6921 22.508 12.5227 22.9879 13.4219 23.3024V25.2863C13.4219 25.5121 13.5792 25.7096 13.8009 25.758C15.2808 26.0887 16.7969 26.0725 18.2041 25.758C18.4259 25.7096 18.5832 25.5121 18.5832 25.2863V23.3024C19.4783 22.9838 20.309 22.504 21.0348 21.8871L22.7525 22.879C22.9501 22.9919 23.1961 22.9556 23.3493 22.7863C24.3453 21.7097 25.1073 20.4113 25.5549 18.9718C25.6154 18.75 25.5267 18.5161 25.3291 18.4032ZM15.9985 19.2218C14.2203 19.2218 12.7727 17.7742 12.7727 15.996C12.7727 14.2177 14.2203 12.7702 15.9985 12.7702C17.7767 12.7702 19.2243 14.2177 19.2243 15.996C19.2243 17.7742 17.7767 19.2218 15.9985 19.2218Z" fill="#464E5C"/>
</svg>
