<svg width="100" height="16" viewBox="0 0 100 16" fill="none" xmlns="http://www.w3.org/2000/svg">
<path d="M10.1525 10.5813H2.86523V15.7846H0.436035V0.174805H10.1525C11.5126 0.174805 12.6626 0.67779 13.6015 1.68376C14.5408 2.68969 15.0105 3.92115 15.0105 5.37804C15.0105 6.83498 14.5408 8.06639 13.6015 9.07236C12.6626 10.0783 11.5126 10.5813 10.1525 10.5813ZM2.86523 7.97968H10.1525C10.8163 7.97968 11.3829 7.72821 11.8526 7.22522C12.3386 6.70487 12.5813 6.08918 12.5813 5.37804C12.5813 4.66694 12.3386 4.05992 11.8526 3.55693C11.3829 3.03658 10.8163 2.77644 10.1525 2.77644H2.86523V7.97968ZM31.9497 15.7846H29.5205V11.8821H19.8044V15.7846H17.3752V7.97968C17.3752 5.81164 18.0795 3.97317 19.4885 2.46425C20.9135 0.937965 22.6381 0.174805 24.6624 0.174805C26.6865 0.174805 28.4033 0.937965 29.812 2.46425C31.237 3.97317 31.9497 5.81164 31.9497 7.97968V15.7846ZM29.5205 9.28048V7.97968C29.5205 6.52278 29.0508 5.29133 28.1119 4.28536C27.1725 3.27943 26.0226 2.77644 24.6624 2.77644C23.3023 2.77644 22.1524 3.27943 21.213 4.28536C20.2737 5.29133 19.8044 6.52278 19.8044 7.97968V9.28048H29.5205ZM46.4597 0.174805H48.8889V2.77644C48.8889 4.68431 48.3139 6.36669 47.164 7.82358C46.0304 9.28048 44.581 10.165 42.816 10.4772V15.7846H40.3868V10.4772C38.6219 10.165 37.1644 9.28048 36.0145 7.82358C34.881 6.36669 34.3144 4.68431 34.3144 2.77644V0.174805H36.7432V2.77644C36.7432 4.23334 37.2129 5.46479 38.1522 6.47073C39.0915 7.4767 40.2411 7.97968 41.6016 7.97968C42.9618 7.97968 44.1117 7.4767 45.0507 6.47073C45.99 5.46479 46.4597 4.23334 46.4597 2.77644V0.174805ZM58.5408 2.77644C57.1642 2.77644 56.0063 3.27943 55.067 4.28536C54.1441 5.274 53.6824 6.50542 53.6824 7.97968V15.7846H51.2536V7.97968C51.2536 5.79432 51.9579 3.94717 53.3669 2.43822C54.7755 0.929263 56.5004 0.174805 58.5408 0.174805C60.5812 0.174805 62.3058 0.929263 63.7147 2.43822C65.1234 3.94717 65.828 5.79432 65.828 7.97968V15.7846H63.3988V7.97968C63.3988 6.50542 62.9292 5.274 61.9898 4.28536C61.0669 3.27943 59.917 2.77644 58.5408 2.77644ZM70.7673 6.67888H82.7669V9.28048H70.7673C71.0428 10.4252 71.6174 11.3618 72.4919 12.0902C73.3827 12.8187 74.3785 13.1829 75.4796 13.1829H82.7669V15.7846H75.4796C73.4556 15.7846 71.7307 15.0301 70.3057 13.5211C68.8971 11.9949 68.1924 10.1477 68.1924 7.97968C68.1924 5.81164 68.8971 3.97317 70.3057 2.46425C71.7307 0.937965 73.4556 0.174805 75.4796 0.174805H82.7669V2.77644H75.4796C74.3785 2.77644 73.3827 3.14066 72.4919 3.86913C71.6174 4.59756 71.0428 5.53414 70.7673 6.67888ZM93.6336 2.77644V15.7846H91.2044V2.77644H85.1316V0.174805H99.706V2.77644H93.6336Z" fill="#181A20"/>
</svg>
