<svg width="20" height="20" viewBox="0 0 20 20" fill="none" xmlns="http://www.w3.org/2000/svg">
<path d="M0 8.57143H8.57143V0H0V8.57143ZM2.85714 2.85714H5.71429V5.71429H2.85714V2.85714ZM11.4286 0V8.57143H20V0H11.4286ZM17.1429 5.71429H14.2857V2.85714H17.1429V5.71429ZM0 20H8.57143V11.4286H0V20ZM2.85714 14.2857H5.71429V17.1429H2.85714V14.2857ZM18.5714 11.4286H20V17.1429H15.7143V15.7143H14.2857V20H11.4286V11.4286H15.7143V12.8571H18.5714V11.4286ZM18.5714 18.5714H20V20H18.5714V18.5714ZM15.7143 18.5714H17.1429V20H15.7143V18.5714Z" fill="#35383F"/>
</svg>
