<svg width="24" height="24" viewBox="0 0 24 24" fill="none" xmlns="http://www.w3.org/2000/svg">
<path d="M17.6003 2H15.8406C15.3767 2 15 2.3596 15 2.80356C15 3.24646 15.3767 3.605 15.8406 3.605H17.6003C19.0993 3.605 20.3188 4.76921 20.3188 6.20021V8.19644C20.3188 8.63935 20.6954 9 21.1594 9C21.6244 9 22 8.63935 22 8.19644V6.20021C22 3.8834 20.0271 2 17.6003 2Z" fill="#3E4551"/>
<path d="M9 2.80356C9 2.3596 8.62498 2 8.16308 2H8.16198L6.37046 2.00105C3.96088 2.00316 2 3.88551 2 6.19705V8.19644C2 8.63935 2.37502 9 2.83692 9C3.29882 9 3.67494 8.63935 3.67494 8.19644V6.19705C3.67494 4.77026 4.88468 3.60922 6.37156 3.60711L8.16308 3.60606C8.62608 3.60606 9 3.24646 9 2.80356Z" fill="#3E4551"/>
<path d="M14.7442 6H9.25486C7.99879 6.01349 6.98916 7.08534 7.00009 8.39792V9.71569C7.00307 9.86926 7.12132 9.99481 7.2684 10H16.7287C16.8768 9.99585 16.995 9.8703 17 9.71569V8.39792C17.001 7.76394 16.7665 7.15486 16.3431 6.70143C15.9228 6.25214 15.3454 6 14.7442 6Z" fill="#3E4551"/>
<path d="M23.1698 12H0.831273C0.373091 12 0 12.3732 0 12.8341C0 13.2938 0.373091 13.6659 0.831273 13.6659H1.98873V17.6436C1.98873 20.0429 3.93491 21.9967 6.32509 21.9989L8.10218 22C8.56145 22 8.93236 21.6267 8.93345 21.1659C8.93345 20.7062 8.56145 20.333 8.10327 20.333L6.32727 20.3319C4.85127 20.3297 3.65018 19.1246 3.65018 17.6436V13.6659H6.51164V14.7725C6.50073 16.1572 7.608 17.289 8.98691 17.3021H15.0131C16.3931 17.289 17.5004 16.1572 17.4895 14.7725V13.6659H20.3509V17.6392C20.3509 19.1257 19.1465 20.333 17.6662 20.333H15.9284C15.4691 20.333 15.0971 20.7062 15.0971 21.1659C15.0971 21.6267 15.4691 22 15.9284 22H17.6662C20.0618 22 22.0113 20.0451 22.0113 17.6392V13.6659H23.1698C23.628 13.6659 24 13.2938 24 12.8341C24 12.3732 23.628 12 23.1698 12Z" fill="#3E4551"/>
</svg>
