<svg width="32" height="32" viewBox="0 0 32 32" fill="none" xmlns="http://www.w3.org/2000/svg">
<rect width="32" height="32" rx="16" fill="#464E5C"/>
<path d="M21.4163 21.8337H10.583C9.89264 21.8337 9.33301 21.274 9.33301 20.5837V11.417C9.33301 10.7266 9.89264 10.167 10.583 10.167H21.4163C22.1067 10.167 22.6663 10.7266 22.6663 11.417V20.5837C22.6663 21.274 22.1067 21.8337 21.4163 21.8337ZM12.6663 12.4587C12.0911 12.4587 11.6247 12.925 11.6247 13.5003C11.6247 14.0756 12.0911 14.542 12.6663 14.542C13.2416 14.542 13.708 14.0756 13.708 13.5003C13.708 12.925 13.2416 12.4587 12.6663 12.4587ZM12.6663 14.9587C12.0911 14.9587 11.6247 15.425 11.6247 16.0003C11.6247 16.5756 12.0911 17.042 12.6663 17.042C13.2416 17.042 13.708 16.5756 13.708 16.0003C13.708 15.425 13.2416 14.9587 12.6663 14.9587ZM12.6663 17.4587C12.0911 17.4587 11.6247 17.925 11.6247 18.5003C11.6247 19.0756 12.0911 19.542 12.6663 19.542C13.2416 19.542 13.708 19.0756 13.708 18.5003C13.708 17.925 13.2416 17.4587 12.6663 17.4587ZM20.1663 13.917V13.0837C20.1663 12.9111 20.0264 12.7712 19.8538 12.7712H14.6455C14.4729 12.7712 14.333 12.9111 14.333 13.0837V13.917C14.333 14.0896 14.4729 14.2295 14.6455 14.2295H19.8538C20.0264 14.2295 20.1663 14.0896 20.1663 13.917ZM20.1663 16.417V15.5837C20.1663 15.4111 20.0264 15.2712 19.8538 15.2712H14.6455C14.4729 15.2712 14.333 15.4111 14.333 15.5837V16.417C14.333 16.5896 14.4729 16.7295 14.6455 16.7295H19.8538C20.0264 16.7295 20.1663 16.5896 20.1663 16.417ZM20.1663 18.917V18.0837C20.1663 17.9111 20.0264 17.7712 19.8538 17.7712H14.6455C14.4729 17.7712 14.333 17.9111 14.333 18.0837V18.917C14.333 19.0896 14.4729 19.2295 14.6455 19.2295H19.8538C20.0264 19.2295 20.1663 19.0896 20.1663 18.917Z" fill="white"/>
</svg>
