<svg width="80" height="100" viewBox="0 0 80 100" fill="none" xmlns="http://www.w3.org/2000/svg">
<g clip-path="url(#clip0_2271_97078)">
<path d="M44.8485 51.2593L19.7818 94.6762C14.5826 91.6744 8.13051 86.603 10.2928 79.3251C-2.54821 76.8477 0.46143 58.3914 13.6724 62.8775C13.8857 59.8593 16.2626 54.8594 24.0644 59.0048C31.8662 63.1501 40.4066 55.1269 43.7015 50.5971L44.8485 51.2593Z" fill="white"/>
<path d="M44.8496 51.26L19.7829 94.6768C24.982 97.6785 32.6001 100.731 37.8218 95.219C46.3878 105.101 60.8666 93.2663 50.376 84.0683C52.8832 82.3746 56.0248 77.8161 48.5339 73.1322C41.043 68.4483 43.7211 57.0406 45.9966 51.9222L44.8496 51.26Z" fill="white"/>
<path d="M50.5245 84.0968C54.8749 81.6817 53.334 77.097 51.2912 75.3018C49.7278 74.8097 50.4912 76.6873 50.8817 78.1446C51.6625 81.0587 49.0738 83.0539 47.6817 83.6871C56.1716 93.5155 44.7624 100.477 37.6581 91.4485C31.1343 100.615 18.9173 91.8065 16.035 89.4337C14.1587 87.8892 11.4876 85.5766 11.383 79.3578C11.0232 78.5879 10.26 79.1624 10.1928 79.2865C9.71451 80.17 8.04612 86.6621 16.6479 92.97C24.6479 98.8367 32.6479 100.437 37.9057 95.2865C46.3955 105.115 60.9333 93.8013 50.5245 84.0968Z" fill="#EAF4FE"/>
<path d="M21.459 74.7058C18.2972 71.6489 20.2226 70.0917 21.8162 68.7536C23.7178 67.5934 20.9825 67.1857 19.9689 67.6869C16.5213 69.3917 16.8102 73.8691 19.0069 75.7533C17.778 84.2814 27.6205 87.5006 31.211 83.4152C41.0342 90.9341 43.5246 81.2872 43.8629 79.6345C44.2012 77.9819 43.8816 75.3355 41.9437 79.7587C40.0058 84.182 34.2314 83.517 31.3538 81.0344C23.5348 83.9104 21.3986 78.366 21.459 74.7058Z" fill="#EAF4FE"/>
<path d="M44.048 30.0897C44.3047 29.9952 44.3835 29.7499 44.5028 29.5428C46.0936 26.7812 47.6543 24.0115 49.2794 21.2734C50.8705 18.5912 52.5976 15.9987 54.7285 13.7043C55.832 12.5165 56.916 11.3083 58.2025 10.3074C58.2498 10.3836 58.3097 10.4513 58.3796 10.5074C62.0918 12.6529 65.8059 14.7971 69.522 16.94L69.5707 17.0437C69.5166 17.0941 69.4701 17.1522 69.4328 17.2161C68.8574 18.5854 68.2034 19.9201 67.4739 21.2136C66.7197 22.609 65.9026 23.9699 65.1094 25.35C65.0086 25.5218 64.9489 25.734 64.7368 25.8212C64.6921 25.6977 64.6436 25.5776 64.6032 25.453C63.5679 22.2415 59.9765 20.3641 56.7408 21.3362C55.9819 21.502 55.2634 21.8165 54.6267 22.2616C53.9899 22.7068 53.4475 23.2738 53.0306 23.93C51.7725 25.8458 51.4984 27.9019 52.434 30.0542C52.7926 31.1228 53.4617 32.0601 54.3555 32.7456C56.0653 34.116 58.0086 34.436 60.11 33.971C58.1647 37.3584 56.2186 40.7452 54.2715 44.1316C54.2287 44.1926 54.181 44.25 54.1286 44.303C53.9473 44.2091 53.7612 44.1235 53.5862 44.0186C50.6972 42.3469 47.8109 40.6768 44.9274 39.0083C43.489 38.1724 42.0527 37.3265 40.6154 36.4857C40.638 36.2606 40.7237 36.0466 40.8625 35.8683C41.8637 34.1304 42.8632 32.3921 43.8611 30.6535C43.9576 30.4829 44.1379 30.3295 44.048 30.0897Z" fill="#EEF7FF"/>
<path d="M64.7156 25.8179C64.9255 25.7314 64.9856 25.5121 65.0882 25.3468C65.8836 23.966 66.7008 22.6145 67.4527 21.2103C68.1822 19.9169 68.8362 18.5822 69.4116 17.2129C69.4489 17.149 69.4954 17.0909 69.5496 17.0405C70.8616 17.7445 72.1489 18.4893 73.4114 19.2751C73.4021 20.1883 73.1192 21.0465 72.8895 21.9113C71.8991 25.6075 70.4058 29.1492 68.4517 32.4369C66.8474 35.1483 65.3005 37.8911 63.7293 40.6216C63.618 40.8149 63.5238 41.02 63.4234 41.2197C63.3231 41.4194 63.1682 41.5893 63.0574 41.7848L59.708 47.5607L54.1737 44.3731C54.1655 44.3425 54.1399 44.3167 54.1253 44.288C54.1776 44.235 54.2254 44.1776 54.2681 44.1166C56.217 40.7313 58.1632 37.3444 60.1066 33.956L60.0961 33.9168C63.5964 33.1493 65.818 29.3057 64.7166 25.9345L64.7156 25.8179Z" fill="#C3D7EF"/>
<path d="M45.3768 59.3448C45.9232 61.5757 45.1112 63.5728 43.4803 65.3152C41.6333 67.286 39.4053 68.7657 37.1118 70.1486C35.969 70.8331 34.7934 71.4563 33.6286 72.1024C33.514 72.165 33.3932 72.2154 33.268 72.2527C32.5746 72.4572 32.3433 72.281 32.3154 71.5505C32.2143 69.1934 32.2636 66.8323 32.4631 64.4818C32.6721 62.261 32.9162 60.0401 33.9214 57.9983C35.0184 55.7684 37.5149 54.4386 40.0628 54.718C41.3086 54.8684 42.481 55.3898 43.4284 56.2147C44.3757 57.0395 45.0545 58.13 45.3768 59.3448ZM43.4075 57.5886C43.0192 56.1397 41.9612 55.3139 40.5301 55.3401C38.9412 55.3688 37.8242 56.3757 37.4123 58.1091C37.0004 59.8425 36.9879 61.588 37.0439 63.3454C37.0663 64.0727 37.2644 64.2204 37.928 63.8698C39.456 63.1269 40.8743 62.1764 42.1427 61.0451C43.1393 60.1195 43.8738 59.068 43.4075 57.5886Z" fill="#F4964C"/>
<path d="M69.5138 16.9421C65.7977 14.7993 62.0864 12.6543 58.3801 10.5072C58.3102 10.4511 58.2503 10.3834 58.203 10.3072C60.4322 8.42312 62.7431 6.65263 65.3052 5.22817C66.9958 4.30462 68.7357 3.47435 70.517 2.74108C71.4052 2.36765 72.3162 2.42714 73.0637 3.17264C72.7059 3.14238 72.8145 3.41689 72.7968 3.59444C72.6732 4.91662 72.5408 6.23182 72.3129 7.54695C71.7368 10.7748 70.7978 13.9266 69.5138 16.9421Z" fill="#8BD29D"/>
<path d="M54.1717 44.3809L59.706 47.5685L57.9086 50.8291C57.573 51.386 57.2353 51.9436 56.9098 52.5119C56.2494 53.6486 55.7026 53.7998 54.5788 53.1551C53.4551 52.5105 52.3767 51.8957 51.2763 51.2681L41.5663 45.6404C40.4109 44.9645 39.248 44.2953 38.1005 43.6056C37.239 43.0868 37.1017 42.444 37.6288 41.5929C38.3866 40.9414 39.1038 41.0085 39.9694 41.5075C43.2184 43.3949 46.4195 45.3815 49.751 47.1067C50.3252 47.4128 50.9952 47.4845 51.6206 47.3069C52.2461 47.1293 52.7784 46.7162 53.1061 46.154L54.1717 44.3809Z" fill="#118A31"/>
<path d="M54.1705 44.3815L53.1061 46.159C52.7784 46.7212 52.246 47.1344 51.6206 47.3119C50.9952 47.4895 50.3252 47.4178 49.751 47.1117C46.4183 45.3822 43.2173 43.3955 39.9676 41.506C39.1042 41.0064 38.3848 40.9399 37.6271 41.5913L38.6645 39.6787L39.019 39.0442C39.0908 38.9643 39.1752 38.8879 39.107 38.7638C39.3418 38.7008 39.3617 38.462 39.4694 38.307C39.8665 37.7102 40.1234 37.0249 40.611 36.4785C42.0483 37.3194 43.4847 38.1652 44.923 39.0012C47.8055 40.6715 50.6897 42.3398 53.5758 44.0061C53.7551 44.1099 53.9412 44.1954 54.1181 44.2905C54.1411 44.324 54.1623 44.351 54.1705 44.3815Z" fill="#8BD29D"/>
<path d="M28.5338 31.6596C28.483 31.4093 28.6532 31.2353 28.7614 31.0475C29.8749 29.1144 31.032 27.1697 32.1086 25.2115C33.4973 22.6699 36.6437 22.3126 38.5329 24.6834C38.2688 25.7677 37.6765 26.7064 37.138 27.654C35.9596 29.6932 34.7856 31.7343 33.616 33.7774C33.5068 33.9701 33.4225 34.1772 33.3249 34.3785L33.1262 34.385C32.9422 34.2638 32.7593 34.1377 32.564 34.0266L28.5338 31.6596Z" fill="#EEF7FF"/>
<path d="M65.4599 48.7006C66.1783 47.476 66.8612 46.2234 67.6239 45.0336C68.8401 43.1267 72.1108 42.694 73.6478 45.0028C73.533 45.6237 73.3021 46.2172 72.9674 46.7521C71.5448 49.2023 70.1307 51.6666 68.7137 54.12C68.5771 54.2983 68.482 54.5049 68.4352 54.7247L68.3548 54.7463L63.6365 52.0032C64.212 50.8892 64.7438 49.7426 65.4599 48.7006Z" fill="#EEF7FF"/>
<path d="M69.5135 16.9427C70.7937 13.9291 71.7295 10.7797 72.3029 7.55477C72.5326 6.24617 72.6633 4.92443 72.7868 3.60226C72.8045 3.42471 72.6983 3.15892 73.0537 3.18045C73.8721 3.82522 73.9588 4.76645 74.047 5.69562C74.47 10.0753 74.4158 14.4311 73.5982 18.765C73.5647 18.9444 73.5807 19.1433 73.4257 19.2782C72.1614 18.4914 70.8741 17.7465 69.5639 17.0436L69.5135 16.9427Z" fill="#118A31"/>
<path d="M41.5653 45.6398L51.2735 51.261C51.1989 52.1715 51.1246 53.0827 51.0504 53.9946C50.9549 54.9085 50.6919 55.7968 50.2747 56.6148C50.1504 56.8816 50.0284 56.9307 49.764 56.7703C48.7738 56.1716 47.7697 55.5906 46.771 55.0035C46.7126 54.7856 46.8553 54.6049 46.9049 54.4072C47.0941 53.7219 47.1237 53.0021 46.9914 52.3033C46.7129 50.9767 45.8203 50.1767 44.7254 49.5266C43.1626 48.6003 41.5505 47.7595 40.0232 46.7653L41.5653 45.6398Z" fill="#6E9ABB"/>
<path d="M40.0295 46.7641C41.5498 47.758 43.1624 48.6009 44.7318 49.5255C45.8351 50.164 46.721 50.9822 46.9978 52.3022C47.1301 53.001 47.1004 53.7208 46.9112 54.4061C46.8617 54.6038 46.7304 54.7838 46.7773 55.0024C43.7431 53.2529 40.7107 51.5044 37.6802 49.7569C37.3663 49.5772 37.3743 49.4069 37.5448 49.13C38.1583 48.1226 39.0469 47.3941 40.0295 46.7641Z" fill="#9AB4CE"/>
<path d="M40.6156 36.483C40.1345 37.0275 39.8776 37.7129 39.474 38.3114C39.3681 38.4729 39.3476 38.7096 39.1116 38.7682C38.9344 37.9329 38.4113 37.3725 37.7104 36.9228C36.8062 36.3407 36.6816 35.7973 37.2095 34.8619C37.7373 33.9264 38.3137 32.9546 38.8558 31.9944C38.9545 31.8231 39.1206 31.6689 39.0581 31.4357L44.0488 30.0892C44.1452 30.3272 43.9649 30.4806 43.8684 30.6512C42.8734 32.3891 41.8737 34.1266 40.8693 35.8639C40.7278 36.0419 40.6398 36.2566 40.6156 36.483Z" fill="#9AB4CE"/>
<path d="M57.9105 50.8206L59.7079 47.56L63.0648 41.7775C63.1767 41.5864 63.3096 41.4037 63.4308 41.2124L63.7468 42.4962C63.6387 42.5625 63.6279 42.6611 63.6327 42.7836C63.6555 43.9306 63.3419 45.0588 62.7308 46.0285C62.197 46.9071 61.6942 47.8054 61.1865 48.7028C60.8814 49.2516 60.7152 49.8145 61.1449 50.3743C61.3906 50.6572 61.6838 50.8947 62.0113 51.0763C62.526 51.4054 63.1243 51.6117 63.5663 52.0608L62.7075 53.5356C61.3376 52.8681 60.0658 52.0273 58.7357 51.2907C58.4583 51.1339 58.1852 50.9759 57.9105 50.8206Z" fill="#6E9ABB"/>
<path d="M28.5335 31.6593L32.5637 34.0263C32.7524 34.1392 32.9354 34.2653 33.1259 34.3847C32.8432 35.3479 32.2915 36.1683 31.6938 36.9473C31.4693 37.2499 31.1439 37.4618 30.7767 37.5448C30.4094 37.6278 30.0245 37.5763 29.6917 37.3997C28.5448 36.7729 27.4333 36.0782 26.3065 35.4133C26.9938 34.2032 27.6805 32.9964 28.3664 31.7928C28.4135 31.7385 28.4701 31.6932 28.5335 31.6593Z" fill="#8BD29D"/>
<path d="M62.7058 53.5322L63.564 52.0552C63.5898 52.0414 63.6143 52.0255 63.6374 52.0075L68.3558 54.7506C68.0382 55.5923 67.5187 56.3153 67.028 57.0586C66.4484 57.9402 65.5799 58.1869 64.6769 57.6699C63.7738 57.1529 62.8354 56.6081 61.9184 56.0738C61.7606 55.9806 61.5708 55.9334 61.5211 55.7132C61.9149 54.9849 62.3098 54.2579 62.7058 53.5322Z" fill="#8BD29D"/>
<path d="M63.6381 52.0077C63.615 52.0256 63.5904 52.0416 63.5646 52.0554C63.1232 51.6085 62.5243 51.4 62.0096 51.0709C61.6821 50.8894 61.3889 50.6518 61.1432 50.3689C60.7135 49.8092 60.8785 49.2419 61.1848 48.6974C61.6926 47.8001 62.1954 46.9017 62.7291 46.0231C63.3402 45.0534 63.6538 43.9252 63.631 42.7782C63.6262 42.6558 63.6371 42.5571 63.7452 42.4908L65.1592 47.6115C65.2555 47.971 65.3518 48.3305 65.4511 48.7009C64.7443 49.7426 64.2125 50.8893 63.6381 52.0077Z" fill="#9AB4CE"/>
<path d="M68.4374 54.7312C68.4827 54.5092 68.5773 54.3003 68.7141 54.1199C70.1294 51.66 71.5391 49.1968 72.966 46.7455C73.3008 46.2106 73.5316 45.6171 73.6464 44.9962C74.5235 46.2254 74.6181 47.5615 73.9183 48.8466C72.6684 51.1408 71.3142 53.3765 70.0042 55.6378L68.4374 54.7312Z" fill="#C3D7EF"/>
<path d="M39.0508 31.4434C39.1133 31.6765 38.9472 31.8308 38.8485 32.002C38.3139 32.9556 37.7519 33.9025 37.2162 34.861C36.6806 35.8196 36.813 36.3399 37.7172 36.922C38.4181 37.3717 38.9412 37.9321 39.1183 38.7674C38.9574 38.8105 39.0104 38.9387 39.0303 39.0478L38.6759 39.6822C37.1257 38.7681 35.5754 37.8563 34.0249 36.9468C34.1184 36.7653 34.2252 36.5896 34.3039 36.405C34.4508 36.0224 34.8408 35.7381 34.8229 35.2711C34.9357 35.1008 35.0568 34.9352 35.1527 34.7624C35.6962 33.8508 36.2372 32.9383 36.7756 32.025L39.0508 31.4434Z" fill="#6E9ABB"/>
<path d="M36.7835 32.0229C36.2422 32.9371 35.7012 33.8495 35.1605 34.7604C35.056 34.9355 34.9348 35.1011 34.8307 35.2691L33.3112 34.3825C33.4087 34.1812 33.4931 33.9741 33.6023 33.7814C34.7781 31.7383 35.9542 29.6966 37.1308 27.6563C37.6802 26.7058 38.2572 25.7712 38.5258 24.6857C39.3766 26.0691 39.3622 27.4507 38.559 28.8546C37.9604 29.9001 37.3025 30.9241 36.7835 32.0229Z" fill="#C3D7EF"/>
<path d="M68.4372 54.7308L70.0074 55.6412C70.0147 55.7064 70.0091 55.7725 69.9908 55.8355C69.9725 55.8986 69.9418 55.9573 69.9007 56.0084C69.1052 57.3892 68.3069 58.759 67.5274 60.1472C67.3801 60.4062 67.267 60.4972 66.9712 60.3243C65.0356 59.1895 63.0936 58.0658 61.1453 56.9532C60.8893 56.807 60.8391 56.6803 61.0099 56.4477C61.1806 56.2151 61.265 55.9123 61.5128 55.7151C61.5712 55.933 61.7534 55.9869 61.9101 56.0757C62.8293 56.6094 63.749 57.1453 64.6686 57.6719C65.5882 58.1984 66.4401 57.9421 67.0197 57.0606C67.5191 56.3149 68.0256 55.5954 68.3475 54.7525L68.4372 54.7308Z" fill="#118A31"/>
<path d="M33.3117 34.3815L34.816 35.2722C34.8305 35.7354 34.4483 36.0223 34.2883 36.4084C34.2108 36.5973 34.104 36.7731 34.0093 36.9502C33.4675 37.8684 32.9064 38.7753 32.3967 39.7176C32.1966 40.0841 32.0424 40.1348 31.6769 39.9105C29.8451 38.8211 27.9986 37.752 26.1373 36.7032C25.7132 36.4689 25.6595 36.2685 25.9463 35.9207C26.0747 35.7649 26.1156 35.5437 26.2982 35.4248C27.425 36.0896 28.5272 36.7845 29.6833 37.4111C30.0168 37.5888 30.4027 37.6408 30.771 37.5576C31.1392 37.4743 31.4653 37.2614 31.6898 36.9576C32.2875 36.1786 32.8392 35.3582 33.1219 34.395L33.3117 34.3815Z" fill="#118A31"/>
<path d="M64.5062 60.3361C64.7928 61.4059 64.2654 62.047 63.7268 62.6467C62.8482 63.6387 61.7071 64.2948 60.5511 64.9127C60.4104 64.9878 60.1742 65.1586 60.1883 64.7764C60.2377 63.4298 60.1886 62.0721 60.5554 60.7618C60.9931 59.1943 62.5575 58.6654 63.8856 59.6033C64.1668 59.7731 64.3848 60.0305 64.5062 60.3361Z" fill="#F4974E"/>
<path d="M29.4393 40.2513C29.4786 40.4716 29.4717 40.6976 29.4193 40.9151C29.3668 41.1325 29.2699 41.3367 29.1345 41.5146C28.1983 42.9004 26.7883 43.6752 25.3795 44.4543C25.1767 44.5671 25.0998 44.4803 25.1037 44.2947C25.0714 42.8345 24.999 41.364 25.578 39.9758C25.7441 39.584 26.0331 39.2572 26.4014 39.0447C26.7696 38.8323 27.197 38.7458 27.6189 38.7984C28.409 38.8763 29.2381 39.5089 29.4393 40.2513Z" fill="#F4974E"/>
<path d="M64.7147 25.8179L64.707 25.9367C64.3716 26.0269 64.0793 26.2337 63.8823 26.5201C63.6853 26.8064 63.5965 27.1537 63.6318 27.4999C63.6791 29.5119 62.7311 31.0106 61.1048 32.0652C60.3772 32.5334 59.9675 33.0402 60.0995 33.9155L60.1118 33.9613C58.0105 34.4263 56.0683 34.1107 54.3574 32.7359C53.4607 32.0522 52.7885 31.1157 52.4271 30.0468C52.2734 29.6209 52.2399 29.2609 52.7504 29.0004C53.1776 28.7855 53.2478 28.3253 53.245 27.88C53.2255 27.3566 53.284 26.8332 53.4187 26.3272C53.8468 24.8721 54.7599 23.8171 56.0291 23.0216C56.7991 22.5374 56.934 22.1626 56.7405 21.3271C59.9762 20.355 63.561 22.2341 64.6029 25.4439C64.6215 25.5743 64.67 25.6944 64.7147 25.8179ZM60.9726 24.6044C59.6185 23.5521 58.1671 23.3805 56.6235 24.1351C55.9505 24.4672 55.3905 24.9909 55.0136 25.6407C54.6367 26.2904 54.4596 27.0373 54.5046 27.7877C54.6531 29.5251 55.6856 30.8994 57.2053 31.3516C58.9806 31.81 60.6366 31.2659 61.6114 29.9632C62.1723 29.1694 62.4281 28.1991 62.3318 27.2309C62.2355 26.2626 61.7935 25.3614 61.0872 24.6928C61.0784 24.6251 61.0317 24.6073 60.9726 24.6044Z" fill="#17A53C"/>
<path d="M56.7255 21.3312C56.9213 22.1662 56.7863 22.541 56.0142 23.0258C54.7522 23.831 53.8363 24.8751 53.4037 26.3314C53.2746 26.8368 53.2212 27.3588 53.2453 27.8801C53.2481 28.3254 53.1779 28.7855 52.7507 29.0004C52.2402 29.261 52.2725 29.6166 52.4274 30.0469C51.4918 27.8946 51.766 25.8385 53.024 23.9227C53.4402 23.2678 53.9813 22.7018 54.6165 22.2571C55.2517 21.8124 55.9684 21.4978 56.7255 21.3312Z" fill="#17A53C"/>
<path d="M60.0955 33.9172C59.9614 33.0424 60.3731 32.5351 61.1008 32.0669C62.7277 31.0145 63.6782 29.5081 63.6277 27.5016C63.5924 27.1547 63.6817 26.8066 63.8796 26.5199C64.0774 26.2332 64.3709 26.0266 64.7073 25.9373C65.8174 29.3062 63.5959 33.1498 60.0955 33.9172Z" fill="#118A31"/>
<path d="M43.4082 57.5892C43.8745 59.0686 43.14 60.1201 42.1434 61.0457C40.875 62.177 39.4567 63.1275 37.9287 63.8704C37.2628 64.2123 37.067 64.0733 37.0446 63.346C36.9886 61.5885 37.0037 59.8354 37.413 58.1097C37.8223 56.384 38.9408 55.3651 40.5308 55.3407C41.9619 55.3145 43.0199 56.1403 43.4082 57.5892Z" fill="#F9BA76"/>
<path d="M39.022 39.0544C38.9934 38.9476 38.9607 38.8256 39.11 38.7739C39.1826 38.8969 39.0938 38.9744 39.022 39.0544Z" fill="#9AB4CE"/>
<path d="M61.0791 24.6949C61.7854 25.3635 62.2273 26.2648 62.3236 27.233C62.4199 28.2013 62.1641 29.1715 61.6032 29.9653C60.6284 31.268 58.9719 31.81 57.1971 31.3538C56.885 31.0058 56.6346 30.6069 56.4569 30.1743C56.2308 29.6702 56.113 29.1243 56.1111 28.5719C56.1092 28.0195 56.2233 27.473 56.446 26.9678C56.6687 26.4627 56.995 26.0102 57.4037 25.6397C57.8124 25.2692 58.2944 24.989 58.8183 24.8173C59.5365 24.5922 60.2627 24.7362 60.9738 24.6064L61.0791 24.6949Z" fill="#CFECFF"/>
<path d="M60.9739 24.6064C60.2628 24.7362 59.5367 24.5922 58.8185 24.8173C58.2945 24.989 57.8125 25.2692 57.4038 25.6397C56.9951 26.0102 56.6688 26.4627 56.4462 26.9678C56.2235 27.473 56.1094 28.0195 56.1112 28.5719C56.1131 29.1243 56.2309 29.6702 56.457 30.1743C56.6376 30.6067 56.8909 31.0048 57.206 31.3514C55.7016 30.8952 54.6625 29.5225 54.514 27.7852C54.4687 27.0361 54.6447 26.2904 55.02 25.6412C55.3953 24.992 55.9532 24.4681 56.6242 24.1349C58.1683 23.3825 59.6198 23.5541 60.9739 24.6064Z" fill="#A7D0EB"/>
<path d="M61.0786 24.695L60.9728 24.6042C61.0318 24.6071 61.0785 24.6249 61.0786 24.695Z" fill="#539BD4"/>
</g>
<defs>
<clipPath id="clip0_2271_97078">
<rect width="80" height="100" rx="12" fill="white"/>
</clipPath>
</defs>
</svg>
