<svg width="24" height="24" viewBox="0 0 24 24" fill="none" xmlns="http://www.w3.org/2000/svg">
<path d="M15.7771 5H14.6185C14.3131 5 14.0651 5.24319 14.0651 5.54343C14.0651 5.84296 14.3131 6.08544 14.6185 6.08544H15.7771C16.764 6.08544 17.5669 6.87277 17.5669 7.84053V9.19055C17.5669 9.49008 17.8149 9.73398 18.1203 9.73398C18.4265 9.73398 18.6738 9.49008 18.6738 9.19055V7.84053C18.6738 6.27371 17.3749 5 15.7771 5Z" fill="#464E5C"/>
<path d="M9.95538 5.54343C9.95538 5.24319 9.70739 5 9.40193 5H9.4012L8.21648 5.00071C6.62302 5.00214 5.32629 6.27514 5.32629 7.83839V9.19055C5.32629 9.49008 5.57429 9.73398 5.87975 9.73398C6.1852 9.73398 6.43393 9.49008 6.43393 9.19055V7.83839C6.43393 6.87348 7.23393 6.08829 8.2172 6.08686L9.40193 6.08615C9.70811 6.08615 9.95538 5.84296 9.95538 5.54343Z" fill="#464E5C"/>
<path d="M14.009 7.72144H9.99155C9.07228 7.73071 8.33337 8.46741 8.34137 9.36956V10.2753C8.34355 10.3808 8.4301 10.4671 8.53774 10.4707H15.4614C15.5697 10.4678 15.6563 10.3815 15.6599 10.2753V9.36956C15.6606 8.93381 15.489 8.51519 15.1792 8.20353C14.8716 7.89473 14.449 7.72144 14.009 7.72144Z" fill="#464E5C"/>
<path d="M19.4465 11.5752H4.55418C4.24873 11.5752 4 11.8184 4 12.1186C4 12.4182 4.24873 12.6606 4.55418 12.6606H5.32582V15.2523C5.32582 16.8155 6.62327 18.0885 8.21673 18.0899L9.40145 18.0907C9.70764 18.0907 9.95491 17.8475 9.95564 17.5472C9.95564 17.2477 9.70764 17.0045 9.40218 17.0045L8.21818 17.0038C7.23418 17.0024 6.43345 16.2172 6.43345 15.2523V12.6606H8.34109V13.3816C8.33382 14.2838 9.072 15.0212 9.99127 15.0298H14.0087C14.9287 15.0212 15.6669 14.2838 15.6596 13.3816V12.6606H17.5673V15.2494C17.5673 16.2179 16.7644 17.0045 15.7775 17.0045H14.6189C14.3127 17.0045 14.0647 17.2477 14.0647 17.5472C14.0647 17.8475 14.3127 18.0907 14.6189 18.0907H15.7775C17.3745 18.0907 18.6742 16.817 18.6742 15.2494V12.6606H19.4465C19.752 12.6606 20 12.4182 20 12.1186C20 11.8184 19.752 11.5752 19.4465 11.5752Z" fill="#464E5C"/>
</svg>
