<svg width="24" height="24" viewBox="0 0 24 24" fill="none" xmlns="http://www.w3.org/2000/svg">
<path d="M15.7772 5H14.6186C14.3132 5 14.0652 5.24319 14.0652 5.54343C14.0652 5.84296 14.3132 6.08544 14.6186 6.08544H15.7772C16.7641 6.08544 17.567 6.87277 17.567 7.84053V9.19055C17.567 9.49008 17.815 9.73398 18.1205 9.73398C18.4266 9.73398 18.6739 9.49008 18.6739 9.19055V7.84053C18.6739 6.27371 17.375 5 15.7772 5Z" fill="#464E5C"/>
<path d="M9.95551 5.54343C9.95551 5.24319 9.70751 5 9.40205 5H9.40133L8.2166 5.00071C6.62314 5.00214 5.32642 6.27514 5.32642 7.83839V9.19055C5.32642 9.49008 5.57442 9.73398 5.87987 9.73398C6.18533 9.73398 6.43405 9.49008 6.43405 9.19055V7.83839C6.43405 6.87348 7.23405 6.08829 8.21733 6.08686L9.40205 6.08615C9.70823 6.08615 9.95551 5.84296 9.95551 5.54343Z" fill="#464E5C"/>
<path d="M14.009 7.72144H9.99155C9.07228 7.73071 8.33337 8.46741 8.34137 9.36956V10.2753C8.34355 10.3808 8.4301 10.4671 8.53774 10.4707H15.4614C15.5697 10.4678 15.6563 10.3815 15.6599 10.2753V9.36956C15.6606 8.93381 15.489 8.51519 15.1792 8.20353C14.8716 7.89473 14.449 7.72144 14.009 7.72144Z" fill="#464E5C"/>
<path d="M19.4465 11.5753H4.55418C4.24873 11.5753 4 11.8185 4 12.1187C4 12.4183 4.24873 12.6608 4.55418 12.6608H5.32582V15.2524C5.32582 16.8156 6.62327 18.0886 8.21673 18.0901L9.40145 18.0908C9.70764 18.0908 9.95491 17.8476 9.95564 17.5474C9.95564 17.2478 9.70764 17.0046 9.40218 17.0046L8.21818 17.0039C7.23418 17.0025 6.43345 16.2173 6.43345 15.2524V12.6608H8.34109V13.3818C8.33382 14.2839 9.072 15.0213 9.99127 15.0299H14.0087C14.9287 15.0213 15.6669 14.2839 15.6596 13.3818V12.6608H17.5673V15.2495C17.5673 16.218 16.7644 17.0046 15.7775 17.0046H14.6189C14.3127 17.0046 14.0647 17.2478 14.0647 17.5474C14.0647 17.8476 14.3127 18.0908 14.6189 18.0908H15.7775C17.3745 18.0908 18.6742 16.8171 18.6742 15.2495V12.6608H19.4465C19.752 12.6608 20 12.4183 20 12.1187C20 11.8185 19.752 11.5753 19.4465 11.5753Z" fill="#464E5C"/>
</svg>
