<svg width="16" height="16" viewBox="0 0 16 16" fill="none" xmlns="http://www.w3.org/2000/svg">
<path fill-rule="evenodd" clip-rule="evenodd" d="M8 16C12.4183 16 16 12.4183 16 8C16 3.58172 12.4183 0 8 0C3.58172 0 0 3.58172 0 8C0 12.4183 3.58172 16 8 16ZM11.7804 5.34589C11.9366 5.18968 11.9366 4.93641 11.7804 4.78021L11.2202 4.21999C11.064 4.06378 10.8107 4.06378 10.6545 4.21999L8.00018 6.87429L5.34588 4.21999C5.18967 4.06378 4.93641 4.06378 4.7802 4.21999L4.21998 4.78021C4.06377 4.93641 4.06377 5.18968 4.21998 5.34589L6.87428 8.00019L4.21998 10.6545C4.06377 10.8107 4.06377 11.064 4.21998 11.2202L4.7802 11.7804C4.93641 11.9366 5.18967 11.9366 5.34588 11.7804L8.00018 9.1261L10.6545 11.7804C10.8107 11.9366 11.064 11.9366 11.2202 11.7804L11.7804 11.2202C11.9366 11.064 11.9366 10.8107 11.7804 10.6545L9.12609 8.00019L11.7804 5.34589Z" fill="#464E5C"/>
</svg>
