<svg width="56" height="40" viewBox="0 0 56 40" fill="none" xmlns="http://www.w3.org/2000/svg">
<rect width="56" height="40" rx="8" fill="#3E4551"/>
<path fill-rule="evenodd" clip-rule="evenodd" d="M28 9.8C28.6627 9.8 29.2 10.3373 29.2 11V18.8H37C37.6627 18.8 38.2 19.3373 38.2 20C38.2 20.6627 37.6627 21.2 37 21.2H29.2V29C29.2 29.6627 28.6627 30.2 28 30.2C27.3372 30.2 26.8 29.6627 26.8 29V21.2H19C18.3372 21.2 17.8 20.6627 17.8 20C17.8 19.3373 18.3372 18.8 19 18.8H26.8V11C26.8 10.3373 27.3372 9.8 28 9.8Z" fill="white"/>
</svg>
