<svg width="32" height="32" viewBox="0 0 32 32" fill="none" xmlns="http://www.w3.org/2000/svg">
<rect width="32" height="32" rx="16" fill="#35383F"/>
<path d="M22.2191 17.6018L21.0739 16.9405C21.1895 16.3169 21.1895 15.6771 21.0739 15.0534L22.2191 14.3922C22.3508 14.3169 22.4099 14.161 22.3669 14.0158C22.0686 13.0588 21.5605 12.1932 20.8965 11.4728C20.7944 11.3626 20.6277 11.3357 20.4987 11.411L19.3535 12.0723C18.8723 11.6583 18.3186 11.3384 17.7191 11.1287V9.80884C17.7191 9.6583 17.6143 9.52658 17.4664 9.49432C16.4799 9.27389 15.4691 9.28465 14.5309 9.49432C14.3831 9.52658 14.2783 9.6583 14.2783 9.80884V11.1314C13.6815 11.3438 13.1277 11.6637 12.6439 12.075L11.5014 11.4137C11.3697 11.3384 11.2057 11.3626 11.1035 11.4755C10.4396 12.1932 9.9315 13.0588 9.63311 14.0185C9.58741 14.1637 9.64924 14.3196 9.78096 14.3948L10.9261 15.0561C10.8105 15.6798 10.8105 16.3196 10.9261 16.9432L9.78096 17.6045C9.64924 17.6798 9.5901 17.8357 9.63311 17.9808C9.9315 18.9378 10.4396 19.8034 11.1035 20.5238C11.2057 20.6341 11.3724 20.6609 11.5014 20.5857L12.6465 19.9244C13.1277 20.3384 13.6815 20.6583 14.2809 20.8679V22.1905C14.2809 22.341 14.3858 22.4728 14.5336 22.505C15.5202 22.7255 16.5309 22.7147 17.4691 22.505C17.617 22.4728 17.7218 22.341 17.7218 22.1905V20.8679C18.3186 20.6556 18.8723 20.3357 19.3562 19.9244L20.5014 20.5857C20.6331 20.6609 20.797 20.6368 20.8992 20.5238C21.5632 19.8061 22.0712 18.9405 22.3696 17.9808C22.4099 17.833 22.3508 17.6771 22.2191 17.6018ZM15.9987 18.1475C14.8132 18.1475 13.8482 17.1825 13.8482 15.997C13.8482 14.8115 14.8132 13.8465 15.9987 13.8465C17.1842 13.8465 18.1492 14.8115 18.1492 15.997C18.1492 17.1825 17.1842 18.1475 15.9987 18.1475Z" fill="white"/>
</svg>
