<svg width="24" height="24" viewBox="0 0 24 24" fill="none" xmlns="http://www.w3.org/2000/svg">
<path fill-rule="evenodd" clip-rule="evenodd" d="M17 7.6C17.8837 7.6 18.6 6.88366 18.6 6C18.6 5.11634 17.8837 4.4 17 4.4C16.1163 4.4 15.4 5.11634 15.4 6C15.4 6.88366 16.1163 7.6 17 7.6ZM17 9C18.6569 9 20 7.65685 20 6C20 4.34315 18.6569 3 17 3C15.3431 3 14 4.34315 14 6C14 6.27079 14.0359 6.53319 14.1031 6.78273L8.2258 9.98855C7.67683 9.38145 6.88296 9 6 9C4.34315 9 3 10.3431 3 12C3 13.6569 4.34315 15 6 15C6.883 15 7.6769 14.6185 8.22587 14.0114L14.1032 17.2172C14.0359 17.4667 14 17.7292 14 18C14 19.6569 15.3431 21 17 21C18.6569 21 20 19.6569 20 18C20 16.3431 18.6569 15 17 15C16.1171 15 15.3232 15.3814 14.7742 15.9885L8.89688 12.7827C8.96413 12.5331 9 12.2708 9 12C9 11.7292 8.96412 11.4668 8.89686 11.2172L14.7742 8.01143C15.3232 8.61854 16.117 9 17 9ZM7.6 12C7.6 12.8837 6.88366 13.6 6 13.6C5.11634 13.6 4.4 12.8837 4.4 12C4.4 11.1163 5.11634 10.4 6 10.4C6.88366 10.4 7.6 11.1163 7.6 12ZM18.6 18C18.6 18.8837 17.8837 19.6 17 19.6C16.1163 19.6 15.4 18.8837 15.4 18C15.4 17.1163 16.1163 16.4 17 16.4C17.8837 16.4 18.6 17.1163 18.6 18Z" fill="#6E7279"/>
</svg>
