<svg width="20" height="20" viewBox="0 0 20 20" fill="none" xmlns="http://www.w3.org/2000/svg">
<path d="M18.6806 13.0505L13.1255 10L18.6806 6.94949C19.1413 6.69648 19.304 6.11418 19.0412 5.65898L18.2803 4.34098C18.0174 3.88578 17.4318 3.73555 16.9823 4.00805L11.563 7.29367L11.6987 0.957578C11.71 0.43207 11.2871 0 10.7614 0H9.23955C8.71393 0 8.291 0.43207 8.30229 0.957578L8.43799 7.29367L3.01865 4.00809C2.5692 3.73559 1.98354 3.88582 1.72072 4.34102L0.959787 5.65902C0.696974 6.11422 0.859709 6.69652 1.32045 6.94953L6.87549 10L1.32041 13.0505C0.85967 13.3035 0.696935 13.8858 0.959787 14.341L1.72072 15.659C1.98354 16.1142 2.5692 16.2645 3.01865 15.992L8.43799 12.7063L8.30225 19.0424C8.291 19.5679 8.71393 20 9.23955 20H10.7615C11.2871 20 11.71 19.5679 11.6988 19.0424L11.563 12.7063L16.9823 15.9919C17.4318 16.2644 18.0174 16.1142 18.2803 15.659L19.0412 14.341C19.304 13.8858 19.1413 13.3035 18.6806 13.0505Z" fill="#35383F"/>
</svg>
