<svg width="16" height="16" viewBox="0 0 16 16" fill="none" xmlns="http://www.w3.org/2000/svg">
<path d="M13.7864 10.0333L10.083 7.99967L13.7864 5.966C14.0936 5.79733 14.202 5.40913 14.0268 5.10566L13.5195 4.22699C13.3443 3.92353 12.9539 3.82337 12.6542 4.00504L9.04134 6.19546L9.13184 1.97139C9.13934 1.62105 8.85741 1.33301 8.50697 1.33301H7.49238C7.14197 1.33301 6.86001 1.62105 6.86754 1.97139L6.95801 6.19546L3.34512 4.00507C3.04548 3.8234 2.65504 3.92355 2.47983 4.22702L1.97254 5.10569C1.79733 5.40915 1.90582 5.79736 2.21298 5.96603L5.91634 7.99967L2.21296 10.0333C1.9058 10.202 1.79731 10.5902 1.97254 10.8937L2.47983 11.7724C2.65504 12.0758 3.04548 12.176 3.34512 11.9943L6.95801 9.80389L6.86751 14.028C6.86001 14.3783 7.14197 14.6663 7.49238 14.6663H8.50699C8.85741 14.6663 9.13936 14.3783 9.13186 14.028L9.04134 9.80389L12.6542 11.9943C12.9539 12.176 13.3443 12.0758 13.5195 11.7723L14.0268 10.8937C14.202 10.5902 14.0936 10.202 13.7864 10.0333V10.0333Z" fill="white"/>
</svg>
