<svg width="13" height="12" viewBox="0 0 13 12" fill="none" xmlns="http://www.w3.org/2000/svg">
<path fill-rule="evenodd" clip-rule="evenodd" d="M6.5 12C9.81371 12 12.5 9.31371 12.5 6C12.5 2.68629 9.81371 0 6.5 0C3.18629 0 0.5 2.68629 0.5 6C0.5 9.31371 3.18629 12 6.5 12ZM10.3145 4.78662C10.4121 4.68899 10.4121 4.5307 10.3145 4.43307L9.67808 3.79667C9.58045 3.69904 9.42216 3.69904 9.32453 3.79667L5.99628 7.12492L4.16803 5.29667C4.0704 5.19904 3.91211 5.19904 3.81448 5.29667L3.17808 5.93307C3.08045 6.0307 3.08045 6.18899 3.17808 6.28662L5.8195 8.92804C5.91713 9.02567 6.07543 9.02567 6.17306 8.92804L10.3145 4.78662Z" fill="#17A53C"/>
</svg>
