<svg width="20" height="20" viewBox="0 0 20 20" fill="none" xmlns="http://www.w3.org/2000/svg">
<path d="M10 6.25C7.93359 6.25 6.25 7.93359 6.25 10C6.25 12.0664 7.93359 13.75 10 13.75C12.0664 13.75 13.75 12.0664 13.75 10C13.75 7.93359 12.0664 6.25 10 6.25ZM19.625 9.39453L15.9258 7.54688L17.2344 3.625C17.4102 3.09375 16.9062 2.58984 16.3789 2.76953L12.457 4.07812L10.6055 0.375C10.3555 -0.125 9.64453 -0.125 9.39453 0.375L7.54688 4.07422L3.62109 2.76562C3.08984 2.58984 2.58594 3.09375 2.76562 3.62109L4.07422 7.54297L0.375 9.39453C-0.125 9.64453 -0.125 10.3555 0.375 10.6055L4.07422 12.4531L2.76562 16.3789C2.58984 16.9102 3.09375 17.4141 3.62109 17.2344L7.54297 15.9258L9.39062 19.625C9.64062 20.125 10.3516 20.125 10.6016 19.625L12.4492 15.9258L16.3711 17.2344C16.9023 17.4102 17.4062 16.9062 17.2266 16.3789L15.918 12.457L19.6172 10.6094C20.125 10.3555 20.125 9.64453 19.625 9.39453ZM13.5352 13.5352C11.5859 15.4844 8.41406 15.4844 6.46484 13.5352C4.51562 11.5859 4.51562 8.41406 6.46484 6.46484C8.41406 4.51562 11.5859 4.51562 13.5352 6.46484C15.4844 8.41406 15.4844 11.5859 13.5352 13.5352Z" fill="#35383F"/>
</svg>
