<svg width="20" height="20" viewBox="0 0 20 20" fill="none" xmlns="http://www.w3.org/2000/svg">
<path fill-rule="evenodd" clip-rule="evenodd" d="M1.16078 8.34679C0.724693 7.90766 0.724358 7.19535 1.16003 6.7558L5.04389 2.83744C5.25324 2.62623 5.53729 2.50755 5.8335 2.50755C6.1297 2.50755 6.41376 2.62623 6.62311 2.83744L10.507 6.7558C10.9426 7.19535 10.9423 7.90766 10.5062 8.34679C10.0701 8.78592 9.36342 8.78559 8.92774 8.34604L5.8335 5.2243L2.73925 8.34604C2.30358 8.78559 1.59687 8.78593 1.16078 8.34679Z" fill="#3E4551"/>
<path d="M4.71317 3.625C4.71317 3.00368 5.21289 2.5 5.82932 2.5C6.44575 2.5 6.94547 3.00368 6.94547 3.625V16.375C6.94547 16.9963 6.44575 17.5 5.82932 17.5C5.21289 17.5 4.71317 16.9963 4.71317 16.375V3.625Z" fill="#3E4551"/>
<path fill-rule="evenodd" clip-rule="evenodd" d="M9.49379 11.6532C9.0577 12.0923 9.05737 12.8046 9.49304 13.2442L13.3769 17.1626C13.5862 17.3738 13.8703 17.4924 14.1665 17.4924C14.4627 17.4924 14.7468 17.3738 14.9561 17.1626L18.84 13.2442C19.2756 12.8046 19.2753 12.0923 18.8392 11.6532C18.4031 11.2141 17.6964 11.2144 17.2607 11.654L14.1665 14.7757L11.0723 11.654C10.6366 11.2144 9.92988 11.2141 9.49379 11.6532Z" fill="#3E4551"/>
<path d="M13.0462 16.375C13.0462 16.9963 13.5459 17.5 14.1623 17.5C14.7788 17.5 15.2785 16.9963 15.2785 16.375V3.625C15.2785 3.00368 14.7788 2.5 14.1623 2.5C13.5459 2.5 13.0462 3.00368 13.0462 3.625V16.375Z" fill="#3E4551"/>
</svg>
