<svg width="76" height="76" viewBox="0 0 76 76" fill="none" xmlns="http://www.w3.org/2000/svg">
<rect width="76" height="76" rx="38" fill="#EF9B38"/>
<path d="M50.4103 26.9729C47.371 23.544 42.9485 21.375 38 21.375C28.9179 21.375 21.5382 28.6551 21.3777 37.6989C21.3747 37.8645 21.5093 38 21.675 38H25.2313C25.3969 38 25.5309 37.8647 25.5348 37.6991C25.6944 30.948 31.2103 25.5312 38 25.5312C41.7991 25.5312 45.1695 27.2522 47.449 29.9343L44.0516 33.3316C43.8626 33.5206 43.9965 33.8438 44.2638 33.8438H54.325C54.4907 33.8438 54.625 33.7094 54.625 33.5437V23.4825C54.625 23.2152 54.3019 23.0814 54.1129 23.2704L50.4103 26.9729ZM38 50.4688C34.2009 50.4688 30.8305 48.7478 28.551 46.0657L31.9484 42.6684C32.1374 42.4794 32.0035 42.1562 31.7362 42.1562H21.675C21.5093 42.1562 21.375 42.2906 21.375 42.4562V52.5175C21.375 52.7848 21.6981 52.9186 21.8871 52.7296L25.5897 49.0271C28.629 52.456 33.058 54.625 38 54.625C47.0821 54.625 54.4618 47.3449 54.6223 38.3011C54.6253 38.1355 54.4907 38 54.325 38H50.7687C50.6031 38 50.4691 38.1353 50.4652 38.3009C50.3056 45.052 44.7897 50.4688 38 50.4688Z" fill="white"/>
</svg>
