<svg width="25" height="5" viewBox="0 0 25 5" fill="none" xmlns="http://www.w3.org/2000/svg">
<path d="M22.3692 0.094553C22.7127 0.0996355 23.057 0.0737145 23.3999 0.109631C24.257 0.199252 24.8918 0.902333 24.9851 1.86157C25.1251 3.30161 24.2543 4.60714 22.9808 4.86652C22.8106 4.90193 22.6378 4.91985 22.4648 4.92005C21.9177 4.91836 21.3707 4.91836 20.8236 4.92005C20.759 4.92005 20.7437 4.90311 20.7534 4.83145C20.8775 3.89446 21.0004 2.95747 21.1223 2.02048C21.2032 1.40431 21.2867 0.788484 21.3649 0.171976C21.3738 0.102685 21.3981 0.0930278 21.4507 0.0935361C21.7569 0.0955691 22.063 0.094553 22.3692 0.094553ZM22.4164 3.71516V3.71313C22.4691 3.71313 22.5219 3.71313 22.5743 3.71313C22.9624 3.70686 23.2452 3.49865 23.4484 3.13813C23.4946 3.05748 23.5332 2.97163 23.5635 2.88197C23.702 2.46232 23.7067 2.05064 23.5017 1.65251C23.4113 1.47683 23.2757 1.37077 23.1006 1.32452C22.9297 1.27962 22.7567 1.29318 22.5838 1.29064C22.5344 1.29064 22.516 1.30504 22.5085 1.36281C22.4583 1.74738 22.404 2.13128 22.351 2.51484C22.2987 2.89332 22.2476 3.27197 22.1923 3.64994C22.1838 3.70737 22.1973 3.7177 22.2431 3.7155C22.3008 3.71262 22.3585 3.71516 22.4164 3.71516Z" fill="white"/>
<path d="M20.3506 4.9148C19.9889 4.91988 19.6377 4.93581 19.2874 4.91243C19.0791 4.89837 18.9432 4.74301 18.8542 4.53971C18.7488 4.29609 18.6829 4.03434 18.5981 3.78123C18.5664 3.68636 18.5289 3.59386 18.4972 3.49882C18.4822 3.45307 18.4565 3.43393 18.4143 3.42817C18.2811 3.40953 18.1488 3.42597 18.016 3.43579C17.9821 3.43833 17.9708 3.45561 17.9656 3.49289C17.906 3.93896 17.8436 4.38453 17.7859 4.83128C17.7775 4.8965 17.7612 4.92039 17.6994 4.91971C17.3176 4.91621 16.9361 4.91576 16.5548 4.91836C16.498 4.91836 16.4819 4.90464 16.4908 4.83822C16.6152 3.90982 16.7382 2.9813 16.8599 2.05267C16.9408 1.43904 17.0305 0.82728 17.1231 0.215855C17.1366 0.126911 17.1616 0.100821 17.2451 0.101838C17.8599 0.108953 18.4749 0.10692 19.0899 0.110986C19.373 0.11285 19.6507 0.155543 19.9134 0.281928C20.361 0.497426 20.5857 0.932658 20.548 1.47767C20.5028 2.13721 20.2014 2.6231 19.7441 3.0048C19.6924 3.048 19.6885 3.07849 19.7113 3.14033C19.9162 3.70059 20.1182 4.26238 20.3209 4.82382C20.3304 4.84856 20.3379 4.87499 20.3506 4.9148ZM18.418 2.26851C18.5281 2.27681 18.6381 2.28223 18.7477 2.26106C18.9976 2.21311 19.1769 1.99473 19.1834 1.72807C19.1885 1.51562 19.0853 1.36264 18.904 1.31961C18.7004 1.27115 18.4942 1.30385 18.2894 1.2986C18.2638 1.2986 18.2555 1.31385 18.2523 1.33994C18.2163 1.63269 18.1805 1.92527 18.1428 2.21768C18.1374 2.26038 18.147 2.27139 18.1851 2.26953C18.2626 2.26597 18.3404 2.26851 18.418 2.26851Z" fill="white"/>
<path d="M5.9411 3.69805H6.04192C6.48347 3.69805 6.92508 3.69805 7.36673 3.69805C7.40561 3.69805 7.43576 3.69551 7.45037 3.75345C7.55225 4.15615 7.72058 4.52277 7.93563 4.8633C7.94121 4.87228 7.94588 4.8821 7.95281 4.89515C7.92493 4.91921 7.89419 4.90989 7.86661 4.91023C6.70983 4.92886 5.55304 4.91768 4.39626 4.91633C4.31352 4.91633 4.23049 4.91429 4.1479 4.91633C4.10797 4.91734 4.08762 4.90989 4.09531 4.85618C4.12681 4.64204 4.15016 4.42654 4.20487 4.21748C4.26635 3.98233 4.38119 3.78208 4.52601 3.60284C4.92085 3.11441 5.33739 2.64902 5.74006 2.16872C5.95873 1.90816 6.17936 1.6498 6.39893 1.39025C6.41521 1.37111 6.42997 1.3501 6.4565 1.31554H6.34483C5.813 1.31554 5.28103 1.32842 4.74905 1.30978C4.6511 1.30639 4.65094 1.30639 4.66617 1.2C4.71379 0.868957 4.7492 0.535883 4.80044 0.205351C4.81325 0.122676 4.84836 0.0950606 4.91332 0.0935358C5.00374 0.0915028 5.09416 0.0901478 5.18458 0.0901478C6.17338 0.0910514 7.16203 0.0921244 8.15053 0.0933668C8.25467 0.0933668 8.2521 0.0933667 8.23869 0.205521C8.22091 0.356302 8.20584 0.507591 8.19258 0.659049C8.16922 0.927745 8.08618 1.15442 7.91152 1.35671C7.34021 2.01743 6.78337 2.6951 6.2208 3.36684C6.13264 3.4712 6.04463 3.57522 5.9411 3.69805Z" fill="white"/>
<path d="M14.6845 0.0906562C14.8827 0.0906562 15.081 0.0937054 15.2792 0.0887923C15.3382 0.0872676 15.3608 0.105734 15.3717 0.171299C15.5017 0.955021 15.6356 1.73824 15.7656 2.52196C15.8912 3.27823 16.0137 4.03502 16.1373 4.79214C16.1389 4.81176 16.1419 4.83119 16.1463 4.85025C16.1665 4.9109 16.141 4.91938 16.094 4.91921C15.7223 4.91774 15.3509 4.91774 14.9799 4.91921C14.9276 4.91921 14.9124 4.89989 14.9071 4.84382C14.892 4.67846 14.8674 4.51413 14.8516 4.34895C14.8466 4.29711 14.8293 4.28457 14.7859 4.28457C14.3519 4.28593 13.9178 4.28559 13.4837 4.28355C13.4371 4.28355 13.4183 4.30439 13.4019 4.34844C13.3383 4.52006 13.2706 4.68982 13.206 4.86127C13.1909 4.90091 13.1727 4.91582 13.1336 4.91548C12.7619 4.9122 12.3906 4.91079 12.0196 4.91124C11.9509 4.91124 11.9484 4.89108 11.9755 4.82653C12.6359 3.2701 13.2989 1.71519 13.9782 0.168757C14.0053 0.106751 14.036 0.0854042 14.0974 0.086929C14.2933 0.0918421 14.4892 0.0887923 14.6851 0.0887923L14.6845 0.0906562ZM13.8187 3.20894H13.9017C14.1477 3.20894 14.3935 3.20589 14.6393 3.21081C14.7075 3.21233 14.722 3.19386 14.7128 3.11847C14.6595 2.68307 14.6114 2.24682 14.5603 1.81092C14.5445 1.67538 14.5249 1.53985 14.5071 1.40431L14.4899 1.40211C14.2678 2.00049 14.0452 2.59904 13.8187 3.20894Z" fill="white"/>
<path d="M10.223 4.99985C9.9279 4.99833 9.63705 4.96224 9.35524 4.85907C8.54869 4.5636 8.08136 3.78615 8.13576 2.83284C8.20991 1.53714 9.01209 0.431863 10.1297 0.106244C10.7833 -0.0841803 11.4183 -0.0279335 12.0165 0.350713C12.1361 0.428365 12.248 0.520144 12.3503 0.624491C12.3804 0.654986 12.3911 0.676163 12.3653 0.721397C12.1712 1.05379 11.9794 1.38777 11.7897 1.72333C11.7595 1.7772 11.7402 1.7711 11.7009 1.73536C11.3287 1.39652 10.9063 1.27115 10.4331 1.36349C9.98095 1.45192 9.57798 1.9373 9.50127 2.48808C9.48419 2.60504 9.48069 2.72401 9.49087 2.84199C9.52101 3.16727 9.67548 3.39683 9.92866 3.54388C10.2602 3.73617 10.6015 3.71669 10.9445 3.58878C11.1658 3.50627 11.3612 3.36752 11.5498 3.21691C11.5936 3.18184 11.6135 3.17455 11.6402 3.23944C11.7666 3.55523 11.8974 3.86967 12.0288 4.18275C12.0451 4.22189 12.0526 4.24849 12.0138 4.28186C11.6262 4.61527 11.2077 4.87296 10.7177 4.95953C10.5538 4.98582 10.3885 4.9993 10.223 4.99985Z" fill="white"/>
<path d="M3.72021 3.89017C3.70183 4.02062 3.68405 4.15141 3.67229 4.28271C3.66792 4.33235 3.65119 4.34404 3.61201 4.34353C3.48663 4.34217 3.36124 4.34353 3.23526 4.34353C2.88141 4.36047 2.52952 4.34353 2.18502 4.23798C2.09852 4.21138 2.02045 4.17343 1.96183 4.09432C1.95393 4.08327 1.9447 4.07352 1.9344 4.06534C1.7195 3.90406 1.68514 3.65451 1.67233 3.39344C1.65169 2.97684 1.71272 2.56855 1.76773 2.15941C1.81188 1.83158 1.85393 1.50342 1.89718 1.17543C1.94239 0.830838 1.98971 0.486414 2.03281 0.141989C2.03989 0.0848959 2.07018 0.0925196 2.10198 0.0911643C2.30769 0.0884536 2.5134 0.0838795 2.71986 0.0838795C3.18146 0.0838795 3.64321 0.0881146 4.1048 0.0862511C4.17187 0.0862511 4.18709 0.107598 4.18528 0.180786C4.17639 0.530801 4.125 0.875395 4.07451 1.21863L3.72021 3.89017Z" fill="white"/>
<path d="M2.01322 4.91751H1.8054C1.40137 4.91751 0.997342 4.91751 0.593311 4.91582C0.255288 4.91378 -0.000150635 4.6212 6.66471e-08 4.24289C6.66471e-08 3.08645 6.66471e-08 1.93007 6.66471e-08 0.773745C6.66471e-08 0.38578 0.246698 0.0999736 0.594065 0.0947217C0.850257 0.0908251 1.10645 0.0972629 1.36189 0.0925192C1.43046 0.0911638 1.43799 0.115899 1.4288 0.182988C1.33958 0.834904 1.25193 1.48705 1.16583 2.13941C1.12242 2.47113 1.0626 2.80014 1.04526 3.13609C1.0213 3.61741 1.09605 4.06789 1.38449 4.44975C1.5031 4.60629 1.65711 4.70388 1.81836 4.79214C1.88362 4.82755 1.94932 4.86211 2.01427 4.89701L2.01322 4.91751Z" fill="white"/>
</svg>
