<svg width="16" height="19" viewBox="0 0 16 19" fill="none" xmlns="http://www.w3.org/2000/svg">
<g clip-path="url(#clip0_2666_1150)">
<path fill-rule="evenodd" clip-rule="evenodd" d="M15.6521 9.93688C15.6521 12.6795 15.0171 14.7162 13.747 16.0471C12.4768 17.3781 10.521 18.0435 7.87949 18.0435C5.40846 18.0435 3.53541 17.3781 2.26036 16.0471C0.985305 14.7162 0.347778 12.7113 0.347778 10.0323V1.0192C0.350136 0.923685 0.390029 0.832842 0.458975 0.765986C0.527918 0.697087 0.620569 0.656463 0.718433 0.652222L5.21077 0.652222C5.31381 0.6527 5.41244 0.693612 5.48506 0.765986C5.52098 0.800836 5.54936 0.842558 5.56848 0.888614C5.58759 0.93467 5.59705 0.984096 5.59625 1.03388V10.2268C5.54028 11.115 5.75738 11.9991 6.21895 12.7626C6.42692 13.034 6.6945 13.255 7.00145 13.4089C7.3084 13.5627 7.64668 13.6454 7.99069 13.6507C8.33521 13.6572 8.67654 13.5844 8.98775 13.4379C9.30018 13.2947 9.57533 13.0825 9.79207 12.8177C10.1998 12.2599 10.4024 11.4378 10.3999 10.3516V8.62675H15.6521V9.93688Z" fill="#1F3E79"/>
<path fill-rule="evenodd" clip-rule="evenodd" d="M15.2444 7.62489H10.3999V1.05223C10.4018 0.946106 10.4455 0.844915 10.5217 0.770204C10.5978 0.695492 10.7004 0.653161 10.8076 0.652222H11.5489C11.5483 1.18565 11.6544 1.71392 11.8611 2.2065C12.0679 2.69908 12.3712 3.1462 12.7536 3.52203C13.5275 4.28444 14.5751 4.71201 15.6669 4.71105V7.62489H15.2444Z" fill="#1F3E79"/>
<path fill-rule="evenodd" clip-rule="evenodd" d="M12.5794 0.652264H15.2481C15.3029 0.651486 15.3573 0.661463 15.4082 0.681619C15.4591 0.701775 15.5055 0.731711 15.5446 0.769698C15.6201 0.844829 15.6627 0.946321 15.6632 1.05227V3.70189C14.8414 3.70413 14.0522 3.38341 13.469 2.81012C12.8952 2.23604 12.5752 1.45987 12.5794 0.652264Z" fill="#F4821F"/>
</g>
<defs>
<clipPath id="clip0_2666_1150">
<rect width="15.3043" height="17.3913" fill="white" transform="translate(0.347778 0.652222)"/>
</clipPath>
</defs>
</svg>
