<svg width="30" height="40" viewBox="0 0 30 40" fill="none" xmlns="http://www.w3.org/2000/svg">
<g clip-path="url(#clip0_1069_669)">
<path fill-rule="evenodd" clip-rule="evenodd" d="M29.0423 16.725C29.0423 21.6583 27.839 25.3272 25.4323 27.7316C23.0255 30.1276 19.3129 31.3254 14.2944 31.325C9.6115 31.325 6.05838 30.1272 3.63505 27.7316C1.21171 25.3361 0.000516004 21.7225 0.0014654 16.891V0.690956C0.00184109 0.508533 0.0793591 0.333674 0.217065 0.204619C0.354772 0.0755641 0.541459 0.00281724 0.736299 0.00228882H9.22818C9.42309 0.00281648 9.60985 0.0755418 9.74767 0.204578C9.88549 0.333613 9.96316 0.508472 9.96373 0.690956V17.2476C9.96373 19.2203 10.3532 20.7376 11.1464 21.8083C11.5398 22.297 12.0472 22.6951 12.6299 22.9723C13.2126 23.2494 13.8552 23.3983 14.5087 23.4075C15.1623 23.4167 15.8094 23.286 16.4007 23.0253C16.9921 22.7647 17.512 22.381 17.9209 21.9036C18.6965 20.8992 19.0829 19.4185 19.0801 17.4616V14.361H29.0423V16.725Z" fill="white"/>
<path fill-rule="evenodd" clip-rule="evenodd" d="M28.2726 12.5493H19.0807V0.721334C19.0811 0.530248 19.1623 0.347079 19.3066 0.211898C19.4508 0.0767169 19.6464 0.000528513 19.8505 0H21.2269C21.2282 1.93952 22.052 3.79917 23.5173 5.17018C24.9826 6.54118 26.9693 7.31133 29.0409 7.31133V12.5493H28.2726Z" fill="white"/>
<path fill-rule="evenodd" clip-rule="evenodd" d="M23.1843 0H28.2726C28.4767 0.000527791 28.6724 0.0766946 28.8167 0.211857C28.9611 0.347019 29.0424 0.530187 29.043 0.721334V5.49067C27.4892 5.49067 25.999 4.91275 24.9002 3.88405C23.8015 2.85535 23.1843 1.46013 23.1843 0.00533346V0Z" fill="white"/>
<path fill-rule="evenodd" clip-rule="evenodd" d="M27.087 38.4853H26.417V36.3233H27.087C27.3727 36.3035 27.6551 36.3907 27.8722 36.5657C28.0893 36.7407 28.2233 36.9892 28.2448 37.2567C28.2484 37.3062 28.2484 37.3558 28.2448 37.4053C28.2572 37.6796 28.1526 37.9473 27.9542 38.1495C27.7558 38.3516 27.4797 38.4717 27.1867 38.4833C27.1525 38.4833 27.1191 38.4833 27.0849 38.4833L27.087 38.4853ZM27.087 39.1333C28.2448 39.1333 29.048 38.4487 29.048 37.4067C29.048 36.3647 28.2434 35.6733 27.087 35.6733H25.6273V39.132L27.087 39.1333ZM22.2316 37.256H21.4035V36.3227H22.2259C22.2913 36.3162 22.3575 36.3218 22.4206 36.3393C22.4837 36.3568 22.5426 36.3857 22.5937 36.4245C22.6449 36.4632 22.6874 36.511 22.7189 36.5652C22.7503 36.6193 22.7701 36.6787 22.777 36.74C22.7839 36.8013 22.7779 36.8632 22.7592 36.9223C22.7406 36.9814 22.7097 37.0365 22.6683 37.0844C22.6269 37.1323 22.5758 37.1722 22.518 37.2016C22.4602 37.231 22.3967 37.2495 22.3312 37.256C22.2962 37.2593 22.2609 37.2593 22.2259 37.256H22.2316ZM24.1356 40L22.7827 37.816C23.0251 37.7615 23.2392 37.6286 23.3871 37.4408C23.5351 37.253 23.6075 37.0223 23.5916 36.7893C23.5974 36.648 23.5734 36.5069 23.521 36.3743C23.4685 36.2416 23.3887 36.1199 23.286 36.0161C23.1833 35.9123 23.0597 35.8285 22.9224 35.7695C22.7851 35.7105 22.6368 35.6773 22.4858 35.672C22.4409 35.6697 22.396 35.6697 22.3512 35.672H20.6166V39.1307H21.4035V37.904H21.9795L23.2299 39.9993L24.1356 40ZM17.4851 37.898H16.3301L16.9047 36.41L17.4808 37.898H17.4851ZM18.8258 39.1327L17.4017 35.674H16.4141L14.9822 39.1327H15.8794L16.1122 38.546H17.6965L17.9237 39.1327H18.8258ZM11.9539 39.1947C12.2705 39.2016 12.5828 39.1256 12.8558 38.9753C13.1288 38.825 13.3516 38.6064 13.499 38.344L12.8218 38.038C12.7395 38.1881 12.6149 38.3143 12.4615 38.403C12.3082 38.4917 12.1319 38.5395 11.9517 38.5413C11.6414 38.5256 11.3493 38.3991 11.1356 38.1878C10.9218 37.9766 10.8027 37.6966 10.8027 37.4057C10.8027 37.1147 10.9218 36.8348 11.1356 36.6235C11.3493 36.4123 11.6414 36.2857 11.9517 36.27C12.1316 36.2729 12.3073 36.3211 12.4604 36.4096C12.6135 36.498 12.7384 36.6235 12.8218 36.7727L13.499 36.4613C13.3517 36.1992 13.1288 35.9811 12.8557 35.8316C12.5825 35.6822 12.2701 35.6075 11.9539 35.616C11.7029 35.609 11.4529 35.6483 11.2182 35.7318C10.9834 35.8152 10.7686 35.9412 10.5858 36.1024C10.403 36.2636 10.256 36.4569 10.153 36.6713C10.0501 36.8857 9.99324 37.117 9.98576 37.352C9.97828 37.587 10.0203 37.821 10.1094 38.0408C10.1986 38.2606 10.3331 38.4618 10.5052 38.6329C10.6774 38.804 10.8839 38.9417 11.1129 39.038C11.3419 39.1344 11.589 39.1877 11.8399 39.1947C11.8777 39.1947 11.9161 39.1947 11.9539 39.1947ZM8.19496 39.1327V38.4847H6.41484L8.15936 36.2633V35.672H5.38237V36.3207H7.12689L5.38237 38.5347V39.13H8.19567L8.19496 39.1327ZM1.67189 39.1947C2.79621 39.1947 3.33951 38.6087 3.33951 37.748V35.674H2.53133V37.7273C2.53133 37.9425 2.44003 38.1489 2.27752 38.301C2.11501 38.4532 1.8946 38.5387 1.66477 38.5387C1.43494 38.5387 1.21453 38.4532 1.05202 38.301C0.889504 38.1489 0.798206 37.9425 0.798206 37.7273V35.674H0V37.7573C0 38.6073 0.542581 39.1987 1.66762 39.1987L1.67189 39.1947Z" fill="white"/>
<path fill-rule="evenodd" clip-rule="evenodd" d="M30 35.6087V35.6173C30 35.7447 29.9597 35.8692 29.8841 35.9751C29.8085 36.081 29.7011 36.1636 29.5754 36.2123C29.4497 36.261 29.3114 36.2738 29.178 36.249C29.0445 36.2241 28.922 36.1628 28.8258 36.0727C28.7296 35.9826 28.6641 35.8679 28.6375 35.743C28.611 35.618 28.6246 35.4886 28.6767 35.3709C28.7287 35.2532 28.8169 35.1526 28.93 35.0819C29.0431 35.0111 29.1761 34.9733 29.3122 34.9733H30V35.6087Z" fill="white"/>
</g>
<defs>
<clipPath id="clip0_1069_669">
<rect width="30" height="40" fill="white"/>
</clipPath>
</defs>
</svg>
