<svg width="46" height="46" viewBox="0 0 46 46" fill="none" xmlns="http://www.w3.org/2000/svg">
<rect width="46" height="46" rx="23" fill="#EAECF0"/>
<g clip-path="url(#clip0_306_3163)">
<path d="M11.7875 27.3125L34.2125 27.3125C34.6888 27.3125 35.075 26.9263 35.075 26.45V14.375C35.075 13.8987 34.6888 13.5125 34.2125 13.5125L11.7875 13.5125C11.3111 13.5125 10.925 13.8987 10.925 14.375V26.45C10.925 26.9263 11.3111 27.3125 11.7875 27.3125Z" stroke="#3E4551" stroke-width="2" stroke-linejoin="round"/>
<path d="M12.6499 29.8999H33.3499M14.3749 32.4874H31.6249" stroke="#3E4551" stroke-width="2" stroke-linecap="round" stroke-linejoin="round"/>
<path d="M23 24.7249C25.3817 24.7249 27.3125 22.7941 27.3125 20.4124C27.3125 18.0306 25.3817 16.0999 23 16.0999C20.6183 16.0999 18.6875 18.0306 18.6875 20.4124C18.6875 22.7941 20.6183 24.7249 23 24.7249Z" stroke="#3E4551" stroke-width="2" stroke-linecap="round" stroke-linejoin="round"/>
<path d="M35.075 17.825C33.9313 17.825 32.8344 17.3706 32.0257 16.5618C31.2169 15.7531 30.7625 14.6562 30.7625 13.5125M10.925 17.825C11.4914 17.825 12.0522 17.7134 12.5754 17.4967C13.0986 17.28 13.574 16.9623 13.9744 16.5618C14.3749 16.1614 14.6926 15.686 14.9093 15.1628C15.126 14.6396 15.2375 14.0788 15.2375 13.5125M35.075 23C33.9313 23 32.8344 23.4543 32.0257 24.2631C31.2169 25.0718 30.7625 26.1687 30.7625 27.3125M10.925 23C11.4914 23 12.0522 23.1115 12.5754 23.3282C13.0986 23.5449 13.574 23.8626 13.9744 24.2631C14.3749 24.6635 14.6926 25.1389 14.9093 25.6621C15.126 26.1853 15.2375 26.7461 15.2375 27.3125" stroke="#3E4551" stroke-width="2" stroke-linecap="round" stroke-linejoin="round"/>
</g>
<defs>
<clipPath id="clip0_306_3163">
<rect width="27.6" height="27.6" fill="white" transform="translate(9.19995 9.19995)"/>
</clipPath>
</defs>
</svg>
