<svg width="46" height="46" viewBox="0 0 46 46" fill="none" xmlns="http://www.w3.org/2000/svg">
<rect width="46" height="46" rx="23" fill="#EAECF0"/>
<path fill-rule="evenodd" clip-rule="evenodd" d="M36.4304 25.1907C36.8797 25.6396 36.8801 26.3677 36.4312 26.817L31.6292 31.6236C31.4135 31.8395 31.1208 31.9608 30.8157 31.9608C30.5105 31.9608 30.2178 31.8395 30.0021 31.6236L25.2001 26.817C24.7512 26.3677 24.7516 25.6396 25.2009 25.1907C25.6502 24.7418 26.3783 24.7421 26.8272 25.1914L30.8157 29.1837L34.8041 25.1914C35.253 24.7421 35.9811 24.7418 36.4304 25.1907Z" fill="#464E5C"/>
<path fill-rule="evenodd" clip-rule="evenodd" d="M29.6692 19.9958C29.6692 19.0256 29.2842 18.0955 28.5992 17.4098C27.9142 16.7242 26.9854 16.3392 26.0172 16.3392L23.6162 16.3392C22.9811 16.3392 22.4662 15.8244 22.4662 15.1892C22.4662 14.5541 22.9811 14.0392 23.6162 14.0392L26.0172 14.0392C27.5961 14.0392 29.1101 14.6671 30.2263 15.7842C31.3424 16.9014 31.9692 18.4163 31.9692 19.9958L31.9692 30.8104C31.9692 31.4456 31.4543 31.9604 30.8192 31.9604C30.184 31.9604 29.6692 31.4456 29.6692 30.8104L29.6692 19.9958Z" fill="#464E5C"/>
<path fill-rule="evenodd" clip-rule="evenodd" d="M9.57055 20.8093C9.12123 20.3604 9.12089 19.6322 9.56978 19.1829L14.3718 14.3764C14.5875 14.1605 14.8801 14.0392 15.1853 14.0392C15.4905 14.0392 15.7832 14.1605 15.9989 14.3764L20.8009 19.1829C21.2497 19.6322 21.2494 20.3604 20.8001 20.8093C20.3508 21.2581 19.6226 21.2578 19.1737 20.8085L15.1853 16.8163L11.1969 20.8085C10.748 21.2578 10.0199 21.2581 9.57055 20.8093Z" fill="#464E5C"/>
<path fill-rule="evenodd" clip-rule="evenodd" d="M16.3318 15.1895L16.3318 26.0042C16.3318 26.9743 16.7168 27.9045 17.4018 28.5901C18.0868 29.2757 19.0156 29.6607 19.9838 29.6607L22.3848 29.6607C23.0199 29.6607 23.5348 30.1756 23.5348 30.8107C23.5348 31.4458 23.0199 31.9607 22.3848 31.9607L19.9838 31.9607C18.4049 31.9607 16.8908 31.3329 15.7747 30.2157C14.6586 29.0985 14.0318 27.5836 14.0318 26.0042L14.0318 15.1895C14.0318 14.5544 14.5467 14.0395 15.1818 14.0395C15.8169 14.0395 16.3318 14.5544 16.3318 15.1895Z" fill="#464E5C"/>
</svg>
