<svg width="24" height="24" viewBox="0 0 24 24" fill="none" xmlns="http://www.w3.org/2000/svg">
<path fill-rule="evenodd" clip-rule="evenodd" d="M16.3911 3H7.74766C4.84951 3 2.5 5.34951 2.5 8.24766V15.4247C2.5 18.3229 4.84951 20.6724 7.74766 20.6724H16.3911C19.2892 20.6724 21.6388 18.3229 21.6388 15.4247V15.1457H17.5907C15.6907 15.1445 14.1496 13.6055 14.1485 11.7049C14.1485 9.80346 15.6911 8.2643 17.5907 8.26314H21.6388V8.24766C21.6388 5.34951 19.2892 3 16.3911 3ZM21.6388 9.76314H17.5909C16.5178 9.76389 15.6487 10.6327 15.6485 11.704C15.6493 12.7761 16.5183 13.645 17.5911 13.6457H21.6388V9.76314ZM7.03564 6.78809C6.62143 6.78809 6.28564 7.12387 6.28564 7.53809C6.28564 7.9523 6.62143 8.28809 7.03564 8.28809H12.4346C12.8488 8.28809 13.1846 7.9523 13.1846 7.53809C13.1846 7.12387 12.8488 6.78809 12.4346 6.78809H7.03564ZM16.9869 11.6428C16.9869 11.5298 17.0119 11.4226 17.0567 11.3265C17.176 11.0703 17.4358 10.8928 17.7369 10.8928H18.0486C18.1686 10.8928 18.282 10.921 18.3826 10.9711C18.6292 11.0939 18.7986 11.3486 18.7986 11.6428C18.7986 12.057 18.4628 12.3928 18.0486 12.3928H17.7369C17.3227 12.3928 16.9869 12.057 16.9869 11.6428Z" fill="#757575"/>
</svg>
