<svg width="16" height="16" viewBox="0 0 16 16" fill="none" xmlns="http://www.w3.org/2000/svg">
<path d="M14.5605 5.89333C10.8695 2.47937 5.12886 2.48062 1.43928 5.89333C1.30053 6.02166 1.29782 6.23896 1.43198 6.37208L2.14532 7.07979C2.27323 7.20687 2.47907 7.20958 2.61199 7.08771C5.65199 4.3027 10.3474 4.30208 13.388 7.08771C13.521 7.20958 13.7268 7.20666 13.8547 7.07979L14.568 6.37208C14.702 6.23896 14.6993 6.02166 14.5605 5.89333ZM7.99991 10C7.26345 10 6.66657 10.5969 6.66657 11.3333C6.66657 12.0698 7.26345 12.6667 7.99991 12.6667C8.73636 12.6667 9.33324 12.0698 9.33324 11.3333C9.33324 10.5969 8.73636 10 7.99991 10ZM12.2222 8.25854C9.82095 6.135 6.17615 6.13729 3.77761 8.25854C3.63386 8.38562 3.62928 8.60625 3.76574 8.74083L4.48324 9.44896C4.60824 9.57229 4.80949 9.58062 4.94261 9.46562C6.69157 7.95375 9.3122 7.95708 11.057 9.46562C11.1901 9.58062 11.3914 9.5725 11.5164 9.44896L12.2339 8.74083C12.3705 8.60625 12.3657 8.38541 12.2222 8.25854Z" fill="white"/>
</svg>
