<svg width="24" height="24" viewBox="0 0 24 24" fill="none" xmlns="http://www.w3.org/2000/svg">
<path d="M16.1017 19.0387L16.8194 19.4355C16.747 19.8097 16.747 20.1935 16.8194 20.5677L16.1017 20.9645C16.0191 21.0097 15.9821 21.1032 16.009 21.1903C16.196 21.7645 16.5145 22.2839 16.9306 22.7161C16.9947 22.7822 17.0991 22.7984 17.18 22.7532L17.8977 22.3564C18.1993 22.6048 18.5464 22.7968 18.9221 22.9226L18.9221 23.7145C18.9221 23.8048 18.9878 23.8839 19.0805 23.9032C19.6988 24.0355 20.3323 24.029 20.9204 23.9032C21.013 23.8839 21.0787 23.8048 21.0787 23.7145L21.0787 22.921C21.4528 22.7935 21.7998 22.6016 22.1031 22.3548L22.8192 22.7516C22.9017 22.7968 23.0045 22.7822 23.0685 22.7145C23.4847 22.2839 23.8031 21.7645 23.9901 21.1887C24.0188 21.1016 23.98 21.0081 23.8975 20.9629L23.1797 20.5661C23.2522 20.1919 23.2522 19.8081 23.1797 19.4339L23.8975 19.0371C23.98 18.9919 24.0171 18.8984 23.9901 18.8113C23.8031 18.2371 23.4847 17.7178 23.0685 17.2855C23.0045 17.2194 22.9 17.2032 22.8192 17.2484L22.1014 17.6452C21.7998 17.3968 21.4528 17.2048 21.077 17.079L21.077 16.2855C21.077 16.1952 21.0113 16.1161 20.9187 16.0968C20.3003 15.9645 19.6668 15.971 19.0788 16.0968C18.9862 16.1161 18.9204 16.1952 18.9204 16.2855L18.9204 17.079C18.5464 17.2065 18.1993 17.3984 17.8961 17.6452L17.1783 17.2484C17.0958 17.2032 16.993 17.2178 16.929 17.2855C16.5128 17.7161 16.1944 18.2355 16.0073 18.8113C15.9821 18.9 16.0191 18.9936 16.1017 19.0387ZM20.0004 18.7113C20.7434 18.7113 21.3483 19.2903 21.3483 20.0016C21.3483 20.7129 20.7434 21.2919 20.0004 21.2919C19.2574 21.2919 18.6526 20.7129 18.6526 20.0016C18.6526 19.2903 19.2574 18.7113 20.0004 18.7113Z" fill="#3E4551"/>
<path fill-rule="evenodd" clip-rule="evenodd" d="M13.25 2V7.3125C13.25 7.82812 13.6719 8.25 14.1875 8.25H19.5V15.0229C19.287 15.0425 19.0767 15.0746 18.8708 15.1186C18.3407 15.2309 17.9202 15.6984 17.9202 16.2855V16.4298C17.8942 16.444 17.8684 16.4584 17.8426 16.4731L17.6619 16.3732L17.6619 16.3732L17.658 16.3711C17.1951 16.1179 16.5961 16.1866 16.2071 16.5932C15.6903 17.1288 15.2913 17.7781 15.056 18.5024L15.0504 18.5197L15.0454 18.5373C14.8961 19.0615 15.1169 19.6382 15.6187 19.9144L15.6216 19.916L15.7649 19.9953V20.008L15.6216 20.0872L15.6186 20.0888C15.1221 20.3622 14.8859 20.9443 15.0535 21.486L15.0557 21.493L15.058 21.5C15.1137 21.671 15.1785 21.8378 15.2519 22H5.4375C4.91797 22 4.5 21.582 4.5 21.0625V2.9375C4.5 2.41797 4.91797 2 5.4375 2H13.25ZM19.5 16.0281C19.3575 16.0442 19.2168 16.0672 19.0786 16.0968C18.9859 16.1161 18.9202 16.1952 18.9202 16.2855V17.079C18.5462 17.2065 18.1991 17.3984 17.8958 17.6452L17.1781 17.2484C17.0955 17.2032 16.9928 17.2178 16.9287 17.2855C16.5126 17.7161 16.1942 18.2355 16.0071 18.8113C15.9819 18.9 16.0189 18.9936 16.1015 19.0387L16.8192 19.4355C16.7468 19.8097 16.7468 20.1935 16.8192 20.5677L16.1015 20.9645C16.0189 21.0097 15.9819 21.1032 16.0088 21.1903C16.1015 21.475 16.2266 21.7462 16.3798 22H18.5625C19.0366 22 19.4262 21.6519 19.4906 21.1961C18.9994 21.0033 18.6523 20.5404 18.6523 20.0016C18.6523 19.4594 19.0038 18.9941 19.5 18.8035V16.0281ZM15.2812 17C15.5391 17 15.75 16.7891 15.75 16.5312V16.2188C15.75 15.9609 15.5391 15.75 15.2812 15.75H8.71875C8.46094 15.75 8.25 15.9609 8.25 16.2188V16.5312C8.25 16.7891 8.46094 17 8.71875 17H15.2812ZM15.2812 14.5C15.5391 14.5 15.75 14.2891 15.75 14.0312V13.7188C15.75 13.4609 15.5391 13.25 15.2812 13.25H8.71875C8.46094 13.25 8.25 13.4609 8.25 13.7188V14.0312C8.25 14.2891 8.46094 14.5 8.71875 14.5H15.2812ZM15.75 11.5312V11.2188C15.75 10.9609 15.5391 10.75 15.2812 10.75H8.71875C8.46094 10.75 8.25 10.9609 8.25 11.2188V11.5312C8.25 11.7891 8.46094 12 8.71875 12H15.2812C15.5391 12 15.75 11.7891 15.75 11.5312ZM19.5 7V6.76172C19.5 6.51562 19.4023 6.27734 19.2266 6.10156L15.4023 2.27344C15.2266 2.09766 14.9883 2 14.7383 2H14.5V7H19.5Z" fill="#3E4551"/>
</svg>
