<svg width="16" height="16" viewBox="0 0 16 16" fill="none" xmlns="http://www.w3.org/2000/svg">
<path fill-rule="evenodd" clip-rule="evenodd" d="M2 8C2 4.68629 4.68629 2 8 2C11.3137 2 14 4.68629 14 8C14 11.3137 11.3137 14 8 14C4.68629 14 2 11.3137 2 8ZM7.30001 4.69514C7.30001 4.30854 7.61341 3.99514 8.00001 3.99514C8.38661 3.99514 8.70001 4.30854 8.70001 4.69514C8.70001 5.08174 8.38661 5.39514 8.00001 5.39514C7.61341 5.39514 7.30001 5.08174 7.30001 4.69514ZM8.70001 6.75C8.70001 6.61193 8.58808 6.5 8.45001 6.5H7.55001C7.41194 6.5 7.30001 6.61193 7.30001 6.75L7.30001 11.75C7.30001 11.8881 7.41194 12 7.55001 12H8.45001C8.58808 12 8.70001 11.8881 8.70001 11.75L8.70001 6.75Z" fill="#3E4551"/>
</svg>
