<svg width="24" height="24" viewBox="0 0 24 24" fill="none" xmlns="http://www.w3.org/2000/svg">
<path fill-rule="evenodd" clip-rule="evenodd" d="M6.39274 10.0162C5.86944 9.48919 5.86903 8.63442 6.39185 8.10696L11.0525 3.40492C11.3037 3.15147 11.6446 3.00906 12 3.00906C12.3554 3.00906 12.6963 3.15147 12.9475 3.40492L17.6082 8.10696C18.131 8.63442 18.1306 9.48919 17.6073 10.0162C17.084 10.5431 16.2359 10.5427 15.7131 10.0152L12 6.26916L8.28691 10.0152C7.7641 10.5427 6.91605 10.5431 6.39274 10.0162Z" fill="#3E4551"/>
<path d="M10.6556 4.35C10.6556 3.60442 11.2553 3 11.995 3C12.7347 3 13.3344 3.60442 13.3344 4.35V19.65C13.3344 20.3956 12.7347 21 11.995 21C11.2553 21 10.6556 20.3956 10.6556 19.65V4.35Z" fill="#3E4551"/>
</svg>
