<svg width="24" height="24" viewBox="0 0 24 24" fill="none" xmlns="http://www.w3.org/2000/svg">
<path d="M12.0005 8.25C9.93408 8.25 8.25049 9.93359 8.25049 12C8.25049 14.0664 9.93408 15.75 12.0005 15.75C14.0669 15.75 15.7505 14.0664 15.7505 12C15.7505 9.93359 14.0669 8.25 12.0005 8.25ZM21.6255 11.3945L17.9263 9.54688L19.2349 5.625C19.4106 5.09375 18.9067 4.58984 18.3794 4.76953L14.4575 6.07812L12.606 2.375C12.356 1.875 11.645 1.875 11.395 2.375L9.54736 6.07422L5.62158 4.76562C5.09033 4.58984 4.58643 5.09375 4.76611 5.62109L6.07471 9.54297L2.37549 11.3945C1.87549 11.6445 1.87549 12.3555 2.37549 12.6055L6.07471 14.4531L4.76611 18.3789C4.59033 18.9102 5.09424 19.4141 5.62158 19.2344L9.54346 17.9258L11.3911 21.625C11.6411 22.125 12.3521 22.125 12.6021 21.625L14.4497 17.9258L18.3716 19.2344C18.9028 19.4102 19.4067 18.9062 19.2271 18.3789L17.9185 14.457L21.6177 12.6094C22.1255 12.3555 22.1255 11.6445 21.6255 11.3945ZM15.5356 15.5352C13.5864 17.4844 10.4146 17.4844 8.46533 15.5352C6.51611 13.5859 6.51611 10.4141 8.46533 8.46484C10.4146 6.51562 13.5864 6.51562 15.5356 8.46484C17.4849 10.4141 17.4849 13.5859 15.5356 15.5352Z" fill="#3E4551"/>
</svg>
