<svg width="32" height="32" viewBox="0 0 32 32" fill="none" xmlns="http://www.w3.org/2000/svg">
<rect width="32" height="32" rx="16" fill="#FF6A61"/>
<path d="M21.6667 18.7083V9.95831C21.6667 9.61196 21.388 9.33331 21.0417 9.33331H12.5C11.1198 9.33331 10 10.4531 10 11.8333V20.1666C10 21.5469 11.1198 22.6666 12.5 22.6666H21.0417C21.388 22.6666 21.6667 22.388 21.6667 22.0416V21.625C21.6667 21.4297 21.5755 21.2526 21.4349 21.138C21.3255 20.737 21.3255 19.5937 21.4349 19.1927C21.5755 19.0807 21.6667 18.9036 21.6667 18.7083ZM13.3333 12.8229C13.3333 12.737 13.4036 12.6666 13.4896 12.6666H19.0104C19.0964 12.6666 19.1667 12.737 19.1667 12.8229V13.3437C19.1667 13.4297 19.0964 13.5 19.0104 13.5H13.4896C13.4036 13.5 13.3333 13.4297 13.3333 13.3437V12.8229ZM13.3333 14.4896C13.3333 14.4036 13.4036 14.3333 13.4896 14.3333H19.0104C19.0964 14.3333 19.1667 14.4036 19.1667 14.4896V15.0104C19.1667 15.0963 19.0964 15.1666 19.0104 15.1666H13.4896C13.4036 15.1666 13.3333 15.0963 13.3333 15.0104V14.4896ZM19.9323 21H12.5C12.0391 21 11.6667 20.6276 11.6667 20.1666C11.6667 19.7083 12.0417 19.3333 12.5 19.3333H19.9323C19.8828 19.7786 19.8828 20.5547 19.9323 21Z" fill="white"/>
</svg>
