<svg width="24" height="24" viewBox="0 0 24 24" fill="none" xmlns="http://www.w3.org/2000/svg">
<path d="M17.0018 7H7.00036C6.17602 6.99988 5.36444 7.2036 4.63787 7.59301C3.9113 7.98242 3.2923 8.54544 2.83596 9.23195C2.37962 9.91845 2.10011 10.7071 2.02232 11.5278C1.94452 12.3485 2.07085 13.1756 2.39006 13.9357C2.70927 14.6957 3.21146 15.365 3.85191 15.884C4.49237 16.403 5.25121 16.7556 6.06089 16.9104C6.87057 17.0651 7.70596 17.0173 8.49269 16.7711C9.27941 16.525 9.99306 16.0881 10.5701 15.4994H13.4299C14.0069 16.088 14.7204 16.5249 15.5071 16.7711C16.2937 17.0173 17.129 17.0651 17.9386 16.9105C18.7482 16.7558 19.507 16.4033 20.1474 15.8845C20.7879 15.3657 21.2902 14.6965 21.6095 13.9367C21.9289 13.1768 22.0554 12.3498 21.9778 11.5292C21.9003 10.7086 21.621 9.91989 21.1649 9.23331C20.7089 8.54673 20.0902 7.98355 19.3638 7.59391C18.6375 7.20427 17.8261 7.00024 17.0018 7ZM9.75016 12.3746C9.75016 12.4741 9.71065 12.5694 9.64033 12.6398C9.57001 12.7101 9.47464 12.7496 9.37519 12.7496H7.7503V14.3745C7.7503 14.4739 7.7108 14.5693 7.64048 14.6396C7.57016 14.7099 7.47478 14.7494 7.37533 14.7494H6.62538C6.52594 14.7494 6.43056 14.7099 6.36024 14.6396C6.28992 14.5693 6.25041 14.4739 6.25041 14.3745V12.7496H4.62553C4.52608 12.7496 4.4307 12.7101 4.36038 12.6398C4.29006 12.5694 4.25055 12.4741 4.25055 12.3746V11.6247C4.25055 11.5252 4.29006 11.4298 4.36038 11.3595C4.4307 11.2892 4.52608 11.2497 4.62553 11.2497H6.25041V9.62481C6.25041 9.52536 6.28992 9.42999 6.36024 9.35967C6.43056 9.28935 6.52594 9.24984 6.62538 9.24984H7.37533C7.47478 9.24984 7.57016 9.28935 7.64048 9.35967C7.7108 9.42999 7.7503 9.52536 7.7503 9.62481V11.2497H9.37519C9.47464 11.2497 9.57001 11.2892 9.64033 11.3595C9.71065 11.4298 9.75016 11.5252 9.75016 11.6247V12.3746ZM16.4997 14.7494C16.2525 14.7494 16.0108 14.6761 15.8053 14.5388C15.5997 14.4015 15.4395 14.2062 15.3449 13.9779C15.2503 13.7495 15.2256 13.4981 15.2738 13.2557C15.322 13.0132 15.4411 12.7905 15.6159 12.6157C15.7907 12.4409 16.0134 12.3219 16.2558 12.2736C16.4983 12.2254 16.7496 12.2502 16.978 12.3448C17.2064 12.4394 17.4016 12.5996 17.5389 12.8051C17.6763 13.0107 17.7496 13.2523 17.7496 13.4995C17.7496 13.831 17.6179 14.149 17.3835 14.3834C17.1491 14.6178 16.8312 14.7494 16.4997 14.7494ZM18.4995 11.7497C18.2523 11.7497 18.0107 11.6764 17.8051 11.539C17.5996 11.4017 17.4394 11.2065 17.3448 10.9781C17.2502 10.7497 17.2254 10.4984 17.2736 10.2559C17.3219 10.0134 17.4409 9.79073 17.6157 9.61593C17.7905 9.44113 18.0132 9.32208 18.2557 9.27386C18.4981 9.22563 18.7495 9.25038 18.9779 9.34498C19.2062 9.43959 19.4015 9.59979 19.5388 9.80534C19.6761 10.0109 19.7494 10.2525 19.7494 10.4997C19.7494 10.8312 19.6178 11.1492 19.3834 11.3836C19.149 11.618 18.831 11.7497 18.4995 11.7497Z" fill="#3E4551"/>
</svg>
