<svg width="24" height="24" viewBox="0 0 24 24" fill="none" xmlns="http://www.w3.org/2000/svg">
<path fill-rule="evenodd" clip-rule="evenodd" d="M17.7778 3.18H7.22222C5.8231 3.18 4.68889 4.30824 4.68889 5.7V18.3C4.68889 19.6918 5.8231 20.82 7.22222 20.82H17.7778C19.1769 20.82 20.3111 19.6918 20.3111 18.3V5.7C20.3111 4.30824 19.1769 3.18 17.7778 3.18ZM7.22222 1.5C4.89035 1.5 3 3.3804 3 5.7V18.3C3 20.6196 4.89035 22.5 7.22222 22.5H17.7778C20.1096 22.5 22 20.6196 22 18.3V5.7C22 3.3804 20.1096 1.5 17.7778 1.5H7.22222Z" fill="#3E4551"/>
<path d="M12.5 12C13.7625 12 14.7857 10.9928 14.7857 9.75C14.7857 8.50723 13.7625 7.5 12.5 7.5C11.2375 7.5 10.2143 8.50723 10.2143 9.75C10.2143 10.9928 11.2375 12 12.5 12ZM14.1 12.5625H13.8018C13.4054 12.7418 12.9643 12.8438 12.5 12.8438C12.0357 12.8438 11.5964 12.7418 11.1982 12.5625H10.9C9.575 12.5625 8.5 13.6207 8.5 14.925V15.6562C8.5 16.1221 8.88393 16.5 9.35714 16.5H15.6429C16.1161 16.5 16.5 16.1221 16.5 15.6562V14.925C16.5 13.6207 15.425 12.5625 14.1 12.5625Z" fill="#3E4551"/>
<rect x="2" y="15" width="3.7" height="2" rx="1" fill="#3E4551"/>
<rect x="2" y="11" width="3.7" height="2" rx="1" fill="#3E4551"/>
<rect x="2" y="7" width="3.7" height="2" rx="1" fill="#3E4551"/>
</svg>
