<svg width="32" height="32" viewBox="0 0 32 32" fill="none" xmlns="http://www.w3.org/2000/svg">
<rect width="32" height="32" rx="16" fill="#8AB854"/>
<path d="M16.0002 9.33331C12.3182 9.33331 9.3335 12.318 9.3335 16C9.3335 19.682 12.3182 22.6666 16.0002 22.6666C19.6822 22.6666 22.6668 19.682 22.6668 16C22.6668 12.318 19.6822 9.33331 16.0002 9.33331ZM18.2123 18.9462C18.1074 19.0505 17.9975 19.1599 17.9082 19.2494C17.8279 19.3301 17.7711 19.4295 17.7424 19.5373C17.7018 19.6895 17.669 19.8433 17.6141 19.9908L17.1467 21.2502C16.7768 21.3309 16.394 21.3763 16.0002 21.3763V20.6403C16.0456 20.3011 15.7948 19.6656 15.3918 19.2626C15.2305 19.1013 15.1399 18.8825 15.1399 18.6543V17.7938C15.1399 17.4809 14.9714 17.1933 14.6975 17.0419C14.3112 16.8282 13.7617 16.5295 13.3854 16.34C13.0768 16.1847 12.7913 15.9868 12.5346 15.7554L12.5131 15.736C12.3295 15.5703 12.1665 15.3831 12.0276 15.1785C11.7754 14.8083 11.3647 14.1994 11.0977 13.8037C11.648 12.5806 12.6397 11.5984 13.8719 11.0648L14.5174 11.3876C14.8034 11.5306 15.1399 11.3228 15.1399 11.0029V10.6992C15.3547 10.6645 15.5733 10.6425 15.7956 10.6341L16.5563 11.3949C16.7244 11.5629 16.7244 11.8352 16.5563 12.0032L16.4303 12.129L16.1523 12.407C16.0684 12.4908 16.0684 12.6271 16.1523 12.711L16.2784 12.8371C16.3623 12.9209 16.3623 13.0572 16.2784 13.1411L16.0633 13.3562C16.023 13.3965 15.9682 13.4191 15.9112 13.4191H15.6695C15.6136 13.4191 15.5598 13.4408 15.5195 13.4801L15.2529 13.7395C15.2202 13.7713 15.1984 13.8127 15.1908 13.8577C15.1832 13.9027 15.19 13.9489 15.2104 13.9898L15.6295 14.8282C15.701 14.9712 15.5969 15.1395 15.4373 15.1395H15.2856C15.2338 15.1395 15.1838 15.1207 15.1448 15.0868L14.8953 14.8701C14.8389 14.8212 14.7706 14.7877 14.6974 14.7731C14.6241 14.7585 14.5482 14.7632 14.4773 14.7868L13.6394 15.0661C13.5754 15.0874 13.5198 15.1284 13.4804 15.1831C13.441 15.2378 13.4198 15.3035 13.4198 15.3709C13.4198 15.4927 13.4886 15.6037 13.5975 15.6583L13.8953 15.8072C14.1483 15.9339 14.4273 15.9997 14.7101 15.9997C14.9929 15.9997 15.3174 16.7333 15.5703 16.8599H17.3647C17.5929 16.8599 17.8115 16.9505 17.973 17.1118L18.341 17.4798C18.4948 17.6336 18.5811 17.8422 18.5811 18.0597C18.581 18.2244 18.5484 18.3876 18.4851 18.5397C18.4218 18.6919 18.3291 18.83 18.2123 18.9462ZM20.5432 16.4906C20.3875 16.4516 20.2518 16.3562 20.1628 16.2226L19.6795 15.4976C19.6087 15.3916 19.571 15.2671 19.571 15.1398C19.571 15.0124 19.6087 14.8879 19.6795 14.782L20.2061 13.9922C20.2684 13.8989 20.3539 13.8231 20.4545 13.7731L20.8034 13.5986C21.1668 14.3223 21.3765 15.1363 21.3765 16C21.3765 16.233 21.3566 16.4613 21.3276 16.6865L20.5432 16.4906Z" fill="white"/>
</svg>
