<svg width="32" height="32" viewBox="0 0 32 32" fill="none" xmlns="http://www.w3.org/2000/svg">
<rect width="32" height="32" rx="16" fill="#C2CF42"/>
<path d="M17.9356 15.9355C17.9356 17.0054 17.0701 17.871 16.0002 17.871C14.9303 17.871 14.0647 17.0054 14.0647 15.9355C14.0647 14.8656 14.9303 14 16.0002 14C17.0701 14 17.9356 14.8656 17.9356 15.9355ZM20.7313 14C19.6615 14 18.7959 14.8656 18.7959 15.9355C18.7959 17.0054 19.6615 17.871 20.7313 17.871C21.8012 17.871 22.6668 17.0054 22.6668 15.9355C22.6668 14.8656 21.8012 14 20.7313 14ZM11.269 14C10.1991 14 9.3335 14.8656 9.3335 15.9355C9.3335 17.0054 10.1991 17.871 11.269 17.871C12.3389 17.871 13.2045 17.0054 13.2045 15.9355C13.2045 14.8656 12.3389 14 11.269 14Z" fill="white"/>
</svg>
