<svg width="24" height="24" viewBox="0 0 24 24" fill="none" xmlns="http://www.w3.org/2000/svg">
<path fill-rule="evenodd" clip-rule="evenodd" d="M2 12C2 6.52632 6.52632 2 12 2C17.4737 2 22 6.52632 22 12C22 17.4737 17.4737 22 12 22C6.52632 22 2 17.4737 2 12ZM11 8C11 7.44772 11.4477 7 12 7C12.5523 7 13 7.44772 13 8V12.25C13 12.8023 12.5523 13.25 12 13.25C11.4477 13.25 11 12.8023 11 12.25V8ZM13.25 15.75C13.25 16.4404 12.6904 17 12 17C11.3096 17 10.75 16.4404 10.75 15.75C10.75 15.0596 11.3096 14.5 12 14.5C12.6904 14.5 13.25 15.0596 13.25 15.75Z" fill="#464E5C"/>
</svg>
