<svg width="24" height="24" viewBox="0 0 24 24" fill="none" xmlns="http://www.w3.org/2000/svg">
<path fill-rule="evenodd" clip-rule="evenodd" d="M6.63231 9.43788C5.88966 9.44046 5.28496 10.0446 5.28168 10.7872L5.25239 17.4076C5.25081 17.7645 5.39115 18.1062 5.64248 18.3576C5.89382 18.6089 6.23555 18.7492 6.5924 18.7477L13.2128 18.7184C13.9555 18.7151 14.5596 18.1104 14.5622 17.3677C14.5648 16.6251 13.9648 16.0257 13.2222 16.029L7.94772 16.0523L7.97105 10.7779C7.97434 10.0352 7.37496 9.4353 6.63231 9.43788Z" fill="#3E4551"/>
<path d="M5.64004 16.4588C5.11283 16.986 5.10947 17.8374 5.63253 18.3604C6.15559 18.8835 7.007 18.8801 7.53421 18.3529L18.3529 7.53419C18.8801 7.00698 18.8835 6.15557 18.3605 5.63251C17.8374 5.10945 16.986 5.11282 16.4588 5.64002L5.64004 16.4588Z" fill="#3E4551"/>
</svg>
