<svg width="24" height="24" viewBox="0 0 24 24" fill="none" xmlns="http://www.w3.org/2000/svg">
<path d="M20.3333 5.22222H15.3333V8.55556H8.66667V5.22222H3.66667C2.74653 5.22222 2 5.96875 2 6.88889V19.1111C2 20.0312 2.74653 20.7778 3.66667 20.7778H20.3333C21.2535 20.7778 22 20.0312 22 19.1111V6.88889C22 5.96875 21.2535 5.22222 20.3333 5.22222ZM12 10.7778C13.2257 10.7778 14.2222 11.7743 14.2222 13C14.2222 14.2257 13.2257 15.2222 12 15.2222C10.7743 15.2222 9.77778 14.2257 9.77778 13C9.77778 11.7743 10.7743 10.7778 12 10.7778ZM15.2396 18.5556H8.76042C8.39931 18.5556 8.10764 18.2083 8.21875 17.8681C8.50695 16.9792 9.34375 16.3333 10.3333 16.3333H10.6181C11.0451 16.5104 11.5104 16.6111 12 16.6111C12.4896 16.6111 12.9583 16.5104 13.3819 16.3333H13.6667C14.6528 16.3333 15.4896 16.9757 15.7812 17.8681C15.8924 18.2083 15.6007 18.5556 15.2396 18.5556ZM14.2222 4.11111C14.2222 3.49653 13.7257 3 13.1111 3H10.8889C10.2743 3 9.77778 3.49653 9.77778 4.11111V7.44444H14.2222V4.11111Z" fill="#3E4551"/>
</svg>
