<svg width="24" height="24" viewBox="0 0 24 24" fill="none" xmlns="http://www.w3.org/2000/svg">
<path d="M12.2636 6.87544C15.5889 7.11009 17.9789 8.74489 19.4649 11.6468C20.1354 12.9562 20.3962 14.3634 20.3568 15.823C20.3181 17.2536 19.0841 18.5607 17.6633 18.7171C16.908 18.8033 16.1466 18.6151 15.5255 18.1887C14.9043 17.7623 14.4673 17.1278 14.2985 16.4073C14.218 16.0569 14.218 15.6853 14.2068 15.3232C14.1858 14.5574 13.9138 13.9152 13.2714 13.4459C12.3288 12.7607 11.0698 12.9359 10.3735 13.8558C9.75769 14.6685 9.6957 15.5703 9.97744 16.5105C10.326 17.6737 11.0328 18.6225 11.9263 19.4391C12.3385 19.798 12.7738 20.1312 13.2295 20.4364C13.4896 20.6225 13.7985 20.7331 14.1206 20.7555C14.4426 20.779 14.6841 21.088 14.6696 21.3977C14.6629 21.5589 14.592 21.7112 14.4718 21.8224C14.3516 21.9336 14.1916 21.9951 14.0257 21.9937C13.6071 21.9937 13.2295 21.8373 12.8657 21.6551C11.791 21.1114 10.9144 20.3355 10.1594 19.425C9.44616 18.5607 8.89234 17.6111 8.64763 16.516C8.35945 15.2254 8.56713 14.0192 9.44455 12.9907C10.9418 11.2409 13.6304 11.4263 14.9063 13.3419C15.3088 13.9496 15.4778 14.6192 15.4947 15.3372C15.5028 15.6587 15.5116 15.9951 15.6098 16.297C15.8666 17.0909 16.6185 17.5485 17.4709 17.4742C18.2292 17.4108 18.9078 16.7882 19.0302 16.0131C19.1404 15.3224 19.0527 14.6348 18.9046 13.9598C18.4321 11.8127 17.2794 10.1114 15.3048 9.00301C12.7063 7.54265 9.36325 7.98616 7.20512 10.0339C5.92521 11.2479 5.17659 12.7192 4.97937 14.4385C4.758 16.369 5.25789 18.1242 6.46052 19.6792C6.60863 19.8709 6.74226 20.0625 6.67142 20.3198C6.64647 20.4386 6.58528 20.5474 6.49584 20.6319C6.40639 20.7165 6.29283 20.7729 6.16992 20.7939C6.05157 20.821 5.92757 20.8132 5.81383 20.7714C5.70009 20.7295 5.6018 20.6557 5.53158 20.5592C4.72975 19.5868 4.16576 18.4501 3.88219 17.2349C3.28571 14.645 3.77754 12.2585 5.40681 10.1286C6.76158 8.35848 8.59048 7.31268 10.8388 6.96695C10.9837 6.94505 11.131 6.93097 11.2775 6.92237C11.5914 6.90516 11.9054 6.89499 12.2636 6.87544Z" fill="#3E4551"/>
<path d="M6.07816 15.4209C6.10231 12.7091 7.70501 10.4681 10.0555 9.6671C11.3063 9.23841 12.6701 9.23663 13.9221 9.66206C15.1741 10.0875 16.2396 10.9147 16.9429 12.0074C17.5699 12.9523 17.9074 14.051 17.9161 15.1753C17.9209 15.5946 17.6746 15.8793 17.293 15.8856C16.9115 15.8918 16.6354 15.6204 16.6297 15.2058C16.6232 14.5523 16.4797 13.9069 16.2079 13.309C15.8329 12.4607 15.1983 11.7451 14.3902 11.2594C13.5822 10.7737 12.6398 10.5414 11.6912 10.594C9.92915 10.6808 8.3031 11.9011 7.65832 13.6219C7.19546 14.8593 7.30493 16.0702 7.84266 17.2614C8.4496 18.6053 9.33347 19.7645 10.3381 20.8447C10.4478 20.9557 10.5304 21.0894 10.5796 21.2358C10.616 21.366 10.6056 21.5044 10.55 21.6281C10.4943 21.7517 10.3968 21.8531 10.2737 21.9155C10.1481 21.9875 10.0005 22.0143 9.85674 21.9911C9.71294 21.9679 9.58212 21.8963 9.48722 21.7888C9.10727 21.3774 8.72732 20.9644 8.37957 20.5287C7.53918 19.4758 6.82759 18.3503 6.39532 17.0753C6.19729 16.4753 6.0693 15.8598 6.07816 15.4209Z" fill="#3E4551"/>
<path d="M11.8338 4.42481C15.7516 4.55387 18.6945 6.10341 20.8494 9.07106C21.0909 9.39959 21.0314 9.77504 20.7231 9.98311C20.4148 10.1912 20.0252 10.1122 19.7853 9.77269C18.9718 8.60579 17.8989 7.63142 16.6459 6.92159C14.8409 5.89961 12.733 5.50166 10.6655 5.79255C8.59805 6.08344 6.69286 7.04604 5.26034 8.52353C4.87154 8.92401 4.53587 9.37534 4.1857 9.80789C3.98285 10.0574 3.70272 10.1575 3.42742 10.0613C3.29264 10.0184 3.17697 9.93201 3.09955 9.81653C3.02212 9.70104 2.98756 9.56334 3.00159 9.42618C3.01784 9.30446 3.06334 9.18817 3.13441 9.08671C4.82002 6.71743 7.10293 5.20857 10.0137 4.636C10.6682 4.50772 11.3411 4.47957 11.8338 4.42481Z" fill="#3E4551"/>
<path d="M12.3795 2C14.9248 2.03911 17.483 3.00278 19.6677 4.89961C19.8738 5.07873 19.9623 5.2954 19.881 5.56447C19.8497 5.68187 19.7825 5.78728 19.6882 5.86674C19.5939 5.94621 19.477 5.99601 19.353 6.00954C19.1244 6.04631 18.94 5.94697 18.7726 5.80148C17.8673 5.00692 16.8225 4.37689 15.6879 3.94141C14.2982 3.40237 12.8005 3.17717 11.3081 3.2828C8.97364 3.44863 6.95638 4.31452 5.2112 5.81165C4.79664 6.16755 4.22672 6.02362 4.10356 5.53084C4.03836 5.27115 4.14139 5.06152 4.34022 4.88865C5.17332 4.15313 6.11377 3.54135 7.13106 3.07317C8.67017 2.36607 10.2922 2.00391 12.3795 2Z" fill="#3E4551"/>
<path d="M11.2928 14.9571C11.3177 14.8601 11.3338 14.6661 11.4192 14.5073C11.5479 14.2727 11.8538 14.1765 12.1155 14.2492C12.4117 14.3329 12.5928 14.5621 12.5984 14.8922C12.6064 15.6221 12.7871 16.3404 13.1265 16.9916C13.5934 17.9091 14.2535 18.6624 15.1768 19.1747C15.555 19.3858 15.9792 19.507 16.4148 19.5283C16.8068 19.5478 17.0805 19.8278 17.0588 20.1783C17.0371 20.5287 16.7304 20.7954 16.3343 20.7751C15.3756 20.7258 14.5537 20.3386 13.8228 19.7629C12.4809 18.707 11.6566 17.3483 11.37 15.6892C11.3306 15.4788 11.3234 15.2645 11.2928 14.9571Z" fill="#3E4551"/>
</svg>
