<svg width="32" height="32" viewBox="0 0 32 32" fill="none" xmlns="http://www.w3.org/2000/svg">
<rect width="32" height="32" rx="16" fill="#CD69AB"/>
<path d="M9.3335 20.0741C9.3335 20.6875 9.83118 21.1852 10.4446 21.1852H21.5557C22.1691 21.1852 22.6668 20.6875 22.6668 20.0741V15.3333H9.3335V20.0741ZM13.7779 18.5C13.7779 18.3472 13.9029 18.2222 14.0557 18.2222H17.2039C17.3566 18.2222 17.4816 18.3472 17.4816 18.5V19.4259C17.4816 19.5787 17.3566 19.7037 17.2039 19.7037H14.0557C13.9029 19.7037 13.7779 19.5787 13.7779 19.4259V18.5ZM10.815 18.5C10.815 18.3472 10.94 18.2222 11.0928 18.2222H12.7594C12.9122 18.2222 13.0372 18.3472 13.0372 18.5V19.4259C13.0372 19.5787 12.9122 19.7037 12.7594 19.7037H11.0928C10.94 19.7037 10.815 19.5787 10.815 19.4259V18.5ZM22.6668 11.9259V13.7037H9.3335V11.9259C9.3335 11.3125 9.83118 10.8148 10.4446 10.8148H21.5557C22.1691 10.8148 22.6668 11.3125 22.6668 11.9259Z" fill="white"/>
</svg>
