<svg width="24" height="24" viewBox="0 0 24 24" fill="none" xmlns="http://www.w3.org/2000/svg">
<path fill-rule="evenodd" clip-rule="evenodd" d="M4.54838 4C3.69323 4 3 4.71169 3 5.58961V17.7104C3 18.5883 3.69323 19.3 4.54838 19.3H7.2442V11.944L6.00063 13.2584C5.72615 13.5485 5.28093 13.5487 5.00619 13.2589C4.73145 12.9691 4.73124 12.4989 5.00572 12.2088L7.39309 9.68555C7.52179 9.51173 7.72222 9.4 7.94737 9.4C8.1581 9.4 8.34718 9.49788 8.47606 9.65294L10.8943 12.2088C11.1688 12.4989 11.1685 12.9691 10.8938 13.2589C10.6191 13.5487 10.1738 13.5485 9.89937 13.2584L8.65054 11.9385V19.3H16.9354C18.6457 19.3 20.0322 17.8766 20.0322 16.1208V14.5203C19.9684 14.5262 19.9039 14.5292 19.8386 14.5292H16.3548C15.1789 14.5292 14.2257 13.5506 14.2257 12.3435V10.5552C14.2257 9.34802 15.1789 8.36945 16.3548 8.36945H19.8386C19.9039 8.36945 19.9684 8.37246 20.0322 8.37836V7.17922C20.0322 5.42339 18.6457 4 16.9354 4H4.54838ZM20.0322 9.38405V9.37944C19.9692 9.3686 19.9046 9.36295 19.8386 9.36295H16.3548C15.7134 9.36295 15.1935 9.89672 15.1935 10.5552V12.3435C15.1935 12.3532 15.1936 12.363 15.1938 12.3727C15.2066 13.0198 15.7215 13.5403 16.3549 13.5403H19.8387C20.4801 13.5403 21 13.0065 21 12.3481V10.5598C21 9.96902 20.5814 9.47861 20.0322 9.38405Z" fill="#3E4551"/>
</svg>
