<svg width="24" height="24" viewBox="0 0 24 24" fill="none" xmlns="http://www.w3.org/2000/svg">
<path fill-rule="evenodd" clip-rule="evenodd" d="M13.25 2V7.3125C13.25 7.82812 13.6719 8.25 14.1875 8.25H19.5V15.2857L16 16.4857V19.64C16 20.48 16.1867 21.2696 16.5498 22H5.4375C4.91797 22 4.5 21.582 4.5 21.0625V2.9375C4.5 2.41797 4.91797 2 5.4375 2H13.25ZM19.5 16.3429V21.0625C19.5 21.582 19.082 22 18.5625 22H17.699C17.233 21.2781 17 20.4914 17 19.64V17.2L19.5 16.3429ZM15.2812 17C15.5391 17 15.75 16.7891 15.75 16.5312V16.2188C15.75 15.9609 15.5391 15.75 15.2812 15.75H8.71875C8.46094 15.75 8.25 15.9609 8.25 16.2188V16.5312C8.25 16.7891 8.46094 17 8.71875 17H15.2812ZM15.2812 14.5C15.5391 14.5 15.75 14.2891 15.75 14.0312V13.7188C15.75 13.4609 15.5391 13.25 15.2812 13.25H8.71875C8.46094 13.25 8.25 13.4609 8.25 13.7188V14.0312C8.25 14.2891 8.46094 14.5 8.71875 14.5H15.2812ZM15.75 11.5312V11.2188C15.75 10.9609 15.5391 10.75 15.2812 10.75H8.71875C8.46094 10.75 8.25 10.9609 8.25 11.2188V11.5312C8.25 11.7891 8.46094 12 8.71875 12H15.2812C15.5391 12 15.75 11.7891 15.75 11.5312ZM19.5 7V6.76172C19.5 6.51562 19.4023 6.27734 19.2266 6.10156L15.4023 2.27344C15.2266 2.09766 14.9883 2 14.7383 2H14.5V7H19.5Z" fill="#3E4551"/>
<path d="M20.5 24C19.4865 23.7667 18.6498 23.2349 17.9901 22.4048C17.33 21.5749 17 20.6533 17 19.64V17.2L20.5 16L24 17.2V19.64C24 20.6533 23.6701 21.5749 23.0104 22.4048C22.3503 23.2349 21.5135 23.7667 20.5 24Z" fill="#3E4551"/>
</svg>
