<svg width="24" height="24" viewBox="0 0 24 24" fill="none" xmlns="http://www.w3.org/2000/svg">
<path fill-rule="evenodd" clip-rule="evenodd" d="M19.9999 20.3333V3.66667C19.9999 2.74653 19.2321 2 18.2857 2H5.71423C4.7678 2 3.99995 2.74653 3.99995 3.66667L3.99995 6.00005H2.6C2.26863 6.00005 2 6.26868 2 6.60005V7.40005C2 7.73143 2.26863 8.00005 2.6 8.00005H3.99995L3.99995 11.0001H2.6C2.26863 11.0001 2 11.2687 2 11.6001V12.4001C2 12.7314 2.26863 13.0001 2.6 13.0001H3.99995L3.99995 16.0001H2.6C2.26863 16.0001 2 16.2687 2 16.6001V17.4001C2 17.7314 2.26863 18.0001 2.6 18.0001H3.99995L3.99995 20.3333C3.99995 21.2535 4.7678 22 5.71423 22H18.2857C19.2321 22 19.9999 21.2535 19.9999 20.3333ZM14.2857 9.25C14.2857 10.4928 13.2625 11.5 12 11.5C10.7375 11.5 9.71429 10.4928 9.71429 9.25C9.71429 8.00723 10.7375 7 12 7C13.2625 7 14.2857 8.00723 14.2857 9.25ZM13.3018 12.0625H13.6C14.925 12.0625 16 13.1207 16 14.425V15.1562C16 15.6221 15.6161 16 15.1429 16H8.85714C8.38393 16 8 15.6221 8 15.1562V14.425C8 13.1207 9.075 12.0625 10.4 12.0625H10.6982C11.0964 12.2418 11.5357 12.3438 12 12.3438C12.4643 12.3438 12.9054 12.2418 13.3018 12.0625Z" fill="#3E4551"/>
</svg>
