<svg width="24" height="24" viewBox="0 0 24 24" fill="none" xmlns="http://www.w3.org/2000/svg">
<path d="M11.9816 2.00002C9.30951 2.00481 6.88334 3.0578 5.09213 4.76957L3.65206 3.32949C3.04238 2.71981 2 3.15159 2 4.01376V9.41936C2 9.95384 2.43327 10.3871 2.96774 10.3871H8.37334C9.23552 10.3871 9.66729 9.34473 9.05766 8.73505L7.37419 7.05159C8.6187 5.8863 10.2291 5.24082 11.9399 5.22606C15.6656 5.19388 18.8062 8.209 18.7739 12.0584C18.7434 15.71 15.7829 18.7742 12 18.7742C10.3416 18.7742 8.77431 18.1823 7.53911 17.0986C7.34786 16.9308 7.05903 16.941 6.87911 17.1209L5.27984 18.7201C5.08338 18.9166 5.0931 19.2369 5.29927 19.4231C7.0725 21.0247 9.42233 22 12 22C17.5228 22 21.9999 17.5229 22 12.0001C22 6.4836 17.4981 1.99014 11.9816 2.00002Z" fill="#3E4551"/>
</svg>
