<svg width="24" height="24" viewBox="0 0 24 24" fill="none" xmlns="http://www.w3.org/2000/svg">
<path d="M14.8432 12.0001L19.1075 7.73578C19.6308 7.21248 19.6308 6.36404 19.1075 5.84032L18.1598 4.89259C17.6365 4.3693 16.7881 4.3693 16.2643 4.89259L12 9.15694L7.73565 4.89259C7.21236 4.3693 6.36392 4.3693 5.8402 4.89259L4.89247 5.84032C4.36918 6.36362 4.36918 7.21205 4.89247 7.73578L9.15682 12.0001L4.89247 16.2645C4.36918 16.7878 4.36918 17.6362 4.89247 18.1599L5.8402 19.1077C6.36349 19.6309 7.21236 19.6309 7.73565 19.1077L12 14.8433L16.2643 19.1077C16.7876 19.6309 17.6365 19.6309 18.1598 19.1077L19.1075 18.1599C19.6308 17.6366 19.6308 16.7882 19.1075 16.2645L14.8432 12.0001Z" fill="#3E4551"/>
</svg>
