<svg width="24" height="24" viewBox="0 0 24 24" fill="none" xmlns="http://www.w3.org/2000/svg">
<path fill-rule="evenodd" clip-rule="evenodd" d="M3.05546 3.05546C3.57118 2.53973 4.27065 2.25 5 2.25H7C7.41421 2.25 7.75 2.58579 7.75 3C7.75 3.41421 7.41421 3.75 7 3.75H5C4.66848 3.75 4.35054 3.8817 4.11612 4.11612C3.8817 4.35054 3.75 4.66848 3.75 5V7C3.75 7.41421 3.41421 7.75 3 7.75C2.58579 7.75 2.25 7.41421 2.25 7V5C2.25 4.27065 2.53973 3.57118 3.05546 3.05546ZM16.25 3C16.25 2.58579 16.5858 2.25 17 2.25H19C19.7293 2.25 20.4288 2.53973 20.9445 3.05546C21.4603 3.57118 21.75 4.27065 21.75 5V7C21.75 7.41421 21.4142 7.75 21 7.75C20.5858 7.75 20.25 7.41421 20.25 7V5C20.25 4.66848 20.1183 4.35054 19.8839 4.11612C19.6495 3.8817 19.3315 3.75 19 3.75H17C16.5858 3.75 16.25 3.41421 16.25 3ZM12.1471 7.26456C12.5533 7.3458 12.8167 7.74092 12.7354 8.14709L11.9149 12.25H12C12.4142 12.25 12.75 12.5858 12.75 13C12.75 13.4142 12.4142 13.75 12 13.75H11C10.7753 13.75 10.5624 13.6493 10.42 13.4755C10.2775 13.3017 10.2205 13.0732 10.2646 12.8529L11.2646 7.85291C11.3458 7.44674 11.7409 7.18333 12.1471 7.26456ZM8 7.25C8.41421 7.25 8.75 7.58579 8.75 8V10C8.75 10.4142 8.41421 10.75 8 10.75C7.58579 10.75 7.25 10.4142 7.25 10V8C7.25 7.58579 7.58579 7.25 8 7.25ZM16 7.25C16.4142 7.25 16.75 7.58579 16.75 8V10C16.75 10.4142 16.4142 10.75 16 10.75C15.5858 10.75 15.25 10.4142 15.25 10V8C15.25 7.58579 15.5858 7.25 16 7.25ZM9.52982 15.4692C9.52982 15.4692 9.52982 15.4692 9.52982 15.4692L9.52911 15.4685L9.52687 15.4662L9.52478 15.4642C9.52384 15.4633 9.5239 15.4634 9.52478 15.4642C9.52481 15.4642 9.52474 15.4642 9.52478 15.4642C9.52664 15.4659 9.53197 15.4709 9.54075 15.4785C9.55871 15.4942 9.59097 15.5214 9.6375 15.5562C9.73065 15.6261 9.88004 15.7265 10.0854 15.8292C10.4937 16.0333 11.1296 16.25 12 16.25C12.8704 16.25 13.5063 16.0333 13.9146 15.8292C14.12 15.7265 14.2693 15.6261 14.3625 15.5562C14.409 15.5214 14.4413 15.4942 14.4592 15.4785C14.4682 15.4707 14.4736 15.4657 14.4753 15.4641C14.4762 15.4633 14.4763 15.4632 14.4753 15.4641L14.4731 15.4662L14.4716 15.4678L14.4707 15.4687C14.7636 15.1763 15.2376 15.1769 15.5303 15.4697C15.8232 15.7626 15.8232 16.2374 15.5303 16.5303L15 16C15.5303 16.5303 15.5306 16.5301 15.5303 16.5303L15.5281 16.5326L15.5254 16.5352L15.5189 16.5415L15.5012 16.5584C15.4874 16.5714 15.4693 16.5879 15.447 16.6074C15.4025 16.6464 15.341 16.6974 15.2625 16.7563C15.1057 16.8739 14.88 17.0235 14.5854 17.1708C13.9937 17.4667 13.1296 17.75 12 17.75C10.8704 17.75 10.0063 17.4667 9.41459 17.1708C9.11996 17.0235 8.89435 16.8739 8.7375 16.7563C8.65903 16.6974 8.59754 16.6464 8.553 16.6074C8.53071 16.5879 8.51264 16.5714 8.49876 16.5584L8.48108 16.5415L8.47459 16.5352L8.47194 16.5326L8.47075 16.5314C8.47049 16.5311 8.46967 16.5303 9 16L8.46967 16.5303C8.17678 16.2374 8.17678 15.7626 8.46967 15.4697C8.76072 15.1786 9.23146 15.1768 9.52478 15.4642M9.52911 15.4685L9.52982 15.4692C9.52982 15.4692 9.52982 15.4692 9.52982 15.4692M3 16.25C3.41421 16.25 3.75 16.5858 3.75 17V19C3.75 19.3315 3.8817 19.6495 4.11612 19.8839C4.35054 20.1183 4.66848 20.25 5 20.25H7C7.41421 20.25 7.75 20.5858 7.75 21C7.75 21.4142 7.41421 21.75 7 21.75H5C4.27065 21.75 3.57118 21.4603 3.05546 20.9445C2.53973 20.4288 2.25 19.7293 2.25 19V17C2.25 16.5858 2.58579 16.25 3 16.25ZM21 16.25C21.4142 16.25 21.75 16.5858 21.75 17V19C21.75 19.7293 21.4603 20.4288 20.9445 20.9445C20.4288 21.4603 19.7293 21.75 19 21.75H17C16.5858 21.75 16.25 21.4142 16.25 21C16.25 20.5858 16.5858 20.25 17 20.25H19C19.3315 20.25 19.6495 20.1183 19.8839 19.8839C20.1183 19.6495 20.25 19.3315 20.25 19V17C20.25 16.5858 20.5858 16.25 21 16.25Z" fill="#3E4551"/>
</svg>
