<svg width="24" height="24" viewBox="0 0 24 24" fill="none" xmlns="http://www.w3.org/2000/svg">
<path d="M5.75 20.75H18.25V7H17V5.125C17 4.08945 16.1605 3.25 15.125 3.25H8.875C7.83945 3.25 7 4.08945 7 5.125V7H5.75V20.75ZM9.5 5.75H14.5V7H9.5V5.75ZM22 8.875V18.875C22 19.9105 21.1605 20.75 20.125 20.75H19.5V7H20.125C21.1605 7 22 7.83945 22 8.875ZM4.5 20.75H3.875C2.83945 20.75 2 19.9105 2 18.875V8.875C2 7.83945 2.83945 7 3.875 7H4.5V20.75ZM15.75 12.625V13.875C15.75 14.2202 15.4702 14.5 15.125 14.5H13.25V16.375C13.25 16.7202 12.9702 17 12.625 17H11.375C11.0298 17 10.75 16.7202 10.75 16.375V14.5H8.875C8.5298 14.5 8.25 14.2202 8.25 13.875V12.625C8.25 12.2798 8.5298 12 8.875 12H10.75V10.125C10.75 9.7798 11.0298 9.5 11.375 9.5H12.625C12.9702 9.5 13.25 9.7798 13.25 10.125V12H15.125C15.4702 12 15.75 12.2798 15.75 12.625Z" fill="#3E4551"/>
</svg>
