<svg width="32" height="32" viewBox="0 0 32 32" fill="none" xmlns="http://www.w3.org/2000/svg">
<rect width="32" height="32" rx="16" fill="#A1B6C9"/>
<path d="M9.3335 19.888V21C9.3335 21.9193 11.5731 22.6666 14.3335 22.6666C17.0939 22.6666 19.3335 21.9193 19.3335 21V19.888C18.258 20.6458 16.2918 21 14.3335 21C12.3752 21 10.409 20.6458 9.3335 19.888ZM17.6668 12.6666C20.4272 12.6666 22.6668 11.9193 22.6668 11C22.6668 10.0807 20.4272 9.33331 17.6668 9.33331C14.9064 9.33331 12.6668 10.0807 12.6668 11C12.6668 11.9193 14.9064 12.6666 17.6668 12.6666ZM9.3335 17.1562V18.5C9.3335 19.4193 11.5731 20.1666 14.3335 20.1666C17.0939 20.1666 19.3335 19.4193 19.3335 18.5V17.1562C18.258 18.0416 16.2892 18.5 14.3335 18.5C12.3778 18.5 10.409 18.0416 9.3335 17.1562ZM20.1668 17.4427C21.659 17.1536 22.6668 16.6172 22.6668 16V14.888C22.0627 15.3151 21.1746 15.6068 20.1668 15.7864V17.4427ZM14.3335 13.5C11.5731 13.5 9.3335 14.4323 9.3335 15.5833C9.3335 16.7344 11.5731 17.6666 14.3335 17.6666C17.0939 17.6666 19.3335 16.7344 19.3335 15.5833C19.3335 14.4323 17.0939 13.5 14.3335 13.5ZM20.0444 14.9661C21.6069 14.6849 22.6668 14.1328 22.6668 13.5V12.388C21.7424 13.0416 20.1538 13.3932 18.4819 13.4765C19.2502 13.8489 19.8153 14.3489 20.0444 14.9661Z" fill="white"/>
</svg>
