<svg width="24" height="24" viewBox="0 0 24 24" fill="none" xmlns="http://www.w3.org/2000/svg">
<path d="M13.25 7.3125V2H5.4375C4.91797 2 4.5 2.41797 4.5 2.9375V21.0625C4.5 21.582 4.91797 22 5.4375 22H18.5625C19.082 22 19.5 21.582 19.5 21.0625V8.25H14.1875C13.6719 8.25 13.25 7.82812 13.25 7.3125ZM15.75 16.5312C15.75 16.7891 15.5391 17 15.2812 17H8.71875C8.46094 17 8.25 16.7891 8.25 16.5312V16.2188C8.25 15.9609 8.46094 15.75 8.71875 15.75H15.2812C15.5391 15.75 15.75 15.9609 15.75 16.2188V16.5312ZM15.75 14.0312C15.75 14.2891 15.5391 14.5 15.2812 14.5H8.71875C8.46094 14.5 8.25 14.2891 8.25 14.0312V13.7188C8.25 13.4609 8.46094 13.25 8.71875 13.25H15.2812C15.5391 13.25 15.75 13.4609 15.75 13.7188V14.0312ZM15.75 11.2188V11.5312C15.75 11.7891 15.5391 12 15.2812 12H8.71875C8.46094 12 8.25 11.7891 8.25 11.5312V11.2188C8.25 10.9609 8.46094 10.75 8.71875 10.75H15.2812C15.5391 10.75 15.75 10.9609 15.75 11.2188ZM19.5 6.76172V7H14.5V2H14.7383C14.9883 2 15.2266 2.09766 15.4023 2.27344L19.2266 6.10156C19.4023 6.27734 19.5 6.51562 19.5 6.76172Z" fill="#3E4551"/>
</svg>
