<svg width="24" height="24" viewBox="0 0 24 24" fill="none" xmlns="http://www.w3.org/2000/svg">
<path d="M21.5945 5.59805L12.4391 2.07969C12.1561 1.97344 11.8443 1.97344 11.5613 2.07969L2.40547 5.59805C2.28637 5.64273 2.18374 5.7227 2.11129 5.82726C2.03883 5.93182 2.00001 6.05599 2 6.1832V7.625C2 7.97031 2.27969 8.25 2.625 8.25H21.375C21.7203 8.25 22 7.97031 22 7.625V6.1832C22 5.92265 21.8383 5.68945 21.5945 5.59805ZM4.5 9.5V15.75H3.875C3.52969 15.75 3.25 16.0297 3.25 16.375V18.25H20.75V16.375C20.75 16.0297 20.4703 15.75 20.125 15.75H19.5V9.5H17V15.75H13.25V9.5H10.75V15.75H7V9.5H4.5ZM21.375 19.5H2.625C2.27969 19.5 2 19.7797 2 20.125V21.375C2 21.7203 2.27969 22 2.625 22H21.375C21.7203 22 22 21.7203 22 21.375V20.125C22 19.7797 21.7203 19.5 21.375 19.5Z" fill="#3E4551"/>
</svg>
