<svg width="24" height="24" viewBox="0 0 24 24" fill="none" xmlns="http://www.w3.org/2000/svg">
<path d="M20.9399 18.6747L18.3723 8.40432C18.2387 7.87029 17.7944 7.50009 17.287 7.50009H15.1688C15.2944 7.14676 15.3756 6.77164 15.3756 6.37507C15.3756 4.51105 13.8645 3 12.0005 3C10.1365 3 8.62543 4.51105 8.62543 6.37507C8.62543 6.77164 8.70629 7.14676 8.83215 7.50009H6.71395C6.20663 7.50009 5.7619 7.87064 5.62865 8.40432L3.06044 18.6747C2.76758 19.8458 3.57584 21 4.68856 21H19.3121C20.4245 21 21.2327 19.8458 20.9399 18.6747ZM12.0001 7.49974C11.38 7.49974 10.8751 6.99488 10.8751 6.37471C10.8751 5.75455 11.38 5.24969 12.0001 5.24969C12.6203 5.24969 13.1252 5.75455 13.1252 6.37471C13.1252 6.99488 12.6203 7.49974 12.0001 7.49974Z" fill="#3E4551"/>
</svg>
