<svg width="16" height="16" viewBox="0 0 16 16" fill="none" xmlns="http://www.w3.org/2000/svg">
<path fill-rule="evenodd" clip-rule="evenodd" d="M8 14C11.3137 14 14 11.3137 14 8C14 4.68629 11.3137 2 8 2C4.68629 2 2 4.68629 2 8C2 11.3137 4.68629 14 8 14ZM10.8353 6.00942C10.9524 5.89226 10.9524 5.70231 10.8353 5.58515L10.4151 5.16499C10.298 5.04783 10.108 5.04783 9.99086 5.16499L8.00014 7.15571L6.00941 5.16499C5.89225 5.04783 5.70231 5.04783 5.58515 5.16499L5.16498 5.58515C5.04783 5.70231 5.04783 5.89226 5.16498 6.00942L7.15571 8.00014L5.16498 9.99087C5.04783 10.108 5.04783 10.298 5.16498 10.4151L5.58515 10.8353C5.70231 10.9525 5.89226 10.9525 6.00941 10.8353L8.00014 8.84457L9.99086 10.8353C10.108 10.9525 10.298 10.9525 10.4151 10.8353L10.8353 10.4151C10.9524 10.298 10.9524 10.108 10.8353 9.99087L8.84457 8.00014L10.8353 6.00942Z" fill="#3E4551"/>
</svg>
