<svg width="24" height="24" viewBox="0 0 24 24" fill="none" xmlns="http://www.w3.org/2000/svg">
<path d="M15.1936 13.5598C15.1936 12.9014 15.7135 12.3676 16.3549 12.3676H19.8387C20.4801 12.3676 21 12.9014 21 13.5598V15.3481C21 16.0065 20.4801 16.5403 19.8387 16.5403H16.3549C15.7135 16.5403 15.1936 16.0065 15.1936 15.3481V13.5598Z" fill="#3E4551"/>
<path d="M4.54838 7C3.69323 7 3 7.71169 3 8.58961V20.7104C3 21.5883 3.69323 22.3 4.54838 22.3H16.9354C18.6457 22.3 20.0322 20.8766 20.0322 19.1208V17.5203C19.9684 17.5262 19.9039 17.5292 19.8386 17.5292H16.3548C15.1789 17.5292 14.2257 16.5506 14.2257 15.3435V13.5552C14.2257 12.348 15.1789 11.3694 16.3548 11.3694H19.8386C19.9039 11.3694 19.9684 11.3725 20.0322 11.3784V10.1792C20.0322 8.42339 18.6457 7 16.9354 7H4.54838Z" fill="#3E4551"/>
<path d="M20.0322 12.3794C19.9692 12.3686 19.9046 12.363 19.8386 12.363H16.3548C15.7134 12.363 15.1935 12.8967 15.1935 13.5552V15.3435C15.1935 16.0019 15.7134 16.5357 16.3548 16.5357H19.8386C19.9046 16.5357 19.9692 16.53 20.0322 16.5192V12.3794Z" fill="#3E4551"/>
<path fill-rule="evenodd" clip-rule="evenodd" d="M6.28716 6.00013L13.9483 0.383948C14.2374 0.172 14.6389 0.227897 14.8448 0.508769L18.5736 5.59531C18.752 5.83876 18.7251 6.17145 18.5265 6.3938C18.178 6.23485 17.8039 6.11993 17.4109 6.05665L17.6018 5.91673L16.856 4.89943C16.4899 5.16782 16.3014 5.58647 16.3169 6.00013H12.8311C12.8153 5.97683 12.799 5.95371 12.7822 5.93079C12.1644 5.08801 11.0775 4.83448 10.3546 5.36441C10.1304 5.52874 9.96757 5.74913 9.86799 6.00013H6.28716ZM17.1423 7.42652L8.99818 13.3968C8.70905 13.6087 8.3076 13.5529 8.1017 13.272L4.37289 8.18544C4.22439 7.98287 4.2181 7.7185 4.33459 7.50734C4.50957 7.43405 4.70165 7.39357 4.90317 7.39357H5.98646L5.34472 7.86401L6.09048 8.88132C6.57269 8.52783 6.74667 7.91367 6.55253 7.39357H9.90674C9.97184 7.55083 10.0576 7.70442 10.1643 7.84996C10.782 8.69258 11.8688 8.94639 12.5919 8.41634C12.9256 8.17172 13.1234 7.80281 13.1789 7.39357H16.7003C16.8506 7.39357 16.9982 7.40482 17.1423 7.42652ZM7.95489 11.4246L8.70065 12.4419L9.74784 11.6742C9.33592 11.1123 8.5333 11.0006 7.95489 11.4246ZM13.1986 2.10651C13.6106 2.66842 14.4132 2.78017 14.9916 2.35615L14.2458 1.33885L13.1986 2.10651Z" fill="#3E4551"/>
</svg>
