<svg width="24" height="24" viewBox="0 0 24 24" fill="none" xmlns="http://www.w3.org/2000/svg">
<path fill-rule="evenodd" clip-rule="evenodd" d="M5.39531 21.5994H11.9811C14.1691 21.6012 16.357 21.6006 18.5448 21.5976C18.7692 21.6032 18.9937 21.5872 19.215 21.5498C20.6477 21.2646 21.5895 20.1456 21.5945 18.6764C21.6029 16.0885 21.6015 13.5004 21.6001 10.9122C21.5995 9.92625 21.599 8.94032 21.599 7.95438C21.6044 7.46372 21.4356 6.9871 21.1229 6.60962C20.3023 5.58753 19.4834 4.56408 18.6662 3.53929C18.0608 2.78128 17.2748 2.40228 16.3083 2.40228C13.4313 2.39927 10.5542 2.39927 7.67717 2.40228C6.72145 2.40228 5.93925 2.77903 5.33956 3.52892C5.20464 3.698 5.0698 3.86706 4.93499 4.03609C4.25233 4.89201 3.57042 5.747 2.88193 6.5979C2.56422 6.98152 2.3935 7.4662 2.40047 7.96475V18.6643C2.40092 19.1109 2.47375 19.5449 2.67919 19.9455C3.24606 21.0501 4.15907 21.5994 5.39531 21.5994ZM18.5219 7.18691C16.3443 7.19322 14.1631 7.19322 11.9838 7.19322L5.62682 7.19503C5.60778 7.19503 5.58844 7.19638 5.56918 7.19773C5.5266 7.20071 5.48446 7.20366 5.447 7.19187C5.42889 7.18612 5.40916 7.18046 5.38883 7.17463C5.29764 7.14848 5.19455 7.11892 5.17323 7.06253C5.14042 6.97555 5.18043 6.82729 5.24246 6.74707C5.39968 6.54348 5.56391 6.34469 5.72809 6.14594C6.00802 5.8071 6.28783 5.46839 6.53264 5.10623C6.94397 4.49784 7.46184 4.30766 8.1838 4.31757C10.6135 4.35094 13.044 4.34025 15.4743 4.32956C15.7027 4.32856 15.9311 4.32755 16.1595 4.32659C16.6257 4.32478 16.9709 4.4753 17.2551 4.85205C17.5454 5.2367 17.848 5.61171 18.1507 5.98692C18.3509 6.23507 18.5511 6.4833 18.748 6.73445C18.8118 6.81602 18.8698 6.97871 18.8307 7.04451C18.7817 7.12607 18.6293 7.18691 18.5219 7.18691ZM11.1399 16.9667L9.62365 15.5645C9.28899 15.255 8.74614 15.2547 8.41116 15.5639C8.07618 15.8731 8.07593 16.3747 8.41059 16.6842L11.3214 19.3762C11.4784 19.5616 11.7227 19.6808 11.9973 19.6808C12.2542 19.6808 12.4847 19.5764 12.6419 19.411L15.5904 16.6842C15.925 16.3747 15.9248 15.8731 15.5898 15.5639C15.2548 15.2547 14.712 15.255 14.3773 15.5645L12.8546 16.9727V10.8712C12.8546 10.4337 12.4708 10.0791 11.9973 10.0791C11.5238 10.0791 11.1399 10.4337 11.1399 10.8712V16.9667Z" fill="#3E4551"/>
</svg>
