<svg width="16" height="16" viewBox="0 0 16 16" fill="none" xmlns="http://www.w3.org/2000/svg">
<path fill-rule="evenodd" clip-rule="evenodd" d="M14 8C14 11.3137 11.3137 14 8 14C4.68629 14 2 11.3137 2 8C2 4.68629 4.68629 2 8 2C11.3137 2 14 4.68629 14 8ZM8.69999 11.3049C8.69999 11.6915 8.38659 12.0049 7.99999 12.0049C7.61339 12.0049 7.29999 11.6915 7.29999 11.3049C7.29999 10.9183 7.61339 10.6049 7.99999 10.6049C8.38659 10.6049 8.69999 10.9183 8.69999 11.3049ZM7.29999 9.25C7.29999 9.38807 7.41192 9.5 7.54999 9.5L8.44999 9.5C8.58806 9.5 8.69999 9.38807 8.69999 9.25L8.69999 4.25C8.69999 4.11193 8.58806 4 8.44999 4L7.54999 4C7.41192 4 7.29999 4.11193 7.29999 4.25L7.29999 9.25Z" fill="#3E4551"/>
</svg>
