<svg width="24" height="24" viewBox="0 0 24 24" fill="none" xmlns="http://www.w3.org/2000/svg">
<path d="M2 15H22V20C22 21.1046 21.1046 22 20 22H4C2.89543 22 2 21.1046 2 20V15Z" fill="#3E4551"/>
<path fill-rule="evenodd" clip-rule="evenodd" d="M6.87494 8H5.35407C4.53626 8 3.80084 8.4979 3.49711 9.25722L2 13H22L20.5029 9.25722C20.1992 8.4979 19.4637 8 18.6459 8H17.1251C16.911 8.54823 16.6114 9.05369 16.2428 9.5H17.5C18.0523 9.5 18.5 9.94771 18.5 10.5C18.5 11.0523 18.0523 11.5 17.5 11.5H6.5C5.94772 11.5 5.5 11.0523 5.5 10.5C5.5 9.94771 5.94772 9.5 6.5 9.5H7.75716C7.38857 9.05369 7.08904 8.54823 6.87494 8ZM9.12734 8H14.8727C14.2402 8.90674 13.1894 9.5 12 9.5C10.8106 9.5 9.75982 8.90674 9.12734 8Z" fill="#3E4551"/>
<path d="M16 6C16 8.20914 14.2091 10 12 10C9.79086 10 8 8.20914 8 6C8 3.79086 9.79086 2 12 2C14.2091 2 16 3.79086 16 6Z" fill="#3E4551"/>
</svg>
