<svg width="24" height="24" viewBox="0 0 24 24" fill="none" xmlns="http://www.w3.org/2000/svg">
<path d="M8.87751 19.7477C8.8779 19.9934 8.95055 20.234 9.08688 20.4387L9.75444 21.4422C9.86848 21.6137 10.0232 21.7544 10.2047 21.8518C10.3863 21.9491 10.5891 22 10.795 22H13.2055C13.4115 22 13.6143 21.9491 13.7959 21.8518C13.9774 21.7544 14.1321 21.6137 14.2461 21.4422L14.9137 20.4387C15.05 20.234 15.1228 19.9936 15.1231 19.7477L15.1246 18.2497H8.87556L8.87751 19.7477ZM5.12524 8.87489C5.12524 10.6081 5.76781 12.1893 6.82677 13.3974C7.47207 14.1338 8.48142 15.672 8.86618 16.9696C8.86774 16.9798 8.86891 16.99 8.87048 17.0001H15.1297C15.1313 16.99 15.1325 16.9802 15.134 16.9696C15.5188 15.672 16.5281 14.1338 17.1734 13.3974C18.2324 12.1893 18.875 10.6081 18.875 8.87489C18.875 5.07067 15.7856 1.98831 11.9786 2.00003C7.99393 2.01214 5.12524 5.24098 5.12524 8.87489ZM12.0001 5.74995C10.2771 5.74995 8.87516 7.15188 8.87516 8.87489C8.87516 9.22019 8.59548 9.49987 8.25018 9.49987C7.90487 9.49987 7.62519 9.22019 7.62519 8.87489C7.62519 6.46244 9.58765 4.49998 12.0001 4.49998C12.3454 4.49998 12.6251 4.77966 12.6251 5.12497C12.6251 5.47027 12.3454 5.74995 12.0001 5.74995Z" fill="#3E4551"/>
</svg>
