<svg width="24" height="24" viewBox="0 0 24 24" fill="none" xmlns="http://www.w3.org/2000/svg">
<path d="M11.2292 21.5965C5.55352 13.3684 4.5 12.5239 4.5 9.5C4.5 5.35785 7.85785 2 12 2C16.1421 2 19.5 5.35785 19.5 9.5C19.5 12.5239 18.4465 13.3684 12.7708 21.5965C12.3983 22.1345 11.6016 22.1345 11.2292 21.5965ZM12 12.625C13.7259 12.625 15.125 11.2259 15.125 9.5C15.125 7.7741 13.7259 6.375 12 6.375C10.2741 6.375 8.875 7.7741 8.875 9.5C8.875 11.2259 10.2741 12.625 12 12.625Z" fill="#3E4551"/>
</svg>
