<svg width="16" height="16" viewBox="0 0 16 16" fill="none" xmlns="http://www.w3.org/2000/svg">
<path fill-rule="evenodd" clip-rule="evenodd" d="M8 14C11.3137 14 14 11.3137 14 8C14 4.68629 11.3137 2 8 2C4.68629 2 2 4.68629 2 8C2 11.3137 4.68629 14 8 14ZM7.25 4.00186C7.11193 4.00186 7 4.11379 7 4.25186V9.14175C7 9.27982 7.11193 9.39175 7.25 9.39175H11.2497C11.3878 9.39175 11.4997 9.27982 11.4997 9.14175V8.24175C11.4997 8.10368 11.3878 7.99175 11.2497 7.99175H8.4V4.25186C8.4 4.11379 8.28807 4.00186 8.15 4.00186H7.25Z" fill="#3E4551"/>
</svg>
