<svg width="24" height="24" viewBox="0 0 24 24" fill="none" xmlns="http://www.w3.org/2000/svg">
<path d="M2 18.1111C2 19.0312 2.74653 19.7778 3.66667 19.7778H20.3333C21.2535 19.7778 22 19.0312 22 18.1111V11H2V18.1111ZM8.66667 15.75C8.66667 15.5208 8.85417 15.3333 9.08333 15.3333H13.8056C14.0347 15.3333 14.2222 15.5208 14.2222 15.75V17.1389C14.2222 17.3681 14.0347 17.5556 13.8056 17.5556H9.08333C8.85417 17.5556 8.66667 17.3681 8.66667 17.1389V15.75ZM4.22222 15.75C4.22222 15.5208 4.40972 15.3333 4.63889 15.3333H7.13889C7.36806 15.3333 7.55556 15.5208 7.55556 15.75V17.1389C7.55556 17.3681 7.36806 17.5556 7.13889 17.5556H4.63889C4.40972 17.5556 4.22222 17.3681 4.22222 17.1389V15.75ZM22 5.88889V8.55555H2V5.88889C2 4.96875 2.74653 4.22222 3.66667 4.22222H20.3333C21.2535 4.22222 22 4.96875 22 5.88889Z" fill="#3E4551"/>
</svg>
