<svg width="24" height="24" viewBox="0 0 24 24" fill="none" xmlns="http://www.w3.org/2000/svg">
<path d="M19.3125 20H4.6875C3.75551 20 3 19.2325 3 18.2857V5.71429C3 4.7675 3.75551 4 4.6875 4H19.3125C20.2445 4 21 4.7675 21 5.71429V18.2857C21 19.2325 20.2445 20 19.3125 20ZM7.5 7.14286C6.72336 7.14286 6.09375 7.78246 6.09375 8.57143C6.09375 9.36039 6.72336 10 7.5 10C8.27664 10 8.90625 9.36039 8.90625 8.57143C8.90625 7.78246 8.27664 7.14286 7.5 7.14286ZM7.5 10.5714C6.72336 10.5714 6.09375 11.211 6.09375 12C6.09375 12.789 6.72336 13.4286 7.5 13.4286C8.27664 13.4286 8.90625 12.789 8.90625 12C8.90625 11.211 8.27664 10.5714 7.5 10.5714ZM7.5 14C6.72336 14 6.09375 14.6396 6.09375 15.4286C6.09375 16.2175 6.72336 16.8571 7.5 16.8571C8.27664 16.8571 8.90625 16.2175 8.90625 15.4286C8.90625 14.6396 8.27664 14 7.5 14ZM17.625 9.14286V8C17.625 7.76332 17.4361 7.57143 17.2031 7.57143H10.1719C9.93889 7.57143 9.75 7.76332 9.75 8V9.14286C9.75 9.37954 9.93889 9.57143 10.1719 9.57143H17.2031C17.4361 9.57143 17.625 9.37954 17.625 9.14286ZM17.625 12.5714V11.4286C17.625 11.1919 17.4361 11 17.2031 11H10.1719C9.93889 11 9.75 11.1919 9.75 11.4286V12.5714C9.75 12.8081 9.93889 13 10.1719 13H17.2031C17.4361 13 17.625 12.8081 17.625 12.5714ZM17.625 16V14.8571C17.625 14.6205 17.4361 14.4286 17.2031 14.4286H10.1719C9.93889 14.4286 9.75 14.6205 9.75 14.8571V16C9.75 16.2367 9.93889 16.4286 10.1719 16.4286H17.2031C17.4361 16.4286 17.625 16.2367 17.625 16Z" fill="#3E4551"/>
</svg>
