<svg width="24" height="24" viewBox="0 0 24 24" fill="none" xmlns="http://www.w3.org/2000/svg">
<path fill-rule="evenodd" clip-rule="evenodd" d="M1 19.4001L2.5508 18.7349C5.70252 17.5955 8.62363 17.2004 12.016 17.3749C14.8368 17.5198 16.9358 18.0335 19.5394 19.1465L20.0306 19.4001L15.6925 12.8274C12.7379 12.8702 9.27534 13.6901 6.88235 14.813C5.33821 15.5342 4.51937 16.1137 3.28943 17.0785C2.75801 17.4967 2.06283 18.1751 1.6016 18.6624C1.4746 18.7975 1.05013 19.2914 1 19.4001Z" fill="#3E4551"/>
<path fill-rule="evenodd" clip-rule="evenodd" d="M3.50659 15.6098L3.80739 15.409C3.90766 15.3233 3.97451 15.2673 4.07143 15.1851C4.68974 14.6746 4.99723 14.4507 5.71581 13.9634C7.85148 12.5112 10.7291 11.4475 13.3127 10.9997C13.5366 10.9602 14.1817 10.891 14.3722 10.8318L10.5219 5L3.50659 15.6098Z" fill="#3E4551"/>
<path fill-rule="evenodd" clip-rule="evenodd" d="M18.0688 12.689H19.0882V13.3311H19.7366V11.408H19.0882V10.1238H18.4331V12.0469H17.6443L18.0688 12.689ZM20.3884 11.4048V12.0469H21V11.4048H20.3884ZM19.7366 10.7626H21V10.1238H19.7366V10.7626ZM16.4813 9.48169H21V5.00989H16.4813V9.48169ZM20.3884 8.83956H17.133V5.63225H20.3884V8.83956ZM17.7814 8.19744H19.7366V6.27437H17.7814V8.19744ZM17.1297 10.1205H16.4813V10.2819L17.1297 11.2698V10.1205ZM15.8296 9.29728V8.19744H15.1778V6.9132H15.8296V5.00989H15.1778V6.27437H14.5261V5.00989H12.9987L13.4064 5.63225H13.8744V6.33694L14.2554 6.9132H14.5261V7.32482L15.8296 9.29728ZM20.3884 14.612H19.3389L19.7633 15.2542H20.3884V14.612ZM19.0882 14.2301V13.3311H18.4933L19.0882 14.2301ZM21 15.8963H20.3884V16.2026L20.6089 16.5385L21 17.0916V15.8963ZM20.3884 15.8963H21V15.2542H20.3884V15.8963ZM20.3884 12.7121V13.3542H21V12.7121H20.3884Z" fill="#3E4551"/>
</svg>
