<svg width="24" height="24" viewBox="0 0 24 24" fill="none" xmlns="http://www.w3.org/2000/svg">
<g clip-path="url(#clip0_249_370)">
<path fill-rule="evenodd" clip-rule="evenodd" d="M15.9822 2.73914H16.6666C19.3127 2.73914 21.4577 4.88419 21.4577 7.53025V8.21469H20.0888V7.53025C20.0888 5.64021 18.5567 4.10802 16.6666 4.10802H15.9822V2.73914Z" fill="#3E4551"/>
<path fill-rule="evenodd" clip-rule="evenodd" d="M15.7866 0H16.4711C20.6292 0 24 3.3708 24 7.52889V8.21334H22.6311V7.52889C22.6311 4.12682 19.8731 1.36889 16.4711 1.36889H15.7866V0Z" fill="#3E4551"/>
<path d="M14.3201 11.441C14.3201 10.793 14.8454 10.2677 15.4934 10.2677H19.0134C19.6614 10.2677 20.1867 10.793 20.1867 11.441V13.201C20.1867 13.849 19.6614 14.3743 19.0134 14.3743H15.4934C14.8454 14.3743 14.3201 13.849 14.3201 13.201V11.441Z" fill="#3E4551"/>
<path fill-rule="evenodd" clip-rule="evenodd" d="M3.56444 4.98505C2.70043 4.98505 2 5.68547 2 6.54949V18.4784C2 19.3424 2.70043 20.0428 3.56444 20.0428H16.08C17.808 20.0428 19.2089 18.642 19.2089 16.9139V15.3388C19.1445 15.3446 19.0793 15.3475 19.0133 15.3475H15.4933C14.3053 15.3475 13.3422 14.3845 13.3422 13.1964V11.4364C13.3422 10.2484 14.3053 9.28532 15.4933 9.28532H19.0133C19.0793 9.28532 19.1445 9.28828 19.2089 9.29409V8.11394C19.2089 6.3859 17.808 4.98505 16.08 4.98505H3.56444ZM19.2089 10.2793C19.1453 10.2686 19.08 10.2631 19.0133 10.2631H15.4933C14.8453 10.2631 14.32 10.7884 14.32 11.4364V13.1964C14.32 13.8444 14.8453 14.3698 15.4933 14.3698H19.0133C19.08 14.3698 19.1453 14.3642 19.2089 14.3535V10.2793Z" fill="#3E4551"/>
</g>
<defs>
<clipPath id="clip0_249_370">
<rect width="24" height="24" fill="white"/>
</clipPath>
</defs>
</svg>
