<svg width="24" height="24" viewBox="0 0 24 24" fill="none" xmlns="http://www.w3.org/2000/svg">
<path d="M13.4464 21.0845C13.2455 21.8271 12.4866 22 11.75 22C11.0134 22 10.2545 21.8271 10.0536 21.0845C9.75496 19.974 9.25 17.1913 9.25 15.8965C9.25 14.5232 10.4665 14.1875 11.75 14.1875C13.0335 14.1875 14.25 14.5232 14.25 15.8965C14.25 17.1836 13.7472 19.966 13.4464 21.0845ZM9.12762 13.2716C8.39742 12.5565 7.95738 11.5461 8.00324 10.4357C8.08348 8.4934 9.6593 6.92184 11.6018 6.84664C13.7368 6.76398 15.5 8.47684 15.5 10.5938C15.5 11.6417 15.0678 12.5905 14.3724 13.2716C14.2679 13.3739 14.2786 13.5445 14.397 13.6304C14.7607 13.8947 15.0399 14.2298 15.2264 14.6212C15.2944 14.7639 15.4802 14.8032 15.5955 14.695C16.7215 13.6387 17.414 12.1254 17.3733 10.4542C17.3008 7.47742 14.8891 5.05547 11.9126 4.97105C8.73707 4.88098 6.125 7.43809 6.125 10.5938C6.125 12.2094 6.80984 13.668 7.9043 14.6949C8.01965 14.8031 8.20551 14.764 8.27355 14.6212C8.46004 14.2297 8.7393 13.8947 9.10305 13.6304C9.22137 13.5445 9.23211 13.3739 9.12762 13.2716ZM11.75 2C6.91422 2 3 5.91348 3 10.75C3 14.2653 5.05477 17.2206 7.91168 18.6175C8.08094 18.7002 8.27367 18.5572 8.24508 18.371C8.15203 17.7651 8.07547 17.1622 8.03391 16.639C8.0282 16.5673 7.98902 16.5029 7.9293 16.4628C6.07773 15.2204 4.86039 13.1028 4.87512 10.707C4.89824 6.94777 7.97238 3.88484 11.7317 3.87504C15.531 3.86512 18.625 6.95301 18.625 10.75C18.625 13.1692 17.3688 15.3004 15.4746 16.5261C15.4356 17.0744 15.3547 17.7209 15.2549 18.371C15.2263 18.5572 15.4191 18.7002 15.5883 18.6175C18.4386 17.2237 20.5 14.2729 20.5 10.75C20.5 5.91426 16.5865 2 11.75 2ZM11.75 8.25C10.3693 8.25 9.25 9.3693 9.25 10.75C9.25 12.1307 10.3693 13.25 11.75 13.25C13.1307 13.25 14.25 12.1307 14.25 10.75C14.25 9.3693 13.1307 8.25 11.75 8.25Z" fill="#3E4551"/>
</svg>
