<svg width="24" height="24" viewBox="0 0 24 24" fill="none" xmlns="http://www.w3.org/2000/svg">
<path fill-rule="evenodd" clip-rule="evenodd" d="M5.875 2H14.625C15.6602 2 16.5 2.83984 16.5 3.875V8.04148C16.3374 8.0142 16.1704 8 16 8C15.5044 8 15.0369 8.12017 14.625 8.33295V4.34375C14.625 4.08594 14.4141 3.875 14.1562 3.875H6.34375C6.08594 3.875 5.875 4.08594 5.875 4.34375V16.5312C5.875 16.7891 6.08594 17 6.34375 17H14.1562C14.4141 17 14.625 16.7891 14.625 16.5312V13.667C15.0369 13.8798 15.5044 14 16 14C16.1704 14 16.3374 13.9858 16.5 13.9585V20.125C16.5 21.1602 15.6602 22 14.625 22H5.875C4.83984 22 4 21.1602 4 20.125V3.875C4 2.83984 4.83984 2 5.875 2ZM9 19.5C9 20.1914 9.55859 20.75 10.25 20.75C10.9414 20.75 11.5 20.1914 11.5 19.5C11.5 18.8086 10.9414 18.25 10.25 18.25C9.55859 18.25 9 18.8086 9 19.5Z" fill="#3E4551"/>
<path d="M21.35 7H9.65C9.29108 7 9 7.29854 9 7.66667V14.3333C9 14.7015 9.29108 15 9.65 15H21.35C21.7089 15 22 14.7015 22 14.3333V7.66667C22 7.29854 21.7089 7 21.35 7ZM9.975 14V12.6667C10.693 12.6667 11.275 13.2635 11.275 14H9.975ZM9.975 9.33333V8H11.275C11.275 8.73646 10.693 9.33333 9.975 9.33333ZM15.5 13C14.6024 13 13.875 12.1044 13.875 11C13.875 9.89542 14.6026 9 15.5 9C16.3974 9 17.125 9.89542 17.125 11C17.125 12.1048 16.3972 13 15.5 13ZM21.025 14H19.725C19.725 13.2635 20.307 12.6667 21.025 12.6667V14ZM21.025 9.33333C20.307 9.33333 19.725 8.73646 19.725 8H21.025V9.33333Z" fill="#3E4551"/>
</svg>
