<svg width="24" height="24" viewBox="0 0 24 24" fill="none" xmlns="http://www.w3.org/2000/svg">
<path fill-rule="evenodd" clip-rule="evenodd" d="M6.39274 13.9838C5.86944 14.5108 5.86903 15.3656 6.39185 15.893L11.0525 20.5951C11.3037 20.8485 11.6446 20.9909 12 20.9909C12.3554 20.9909 12.6963 20.8485 12.9475 20.5951L17.6082 15.893C18.131 15.3656 18.1306 14.5108 17.6073 13.9838C17.084 13.4569 16.2359 13.4573 15.7131 13.9848L12 17.7308L8.28691 13.9848C7.7641 13.4573 6.91605 13.4569 6.39274 13.9838Z" fill="#3E4551"/>
<path d="M10.6556 19.65C10.6556 20.3956 11.2553 21 11.995 21C12.7347 21 13.3344 20.3956 13.3344 19.65V4.35C13.3344 3.60442 12.7347 3 11.995 3C11.2553 3 10.6556 3.60442 10.6556 4.35V19.65Z" fill="#3E4551"/>
</svg>
