<svg width="32" height="32" viewBox="0 0 32 32" fill="none" xmlns="http://www.w3.org/2000/svg">
<rect width="32" height="32" rx="16" fill="#21A697"/>
<path fill-rule="evenodd" clip-rule="evenodd" d="M23.8797 17.1757C24.1923 17.4879 24.1925 17.9945 23.8803 18.307L21.0965 21.0934C20.9465 21.2436 20.7429 21.328 20.5306 21.328C20.3183 21.328 20.1147 21.2436 19.9646 21.0934L17.1809 18.307C16.8686 17.9945 16.8688 17.4879 17.1814 17.1757C17.494 16.8634 18.0005 16.8636 18.3128 17.1762L20.5306 19.3961L22.7484 17.1762C23.0606 16.8636 23.5672 16.8634 23.8797 17.1757Z" fill="white"/>
<path fill-rule="evenodd" clip-rule="evenodd" d="M19.7326 14.2584C19.7326 13.7314 19.5234 13.226 19.1513 12.8536C18.7792 12.4811 18.2747 12.272 17.7488 12.272L16.357 12.272C15.9151 12.272 15.557 11.9139 15.557 11.472C15.557 11.0302 15.9151 10.672 16.357 10.672L17.7488 10.672C18.6996 10.672 19.6112 11.0501 20.2832 11.7227C20.9552 12.3954 21.3326 13.3075 21.3326 14.2584V20.5278C21.3326 20.9696 20.9744 21.3278 20.5326 21.3278C20.0908 21.3278 19.7326 20.9696 19.7326 20.5278L19.7326 14.2584Z" fill="white"/>
<path fill-rule="evenodd" clip-rule="evenodd" d="M8.12032 14.8243C7.80776 14.5121 7.80752 14.0055 8.11979 13.693L10.9035 10.9066C11.0536 10.7564 11.2572 10.672 11.4695 10.672C11.6818 10.672 11.8854 10.7564 12.0355 10.9066L14.8192 13.693C15.1315 14.0055 15.1312 14.5121 14.8187 14.8243C14.5061 15.1366 13.9996 15.1364 13.6873 14.8238L11.4695 12.6039L9.2517 14.8238C8.93942 15.1364 8.43289 15.1366 8.12032 14.8243Z" fill="white"/>
<path fill-rule="evenodd" clip-rule="evenodd" d="M12.2675 11.4722V17.7416C12.2675 18.2686 12.4766 18.774 12.8488 19.1464C13.2208 19.5189 13.7253 19.728 14.2512 19.728H15.6431C16.0849 19.728 16.4431 20.0861 16.4431 20.528C16.4431 20.9698 16.0849 21.328 15.6431 21.328H14.2512C13.3005 21.328 12.3889 20.9499 11.7168 20.2773C11.0448 19.6046 10.6675 18.6925 10.6675 17.7416L10.6675 11.4722C10.6675 11.0304 11.0256 10.6722 11.4675 10.6722C11.9093 10.6722 12.2675 11.0304 12.2675 11.4722Z" fill="white"/>
</svg>
