<svg width="32" height="32" viewBox="0 0 32 32" fill="none" xmlns="http://www.w3.org/2000/svg">
<rect width="32" height="32" rx="16" fill="#9D50C2"/>
<path d="M19.0833 9.33331H13.25C12.5599 9.33331 12 9.89321 12 10.5833V21.4166C12 22.1068 12.5599 22.6666 13.25 22.6666H19.0833C19.7734 22.6666 20.3333 22.1068 20.3333 21.4166V10.5833C20.3333 9.89321 19.7734 9.33331 19.0833 9.33331ZM16.1667 21.8333C15.7057 21.8333 15.3333 21.4609 15.3333 21C15.3333 20.539 15.7057 20.1666 16.1667 20.1666C16.6276 20.1666 17 20.539 17 21C17 21.4609 16.6276 21.8333 16.1667 21.8333ZM19.0833 19.0208C19.0833 19.1927 18.9427 19.3333 18.7708 19.3333H13.5625C13.3906 19.3333 13.25 19.1927 13.25 19.0208V10.8958C13.25 10.7239 13.3906 10.5833 13.5625 10.5833H18.7708C18.9427 10.5833 19.0833 10.7239 19.0833 10.8958V19.0208Z" fill="white"/>
</svg>
