<svg width="32" height="32" viewBox="0 0 32 32" fill="none" xmlns="http://www.w3.org/2000/svg">
<rect width="32" height="32" rx="16" fill="#6B69CC"/>
<path fill-rule="evenodd" clip-rule="evenodd" d="M18.9272 10H13.1649C11.2328 10 9.6665 11.5663 9.6665 13.4984V18.2831C9.6665 20.2152 11.2328 21.7816 13.1649 21.7816H18.9272C20.8593 21.7816 22.4257 20.2152 22.4257 18.2831V18.0971H19.7269C18.4603 18.0963 17.4329 17.0703 17.4322 15.8032C17.4322 14.5356 18.4606 13.5095 19.7269 13.5088L22.4257 13.5088V13.4984C22.4257 11.5663 20.8593 10 18.9272 10ZM22.4257 14.5088H19.7271C19.0117 14.5093 18.4323 15.0885 18.4322 15.8026C18.4327 16.5174 19.012 17.0967 19.7273 17.0971H22.4257V14.5088ZM12.6903 12.5254C12.4141 12.5254 12.1903 12.7492 12.1903 13.0254C12.1903 13.3015 12.4141 13.5254 12.6903 13.5254H16.2896C16.5657 13.5254 16.7896 13.3015 16.7896 13.0254C16.7896 12.7492 16.5657 12.5254 16.2896 12.5254H12.6903ZM19.3245 15.7619C19.3245 15.6865 19.3411 15.6151 19.371 15.551C19.4505 15.3802 19.6237 15.2619 19.8245 15.2619H20.0323C20.1122 15.2619 20.1879 15.2807 20.2549 15.314C20.4193 15.3959 20.5323 15.5657 20.5323 15.7619C20.5323 16.038 20.3084 16.2619 20.0323 16.2619H19.8245C19.5483 16.2619 19.3245 16.038 19.3245 15.7619Z" fill="white"/>
</svg>
