<svg width="16" height="16" viewBox="0 0 16 16" fill="none" xmlns="http://www.w3.org/2000/svg">
<path fill-rule="evenodd" clip-rule="evenodd" d="M8 14C11.3137 14 14 11.3137 14 8C14 4.68629 11.3137 2 8 2C4.68629 2 2 4.68629 2 8C2 11.3137 4.68629 14 8 14ZM11.8145 6.78662C11.9121 6.68899 11.9121 6.5307 11.8145 6.43307L11.1781 5.79667C11.0805 5.69904 10.9222 5.69904 10.8245 5.79667L7.49628 9.12492L5.66803 7.29667C5.5704 7.19904 5.41211 7.19904 5.31448 7.29667L4.67808 7.93307C4.58045 8.0307 4.58045 8.18899 4.67808 8.28662L7.3195 10.928C7.41713 11.0257 7.57543 11.0257 7.67306 10.928L11.8145 6.78662Z" fill="#3E4551"/>
</svg>
