<svg width="24" height="24" viewBox="0 0 24 24" fill="none" xmlns="http://www.w3.org/2000/svg">
<path d="M21.9328 19.4163L19.0801 8.00495C18.9317 7.41159 18.4379 7.00026 17.8742 7.00026H15.5207C15.6602 6.60768 15.7504 6.19088 15.7504 5.75026C15.7504 3.67916 14.0715 2.00024 12.0004 2.00024C9.92929 2.00024 8.25038 3.67916 8.25038 5.75026C8.25038 6.19088 8.34022 6.60768 8.48007 7.00026H6.12654C5.56287 7.00026 5.06873 7.41198 4.92068 8.00495L2.06716 19.4163C1.74176 20.7175 2.63981 21.9999 3.87615 21.9999H20.1242C21.3602 21.9999 22.2582 20.7175 21.9328 19.4163ZM12 6.99987C11.3109 6.99987 10.75 6.43893 10.75 5.74987C10.75 5.0608 11.3109 4.49986 12 4.49986C12.6891 4.49986 13.25 5.0608 13.25 5.74987C13.25 6.43893 12.6891 6.99987 12 6.99987Z" fill="#3E4551"/>
</svg>
