<svg width="24" height="24" viewBox="0 0 24 24" fill="none" xmlns="http://www.w3.org/2000/svg">
<path d="M10.2776 23C9.87111 22.8384 9.45866 22.6915 9.0595 22.5128C7.86297 21.9796 6.78582 21.2695 5.88712 20.3075C4.83915 19.1859 4.21359 17.8658 4.04558 16.3365C3.96655 15.6177 3.99811 14.8991 4.08046 14.1824C4.37496 11.6285 5.43432 9.39728 6.97139 7.37159C8.45293 5.41922 10.2499 3.79696 12.2604 2.40821C12.946 1.93525 13.67 1.51829 14.3769 1.07642C14.4199 1.0496 14.4664 1.02895 14.521 1C14.4835 1.24111 14.4427 1.46845 14.4137 1.69746C14.3062 2.54727 14.4156 3.37597 14.6705 4.18923C14.9852 5.1933 15.4885 6.10577 16.0498 6.98785C16.6224 7.88822 17.215 8.77576 17.7855 9.67755C18.4336 10.702 18.9988 11.769 19.3698 12.9287C19.7141 14.0066 19.875 15.1096 19.7763 16.238C19.5935 18.3264 18.7848 20.1278 17.2498 21.5776C16.6103 22.1833 15.8495 22.6465 15.0177 22.9366C14.9916 22.9459 14.9655 22.9547 14.9389 22.9625C14.9201 22.9659 14.9012 22.9682 14.8822 22.9696C14.9147 22.9236 14.9375 22.8904 14.9612 22.8581C15.5232 22.0937 15.9978 21.2814 16.3376 20.3915C16.7719 19.2524 16.7152 18.1259 16.2757 17.0041C16.0194 16.3498 15.6587 15.7501 15.3143 15.1412C14.8468 14.3125 14.4363 13.4605 14.2203 12.5272C14.2132 12.5122 14.2044 12.4981 14.194 12.4852C13.8162 12.9107 13.6244 13.4124 13.5195 13.953C13.4146 14.4936 13.4211 15.0368 13.4483 15.5956C13.3772 15.5142 13.3031 15.4364 13.2381 15.351C12.7585 14.72 12.4747 13.9983 12.2836 13.2389C12.0226 12.1978 11.9751 11.1377 12.0285 10.071C12.0743 9.13766 12.2136 8.21665 12.4082 7.30324C12.4122 7.28449 12.4144 7.26551 12.4232 7.2095C12.2594 7.34904 12.1147 7.46272 11.9815 7.58754C10.4627 9.0005 9.32363 10.6612 8.68289 12.6456C8.43958 13.3982 8.2913 14.1783 8.24149 14.9677C8.15273 16.3702 8.32478 17.7443 8.68123 19.0993C9.03506 20.4439 9.55382 21.7211 10.2757 22.912C10.2857 22.9283 10.2935 22.9464 10.3021 22.9637L10.2776 23Z" fill="#3E4551"/>
</svg>
