<svg width="24" height="24" viewBox="0 0 24 24" fill="none" xmlns="http://www.w3.org/2000/svg">
<path d="M5.60559 8.27826L8.79649 9.44012C9.89616 6.89202 11.4905 4.93111 13.1402 4.01205C10.144 3.85924 7.24088 5.16704 5.37371 7.50577C5.16465 7.76826 5.29059 8.16357 5.60559 8.27826ZM9.73835 9.78324L17.1908 12.4966C18.3083 8.70357 17.7751 5.25735 15.8586 4.55986C15.6274 4.47549 15.3858 4.43486 15.137 4.43486C13.3239 4.43517 11.1287 6.5964 9.73835 9.78324ZM18.2961 5.89078C18.4904 6.40015 18.6345 6.97202 18.7086 7.61545C18.8879 9.1745 18.6642 10.9976 18.1164 12.8335L21.3232 14.001C21.6385 14.1157 21.9892 13.8938 21.9973 13.5582C22.0698 10.5679 20.6876 7.70076 18.2961 5.89078ZM19.4998 17.9994H12.033L14.0624 12.422L12.183 11.7376L9.90491 17.9991H2.49999C2.22375 17.9991 2 18.2228 2 18.4994V19.4997C2 19.7759 2.22375 20 2.49999 20H19.4998C19.7761 20 19.9998 19.7759 19.9998 19.4997V18.4994C19.9998 18.2232 19.7761 17.9994 19.4998 17.9994Z" fill="#3E4551"/>
</svg>
