<svg width="24" height="24" viewBox="0 0 24 24" fill="none" xmlns="http://www.w3.org/2000/svg">
<path d="M20.5 16.0625V2.9375C20.5 2.41797 20.082 2 19.5625 2H6.75C4.67969 2 3 3.67969 3 5.75V18.25C3 20.3203 4.67969 22 6.75 22H19.5625C20.082 22 20.5 21.582 20.5 21.0625V20.4375C20.5 20.1445 20.3633 19.8789 20.1523 19.707C19.9883 19.1055 19.9883 17.3906 20.1523 16.7891C20.3633 16.6211 20.5 16.3555 20.5 16.0625ZM8 7.23438C8 7.10547 8.10547 7 8.23438 7H16.5156C16.6445 7 16.75 7.10547 16.75 7.23438V8.01562C16.75 8.14453 16.6445 8.25 16.5156 8.25H8.23438C8.10547 8.25 8 8.14453 8 8.01562V7.23438ZM8 9.73438C8 9.60547 8.10547 9.5 8.23438 9.5H16.5156C16.6445 9.5 16.75 9.60547 16.75 9.73438V10.5156C16.75 10.6445 16.6445 10.75 16.5156 10.75H8.23438C8.10547 10.75 8 10.6445 8 10.5156V9.73438ZM17.8984 19.5H6.75C6.05859 19.5 5.5 18.9414 5.5 18.25C5.5 17.5625 6.0625 17 6.75 17H17.8984C17.8242 17.668 17.8242 18.832 17.8984 19.5Z" fill="#3E4551"/>
</svg>
