<svg width="16" height="16" viewBox="0 0 16 16" fill="none" xmlns="http://www.w3.org/2000/svg">
<path fill-rule="evenodd" clip-rule="evenodd" d="M8 14C11.3137 14 14 11.3137 14 8C14 4.68629 11.3137 2 8 2C4.68629 2 2 4.68629 2 8C2 11.3137 4.68629 14 8 14ZM8 4C9.19063 4 10.2547 4.52187 10.9859 5.34687L11.8293 4.50352C11.8923 4.44053 12 4.48514 12 4.57423V6.9C12 6.95523 11.9552 7 11.9 7H9.57423C9.48514 7 9.44053 6.89229 9.50352 6.82929L10.2734 6.05937C9.725 5.41406 8.91406 5 8 5C6.37572 5 5.05442 6.28845 5.00164 7.89981C4.99983 7.95501 4.95523 8 4.9 8H4.1C4.04477 8 3.99987 7.95492 4.00123 7.89971C4.05444 5.73669 5.82415 4 8 4ZM5.72656 9.94063C6.275 10.5859 7.08594 11 8 11C9.62428 11 10.9456 9.71155 10.9984 8.10019C11.0002 8.04499 11.0448 8 11.1 8H11.9C11.9552 8 12.0001 8.04508 11.9988 8.10029C11.9456 10.2633 10.1758 12 8 12C6.81094 12 5.74531 11.4781 5.01406 10.6531L4.17071 11.4965C4.10771 11.5595 4 11.5149 4 11.4258V9.1C4 9.04477 4.04477 9 4.1 9H6.42577C6.51486 9 6.55947 9.10771 6.49648 9.17071L5.72656 9.94063Z" fill="#3E4551"/>
</svg>
