<svg width="24" height="24" viewBox="0 0 24 24" fill="none" xmlns="http://www.w3.org/2000/svg">
<path d="M19.8381 5.03555C17.9186 2.86992 15.1254 1.5 12 1.5C6.30097 1.5 1.66337 6.03876 1.50422 11.6993C1.49957 11.8649 1.63431 12 1.8 12H3.825C3.99069 12 4.12442 11.8652 4.13061 11.6996C4.28832 7.48725 7.74883 4.125 12 4.125C14.3994 4.125 16.5281 5.21191 17.9678 6.90586L16.0108 8.86287C15.8218 9.05186 15.9556 9.375 16.2229 9.375H22.2C22.3657 9.375 22.5 9.24069 22.5 9.075V3.0979C22.5 2.83062 22.1769 2.69678 21.9879 2.88576L19.8381 5.03555ZM12 19.875C9.60059 19.875 7.47188 18.7881 6.03223 17.0941L7.98923 15.1371C8.17822 14.9481 8.04437 14.625 7.7771 14.625H1.8C1.63431 14.625 1.5 14.7593 1.5 14.925V20.9021C1.5 21.1694 1.82314 21.3032 2.01213 21.1142L4.16191 18.9645C6.08145 21.1301 8.87871 22.5 12 22.5C17.699 22.5 22.3366 17.9612 22.4958 12.3007C22.5004 12.1351 22.3657 12 22.2 12H20.175C20.0093 12 19.8756 12.1348 19.8694 12.3004C19.7117 16.5127 16.2512 19.875 12 19.875Z" fill="#3E4551"/>
</svg>
