<svg width="24" height="24" viewBox="0 0 24 24" fill="none" xmlns="http://www.w3.org/2000/svg">
<path d="M15.8784 20.7276C16.2199 20.6703 16.5615 20.625 16.8992 20.554C19.8944 19.9224 22.2456 17.4897 22.7862 14.4686C23.5167 10.3875 20.9161 6.50992 16.8617 5.63674C16.6909 5.59954 16.5145 5.57388 16.2993 5.53583C16.4701 5.396 16.6157 5.27926 16.7575 5.16166C17.2502 4.74945 17.7096 4.30644 18.0174 3.73173C18.4444 2.93552 18.324 2.09483 17.7062 1.53295C17.4086 1.26386 17.0251 1.1097 16.6244 1.09811C16.2236 1.08651 15.8319 1.21823 15.5193 1.46966C15.4476 1.52739 15.3797 1.58982 15.3536 1.61206C15.0257 1.44828 14.7354 1.24132 14.4143 1.15451C13.7636 0.979621 13.1889 1.18103 12.7466 1.68946C12.2957 2.20772 12.2249 2.80809 12.455 3.4448C12.6258 3.92245 12.9375 4.31328 13.2965 4.66136C13.6065 4.96069 13.9395 5.2365 14.2662 5.52642C13.9489 5.59826 13.6257 5.65043 13.3187 5.74407C10.28 6.66857 8.40867 8.69459 7.80665 11.8089C7.43263 13.7455 7.84123 15.577 8.90736 17.2498C8.98165 17.3666 9.05893 17.4174 9.19855 17.3982C9.85351 17.3084 10.4653 17.1053 11.0375 16.7303C10.9948 16.6683 10.9546 16.6114 10.9128 16.5592C8.3395 13.2482 10.1327 8.43204 14.2376 7.61573C17.2703 7.0128 20.2385 9.04139 20.7871 12.0937C21.329 15.1032 19.3816 17.9862 16.3988 18.5857C16.2124 18.6291 16.0225 18.6557 15.8314 18.6652C15.6606 18.6682 15.5611 18.7439 15.4604 18.8649C14.9662 19.4536 14.3949 19.9727 13.7619 20.4082C13.7192 20.4394 13.6765 20.4762 13.5873 20.5476C13.9242 20.5976 14.2132 20.6399 14.5018 20.684C14.577 20.6955 14.6517 20.7126 14.7264 20.7267L15.8784 20.7276Z" fill="#3E4551"/>
<path d="M9.27283 20.7277C9.66863 20.6576 10.0721 20.6165 10.4589 20.5139C13.4716 19.7053 15.3963 17.7849 16.1226 14.748C16.6085 12.7168 16.2349 10.7883 15.1282 9.00816C15.0321 8.85336 14.9395 8.78537 14.7439 8.81445C14.1035 8.91024 13.5121 9.11378 13.0164 9.43919C13.3123 9.98012 13.6526 10.4779 13.8712 11.0248C15.1978 14.3383 13.1723 17.97 9.66564 18.6042C6.65513 19.1494 3.76631 17.1311 3.21211 14.0963C2.65492 11.0457 4.71331 8.08067 7.76224 7.60388C8.22635 7.53119 8.55084 7.37169 8.83562 7.0172C9.04911 6.75379 9.31425 6.53229 9.57213 6.30993C9.83002 6.08757 10.0952 5.89857 10.4081 5.65526C10.0153 5.59924 9.66692 5.52697 9.3151 5.50303C7.20847 5.3602 5.33069 5.94902 3.72831 7.33663C2.30738 8.56815 1.45175 10.1242 1.17123 11.9912C1.14604 12.1579 1.11701 12.3239 1.09011 12.4906V13.7281C1.13195 13.9787 1.17379 14.2293 1.21564 14.4799C1.71433 17.4343 4.14929 19.958 7.08038 20.552C7.42537 20.6217 7.7742 20.6691 8.12132 20.7273L9.27283 20.7277Z" fill="#3E4551"/>
</svg>
