<svg width="24" height="24" viewBox="0 0 24 24" fill="none" xmlns="http://www.w3.org/2000/svg">
<path d="M21.6525 10.5828L17.4497 5.53969C17.3089 5.3708 17.1327 5.23492 16.9336 5.14166C16.7345 5.0484 16.5174 5.00004 16.2975 5H3C2.44781 5 2 5.44781 2 6V15C2 15.5522 2.44781 16 3 16H4C4 17.6569 5.34312 19 7 19C8.65688 19 10 17.6569 10 16H14C14 17.6569 15.3431 19 17 19C18.6569 19 20 17.6569 20 16H21C21.5522 16 22 15.5522 22 15V11.5431C22 11.1922 21.8769 10.8525 21.6525 10.5828ZM4 10V7H7V10H4ZM7 17.5C6.17156 17.5 5.5 16.8284 5.5 16C5.5 15.1716 6.17156 14.5 7 14.5C7.82844 14.5 8.5 15.1716 8.5 16C8.5 16.8284 7.82844 17.5 7 17.5ZM12 10H9V7H12V10ZM17 17.5C16.1716 17.5 15.5 16.8284 15.5 16C15.5 15.1716 16.1716 14.5 17 14.5C17.8284 14.5 18.5 15.1716 18.5 16C18.5 16.8284 17.8284 17.5 17 17.5ZM14 10V7H16.0631L18.5631 10H14Z" fill="#3E4551"/>
</svg>
