<svg width="24" height="24" viewBox="0 0 24 24" fill="none" xmlns="http://www.w3.org/2000/svg">
<g clip-path="url(#clip0_1038_631)">
<path d="M18.8677 1.57271L18.9581 1.62494C18.9922 1.72893 19.0231 1.83413 19.0598 1.93781C20.6043 6.29837 19.9495 10.4192 17.6957 14.3594C17.5788 14.5618 17.5587 14.7105 17.6334 14.9258C18.0831 16.2299 18.5282 17.5379 18.1534 18.9497L17.9187 19.3563C17.8967 19.3682 17.8666 19.3744 17.8528 19.3929C17.2778 20.1518 16.5541 20.7555 15.8109 21.3365C15.3033 21.7331 14.7756 22.1049 14.2195 22.5156C13.9777 20.9359 13.7458 19.4154 13.5086 17.8624C13.0121 18.2419 12.5402 18.5923 12.082 18.9596C11.9364 19.0761 11.8313 19.0805 11.6723 18.9881C10.3613 18.2221 9.04518 17.4659 7.73021 16.7067C7.26836 16.44 7.26836 16.44 7.3358 15.92C7.39924 15.4278 7.46197 14.9357 7.52863 14.4129L3.159 16.1166C3.27744 14.7039 3.4087 13.3431 3.81793 12.0326C3.93781 11.6494 4.08992 11.2554 4.31921 10.9324C4.71392 10.3772 5.33526 10.0981 5.96575 9.90134C6.66723 9.68293 7.39117 9.5353 8.10213 9.34645C8.2067 9.31889 8.33919 9.25865 8.38363 9.17227C9.00852 8.02167 9.77619 6.95456 10.6685 5.9962C12.7231 3.79552 15.1944 2.31787 18.1608 1.70851C18.3962 1.66012 18.632 1.61735 18.8677 1.57271ZM15.8064 7.00863C15.6068 6.88941 15.3856 6.81086 15.1556 6.77751C14.9255 6.74416 14.6912 6.75668 14.4661 6.81435C14.241 6.87201 14.0297 6.97368 13.8442 7.11347C13.6588 7.25326 13.5029 7.42842 13.3857 7.62882C13.15 8.03441 13.0836 8.51657 13.2008 8.97109C13.3181 9.4256 13.6096 9.81596 14.0122 10.0578C14.8381 10.5515 15.9521 10.2622 16.439 9.4272C16.5576 9.22741 16.6354 9.00604 16.6678 8.77592C16.7002 8.54579 16.6865 8.31148 16.6277 8.08654C16.5689 7.86161 16.466 7.65052 16.325 7.46549C16.1841 7.28047 16.0078 7.12518 15.8064 7.00863Z" fill="#3E4551"/>
<path d="M6.91062 22.3821C6.46846 21.4149 6.11795 20.4488 6.06101 19.4003C6.0269 18.7783 6.1202 18.1853 6.59665 17.7267C7.02317 17.317 7.26095 17.3272 7.76638 17.7618C7.39295 18.2425 7.38832 18.7843 7.61297 19.3061C8.09418 20.423 8.01756 20.374 9.21903 20.2412C9.66947 20.1923 10.067 19.9947 10.3392 19.6068C10.3975 19.5236 10.4412 19.4302 10.5103 19.3105C10.6913 19.4149 10.8812 19.5101 11.054 19.6328C11.1092 19.6719 11.1359 19.7782 11.1415 19.8562C11.1798 20.3969 10.9806 20.8589 10.5655 21.183C10.2249 21.4459 9.85256 21.6648 9.45714 21.8345C8.65366 22.1826 7.79572 22.3137 6.91062 22.3821Z" fill="#3E4551"/>
</g>
<defs>
<clipPath id="clip0_1038_631">
<rect width="24" height="24" fill="white"/>
</clipPath>
</defs>
</svg>
