<svg width="24" height="24" viewBox="0 0 24 24" fill="none" xmlns="http://www.w3.org/2000/svg">
<path d="M21 6H3C2.44781 6 2 6.44781 2 7V17C2 17.5522 2.44781 18 3 18H21C21.5522 18 22 17.5522 22 17V7C22 6.44781 21.5522 6 21 6ZM3.5 16.5V14.5C4.60469 14.5 5.5 15.3953 5.5 16.5H3.5ZM3.5 9.5V7.5H5.5C5.5 8.60469 4.60469 9.5 3.5 9.5ZM12 15C10.6191 15 9.5 13.6566 9.5 12C9.5 10.3431 10.6194 9 12 9C13.3806 9 14.5 10.3431 14.5 12C14.5 13.6572 13.3803 15 12 15ZM20.5 16.5H18.5C18.5 15.3953 19.3953 14.5 20.5 14.5V16.5ZM20.5 9.5C19.3953 9.5 18.5 8.60469 18.5 7.5H20.5V9.5Z" fill="#3E4551"/>
</svg>
