<svg width="24" height="24" viewBox="0 0 24 24" fill="none" xmlns="http://www.w3.org/2000/svg">
<path fill-rule="evenodd" clip-rule="evenodd" d="M9.71572 22.1932C9.65575 22.621 9.97959 23 10.3994 23C10.6512 23 10.8791 22.8655 10.9991 22.6455C11.1806 22.3226 11.4855 21.7786 11.9144 21.0134C12.5553 19.8701 13.473 18.233 14.6691 16.1022L7.7212 10.803C7.16016 11.8078 6.6614 12.7029 6.22551 13.4892C6.22477 13.4903 6.22343 13.4923 6.22156 13.495C6.16261 13.5814 5.57428 14.4427 6.59732 14.4427H10.7952L9.71572 22.1932ZM8.64976 9.14115L15.6008 14.4428C16.2909 13.2141 17.0558 11.8531 17.8955 10.3597C18.1594 9.78515 17.8955 9.55289 17.4158 9.55289H13.2059L14.2854 1.80246C14.3075 1.64064 14.2737 1.47603 14.19 1.33674C14.1062 1.19745 13.9776 1.09212 13.8261 1.03873C13.6746 0.985339 13.5096 0.9872 13.3593 1.044C13.2091 1.10079 13.0828 1.209 13.002 1.35014C11.6335 3.8051 10.4174 5.97994 9.35595 7.87815C9.1124 8.3137 8.87699 8.73469 8.64976 9.14115Z" fill="#3E4551"/>
<path d="M20.6502 18.9013L3.18335 5.57919C2.97643 5.4204 2.93902 5.12597 3.09993 4.92148L3.683 4.18115C3.84391 3.97666 4.14257 3.93975 4.34979 4.09883L21.8166 17.4209C22.0236 17.5797 22.061 17.8742 21.9001 18.0786L21.317 18.819C21.1561 19.0235 20.8574 19.0601 20.6502 18.9013Z" fill="#3E4551"/>
</svg>
