<svg width="24" height="24" viewBox="0 0 24 24" fill="none" xmlns="http://www.w3.org/2000/svg">
<path fill-rule="evenodd" clip-rule="evenodd" d="M12 4.5C18.3 4.5 22.5 9.85714 22.5 12C22.5 14.1429 18.3 19.5 12 19.5C5.7 19.5 1.5 14.1429 1.5 12C1.5 9.85714 5.7 4.5 12 4.5ZM17.25 12C17.25 14.9587 14.8995 17.3571 12 17.3571C9.1005 17.3571 6.75 14.9587 6.75 12C6.75 9.04133 9.1005 6.64286 12 6.64286C14.8995 6.64286 17.25 9.04133 17.25 12ZM12 15.2143C13.7397 15.2143 15.15 13.7752 15.15 12C15.15 10.2248 13.7397 8.78571 12 8.78571C10.2603 8.78571 8.85 10.2248 8.85 12C8.85 13.7752 10.2603 15.2143 12 15.2143Z" fill="#3E4551" stroke="#3E4551" stroke-width="0.4"/>
</svg>
