<svg width="26" height="24" viewBox="0 0 26 24" fill="none" xmlns="http://www.w3.org/2000/svg">
<path fill-rule="evenodd" clip-rule="evenodd" d="M24.8198 13.7635C25.2887 14.2319 25.2891 14.9917 24.8206 15.4606L20.645 19.6402C20.4199 19.8655 20.1145 19.9921 19.7961 19.9921C19.4776 19.9921 19.1722 19.8655 18.9472 19.6402L14.7715 15.4606C14.3031 14.9917 14.3035 14.2319 14.7723 13.7635C15.2412 13.2951 16.001 13.2955 16.4694 13.7643L19.7961 17.0942L23.1228 13.7643C23.5912 13.2955 24.351 13.2951 24.8198 13.7635Z" fill="#3E4551"/>
<path fill-rule="evenodd" clip-rule="evenodd" d="M18.5991 9.3877C18.5991 8.5971 18.2854 7.83911 17.7272 7.28041C17.1691 6.72176 16.4123 6.40811 15.6235 6.40811L13.5357 6.40811C12.873 6.40811 12.3357 5.87085 12.3357 5.20811C12.3357 4.54537 12.873 4.00811 13.5357 4.00811L15.6235 4.00811C17.0496 4.00811 18.417 4.57517 19.4251 5.58416C20.4331 6.59312 20.9991 7.96131 20.9991 9.3877V18.7918C20.9991 19.4545 20.4619 19.9918 19.7991 19.9918C19.1364 19.9918 18.5991 19.4545 18.5991 18.7918L18.5991 9.3877Z" fill="#3E4551"/>
<path fill-rule="evenodd" clip-rule="evenodd" d="M1.18073 10.2366C0.71188 9.76817 0.71152 9.00837 1.17993 8.53952L5.35556 4.35993C5.58064 4.13464 5.88603 4.00806 6.20449 4.00806C6.52295 4.00806 6.82834 4.13464 7.05342 4.35993L11.2291 8.53952C11.6975 9.00837 11.6971 9.76817 11.2283 10.2366C10.7594 10.705 9.9996 10.7046 9.5312 10.2358L6.20449 6.90592L2.87779 10.2358C2.40938 10.7046 1.64958 10.705 1.18073 10.2366Z" fill="#3E4551"/>
<path fill-rule="evenodd" clip-rule="evenodd" d="M7.40143 5.20833L7.40143 14.6124C7.40143 15.403 7.71521 16.161 8.27337 16.7197C8.8315 17.2784 9.58824 17.592 10.3771 17.592H12.4649C13.1276 17.592 13.6649 18.1293 13.6649 18.792C13.6649 19.4547 13.1276 19.992 12.4649 19.992H10.3771C8.95099 19.992 7.58355 19.425 6.57551 18.416C5.56751 17.407 5.00143 16.0388 5.00143 14.6124L5.00143 5.20833C5.00143 4.54559 5.53869 4.00833 6.20143 4.00833C6.86417 4.00833 7.40143 4.54559 7.40143 5.20833Z" fill="#3E4551"/>
</svg>
