<svg width="24" height="24" viewBox="0 0 24 24" fill="none" xmlns="http://www.w3.org/2000/svg">
<path d="M12 12C14.525 12 16.5714 9.98555 16.5714 7.5C16.5714 5.01445 14.525 3 12 3C9.475 3 7.42857 5.01445 7.42857 7.5C7.42857 9.98555 9.475 12 12 12ZM15.2 13.125H14.6036C13.8107 13.4836 12.9286 13.6875 12 13.6875C11.0714 13.6875 10.1929 13.4836 9.39643 13.125H8.8C6.15 13.125 4 15.2414 4 17.85V19.3125C4 20.2441 4.76786 21 5.71429 21H18.2857C19.2321 21 20 20.2441 20 19.3125V17.85C20 15.2414 17.85 13.125 15.2 13.125Z" fill="#3E4551"/>
</svg>
