<svg width="24" height="24" viewBox="0 0 24 24" fill="none" xmlns="http://www.w3.org/2000/svg">
<path d="M10.3994 23C9.97959 23 9.65575 22.621 9.71572 22.1932L10.7952 14.4427H6.59732C5.54186 14.4427 6.20152 13.5259 6.22551 13.4892C7.73673 10.7631 10.0036 6.72899 13.002 1.35014C13.0828 1.209 13.2091 1.10079 13.3593 1.044C13.5096 0.9872 13.6746 0.985339 13.8261 1.03873C13.9776 1.09212 14.1062 1.19745 14.19 1.33674C14.2737 1.47603 14.3075 1.64064 14.2854 1.80246L13.2059 9.55289H17.4158C17.8955 9.55289 18.1594 9.78515 17.8955 10.3597C13.9496 17.3767 11.6587 21.4719 10.9991 22.6455C10.8791 22.8655 10.6512 23 10.3994 23Z" fill="#3E4551"/>
</svg>
