<svg width="24" height="24" viewBox="0 0 24 24" fill="none" xmlns="http://www.w3.org/2000/svg">
<path fill-rule="evenodd" clip-rule="evenodd" d="M14.0849 3.58491C14.0849 2.70959 13.3753 2 12.5 2C11.6247 2 10.9151 2.70959 10.9151 3.58491V10.9151H3.58491C2.70959 10.9151 2 11.6247 2 12.5C2 13.3753 2.70959 14.0849 3.58491 14.0849H10.9151V21.4151C10.9151 22.2904 11.6247 23 12.5 23C13.3753 23 14.0849 22.2904 14.0849 21.4151V14.0849H21.4151C22.2904 14.0849 23 13.3753 23 12.5C23 11.6247 22.2904 10.9151 21.4151 10.9151H14.0849V3.58491Z" fill="#3E4551"/>
</svg>
