<svg width="24" height="24" viewBox="0 0 24 24" fill="none" xmlns="http://www.w3.org/2000/svg">
<path d="M21.375 16.75H8.25V16.125C8.25 15.7812 7.96875 15.5 7.625 15.5H6.375C6.03125 15.5 5.75 15.7812 5.75 16.125V16.75H2.625C2.28125 16.75 2 17.0312 2 17.375V18.625C2 18.9688 2.28125 19.25 2.625 19.25H5.75V19.875C5.75 20.2188 6.03125 20.5 6.375 20.5H7.625C7.96875 20.5 8.25 20.2188 8.25 19.875V19.25H21.375C21.7188 19.25 22 18.9688 22 18.625V17.375C22 17.0312 21.7188 16.75 21.375 16.75ZM21.375 10.5H18.25V9.875C18.25 9.53125 17.9688 9.25 17.625 9.25H16.375C16.0312 9.25 15.75 9.53125 15.75 9.875V10.5H2.625C2.28125 10.5 2 10.7812 2 11.125V12.375C2 12.7188 2.28125 13 2.625 13H15.75V13.625C15.75 13.9688 16.0312 14.25 16.375 14.25H17.625C17.9688 14.25 18.25 13.9688 18.25 13.625V13H21.375C21.7188 13 22 12.7188 22 12.375V11.125C22 10.7812 21.7188 10.5 21.375 10.5ZM21.375 4.25H13.25V3.625C13.25 3.28125 12.9688 3 12.625 3H11.375C11.0312 3 10.75 3.28125 10.75 3.625V4.25H2.625C2.28125 4.25 2 4.53125 2 4.875V6.125C2 6.46875 2.28125 6.75 2.625 6.75H10.75V7.375C10.75 7.71875 11.0312 8 11.375 8H12.625C12.9688 8 13.25 7.71875 13.25 7.375V6.75H21.375C21.7188 6.75 22 6.46875 22 6.125V4.875C22 4.53125 21.7188 4.25 21.375 4.25Z" fill="#3E4551"/>
</svg>
