<svg width="24" height="24" viewBox="0 0 24 24" fill="none" xmlns="http://www.w3.org/2000/svg">
<path fill-rule="evenodd" clip-rule="evenodd" d="M7.94183 2.83984C7.28159 2.83984 6.66389 3.16569 6.29111 3.71063L1.39298 10.8708C0.927274 11.5516 0.927274 12.4485 1.39298 13.1293L6.29111 20.2895C6.66389 20.8344 7.28159 21.1603 7.94183 21.1603H21.0001C22.1046 21.1603 23.0001 20.2648 23.0001 19.1603V4.83984C23.0001 3.73527 22.1046 2.83984 21.0001 2.83984H7.94183ZM11.2541 7.56715L14.0481 10.4262L16.8422 7.56715L18.4156 9.10479L15.5862 12.0001L18.4156 14.8953L16.8422 16.433L14.0481 13.5739L11.2541 16.433L9.68069 14.8953L12.5101 12.0001L9.68069 9.10479L11.2541 7.56715Z" fill="#3E4551"/>
</svg>
