<svg width="24" height="24" viewBox="0 0 24 24" fill="none" xmlns="http://www.w3.org/2000/svg">
<path d="M13.161 13.144L13.2217 21.389C13.2241 21.7097 12.966 21.9716 12.6453 21.9739L11.5017 21.9824C11.181 21.9847 10.9191 21.7267 10.9167 21.406L10.856 13.161L2.611 13.2217C2.2903 13.224 2.02841 12.966 2.02605 12.6453L2.01762 11.5016C2.01526 11.1809 2.27333 10.919 2.59403 10.9167L10.839 10.856L10.7783 2.61097C10.776 2.29027 11.034 2.02838 11.3547 2.02602L12.4983 2.01759C12.819 2.01523 13.0809 2.2733 13.0833 2.594L13.144 10.839L21.389 10.7783C21.7097 10.7759 21.9716 11.034 21.974 11.3547L21.9824 12.4983C21.9848 12.819 21.7267 13.0809 21.406 13.0833L13.161 13.144Z" fill="#3E4551"/>
</svg>
