<svg width="24" height="24" viewBox="0 0 24 24" fill="none" xmlns="http://www.w3.org/2000/svg">
<path d="M13.7419 11.9872L20.0184 18.1719C20.2625 18.4125 20.2654 18.8054 20.0248 19.0496L19.167 19.9202C18.9264 20.1643 18.5335 20.1672 18.2894 19.9266L12.0128 13.7419L5.82808 20.0184C5.58751 20.2625 5.19459 20.2654 4.95045 20.0248L4.07987 19.167C3.83573 18.9264 3.83284 18.5335 4.0734 18.2894L10.2582 12.0128L3.98164 5.82808C3.73751 5.58751 3.73461 5.19459 3.97518 4.95045L4.83304 4.07987C5.0736 3.83573 5.46653 3.83284 5.71067 4.0734L11.9872 10.2582L18.1719 3.98164C18.4125 3.73751 18.8054 3.73461 19.0496 3.97518L19.9202 4.83304C20.1643 5.0736 20.1672 5.46653 19.9266 5.71066L13.7419 11.9872Z" fill="#3E4551"/>
</svg>
