<svg width="56" height="56" viewBox="0 0 56 56" fill="none" xmlns="http://www.w3.org/2000/svg">
<rect width="56" height="56" rx="28" fill="#F2F2F6"/>
<path d="M39.6718 36.3147C39.2194 37.3599 38.6839 38.3221 38.0634 39.2066C37.2176 40.4125 36.5251 41.2472 35.9914 41.7108C35.1641 42.4716 34.2777 42.8612 33.3284 42.8834C32.647 42.8834 31.8252 42.6895 30.8687 42.2962C29.9089 41.9047 29.0269 41.7108 28.2205 41.7108C27.3747 41.7108 26.4676 41.9047 25.4974 42.2962C24.5256 42.6895 23.7428 42.8945 23.1443 42.9148C22.2341 42.9536 21.3268 42.5529 20.4212 41.7108C19.8431 41.2066 19.1202 40.3424 18.2541 39.118C17.3248 37.8105 16.5608 36.2944 15.9623 34.5659C15.3213 32.6989 15 30.891 15 29.1407C15 27.1357 15.4332 25.4065 16.301 23.9574C16.983 22.7934 17.8903 21.8752 19.0258 21.2012C20.1613 20.5271 21.3883 20.1836 22.7096 20.1617C23.4326 20.1617 24.3807 20.3853 25.5588 20.8248C26.7337 21.2658 27.4881 21.4894 27.8188 21.4894C28.0661 21.4894 28.9041 21.228 30.3248 20.7066C31.6683 20.2232 32.8021 20.023 33.731 20.1018C36.2481 20.305 38.1391 21.2972 39.3967 23.0848C37.1456 24.4488 36.032 26.3592 36.0542 28.8099C36.0745 30.7189 36.767 32.3074 38.128 33.5687C38.7448 34.1541 39.4336 34.6065 40.2 34.9278C40.0338 35.4098 39.8584 35.8715 39.6718 36.3147ZM33.8991 13.5985C33.8991 15.0947 33.3525 16.4917 32.2629 17.7848C30.9481 19.322 29.3577 20.2102 27.6331 20.0701C27.6111 19.8906 27.5983 19.7017 27.5983 19.5031C27.5983 18.0668 28.2236 16.5296 29.334 15.2727C29.8884 14.6364 30.5935 14.1072 31.4485 13.6851C32.3017 13.2693 33.1087 13.0394 33.8677 13C33.8898 13.2 33.8991 13.4001 33.8991 13.5985V13.5985Z" fill="#B3B3B3"/>
</svg>
