<svg width="56" height="56" viewBox="0 0 56 56" fill="none" xmlns="http://www.w3.org/2000/svg">
<g clip-path="url(#clip0_853_627)">
<rect width="56" height="56" rx="28" fill="#E42126"/>
<circle cx="28" cy="28" r="28" fill="#E42126"/>
<path d="M42.1528 31.5631C42.1485 31.565 42.1451 31.5683 42.1431 31.5724C42.1411 31.5766 42.1408 31.5813 42.1421 31.5857C41.948 31.8423 41.7561 32.1 41.5602 32.355C41.3813 32.588 41.1978 32.8177 41.0166 33.0491H41.0076V33.0579C40.986 33.0746 40.9659 33.0929 40.9474 33.1128C40.0053 34.2088 38.9415 35.1993 37.7755 36.066C37.6629 36.1501 37.5504 36.2364 37.417 36.3375C37.4981 36.3533 37.5819 36.3497 37.6612 36.3271C38.5716 36.1387 39.4644 35.8769 40.3305 35.5445C40.6851 35.406 41.0453 35.278 41.3801 35.0956L41.3875 35.0923C41.4233 35.084 41.4585 35.0732 41.4927 35.0598C42.2454 34.7161 42.9716 34.3196 43.6656 33.8734C44.0297 33.6371 44.3972 33.4013 44.7259 33.1178L44.7327 33.1117C44.7513 33.1083 44.7687 33.1001 44.7831 33.0879C44.7974 33.0757 44.8082 33.0601 44.8143 33.0425L44.8328 33.0238L44.8542 33.0084C45.0726 32.882 45.2482 32.7051 45.4333 32.5402C45.6917 32.3105 45.95 32.0802 46.165 31.8093H46.1734V31.8011C46.3692 31.6177 46.5451 31.4151 46.6985 31.1966C47.1572 30.5883 47.5427 29.9425 47.6755 29.1842C47.8257 28.3137 47.5854 27.5724 46.8651 27.008C46.3743 26.6233 45.7958 26.4244 45.1908 26.3057C44.1963 26.1106 43.1968 26.1408 42.1973 26.2716C41.7606 26.3295 41.3282 26.4079 40.9001 26.5068C40.8646 26.5151 40.8263 26.5305 40.8016 26.486C40.7346 26.3673 40.814 26.1562 40.9406 26.1211C41.7828 25.8866 42.6446 25.7252 43.5159 25.6386C43.5998 25.6309 43.6403 25.6034 43.6549 25.5193C43.7028 25.2352 43.7635 24.9533 43.8091 24.6692C43.9116 24.0509 43.9733 23.4268 43.9937 22.8008C43.9937 22.7035 43.9796 22.6744 43.8812 22.7288C43.4924 22.9389 43.0916 23.1272 42.6807 23.2926C41.8959 23.604 41.0911 23.865 40.2714 24.074C39.3807 24.3059 38.4814 24.5027 37.5734 24.6642C36.7124 24.8192 35.8479 24.9549 34.9801 25.0654C34.0358 25.1852 33.083 25.2808 32.1307 25.3616C30.9264 25.4645 29.7201 25.5342 28.512 25.5704C26.5422 25.6254 24.5764 25.6314 22.6084 25.5462C21.6066 25.5034 20.606 25.4506 19.607 25.3627C19.1979 25.3264 19.2012 25.3237 19.2131 24.9016C19.2164 24.795 19.2491 24.7588 19.3639 24.7697C19.7691 24.8088 20.1749 24.845 20.5818 24.8698C21.4096 24.9198 22.2369 24.9797 23.0659 25.0033C25.5866 25.0742 28.1068 25.0714 30.6247 24.8989C31.4194 24.8439 32.2129 24.7835 33.0053 24.7033C34.2721 24.5747 35.5339 24.4104 36.7872 24.1856C37.7361 24.0152 38.6776 23.8152 39.6068 23.5619C40.5005 23.3179 41.3784 23.0299 42.208 22.6194C42.6982 22.3771 43.1647 22.1006 43.5396 21.6956C44.059 21.1324 44.0663 20.4998 43.557 19.9338C43.3885 19.7495 43.198 19.5855 42.9897 19.4453C42.3706 19.0216 41.6863 18.7309 40.9811 18.4781C39.5691 17.9764 38.1109 17.6538 36.6336 17.3944C35.6982 17.2295 34.7567 17.1037 33.8129 16.9938C32.5984 16.852 31.38 16.7536 30.1598 16.6795C28.8502 16.6009 27.5384 16.5696 26.226 16.5608C25.8506 16.5608 25.8506 16.5608 25.8523 16.1981C25.8523 16.0002 25.8523 15.9986 26.0515 16.0002C26.9418 16.0068 27.8316 16.0195 28.7219 16.0497C29.9207 16.0898 31.1177 16.1645 32.3125 16.2624C33.2788 16.3409 34.2423 16.4481 35.203 16.5761C36.14 16.7014 37.0742 16.846 38.0017 17.0246C39.042 17.2186 40.0711 17.4662 41.0847 17.7664C42.1101 18.0758 43.1158 18.4341 44.041 18.9754C44.4603 19.2216 44.8514 19.5035 45.157 19.8838C45.3545 20.1295 45.5093 20.4042 45.5166 20.718C45.5285 21.7017 45.4575 22.6846 45.3045 23.6569C45.213 24.2636 45.0904 24.8654 44.937 25.46C44.9116 25.5589 44.937 25.5902 45.0388 25.5924C45.455 25.6021 45.8694 25.6489 46.277 25.732C46.8791 25.8523 47.4504 26.0474 47.9541 26.3997C48.4994 26.7811 48.85 27.2844 48.9637 27.9384C49.056 28.4687 48.9637 28.977 48.7842 29.4771C48.4983 30.2646 48.0267 30.9432 47.4706 31.5653C46.3653 32.8084 45.0315 33.7756 43.5767 34.5905C42.8686 34.9849 42.1355 35.335 41.3818 35.6385C40.6047 35.9551 39.807 36.2213 38.9939 36.4353C38.2565 36.6279 37.5053 36.766 36.7467 36.8486C36.6588 36.8598 36.5749 36.8912 36.5019 36.9403C35.6764 37.4626 34.8109 37.922 33.9131 38.3142C31.7609 39.2619 29.4503 39.8196 27.0938 39.9601C25.0376 40.0899 22.9733 39.9026 20.9768 39.405C20.4283 39.268 19.8862 39.1092 19.3504 38.9286C19.2541 38.8962 19.2041 38.8467 19.2097 38.7406C19.217 38.595 19.2147 38.4483 19.2097 38.301C19.2097 38.1966 19.2446 38.1763 19.3453 38.2131C19.885 38.4082 20.4337 38.5769 20.9898 38.7241C21.9635 38.9825 22.9577 39.161 23.9619 39.2577C25.1048 39.3704 26.2559 39.3792 27.4005 39.2841C28.1566 39.2227 28.9083 39.1176 29.6516 38.9692C30.7249 38.7541 31.7757 38.4434 32.7909 38.0411C33.0891 37.9224 33.3936 37.8163 33.6716 37.6564H33.6812L33.6868 37.6482C33.7267 37.637 33.766 37.6238 33.8045 37.6086C34.612 37.2346 35.3902 36.8029 36.1327 36.3172C37.7308 35.2729 39.1483 33.9868 40.3322 32.5072C40.3843 32.4575 40.4198 32.3935 40.4341 32.3237L40.2816 32.4072C39.8696 32.6331 39.465 32.8738 39.0434 33.0799C38.6337 33.2799 38.188 33.3057 37.7406 33.2233C37.5318 33.1854 37.4553 33.0271 37.5233 32.8287C37.6156 32.5605 37.8762 32.4655 38.1323 32.6089C38.3011 32.704 38.4019 32.693 38.5307 32.5655L38.5381 32.5611C38.735 32.3885 38.8425 31.9566 38.7435 31.7302C38.7132 31.6578 38.6563 31.599 38.5839 31.5654C38.5116 31.5317 38.429 31.5256 38.3523 31.5483C38.2325 31.585 38.1243 31.6513 38.0383 31.7406L38.0327 31.7467C37.8046 31.9296 37.6055 32.1444 37.4417 32.3841L37.4311 32.3869L37.4282 32.3973C37.153 32.6171 37.1592 32.9573 37.0562 33.2508L37.0484 33.2546L37.0517 33.2628C37.0253 33.2711 37.023 33.2958 37.0157 33.3178C36.8987 33.6404 36.772 33.9597 36.6263 34.2707C36.5098 34.5196 36.3927 34.7702 36.2014 34.9758C36.0505 35.1406 35.9121 35.1159 35.8288 34.9126C35.7352 34.6907 35.7232 34.4441 35.795 34.2146C35.8727 33.9652 36.0337 33.7618 36.1969 33.5618C36.4653 33.2321 36.7563 32.9238 37.0185 32.5902C37.1654 32.4034 37.233 32.1874 37.3067 31.9714C37.3151 31.9462 37.3337 31.9093 37.283 31.8863L36.9077 32.3034C36.8981 32.3034 36.8936 32.3072 36.8942 32.316C36.7816 32.4089 36.669 32.505 36.5514 32.5935C36.2633 32.8095 35.9549 32.9853 35.584 33.0254C35.4999 33.0382 35.4138 33.0287 35.3346 32.9981C35.2555 32.9675 35.1861 32.9168 35.1338 32.8512C34.93 32.6056 35.0071 32.3473 35.1084 32.0901C35.1793 31.9088 35.3155 31.7681 35.4287 31.6137L35.4545 31.589C35.669 31.4208 35.8738 31.2406 36.1226 31.1197C36.4573 30.9516 36.8297 30.8678 37.2059 30.8757C37.2549 30.8757 37.3033 30.8823 37.3095 30.9432C37.3157 31.0042 37.2735 31.0328 37.2155 31.04C37.1575 31.0471 37.0934 31.0471 37.0343 31.0592C36.6246 31.1416 36.2976 31.34 36.1181 31.7247C36.0539 31.8621 36.0494 32.0137 36.1614 32.1385C36.2734 32.2632 36.4102 32.2484 36.5509 32.2083C36.6147 32.1937 36.6759 32.17 36.7326 32.1379C37.1637 31.8699 37.4756 31.4532 37.6061 30.9707C37.6472 30.8207 37.6702 30.6663 37.7046 30.5146C37.7158 30.4646 37.7423 30.4102 37.8036 30.4179C37.865 30.4256 37.8813 30.4794 37.8807 30.5333C37.883 30.5885 37.8792 30.6438 37.8695 30.6982C37.8025 30.9968 37.7174 31.2914 37.6145 31.5802C37.5582 31.734 37.48 31.8841 37.4688 32.0566C37.7276 31.7731 37.9933 31.5005 38.2567 31.2279H38.2645V31.2202C38.318 31.1845 38.3715 31.1488 38.4244 31.1103C38.5559 31.0148 38.7038 30.9428 38.8611 30.8976C39.1931 30.8125 39.4188 30.9465 39.4689 31.2746C39.5134 31.5659 39.4616 31.839 39.2708 32.0769C39.1154 32.2712 38.9497 32.4574 38.7744 32.6347C38.7491 32.66 38.7058 32.6847 38.7181 32.7227C38.7339 32.7776 38.7896 32.7529 38.8273 32.7567C39.0001 32.7801 39.1756 32.741 39.3209 32.6468H39.326C39.6783 32.511 40.023 32.3571 40.3587 32.1858H40.3654L40.3694 32.1797C40.3915 32.1749 40.4133 32.1687 40.4347 32.161C40.5315 32.1193 40.5309 32.1187 40.6035 32.1885C40.6068 32.1917 40.6108 32.1941 40.6152 32.1955C40.6195 32.197 40.6242 32.1974 40.6288 32.1967C40.7037 32.1704 40.7696 32.1241 40.819 32.0632C40.8686 31.9973 40.7903 32.0143 40.7588 32.0011C40.7273 31.9879 40.7459 31.9698 40.756 31.9555C40.8517 31.8203 40.9468 31.6846 41.0447 31.551C41.0757 31.5098 41.1274 31.5137 41.1742 31.5137H42.0183C42.0679 31.5148 42.1236 31.5049 42.1528 31.5631Z" fill="#FDF8F8"/>
<path d="M18.0385 32.4451H18.0464V32.4391C18.0994 32.4066 18.1383 32.3561 18.1556 32.2973L18.1595 32.2913C18.2207 32.234 18.2582 32.1567 18.2648 32.0742C18.2759 32.0337 18.2724 31.9906 18.2548 31.9523C18.2373 31.914 18.2068 31.8827 18.1685 31.8637C18.0785 31.8231 18.0492 31.9187 18.0121 31.9654C17.8185 32.2183 17.6064 32.4571 17.3772 32.6798C17.1645 32.8881 16.9343 33.0837 16.6389 33.1628C16.2151 33.276 16.0198 33.1628 15.9449 32.8034C15.9388 32.7738 15.9449 32.7331 15.9022 32.7276C15.8673 32.7232 15.8605 32.7567 15.8459 32.7793C15.7257 32.9478 15.5882 33.1039 15.4356 33.2453C15.2403 33.4321 15.0062 33.5662 14.789 33.7234L14.7839 33.7267C14.7496 33.7398 14.7147 33.7508 14.6815 33.7662C14.2875 33.9514 13.8812 34.0069 13.4692 33.8607C12.5125 33.5217 12.1822 32.7106 12.4 31.7796C12.5125 31.2988 12.7905 30.8938 13.0714 30.4932C13.1682 30.3552 13.2638 30.2184 13.3696 30.0656C13.3086 30.0788 13.2529 30.1094 13.2098 30.1536C12.7477 30.4805 12.2981 30.8251 11.7871 31.0806C11.374 31.2873 10.9463 31.4488 10.4701 31.3966C9.95126 31.3417 9.50441 31.0075 9.54943 30.3772C9.5697 30.1449 9.61554 29.9153 9.68618 29.6925C9.71714 29.5903 9.70082 29.5606 9.59277 29.5425C9.46911 29.5262 9.35183 29.479 9.25226 29.4056C9.1527 29.3321 9.0742 29.2349 9.02435 29.1232C8.97482 29.0166 8.99902 28.9869 9.11383 29.0083C9.17346 29.0218 9.23544 29.0218 9.2951 29.0085C9.35476 28.9952 9.41054 28.9688 9.45826 28.9314C9.82857 28.6423 10.1786 28.3335 10.4656 27.9615C10.5977 27.79 10.7315 27.6196 10.8669 27.4504C10.9136 27.3921 10.9738 27.3405 11.029 27.441C11.2096 27.7636 11.3183 28.0966 11.1573 28.461C10.9728 28.8807 10.6477 29.2267 10.2355 29.4425C10.0171 29.5612 10.0104 29.5661 10.0846 29.8013C10.097 29.8453 10.1116 29.8885 10.1285 29.931C10.3401 30.4179 10.9727 30.7399 11.5771 30.658C11.9957 30.598 12.3951 30.4466 12.7455 30.2151C13.3499 29.8244 13.8114 29.2886 14.265 28.7478L14.269 28.744C14.3613 28.6616 14.4468 28.5714 14.5464 28.4984C14.7423 28.3555 14.9437 28.4478 14.9646 28.6847C14.9749 28.7755 14.964 28.8674 14.9328 28.9536C14.9015 29.0397 14.8506 29.1178 14.7839 29.182C14.6241 29.3408 14.4254 29.4419 14.2268 29.5419C14.1142 29.5969 14.0016 29.6518 13.938 29.7661L13.9341 29.7705C13.4996 30.2014 13.2188 30.702 13.1265 31.3092C13.0016 32.1335 13.4045 32.9029 14.18 33.2486C14.3023 33.3072 14.4369 33.337 14.573 33.3355C14.7092 33.3341 14.8431 33.3015 14.964 33.2403C15.2374 33.1078 15.4767 32.9167 15.6641 32.6814C15.6984 32.6391 15.73 32.5715 15.7857 32.5748C15.9449 32.5869 15.9449 32.4798 15.9658 32.3781C15.9789 32.3248 15.9978 32.2731 16.0221 32.2237C16.2759 31.6472 16.9889 31.046 17.8691 31.0834C17.9699 31.0878 18.038 31.0652 18.0824 30.9735C18.1244 30.8908 18.1911 30.8226 18.2738 30.7778C18.4589 30.6745 18.6384 30.7685 18.6542 30.9746C18.6629 31.0846 18.6399 31.1948 18.5878 31.2928C18.5501 31.3642 18.5698 31.3988 18.6356 31.4334C18.8377 31.54 18.9204 31.7132 18.9204 31.9319C18.9165 32.0322 18.9029 32.1319 18.8799 32.2297C18.8636 32.311 18.8365 32.4056 18.9148 32.4594C18.993 32.5133 19.0667 32.4473 19.1365 32.4144C19.347 32.3149 19.5547 32.2105 19.7657 32.1127C19.8068 32.0934 19.8625 32.0401 19.9019 32.1C19.9413 32.1599 19.8726 32.1863 19.8361 32.2176C19.7134 32.322 19.5603 32.388 19.45 32.5078L19.4449 32.5127C19.3324 32.5556 19.2423 32.6397 19.1421 32.7051C18.9136 32.854 18.7054 33.0348 18.4544 33.1485C18.2709 33.2337 18.0717 33.2178 17.9693 33.1139C17.8286 32.9705 17.8697 32.8144 17.9423 32.6578C17.9749 32.5858 18.0064 32.5155 18.0385 32.4451ZM17.8697 31.3818C17.8804 31.2482 17.8804 31.2482 17.7521 31.2548C17.3896 31.2724 17.0142 31.5604 16.927 31.8967C16.8949 32.0187 16.9011 32.1451 17.0035 32.2407C17.0458 32.2846 17.1003 32.3154 17.1604 32.3293C17.2204 32.3432 17.2833 32.3395 17.3412 32.3187C17.5749 32.2352 17.7825 32.0942 17.944 31.9093C17.9639 31.8915 17.9799 31.8699 17.9912 31.8459C18.0025 31.8219 18.0087 31.7959 18.0096 31.7695C18.0105 31.7431 18.006 31.7168 17.9964 31.6921C17.9868 31.6675 17.9722 31.6449 17.9535 31.6258C17.9221 31.5937 17.8983 31.5551 17.884 31.5129C17.8697 31.4707 17.8641 31.4259 17.8697 31.3818Z" fill="#FDF8F8"/>
<path d="M21.6955 32.6353C21.6955 32.6419 21.6916 32.649 21.6904 32.6556C21.6893 32.6622 21.6966 32.6584 21.7 32.6595C21.7024 32.653 21.7043 32.6464 21.7056 32.6397C21.7056 32.6397 21.6995 32.6369 21.6955 32.6353Z" fill="#D23D41"/>
<path d="M40.0626 32.6875C40.0561 32.6833 40.0494 32.6794 40.0424 32.6759C40.0424 32.6759 40.0345 32.6825 40.0351 32.6842C40.0383 32.6902 40.042 32.6959 40.0463 32.7012L40.0626 32.6875ZM40.1189 32.6061L40.1364 32.6199C40.1364 32.6166 40.1437 32.6111 40.1431 32.61C40.1379 32.605 40.1325 32.6002 40.1268 32.5957L40.1189 32.6061ZM40.1938 32.5391L40.1859 32.5336V32.5424L40.1938 32.5391Z" fill="#D23D41"/>
<path d="M23.1453 29.9904C22.9674 30.2651 22.7642 30.4674 22.4958 30.6031C22.3922 30.6577 22.2759 30.6856 22.1581 30.6839C22.0983 30.6853 22.0389 30.675 21.9832 30.6537C21.9275 30.6324 21.8767 30.6005 21.8338 30.5598C21.7909 30.5191 21.7567 30.4705 21.7333 30.4168C21.7098 30.3631 21.6976 30.3054 21.6972 30.247C21.6921 29.9524 21.8278 29.7013 21.9786 29.4584C22.0062 29.4139 22.0518 29.3782 22.108 29.4133C22.1177 29.4201 22.1259 29.4287 22.1321 29.4385C22.1383 29.4484 22.1425 29.4594 22.1443 29.4709C22.1461 29.4823 22.1456 29.494 22.1428 29.5053C22.1399 29.5165 22.1348 29.5271 22.1277 29.5364C22.0799 29.6244 22.0112 29.7051 22.0799 29.8112C22.1619 29.9353 22.289 30.0245 22.4356 30.0607C22.5974 30.1114 22.7721 30.1067 22.9308 30.0475C22.9916 30.0272 23.0558 30.0145 23.1453 29.9904Z" fill="#FDF8F8"/>
<path d="M37.1598 32.1379L37.1643 32.1467L37.1688 32.1379H37.1598Z" fill="#D23D41"/>
<path d="M31.4216 32.9705C30.7288 33.5612 29.2937 33.4239 28.4912 32.6133C27.8918 32.0088 27.4157 31.329 27.1163 30.5366C27.06 30.3844 27.0532 30.3805 26.9418 30.491C26.5676 30.8608 26.1911 31.2285 25.8765 31.6505C25.6232 31.9181 25.3733 32.1891 25.1144 32.4512C24.9169 32.6518 24.7087 32.8435 24.4436 32.9601C24.3801 32.9888 24.3135 33.0102 24.2449 33.0238C24.0024 33.07 23.8251 32.9084 23.8617 32.6699C23.918 32.3072 24.0907 31.9885 24.2753 31.6752C24.326 31.5879 24.38 31.5027 24.4323 31.4164C24.7441 30.9768 25.0554 30.5371 25.366 30.0975C25.3932 30.0548 25.4122 30.0077 25.4223 29.9585C25.4403 29.8859 25.4223 29.8436 25.3294 29.8315C25.0537 29.7958 24.6957 29.3919 24.6856 29.1265C24.6817 29.0248 24.7458 28.9973 24.8195 29.0303C25.1054 29.1595 25.3261 29.0204 25.5484 28.8781C25.9875 28.59 26.3939 28.2569 26.7606 27.8845C26.8067 27.8389 26.8518 27.7928 26.899 27.7482C26.9153 27.7284 26.9374 27.7138 26.9623 27.7067C26.9873 27.6995 27.0139 27.7 27.0386 27.7081C27.0623 27.7187 27.0819 27.7364 27.0946 27.7587C27.1072 27.7809 27.1123 27.8065 27.109 27.8318C27.1129 28.1868 27.0426 28.5214 26.8304 28.8209C26.6243 29.1101 26.3805 29.3717 26.105 29.5991C25.5737 30.0387 25.218 30.6086 24.8359 31.1609C24.7391 31.301 24.6428 31.4417 24.5545 31.5857C24.5201 31.6406 24.4622 31.7104 24.5286 31.7714C24.595 31.8324 24.6597 31.7752 24.7143 31.734C25.0227 31.5038 25.3334 31.2735 25.6367 31.04C26.0869 30.6971 26.5327 30.3508 26.9806 30.0063C27.3093 29.7727 27.6369 29.5375 27.9667 29.3056C28.593 28.866 29.2245 28.4297 29.9297 28.1126C30.2707 27.9587 30.6185 27.8246 31.0074 27.8488C31.3535 27.8702 31.5702 28.0813 31.6084 28.4203C31.639 28.7048 31.5652 28.9907 31.4002 29.227C31.1729 29.5704 30.8744 29.8633 30.524 30.0871C30.4692 30.1219 30.4116 30.1522 30.3517 30.1777C30.282 30.2074 30.1942 30.2761 30.1362 30.1997C30.0782 30.1233 30.1801 30.07 30.2274 30.0239C30.4379 29.814 30.6151 29.5886 30.6489 29.2847C30.6759 29.0435 30.6354 28.8209 30.4519 28.639C30.3926 28.5772 30.3181 28.5311 30.2355 28.5052C30.1529 28.4794 30.0648 28.4745 29.9797 28.4912C29.3888 28.5802 28.8834 28.8451 28.4191 29.1985C28.2238 29.3468 28.0319 29.5002 27.8361 29.6491C27.82 29.6578 27.8058 29.6696 27.7944 29.6838C27.7831 29.6979 27.7747 29.7141 27.7698 29.7315C27.7649 29.7488 27.7637 29.767 27.7661 29.7848C27.7684 29.8026 27.7745 29.8198 27.7837 29.8354C28.2447 30.8652 28.8378 31.8033 29.7664 32.4984C30.0225 32.7011 30.3319 32.8292 30.659 32.8683C31.3805 32.9408 31.9056 32.3638 31.7435 31.6714C31.7326 31.6366 31.7249 31.6009 31.7204 31.5648C31.7204 31.5071 31.7019 31.4334 31.7857 31.4213C31.8533 31.4115 31.8792 31.4681 31.8983 31.5241C31.9575 31.727 31.9652 31.9409 31.9208 32.1473C31.8561 32.4814 31.6597 32.7375 31.4216 32.9705Z" fill="#FDF8F8"/>
<path d="M22.1193 31.7961C22.3084 31.5928 22.4316 31.3417 22.619 31.1367C22.7491 30.9944 22.8959 30.9608 23.0558 31.0471C23.1841 31.1169 23.219 31.212 23.1627 31.3461C23.08 31.5428 22.9173 31.6758 22.7721 31.8253C22.7158 31.8802 22.6596 31.9352 22.6033 31.9901C22.5093 32.1 22.5121 32.1819 22.6213 32.2742C22.8036 32.4286 23.0119 32.4391 23.2263 32.3517C23.393 32.278 23.5465 32.1788 23.681 32.0577C23.7159 32.0286 23.7514 31.9808 23.7998 32.0209C23.8482 32.061 23.8122 32.1149 23.7784 32.1506C23.4221 32.5221 23.0389 32.865 22.5836 33.1178C22.2459 33.3057 21.9268 33.1535 21.7996 32.7677C21.7698 32.677 21.7529 32.5825 21.7293 32.4853C21.6471 32.5259 21.6015 32.5952 21.5464 32.6573C21.3286 32.8952 21.086 33.0969 20.7663 33.1969C20.6797 33.2254 20.5877 33.2349 20.4969 33.2247C20.406 33.2146 20.3186 33.1851 20.2408 33.1382C20.163 33.0914 20.0966 33.0284 20.0465 32.9537C19.9964 32.8791 19.9638 32.7945 19.9509 32.7062C19.9081 32.4413 19.9875 32.2006 20.1 31.9648C20.2857 31.5769 20.5086 31.2142 20.8496 30.935C20.9965 30.8141 21.122 30.8092 21.2436 30.902C21.3057 30.9447 21.3484 31.0092 21.3627 31.0819C21.3771 31.1547 21.3621 31.2301 21.3207 31.2922C21.2261 31.4494 21.0793 31.5571 20.9352 31.6664C20.8466 31.726 20.7623 31.7916 20.6831 31.8626C20.5621 31.9846 20.5671 32.1253 20.6999 32.2347C20.9251 32.4226 21.1929 32.4462 21.4665 32.3572C21.7614 32.261 21.9488 32.0379 22.1148 31.7956L22.1193 31.7961Z" fill="#FDF8F8"/>
<path d="M21.6955 32.6353C21.6995 32.6353 21.7056 32.6386 21.7056 32.6397C21.7043 32.6464 21.7024 32.653 21.7 32.6595C21.6966 32.6595 21.6904 32.6595 21.6904 32.6556C21.6904 32.6518 21.6938 32.6419 21.6955 32.6353Z" fill="#E42126"/>
<path d="M33.6294 31.7395C33.5349 31.6379 33.5304 31.5241 33.5681 31.3955C33.6103 31.251 33.6379 31.1026 33.7245 30.9735C33.8112 30.8443 33.8979 30.8344 34.0138 30.9306C34.0881 30.9927 34.1584 31.0603 34.2294 31.1268C34.4381 31.3219 34.6762 31.423 34.97 31.3532C35.0009 31.3501 35.032 31.3501 35.0628 31.3532C35.0325 31.4386 34.9811 31.5153 34.9132 31.5767C34.8453 31.638 34.7629 31.6821 34.6734 31.7049C34.5085 31.7566 34.4393 31.8412 34.392 32.0099C34.244 32.5732 33.5827 33.2233 32.8725 33.2612C32.2534 33.2942 31.8426 32.8309 31.9675 32.238C32.066 31.7714 32.3851 31.473 32.7487 31.2065C32.9636 31.0415 33.2135 30.9257 33.4803 30.8674C33.5332 30.857 33.6035 30.8322 33.6238 30.9037C33.6441 30.9751 33.5754 30.9933 33.5253 31.018L33.3891 31.0834H33.3801L33.3762 31.0911C33.227 31.146 33.0846 31.2114 32.9822 31.34C32.7571 31.5005 32.6603 31.7939 32.7571 32.0291C32.8193 32.1711 32.9261 32.2902 33.062 32.3692C33.1979 32.4482 33.356 32.4831 33.5135 32.4688C33.8619 32.4418 34.2007 32.183 34.2659 31.8983C34.2845 31.8181 34.2541 31.8016 34.1798 31.8088C33.9924 31.828 33.8061 31.8302 33.6317 31.7434L33.6294 31.7395Z" fill="#FDF8F8"/>
<path d="M33.7223 30.7982C33.7223 30.7982 33.7183 30.8026 33.7155 30.8037C33.7127 30.8048 33.711 30.8004 33.7116 30.7998C33.713 30.7973 33.7149 30.795 33.7172 30.7932L33.7223 30.7982Z" fill="#E42126"/>
<path d="M14.265 28.744L14.2611 28.7363L14.269 28.7402L14.265 28.744Z" fill="#E42126"/>
<path d="M40.0626 32.6875L40.0463 32.7012C40.042 32.6959 40.0383 32.6902 40.0351 32.6842C40.0351 32.6842 40.0413 32.6759 40.0424 32.6759C40.0494 32.6794 40.0561 32.6833 40.0626 32.6875Z" fill="#E42126"/>
<path d="M40.1189 32.604L40.1262 32.5941C40.1319 32.5985 40.1374 32.6033 40.1426 32.6083C40.1426 32.6083 40.1381 32.6149 40.1358 32.6182L40.1189 32.604Z" fill="#E42126"/>
<path d="M40.1938 32.5391L40.1842 32.5424L40.1859 32.5336L40.1938 32.5391Z" fill="#E42126"/>
<path d="M37.7158 35.0477L37.7226 35.0549H37.7108L37.7158 35.0477Z" fill="#E42126"/>
<path d="M37.1598 32.1379H37.1688L37.1643 32.1467L37.1598 32.1379Z" fill="#E42126"/>
<path d="M37.0889 32.2435C37.1052 32.2352 37.1103 32.238 37.1007 32.2555L37.0889 32.2435Z" fill="#E42126"/>
</g>
<defs>
<clipPath id="clip0_853_627">
<rect width="56" height="56" rx="28" fill="white"/>
</clipPath>
</defs>
</svg>
