<svg width="16" height="16" viewBox="0 0 16 16" fill="none" xmlns="http://www.w3.org/2000/svg">

    <defs>
        <linearGradient id="paint0_linear_947_919" x1="12.4561" y1="8.87735" x2="2.52663"
            y2="1.39358" gradientUnits="userSpaceOnUse">
            <stop offset="0.33" stop-color="#9C8837" />
            <stop offset="0.56" stop-color="#F7E59E" />
            <stop offset="0.6" stop-color="#F0DE96" />
            <stop offset="0.67" stop-color="#DECB80" />
            <stop offset="0.75" stop-color="#C1AD5D" />
            <stop offset="0.79" stop-color="#B39F4D" />
        </linearGradient>
        <linearGradient id="paint1_linear_947_919" x1="8.75713" y1="13.7843" x2="-1.17234"
            y2="6.29909" gradientUnits="userSpaceOnUse">
            <stop offset="0.33" stop-color="#9C8837" />
            <stop offset="0.56" stop-color="#F7E59E" />
            <stop offset="0.6" stop-color="#F0DE96" />
            <stop offset="0.67" stop-color="#DECB80" />
            <stop offset="0.75" stop-color="#C1AD5D" />
            <stop offset="0.79" stop-color="#B39F4D" />
        </linearGradient>
        <linearGradient id="paint2_linear_947_919" x1="11.6871" y1="9.89454" x2="1.76123"
            y2="2.40908" gradientUnits="userSpaceOnUse">
            <stop offset="0.33" stop-color="#9C8837" />
            <stop offset="0.56" stop-color="#F7E59E" />
            <stop offset="0.6" stop-color="#F0DE96" />
            <stop offset="0.67" stop-color="#DECB80" />
            <stop offset="0.75" stop-color="#C1AD5D" />
            <stop offset="0.79" stop-color="#B39F4D" />
        </linearGradient>
        <linearGradient id="paint3_linear_947_919" x1="11.7036" y1="9.87486" x2="1.77559"
            y2="2.39109" gradientUnits="userSpaceOnUse">
            <stop offset="0.33" stop-color="#9C8837" />
            <stop offset="0.56" stop-color="#F7E59E" />
            <stop offset="0.6" stop-color="#F0DE96" />
            <stop offset="0.67" stop-color="#DECB80" />
            <stop offset="0.75" stop-color="#C1AD5D" />
            <stop offset="0.79" stop-color="#B39F4D" />
        </linearGradient>
        <clipPath id="clip0_947_919">
            <rect width="15.4286" height="16" fill="white" />
        </clipPath>
    </defs>

    <g clip-path="url(#clip0_947_919)">
        <path
            d="M15.4141 2.72618C15.404 1.79959 15.1166 0.865746 14.302 0.346624C13.4874 -0.172499 12.4546 -0.149296 11.8307 0.620688C11.7801 0.68304 11.6718 0.790343 11.7036 0.881697C11.7354 0.973051 11.9318 0.951302 12.0141 0.991903C12.0786 1.02694 12.1314 1.0803 12.1658 1.1453C12.2002 1.2103 12.2148 1.28405 12.2077 1.35732C12.2077 1.53423 12.2004 3.22355 12.1947 5.55235L6.0706 5.5161C5.98085 4.37684 6.04842 3.23059 6.27137 2.1099C6.32048 1.86339 6.37681 1.61833 6.44036 1.37472C6.50969 1.10791 6.70179 0.780192 6.68157 0.50468C6.68085 0.466472 6.66822 0.429454 6.64546 0.398828C6.59057 0.330675 6.48658 0.342273 6.40136 0.364024C5.87224 0.504416 5.38405 0.769363 4.97723 1.13691C4.67839 1.41327 4.4262 1.73648 4.2305 2.09395C3.44477 3.50631 3.38411 5.5074 3.38411 5.5074C3.34367 6.80086 3.29312 9.42257 4.66525 12.1443C4.66525 12.1443 5.62863 14.0526 7.00366 14.5239C7.2752 14.6167 7.34886 14.5543 7.37341 14.5239C7.48029 14.3861 7.25064 14.1498 7.18276 14.0439C7.05807 13.8486 6.94939 13.6435 6.85778 13.4305C6.67195 12.9889 6.53394 12.5286 6.44614 12.0573C6.13909 10.6356 5.99373 9.18352 6.01283 7.7289H12.1961V13.2058C12.1855 13.3835 12.225 13.5606 12.31 13.7168C12.3951 13.873 12.5223 14.002 12.6771 14.0889C12.8834 14.1822 13.1043 14.2386 13.3299 14.2556C13.7204 14.3173 14.118 14.3173 14.5085 14.2556C14.739 14.2195 14.9547 14.119 15.131 13.9656C15.404 13.7119 15.4083 13.3682 15.4083 13.0216C15.4083 10.2665 15.4329 7.52009 15.43 4.76787C15.4281 4.08924 15.4228 3.40867 15.4141 2.72618Z"
            fill="url(#paint0_linear_947_919)" />
        <path
            d="M6.94447 15.2054C4.45007 14.4803 3.47802 11.8195 2.94361 9.51822C2.82806 9.0165 2.71685 8.52348 2.65474 8.01016C2.45542 6.46294 2.46409 4.76201 2.96383 3.2699C2.58397 3.35545 2.41065 3.68462 2.18822 3.95143C1.37649 4.92587 1.31149 6.06417 1.2725 7.19522C1.20532 8.91243 1.58041 10.618 2.36154 12.1472C2.6835 12.7539 3.07624 13.32 3.53146 13.8336C3.98717 14.3394 4.50446 14.7857 5.07114 15.1619C4.15535 14.936 3.32939 14.4364 2.70241 13.7292C2.44611 13.4008 2.213 13.0549 2.00478 12.6939C1.60903 12.0036 1.11506 11.1423 0.8623 9.9895C0.791527 9.66613 0.743864 9.33696 0.616761 9.32391C0.434773 9.30506 0.226786 9.96049 0.183455 10.1026C0.0695411 10.4589 0.00965135 10.8304 0.00579834 11.2046C0.0159088 12.0747 0.664424 13.7669 2.21855 14.9154C2.21855 14.9154 3.57624 15.9188 5.89876 15.9957C6.27909 15.9986 6.6522 15.8914 6.97335 15.6868C7.17412 15.5418 7.30989 15.3156 6.94447 15.2054Z"
            fill="url(#paint1_linear_947_919)" />
        <path
            d="M2.96234 3.2627C2.9632 3.26602 2.9632 3.26951 2.96234 3.27284H2.97245L2.96234 3.2627Z"
            fill="url(#paint2_linear_947_919)" />
        <path d="M2.96381 3.26405L2.96958 3.26985L2.99847 3.22925L2.96381 3.26405Z"
            fill="url(#paint3_linear_947_919)" />
    </g>

</svg>
