<svg width="56" height="56" viewBox="0 0 56 56" fill="none" xmlns="http://www.w3.org/2000/svg">
<g clip-path="url(#clip0_200_569)">
<rect width="56" height="56" rx="28" fill="#D01012"/>
<circle cx="28" cy="28" r="28" fill="#D01012"/>
<path d="M14.4787 21.2251H45.2413V28.8716L41.1239 35.6358L34.1242 34.8711H10.3025L11.8904 27.9304L14.4787 21.2251Z" fill="white"/>
<path fill-rule="evenodd" clip-rule="evenodd" d="M45.225 28.7734C45.5852 27.7043 45.9939 26.1042 46.0616 24.8205V24.8206C46.1129 23.8522 45.9823 22.4956 45.0677 21.5316C44.3386 20.7622 43.2244 20.3721 41.757 20.3721C39.9039 20.3721 38.4108 21.0277 37.317 22.3214L37.0291 22.6617L36.8372 22.2592C36.6813 21.9312 36.569 21.7971 36.3993 21.6053C35.6523 20.7602 34.4 20.3317 32.6764 20.3317C31.0974 20.3317 29.6712 20.8046 28.6601 21.6639L28.4049 21.8811L28.2285 21.595C27.7504 20.8188 26.5603 20.3172 25.1964 20.3172C23.2347 20.3172 21.2548 20.5831 20.0601 22.5079L19.5663 23.3035L19.5277 22.3679C19.4977 21.6442 19.431 21.3433 19.0939 20.9865C18.7237 20.5943 18.1005 20.4039 17.1893 20.4039C15.8506 20.4039 14.8448 20.9865 14.1135 22.1882C12.9869 23.9872 10.2653 29.9041 10.3256 32.7162C10.3651 34.5402 11.5833 35.6568 13.5842 35.7044C15.2335 35.7431 16.5452 35.3197 17.3777 34.4792L17.5898 34.265L17.7937 34.4866C18.5425 35.2988 19.6806 35.7469 20.9987 35.7469C22.6773 35.7469 24.1126 35.225 24.9368 34.3152L25.1622 34.0664L25.3738 34.3266C26.1456 35.2752 27.3384 35.7723 28.823 35.7655C30.7579 35.7564 32.5661 34.867 33.7828 33.3259L34.1017 32.9218L34.2791 33.4054C35.0279 35.4434 37.06 35.7473 38.2054 35.7473C42.0961 35.7473 43.7761 33.0784 45.225 28.7734ZM45.4838 31.79C46.0221 30.6797 47.0356 27.9011 47.2221 26.4015L47.2247 26.3805C47.4521 24.5509 47.6674 22.8196 46.4335 21.0996C45.5539 19.8755 44.0561 19.0546 41.7796 19.0546C40.0581 19.0546 38.5198 19.5204 37.2917 20.5427C36.2384 19.5016 34.7285 19.0289 32.6961 19.0289C31.1066 19.0289 29.772 19.3916 28.6086 20.0895C27.7663 19.419 26.7759 19 25.1976 19C23.7678 19 21.7596 19.074 20.2446 20.3605C19.8943 19.6465 19.1825 19.0858 17.2191 19.0858C15.4101 19.0858 13.9337 19.9406 12.9665 21.5295C11.6741 23.5935 8.9318 29.5537 9.0013 32.8102C9.05407 35.2616 10.892 36.9501 13.5539 37.013C15.1537 37.0509 16.5166 36.7079 17.5566 36.0178C18.4966 36.6952 19.6977 37.0618 21.0325 37.0618C22.6306 37.0618 24.0727 36.6419 25.1413 35.889C26.1097 36.6563 27.3794 37.0712 28.8163 37.0712C30.6813 37.0712 32.4135 36.4288 33.8129 35.2024C34.7686 36.4203 36.4028 37.0539 38.3896 37.0539C42.1088 37.0539 44.0389 34.7669 45.4838 31.79Z" fill="#F6EC36"/>
<path d="M41.7569 20.0843C39.5983 20.0843 38.1069 20.94 37.0974 22.1355C36.9268 21.7778 36.7971 21.621 36.6147 21.4144C35.7882 20.4803 34.4597 20.0445 32.6766 20.0445C30.9344 20.0445 29.4819 20.5885 28.4735 21.4454C27.9498 20.5938 26.7016 20.03 25.1964 20.03C23.2296 20.03 21.0867 20.3082 19.8152 22.3568C19.7846 21.6192 19.7179 21.2288 19.3034 20.79C18.7994 20.2566 17.984 20.1176 17.1896 20.1176C15.7421 20.1176 14.6539 20.7499 13.8698 22.0374C12.7326 23.8535 9.97638 29.829 10.0385 32.7234C10.0789 34.5928 11.3331 35.94 13.5777 35.9931C15.3316 36.0352 16.7072 35.5661 17.5825 34.6827C18.3678 35.5361 19.5659 36.0365 20.9995 36.0365C22.5959 36.0365 24.2021 35.557 25.151 34.5094C25.9502 35.4912 27.2076 36.0626 28.825 36.0547C30.9394 36.0444 32.7965 35.0416 34.0095 33.5051C34.6751 35.3168 36.3624 36.0365 38.206 36.0365C42.2458 36.0365 44.0197 33.2582 45.4987 28.8662C45.8318 27.8771 46.2764 26.2251 46.3501 24.8374C46.4718 22.5275 45.4947 20.0843 41.7569 20.0843ZM14.8769 31.1272C16.9672 30.7643 17.4926 31.5198 17.4269 32.2197C17.2297 34.3145 15.3078 34.7831 13.639 34.7439C12.4287 34.7144 11.3405 34.1604 11.3101 32.7554C11.2571 30.2972 13.7642 24.6102 14.9444 22.7251C15.4896 21.8302 16.1538 21.3876 17.2129 21.3876C18.2166 21.3876 18.4653 21.9029 18.4506 22.5203C18.4111 24.1672 15.7501 29.1724 14.8769 31.1272ZM21.6835 29.1965C21.5453 29.5708 21.2837 30.3546 21.0717 31.1857C21.7578 31.0141 22.2723 30.8951 23.1537 30.9163C24.1579 30.941 24.7998 31.3571 24.7998 32.1875C24.7998 34.2007 22.5746 34.7919 21.0311 34.7919C19.3364 34.7919 17.8477 33.8269 17.8477 31.9736C17.8477 29.801 19.0255 26.5064 20.1309 24.3116C21.4882 21.6165 22.875 21.2582 25.2639 21.2582C26.3135 21.2582 27.5232 21.7072 27.5232 22.6986C27.5232 24.0724 26.3592 24.5963 25.2053 24.6626C24.7126 24.6909 23.954 24.718 23.5002 24.6859C23.5002 24.6859 23.1163 25.2708 22.7082 26.3134C24.8451 26.0126 25.7513 26.4976 25.3906 27.7337C24.9023 29.4037 23.4554 29.5137 21.6835 29.1965ZM32.1942 24.0007C31.6163 24.0007 31.2383 24.3668 30.9571 24.7619C30.3377 25.6318 28.9957 29.1175 28.7868 30.5495C28.6435 31.5301 29.0671 31.7298 29.5299 31.7298C30.2725 31.7298 31.1051 30.9443 31.3891 29.6483C31.3891 29.6483 29.9755 29.6138 30.3651 28.3602C30.7438 27.1438 31.4622 26.8803 32.653 26.8315C34.999 26.7357 34.7674 28.4678 34.5797 29.3916C33.9699 32.3915 31.835 34.8005 28.8151 34.8005C26.7476 34.8005 25.4642 33.6568 25.4642 31.5487C25.4642 30.0464 26.2095 27.6881 26.8004 26.3081C28.0578 23.3707 29.3765 21.315 32.7361 21.315C34.7518 21.315 36.3416 22.0394 36.1084 23.9277C35.9375 25.3136 35.2438 26.1274 33.9838 26.2259C33.6314 26.2533 32.1895 26.2167 32.6678 24.8527C32.8342 24.3756 32.9032 24.0007 32.1942 24.0007ZM44.8823 26.4799C44.5272 28.2486 43.7283 30.3405 42.8611 31.8996C41.4463 34.4436 39.7277 34.7999 38.2278 34.7819C36.727 34.7639 35.0364 34.2099 35.0234 31.8955C35.0143 30.2339 35.731 27.8885 36.3395 26.3511C37.4 23.564 38.4839 21.2915 41.9101 21.3324C45.9057 21.3799 45.1932 24.9331 44.8823 26.4799ZM41.4929 24.0588C41.1498 24.0541 40.8505 24.1213 40.5814 24.5362C39.977 25.3191 38.2101 30.1475 38.2414 31.1104C38.2526 31.4564 38.4438 31.759 38.8699 31.759C39.3588 31.7597 39.6305 31.4216 39.8706 31.0139C40.4267 30.0729 41.9903 25.805 42.0333 24.7381C42.046 24.4271 41.9941 24.065 41.4929 24.0588Z" fill="black"/>
<path d="M41.7569 20.0843C39.5983 20.0843 38.1069 20.94 37.0974 22.1355C36.9268 21.7778 36.7971 21.621 36.6147 21.4144C35.7882 20.4803 34.4597 20.0445 32.6766 20.0445C30.9344 20.0445 29.4819 20.5885 28.4735 21.4454C27.9498 20.5938 26.7016 20.03 25.1964 20.03C23.2296 20.03 21.0867 20.3082 19.8152 22.3568C19.7846 21.6192 19.7179 21.2288 19.3034 20.79C18.7994 20.2566 17.984 20.1176 17.1896 20.1176C15.7421 20.1176 14.6539 20.7499 13.8698 22.0374C12.7326 23.8535 9.97638 29.829 10.0385 32.7234C10.0789 34.5928 11.3331 35.94 13.5777 35.9931C15.3316 36.0352 16.7072 35.5661 17.5825 34.6827C18.3678 35.5361 19.5659 36.0365 20.9995 36.0365C22.5959 36.0365 24.2021 35.557 25.151 34.5094C25.9502 35.4912 27.2076 36.0626 28.825 36.0547C30.9394 36.0444 32.7965 35.0416 34.0095 33.5051C34.6751 35.3168 36.3624 36.0365 38.206 36.0365C42.2458 36.0365 44.0197 33.2582 45.4987 28.8662C45.8318 27.8771 46.2764 26.2251 46.3501 24.8374C46.4718 22.5275 45.4947 20.0843 41.7569 20.0843ZM14.8769 31.1272C16.9672 30.7643 17.4926 31.5198 17.4269 32.2197C17.2297 34.3145 15.3078 34.7831 13.639 34.7439C12.4287 34.7144 11.3405 34.1604 11.3101 32.7554C11.2571 30.2972 13.7642 24.6102 14.9444 22.7251C15.4896 21.8302 16.1538 21.3876 17.2129 21.3876C18.2166 21.3876 18.4653 21.9029 18.4506 22.5203C18.4111 24.1672 15.7501 29.1724 14.8769 31.1272ZM21.6835 29.1965C21.5453 29.5708 21.2837 30.3546 21.0717 31.1857C21.7578 31.0141 22.2723 30.8951 23.1537 30.9163C24.1579 30.941 24.7998 31.3571 24.7998 32.1875C24.7998 34.2007 22.5746 34.7919 21.0311 34.7919C19.3364 34.7919 17.8477 33.8269 17.8477 31.9736C17.8477 29.801 19.0255 26.5064 20.1309 24.3116C21.4882 21.6165 22.875 21.2582 25.2639 21.2582C26.3135 21.2582 27.5232 21.7072 27.5232 22.6986C27.5232 24.0724 26.3592 24.5963 25.2053 24.6626C24.7126 24.6909 23.954 24.718 23.5002 24.6859C23.5002 24.6859 23.1163 25.2708 22.7082 26.3134C24.8451 26.0126 25.7513 26.4976 25.3906 27.7337C24.9023 29.4037 23.4554 29.5137 21.6835 29.1965ZM32.1942 24.0007C31.6163 24.0007 31.2383 24.3668 30.9571 24.7619C30.3377 25.6318 28.9957 29.1175 28.7868 30.5495C28.6435 31.5301 29.0671 31.7298 29.5299 31.7298C30.2725 31.7298 31.1051 30.9443 31.3891 29.6483C31.3891 29.6483 29.9755 29.6138 30.3651 28.3602C30.7438 27.1438 31.4622 26.8803 32.653 26.8315C34.999 26.7357 34.7674 28.4678 34.5797 29.3916C33.9699 32.3915 31.835 34.8005 28.8151 34.8005C26.7476 34.8005 25.4642 33.6568 25.4642 31.5487C25.4642 30.0464 26.2095 27.6881 26.8004 26.3081C28.0578 23.3707 29.3765 21.315 32.7361 21.315C34.7518 21.315 36.3416 22.0394 36.1084 23.9277C35.9375 25.3136 35.2438 26.1274 33.9838 26.2259C33.6314 26.2533 32.1895 26.2167 32.6678 24.8527C32.8342 24.3756 32.9032 24.0007 32.1942 24.0007ZM44.8823 26.4799C44.5272 28.2486 43.7283 30.3405 42.8611 31.8996C41.4463 34.4436 39.7277 34.7999 38.2278 34.7819C36.727 34.7639 35.0364 34.2099 35.0234 31.8955C35.0143 30.2339 35.731 27.8885 36.3395 26.3511C37.4 23.564 38.4839 21.2915 41.9101 21.3324C45.9057 21.3799 45.1932 24.9331 44.8823 26.4799ZM41.4929 24.0588C41.1498 24.0541 40.8505 24.1213 40.5814 24.5362C39.977 25.3191 38.2101 30.1475 38.2414 31.1104C38.2526 31.4564 38.4438 31.759 38.8699 31.759C39.3588 31.7597 39.6305 31.4216 39.8706 31.0139C40.4267 30.0729 41.9903 25.805 42.0333 24.7381C42.046 24.4271 41.9941 24.065 41.4929 24.0588Z" fill="black"/>
</g>
<defs>
<clipPath id="clip0_200_569">
<rect width="56" height="56" rx="28" fill="white"/>
</clipPath>
</defs>
</svg>
