<svg width="56" height="56" viewBox="0 0 56 56" fill="none" xmlns="http://www.w3.org/2000/svg">
<rect x="0.5" y="0.5" width="55" height="55" rx="27.5" fill="white"/>
<path d="M8 26.4053H9.60806C9.62968 26.6069 9.64971 26.7947 9.67293 27.0137C10.1198 26.5155 10.6518 26.2737 11.293 26.2825C11.9342 26.2914 12.4697 26.5198 12.8821 27.036C13.1058 26.8085 13.3714 26.6268 13.6643 26.5013C14.2538 26.2463 14.9141 26.2083 15.5288 26.394C16.2675 26.6114 16.6724 27.1418 16.8238 27.8784C16.861 28.066 16.8796 28.2569 16.8793 28.4482C16.8844 29.5386 16.882 30.6292 16.882 31.7198C16.882 31.7589 16.8782 31.7978 16.8758 31.8436H15.2058V31.6847C15.2058 30.7053 15.2115 29.7259 15.201 28.7468C15.197 28.5519 15.1603 28.3591 15.0927 28.1764C14.992 27.9022 14.7665 27.7629 14.4787 27.7363C13.7638 27.6707 13.2612 28.1384 13.2561 28.8873C13.25 29.8176 13.2545 30.7479 13.2545 31.6782V31.8433H11.6344V31.6825C11.6344 30.7077 11.64 29.7329 11.6293 28.7581C11.6259 28.5589 11.5892 28.3618 11.521 28.1748C11.4211 27.9001 11.1942 27.7618 10.9051 27.7358C10.1919 27.6717 9.68708 28.1507 9.68281 28.9057C9.67747 29.827 9.6812 30.7484 9.6812 31.6699V31.8538H8.00134L8 26.4053Z" fill="#CC2128"/>
<path d="M27.3936 24.0011V26.6851C27.4168 26.6788 27.4392 26.6698 27.4604 26.6583C28.5474 25.8151 30.153 26.1223 30.8655 27.315C31.2229 27.913 31.3414 28.5686 31.2675 29.2526C31.2366 29.5663 31.1648 29.8746 31.054 30.1695C30.6776 31.1325 29.9235 31.6498 28.9395 31.8484C28.0551 32.0267 27.1798 31.9168 26.3136 31.7056C26.1457 31.6646 25.981 31.6104 25.8131 31.5683C25.7381 31.5496 25.7103 31.5107 25.7191 31.4365C25.7213 31.4008 25.7213 31.365 25.7191 31.3293C25.7191 28.9438 25.7191 26.5583 25.7191 24.1729C25.7191 24.1153 25.7146 24.0576 25.7122 24L27.3936 24.0011ZM27.4107 29.5048H27.3966C27.3966 29.776 27.3998 30.0473 27.3947 30.3185C27.3931 30.4051 27.4214 30.4579 27.506 30.4665C27.7786 30.4946 28.0527 30.5504 28.3237 30.538C28.9005 30.5112 29.2951 30.2027 29.4891 29.6584C29.6401 29.2449 29.6436 28.7916 29.499 28.3758C29.3575 27.9596 29.0922 27.661 28.6296 27.6181C27.9822 27.5581 27.4799 27.8368 27.4155 28.5586C27.3875 28.8717 27.4107 29.189 27.4107 29.5056V29.5048Z" fill="#CC2128"/>
<path d="M34.5162 24.0011C34.5096 24.0263 34.5007 24.0508 34.4895 24.0742C34.2206 24.5353 33.9511 24.9957 33.6809 25.4557C33.6705 25.4734 33.6561 25.4892 33.6337 25.5192C33.6001 25.4632 33.5731 25.4189 33.5469 25.3742C33.3037 24.9603 33.0607 24.5462 32.8182 24.1319C32.7939 24.0901 32.776 24.0448 32.7552 24.0011H34.5162Z" fill="#CC2128"/>
<path d="M24.2226 29.1228C24.2248 30.7806 22.9632 32.0368 21.2945 32.0385C19.6141 32.0403 18.3494 30.7902 18.348 29.1266C18.3467 27.4629 19.5987 26.2254 21.2844 26.2241C22.9701 26.2228 24.2205 27.4565 24.2226 29.1228ZM22.6247 29.1352C22.594 28.955 22.5796 28.7867 22.535 28.6238C22.3797 28.0609 21.9227 27.6991 21.3415 27.6685C20.7871 27.6393 20.3042 27.9505 20.0888 28.4863C20.0039 28.6901 19.9605 28.9089 19.9611 29.1299C19.9617 29.3508 20.0063 29.5694 20.0922 29.7728C20.3138 30.3169 20.7796 30.6192 21.3413 30.5948C21.9029 30.5705 22.3538 30.2231 22.523 29.6605C22.5748 29.489 22.5927 29.3059 22.625 29.1352H22.6247Z" fill="#CC2128"/>
<path d="M41.5838 26.42V31.8433H39.9888L39.9354 31.2805C39.882 31.3301 39.8476 31.3609 39.8134 31.3952C39.1522 32.0336 37.9961 32.1835 37.1974 31.7297C36.5815 31.3794 36.3047 30.8101 36.2858 30.1368C36.2519 28.9272 36.2652 27.7162 36.2591 26.5058C36.2591 26.479 36.2633 26.4538 36.2663 26.4195H37.9357V26.5905C37.9357 27.5517 37.9357 28.513 37.9357 29.4745C37.9335 29.5946 37.9424 29.7147 37.9624 29.8331C38.0852 30.4657 38.7422 30.7525 39.3334 30.4308C39.7694 30.1939 39.9223 29.7948 39.9253 29.3268C39.9309 28.4155 39.9269 27.5021 39.9269 26.5897V26.4203L41.5838 26.42Z" fill="#CC2128"/>
<path d="M47.9944 26.4176C47.9944 26.7929 47.9973 27.1563 47.9907 27.5203C47.9907 27.5645 47.9439 27.613 47.9106 27.6511C47.0786 28.5719 46.2458 29.4921 45.4123 30.4118C45.38 30.4477 45.3485 30.4842 45.2999 30.5396H48V31.8455H43.1852C43.1852 31.6624 43.2057 31.4791 43.1812 31.3019C43.1246 30.8942 43.2759 30.5989 43.5578 30.3032C44.3098 29.515 45.0273 28.6951 45.7588 27.8862C45.7905 27.8508 45.8218 27.8146 45.8751 27.7543H43.3085V26.4182L47.9944 26.4176Z" fill="#CC2128"/>
<path d="M34.5021 31.8447H32.8417V26.4176H34.5021V31.8447Z" fill="#CC2128"/>
<rect x="0.5" y="0.5" width="55" height="55" rx="27.5" stroke="#EAECF0"/>
</svg>
