<svg width="56" height="56" viewBox="0 0 56 56" fill="none" xmlns="http://www.w3.org/2000/svg">
<g clip-path="url(#clip0_200_562)">
<rect width="56" height="56" rx="28" fill="#008938"/>
<circle cx="28" cy="28" r="28" fill="#008938"/>
<path d="M32.097 25.2499H33.984V29.8059C33.984 30.8599 33.236 31.8119 31.655 31.8119C30.975 31.8119 30.448 31.6079 30.074 31.3019C29.7 31.6079 29.19 31.8119 28.561 31.8119C26.878 31.8119 26.181 30.8599 26.181 29.8059V25.2499H28.068V29.7719C28.068 29.9589 28.17 30.1969 28.595 30.1969C29.02 30.1969 29.139 29.9759 29.139 29.7719V25.2499H31.026V29.7719C31.026 29.9589 31.128 30.1969 31.553 30.1969C31.978 30.1969 32.097 29.9759 32.097 29.7719V25.2499ZM42.11 27.7999V25.2499H40.24V27.9699C40.24 28.8709 40.852 29.5509 41.889 29.8399V31.7099H43.81V29.8399C44.864 29.5509 45.442 28.8709 45.442 27.9699V26.9669C45.442 26.8649 45.493 26.8139 45.595 26.8139H46.428V27.6299L48.4 26.0149L46.428 24.3999V25.2159H45.119C44.014 25.2159 43.555 25.8619 43.555 26.7799V27.7999C43.555 28.0379 43.385 28.3269 42.824 28.3269C42.28 28.3269 42.11 28.0379 42.11 27.7999ZM39.764 27.1029V31.7269H37.877V29.8399H36.449V31.7099H34.562V27.1029C34.562 25.9469 35.514 25.0629 37.163 25.0629C38.795 25.0629 39.764 25.9299 39.764 27.1029ZM37.877 28.3609V27.2049C37.877 26.8989 37.656 26.6779 37.163 26.6779C36.653 26.6779 36.449 26.8989 36.449 27.2049V28.3609H37.877Z" fill="white"/>
<path d="M14.264 29.8398C14.264 30.8428 13.686 31.4548 12.768 31.6418C12.513 31.6928 12.088 31.6928 11.799 31.6928L9.57198 31.6758V32.5258L7.59998 30.9108L9.57198 29.2958V30.1458L12.071 30.1628C12.309 30.1628 12.411 30.0268 12.411 29.8908C12.411 29.6358 12.173 29.5508 11.459 29.2108C10.32 28.6668 9.43598 28.2758 9.43598 27.0348C9.43598 26.0658 10.133 25.4028 11.153 25.2668C11.357 25.2328 11.748 25.2328 11.986 25.2328C12.496 25.2328 13.924 25.2668 13.924 25.2668V26.8138L11.578 26.7798C11.374 26.7798 11.272 26.9158 11.272 27.0518C11.272 27.2558 11.442 27.3408 12.105 27.6468C13.499 28.2928 14.264 28.6498 14.264 29.8398ZM17.953 29.7208C17.953 30.0098 17.698 30.2478 17.239 30.2478C16.746 30.2478 16.525 30.0098 16.525 29.7208V25.2498H14.604V29.8738C14.604 30.8938 15.454 31.8628 17.222 31.8628C18.905 31.8628 19.84 30.9108 19.84 29.8738V25.2498H17.953V29.7208ZM25.739 29.7548C25.739 31.0298 24.872 31.7268 23.614 31.7268H20.435V25.2498H23.495C24.872 25.2498 25.569 26.0148 25.569 27.0178C25.569 27.5278 25.331 27.9698 24.855 28.2928C25.416 28.5988 25.739 29.0748 25.739 29.7548ZM22.322 27.8168H23.206C23.546 27.8168 23.699 27.5788 23.699 27.2388C23.699 26.8818 23.546 26.6608 23.206 26.6608H22.322V27.8168ZM23.818 29.6698C23.818 29.2788 23.631 29.0578 23.291 29.0578H22.322V30.2818H23.291C23.648 30.2818 23.818 30.0438 23.818 29.6698Z" fill="#F2B700"/>
</g>
<defs>
<clipPath id="clip0_200_562">
<rect width="56" height="56" rx="28" fill="white"/>
</clipPath>
</defs>
</svg>
