<svg width="56" height="56" viewBox="0 0 56 56" fill="none" xmlns="http://www.w3.org/2000/svg">
<g clip-path="url(#clip0_200_557)">
<circle cx="28" cy="28" r="28" fill="#2E3038"/>
<path d="M38.8638 18.3721L36.3185 15.788L33.586 13.0864H22.4153L19.7531 15.788L17.2083 18.3721H25.3523V41.7111L28.036 44.3644L30.7198 41.7111V18.3721L28.036 15.788L30.7203 18.3721H38.8638Z" fill="white"/>
<path d="M36.2261 20.8976H33.664V31.311L30.9871 33.956L32.8721 35.7858L34.7759 37.6346L38.8725 33.5841L38.8731 20.8976H36.2261ZM22.4099 31.311V20.8976H17.1998V33.5841L21.298 37.6346L23.2018 35.7858L25.0852 33.956L22.4099 31.311Z" fill="white"/>
<path d="M22.0134 11.6639L15.4208 18.2534V34.2267L28.0008 46.5723L40.5803 34.2267V18.2539L33.9882 11.6639H22.0134ZM14.2108 17.4588L21.2225 10.4534L21.4302 10.2447H34.5698L34.7775 10.4534L41.7897 17.4588L42 17.6696V34.8167L41.7871 35.0255L28.4964 48.0686L28.0003 48.5553L27.5036 48.0686L14.2135 35.0255L14 34.8167V17.6696L14.2108 17.4588Z" fill="white"/>
</g>
<defs>
<clipPath id="clip0_200_557">
<rect width="56" height="56" rx="28" fill="white"/>
</clipPath>
</defs>
</svg>
