<svg width="56" height="56" viewBox="0 0 56 56" fill="none" xmlns="http://www.w3.org/2000/svg">
<rect width="56" height="56" rx="28" fill="#009AB1"/>
<path d="M22.2 30.3479C22.2 31.8364 22.1992 33.325 22.1975 34.8135C22.1975 34.9258 22.2267 34.9552 22.3392 34.955C23.7351 34.9511 25.131 34.9511 26.5269 34.955C26.6384 34.955 26.6686 34.9275 26.6681 34.8148C26.6642 33.3956 26.6681 31.9764 26.6622 30.557C26.6622 30.4305 26.6965 30.406 26.8172 30.4055C27.9956 30.3988 29.176 30.4545 30.3508 30.3074C30.9955 30.227 31.6297 30.1027 32.2384 29.8678C33.1403 29.5202 33.7895 28.9265 34.0999 27.9915C34.3038 27.3771 34.3205 26.7439 34.3112 26.1062C34.3112 26.0349 34.2639 26.0327 34.2148 26.0244C32.8558 25.7739 31.4843 25.5958 30.1063 25.4909C29.9186 25.4762 29.921 25.476 29.9181 25.6696C29.911 26.1582 29.9438 26.648 29.8737 27.1351C29.8122 27.5575 29.6136 27.8659 29.1902 28.0022C28.9152 28.0907 28.632 28.1207 28.3459 28.1231C27.8274 28.1273 27.3092 28.1216 26.7907 28.1273C26.688 28.1273 26.663 28.0988 26.6632 27.9983C26.6674 27.1704 26.6649 26.3426 26.6669 25.5147C26.6669 25.4348 26.6644 25.3921 26.5585 25.3948C25.8248 25.421 25.091 25.4487 24.3588 25.5091C23.6797 25.5632 23.0027 25.6337 22.3277 25.7206C22.222 25.7343 22.1975 25.7677 22.1978 25.8699C22.2012 27.3617 22.2019 28.8544 22.2 30.3479ZM37.4785 32.7013C36.7722 32.7013 36.0659 32.7013 35.3597 32.7013C35.3023 32.7013 35.2371 32.6797 35.2371 32.7839C35.2406 33.4161 35.2406 34.0483 35.2371 34.6807C35.2371 34.7451 35.2592 34.7625 35.321 34.7662C36.0743 34.8121 36.8274 34.8611 37.5808 34.9079C38.1591 34.944 38.7374 34.9768 39.3155 35.0143C40.1583 35.069 41.0001 35.1406 41.8457 35.0584C42.499 34.9949 43.1369 34.8702 43.7412 34.6081C44.8086 34.1452 45.5421 33.3811 45.8561 32.2429C46.0103 31.6847 46.0032 31.1152 45.9958 30.543C45.9946 30.4226 45.9574 30.3569 45.851 30.2964C44.4972 29.5255 43.0972 28.8388 41.6589 28.2403C39.5891 27.3796 37.4456 26.7086 35.2545 26.2354C35.1687 26.2168 35.1533 26.2296 35.1771 26.3132C35.2369 26.525 35.3028 26.7343 35.3813 26.94C35.4067 27.013 35.4581 27.0741 35.5257 27.1116C36.5986 27.7397 37.6708 28.3695 38.7423 29.001L41.2414 30.4719C41.2904 30.5003 41.3394 30.5209 41.3394 30.5945C41.3353 30.9208 41.3566 31.2473 41.3348 31.5731C41.2909 32.2264 41.0582 32.4831 40.4118 32.6096C40.0827 32.6706 39.7487 32.7008 39.414 32.6998C38.7685 32.7047 38.1228 32.7013 37.4785 32.7013ZM45.9654 30.1201C45.9654 30.0672 45.9679 30.0316 45.9654 29.9975C45.9252 29.5317 45.8686 29.066 45.811 28.6002C45.8007 28.5171 45.762 28.4734 45.6919 28.4347C44.8688 27.9759 44.0469 27.5155 43.2261 27.0535C42.1023 26.4238 40.9782 25.7946 39.8536 25.1658C39.7825 25.1261 39.7577 25.0815 39.7612 25.0021C39.7683 24.8351 39.7695 24.6684 39.7938 24.5022C39.8572 24.0649 40.0769 23.765 40.5197 23.6498C40.669 23.6093 40.8204 23.5766 40.9732 23.5518C41.4549 23.4782 41.9403 23.4736 42.4262 23.4743C43.361 23.4755 44.2957 23.4743 45.2305 23.4763C45.319 23.4763 45.3582 23.4645 45.3572 23.3593C45.3516 22.7312 45.3526 22.1032 45.3572 21.4751C45.3572 21.389 45.3273 21.3631 45.2491 21.3586C45.0415 21.3474 44.8338 21.3324 44.6264 21.3172C43.8861 21.2631 43.1457 21.2087 42.4054 21.1539C41.7991 21.1098 41.1931 21.064 40.5866 21.0238C39.6606 20.9625 38.7428 21.0076 37.8487 21.2799C37.0243 21.531 36.3111 21.9563 35.7983 22.666C35.1413 23.5751 34.9802 24.6111 35.0552 25.6995C35.0729 25.955 35.0903 25.9538 35.3364 26.0101C35.368 26.0173 35.4002 26.0226 35.432 26.0298C38.9879 26.824 42.357 28.1081 45.5394 29.8821L45.9654 30.1201ZM25.8981 21.1819V21.2032C24.7102 21.2032 23.5225 21.2025 22.3348 21.201C22.2321 21.201 22.1968 21.2194 22.197 21.3327C22.2016 22.6745 22.2016 24.0162 22.197 25.358C22.197 25.4826 22.2387 25.4951 22.3441 25.4806C22.805 25.4225 23.2661 25.3622 23.7285 25.3186C24.6669 25.2301 25.6073 25.1685 26.5504 25.1622C26.6536 25.1622 26.6679 25.1224 26.6674 25.0337C26.6637 24.5566 26.6674 24.0793 26.6634 23.6023C26.6634 23.5042 26.6811 23.4696 26.788 23.4709C27.2981 23.477 27.8083 23.4743 28.3185 23.4736C28.5266 23.4718 28.7344 23.4898 28.9392 23.5272C29.5324 23.6395 29.7906 23.9092 29.8774 24.5079C29.9083 24.7176 29.9217 24.9296 29.9173 25.1416C29.9159 25.2114 29.9306 25.245 30.01 25.2443C30.1081 25.2443 30.2061 25.2575 30.3027 25.2654C30.8911 25.3144 31.4794 25.3723 32.0678 25.4468C32.7869 25.5377 33.5033 25.65 34.217 25.7839C34.296 25.7986 34.3151 25.7839 34.3129 25.7057C34.3031 25.3134 34.3296 24.9229 34.2842 24.5324C34.1962 23.7766 33.9214 23.1063 33.375 22.5636C32.814 22.0068 32.1183 21.6987 31.3681 21.4967C30.4954 21.2618 29.6031 21.1897 28.7029 21.1826C27.7674 21.176 26.8326 21.1819 25.8981 21.1819ZM15.524 21.2233C13.7284 21.2233 11.9325 21.2226 10.1366 21.2211C10.0311 21.2211 9.99903 21.2429 10 21.354C10.0059 22.027 10.0059 22.6999 10 23.3728C10 23.4775 10.0216 23.5098 10.1326 23.5091C11.1407 23.5045 12.149 23.5091 13.1571 23.5037C13.2664 23.5037 13.2914 23.5314 13.2912 23.6385C13.289 25.0009 13.289 26.3629 13.289 27.725C13.289 27.8721 13.289 27.8721 13.4299 27.8147C14.8031 27.2645 16.2082 26.7979 17.6377 26.4173C17.7304 26.3928 17.7566 26.3551 17.7564 26.2609C17.7524 25.384 17.7564 24.5074 17.7517 23.6305C17.7517 23.5268 17.7814 23.5027 17.8816 23.5032C18.8897 23.5069 19.8978 23.5032 20.9061 23.5076C21.0041 23.5076 21.0375 23.4878 21.0365 23.3824C21.0316 22.7053 21.0316 22.0282 21.0365 21.3513C21.0365 21.238 21.0012 21.2201 20.8987 21.2201C19.1075 21.2241 17.3159 21.2251 15.524 21.2233ZM17.7549 30.7975V26.7838C17.7549 26.6262 17.7549 26.6255 17.6078 26.6649C16.1758 27.0507 14.7678 27.5206 13.3912 28.0724C13.3149 28.103 13.2887 28.1376 13.2887 28.2209C13.2913 30.4235 13.2913 32.6261 13.2887 34.8287C13.2887 34.9337 13.3203 34.9547 13.4191 34.9545C14.8194 34.9514 16.2197 34.9514 17.6198 34.9545C17.7377 34.9545 17.7586 34.9175 17.7583 34.8101C17.7532 33.4729 17.7526 32.1353 17.7549 30.7975Z" fill="#FEFFFF"/>
<path d="M22.2 30.3479C22.2 28.8552 22.1992 27.3626 22.1978 25.8699C22.1975 25.7677 22.222 25.7343 22.3277 25.7206C23.0027 25.6337 23.6797 25.5632 24.3588 25.5091C25.091 25.45 25.8248 25.4222 26.5585 25.396C26.6644 25.3923 26.6669 25.436 26.6669 25.5159C26.6649 26.3438 26.6669 27.1716 26.6632 27.9995C26.6632 28.1 26.6877 28.1294 26.7907 28.1285C27.3092 28.1228 27.8274 28.1285 28.3459 28.1243C28.632 28.1218 28.9152 28.0919 29.1902 28.0034C29.6136 27.8659 29.8122 27.5575 29.8737 27.1351C29.9438 26.648 29.911 26.1582 29.9181 25.6696C29.921 25.476 29.9186 25.4762 30.1063 25.4909C31.4843 25.5958 32.8558 25.7739 34.2148 26.0244C34.2639 26.0327 34.3112 26.0349 34.3112 26.1062C34.3205 26.7439 34.3038 27.3771 34.0999 27.9915C33.7895 28.9265 33.1403 29.5202 32.2384 29.8678C31.6297 30.1027 30.9955 30.227 30.3508 30.3074C29.176 30.4545 27.9956 30.3988 26.8172 30.4055C26.6965 30.406 26.6622 30.4305 26.6622 30.557C26.6681 31.9764 26.6642 33.3956 26.6681 34.8148C26.6686 34.9275 26.6384 34.955 26.5269 34.955C25.131 34.9511 23.7351 34.9511 22.3392 34.955C22.2267 34.9552 22.1975 34.9258 22.1975 34.8135C22.2008 33.3246 22.2021 31.8364 22.2 30.3479Z" fill="white"/>
<path d="M37.4785 32.7013C38.1228 32.7013 38.7685 32.7047 39.414 32.6998C39.7487 32.7008 40.0827 32.6706 40.4118 32.6096C41.0582 32.4831 41.2909 32.2264 41.3348 31.5731C41.3566 31.2473 41.3353 30.9208 41.3394 30.5945C41.3394 30.519 41.2904 30.4996 41.2414 30.4719L38.7423 29.001C37.67 28.3705 36.5973 27.7404 35.5242 27.1108C35.4566 27.0733 35.4052 27.0122 35.3798 26.9392C35.3036 26.7348 35.2369 26.525 35.1771 26.3132C35.1533 26.2296 35.1687 26.2168 35.2545 26.2354C37.4465 26.7086 39.5905 27.3799 41.6611 28.241C43.0994 28.8395 44.4994 29.5262 45.8532 30.2971C45.9596 30.3576 45.9968 30.4233 45.998 30.5437C46.0042 31.1151 46.0125 31.6854 45.8583 32.2436C45.5443 33.3818 44.8108 34.1459 43.7434 34.6088C43.1391 34.8709 42.5012 34.9956 41.8479 35.0591C41.0023 35.1413 40.1605 35.0697 39.3177 35.015C38.7396 34.9775 38.1613 34.9446 37.583 34.9086C36.8296 34.8618 36.0765 34.8128 35.3232 34.7669C35.2614 34.7632 35.2391 34.7458 35.2393 34.6814C35.2415 34.0492 35.2415 33.4169 35.2393 32.7846C35.2393 32.6804 35.3036 32.702 35.3619 32.702C36.0681 32.702 36.7744 32.702 37.4807 32.702L37.4785 32.7013Z" fill="white"/>
<path d="M45.9654 30.1201L45.5394 29.8821C42.3589 28.1031 38.9901 26.8188 35.432 26.0298C35.4002 26.0226 35.368 26.0173 35.3364 26.0101C35.0903 25.9538 35.0729 25.955 35.0552 25.6995C34.9802 24.6111 35.1413 23.5751 35.7983 22.666C36.3111 21.9563 37.0243 21.531 37.8487 21.2799C38.7428 21.0076 39.6606 20.9625 40.5866 21.0238C41.1931 21.064 41.7991 21.1098 42.4054 21.1539C43.1457 21.2087 43.8861 21.2631 44.6264 21.3172C44.8338 21.3324 45.0415 21.3474 45.2491 21.3586C45.3273 21.3631 45.3572 21.389 45.3572 21.4751C45.3526 22.1032 45.3516 22.7312 45.3572 23.3593C45.3582 23.4645 45.319 23.4763 45.2305 23.4763C44.2957 23.4743 43.361 23.4755 42.4262 23.4743C41.9403 23.4736 41.4549 23.4782 40.9732 23.5518C40.8204 23.5766 40.669 23.6093 40.5197 23.6498C40.0769 23.765 39.8572 24.0649 39.7938 24.5022C39.7695 24.6684 39.7683 24.8351 39.7612 25.0021C39.7577 25.0815 39.7825 25.1261 39.8536 25.1658C40.9788 25.7931 42.103 26.4223 43.2261 27.0535C44.0475 27.5139 44.8688 27.9742 45.6909 28.4339C45.7602 28.4727 45.7997 28.5163 45.81 28.5994C45.8676 29.0652 45.9243 29.5295 45.9645 29.9968C45.9676 30.0316 45.9654 30.0672 45.9654 30.1201Z" fill="white"/>
<path d="M25.8981 21.1819C26.8326 21.1819 27.7674 21.176 28.7019 21.1836C29.6011 21.1907 30.4944 21.2627 31.3672 21.4976C32.1173 21.6996 32.8136 22.0078 33.374 22.5645C33.9204 23.1073 34.1952 23.7775 34.2832 24.5333C34.3286 24.9238 34.3021 25.3156 34.3119 25.7066C34.3139 25.7851 34.295 25.7995 34.2161 25.7848C33.5028 25.6511 32.7869 25.5378 32.0678 25.4468C31.4812 25.3732 30.893 25.3132 30.3027 25.2654C30.2047 25.2575 30.1066 25.2436 30.01 25.2443C29.9306 25.245 29.9159 25.2114 29.9173 25.1416C29.9217 24.9296 29.9083 24.7176 29.8774 24.5079C29.7906 23.9092 29.5324 23.6395 28.9392 23.5272C28.7344 23.4898 28.5266 23.4718 28.3185 23.4736C27.8083 23.4743 27.2981 23.477 26.788 23.4709C26.6811 23.4709 26.6625 23.5049 26.6634 23.6023C26.6674 24.0793 26.6637 24.5566 26.6674 25.0337C26.6679 25.1224 26.6536 25.1622 26.5504 25.1622C25.6073 25.1685 24.6669 25.2301 23.7285 25.3186C23.2661 25.3622 22.805 25.4225 22.3441 25.4806C22.2387 25.4939 22.197 25.4806 22.197 25.358C22.2016 24.0162 22.2016 22.6745 22.197 21.3327C22.1968 21.2194 22.2321 21.201 22.3348 21.201C23.5226 21.2044 24.7104 21.2052 25.8981 21.2032V21.1819Z" fill="white"/>
<path d="M15.524 21.2233C17.3157 21.2233 19.1075 21.2225 20.8994 21.2211C21.0019 21.2211 21.0382 21.239 21.0372 21.3522C21.0312 22.0293 21.0312 22.7064 21.0372 23.3833C21.0372 23.4887 21.0051 23.5088 20.9068 23.5086C19.8985 23.5049 18.8904 23.5086 17.8824 23.5042C17.7821 23.5042 17.7517 23.5287 17.7524 23.6314C17.7566 24.5083 17.7524 25.385 17.7571 26.2619C17.7571 26.356 17.7311 26.3938 17.6384 26.4183C16.2089 26.7988 14.8038 27.2654 13.4307 27.8156C13.289 27.8708 13.289 27.8711 13.289 27.725C13.289 26.3629 13.2872 25.0009 13.2912 23.6385C13.2914 23.5314 13.2664 23.5037 13.1571 23.5037C12.149 23.5091 11.1407 23.5045 10.1326 23.5091C10.0216 23.5098 10 23.4775 10 23.3728C10.0046 22.6998 10.0046 22.0268 10 21.354C9.99903 21.2429 10.0311 21.2211 10.1366 21.2211C11.9322 21.2244 13.7282 21.2251 15.524 21.2233Z" fill="white"/>
<path d="M17.7549 30.7975C17.7549 32.1352 17.7549 33.4729 17.7564 34.8108C17.7564 34.9182 17.7358 34.9557 17.6178 34.9552C16.2175 34.9508 14.8173 34.9508 13.4172 34.9552C13.3191 34.9552 13.2865 34.9344 13.2867 34.8294C13.2899 32.6267 13.2899 30.4241 13.2867 28.2216C13.2867 28.1383 13.313 28.1037 13.3892 28.0731C14.7658 27.5213 16.1738 27.0514 17.6058 26.6656C17.7529 26.6262 17.7529 26.6269 17.7529 26.7845L17.7549 30.7975Z" fill="white"/>
</svg>
