<svg width="56" height="56" viewBox="0 0 56 56" fill="none" xmlns="http://www.w3.org/2000/svg">
<rect x="0.5" y="0.5" width="55" height="55" rx="27.5" fill="white"/>
<path d="M45.9975 33.3301C45.6338 33.2933 45.2662 33.2804 44.9075 33.2158C44.2658 33.1034 43.9392 32.7737 43.8225 32.1493C43.7834 31.9383 43.7635 31.7244 43.7629 31.5099C43.7584 28.4273 43.7629 25.3447 43.7534 22.2621C43.7534 22.0483 43.8265 21.9832 44.0284 22.0035C44.3264 22.0339 44.6295 22.0383 44.9235 22.0806C45.5792 22.1746 45.8843 22.5127 45.9379 23.168C45.9499 23.3146 45.979 23.4598 46 23.6055L45.9975 33.3301Z" fill="#5D3086"/>
<path d="M10.0034 26.0383C10.0034 24.7983 10.0034 23.5583 10.0034 22.3183C10.0034 22.006 10.0114 21.9971 10.3295 22.0165C10.5534 22.0304 10.7803 22.0438 11.0002 22.0781C11.8788 22.2149 12.2856 22.6449 12.2971 23.526C12.3201 25.3193 12.3116 27.1132 12.3261 28.9066C12.3244 29.2779 12.3508 29.6489 12.4053 30.0163C12.5435 30.8814 13.1416 31.4383 14.0268 31.5004C14.4866 31.5328 14.9625 31.5333 15.4143 31.4542C16.2243 31.3115 16.6666 30.8004 16.7763 29.986C16.8124 29.7072 16.8305 29.4263 16.8304 29.1452C16.8344 26.8638 16.8332 24.5823 16.8269 22.3009C16.8269 22.0523 16.901 21.9757 17.1385 22.0095C17.4676 22.0592 17.8032 22.0672 18.1268 22.1368C18.7069 22.2621 19.0189 22.6529 19.1036 23.2237C19.1385 23.4521 19.1568 23.6827 19.1582 23.9138C19.1617 25.7902 19.1652 27.6666 19.1537 29.543C19.1492 30.1311 19.0241 30.7122 18.786 31.2508C18.3547 32.2368 17.5993 32.8846 16.5769 33.1929C15.2295 33.5996 13.8645 33.6095 12.5195 33.174C11.0708 32.7051 10.2879 31.6585 10.0845 30.1963C9.99384 29.546 10.0164 28.8782 10.0059 28.2185C9.99434 27.4931 10.0034 26.7657 10.0034 26.0383Z" fill="#5D3086"/>
<path d="M37.7283 30.772C37.2364 32.4332 35.942 33.4146 34.2504 33.4708C33.3628 33.5001 32.5022 33.4171 31.7103 32.9821C30.5677 32.3551 29.9696 31.3483 29.7527 30.1108C29.5708 29.0731 29.6555 28.0489 30.1499 27.0948C30.8407 25.7618 31.9532 25.0339 33.456 24.9027C34.7273 24.7913 35.8569 25.1015 36.7435 26.0552C37.4513 26.8134 37.7724 27.7401 37.8746 28.7499C37.8966 28.9712 37.8866 29.1974 37.9021 29.4182C37.9177 29.6389 37.8345 29.7165 37.6016 29.7125C35.8258 29.7036 34.0496 29.7075 32.2738 29.7075C31.8906 29.7075 31.8761 29.7215 31.9287 30.0998C32.0324 30.8496 32.3269 31.4751 33.1199 31.7147C33.989 31.9777 34.8185 31.9041 35.4787 31.2255C35.7973 30.8983 36.1369 30.7512 36.5807 30.7691C36.9539 30.786 37.3266 30.772 37.7283 30.772ZM35.627 28.3134C35.5934 27.1898 34.7564 26.4375 33.6649 26.5325C32.6229 26.6235 31.8115 27.4582 31.9477 28.3134H35.627Z" fill="#5D3086"/>
<path d="M28.6762 27.952C28.1066 27.952 27.5822 27.9609 27.0577 27.948C26.7541 27.9405 26.4861 27.8138 26.398 27.507C26.0724 26.3679 24.1208 26.1352 23.3629 27.2703C22.9542 27.8819 22.8299 28.563 22.8364 29.2745C22.8414 29.814 22.9296 30.3425 23.1721 30.8352C23.6975 31.9042 24.7975 32.0285 25.6346 31.6615C26.0218 31.4915 26.2672 31.1763 26.4065 30.7914C26.5708 30.3375 26.8799 30.1451 27.3582 30.164C27.7986 30.1819 28.2399 30.168 28.7192 30.168C28.7037 30.2908 28.6972 30.3927 28.6762 30.4916C28.3135 32.1925 27.2646 33.181 25.5329 33.4211C24.2535 33.5986 23.0533 33.3967 22.0264 32.5629C21.1604 31.8604 20.7391 30.9222 20.6329 29.8329C20.5402 28.8792 20.6504 27.9515 21.0707 27.0799C21.7219 25.7295 22.8319 25.0379 24.3182 24.9022C25.1627 24.8251 25.9817 24.9216 26.7621 25.2592C27.7875 25.7027 28.4382 26.4559 28.6456 27.5597C28.663 27.6898 28.6732 27.8208 28.6762 27.952Z" fill="#5D3086"/>
<path d="M41.5684 33.3142C41.072 33.3112 40.6016 33.2888 40.1528 33.1153C39.7731 32.9662 39.5447 32.6813 39.4625 32.295C39.3998 32.0215 39.3652 31.7425 39.3593 31.4622C39.3518 28.3965 39.3563 25.3308 39.3488 22.2641C39.3488 22.0503 39.4209 21.9847 39.6228 22.0055C39.9619 22.0408 40.3076 22.0393 40.6407 22.105C41.1917 22.2094 41.4522 22.5127 41.5248 23.0695C41.5555 23.2904 41.5722 23.5129 41.5749 23.7358C41.5786 26.8598 41.5786 29.9833 41.5749 33.1064C41.5779 33.1611 41.5729 33.2182 41.5684 33.3142Z" fill="#5D3086"/>
<rect x="0.5" y="0.5" width="55" height="55" rx="27.5" stroke="#EAECF0"/>
</svg>
