<svg width="56" height="56" viewBox="0 0 56 56" fill="none" xmlns="http://www.w3.org/2000/svg">
<rect x="0.5" y="0.5" width="55" height="55" rx="27.5" fill="white"/>
<path d="M25.9944 12.1097C28.821 11.7797 31.6856 12.1974 34.2953 13.32C36.905 14.4425 39.1663 16.2297 40.8478 18.4989C42.8539 21.1981 43.9556 24.4496 43.9987 27.7982C44.0418 31.1468 43.024 34.4249 41.088 37.1736C39.4278 39.5388 37.148 41.4133 34.4925 42.5966C31.837 43.78 28.9059 44.2275 26.0129 43.8914C27.1025 43.7185 28.1749 43.4528 29.2182 43.0973C30.2824 42.731 31.3067 42.2601 32.2757 41.6917C33.2238 41.1062 34.1117 40.4306 34.9268 39.6745C35.7505 38.9092 36.4848 38.055 37.116 37.128C37.7566 36.2225 38.2984 35.2527 38.7325 34.2346C39.1714 33.209 39.5026 32.1416 39.7209 31.0491C39.935 29.9671 40.031 28.8655 40.0072 27.7632C39.9851 23.9243 38.5353 20.2274 35.9336 17.3762C33.3768 14.4874 29.8443 12.6157 25.9944 12.1097Z" fill="#00ADE5"/>
<path d="M20.4336 13.7983C22.4676 13.5574 24.5302 13.7459 26.485 14.3512C28.4399 14.9566 30.2424 15.9651 31.7734 17.3101C33.3044 18.6551 34.5291 20.3058 35.3664 22.1532C36.2038 24.0007 36.6347 26.0027 36.6307 28.0269C36.6268 30.0511 36.188 32.0515 35.3435 33.8957C34.499 35.7399 33.2679 37.386 31.7316 38.7251C30.1953 40.0642 28.3889 41.0658 26.4317 41.6638C24.4746 42.2617 22.4112 42.4423 20.3782 42.1937C22.2716 41.9585 24.0986 41.3532 25.7528 40.4129C27.4069 39.4727 28.855 38.2163 30.0126 36.7172C31.985 34.2334 33.0379 31.1575 32.9962 28.0005C33.0364 24.52 31.758 21.1503 29.4122 18.5536C27.1035 15.9432 23.9118 14.2528 20.4336 13.7983Z" fill="#00ADE5"/>
<path d="M16.7664 39.6106C18.4596 39.3913 20.0842 38.8107 21.5277 37.9092C22.9712 37.0077 24.199 35.8068 25.1261 34.3897C26.5473 32.3224 27.2329 29.8469 27.0751 27.3525C26.9413 24.6285 25.8314 22.0402 23.9437 20.0505C22.0731 18.0701 19.573 16.7817 16.8588 16.3996C18.5208 16.2079 20.2051 16.3665 21.8006 16.8648C23.3962 17.3631 24.8667 18.1899 26.1153 19.2907C27.3639 20.3914 28.3623 21.7412 29.0445 23.2509C29.7268 24.7607 30.0775 26.3962 30.0736 28.0496C30.0697 29.7031 29.7111 31.3369 29.0217 32.8435C28.3322 34.35 27.3274 35.6951 26.0736 36.79C24.8197 37.885 23.3453 38.7049 21.7474 39.1958C20.1495 39.6867 18.4645 39.8374 16.8034 39.638L16.7664 39.6106Z" fill="#00ADE5"/>
<path d="M14.3463 19.3569C16.032 19.1592 17.7396 19.451 19.2602 20.1966C20.7809 20.9423 22.0489 22.1094 22.9092 23.5555C23.7481 24.9482 24.177 26.5447 24.1476 28.1652C24.1181 29.7857 23.6316 31.3659 22.7427 32.728C21.8538 34.0901 20.5977 35.1801 19.116 35.8752C17.6342 36.5703 15.9855 36.8429 14.3555 36.6625C16.5228 36.3329 18.4937 35.2326 19.8978 33.5683C21.265 31.9549 21.9924 29.9056 21.9449 27.8019C21.8973 25.6981 21.0779 23.6831 19.6392 22.1316C18.2546 20.6273 16.3832 19.6462 14.3463 19.3569Z" fill="#00AEE6"/>
<path d="M12.8036 33.477C15.778 32.7285 17.5793 30.9213 17.5054 27.8089C17.4407 24.8698 15.6579 23.1813 12.8313 22.4693C13.7921 22.3647 14.7636 22.517 15.6443 22.9104C16.5251 23.3038 17.2827 23.9238 17.8379 24.7055C18.5306 25.5627 18.9335 26.6132 18.9899 27.7087C19.0462 28.8042 18.7532 29.8896 18.152 30.8118C17.6268 31.7285 16.8385 32.4709 15.8866 32.9453C14.9347 33.4197 13.8619 33.6047 12.8036 33.477Z" fill="#00AEE6"/>
<path d="M12 31.6515C12.5495 31.2244 12.9937 30.6797 13.2991 30.0583C13.6046 29.437 13.7633 28.7552 13.7633 28.0644C13.7633 27.3736 13.6046 26.6919 13.2991 26.0705C12.9937 25.4492 12.5495 24.9044 12 24.4773C12.7253 24.6751 13.3722 25.087 13.8542 25.6579C14.3362 26.2288 14.6303 26.9314 14.6973 27.6719C14.795 28.5431 14.5779 29.4203 14.0843 30.1486C13.5908 30.8769 12.8525 31.4092 12 31.6515Z" fill="#00AEE6"/>
<rect x="0.5" y="0.5" width="55" height="55" rx="27.5" stroke="#EAECF0"/>
</svg>
