<svg width="56" height="40" viewBox="0 0 56 40" fill="none" xmlns="http://www.w3.org/2000/svg">
    <rect width="56" height="40" rx="8" fill="#3E4551"/>
    <path d="M29.161 21.144L29.2217 29.389C29.224 29.7097 28.966 29.9716 28.6453 29.9739L27.5016 29.9824C27.1809 29.9847 26.919 29.7267 26.9167 29.406L26.856 21.161L18.611 21.2217C18.2903 21.224 18.0284 20.966 18.026 20.6453L18.0176 19.5016C18.0152 19.1809 18.2733 18.919 18.594 18.9167L26.839 18.856L26.7783 10.611C26.7759 10.2903 27.034 10.0284 27.3547 10.026L28.4983 10.0176C28.819 10.0152 29.0809 10.2733 29.0833 10.594L29.144 18.839L37.389 18.7783C37.7097 18.7759 37.9716 19.034 37.9739 19.3547L37.9824 20.4983C37.9847 20.819 37.7267 21.0809 37.406 21.0833L29.161 21.144Z" fill="white"/>
</svg>
