<svg width="32" height="12" viewBox="0 0 32 12" fill="none" xmlns="http://www.w3.org/2000/svg">
<path d="M4.57482 7.94826C4.57182 7.66534 4.48649 7.3802 4.24462 7.22169C4.00276 7.06318 3.69615 7.07027 3.51089 7.30537C3.49588 7.32441 3.46372 7.35717 3.47315 7.38507C3.48259 7.41296 3.54091 7.40632 3.56535 7.41872C3.5845 7.42942 3.60017 7.44571 3.61039 7.46556C3.62061 7.4854 3.62493 7.50792 3.62282 7.53029C3.62282 7.58431 3.62067 8.10012 3.61896 8.81119L1.80071 8.80013C1.77406 8.45227 1.79412 8.10227 1.86031 7.76009C1.8749 7.68482 1.89162 7.60999 1.91049 7.53561C1.93107 7.45414 1.98811 7.35408 1.9821 7.26995C1.98189 7.25829 1.97814 7.24698 1.97138 7.23763C1.95509 7.21682 1.92421 7.22036 1.89891 7.227C1.74181 7.26987 1.59687 7.35077 1.47608 7.46299C1.38735 7.54738 1.31248 7.64607 1.25437 7.75521C1.02109 8.18646 1.00308 8.79747 1.00308 8.79747C0.991072 9.19241 0.976062 9.99292 1.38345 10.824C1.38345 10.824 1.66948 11.4066 2.07773 11.5505C2.15835 11.5789 2.18022 11.5598 2.18751 11.5505C2.21925 11.5085 2.15106 11.4363 2.13091 11.404C2.09389 11.3444 2.06162 11.2817 2.03442 11.2167C1.97925 11.0819 1.93827 10.9413 1.9122 10.7974C1.82104 10.3633 1.77788 9.91993 1.78355 9.47578H3.61939V11.1481C3.61623 11.2023 3.62796 11.2564 3.65321 11.3041C3.67847 11.3518 3.71624 11.3912 3.76219 11.4177C3.82343 11.4462 3.88903 11.4634 3.95602 11.4686C4.07195 11.4875 4.19002 11.4875 4.30595 11.4686C4.37438 11.4576 4.43843 11.4269 4.49077 11.3801C4.57182 11.3026 4.57311 11.1977 4.57311 11.0918C4.57311 10.2506 4.5804 9.41202 4.57954 8.57166C4.57897 8.36445 4.5774 8.15665 4.57482 7.94826Z" fill="white"/>
<path d="M2.06011 11.7586C1.31952 11.5372 1.03091 10.7248 0.872245 10.0221C0.837939 9.86891 0.804919 9.71837 0.786479 9.56164C0.7273 9.08921 0.729873 8.56986 0.87825 8.11426C0.765467 8.14038 0.714007 8.24089 0.647967 8.32235C0.406963 8.61989 0.387665 8.96745 0.376086 9.31281C0.356141 9.83713 0.467507 10.3579 0.699426 10.8248C0.795018 11.0101 0.911622 11.1829 1.04678 11.3398C1.18208 11.4942 1.33566 11.6305 1.50392 11.7453C1.23201 11.6763 0.986783 11.5238 0.800631 11.3079C0.724537 11.2076 0.655326 11.102 0.593504 10.9917C0.476004 10.781 0.329344 10.518 0.254298 10.166C0.233285 10.0673 0.219134 9.96676 0.181397 9.96278C0.127364 9.95702 0.0656119 10.1571 0.0527469 10.2005C0.0189254 10.3093 0.00114397 10.4228 0 10.537C0.00300183 10.8027 0.195548 11.3194 0.656972 11.6701C0.656972 11.6701 1.06007 11.9764 1.74964 11.9999C1.86256 12.0008 1.97334 11.9681 2.06869 11.9056C2.1283 11.8613 2.16861 11.7923 2.06011 11.7586Z" fill="white"/>
<path d="M0.877808 8.11212C0.87813 8.11332 0.87813 8.11458 0.877808 8.11578H0.881617L0.877808 8.11212Z" fill="white"/>
<path d="M0.878296 8.11179L0.879986 8.11351L0.888434 8.10193L0.878296 8.11179Z" fill="white"/>
<path d="M14.0528 7.84958C14.0573 7.71028 14.0461 7.5709 14.0194 7.43427C14.0145 7.39501 14.0045 7.3566 13.9898 7.32004C13.9651 7.25823 13.9233 7.20526 13.8697 7.16773C13.8298 7.14066 13.7832 7.12606 13.7355 7.12567C13.702 7.12567 13.6686 7.12833 13.6352 7.12833C13.5888 7.12833 13.543 7.12833 13.4966 7.12833C13.4066 7.12833 13.3165 7.12833 13.2265 7.13054C13.1865 7.13065 13.1469 7.13901 13.1101 7.15513C13.0733 7.17125 13.0399 7.1948 13.0121 7.22441C12.9434 7.29835 12.8894 7.40372 12.7976 7.62953C12.7822 7.66672 12.7706 7.6986 12.762 7.7203C12.7282 7.79689 12.2436 8.88033 12.0609 9.19424C12.0476 9.21771 12.018 9.26774 11.9803 9.26597C11.9425 9.2642 11.9134 9.21771 11.9001 9.19424C11.7174 8.88033 11.2328 7.79689 11.1985 7.7203C11.1904 7.6986 11.1788 7.66672 11.1634 7.62953C11.0733 7.40372 11.0188 7.29835 10.9489 7.22441C10.9211 7.1948 10.8877 7.17125 10.8509 7.15513C10.8141 7.13901 10.7745 7.13065 10.7345 7.13054C10.6445 7.127 10.5544 7.13054 10.4644 7.12833H10.3259C10.2924 7.12833 10.259 7.12611 10.2255 7.12567C10.1778 7.12606 10.1312 7.14066 10.0913 7.16773C10.0374 7.20499 9.9956 7.25803 9.97121 7.32004C9.95648 7.3566 9.94653 7.39501 9.94162 7.43427C9.91504 7.57093 9.90367 7.71027 9.90774 7.84958L9.80225 11.1946C9.80355 11.2196 9.80831 11.2442 9.8164 11.2677C9.87172 11.4306 10.0737 11.5112 10.2272 11.5134C10.3807 11.5156 10.5703 11.439 10.6359 11.292C10.6444 11.2721 10.6508 11.2513 10.6552 11.23C10.7011 11.0029 10.7277 9.17387 10.7375 8.37691C11.1599 9.27172 11.491 9.93985 11.6437 10.2365C11.675 10.2976 11.7414 10.4194 11.8632 10.4605C11.9373 10.4865 12.0177 10.4865 12.0918 10.4605C12.2136 10.4194 12.28 10.2976 12.3109 10.2365C12.464 9.94162 12.7946 9.27349 13.2175 8.37691C13.2273 9.17387 13.2539 11.0029 13.2998 11.23C13.3042 11.2513 13.3106 11.2721 13.3191 11.292C13.3851 11.4404 13.5717 11.5165 13.7278 11.5134C13.8839 11.5103 14.0829 11.4306 14.1386 11.2677C14.1465 11.2441 14.1512 11.2195 14.1528 11.1946C14.1216 10.0795 14.0883 8.96445 14.0528 7.84958Z" fill="white"/>
<path d="M8.96561 7.2584C8.8777 7.14372 8.72718 7.13974 8.58309 7.13531C8.4463 7.13177 8.27219 7.1269 8.16327 7.25176C8.11602 7.30814 8.0872 7.37849 8.08093 7.45277C8.07836 8.27571 8.07593 9.09865 8.07364 9.92159C8.0758 10.0555 8.04839 10.1881 7.99347 10.3094C7.93856 10.4307 7.8576 10.5374 7.75673 10.6216C7.62097 10.7246 7.46115 10.7887 7.2936 10.8071C7.26701 10.8071 7.23956 10.8107 7.23956 10.8107H7.19668C7.19668 10.8107 7.16881 10.8107 7.14265 10.8071C6.97509 10.7887 6.81527 10.7246 6.67951 10.6216C6.57872 10.5374 6.49784 10.4306 6.443 10.3093C6.38817 10.188 6.36082 10.0554 6.36303 9.92159L6.35531 7.45277C6.34916 7.37854 6.3205 7.3082 6.2734 7.25176C6.16405 7.1269 5.99037 7.13177 5.85315 7.13531C5.70906 7.13974 5.55897 7.14372 5.47106 7.2584C5.42169 7.33097 5.40169 7.42056 5.41531 7.50812V10.0921C5.41807 10.4041 5.51991 10.7066 5.7052 10.9532C5.95607 11.2928 6.31243 11.4442 6.42221 11.4845C6.58638 11.545 6.75724 11.584 6.9308 11.6005C7.12296 11.6147 7.31585 11.6147 7.50801 11.6005C7.68157 11.584 7.85243 11.545 8.01661 11.4845C8.12639 11.4403 8.48275 11.291 8.73319 10.9532C8.91874 10.7068 9.02075 10.4042 9.02351 10.0921V7.50812C9.03651 7.42027 9.01574 7.33065 8.96561 7.2584Z" fill="white"/>
<path d="M18.8956 8.50217C18.7748 8.08657 18.5284 7.7218 18.1923 7.46124C17.8111 7.16197 17.3453 6.99994 16.8664 6.99994C16.3875 6.99994 15.9217 7.16197 15.5404 7.46124C15.2045 7.72196 14.9579 8.08665 14.8367 8.50217C14.4915 9.69319 15.0108 11.2127 16.2519 11.5483C16.6549 11.6434 17.0736 11.6434 17.4766 11.5483C18.7219 11.2127 19.2408 9.69319 18.8956 8.50217ZM17.9732 9.83045C17.8446 10.3941 17.4805 11.0002 16.8664 11.0069C16.2523 11.0002 15.8895 10.3941 15.7596 9.83045C15.6344 9.28674 15.6575 8.64695 15.9521 8.16213C16.0462 7.99832 16.1799 7.86262 16.3402 7.76836C16.5005 7.6741 16.6817 7.62453 16.8662 7.62453C17.0506 7.62453 17.2319 7.6741 17.3922 7.76836C17.5524 7.86262 17.6862 7.99832 17.7802 8.16213C18.0753 8.64828 18.098 9.28806 17.9732 9.83177V9.83045Z" fill="white"/>
</svg>
