<svg width="32" height="12" viewBox="0 0 32 12" fill="none" xmlns="http://www.w3.org/2000/svg">
<path d="M9.32824 9.69547H7.85536V10.7834H7.36438V7.51959H9.32824C9.60315 7.51959 9.83557 7.62476 10.0254 7.8351C10.2152 8.04542 10.3101 8.30291 10.3101 8.60753C10.3101 8.91215 10.2152 9.16963 10.0254 9.37996C9.83557 9.5903 9.60315 9.69547 9.32824 9.69547ZM7.85536 9.1515H9.32824C9.46242 9.1515 9.57693 9.09892 9.67186 8.99375C9.7701 8.88495 9.81915 8.75622 9.81915 8.60753C9.81915 8.45884 9.7701 8.33192 9.67186 8.22675C9.57693 8.11795 9.46242 8.06356 9.32824 8.06356H7.85536V9.1515ZM13.7338 10.7834H13.2428V9.96745H11.2791V10.7834H10.7881V9.1515C10.7881 8.69819 10.9304 8.31378 11.2152 7.99829C11.5032 7.67916 11.8518 7.51959 12.261 7.51959C12.67 7.51959 13.0171 7.67916 13.3018 7.99829C13.5898 8.31378 13.7338 8.69819 13.7338 9.1515V10.7834ZM13.2428 9.42348V9.1515C13.2428 8.84688 13.1479 8.5894 12.9581 8.37906C12.7683 8.16873 12.5359 8.06356 12.261 8.06356C11.986 8.06356 11.7536 8.16873 11.5638 8.37906C11.3739 8.5894 11.2791 8.84688 11.2791 9.1515V9.42348H13.2428ZM16.6665 7.51959H17.1575V8.06356C17.1575 8.46247 17.0413 8.81424 16.8089 9.11886C16.5798 9.42348 16.2868 9.60843 15.9301 9.67371V10.7834H15.4391V9.67371C15.0824 9.60843 14.7878 9.42348 14.5554 9.11886C14.3263 8.81424 14.2118 8.46247 14.2118 8.06356V7.51959H14.7027V8.06356C14.7027 8.36818 14.7976 8.62566 14.9875 8.83599C15.1773 9.04633 15.4097 9.1515 15.6847 9.1515C15.9596 9.1515 16.192 9.04633 16.3818 8.83599C16.5716 8.62566 16.6665 8.36818 16.6665 8.06356V7.51959ZM19.1084 8.06356C18.8301 8.06356 18.5961 8.16873 18.4062 8.37906C18.2197 8.58577 18.1264 8.84325 18.1264 9.1515V10.7834H17.6355V9.1515C17.6355 8.69456 17.7778 8.30835 18.0626 7.99284C18.3473 7.67734 18.696 7.51959 19.1084 7.51959C19.5208 7.51959 19.8693 7.67734 20.1541 7.99284C20.4388 8.30835 20.5812 8.69456 20.5812 9.1515V10.7834H20.0903V9.1515C20.0903 8.84325 19.9953 8.58577 19.8055 8.37906C19.6189 8.16873 19.3865 8.06356 19.1084 8.06356ZM21.5795 8.87952H24.0049V9.42348H21.5795C21.6352 9.66283 21.7514 9.85866 21.9281 10.011C22.1082 10.1633 22.3094 10.2394 22.532 10.2394H24.0049V10.7834H22.532C22.1229 10.7834 21.7743 10.6257 21.4862 10.3101C21.2015 9.99102 21.0591 9.60481 21.0591 9.1515C21.0591 8.69819 21.2015 8.31378 21.4862 7.99829C21.7743 7.67916 22.1229 7.51959 22.532 7.51959H24.0049V8.06356H22.532C22.3094 8.06356 22.1082 8.13972 21.9281 8.29203C21.7514 8.44434 21.6352 8.64016 21.5795 8.87952ZM26.2012 8.06356V10.7834H25.7102V8.06356H24.4828V7.51959H27.4286V8.06356H26.2012Z" fill="white"/>
<path d="M6 9C6 7.34315 4.65685 6 3 6C1.34315 6 0 7.34315 0 9C0 10.6569 1.34315 12 3 12C4.65685 12 6 10.6569 6 9Z" fill="white"/>
</svg>
