<svg width="32" height="12" viewBox="0 0 32 12" fill="none" xmlns="http://www.w3.org/2000/svg">
<path d="M22.3692 7.09455C22.7127 7.09964 23.057 7.07371 23.3999 7.10963C24.257 7.19925 24.8918 7.90233 24.9851 8.86157C25.1251 10.3016 24.2543 11.6071 22.9808 11.8665C22.8106 11.9019 22.6378 11.9198 22.4648 11.9201C21.9177 11.9184 21.3707 11.9184 20.8236 11.9201C20.759 11.9201 20.7437 11.9031 20.7534 11.8314C20.8775 10.8945 21.0004 9.95747 21.1223 9.02048C21.2032 8.40431 21.2867 7.78848 21.3649 7.17198C21.3738 7.10268 21.3981 7.09303 21.4507 7.09354C21.7569 7.09557 22.063 7.09455 22.3692 7.09455ZM22.4164 10.7152V10.7131C22.4691 10.7131 22.5219 10.7131 22.5743 10.7131C22.9624 10.7069 23.2452 10.4986 23.4484 10.1381C23.4946 10.0575 23.5332 9.97163 23.5635 9.88197C23.702 9.46232 23.7067 9.05064 23.5017 8.65251C23.4113 8.47683 23.2757 8.37077 23.1006 8.32452C22.9297 8.27962 22.7567 8.29318 22.5838 8.29064C22.5344 8.29064 22.516 8.30504 22.5085 8.36281C22.4583 8.74738 22.404 9.13128 22.351 9.51484C22.2987 9.89332 22.2476 10.272 22.1923 10.6499C22.1838 10.7074 22.1973 10.7177 22.2431 10.7155C22.3008 10.7126 22.3585 10.7152 22.4164 10.7152Z" fill="white"/>
<path d="M20.3506 11.9148C19.9889 11.9199 19.6377 11.9358 19.2874 11.9124C19.0791 11.8984 18.9432 11.743 18.8542 11.5397C18.7488 11.2961 18.6829 11.0343 18.5981 10.7812C18.5664 10.6864 18.5289 10.5939 18.4972 10.4988C18.4822 10.4531 18.4565 10.4339 18.4143 10.4282C18.2811 10.4095 18.1488 10.426 18.016 10.4358C17.9821 10.4383 17.9708 10.4556 17.9656 10.4929C17.906 10.939 17.8436 11.3845 17.7859 11.8313C17.7775 11.8965 17.7612 11.9204 17.6994 11.9197C17.3176 11.9162 16.9361 11.9158 16.5548 11.9184C16.498 11.9184 16.4819 11.9046 16.4908 11.8382C16.6152 10.9098 16.7382 9.9813 16.8599 9.05267C16.9408 8.43904 17.0305 7.82728 17.1231 7.21585C17.1366 7.12691 17.1616 7.10082 17.2451 7.10184C17.8599 7.10895 18.4749 7.10692 19.0899 7.11099C19.373 7.11285 19.6507 7.15554 19.9134 7.28193C20.361 7.49743 20.5857 7.93266 20.548 8.47767C20.5028 9.13721 20.2014 9.6231 19.7441 10.0048C19.6924 10.048 19.6885 10.0785 19.7113 10.1403C19.9162 10.7006 20.1182 11.2624 20.3209 11.8238C20.3304 11.8486 20.3379 11.875 20.3506 11.9148ZM18.418 9.26851C18.5281 9.27681 18.6381 9.28223 18.7477 9.26106C18.9976 9.21311 19.1769 8.99473 19.1834 8.72807C19.1885 8.51562 19.0853 8.36264 18.904 8.31961C18.7004 8.27115 18.4942 8.30385 18.2894 8.2986C18.2638 8.2986 18.2555 8.31385 18.2523 8.33994C18.2163 8.63269 18.1805 8.92527 18.1428 9.21768C18.1374 9.26038 18.147 9.27139 18.1851 9.26953C18.2626 9.26597 18.3404 9.26851 18.418 9.26851Z" fill="white"/>
<path d="M5.9411 10.698H6.04192C6.48347 10.698 6.92508 10.698 7.36673 10.698C7.40561 10.698 7.43576 10.6955 7.45037 10.7534C7.55225 11.1562 7.72058 11.5228 7.93563 11.8633C7.94121 11.8723 7.94588 11.8821 7.95281 11.8951C7.92493 11.9192 7.89419 11.9099 7.86661 11.9102C6.70983 11.9289 5.55304 11.9177 4.39626 11.9163C4.31352 11.9163 4.23049 11.9143 4.1479 11.9163C4.10797 11.9173 4.08762 11.9099 4.09531 11.8562C4.12681 11.642 4.15016 11.4265 4.20487 11.2175C4.26635 10.9823 4.38119 10.7821 4.52601 10.6028C4.92085 10.1144 5.33739 9.64902 5.74006 9.16872C5.95873 8.90816 6.17936 8.6498 6.39893 8.39025C6.41521 8.37111 6.42997 8.3501 6.4565 8.31554H6.34483C5.813 8.31554 5.28103 8.32842 4.74905 8.30978C4.6511 8.30639 4.65094 8.30639 4.66617 8.2C4.71379 7.86896 4.7492 7.53588 4.80044 7.20535C4.81325 7.12268 4.84836 7.09506 4.91332 7.09354C5.00374 7.0915 5.09416 7.09015 5.18458 7.09015C6.17338 7.09105 7.16203 7.09212 8.15053 7.09337C8.25467 7.09337 8.2521 7.09337 8.23869 7.20552C8.22091 7.3563 8.20584 7.50759 8.19258 7.65905C8.16922 7.92774 8.08618 8.15442 7.91152 8.35671C7.34021 9.01743 6.78337 9.6951 6.2208 10.3668C6.13264 10.4712 6.04463 10.5752 5.9411 10.698Z" fill="white"/>
<path d="M14.6845 7.09066C14.8827 7.09066 15.081 7.09371 15.2792 7.08879C15.3382 7.08727 15.3608 7.10573 15.3717 7.1713C15.5017 7.95502 15.6356 8.73824 15.7656 9.52196C15.8912 10.2782 16.0137 11.035 16.1373 11.7921C16.1389 11.8118 16.1419 11.8312 16.1463 11.8503C16.1665 11.9109 16.141 11.9194 16.094 11.9192C15.7223 11.9177 15.3509 11.9177 14.9799 11.9192C14.9276 11.9192 14.9124 11.8999 14.9071 11.8438C14.892 11.6785 14.8674 11.5141 14.8516 11.3489C14.8466 11.2971 14.8293 11.2846 14.7859 11.2846C14.3519 11.2859 13.9178 11.2856 13.4837 11.2836C13.4371 11.2836 13.4183 11.3044 13.4019 11.3484C13.3383 11.5201 13.2706 11.6898 13.206 11.8613C13.1909 11.9009 13.1727 11.9158 13.1336 11.9155C12.7619 11.9122 12.3906 11.9108 12.0196 11.9112C11.9509 11.9112 11.9484 11.8911 11.9755 11.8265C12.6359 10.2701 13.2989 8.71519 13.9782 7.16876C14.0053 7.10675 14.036 7.0854 14.0974 7.08693C14.2933 7.09184 14.4892 7.08879 14.6851 7.08879L14.6845 7.09066ZM13.8187 10.2089H13.9017C14.1477 10.2089 14.3935 10.2059 14.6393 10.2108C14.7075 10.2123 14.722 10.1939 14.7128 10.1185C14.6595 9.68307 14.6114 9.24682 14.5603 8.81092C14.5445 8.67538 14.5249 8.53985 14.5071 8.40431L14.4899 8.40211C14.2678 9.00049 14.0452 9.59904 13.8187 10.2089Z" fill="white"/>
<path d="M10.223 11.9999C9.9279 11.9983 9.63705 11.9622 9.35524 11.8591C8.54869 11.5636 8.08136 10.7861 8.13576 9.83284C8.20991 8.53714 9.01209 7.43186 10.1297 7.10624C10.7833 6.91582 11.4183 6.97207 12.0165 7.35071C12.1361 7.42836 12.248 7.52014 12.3503 7.62449C12.3804 7.65499 12.3911 7.67616 12.3653 7.7214C12.1712 8.05379 11.9794 8.38777 11.7897 8.72333C11.7595 8.7772 11.7402 8.7711 11.7009 8.73536C11.3287 8.39652 10.9063 8.27115 10.4331 8.36349C9.98095 8.45192 9.57798 8.9373 9.50127 9.48808C9.48419 9.60504 9.48069 9.72401 9.49087 9.84199C9.52101 10.1673 9.67548 10.3968 9.92866 10.5439C10.2602 10.7362 10.6015 10.7167 10.9445 10.5888C11.1658 10.5063 11.3612 10.3675 11.5498 10.2169C11.5936 10.1818 11.6135 10.1746 11.6402 10.2394C11.7666 10.5552 11.8974 10.8697 12.0288 11.1828C12.0451 11.2219 12.0526 11.2485 12.0138 11.2819C11.6262 11.6153 11.2077 11.873 10.7177 11.9595C10.5538 11.9858 10.3885 11.9993 10.223 11.9999Z" fill="white"/>
<path d="M3.72021 10.8902C3.70183 11.0206 3.68405 11.1514 3.67229 11.2827C3.66792 11.3323 3.65119 11.344 3.61201 11.3435C3.48663 11.3422 3.36124 11.3435 3.23526 11.3435C2.88141 11.3605 2.52952 11.3435 2.18502 11.238C2.09852 11.2114 2.02045 11.1734 1.96183 11.0943C1.95393 11.0833 1.9447 11.0735 1.9344 11.0653C1.7195 10.9041 1.68514 10.6545 1.67233 10.3934C1.65169 9.97684 1.71272 9.56855 1.76773 9.15941C1.81188 8.83158 1.85393 8.50342 1.89718 8.17543C1.94239 7.83084 1.98971 7.48641 2.03281 7.14199C2.03989 7.0849 2.07018 7.09252 2.10198 7.09116C2.30769 7.08845 2.5134 7.08388 2.71986 7.08388C3.18146 7.08388 3.64321 7.08811 4.1048 7.08625C4.17187 7.08625 4.18709 7.1076 4.18528 7.18079C4.17639 7.5308 4.125 7.87539 4.07451 8.21863L3.72021 10.8902Z" fill="white"/>
<path d="M2.01322 11.9175H1.8054C1.40137 11.9175 0.997342 11.9175 0.593311 11.9158C0.255288 11.9138 -0.000150635 11.6212 6.66471e-08 11.2429C6.66471e-08 10.0865 6.66471e-08 8.93007 6.66471e-08 7.77374C6.66471e-08 7.38578 0.246698 7.09997 0.594065 7.09472C0.850257 7.09083 1.10645 7.09726 1.36189 7.09252C1.43046 7.09116 1.43799 7.1159 1.4288 7.18299C1.33958 7.8349 1.25193 8.48705 1.16583 9.13941C1.12242 9.47113 1.0626 9.80014 1.04526 10.1361C1.0213 10.6174 1.09605 11.0679 1.38449 11.4498C1.5031 11.6063 1.65711 11.7039 1.81836 11.7921C1.88362 11.8276 1.94932 11.8621 2.01427 11.897L2.01322 11.9175Z" fill="white"/>
</svg>
