<svg width="24" height="24" viewBox="0 0 24 24" fill="none" xmlns="http://www.w3.org/2000/svg">
<path fill-rule="evenodd" clip-rule="evenodd" d="M17 9.29995C18.8225 9.29995 20.2999 7.82249 20.2999 5.99995C20.2999 4.17741 18.8225 2.69995 17 2.69995C15.1774 2.69995 13.7 4.17741 13.7 5.99995C13.7 6.21458 13.7205 6.42465 13.7597 6.62823L8.28193 9.61613C7.68952 9.04893 6.88532 8.69995 5.99995 8.69995C4.17741 8.69995 2.69995 10.1774 2.69995 12C2.69995 13.8225 4.17741 15.3 5.99995 15.3C6.88535 15.3 7.68959 14.9509 8.282 14.3837L13.7598 17.3716C13.7205 17.5752 13.7 17.7853 13.7 18C13.7 19.8225 15.1774 21.2999 17 21.2999C18.8225 21.2999 20.2999 19.8225 20.2999 18C20.2999 16.1774 18.8225 14.7 17 14.7C16.1146 14.7 15.3104 15.0489 14.718 15.6161L9.24017 12.6282C9.27943 12.4246 9.29995 12.2146 9.29995 12C9.29995 11.7853 9.27942 11.5752 9.24015 11.3716L14.718 8.38375C15.3104 8.95096 16.1146 9.29995 17 9.29995ZM18.3 5.99995C18.3 6.71792 17.7179 7.29995 17 7.29995C16.282 7.29995 15.7 6.71792 15.7 5.99995C15.7 5.28198 16.282 4.69995 17 4.69995C17.7179 4.69995 18.3 5.28198 18.3 5.99995ZM7.29995 12C7.29995 12.7179 6.71792 13.3 5.99995 13.3C5.28198 13.3 4.69995 12.7179 4.69995 12C4.69995 11.282 5.28198 10.7 5.99995 10.7C6.71792 10.7 7.29995 11.282 7.29995 12ZM15.7 18C15.7 17.282 16.282 16.7 17 16.7C17.7179 16.7 18.3 17.282 18.3 18C18.3 18.7179 17.7179 19.3 17 19.3C16.282 19.3 15.7 18.7179 15.7 18Z" fill="#3E4551"/>
</svg>
