<svg width="24" height="24" viewBox="0 0 24 24" fill="none" xmlns="http://www.w3.org/2000/svg">
<path d="M12 12C14.525 12 16.5714 9.98555 16.5714 7.5C16.5714 5.01445 14.525 3 12 3C9.475 3 7.42857 5.01445 7.42857 7.5C7.42857 9.98555 9.475 12 12 12ZM15.2 13.125H14.6036C13.8107 13.4836 12.9286 13.6875 12 13.6875C11.0714 13.6875 10.1929 13.4836 9.39643 13.125H8.8C6.15 13.125 4 15.2414 4 17.85V19.3125C4 20.2441 4.76786 21 5.71429 21H18.2857C19.2321 21 20 20.2441 20 19.3125V17.85C20 15.2414 17.85 13.125 15.2 13.125Z" fill="#3E4551"/>
<rect x="14" y="14" width="10" height="10" rx="5" fill="#17A53C"/>
<path fill-rule="evenodd" clip-rule="evenodd" d="M19 16C19.2285 16 19.4138 16.1853 19.4138 16.4138V18.5862H21.5862C21.8147 18.5862 22 18.7715 22 19C22 19.2285 21.8147 19.4138 21.5862 19.4138H19.4138V21.5862C19.4138 21.8147 19.2285 22 19 22C18.7715 22 18.5862 21.8147 18.5862 21.5862V19.4138H16.4138C16.1853 19.4138 16 19.2285 16 19C16 18.7715 16.1853 18.5862 16.4138 18.5862H18.5862V16.4138C18.5862 16.1853 18.7715 16 19 16Z" fill="white" stroke="white" stroke-width="0.4" stroke-linecap="round" stroke-linejoin="round"/>
</svg>
