<svg width="24" height="24" viewBox="0 0 24 24" fill="none" xmlns="http://www.w3.org/2000/svg">
<path fill-rule="evenodd" clip-rule="evenodd" d="M9.15722 20.7714V17.7047C9.1572 16.9246 9.79312 16.2908 10.581 16.2856H13.4671C14.2587 16.2856 14.9005 16.9209 14.9005 17.7047V20.7809C14.9003 21.4432 15.4343 21.9845 16.103 22H18.0271C19.9451 22 21.5 20.4607 21.5 18.5618V9.83784C21.4898 9.09083 21.1355 8.38935 20.538 7.93303L13.9577 2.6853C12.8049 1.77157 11.1662 1.77157 10.0134 2.6853L3.46203 7.94256C2.86226 8.39702 2.50739 9.09967 2.5 9.84736V18.5618C2.5 20.4607 4.05488 22 5.97291 22H7.89696C8.58235 22 9.13797 21.4499 9.13797 20.7714" fill="#3E4551"/>
<rect x="15" y="1" width="8" height="8" rx="4" fill="#17A53C"/>
<path fill-rule="evenodd" clip-rule="evenodd" d="M19.0001 2.59998C19.1829 2.59998 19.3311 2.74818 19.3311 2.93101V4.66894H21.0691C21.2519 4.66894 21.4001 4.81715 21.4001 4.99998C21.4001 5.1828 21.2519 5.33101 21.0691 5.33101H19.3311V7.06894C19.3311 7.25177 19.1829 7.39998 19.0001 7.39998C18.8173 7.39998 18.6691 7.25177 18.6691 7.06894V5.33101H16.9311C16.7483 5.33101 16.6001 5.1828 16.6001 4.99998C16.6001 4.81715 16.7483 4.66894 16.9311 4.66894H18.6691V2.93101C18.6691 2.74818 18.8173 2.59998 19.0001 2.59998Z" fill="white" stroke="white" stroke-width="0.4" stroke-linecap="round" stroke-linejoin="round"/>
</svg>
