<svg width="24" height="24" viewBox="0 0 24 24" fill="none" xmlns="http://www.w3.org/2000/svg">
<path fill-rule="evenodd" clip-rule="evenodd" d="M11.6893 1.55744L11.576 1.59463L11.5274 1.6433C11.4881 1.66427 11.4217 1.70427 11.3573 1.77009L8.72763 4.39972C8.35748 4.76987 8.35715 5.34956 8.72665 5.72009C9.09723 6.0938 9.67916 6.09385 10.0498 5.72025L11.0815 4.68858V13.835C11.0815 14.0801 11.165 14.3236 11.3485 14.507C11.532 14.6905 11.7755 14.7741 12.0205 14.7741C12.2656 14.7741 12.509 14.6905 12.6925 14.507C12.876 14.3236 12.9595 14.0801 12.9595 13.835V4.68858L13.992 5.72108C14.0651 5.79412 14.1582 5.86949 14.2796 5.92351C14.4034 5.97857 14.5292 5.99943 14.6527 5.99943C14.7762 5.99943 14.9021 5.97857 15.0258 5.92351C15.1472 5.86949 15.2403 5.79412 15.3134 5.72108C15.6839 5.3506 15.6839 4.7702 15.3134 4.39972L12.6812 1.76752L12.6774 1.76372C12.6589 1.74514 12.6143 1.70029 12.5631 1.66161C12.5292 1.63599 12.4509 1.57997 12.339 1.55087C12.1135 1.4689 11.8731 1.49708 11.6893 1.55744Z" fill="#3E4551"/>
<path d="M18.163 6.75554H15.519C15.2455 6.75554 15.0228 6.97523 15.019 7.24867L15.007 8.12673C15.0031 8.40553 15.2281 8.63359 15.5069 8.63359H17.663V19.9185H6.37806V8.63359H8.5C8.77614 8.63359 9 8.40974 9 8.13359V7.25554C9 6.9794 8.77614 6.75554 8.5 6.75554H5.87806C5.11957 6.75554 4.5 7.37511 4.5 8.13359V20.4185C4.5 21.177 5.11957 21.7966 5.87806 21.7966H18.163C18.9214 21.7966 19.541 21.177 19.541 20.4185V8.13359C19.541 7.37241 18.9207 6.75554 18.163 6.75554Z" fill="#3E4551"/>
</svg>
