<svg width="24" height="24" viewBox="0 0 24 24" fill="none" xmlns="http://www.w3.org/2000/svg">
<path d="M15.1499 3L19.05 3C19.5672 3 20.0631 3.18965 20.4288 3.52722C20.7946 3.86479 21 4.32263 21 4.80003L21 8.40008" stroke="#3E4551" stroke-width="1.5" stroke-linecap="round" stroke-linejoin="round"/>
<path d="M21 15.5999L21 19.2C21 19.6774 20.7946 20.1352 20.4288 20.4728C20.0631 20.8104 19.5672 21 19.05 21L15.1499 21" stroke="#3E4551" stroke-width="1.5" stroke-linecap="round" stroke-linejoin="round"/>
<path d="M8.85009 21L4.95003 21C4.43285 21 3.93685 20.8104 3.57115 20.4728C3.20545 20.1352 3 19.6774 3 19.2L3 15.5999" stroke="#3E4551" stroke-width="1.5" stroke-linecap="round" stroke-linejoin="round"/>
<path d="M3 8.40008V4.80003C3 4.32263 3.20545 3.86479 3.57115 3.52722C3.93685 3.18965 4.43285 3 4.95003 3H8.85009" stroke="#3E4551" stroke-width="1.5" stroke-linecap="round" stroke-linejoin="round"/>
<rect x="5.43726" y="5.43762" width="5.62509" height="5.62509" rx="1" fill="#3E4551"/>
<rect x="5.43726" y="12.9373" width="5.62509" height="5.62509" rx="1" fill="#3E4551"/>
<rect x="12.9375" y="5.43762" width="5.62509" height="5.62509" rx="1" fill="#3E4551"/>
<rect x="12.9375" y="12.9373" width="5.62509" height="5.62509" rx="1" fill="#3E4551"/>
</svg>
