<svg width="24" height="24" viewBox="0 0 24 24" fill="none" xmlns="http://www.w3.org/2000/svg">
<path fill-rule="evenodd" clip-rule="evenodd" d="M21.3751 3.82619C21.4776 3.92955 21.4776 4.09714 21.3751 4.20051L15.0309 10.5981C15.1085 10.874 15.15 11.1652 15.15 11.4662C15.15 13.2205 13.7397 14.6425 12 14.6425C11.7015 14.6425 11.4128 14.6007 11.1392 14.5225L4.79251 20.9225C4.68999 21.0258 4.52378 21.0258 4.42127 20.9225L3.67881 20.1738C3.5763 20.0704 3.57629 19.9029 3.6788 19.7995L20.2614 3.07753C20.3639 2.97416 20.5301 2.97416 20.6326 3.07753L21.3751 3.82619ZM12 16.7601C11.6909 16.7601 11.388 16.7331 11.0935 16.6815L9.2523 18.5373C10.1135 18.7565 11.032 18.8815 12 18.8815C18.3 18.8815 22.5 13.5877 22.5 11.4701C22.5 10.5289 21.6703 8.96029 20.1952 7.50787L17.1724 10.5545C17.2234 10.8507 17.25 11.1554 17.25 11.4662C17.25 14.3899 14.8995 16.7601 12 16.7601ZM12 6.17242C12.8609 6.17242 13.6735 6.38138 14.3904 6.75174L16.2341 4.89261C14.9704 4.37865 13.5486 4.05877 12 4.05877C5.7 4.05877 1.5 9.35259 1.5 11.4701C1.5 12.617 2.73193 14.6954 4.86218 16.36L7.32466 13.8769C6.95728 13.1539 6.75 12.3345 6.75 11.4662C6.75 8.54255 9.1005 6.17242 12 6.17242ZM8.85 11.4662C8.85 9.71203 10.2603 8.28995 12 8.28995C12.2649 8.28995 12.5222 8.32293 12.768 8.38503L8.94551 12.2456C8.88313 11.9962 8.85 11.7351 8.85 11.4662Z" fill="#3E4551" stroke="#3E4551" stroke-width="0.4"/>
</svg>
