<svg width="24" height="24" viewBox="0 0 24 24" fill="none" xmlns="http://www.w3.org/2000/svg">
<g clip-path="url(#clip0_15_187)">
<path d="M4.58025 21.9996C4.52127 21.9664 4.4619 21.9343 4.40406 21.8995C4.16123 21.7555 4.01263 21.5473 4.00688 21.2547C3.9996 20.8579 3.99539 20.4604 4.00688 20.064C4.0199 19.6857 4.31942 19.3801 4.68634 19.3437C4.77482 19.3351 4.86445 19.3324 4.95445 19.3324C9.54805 19.3324 14.1413 19.3324 18.7341 19.3324C18.8798 19.3277 19.0255 19.3446 19.1665 19.3824C19.3117 19.4246 19.4398 19.5135 19.5318 19.6358C19.6237 19.7581 19.6747 19.9075 19.6771 20.0617C19.6886 20.4326 19.6855 20.8051 19.6843 21.1748C19.6843 21.5548 19.502 21.8122 19.1608 21.9574C19.1407 21.9683 19.1218 21.9814 19.1045 21.9965L4.58025 21.9996Z" fill="#3E4551"/>
<path d="M13.1567 13.3397C13.2452 13.2536 13.2965 13.2063 13.3451 13.1566C14.1597 12.3219 14.9744 11.4882 15.7891 10.6556C16.2468 10.1861 16.6655 10.1892 17.1262 10.6595L17.6667 11.2136C18.0941 11.6522 18.093 12.0951 17.6605 12.5372L12.4983 17.8095C12.4711 17.8369 12.4447 17.8651 12.4167 17.8917C12.0617 18.2294 11.6247 18.2298 11.2753 17.8843C10.9781 17.59 10.6886 17.2872 10.3944 16.9883C8.94408 15.5075 7.4931 14.026 6.04148 12.5439C5.59259 12.0857 5.59451 11.6533 6.04569 11.1913C6.23031 11.0027 6.41454 10.8133 6.59991 10.6255C7.01357 10.206 7.45978 10.2037 7.87037 10.622C8.69997 11.4679 9.52855 12.3148 10.3561 13.1628C10.4055 13.2137 10.4465 13.2728 10.4913 13.328L10.5434 13.3107V13.0936C10.5434 9.68305 10.5434 6.27238 10.5434 2.86157C10.5434 2.40144 10.8176 2.0493 11.216 2.00744C11.369 1.99748 11.5224 1.99539 11.6756 2.00118C11.9111 2.00118 12.1471 1.99844 12.3826 2.00118C12.5753 2.00147 12.7608 2.07594 12.9022 2.20973C13.0435 2.34352 13.1303 2.52681 13.1452 2.72306C13.1548 2.82675 13.1567 2.93122 13.1567 3.03608C13.1567 6.37489 13.1567 9.7137 13.1567 13.0525V13.3397Z" fill="#3E4551"/>
</g>
<defs>
<clipPath id="clip0_15_187">
<rect width="15.6863" height="20" fill="white" transform="translate(4 2)"/>
</clipPath>
</defs>
</svg>
