<svg width="24" height="24" viewBox="0 0 24 24" fill="none" xmlns="http://www.w3.org/2000/svg">
<path d="M19.4648 5.36719C17.6367 3.30469 14.9766 2 12 2C6.67804 2 2.32797 6.15594 2.0177 11.3999C1.99813 11.7307 2.26863 12 2.6 12H3.9C4.23137 12 4.4975 11.7304 4.5236 11.4001C4.82887 7.53644 8.05741 4.5 12 4.5C14.2852 4.5 16.3125 5.53516 17.6836 7.14844L16.3563 8.47574C15.9783 8.85372 16.246 9.5 16.7806 9.5H21.4C21.7314 9.5 22 9.23137 22 8.9V4.28056C22 3.74602 21.3537 3.47832 20.9757 3.8563L19.4648 5.36719ZM12 19.5C9.71484 19.5 7.6875 18.4648 6.31641 16.8516L7.64371 15.5243C8.02168 15.1463 7.75398 14.5 7.21944 14.5H2.6C2.26863 14.5 2 14.7686 2 15.1V19.7194C2 20.254 2.64629 20.5217 3.02426 20.1437L4.53516 18.6328C6.36328 20.6953 9.02734 22 12 22C17.322 22 21.672 17.8441 21.9823 12.6001C22.0019 12.2693 21.7314 12 21.4 12H20.1C19.7686 12 19.5025 12.2696 19.4764 12.5999C19.1711 16.4636 15.9426 19.5 12 19.5Z" fill="#3E4551"/>
</svg>
