<svg width="24" height="24" viewBox="0 0 24 24" fill="none" xmlns="http://www.w3.org/2000/svg">
<path d="M17.6003 1.99988H15.8406C15.3767 1.99988 15 2.35947 15 2.80343C15 3.24634 15.3767 3.60488 15.8406 3.60488H17.6003C19.0993 3.60488 20.3188 4.76909 20.3188 6.20009V8.19632C20.3188 8.63923 20.6954 8.99988 21.1594 8.99988C21.6244 8.99988 22 8.63923 22 8.19632V6.20009C22 3.88328 20.0271 1.99988 17.6003 1.99988Z" fill="#3E4551"/>
<path d="M17.6003 22.0001H15.8406C15.3767 22.0001 15 21.6405 15 21.1966C15 20.7537 15.3767 20.3951 15.8406 20.3951H17.6003C19.0993 20.3951 20.3188 19.2309 20.3188 17.7999V15.8037C20.3188 15.3608 20.6954 15.0001 21.1594 15.0001C21.6244 15.0001 22 15.3608 22 15.8037V17.7999C22 20.1167 20.0271 22.0001 17.6003 22.0001Z" fill="#3E4551"/>
<path d="M8.99951 2.80343C8.99951 2.35947 8.62449 1.99988 8.16259 1.99988H8.16149L6.36998 2.00093C3.96039 2.00304 1.99951 3.88539 1.99951 6.19693V8.19632C1.99951 8.63923 2.37453 8.99988 2.83643 8.99988C3.29833 8.99988 3.67445 8.63923 3.67445 8.19632V6.19693C3.67445 4.77014 4.88419 3.6091 6.37107 3.60699L8.16259 3.60593C8.62559 3.60593 8.99951 3.24634 8.99951 2.80343Z" fill="#3E4551"/>
<path d="M8.99951 21.1966C8.99951 21.6405 8.62449 22.0001 8.16259 22.0001H8.16149L6.36998 21.9991C3.96039 21.997 1.99951 20.1146 1.99951 17.8031V15.8037C1.99951 15.3608 2.37453 15.0001 2.83643 15.0001C3.29833 15.0001 3.67445 15.3608 3.67445 15.8037V17.8031C3.67445 19.2299 4.88419 20.3909 6.37107 20.393L8.16259 20.3941C8.62559 20.3941 8.99951 20.7537 8.99951 21.1966Z" fill="#3E4551"/>
<path d="M6 15.375C6 15.9961 6.44792 16.5 7 16.5H17C17.5521 16.5 18 15.9961 18 15.375V11.25H6V15.375ZM10 13.7812C10 13.6266 10.1125 13.5 10.25 13.5H13.0833C13.2208 13.5 13.3333 13.6266 13.3333 13.7812V14.7188C13.3333 14.8734 13.2208 15 13.0833 15H10.25C10.1125 15 10 14.8734 10 14.7188V13.7812ZM7.33333 13.7812C7.33333 13.6266 7.44583 13.5 7.58333 13.5H9.08333C9.22083 13.5 9.33333 13.6266 9.33333 13.7812V14.7188C9.33333 14.8734 9.22083 15 9.08333 15H7.58333C7.44583 15 7.33333 14.8734 7.33333 14.7188V13.7812ZM18 8.625V9.75H6V8.625C6 8.00391 6.44792 7.5 7 7.5H17C17.5521 7.5 18 8.00391 18 8.625Z" fill="#3E4551"/>
</svg>
