<svg width="24" height="24" viewBox="0 0 24 24" fill="none" xmlns="http://www.w3.org/2000/svg">
<path fill-rule="evenodd" clip-rule="evenodd" d="M18.4424 12.7348L14.1892 16.6609C13.9863 16.8482 13.9736 17.1645 14.1609 17.3674L14.8392 18.1022C15.0265 18.3051 15.3428 18.3178 15.5457 18.1305L22.0763 12.1022C22.2908 11.9042 22.2908 11.5654 22.0763 11.3674L15.5457 5.33914C15.3428 5.15184 15.0265 5.16449 14.8392 5.3674L14.1609 6.10221C13.9736 6.30512 13.9863 6.62144 14.1892 6.80875L18.4424 10.7348H2.50005C2.22391 10.7348 2.00005 10.9587 2.00005 11.2348V12.2348C2.00005 12.5109 2.22391 12.7348 2.50005 12.7348H18.4424Z" fill="#3E4551"/>
</svg>
