<svg width="16" height="16" viewBox="0 0 16 16" fill="none" xmlns="http://www.w3.org/2000/svg">
<path d="M8.94036 7.99312L12.3288 11.332C12.4606 11.4619 12.4621 11.674 12.3323 11.8058L11.8691 12.2758C11.7393 12.4076 11.5271 12.4091 11.3953 12.2793L8.00694 8.94039L4.66807 12.3288C4.5382 12.4606 4.32607 12.4622 4.19428 12.3323L3.72429 11.8692C3.59249 11.7393 3.59093 11.5272 3.7208 11.3954L7.05967 8.00697L3.67126 4.6681C3.53946 4.53823 3.5379 4.3261 3.66777 4.19431L4.13089 3.72432C4.26076 3.59252 4.47288 3.59096 4.60468 3.72083L7.99309 7.0597L11.332 3.67129C11.4618 3.53949 11.674 3.53793 11.8057 3.6678L12.2757 4.13092C12.4075 4.26079 12.4091 4.47291 12.2792 4.60471L8.94036 7.99312Z" fill="#3E4551"/>
</svg>
