<svg width="76" height="76" viewBox="0 0 76 76" fill="none" xmlns="http://www.w3.org/2000/svg">
<rect width="76" height="76" rx="38" fill="#17A53C"/>
<path fill-rule="evenodd" clip-rule="evenodd" d="M34.9684 43.6842L34.9684 20.9474L41.0316 20.9474L41.0316 43.6842L34.9684 43.6842Z" fill="white"/>
<mask id="path-3-inside-1_168_291" fill="white">
<ellipse cx="38" cy="51.2632" rx="3.78947" ry="3.78947"/>
</mask>
<ellipse cx="38" cy="51.2632" rx="3.78947" ry="3.78947" fill="white"/>
<path d="M37.7895 51.2632C37.7895 51.1469 37.8837 51.0526 38 51.0526V59.0526C42.302 59.0526 45.7895 55.5652 45.7895 51.2632H37.7895ZM38 51.0526C38.1163 51.0526 38.2105 51.1469 38.2105 51.2632H30.2105C30.2105 55.5652 33.698 59.0526 38 59.0526V51.0526ZM38.2105 51.2632C38.2105 51.3794 38.1163 51.4737 38 51.4737V43.4737C33.698 43.4737 30.2105 46.9612 30.2105 51.2632H38.2105ZM38 51.4737C37.8837 51.4737 37.7895 51.3794 37.7895 51.2632H45.7895C45.7895 46.9612 42.302 43.4737 38 43.4737V51.4737Z" fill="white" mask="url(#path-3-inside-1_168_291)"/>
</svg>
