<svg width="24" height="24" viewBox="0 0 24 24" fill="none" xmlns="http://www.w3.org/2000/svg">
<mask id="mask0" mask-type="alpha" maskUnits="userSpaceOnUse" x="0" y="0" width="24" height="24">
<rect width="24" height="24" fill="#C4C4C4"/>
</mask>
<g mask="url(#mask0)">
<path fill-rule="evenodd" clip-rule="evenodd" d="M7.21053 2.5H13.8555C14.5883 2.5 15.2911 2.79112 15.8093 3.30931L19.6763 7.17628C19.8836 7.38355 20 7.66468 20 7.95781L20 16.0177C19.6325 15.4079 18.9639 15 18.2 15C17.987 15 17.7814 15.0317 17.5877 15.0907C17.4675 15.0216 17.3281 14.9821 17.1795 14.9821H7.8205C7.36734 14.9821 6.99998 15.3494 6.99998 15.8026C6.99998 16.2557 7.36734 16.6231 7.8205 16.6231H16.1544C16.1188 16.7763 16.1 16.936 16.1 17.1V18.1H15.1C13.9402 18.1 13 19.0402 13 20.2C13 20.6909 13.1684 21.1424 13.4506 21.5H7.21053C5.98969 21.5 5 20.5103 5 19.2895L5 4.71052C5 3.48968 5.98969 2.5 7.21053 2.5ZM7.8205 7.5C7.36734 7.5 6.99998 7.86736 6.99998 8.32051C6.99998 8.77367 7.36734 9.14103 7.8205 9.14103H17.1795C17.6326 9.14103 18 8.77367 18 8.32051C18 7.86736 17.6326 7.5 17.1795 7.5H7.8205ZM6.99998 12.0615C6.99998 11.6084 7.36734 11.241 7.8205 11.241H17.1795C17.6326 11.241 18 11.6084 18 12.0615C18 12.5147 17.6326 12.8821 17.1795 12.8821H7.8205C7.36734 12.8821 6.99998 12.5147 6.99998 12.0615Z" fill="black"/>
<path d="M18.2143 17.5V20.2143M18.2143 22.9286V20.2143M18.2143 20.2143H15.5H20.9286" stroke="black" stroke-width="2" stroke-linecap="round" stroke-linejoin="round"/>
</g>
</svg>
