<svg width="40" height="40" viewBox="4 4 30 30" fill="none" xmlns="http://www.w3.org/2000/svg">
<path d="M15.2943 12.6598C15.0824 12.6598 14.9106 12.8315 14.9106 13.0434C14.9106 13.5088 14.532 13.8875 14.0666 13.8875C13.6012 13.8875 13.2226 13.5088 13.2226 13.0434C13.2226 12.5781 13.6012 12.1994 14.0666 12.1994C14.2784 12.1994 14.4502 12.0277 14.4502 11.8158C14.4502 11.6039 14.2785 11.4321 14.0666 11.4321C13.1781 11.4321 12.4553 12.155 12.4553 13.0434C12.4553 13.9318 13.1782 14.6547 14.0666 14.6547C14.955 14.6547 15.6779 13.9318 15.6779 13.0434C15.6779 12.8315 15.5061 12.6598 15.2943 12.6598Z" fill="#ffffff"/>
<path d="M15.2943 17.1611C15.0824 17.1611 14.9106 17.3329 14.9106 17.5448C14.9106 18.0102 14.532 18.3888 14.0666 18.3888C13.6012 18.3888 13.2226 18.0102 13.2226 17.5448C13.2226 17.0794 13.6012 16.7008 14.0666 16.7008C14.2784 16.7008 14.4502 16.529 14.4502 16.3171C14.4502 16.1052 14.2785 15.9335 14.0666 15.9335C13.1781 15.9335 12.4553 16.6563 12.4553 17.5447C12.4553 18.4332 13.1782 19.156 14.0666 19.156C14.955 19.156 15.6779 18.4332 15.6779 17.5447C15.6779 17.3329 15.5061 17.1611 15.2943 17.1611Z" fill="#ffffff"/>
<path d="M19.7953 17.9795H16.9308C16.7189 17.9795 16.5471 18.1512 16.5471 18.3631C16.5471 18.575 16.7189 18.7468 16.9308 18.7468H19.7953C20.0071 18.7468 20.1789 18.575 20.1789 18.3631C20.1789 18.1512 20.0072 17.9795 19.7953 17.9795Z" fill="#ffffff"/>
<path d="M19.7953 16.3428H16.9308C16.7189 16.3428 16.5471 16.5145 16.5471 16.7264C16.5471 16.9383 16.7189 17.1101 16.9308 17.1101H19.7953C20.0071 17.1101 20.1789 16.9383 20.1789 16.7264C20.1789 16.5145 20.0072 16.3428 19.7953 16.3428Z" fill="#ffffff"/>
<path d="M18.9768 22.4808H16.9308C16.7189 22.4808 16.5471 22.6526 16.5471 22.8645C16.5471 23.0764 16.7189 23.2481 16.9308 23.2481H18.9768C19.1887 23.2481 19.3605 23.0764 19.3605 22.8645C19.3605 22.6526 19.1887 22.4808 18.9768 22.4808Z" fill="#ffffff"/>
<path d="M19.7953 20.8441H16.9308C16.7189 20.8441 16.5471 21.0159 16.5471 21.2278C16.5471 21.4397 16.7189 21.6114 16.9308 21.6114H19.7953C20.0071 21.6114 20.1789 21.4397 20.1789 21.2278C20.1789 21.0159 20.0072 20.8441 19.7953 20.8441Z" fill="#ffffff"/>
<path d="M23.4782 13.4781H16.9308C16.7189 13.4781 16.5471 13.6499 16.5471 13.8618C16.5471 14.0737 16.7189 14.2455 16.9308 14.2455H23.4782C23.69 14.2455 23.8618 14.0737 23.8618 13.8618C23.8618 13.6499 23.6901 13.4781 23.4782 13.4781Z" fill="#ffffff"/>
<path d="M21.8413 11.8413H16.9308C16.7189 11.8413 16.5471 12.0131 16.5471 12.225C16.5471 12.4369 16.7189 12.6086 16.9308 12.6086H21.8413C22.0532 12.6086 22.225 12.4369 22.225 12.225C22.225 12.0131 22.0532 11.8413 21.8413 11.8413Z" fill="#ffffff"/>
<path d="M15.2943 21.6625C15.0824 21.6625 14.9106 21.8342 14.9106 22.0461C14.9106 22.5115 14.532 22.8901 14.0666 22.8901C13.6012 22.8901 13.2226 22.5115 13.2226 22.0461C13.2226 21.5807 13.6012 21.2021 14.0666 21.2021C14.2784 21.2021 14.4502 21.0304 14.4502 20.8185C14.4502 20.6066 14.2785 20.4348 14.0666 20.4348C13.1781 20.4348 12.4553 21.1577 12.4553 22.0461C12.4553 22.9345 13.1782 23.6574 14.0666 23.6574C14.955 23.6574 15.6779 22.9345 15.6779 22.0461C15.6779 21.8342 15.5061 21.6625 15.2943 21.6625Z" fill="#ffffff"/>
<path d="M25.1151 7.74927H11.2018C10.539 7.74927 9.99976 8.28849 9.99976 8.95133V26.1383C9.99976 26.8011 10.539 27.3403 11.2018 27.3403H18.1585C18.3703 27.3403 18.5421 27.1686 18.5421 26.9567C18.5421 26.7448 18.3704 26.573 18.1585 26.573H11.2018C10.9621 26.573 10.767 26.378 10.767 26.1382V8.95133C10.767 8.71158 10.9621 8.51652 11.2018 8.51652H25.1151C25.3548 8.51652 25.5499 8.71158 25.5499 8.95133V21.637C25.5499 21.8489 25.7216 22.0207 25.9335 22.0207C26.1454 22.0207 26.3172 21.8489 26.3172 21.637V8.95133C26.3171 8.28849 25.7779 7.74927 25.1151 7.74927Z" fill="#ffffff"/>
<path d="M28.7372 23.3065C28.3806 23.271 28.0242 23.372 27.7422 23.5862C27.5175 23.2092 27.1344 22.9417 26.6911 22.8973C26.3344 22.8618 25.9781 22.9629 25.6961 23.177C25.4714 22.8 25.0883 22.5325 24.645 22.4881C24.3727 22.4609 24.1008 22.5134 23.8619 22.635V17.7494C23.8619 17.3527 23.6931 16.9725 23.3988 16.7062C23.1047 16.4401 22.7084 16.3102 22.3115 16.3499C21.6033 16.4208 21.0485 17.0612 21.0485 17.8078V22.7057L19.9208 23.8334C19.3215 24.4327 19.0796 25.283 19.2737 26.108L20.1299 29.7468C20.4768 31.2212 21.777 32.251 23.2917 32.251H26.7519C28.5429 32.251 30 30.7939 30 29.0028V24.7645C30.0001 24.0178 29.4454 23.3774 28.7372 23.3065ZM29.2328 29.0027C29.2328 30.3706 28.1199 31.4836 26.7519 31.4836H23.2917C22.1348 31.4836 21.1417 30.6971 20.8768 29.5709L20.0206 25.9322C19.8878 25.3677 20.0533 24.7859 20.4633 24.3759L21.0485 23.7907V25.1152C21.0485 25.327 21.2203 25.4988 21.4322 25.4988C21.6441 25.4988 21.8158 25.3271 21.8158 25.1152V17.8077C21.8158 17.4505 22.0671 17.1455 22.388 17.1134C22.5723 17.0949 22.7485 17.1524 22.884 17.2751C23.0179 17.3962 23.0946 17.5691 23.0946 17.7494V24.5015C23.0946 24.7133 23.2664 24.8851 23.4783 24.8851C23.6902 24.8851 23.862 24.7134 23.862 24.5015V23.8876C23.862 23.7073 23.9387 23.5344 24.0726 23.4133C24.2082 23.2906 24.3843 23.233 24.5686 23.2516C24.8894 23.2837 25.1408 23.5887 25.1408 23.946V24.9106C25.1408 25.1224 25.3125 25.2942 25.5244 25.2942C25.7363 25.2942 25.9081 25.1225 25.9081 24.9106V24.2967C25.9081 24.1164 25.9848 23.9435 26.1187 23.8224C26.2543 23.6997 26.4305 23.6422 26.6147 23.6607C26.9356 23.6928 27.1869 23.9978 27.1869 24.3551V25.3197C27.1869 25.5316 27.3586 25.7034 27.5705 25.7034C27.7824 25.7034 27.9542 25.5316 27.9542 25.3197V24.7059C27.9542 24.5256 28.0309 24.3527 28.1648 24.2316C28.3004 24.1089 28.4765 24.0513 28.6609 24.0699C28.9817 24.102 29.233 24.407 29.233 24.7642V29.0027H29.2328Z" fill="#ffffff"/>
</svg>