<svg width="40" height="40" viewBox="0 0 40 40" fill="none" xmlns="http://www.w3.org/2000/svg">
<path fill-rule="evenodd" clip-rule="evenodd" d="M7.01904 31.0169L9.03361 29.9991C13.1279 28.2558 16.9226 27.6511 21.3294 27.9182C24.9939 28.1399 27.7205 28.9259 31.1027 30.629L31.7409 31.0169L26.1053 20.9598C22.2672 21.0253 17.7692 22.28 14.6605 23.9981C12.6546 25.1016 11.5909 25.9884 9.99314 27.4647C9.3028 28.1046 8.39972 29.1426 7.80056 29.8883C7.63557 30.0949 7.08417 30.8507 7.01904 31.0169Z" fill="#ffffff"/>
<path fill-rule="evenodd" clip-rule="evenodd" d="M10.2754 25.2175L10.6661 24.9101C10.7964 24.7791 10.8832 24.6935 11.0091 24.5675C11.8124 23.7865 12.2118 23.4439 13.1453 22.6982C15.9197 20.4761 19.6579 18.8487 23.0141 18.1634C23.305 18.1029 24.1429 17.9971 24.3904 17.9064L19.3887 8.98303L10.2754 25.2175Z" fill="#ffffff"/>
<path fill-rule="evenodd" clip-rule="evenodd" d="M29.1924 20.7482H30.5166V21.7308H31.3589V18.7882H30.5166V16.8232H29.6656V19.7657H28.641L29.1924 20.7482ZM32.2056 18.7832V19.7657H33.0001V18.7832H32.2056ZM31.3589 17.8006H33.0001V16.8232H31.3589V17.8006ZM27.1301 15.8406H33.0001V8.99817H27.1301V15.8406ZM32.2056 14.8581H27.9767V9.95047H32.2056V14.8581ZM28.819 13.8756H31.3589V10.933H28.819V13.8756ZM27.9724 16.8181H27.1301V17.065L27.9724 18.5766V16.8181ZM26.2834 15.5585V13.8756H25.4368V11.9105H26.2834V8.99817H25.4368V10.933H24.5901V8.99817H22.606L23.1356 9.95047H23.7435V11.0287L24.2385 11.9105H24.5901V12.5403L26.2834 15.5585ZM32.2056 23.6908H30.8422L31.3936 24.6733H32.2056V23.6908ZM30.5166 23.1063V21.7308H29.7438L30.5166 23.1063ZM33.0001 25.6559H32.2056V26.1245L32.4921 26.6384L33.0001 27.4849V25.6559ZM32.2056 25.6559H33.0001V24.6733H32.2056V25.6559ZM32.2056 20.7835V21.766H33.0001V20.7835H32.2056Z" fill="#ffffff"/>
</svg>
