<svg width="24" height="24" viewBox="0 0 24 24" fill="none" xmlns="http://www.w3.org/2000/svg">
<mask id="mask0" mask-type="alpha" maskUnits="userSpaceOnUse" x="0" y="0" width="24" height="24">
<rect width="24" height="24" fill="#C4C4C4"/>
</mask>
<g mask="url(#mask0)">
<path d="M12.3369 8.03677V12.3698C12.3369 12.6919 12.4921 12.9943 12.7537 13.1822L15.3369 15.0368" stroke="black" stroke-width="2.2" stroke-linecap="round" stroke-linejoin="round"/>
<path d="M6.76801 18.0479C6.32829 18.4859 6.32332 19.2035 6.80972 19.589C8.30835 20.7769 10.1355 21.4954 12.0596 21.6382C14.359 21.8088 16.643 21.1457 18.4935 19.7702C20.3441 18.3947 21.6374 16.3989 22.1369 14.1479C22.6364 11.8969 22.3085 9.54129 21.2134 7.51221C20.1183 5.48313 18.3291 3.91626 16.1733 3.09835C14.0175 2.28043 11.6393 2.26618 9.4738 3.0582C7.30835 3.85021 5.50052 5.39552 4.38115 7.41133C3.44451 9.09806 3.04233 11.0198 3.21276 12.9245C3.26808 13.5427 3.87066 13.9324 4.47815 13.8052C5.08564 13.678 5.4658 13.0814 5.43267 12.4616C5.35934 11.0898 5.67192 9.71662 6.34613 8.50247C7.20329 6.95886 8.58764 5.77553 10.2458 5.16904C11.904 4.56255 13.7252 4.57347 15.376 5.19979C17.0268 5.82611 18.3969 7.02595 19.2355 8.57972C20.0741 10.1335 20.3251 11.9373 19.9427 13.661C19.5602 15.3847 18.5698 16.9131 17.1527 17.9663C15.7357 19.0196 13.9867 19.5274 12.2259 19.3967C10.841 19.294 9.52152 18.8016 8.41501 17.9874C7.9151 17.6195 7.20773 17.6099 6.76801 18.0479Z" fill="black"/>
<path d="M1.33691 11.6368L4.33691 14.6368L7.33691 11.6368" stroke="black" stroke-width="2.2" stroke-linecap="round" stroke-linejoin="round"/>
</g>
</svg>
