<svg width="24" height="24" viewBox="0 0 24 24" fill="none" xmlns="http://www.w3.org/2000/svg">
<path fill-rule="evenodd" clip-rule="evenodd" d="M4.4999 5.09999H6.99991H16.9999H19.4999C20.2731 5.09999 20.8999 5.7268 20.8999 6.49999V7.3L3.0999 7.29999V6.49999C3.0999 5.7268 3.7267 5.09999 4.4999 5.09999ZM15.8999 2.89999H8.09991V1.99999C8.09991 1.39248 7.60742 0.899994 6.99991 0.899994C6.3924 0.899994 5.89991 1.39248 5.89991 1.99999V2.89999H4.4999C2.51168 2.89999 0.899902 4.51177 0.899902 6.49999V18.5C0.899902 20.4882 2.51168 22.1 4.4999 22.1H19.4999C21.4881 22.1 23.0999 20.4882 23.0999 18.5V6.49999C23.0999 4.51177 21.4881 2.89999 19.4999 2.89999H18.0999V1.99999C18.0999 1.39248 17.6074 0.899994 16.9999 0.899994C16.3924 0.899994 15.8999 1.39248 15.8999 1.99999V2.89999ZM3.0999 9.49999V18.5C3.0999 19.2732 3.7267 19.9 4.4999 19.9H19.4999C20.2731 19.9 20.8999 19.2732 20.8999 18.5V9.5L3.0999 9.49999ZM7.19991 12.5C7.19991 13.1627 6.66265 13.7 5.99991 13.7C5.33717 13.7 4.79991 13.1627 4.79991 12.5C4.79991 11.8373 5.33717 11.3 5.99991 11.3C6.66265 11.3 7.19991 11.8373 7.19991 12.5ZM9.99991 13.7C10.6627 13.7 11.1999 13.1627 11.1999 12.5C11.1999 11.8373 10.6627 11.3 9.99991 11.3C9.33717 11.3 8.79991 11.8373 8.79991 12.5C8.79991 13.1627 9.33717 13.7 9.99991 13.7ZM15.1999 12.5C15.1999 13.1627 14.6627 13.7 13.9999 13.7C13.3372 13.7 12.7999 13.1627 12.7999 12.5C12.7999 11.8373 13.3372 11.3 13.9999 11.3C14.6627 11.3 15.1999 11.8373 15.1999 12.5ZM17.9999 13.7C18.6627 13.7 19.1999 13.1627 19.1999 12.5C19.1999 11.8373 18.6627 11.3 17.9999 11.3C17.3372 11.3 16.7999 11.8373 16.7999 12.5C16.7999 13.1627 17.3372 13.7 17.9999 13.7ZM7.19991 16.5C7.19991 17.1627 6.66265 17.7 5.99991 17.7C5.33717 17.7 4.79991 17.1627 4.79991 16.5C4.79991 15.8373 5.33717 15.3 5.99991 15.3C6.66265 15.3 7.19991 15.8373 7.19991 16.5ZM9.99991 17.7C10.6627 17.7 11.1999 17.1627 11.1999 16.5C11.1999 15.8373 10.6627 15.3 9.99991 15.3C9.33717 15.3 8.79991 15.8373 8.79991 16.5C8.79991 17.1627 9.33717 17.7 9.99991 17.7ZM15.1999 16.5C15.1999 17.1627 14.6627 17.7 13.9999 17.7C13.3372 17.7 12.7999 17.1627 12.7999 16.5C12.7999 15.8373 13.3372 15.3 13.9999 15.3C14.6627 15.3 15.1999 15.8373 15.1999 16.5ZM17.9999 17.7C18.6627 17.7 19.1999 17.1627 19.1999 16.5C19.1999 15.8373 18.6627 15.3 17.9999 15.3C17.3372 15.3 16.7999 15.8373 16.7999 16.5C16.7999 17.1627 17.3372 17.7 17.9999 17.7Z" fill="black"/>
</svg>
