<svg width="30" height="30" viewBox="0 0 30 30" fill="none" xmlns="http://www.w3.org/2000/svg">
<rect width="30" height="30" rx="15" fill="#6E7279"/>
<path d="M19.9767 10.5782C18.758 9.20317 16.9845 8.33337 15.0002 8.33337C11.52 8.33337 8.66318 10.9992 8.36009 14.4005C8.33067 14.7305 8.60213 15 8.9335 15H9.40016C9.73153 15 9.99639 14.7302 10.0356 14.4011C10.3312 11.9208 12.4398 10 15.0002 10C16.5236 10 17.8752 10.6901 18.7892 11.7657L18.2458 12.3091C17.8678 12.6871 18.1355 13.3334 18.67 13.3334H21.0668C21.3982 13.3334 21.6668 13.0647 21.6668 12.7334V10.3366C21.6668 9.80205 21.0205 9.53435 20.6426 9.91233L19.9767 10.5782ZM15.0002 20C13.4767 20 12.1252 19.3099 11.2111 18.2344L11.7545 17.691C12.1325 17.313 11.8648 16.6667 11.3303 16.6667H8.9335C8.60213 16.6667 8.3335 16.9353 8.3335 17.2667V19.6635C8.3335 20.198 8.97978 20.4657 9.35776 20.0878L10.0236 19.4219C11.2424 20.7969 13.0184 21.6667 15.0002 21.6667C18.4804 21.6667 21.3372 19.0009 21.6402 15.5996C21.6697 15.2696 21.3982 15 21.0668 15H20.6002C20.2688 15 20.0039 15.2699 19.9647 15.599C19.6691 18.0792 17.5605 20 15.0002 20Z" fill="white"/>
</svg>
