<svg width="24" height="24" viewBox="0 0 24 24" fill="none" xmlns="http://www.w3.org/2000/svg">
<mask id="mask0" mask-type="alpha" maskUnits="userSpaceOnUse" x="0" y="0" width="24" height="24">
<rect width="24" height="24" fill="#ffffff"/>
</mask>
<g mask="url(#mask0)">
<path d="M1.38423 10.2265C1.15324 7.68567 2.52669 5.26914 4.82792 4.16748L5.48779 3.85159C5.97362 3.61901 6.49659 3.47373 7.03276 3.4224L7.20522 3.40588C9.57035 3.17943 11.69 4.86658 12 7.22222C12.31 4.86658 14.4297 3.17944 16.7948 3.40588L16.9672 3.4224C17.5034 3.47373 18.0264 3.61901 18.5122 3.85159L19.1721 4.16748C21.4733 5.26914 22.8468 7.68567 22.6158 10.2265C22.233 14.4375 19.6986 18.1507 15.9166 20.0417L12 22L8.08337 20.0417C4.30139 18.1507 1.76705 14.4375 1.38423 10.2265Z" fill="white"/>
</g>
</svg>
