<svg width="24" height="24" viewBox="0 0 24 24" fill="none" xmlns="http://www.w3.org/2000/svg">
<mask id="mask0" mask-type="alpha" maskUnits="userSpaceOnUse" x="0" y="0" width="24" height="24">
<rect width="24" height="24" fill="#ffffff"/>
</mask>
<g mask="url(#mask0)">
<path d="M4.5 4.5L4.5 21.1667C4.5 21.5441 4.90224 21.7855 5.23529 21.6078L7.07353 20.6275C7.80882 20.2353 8.69118 20.2353 9.42647 20.6275L11.7647 21.8745C11.9118 21.9529 12.0882 21.9529 12.2353 21.8745L14.5735 20.6275C15.3088 20.2353 16.1912 20.2353 16.9265 20.6275L18.7647 21.6078C19.0978 21.7855 19.5 21.5441 19.5 21.1667L19.5 4.5C19.5 3.11929 18.3807 2 17 2L7 2C5.61929 2 4.5 3.11929 4.5 4.5Z" stroke="black" stroke-width="2.2" stroke-linecap="round" stroke-linejoin="round"/>
<path d="M7.5 6.70001C7.5 6.09249 7.99249 5.60001 8.6 5.60001H15.4C16.0075 5.60001 16.5 6.09249 16.5 6.70001C16.5 7.30752 16.0075 7.80001 15.4 7.80001H8.6C7.99249 7.80001 7.5 7.30752 7.5 6.70001Z" fill="black"/>
<path d="M7.5 11.1C7.5 10.4925 7.99249 10 8.6 10H15.4C16.0075 10 16.5 10.4925 16.5 11.1C16.5 11.7075 16.0075 12.2 15.4 12.2H8.6C7.99249 12.2 7.5 11.7075 7.5 11.1Z" fill="black"/>
<path d="M7.5 15.5C7.5 14.8925 7.99249 14.4 8.6 14.4H15.4C16.0075 14.4 16.5 14.8925 16.5 15.5C16.5 16.1075 16.0075 16.6 15.4 16.6H8.6C7.99249 16.6 7.5 16.1075 7.5 15.5Z" fill="black"/>
</g>
</svg>
