<svg width="24" height="24" viewBox="0 0 24 24" fill="none" xmlns="http://www.w3.org/2000/svg">
<path fill-rule="evenodd" clip-rule="evenodd" d="M9.0999 7.99999C9.0999 6.39837 10.3983 5.09999 11.9999 5.09999C13.6015 5.09999 14.8999 6.39837 14.8999 7.99999C14.8999 9.60162 13.6015 10.9 11.9999 10.9C10.3983 10.9 9.0999 9.60162 9.0999 7.99999ZM15.4758 11.7321C16.475 10.8011 17.0999 9.47351 17.0999 7.99999C17.0999 5.18334 14.8166 2.89999 11.9999 2.89999C9.18325 2.89999 6.8999 5.18334 6.8999 7.99999C6.8999 9.47351 7.52481 10.8011 8.52405 11.7321C7.94206 12.0277 7.39588 12.3985 6.90058 12.8388L6.33753 13.3392C4.78703 14.7175 3.8999 16.693 3.8999 18.7675C3.8999 20.0557 4.94422 21.1 6.23244 21.1H14.461C14.165 20.4615 13.9999 19.75 13.9999 19C13.9999 18.9666 14.0002 18.9332 14.0009 18.9H6.23244C6.15924 18.9 6.0999 18.8407 6.0999 18.7675C6.0999 17.3214 6.7183 15.9443 7.79913 14.9835L8.36218 14.4831C9.36391 13.5926 10.6574 13.1005 11.9976 13.1L11.9999 13.1C13.3409 13.1 14.6353 13.5921 15.6376 14.4831L16.1202 14.912C16.7676 14.4551 17.5284 14.1481 18.3521 14.0416C18.1396 13.7936 17.9093 13.5589 17.6623 13.3392L17.0992 12.8388C16.6039 12.3985 16.0577 12.0277 15.4758 11.7321ZM20.0999 16.5C20.0999 15.8925 19.6074 15.4 18.9999 15.4C18.3924 15.4 17.8999 15.8925 17.8999 16.5V17.9H16.4999C15.8924 17.9 15.3999 18.3925 15.3999 19C15.3999 19.6075 15.8924 20.1 16.4999 20.1H17.8999V21.5C17.8999 22.1075 18.3924 22.6 18.9999 22.6C19.6074 22.6 20.0999 22.1075 20.0999 21.5V20.1H21.4999C22.1074 20.1 22.5999 19.6075 22.5999 19C22.5999 18.3925 22.1074 17.9 21.4999 17.9H20.0999V16.5Z" fill="black"/>
</svg>
