<svg width="24" height="24" viewBox="0 0 24 24" fill="none" xmlns="http://www.w3.org/2000/svg">
<mask id="mask0" mask-type="alpha" maskUnits="userSpaceOnUse" x="0" y="0" width="24" height="24">
<rect width="24" height="24" fill="#DDDDDD"/>
</mask>
<g mask="url(#mask0)">
<mask id="path-3-outside-1" maskUnits="userSpaceOnUse" x="1" y="0" width="22" height="23" fill="black">
<rect fill="white" x="1" width="22" height="23"/>
<path fill-rule="evenodd" clip-rule="evenodd" d="M3.5 18.2681C2.61192 18.7008 2 19.6123 2 20.6667C2 21.403 2.59695 22 3.33333 22H20.6667C21.403 22 22 21.403 22 20.6667C22 19.6123 21.3881 18.7008 20.5 18.2681V16V9.83333L21.9273 7.93023C21.9745 7.86733 22 7.79083 22 7.71221C22 5.88286 20.8581 4.24799 19.1406 3.61823L12 1L4.85939 3.61823C3.14185 4.24799 2 5.88286 2 7.71221C2 7.79083 2.0255 7.86733 2.07268 7.93023L3.5 9.83333V16V18.2681ZM7 12.6922C7 9.60011 9.03478 6.87667 12 6C14.9652 6.87667 17 9.6001 17 12.6922V19.5H7V12.6922ZM12.8197 14.6175C12.9801 14.7621 13.0603 14.9461 13.0603 15.1696C13.0603 15.4088 12.9712 15.6007 12.793 15.7453C12.6178 15.8899 12.3609 15.9621 12.0223 15.9621C11.6778 15.9621 11.4105 15.8715 11.2204 15.6901C11.0333 15.5087 10.9397 15.2524 10.9397 14.9211H9.85715C9.85715 15.4416 10.0146 15.8596 10.3294 16.1751C10.6472 16.4905 11.1001 16.6772 11.6882 16.735V17.5H12.3965V16.7311C12.946 16.6811 13.3736 16.5181 13.6795 16.2421C13.9884 15.9661 14.1429 15.6059 14.1429 15.1617C14.1429 14.9251 14.1028 14.7187 14.0226 14.5426C13.9424 14.3665 13.828 14.2114 13.6795 14.0773C13.531 13.9406 13.3484 13.8197 13.1316 13.7145C12.9148 13.6094 12.6163 13.495 12.2361 13.3715C11.856 13.2479 11.5857 13.1178 11.4253 12.9811C11.2679 12.8417 11.1892 12.6577 11.1892 12.429C11.1892 12.174 11.2694 11.9782 11.4298 11.8415C11.5901 11.7048 11.8129 11.6364 12.098 11.6364C12.3861 11.6364 12.6133 11.7324 12.7796 11.9243C12.9489 12.1136 13.0336 12.3738 13.0336 12.705H14.1117C14.1117 12.1898 13.9706 11.7718 13.6885 11.4511C13.4063 11.1278 13.0068 10.9332 12.4901 10.8675V10H11.7773V10.8596C11.2634 10.9122 10.8566 11.0791 10.5566 11.3604C10.2566 11.6417 10.1066 12.0005 10.1066 12.4369C10.1066 13.081 10.4526 13.5673 11.1446 13.8959C11.3525 13.9958 11.6436 14.1049 12.0178 14.2232C12.392 14.3389 12.6593 14.4703 12.8197 14.6175Z"/>
</mask>
<path fill-rule="evenodd" clip-rule="evenodd" d="M3.5 18.2681C2.61192 18.7008 2 19.6123 2 20.6667C2 21.403 2.59695 22 3.33333 22H20.6667C21.403 22 22 21.403 22 20.6667C22 19.6123 21.3881 18.7008 20.5 18.2681V16V9.83333L21.9273 7.93023C21.9745 7.86733 22 7.79083 22 7.71221C22 5.88286 20.8581 4.24799 19.1406 3.61823L12 1L4.85939 3.61823C3.14185 4.24799 2 5.88286 2 7.71221C2 7.79083 2.0255 7.86733 2.07268 7.93023L3.5 9.83333V16V18.2681ZM7 12.6922C7 9.60011 9.03478 6.87667 12 6C14.9652 6.87667 17 9.6001 17 12.6922V19.5H7V12.6922ZM12.8197 14.6175C12.9801 14.7621 13.0603 14.9461 13.0603 15.1696C13.0603 15.4088 12.9712 15.6007 12.793 15.7453C12.6178 15.8899 12.3609 15.9621 12.0223 15.9621C11.6778 15.9621 11.4105 15.8715 11.2204 15.6901C11.0333 15.5087 10.9397 15.2524 10.9397 14.9211H9.85715C9.85715 15.4416 10.0146 15.8596 10.3294 16.1751C10.6472 16.4905 11.1001 16.6772 11.6882 16.735V17.5H12.3965V16.7311C12.946 16.6811 13.3736 16.5181 13.6795 16.2421C13.9884 15.9661 14.1429 15.6059 14.1429 15.1617C14.1429 14.9251 14.1028 14.7187 14.0226 14.5426C13.9424 14.3665 13.828 14.2114 13.6795 14.0773C13.531 13.9406 13.3484 13.8197 13.1316 13.7145C12.9148 13.6094 12.6163 13.495 12.2361 13.3715C11.856 13.2479 11.5857 13.1178 11.4253 12.9811C11.2679 12.8417 11.1892 12.6577 11.1892 12.429C11.1892 12.174 11.2694 11.9782 11.4298 11.8415C11.5901 11.7048 11.8129 11.6364 12.098 11.6364C12.3861 11.6364 12.6133 11.7324 12.7796 11.9243C12.9489 12.1136 13.0336 12.3738 13.0336 12.705H14.1117C14.1117 12.1898 13.9706 11.7718 13.6885 11.4511C13.4063 11.1278 13.0068 10.9332 12.4901 10.8675V10H11.7773V10.8596C11.2634 10.9122 10.8566 11.0791 10.5566 11.3604C10.2566 11.6417 10.1066 12.0005 10.1066 12.4369C10.1066 13.081 10.4526 13.5673 11.1446 13.8959C11.3525 13.9958 11.6436 14.1049 12.0178 14.2232C12.392 14.3389 12.6593 14.4703 12.8197 14.6175Z" fill="black"/>
<path d="M3.5 18.2681L3.5751 18.4222L3.67143 18.3752V18.2681H3.5ZM20.5 18.2681H20.3286V18.3752L20.4249 18.4222L20.5 18.2681ZM20.5 9.83333L20.3629 9.73048L20.3286 9.77619V9.83333H20.5ZM21.9273 7.93023L21.7902 7.82738L21.9273 7.93023ZM19.1406 3.61823L19.0816 3.77918L19.1406 3.61823ZM12 1L12.059 0.83905L12 0.817411L11.941 0.83905L12 1ZM4.85939 3.61823L4.9184 3.77918L4.85939 3.61823ZM2.07268 7.93023L2.20982 7.82738L2.20982 7.82738L2.07268 7.93023ZM3.5 9.83333H3.67143V9.77619L3.63714 9.73048L3.5 9.83333ZM12 6L12.0486 5.83561L12 5.82124L11.9514 5.83561L12 6ZM17 19.5V19.6714H17.1714V19.5H17ZM7 19.5H6.82857V19.6714H7V19.5ZM12.8197 14.6175L12.7038 14.7438L12.7049 14.7448L12.8197 14.6175ZM12.793 15.7453L12.685 15.6121L12.6839 15.613L12.793 15.7453ZM11.2204 15.6901L11.1011 15.8132L11.102 15.8141L11.2204 15.6901ZM10.9397 14.9211H11.1111V14.7497H10.9397V14.9211ZM9.85715 14.9211V14.7497H9.68572V14.9211H9.85715ZM10.3294 16.1751L10.208 16.2962L10.2086 16.2967L10.3294 16.1751ZM11.6882 16.735H11.8596V16.5796L11.7049 16.5644L11.6882 16.735ZM11.6882 17.5H11.5167V17.6714H11.6882V17.5ZM12.3965 17.5V17.6714H12.5679V17.5H12.3965ZM12.3965 16.7311L12.381 16.5603L12.2251 16.5745V16.7311H12.3965ZM13.6795 16.2421L13.5653 16.1143L13.5647 16.1148L13.6795 16.2421ZM14.0226 14.5426L14.1786 14.4716V14.4716L14.0226 14.5426ZM13.6795 14.0773L13.5634 14.2034L13.5647 14.2045L13.6795 14.0773ZM11.4253 12.9811L11.3117 13.1095L11.3141 13.1115L11.4253 12.9811ZM11.4298 11.8415L11.3186 11.711L11.4298 11.8415ZM12.7796 11.9243L12.6501 12.0366L12.6519 12.0386L12.7796 11.9243ZM13.0336 12.705H12.8621V12.8765H13.0336V12.705ZM14.1117 12.705V12.8765H14.2831V12.705H14.1117ZM13.6885 11.4511L13.5593 11.5638L13.5597 11.5643L13.6885 11.4511ZM12.4901 10.8675H12.3186V11.0185L12.4684 11.0376L12.4901 10.8675ZM12.4901 10H12.6615V9.82857H12.4901V10ZM11.7773 10V9.82857H11.6058V10H11.7773ZM11.7773 10.8596L11.7947 11.0302L11.9487 11.0144V10.8596H11.7773ZM10.5566 11.3604L10.4393 11.2354L10.4393 11.2354L10.5566 11.3604ZM11.1446 13.8959L11.2189 13.7414L11.2182 13.741L11.1446 13.8959ZM12.0178 14.2232L11.9662 14.3866L11.9672 14.387L12.0178 14.2232ZM2.17143 20.6667C2.17143 19.6803 2.7437 18.8273 3.5751 18.4222L3.4249 18.114C2.48014 18.5744 1.82857 19.5443 1.82857 20.6667H2.17143ZM3.33333 21.8286C2.69163 21.8286 2.17143 21.3084 2.17143 20.6667H1.82857C1.82857 21.4977 2.50228 22.1714 3.33333 22.1714V21.8286ZM20.6667 21.8286H3.33333V22.1714H20.6667V21.8286ZM21.8286 20.6667C21.8286 21.3084 21.3084 21.8286 20.6667 21.8286V22.1714C21.4977 22.1714 22.1714 21.4977 22.1714 20.6667H21.8286ZM20.4249 18.4222C21.2563 18.8273 21.8286 19.6803 21.8286 20.6667H22.1714C22.1714 19.5443 21.5199 18.5744 20.5751 18.114L20.4249 18.4222ZM20.3286 16V18.2681H20.6714V16H20.3286ZM20.3286 9.83333V16H20.6714V9.83333H20.3286ZM21.7902 7.82738L20.3629 9.73048L20.6371 9.93619L22.0645 8.03309L21.7902 7.82738ZM21.8286 7.71221C21.8286 7.75374 21.8151 7.79415 21.7902 7.82738L22.0645 8.03309C22.1339 7.94052 22.1714 7.82792 22.1714 7.71221H21.8286ZM19.0816 3.77918C20.7316 4.38418 21.8286 5.95478 21.8286 7.71221H22.1714C22.1714 5.81094 20.9847 4.1118 19.1996 3.45728L19.0816 3.77918ZM11.941 1.16095L19.0816 3.77918L19.1996 3.45728L12.059 0.83905L11.941 1.16095ZM4.9184 3.77918L12.059 1.16095L11.941 0.83905L4.80037 3.45728L4.9184 3.77918ZM2.17143 7.71221C2.17143 5.95478 3.26839 4.38418 4.9184 3.77918L4.80037 3.45728C3.01531 4.1118 1.82857 5.81094 1.82857 7.71221H2.17143ZM2.20982 7.82738C2.1849 7.79415 2.17143 7.75374 2.17143 7.71221H1.82857C1.82857 7.82792 1.8661 7.94052 1.93553 8.03309L2.20982 7.82738ZM3.63714 9.73048L2.20982 7.82738L1.93553 8.03309L3.36286 9.93619L3.63714 9.73048ZM3.67143 16V9.83333H3.32857V16H3.67143ZM3.67143 18.2681V16H3.32857V18.2681H3.67143ZM11.9514 5.83561C8.91333 6.73382 6.82857 9.52415 6.82857 12.6922H7.17143C7.17143 9.67606 9.15622 7.01953 12.0486 6.16439L11.9514 5.83561ZM17.1714 12.6922C17.1714 9.52415 15.0867 6.73382 12.0486 5.83561L11.9514 6.16439C14.8438 7.01953 16.8286 9.67606 16.8286 12.6922H17.1714ZM17.1714 19.5V12.6922H16.8286V19.5H17.1714ZM7 19.6714H17V19.3286H7V19.6714ZM6.82857 12.6922V19.5H7.17143V12.6922H6.82857ZM13.2317 15.1696C13.2317 14.8995 13.1324 14.6685 12.9345 14.4902L12.7049 14.7448C12.8279 14.8556 12.8889 14.9927 12.8889 15.1696H13.2317ZM12.901 15.8784C13.1213 15.6997 13.2317 15.4579 13.2317 15.1696H12.8889C12.8889 15.3597 12.8211 15.5017 12.685 15.6121L12.901 15.8784ZM12.0223 16.1336C12.3819 16.1336 12.6842 16.0573 12.9021 15.8775L12.6839 15.613C12.5513 15.7224 12.3399 15.7907 12.0223 15.7907V16.1336ZM11.102 15.8141C11.3329 16.0344 11.6478 16.1336 12.0223 16.1336V15.7907C11.7077 15.7907 11.488 15.7085 11.3387 15.566L11.102 15.8141ZM10.7683 14.9211C10.7683 15.2855 10.8722 15.5913 11.1011 15.8131L11.3397 15.567C11.1944 15.4261 11.1111 15.2192 11.1111 14.9211H10.7683ZM9.85715 15.0926H10.9397V14.7497H9.85715V15.0926ZM10.4507 16.054C10.1733 15.7761 10.0286 15.4045 10.0286 14.9211H9.68572C9.68572 15.4788 9.85576 15.9432 10.208 16.2962L10.4507 16.054ZM11.7049 16.5644C11.1435 16.5092 10.7321 16.3333 10.4501 16.0534L10.2086 16.2967C10.5622 16.6478 11.0567 16.8452 11.6714 16.9056L11.7049 16.5644ZM11.8596 17.5V16.735H11.5167V17.5H11.8596ZM12.3965 17.3286H11.6882V17.6714H12.3965V17.3286ZM12.2251 16.7311V17.5H12.5679V16.7311H12.2251ZM13.5647 16.1148C13.2943 16.3588 12.9059 16.5126 12.381 16.5603L12.412 16.9018C12.986 16.8496 13.4529 16.6775 13.7944 16.3694L13.5647 16.1148ZM13.9714 15.1617C13.9714 15.5611 13.8349 15.8734 13.5653 16.1143L13.7938 16.3699C14.1419 16.0588 14.3143 15.6508 14.3143 15.1617H13.9714ZM13.8666 14.6136C13.9346 14.7631 13.9714 14.9443 13.9714 15.1617H14.3143C14.3143 14.9059 14.2709 14.6744 14.1786 14.4716L13.8666 14.6136ZM13.5647 14.2045C13.6963 14.3234 13.7964 14.4596 13.8666 14.6136L14.1786 14.4716C14.0884 14.2733 13.9597 14.0993 13.7944 13.95L13.5647 14.2045ZM13.0568 13.8688C13.2613 13.968 13.4294 14.08 13.5634 14.2034L13.7956 13.9512C13.6327 13.8012 13.4354 13.6714 13.2064 13.5603L13.0568 13.8688ZM12.1831 13.5345C12.56 13.657 12.8501 13.7685 13.0568 13.8688L13.2064 13.5603C12.9794 13.4502 12.6726 13.333 12.2891 13.2084L12.1831 13.5345ZM11.3141 13.1115C11.5008 13.2706 11.7973 13.4091 12.1831 13.5345L12.2891 13.2084C11.9146 13.0867 11.6706 12.9649 11.5365 12.8506L11.3141 13.1115ZM11.0178 12.429C11.0178 12.702 11.114 12.9345 11.3117 13.1094L11.5389 12.8527C11.4218 12.749 11.3606 12.6135 11.3606 12.429H11.0178ZM11.3186 11.711C11.112 11.8871 11.0178 12.1354 11.0178 12.429H11.3606C11.3606 12.2127 11.4268 12.0693 11.541 11.9719L11.3186 11.711ZM12.098 11.465C11.7866 11.465 11.5194 11.5398 11.3186 11.711L11.541 11.9719C11.6609 11.8698 11.8392 11.8079 12.098 11.8079V11.465ZM12.9092 11.812C12.7057 11.5773 12.4284 11.465 12.098 11.465V11.8079C12.3438 11.8079 12.5209 11.8875 12.6501 12.0366L12.9092 11.812ZM13.205 12.705C13.205 12.3448 13.1125 12.0393 12.9074 11.81L12.6519 12.0386C12.7854 12.1878 12.8621 12.4028 12.8621 12.705H13.205ZM14.1117 12.5336H13.0336V12.8765H14.1117V12.5336ZM13.5597 11.5643C13.8089 11.8476 13.9402 12.2225 13.9402 12.705H14.2831C14.2831 12.1571 14.1323 11.696 13.8172 11.3379L13.5597 11.5643ZM12.4684 11.0376C12.9529 11.0992 13.3104 11.2786 13.5593 11.5638L13.8176 11.3384C13.5022 10.977 13.0608 10.7673 12.5117 10.6974L12.4684 11.0376ZM12.3186 10V10.8675H12.6615V10H12.3186ZM11.7773 10.1714H12.4901V9.82857H11.7773V10.1714ZM11.9487 10.8596V10H11.6058V10.8596H11.9487ZM10.6738 11.4855C10.9401 11.2358 11.3085 11.0799 11.7947 11.0302L11.7598 10.6891C11.2184 10.7445 10.773 10.9224 10.4393 11.2354L10.6738 11.4855ZM10.2781 12.4369C10.2781 12.0447 10.4107 11.7322 10.6738 11.4855L10.4393 11.2354C10.1025 11.5512 9.9352 11.9564 9.9352 12.4369H10.2781ZM11.2182 13.741C10.8913 13.5858 10.6577 13.3988 10.5058 13.1853C10.3551 12.9735 10.2781 12.7263 10.2781 12.4369H9.9352C9.9352 12.7916 10.0311 13.1096 10.2264 13.3841C10.4206 13.6569 10.706 13.8774 11.0711 14.0508L11.2182 13.741ZM12.0695 14.0597C11.6985 13.9424 11.4162 13.8362 11.2189 13.7414L11.0704 14.0504C11.2889 14.1554 11.5888 14.2673 11.9662 14.3866L12.0695 14.0597ZM12.9356 14.4912C12.7471 14.3181 12.4505 14.1775 12.0684 14.0594L11.9672 14.387C12.3335 14.5002 12.5716 14.6225 12.7038 14.7438L12.9356 14.4912Z" fill="black" mask="url(#path-3-outside-1)"/>
</g>
</svg>
