<svg width="24" height="24" viewBox="0 0 24 24" fill="none" xmlns="http://www.w3.org/2000/svg">
<mask id="mask0" mask-type="alpha" maskUnits="userSpaceOnUse" x="0" y="0" width="24" height="24">
<path d="M0 0H24V24H0V0Z" fill="#C4C4C4"/>
</mask>
<g mask="url(#mask0)">
<path fill-rule="evenodd" clip-rule="evenodd" d="M4.05 3.4C3.4701 3.4 3 3.8701 3 4.45C3 5.0299 3.4701 5.5 4.05 5.5H19.95C20.5299 5.5 21 5.0299 21 4.45C21 3.8701 20.5299 3.4 19.95 3.4H17.1304C16.7201 3.4 16.3197 3.27378 15.9835 3.03847L15.533 2.72307C14.8606 2.25244 14.0598 2 13.2391 2H11.0437C10.3594 2 9.68645 2.17559 9.08933 2.50998L7.95534 3.14501C7.65678 3.31221 7.32031 3.4 6.97813 3.4H4.05ZM5.14218 7.1C4.53739 7.1 4.07102 7.63268 4.15095 8.23216L5.76857 20.3643C5.90106 21.3579 6.74862 22.1 7.75103 22.1H16.249C17.2514 22.1 18.0989 21.3579 18.2314 20.3643L19.849 8.23216C19.929 7.63268 19.4626 7.1 18.8578 7.1H5.14218ZM14 10.1C13.5582 10.1 13.2 10.4582 13.2 10.9V18.3C13.2 18.7418 13.5582 19.1 14 19.1C14.4418 19.1 14.8 18.7418 14.8 18.3V10.9C14.8 10.4582 14.4418 10.1 14 10.1ZM9.19999 10.9C9.19999 10.4582 9.55817 10.1 9.99999 10.1C10.4418 10.1 10.8 10.4582 10.8 10.9V18.3C10.8 18.7418 10.4418 19.1 9.99999 19.1C9.55817 19.1 9.19999 18.7418 9.19999 18.3V10.9Z" fill="black"/>
</g>
</svg>
