<svg width="40" height="40" viewBox="0 0 40 40" fill="none" xmlns="http://www.w3.org/2000/svg">
<path d="M10 10.9998H16C17.0609 10.9998 18.0783 11.4212 18.8284 12.1713C19.5786 12.9215 20 13.9389 20 14.9998V28.9998C20 28.2041 19.6839 27.441 19.1213 26.8784C18.5587 26.3158 17.7956 25.9998 17 25.9998H10V10.9998Z" stroke="#000000" stroke-width="2" stroke-linecap="round" stroke-linejoin="round"/>
<path d="M30 10.9998H24C22.9391 10.9998 21.9217 11.4212 21.1716 12.1713C20.4214 12.9215 20 13.9389 20 14.9998V28.9998C20 28.2041 20.3161 27.441 20.8787 26.8784C21.4413 26.3158 22.2044 25.9998 23 25.9998H30V10.9998Z" stroke="#000000" stroke-width="2" stroke-linecap="round" stroke-linejoin="round"/>
</svg>
