<svg width="40" height="40" viewBox="0 0 40 40" fill="none" xmlns="http://www.w3.org/2000/svg">
<path opacity="0.2" fill-rule="evenodd" clip-rule="evenodd" d="M20 40C31.0457 40 40 31.0457 40 20C40 8.9543 31.0457 0 20 0C8.9543 0 0 8.9543 0 20C0 31.0457 8.9543 40 20 40Z" fill="white"/>
<mask id="mask0" mask-type="alpha" maskUnits="userSpaceOnUse" x="0" y="0" width="40" height="40">
<rect width="40" height="40" rx="20" fill="#F4F4F4"/>
</mask>
<g mask="url(#mask0)">
<path d="M49.4615 40V0H3.30769C2.32308 0 1.44923 0.138462 1.44923 0.138462H-9C-9 0.138462 -9 10.0677 -9 12.3077V40H49.4615Z" fill="#0E3175"/>
<path d="M42.2899 0H49.4622V6.24308L40.8038 12.3077H49.4622V27.6923H40.8007L49.4622 33.7569V40H42.2868L27.9238 29.9415V40H20.2315L20.2314 27.6923L20.2315 12.3077V0H27.9238V10.0585L42.2899 0Z" fill="#E3E6EB"/>
<path d="M-1.82702 0H-8.99932V6.24308L-0.340864 12.3077H-8.99932V27.6923H-0.337782L-8.99932 33.7569V40H-1.82394L12.5391 29.9415V40H20.2314L20.2314 27.6923L20.2314 12.3077V0H12.5391V10.0585L-1.82702 0Z" fill="#E3E6EB"/>
<path d="M24.8462 0H15.6154V15.3846H-9V24.6154H15.6154V40H24.8462V24.6154H49.4615V15.3846H24.8462V0Z" fill="#CF1B2B"/>
<path d="M49.4613 0H44.9659L27.9229 11.9354V12.3077H32.7567L49.4613 0.609231V0ZM49.4613 39.3908V35.6369L38.1167 27.6923H32.7536L49.4613 39.3908Z" fill="#CF1B2B"/>
<path d="M-9.00038 0H-4.50499L12.5381 11.9354V12.3077H7.70424L-9.00038 0.609231V0ZM-9.00038 39.3908V35.6369L2.34424 27.6923H7.70732L-9.00038 39.3908Z" fill="#CF1B2B"/>
</g>
</svg>
