<svg width="24" height="24" viewBox="0 0 24 24" fill="none" xmlns="http://www.w3.org/2000/svg">
<mask id="mask0" mask-type="alpha" maskUnits="userSpaceOnUse" x="0" y="0" width="24" height="24">
<rect width="24" height="24" fill="#DDDDDD"/>
</mask>
<g mask="url(#mask0)">
<path fill-rule="evenodd" clip-rule="evenodd" d="M20 19.5H4C2.89543 19.5 2 18.6046 2 17.5V6.5C2 5.39543 2.89543 4.5 4 4.5H20C21.1046 4.5 22 5.39543 22 6.5V17.5C22 18.6046 21.1046 19.5 20 19.5ZM4.5 11.8C4.1134 11.8 3.8 12.1134 3.8 12.5C3.8 12.8866 4.1134 13.2 4.5 13.2H19.5C19.8866 13.2 20.2 12.8866 20.2 12.5C20.2 12.1134 19.8866 11.8 19.5 11.8H4.5ZM3.8 15.5C3.8 15.1134 4.1134 14.8 4.5 14.8H9.5C9.8866 14.8 10.2 15.1134 10.2 15.5C10.2 15.8866 9.8866 16.2 9.5 16.2H4.5C4.1134 16.2 3.8 15.8866 3.8 15.5ZM17.5 14.8C17.1134 14.8 16.8 15.1134 16.8 15.5C16.8 15.8866 17.1134 16.2 17.5 16.2H19.5C19.8866 16.2 20.2 15.8866 20.2 15.5C20.2 15.1134 19.8866 14.8 19.5 14.8H17.5Z" fill="black"/>
</g>
</svg>
