<svg width="12" height="22" viewBox="0 0 12 22" fill="none" xmlns="http://www.w3.org/2000/svg">
<path d="M4.39937 22C3.97959 22 3.65575 21.621 3.71572 21.1932L4.79517 13.4427H0.597316C-0.458144 13.4427 0.201519 12.5259 0.225507 12.4892C1.73673 9.76313 4.00358 5.72899 7.00204 0.350144C7.08276 0.209 7.20905 0.100792 7.35934 0.043996C7.50963 -0.0127997 7.67461 -0.0146606 7.82609 0.0387308C7.97758 0.0921222 8.10619 0.197455 8.18995 0.336744C8.27372 0.476032 8.30745 0.640638 8.28539 0.802456L7.20594 8.55289H11.4158C11.8955 8.55289 12.1594 8.78515 11.8955 9.35971C7.94956 16.3767 5.65873 20.4719 4.99907 21.6455C4.87913 21.8655 4.65124 22 4.39937 22Z" fill="white"/>
</svg>
