<svg width="24" height="24" viewBox="0 0 24 24" fill="none" xmlns="http://www.w3.org/2000/svg">
<mask id="mask0" mask-type="alpha" maskUnits="userSpaceOnUse" x="0" y="0" width="24" height="24">
<rect width="24" height="24" fill="#C4C4C4"/>
</mask>
<g mask="url(#mask0)">
<path fill-rule="evenodd" clip-rule="evenodd" d="M11.3 1.49999C11.3 1.11339 11.6134 0.799988 12 0.799988C12.3866 0.799988 12.7 1.11339 12.7 1.49999V3.79999C12.7 4.18659 12.3866 4.49999 12 4.49999C11.6134 4.49999 11.3 4.18659 11.3 3.79999V1.49999ZM6.75 5.49999C6.33579 5.49999 6 5.83577 6 6.24999C6 6.6642 6.33579 6.99999 6.75 6.99999H17.25C17.6642 6.99999 18 6.6642 18 6.24999C18 5.83577 17.6642 5.49999 17.25 5.49999H6.75ZM6 8.99999C6 8.4477 6.44772 7.99999 7 7.99999H17C17.5523 7.99999 18 8.4477 18 8.99999V9.99999C18 12.4215 16.5655 14.5079 14.5 15.4559V20.5C14.5 21.8807 13.3807 23 12 23C10.6193 23 9.5 21.8807 9.5 20.5V15.4559C7.43447 14.5079 6 12.4215 6 9.99999V8.99999ZM16.1123 1.72109C15.7389 1.62103 15.355 1.84263 15.255 2.21606L14.8841 3.60007C14.7841 3.9735 15.0057 4.35734 15.3791 4.4574C15.7525 4.55745 16.1364 4.33585 16.2364 3.96242L16.6073 2.57841C16.7073 2.20498 16.4857 1.82114 16.1123 1.72109ZM7.38547 2.55976C7.28541 2.18634 7.50702 1.8025 7.88045 1.70244C8.25387 1.60238 8.63771 1.82399 8.73777 2.19741L9.11817 3.61711C9.21823 3.99054 8.99663 4.37437 8.6232 4.47443C8.24977 4.57449 7.86594 4.35288 7.76588 3.97946L7.38547 2.55976ZM12 16.5C11.503 16.5 11.1 16.9029 11.1 17.4V18.6C11.1 19.097 11.503 19.5 12 19.5C12.4971 19.5 12.9 19.097 12.9 18.6V17.4C12.9 16.9029 12.4971 16.5 12 16.5Z" fill="black"/>
</g>
</svg>
