<svg width="40" height="40" viewBox="0 0 40 40" fill="none" xmlns="http://www.w3.org/2000/svg">
<path d="M31.575 15.5199C29.3298 10.7421 26.924 10.4083 24.6843 11.5472C24.0049 11.8924 23.4213 12.3352 22.9972 12.9155H17.0038C16.5797 12.3352 15.9961 11.8924 15.3167 11.5472C13.0769 10.4083 10.6711 10.7421 8.42592 15.5199C6.17892 20.2983 4.94409 27.7114 7.18389 28.8503C8.74063 29.6411 11.564 27.1917 13.8959 24.0217H26.1032C28.4352 27.1917 31.2585 29.6411 32.8152 28.8503C35.0568 27.7114 33.8202 20.2983 31.575 15.5199ZM16.4548 18.5056C16.4548 18.6986 16.3007 18.8551 16.1109 18.8551H14.4667V20.6075C14.4667 20.8005 14.3135 20.957 14.1238 20.957H13.542H12.9602C12.7714 20.957 12.6173 20.8005 12.6173 20.6075V18.855H10.9731C10.7835 18.855 10.6292 18.6986 10.6292 18.5055V17.3198C10.6292 17.1268 10.7834 16.9704 10.9731 16.9704H12.6173V15.2175C12.6173 15.0245 12.7715 14.868 12.9602 14.868H13.5421H14.1239C14.3136 14.868 14.4668 15.0245 14.4668 15.2175V16.9704H16.1111C16.3008 16.9704 16.4549 17.1268 16.4549 17.3198V18.5056H16.4548ZM27.0872 15.5214C27.0872 16.124 26.6185 16.6124 26.0385 16.6124C25.4585 16.6124 24.9897 16.124 24.9897 15.5214C24.9897 14.9188 25.4585 14.4304 26.0385 14.4304C26.6185 14.4304 27.0872 14.9188 27.0872 15.5214ZM23.8754 18.8617C23.2954 18.8617 22.8266 18.3729 22.8266 17.7702C22.8266 17.1685 23.2954 16.6797 23.8754 16.6797C24.4554 16.6797 24.9241 17.1685 24.9241 17.7702C24.9241 18.3728 24.4554 18.8617 23.8754 18.8617ZM28.2055 18.8617C27.6255 18.8617 27.1568 18.3729 27.1568 17.7702C27.1568 17.1685 27.6256 16.6797 28.2055 16.6797C28.7855 16.6797 29.2543 17.1685 29.2543 17.7702C29.2543 18.3728 28.7856 18.8617 28.2055 18.8617ZM26.0385 21.1109C25.4585 21.1109 24.9897 20.6226 24.9897 20.0199C24.9897 19.4173 25.4585 18.929 26.0385 18.929C26.6185 18.929 27.0872 19.4173 27.0872 20.0199C27.0872 20.6226 26.6185 21.1109 26.0385 21.1109Z" fill="#ffffff"/>
</svg>
