<svg width="24" height="24" viewBox="0 0 24 24" fill="none" xmlns="http://www.w3.org/2000/svg">
<mask id="mask0" mask-type="alpha" maskUnits="userSpaceOnUse" x="0" y="0" width="24" height="24">
<rect width="24" height="24" fill="#C4C4C4"/>
</mask>
<g mask="url(#mask0)">
<path fill-rule="evenodd" clip-rule="evenodd" d="M10.3508 2C10.3508 2 9.22625 8.75135 6.41494 12.127C5.11711 13.6854 3.25842 17.1905 5.85268 20.0036C6.64962 20.8677 7.80588 21.5195 9.107 21.91C8.95054 21.7668 8.81231 21.6066 8.6963 21.4294C7.48528 19.5797 7.86925 17.3569 9.00002 16C11.5 13 12.0155 9.7319 12.0155 9.7319C12.0155 9.7319 14.1217 13.2235 15.584 15.0847C16.7951 16.6262 16.568 19.5797 15.0542 21.4294C14.878 21.6446 14.6732 21.8348 14.4468 22C15.7023 21.6449 16.8357 20.9936 17.6602 20.0036C20.4715 16.6279 19.347 12.127 17.0979 9.31396C14.3821 5.91709 10.3508 2 10.3508 2Z" fill="black"/>
</g>
</svg>
