<svg width="24" height="24" viewBox="0 0 24 24" fill="none" xmlns="http://www.w3.org/2000/svg">
<mask id="mask0" mask-type="alpha" maskUnits="userSpaceOnUse" x="0" y="0" width="24" height="24">
<rect width="24" height="24" fill="#C4C4C4"/>
</mask>
<g mask="url(#mask0)">
<path d="M12 22C17.5139 22 22 17.5139 22 12C22 6.48609 17.5139 2 12 2C6.48609 2 2 6.48609 2 12C2 17.5139 6.48609 22 12 22ZM4.09721 8.70033C5.08023 6.35433 7.07879 4.53535 9.54056 3.79609C9.49642 3.87805 9.45367 3.96088 9.41232 4.04465C9.20084 4.47265 8.9786 4.77442 8.60563 5.0754C8.32019 5.30591 7.75977 5.66293 7.85139 6.11312C7.91749 6.43847 8.28893 6.57195 8.56963 6.65149C9.01498 6.77767 9.4914 6.81037 9.95098 6.84219C10.349 6.87 10.7623 6.85581 11.1508 6.95493C11.7323 7.10293 11.8634 7.60628 11.9002 8.13688C11.933 8.60856 11.926 9.09349 12.1579 9.52033C12.4566 10.0697 13.144 10.2259 13.7141 10.2783C14.1953 10.3224 14.6759 10.2992 15.1545 10.3793C15.615 10.4565 16.0511 10.6182 16.5239 10.5999C17.1367 10.5762 17.4119 10.1609 17.6733 9.68056C17.8023 9.44335 18.6173 7.61912 19.0961 7.21009C19.9218 8.42902 20.4412 9.87126 20.5447 11.4255C20.477 11.4438 20.4099 11.469 20.3418 11.5029C20.0754 11.6352 19.8887 11.874 19.5988 11.9686C19.3224 12.0586 18.9653 11.9787 18.6829 11.9511C18.4019 11.9236 18.1165 11.8945 17.8352 11.9327C17.2738 12.0094 16.9763 12.3973 16.8866 12.9387C16.8333 13.262 16.8749 13.5873 16.8653 13.9129C16.85 14.4203 16.5171 14.6023 16.0582 14.6455C15.1915 14.7269 13.1698 14.4972 13.1289 15.8311C13.1114 16.4016 13.7905 16.6961 14.2328 16.8484C15.094 17.1447 16.035 17.0412 16.9158 17.247C17.3843 17.3565 17.7795 17.6487 18.1108 17.9941C16.5553 19.5792 14.3908 20.5645 12 20.5645C11.4887 20.5645 10.9881 20.5193 10.5014 20.4329C10.7503 20.3867 10.9959 20.321 11.2349 20.2245C12.4957 19.7162 12.5336 18.2858 11.9826 17.2113C11.6408 16.5448 11.0873 15.9865 10.5092 15.5222C9.94949 15.073 9.33795 14.8075 8.7174 14.4667C7.89409 14.014 7.99349 12.8318 7.78521 12.0352C7.60953 11.3634 7.18768 10.7967 6.52275 10.5642C6.12074 10.4237 5.64856 10.5333 5.29656 10.2533C4.99423 10.0134 4.92321 9.52237 4.75042 9.19237C4.57833 8.86312 4.34926 8.72451 4.09721 8.70033Z" fill="black"/>
</g>
</svg>
