<svg width="24" height="24" viewBox="0 0 24 24" fill="none" xmlns="http://www.w3.org/2000/svg">
<mask id="mask0" mask-type="alpha" maskUnits="userSpaceOnUse" x="0" y="0" width="24" height="24">
<rect width="24" height="24" fill="#DDDDDD"/>
</mask>
<g mask="url(#mask0)">
<path fill-rule="evenodd" clip-rule="evenodd" d="M12 2L15.7206 3.21638C17.4232 3.77304 18.8025 5.03797 19.504 6.68622C19.8313 7.45512 20 8.28218 20 9.11784V11.5351C21.1956 12.2267 22 13.5194 22 15V20C22 21.1046 21.1046 22 20 22H16.5V17.192V14.5243C16.5 11.8487 14.6203 9.54116 12 9C9.37966 9.54116 7.5 11.8487 7.5 14.5243V17.192V22H4C2.89543 22 2 21.1046 2 20V15C2 13.5194 2.8044 12.2267 4 11.5351V9.11784C4 8.28218 4.16869 7.45512 4.49597 6.68622C5.19753 5.03797 6.57679 3.77304 8.27945 3.21638L12 2Z" fill="black"/>
</g>
</svg>
