<svg width="24" height="24" viewBox="0 0 24 24" fill="none" xmlns="http://www.w3.org/2000/svg">
<mask id="mask0" mask-type="alpha" maskUnits="userSpaceOnUse" x="0" y="0" width="24" height="24">
<rect width="24" height="24" fill="#DDDDDD"/>
</mask>
<g mask="url(#mask0)">
<path fill-rule="evenodd" clip-rule="evenodd" d="M11.6458 2C6.31859 2 2 6.31859 2 11.6458C2 17.9211 7.89735 22.5257 13.9853 21.0037L18 20L20.9267 21.4633C21.2705 21.6353 21.6353 21.2705 21.4633 20.9267L20 18L21.0037 13.9853C22.5257 7.89736 17.9211 2 11.6458 2ZM12.6631 13.3496C12.5059 13.8281 12.1846 14.0811 11.6582 14.0811C11.002 14.0811 10.5781 13.6367 10.5781 12.9873V12.9463C10.5781 12.2012 10.9814 11.7021 11.7266 11.2783C12.6562 10.7314 12.8955 10.4375 12.8955 9.84961C12.8955 9.2959 12.4512 8.90625 11.8359 8.90625C11.2891 8.90625 10.9199 9.15918 10.708 9.6582C10.5098 10.1025 10.1201 10.3281 9.6416 10.3281C8.99902 10.3281 8.58887 9.93164 8.5957 9.31641C8.5957 9.02246 8.66406 8.75586 8.80762 8.49609C9.26562 7.63477 10.4072 7.04688 11.959 7.04688C14.0303 7.04688 15.3906 8.12695 15.3906 9.78809C15.3906 10.793 14.9189 11.4902 13.9141 12.0713C12.9775 12.6113 12.7998 12.8574 12.6631 13.3496ZM12.9844 15.9951C12.9844 16.6855 12.4033 17.2256 11.6924 17.2256C10.9746 17.2256 10.4004 16.6855 10.4004 15.9951C10.4004 15.3115 10.9746 14.7715 11.6924 14.7715C12.4033 14.7715 12.9844 15.3115 12.9844 15.9951Z" fill="black"/>
</g>
</svg>
