<svg width="24" height="24" viewBox="0 0 24 24" fill="none" xmlns="http://www.w3.org/2000/svg">
<mask id="mask0" mask-type="alpha" maskUnits="userSpaceOnUse" x="0" y="0" width="24" height="24">
<rect width="24" height="24" fill="#DDDDDD"/>
</mask>
<g mask="url(#mask0)">
<path d="M21 5.25C21 4.00736 19.9926 3 18.75 3H5.25C4.00736 3 3 4.00736 3 5.25V15.15C3 16.3926 4.00736 17.4 5.25 17.4H15.2743C15.7461 17.4 16.206 17.5483 16.589 17.824L19.5741 19.9734C20.1695 20.402 21 19.9766 21 19.243V5.25Z" stroke="black" stroke-width="2.2"/>
<path d="M11.7362 11.6481C12.1423 11.6481 12.3901 11.453 12.5114 11.0839C12.6169 10.7042 12.754 10.5144 13.4765 10.0978C14.2517 9.64951 14.6155 9.11162 14.6155 8.33643C14.6155 7.05498 13.5661 6.22178 11.9683 6.22178C10.7712 6.22178 9.89053 6.67529 9.53721 7.33975C9.42646 7.54014 9.37373 7.7458 9.37373 7.97256C9.36846 8.44717 9.68486 8.75303 10.1806 8.75303C10.5497 8.75303 10.8503 8.579 11.0032 8.23623C11.1667 7.85127 11.4515 7.65615 11.8733 7.65615C12.3479 7.65615 12.6907 7.95674 12.6907 8.38389C12.6907 8.8374 12.5062 9.06416 11.789 9.48604C11.2142 9.81299 10.903 10.1979 10.903 10.7728V10.8044C10.903 11.3054 11.23 11.6481 11.7362 11.6481ZM11.7626 14.0739C12.311 14.0739 12.7593 13.6573 12.7593 13.1247C12.7593 12.5974 12.311 12.1808 11.7626 12.1808C11.2089 12.1808 10.7659 12.5974 10.7659 13.1247C10.7659 13.6573 11.2089 14.0739 11.7626 14.0739Z" fill="black"/>
</g>
</svg>
