<svg width="30" height="30" viewBox="0 0 30 30" fill="none" xmlns="http://www.w3.org/2000/svg">
<mask id="mask0" mask-type="alpha" maskUnits="userSpaceOnUse" x="0" y="0" width="30" height="30">
<rect width="30" height="30" fill="#C4C4C4"/>
</mask>
<g mask="url(#mask0)">
<path fill-rule="evenodd" clip-rule="evenodd" d="M5.86636 6.38119C4.406 7.01621 3.46143 8.45696 3.46143 10.0494V26.4965C3.46143 27.0488 3.90914 27.4965 4.46143 27.4965H11V19.9577C11 18.0319 11.9244 16.2231 13.4852 15.0949L15 14L16.5148 15.0949C18.0756 16.2231 19 18.0319 19 19.9577V27.4965H25.5386C26.0909 27.4965 26.5386 27.0488 26.5386 26.4965V10.0494C26.5386 8.45696 25.594 7.01621 24.1337 6.3812L15.3988 2.58295C15.1444 2.47235 14.8556 2.47235 14.6012 2.58295L5.86636 6.38119Z" fill="black"/>
</g>
</svg>
