<svg width="72" height="72" viewBox="0 0 72 72" fill="none" xmlns="http://www.w3.org/2000/svg">
<path d="M36 72C55.8823 72 72 55.8823 72 36C72 16.1177 55.8823 0 36 0C16.1177 0 0 16.1177 0 36C0 55.8823 16.1177 72 36 72Z" fill="#F5F5F5"/>
<path d="M36 54C45.9411 54 54 45.9411 54 36C54 26.0589 45.9411 18 36 18C26.0589 18 18 26.0589 18 36C18 45.9411 26.0589 54 36 54Z" stroke="#5C5C5C" stroke-width="2" stroke-linecap="round" stroke-linejoin="round"/>
<path d="M36 28.8V36" stroke="#5C5C5C" stroke-width="2" stroke-linecap="round" stroke-linejoin="round"/>
<path d="M37.3002 43.2C37.3002 43.918 36.7182 44.5 36.0002 44.5C35.2822 44.5 34.7002 43.918 34.7002 43.2C34.7002 42.482 35.2822 41.9 36.0002 41.9C36.7182 41.9 37.3002 42.482 37.3002 43.2Z" stroke="#5C5C5C"/>
</svg>
