<svg width="40" height="40" viewBox="0 0 40 40" fill="none" xmlns="http://www.w3.org/2000/svg">
<path d="M29.3881 9.99084H10.612C9.72313 9.99084 9 10.714 9 11.6028V22.1623V23.4693V25.3901C9 26.2789 9.72313 27.0021 10.612 27.0021H16.8274L16.5811 28.7022H14.9027V30.0092H16.3917H23.6083H25.0973V28.7022H23.419L23.1726 27.0021H29.3881C30.277 27.0021 31.0001 26.2789 31.0001 25.3901V23.4693V22.1623V11.6028C31.0001 10.714 30.277 9.99084 29.3881 9.99084ZM20.9002 25.2357H19.0999V23.9287H20.9002V25.2357ZM29.6931 22.1623H10.307V11.6028C10.307 11.4346 10.4438 11.2978 10.6119 11.2978H29.3881C29.5563 11.2978 29.6931 11.4347 29.6931 11.6028V22.1623H29.6931Z" fill="#ffffff"/>
<path d="M20.7569 12.3019H19.45V14.2628H20.7569V12.3019Z" fill="#ffffff"/>
<path d="M17.522 12.6425L16.3901 13.296L17.3706 14.9942L18.5024 14.3407L17.522 12.6425Z" fill="#ffffff"/>
<path d="M22.6845 12.6429L21.7041 14.3411L22.836 14.9946L23.8164 13.2964L22.6845 12.6429Z" fill="#ffffff"/>
<path d="M15.1172 15.5732L16.2547 21.1761H23.9522L25.0897 15.5732H15.1172ZM16.7162 16.8803H18.0971L18.154 17.7211H16.887L16.7162 16.8803ZM17.323 19.869L17.1523 19.0281H18.2424L18.2993 19.869H17.323ZM20.5975 19.8691H19.6094L19.5525 19.0282H20.6545L20.5975 19.8691ZM20.7429 17.7211H19.4641L19.4072 16.8803H20.7999L20.7429 17.7211ZM22.8839 19.869H21.9075L21.9644 19.0281H23.0546L22.8839 19.869ZM23.32 17.7211H22.0529L22.1098 16.8803H23.4907L23.32 17.7211Z" fill="#ffffff"/>
</svg>
