<svg width="24" height="24" viewBox="0 0 24 24" fill="none" xmlns="http://www.w3.org/2000/svg">
<mask id="mask0" mask-type="alpha" maskUnits="userSpaceOnUse" x="0" y="0" width="24" height="24">
<rect width="24" height="24" fill="#DDDDDD"/>
</mask>
<g mask="url(#mask0)">
<path fill-rule="evenodd" clip-rule="evenodd" d="M3.0999 12C3.0999 7.08466 7.08457 3.09999 11.9999 3.09999C16.9152 3.09999 20.8999 7.08466 20.8999 12C20.8999 16.9153 16.9152 20.9 11.9999 20.9C7.08457 20.9 3.0999 16.9153 3.0999 12ZM11.9999 0.899994C5.86954 0.899994 0.899902 5.86963 0.899902 12C0.899902 18.1304 5.86954 23.1 11.9999 23.1C18.1303 23.1 23.0999 18.1304 23.0999 12C23.0999 5.86963 18.1303 0.899994 11.9999 0.899994ZM11.2441 8.81333C11.4574 9.01777 11.7063 9.11999 11.9907 9.11999C12.2841 9.11999 12.533 9.01777 12.7374 8.81333C12.9507 8.59999 13.0574 8.3511 13.0574 8.06666C13.0574 7.78222 12.9507 7.53333 12.7374 7.31999C12.533 7.10666 12.2841 6.99999 11.9907 6.99999C11.7063 6.99999 11.4574 7.10666 11.2441 7.31999C11.0396 7.53333 10.9374 7.78222 10.9374 8.06666C10.9374 8.3511 11.0396 8.59999 11.2441 8.81333ZM11.1374 9.91999V16.5867H12.8574V9.91999H11.1374Z" fill="black"/>
</g>
</svg>
