<svg width="24" height="24" viewBox="0 0 24 24" fill="none" xmlns="http://www.w3.org/2000/svg">
<mask id="mask0" mask-type="alpha" maskUnits="userSpaceOnUse" x="0" y="0" width="24" height="24">
<rect width="24" height="24" fill="#DDDDDD"/>
</mask>
<g mask="url(#mask0)">
<path fill-rule="evenodd" clip-rule="evenodd" d="M12 22C17.5228 22 22 17.5228 22 12C22 6.47715 17.5228 2 12 2C6.47715 2 2 6.47715 2 12C2 17.5228 6.47715 22 12 22ZM11.2893 9.20236C11.4906 9.3943 11.7254 9.49026 11.9937 9.49026C12.2704 9.49026 12.5052 9.3943 12.6981 9.20236C12.8994 9.00209 13 8.76843 13 8.50139C13 8.23435 12.8994 8.0007 12.6981 7.80042C12.5052 7.60014 12.2704 7.5 11.9937 7.5C11.7254 7.5 11.4906 7.60014 11.2893 7.80042C11.0964 8.0007 11 8.23435 11 8.50139C11 8.76843 11.0964 9.00209 11.2893 9.20236ZM11.1887 10.2413V16.5H12.8113V10.2413H11.1887Z" fill="black"/>
</g>
</svg>
