<svg width="40" height="40" viewBox="0 0 40 40" fill="none" xmlns="http://www.w3.org/2000/svg">
<path d="M28.7972 13.0028L24.1818 8.38737C24.052 8.25754 23.8759 8.18457 23.6923 8.18457H13.5385C12.1388 8.18457 11 9.32332 11 10.723V29.2769C11 30.6766 12.1388 31.8153 13.5385 31.8153H26.4615C27.8612 31.8153 29 30.6766 29 29.2769V13.4923C29 13.3087 28.927 13.1326 28.7972 13.0028ZM24.3846 10.5482L26.6363 12.8H24.3846V10.5482ZM26.4615 30.4307H13.5385C12.9022 30.4307 12.3846 29.9131 12.3846 29.2769V10.723C12.3846 10.0868 12.9022 9.56919 13.5385 9.56919H23V13.4923C23 13.8746 23.31 14.1846 23.6923 14.1846H27.6154V29.2769C27.6154 29.9131 27.0978 30.4307 26.4615 30.4307Z" fill="#ffffff"/>
<path d="M24.6155 17.5077C23.7406 17.5077 22.9541 17.0216 22.5629 16.2392L22.4655 16.0443C22.3482 15.8097 22.1085 15.6615 21.8462 15.6615H18.1539C17.8917 15.6615 17.652 15.8097 17.5347 16.0442L17.4372 16.2391C17.046 17.0216 16.2595 17.5077 15.3847 17.5077C15.0024 17.5077 14.6924 17.8176 14.6924 18.2V22.1506C14.6924 23.7039 15.1825 25.1836 16.1097 26.4298C17.0369 27.6759 18.3134 28.5706 19.8012 29.0169C19.866 29.0364 19.9331 29.0461 20.0001 29.0461C20.0671 29.0461 20.1341 29.0364 20.199 29.0169C21.6868 28.5706 22.9633 27.6759 23.8905 26.4298C24.8177 25.1836 25.3078 23.7039 25.3078 22.1506V18.2C25.3078 17.8176 24.9978 17.5077 24.6155 17.5077ZM23.9232 22.1506C23.9232 24.6547 22.3553 26.8299 20.0001 27.6272C17.6449 26.8299 16.077 24.6547 16.077 22.1506V18.8277C17.1247 18.63 18.0356 17.9877 18.5751 17.0461H21.4251C21.9645 17.9877 22.8754 18.63 23.9232 18.8277V22.1506Z" fill="#ffffff"/>
<path d="M21.4687 20.5587L19.3474 22.68L18.5314 21.8641C18.2611 21.5938 17.8228 21.5938 17.5524 21.8641C17.282 22.1345 17.282 22.5728 17.5524 22.8432L18.8578 24.1486C18.993 24.2838 19.1702 24.3514 19.3473 24.3514C19.5244 24.3514 19.7017 24.2839 19.8368 24.1486L22.4476 21.5378C22.718 21.2674 22.718 20.8291 22.4476 20.5587C22.1774 20.2884 21.739 20.2884 21.4687 20.5587Z" fill="#ffffff"/>
</svg>
