<svg width="24" height="24" viewBox="0 0 24 24" fill="none" xmlns="http://www.w3.org/2000/svg">
<mask id="mask0" mask-type="alpha" maskUnits="userSpaceOnUse" x="0" y="0" width="24" height="24">
<rect width="24" height="24" fill="#DDDDDD"/>
</mask>
<g mask="url(#mask0)">
<path fill-rule="evenodd" clip-rule="evenodd" d="M2.5 4C2.5 2.89543 3.39543 2 4.5 2H16.5C17.6046 2 18.5 2.89543 18.5 4V10H19.5C20.6046 10 21.5 10.8954 21.5 12V19C21.5 20.6569 20.1569 22 18.5 22H6.5C4.29086 22 2.5 20.2091 2.5 18V4ZM19 11.5H18.5V20.5C19.3284 20.5 20 19.8284 20 19V12.5C20 11.9477 19.5523 11.5 19 11.5ZM5.5 6.75C5.5 6.33579 5.83579 6 6.25 6H14.75C15.1642 6 15.5 6.33579 15.5 6.75C15.5 7.16421 15.1642 7.5 14.75 7.5H6.25C5.83579 7.5 5.5 7.16421 5.5 6.75ZM6.25 9.5C5.83579 9.5 5.5 9.83579 5.5 10.25C5.5 10.6642 5.83579 11 6.25 11H14.75C15.1642 11 15.5 10.6642 15.5 10.25C15.5 9.83579 15.1642 9.5 14.75 9.5H6.25ZM5.5 13.75C5.5 13.3358 5.83579 13 6.25 13H14.75C15.1642 13 15.5 13.3358 15.5 13.75C15.5 14.1642 15.1642 14.5 14.75 14.5H6.25C5.83579 14.5 5.5 14.1642 5.5 13.75ZM6.25 16.5C5.83579 16.5 5.5 16.8358 5.5 17.25C5.5 17.6642 5.83579 18 6.25 18H14.75C15.1642 18 15.5 17.6642 15.5 17.25C15.5 16.8358 15.1642 16.5 14.75 16.5H6.25Z" fill="black"/>
</g>
</svg>
