<svg width="24" height="24" viewBox="0 0 24 24" fill="none" xmlns="http://www.w3.org/2000/svg">
<mask id="mask0" mask-type="alpha" maskUnits="userSpaceOnUse" x="0" y="0" width="24" height="24">
<rect width="24" height="24" fill="#DDDDDD"/>
</mask>
<g mask="url(#mask0)">
<path fill-rule="evenodd" clip-rule="evenodd" d="M13.7258 3.69355C13.7258 3.76458 13.7214 3.83459 13.7129 3.90332C16.0018 4.55717 17.6774 6.66463 17.6774 9.16345V10.2634C17.6774 12.0249 18.2744 13.7344 19.371 15.1129L20.7007 16.7845C20.9363 17.0807 21.0645 17.448 21.0645 17.8264C21.0645 18.7507 20.3152 19.5 19.3909 19.5H14.9585C14.7205 20.9189 13.4865 22 12 22C10.5135 22 9.27952 20.9189 9.04148 19.5H4.6736C3.7493 19.5 3 18.7507 3 17.8264C3 17.448 3.12826 17.0807 3.36384 16.7845L4.69355 15.1129C5.79011 13.7344 6.3871 12.0249 6.3871 10.2634V9.16345C6.3871 6.66463 8.06268 4.55717 10.3516 3.90332C10.3431 3.83459 10.3387 3.76458 10.3387 3.69355C10.3387 2.75823 11.0969 2 12.0323 2C12.9676 2 13.7258 2.75823 13.7258 3.69355Z" fill="black"/>
</g>
</svg>
