<svg width="24" height="24" viewBox="0 0 24 24" fill="none" xmlns="http://www.w3.org/2000/svg">
<mask id="mask0" mask-type="alpha" maskUnits="userSpaceOnUse" x="0" y="0" width="24" height="24">
<rect width="24" height="24" fill="#C4C4C4"/>
</mask>
<g mask="url(#mask0)">
<path fill-rule="evenodd" clip-rule="evenodd" d="M9.6 7.1C9.6 5.77452 10.6745 4.7 12 4.7C13.3255 4.7 14.4 5.77452 14.4 7.1V8.7H9.6V7.1ZM7.4 8.7V7.1C7.4 4.55949 9.45949 2.5 12 2.5C14.5405 2.5 16.6 4.55949 16.6 7.1V8.7H17.5C19.1569 8.7 20.5 10.0431 20.5 11.7V18.7C20.5 20.3569 19.1569 21.7 17.5 21.7H6.5C4.84315 21.7 3.5 20.3569 3.5 18.7V11.7C3.5 10.0431 4.84315 8.7 6.5 8.7H7.4ZM13 15.9324C13.5978 15.5866 14 14.9403 14 14.2C14 13.0954 13.1046 12.2 12 12.2C10.8954 12.2 10 13.0954 10 14.2C10 14.9403 10.4022 15.5866 11 15.9324V17.2C11 17.7523 11.4477 18.2 12 18.2C12.5523 18.2 13 17.7523 13 17.2V15.9324Z" fill="black"/>
</g>
</svg>
