<svg width="30" height="30" viewBox="0 0 30 30" fill="none" xmlns="http://www.w3.org/2000/svg">
<mask id="mask0" mask-type="alpha" maskUnits="userSpaceOnUse" x="0" y="0" width="30" height="30">
<rect width="30" height="30" fill="#C4C4C4"/>
</mask>
<g mask="url(#mask0)">
<path fill-rule="evenodd" clip-rule="evenodd" d="M22.0669 3.55119C21.4465 2.14338 19.7455 1.57998 18.4073 2.33906L10.5974 6.76926H23.4852L22.0669 3.55119ZM24.2486 8.50144H7.54384L7.29098 8.64488C6.32376 9.19354 6.71314 10.6692 7.82513 10.6692H23.5437C24.3257 10.6692 24.8497 9.86551 24.5344 9.14994L24.2486 8.50144Z" fill="black"/>
<path fill-rule="evenodd" clip-rule="evenodd" d="M3.09828 8.50232C1.66329 8.50232 0.5 9.66561 0.5 11.1006V15.5453L1.98055 13.8629C2.80984 12.9205 4.27815 12.9205 5.10744 13.8629L7.68 16.7863L10.2526 13.8629C11.0818 12.9205 12.5502 12.9205 13.3794 13.8629L15.537 16.3147V15.0002C15.537 13.8044 16.5064 12.835 17.7022 12.835H28.4088L28.4259 12.835V11.1006C28.4259 9.66561 27.2626 8.50232 25.8277 8.50232H3.09828ZM6.34794 18.3L3.60602 15.1842C3.57312 15.1468 3.51488 15.1468 3.48198 15.1842L0.740059 18.3L3.48198 21.4158C3.51488 21.4532 3.57312 21.4532 3.60602 21.4158L6.34794 18.3ZM7.68 19.8137L10.2526 22.737C11.0818 23.6794 12.5502 23.6794 13.3794 22.737L15.537 20.2852V21.5013C15.537 22.6971 16.5064 23.6666 17.7022 23.6666H28.4088L28.4259 23.6665V25.4009C28.4259 26.8359 27.2626 27.9992 25.8277 27.9992H3.09828C1.66329 27.9992 0.5 26.8359 0.5 25.4009V21.0546L1.98055 22.737C2.80984 23.6794 4.27815 23.6794 5.10744 22.737L7.68 19.8137ZM14.6199 18.3L11.878 21.4158C11.8451 21.4532 11.7869 21.4532 11.754 21.4158L9.01207 18.3L11.754 15.1842C11.7869 15.1468 11.8451 15.1468 11.878 15.1842L14.6199 18.3Z" fill="black"/>
<path fill-rule="evenodd" clip-rule="evenodd" d="M18.7719 14.4597C17.875 14.4597 17.1479 15.1867 17.1479 16.0836V20.4178C17.1479 21.3147 17.875 22.0418 18.7719 22.0418H27.8759C28.7727 22.0418 29.4998 21.3147 29.4998 20.4178V16.0836C29.4998 15.1867 28.7727 14.4597 27.8759 14.4597H18.7719ZM21.4442 19.8755C22.334 19.8755 23.0554 19.1481 23.0554 18.2508C23.0554 17.3535 22.334 16.6261 21.4442 16.6261C20.5544 16.6261 19.8331 17.3535 19.8331 18.2508C19.8331 19.1481 20.5544 19.8755 21.4442 19.8755Z" fill="black"/>
</g>
</svg>
