<svg width="24" height="24" viewBox="0 0 24 24" fill="none" xmlns="http://www.w3.org/2000/svg">
<mask id="mask0" mask-type="alpha" maskUnits="userSpaceOnUse" x="0" y="0" width="24" height="24">
<rect width="24" height="24" fill="#DDDDDD"/>
</mask>
<g mask="url(#mask0)">
<path d="M18.1379 14.2603C17.4874 13.6181 16.6753 13.6181 16.0289 14.2603C15.5359 14.7492 15.0428 15.2381 14.558 15.7353C14.4254 15.8721 14.3136 15.9011 14.152 15.8099C13.8329 15.6359 13.4932 15.495 13.1865 15.3044C11.7571 14.4053 10.5596 13.2493 9.4989 11.9483C8.97268 11.3019 8.50447 10.6099 8.17714 9.83096C8.11085 9.67351 8.12328 9.56993 8.25172 9.44148C8.74479 8.96499 9.22543 8.47606 9.71021 7.98714C10.3856 7.30761 10.3856 6.51208 9.70607 5.82841C9.32073 5.43893 8.93539 5.05773 8.55005 4.66825C8.15228 4.27048 7.75866 3.86857 7.35674 3.47494C6.70623 2.841 5.89411 2.841 5.24774 3.47909C4.75053 3.96801 4.27403 4.46936 3.76853 4.95C3.30033 5.39335 3.06415 5.93614 3.01443 6.57008C2.9357 7.6018 3.18845 8.5755 3.54479 9.52435C4.27403 11.4883 5.38447 13.2327 6.73109 14.8321C8.55005 16.995 10.7212 18.7062 13.2611 19.9409C14.4047 20.4961 15.5897 20.9229 16.8783 20.9934C17.765 21.0431 18.5357 20.8193 19.1531 20.1274C19.5757 19.655 20.0522 19.2241 20.4997 18.7725C21.1626 18.1012 21.1668 17.2891 20.508 16.6262C19.7207 15.8348 18.9293 15.0475 18.1379 14.2603Z" fill="black"/>
</g>
</svg>
