<svg width="27" height="26" viewBox="0 0 27 26" fill="none" xmlns="http://www.w3.org/2000/svg">
<path fill-rule="evenodd" clip-rule="evenodd" d="M6.51313 0.189309L10.4385 1.43546C9.74321 2.39583 9.33333 3.57638 9.33333 4.85266C9.33333 6.76086 10.2496 8.45506 11.6661 9.51933H10.2083C9.72509 9.51933 9.33333 9.91108 9.33333 10.3943C9.33333 10.8776 9.72509 11.2693 10.2083 11.2693H20.125C20.6083 11.2693 21 10.8776 21 10.3943C21 9.91108 20.6082 9.51933 20.125 9.51933H18.6672C19.9782 8.53441 20.8606 7.01 20.9849 5.27575L21.1381 5.34061C24.5904 6.80188 26.8333 10.1869 26.8333 13.9357V14.2464C26.8333 16.498 26.0258 18.608 24.645 20.2515C25.7811 21.3908 25.7801 23.2352 24.642 24.3733C23.503 25.5123 21.6563 25.5123 20.5172 24.3733L19.6923 23.5483C19.6441 23.5001 19.5979 23.4506 19.5538 23.4L17.9064 23.9491C15.2117 24.8474 12.2818 24.4631 9.92963 22.9599C9.80641 23.17 9.65467 23.368 9.47439 23.5483L8.64943 24.3733C7.5104 25.5123 5.66367 25.5123 4.52464 24.3733C3.38561 23.2342 3.38561 21.3875 4.52464 20.2485L5.3496 19.4235C5.40935 19.3638 5.47104 19.3072 5.53448 19.2537L4.16145 18.0523C3.72822 17.6732 3.20233 17.4156 2.63725 17.3057C1.1057 17.0079 0 15.6665 0 14.1063V13.3453C0 12.0247 0.95474 10.8977 2.25736 10.6806C3.04507 10.5493 3.73433 10.0763 4.14006 9.38844L4.91475 8.07516C5.89015 6.42162 6.30845 4.49843 6.10798 2.58913L5.90781 0.682833C5.87268 0.348215 6.19245 0.0875041 6.51313 0.189309ZM19.5417 4.85266C19.5417 7.26891 17.5829 9.22766 15.1667 9.22766C12.7504 9.22766 10.7917 7.26891 10.7917 4.85266C10.7917 2.43642 12.7504 0.477661 15.1667 0.477661C17.5829 0.477661 19.5417 2.43642 19.5417 4.85266ZM16.4706 5.84871H17.5007C17.3154 6.25969 17.0262 6.58529 16.6329 6.82552C16.2416 7.06576 15.8036 7.18587 15.3187 7.18587C15.0919 7.18587 14.8703 7.15808 14.6538 7.10249C14.4395 7.0469 14.2418 6.96847 14.0607 6.86722C13.8797 6.76596 13.7122 6.64386 13.5582 6.50091C13.4063 6.35598 13.2772 6.19814 13.1711 6.0274C13.065 5.85467 12.9817 5.66705 12.9214 5.46454C12.8631 5.26004 12.834 5.05058 12.834 4.83616C12.834 4.52247 12.8985 4.22267 13.0275 3.93678C13.1565 3.65088 13.3293 3.40469 13.5457 3.19821C13.7621 2.99173 14.0202 2.82694 14.3198 2.70385C14.6195 2.58075 14.9337 2.51921 15.2625 2.51921C15.5601 2.51921 15.8462 2.56686 16.1209 2.66215C16.3977 2.75547 16.6464 2.89047 16.867 3.06717C17.0168 3.19027 17.1375 3.31138 17.2291 3.4305C17.3206 3.54963 17.4112 3.70349 17.5007 3.89211H16.5205C16.3603 3.69357 16.1823 3.54963 15.9867 3.46028C15.7911 3.36895 15.5559 3.32329 15.2813 3.32329C14.7881 3.32329 14.3958 3.48808 14.1044 3.81765C13.9837 3.95067 13.888 4.10851 13.8173 4.29117C13.7486 4.47383 13.7143 4.65747 13.7143 4.84212C13.7143 5.11809 13.785 5.3742 13.9265 5.61046C14.068 5.84672 14.2605 6.03434 14.504 6.17332C14.7475 6.31031 15.0128 6.37881 15.3 6.37881C15.5268 6.37881 15.7297 6.33811 15.9087 6.25671C16.0897 6.17531 16.277 6.03931 16.4706 5.84871Z" fill="black"/>
</svg>
