<svg width="30" height="30" viewBox="0 0 30 30" fill="none" xmlns="http://www.w3.org/2000/svg">
<mask id="mask0" mask-type="alpha" maskUnits="userSpaceOnUse" x="0" y="0" width="30" height="30">
<rect width="30" height="30" fill="#C4C4C4"/>
</mask>
<g mask="url(#mask0)">
<path fill-rule="evenodd" clip-rule="evenodd" d="M29.9284 15.9286C29.9284 19.5383 28.3351 23.2991 25.849 26.2744C25.5049 25.3926 24.9998 24.5734 24.3532 23.8641C23.9099 23.3778 23.4026 22.9482 22.8494 22.5919L22.4948 22.3635C21.0109 21.4078 19.3641 20.7509 17.6466 20.42C19.8937 19.1957 21.4499 16.5445 21.4499 14.3519C21.4499 10.8134 18.5814 7.35714 15.0428 7.35714C11.5042 7.35714 8.63565 10.8134 8.63565 14.3519C8.63565 16.5392 10.2258 19.1828 12.4857 20.411C10.7513 20.739 9.08808 21.3991 7.59066 22.3635L7.23608 22.5919C6.68294 22.9482 6.1756 23.3778 5.73235 23.8641C5.06863 24.5921 4.554 25.436 4.20959 26.3445C1.68977 23.3583 0.0712891 19.5667 0.0712891 15.9286C0.0712891 5 14.9999 1 14.9999 1C14.9999 1 29.9284 5 29.9284 15.9286ZM14.9999 32L14.983 32H15.0167L14.9999 32Z" fill="black"/>
</g>
</svg>
