<svg width="200" height="44" viewBox="0 10 200 44" fill="none" xmlns="http://www.w3.org/2000/svg">
<path d="M38.5942 50.3219C48.5445 47.9533 54.6906 37.9668 52.322 28.0166C49.9533 18.0663 39.9668 11.9202 30.0166 14.2888C20.0663 16.6575 13.9202 26.6439 16.2888 36.5942C18.6575 46.5445 28.644 52.6906 38.5942 50.3219Z" fill="#00B428"/>
<path d="M99.4208 25.3171C97.5045 23.8201 95.1426 23.007 92.7108 23.007C90.2791 23.007 87.9172 23.8201 86.0008 25.3171C85.1361 26.1086 84.4559 27.0805 84.0083 28.164C83.5608 29.2475 83.3568 30.4161 83.4109 31.5871V41.5171C83.4108 41.5298 83.4134 41.5424 83.4185 41.554C83.4236 41.5656 83.4312 41.5761 83.4406 41.5846C83.4501 41.5931 83.4612 41.5995 83.4733 41.6033C83.4854 41.6072 83.4982 41.6085 83.5108 41.6071H87.0908C87.1147 41.6071 87.1376 41.5976 87.1545 41.5807C87.1714 41.5639 87.1808 41.541 87.1808 41.5171V37.4671C87.1808 37.4512 87.1872 37.4359 87.1984 37.4247C87.2097 37.4134 87.2249 37.4071 87.2408 37.4071H98.1808C98.1968 37.4071 98.212 37.4134 98.2233 37.4247C98.2345 37.4359 98.2408 37.4512 98.2408 37.4671V41.5171C98.2408 41.541 98.2503 41.5639 98.2672 41.5807C98.2841 41.5976 98.307 41.6071 98.3308 41.6071H101.911C101.936 41.6072 101.96 41.5981 101.978 41.5814C101.997 41.5648 102.008 41.5419 102.011 41.5171V31.5971C102.066 30.4244 101.863 29.2539 101.416 28.1685C100.968 27.0832 100.287 26.1097 99.4208 25.3171ZM98.2408 33.9771C98.2408 33.993 98.2345 34.0083 98.2233 34.0195C98.212 34.0308 98.1968 34.0371 98.1808 34.0371H87.2408C87.2249 34.0371 87.2097 34.0308 87.1984 34.0195C87.1872 34.0083 87.1808 33.993 87.1808 33.9771V31.8371C87.1808 28.5471 89.1808 26.6671 92.7108 26.6671C96.2408 26.6671 98.2408 28.5471 98.2408 31.8371V33.9771Z" fill="black"/>
<path d="M143.081 25.3171C141.166 23.8209 138.806 23.0082 136.376 23.0082C133.946 23.0082 131.586 23.8209 129.671 25.3171C128.806 26.1086 128.126 27.0805 127.678 28.164C127.231 29.2475 127.027 30.4161 127.081 31.5871V41.5171C127.081 41.541 127.09 41.5639 127.107 41.5807C127.124 41.5976 127.147 41.6071 127.171 41.6071H130.761C130.785 41.6071 130.808 41.5976 130.824 41.5807C130.841 41.5639 130.851 41.541 130.851 41.5171V31.8471C130.851 28.5571 132.851 26.6771 136.371 26.6771C139.891 26.6771 141.901 28.5571 141.901 31.8471V41.5171C141.901 41.541 141.91 41.5639 141.927 41.5807C141.944 41.5976 141.967 41.6071 141.991 41.6071H145.581C145.605 41.6071 145.628 41.5976 145.644 41.5807C145.661 41.5639 145.671 41.541 145.671 41.5171V31.5971C145.726 30.4244 145.523 29.2539 145.075 28.1685C144.628 27.0832 143.947 26.1097 143.081 25.3171Z" fill="black"/>
<path d="M167.301 37.857H158.201C157.12 37.9473 156.041 37.6541 155.154 37.0287C154.268 36.4034 153.629 35.4859 153.351 34.437C153.351 34.377 153.281 34.167 153.251 34.047C153.25 34.0384 153.25 34.0295 153.252 34.021C153.255 34.0125 153.259 34.0047 153.265 33.998C153.27 33.9913 153.278 33.986 153.286 33.9824C153.294 33.9787 153.302 33.9769 153.311 33.9771H166.951C166.975 33.9771 166.998 33.9676 167.015 33.9507C167.032 33.9338 167.041 33.9109 167.041 33.887V30.7071C167.041 30.6832 167.032 30.6603 167.015 30.6434C166.998 30.6265 166.975 30.6171 166.951 30.6171H153.341C153.332 30.6172 153.324 30.6154 153.316 30.6117C153.308 30.6081 153.3 30.6028 153.295 30.5961C153.289 30.5894 153.285 30.5816 153.282 30.5731C153.28 30.5646 153.28 30.5557 153.281 30.547L153.371 30.217C153.662 29.1848 154.303 28.2861 155.185 27.6748C156.066 27.0636 157.132 26.778 158.201 26.8671H167.201C167.225 26.8671 167.248 26.8576 167.265 26.8407C167.282 26.8238 167.291 26.8009 167.291 26.777V23.217C167.291 23.1932 167.282 23.1703 167.265 23.1534C167.248 23.1365 167.225 23.1271 167.201 23.1271H157.961C156.8 23.0779 155.642 23.2823 154.568 23.7262C153.494 24.17 152.529 24.8426 151.741 25.697C150.248 27.5979 149.437 29.945 149.437 32.3621C149.437 34.7791 150.248 37.1262 151.741 39.027C152.53 39.8829 153.496 40.5562 154.572 41.0001C155.648 41.444 156.808 41.6477 157.971 41.5971H167.321C167.345 41.5971 167.368 41.5876 167.385 41.5707C167.402 41.5538 167.411 41.5309 167.411 41.5071V37.947C167.411 37.9333 167.409 37.9197 167.403 37.9073C167.397 37.8948 167.389 37.8838 167.378 37.8751C167.368 37.8665 167.355 37.8603 167.342 37.8572C167.328 37.854 167.314 37.854 167.301 37.857Z" fill="black"/>
<path d="M123.891 23.127H120.301C120.276 23.1295 120.253 23.1412 120.236 23.1596C120.22 23.1781 120.211 23.2022 120.211 23.227V26.697C120.211 29.977 118.211 31.867 114.681 31.867C111.151 31.867 109.161 29.977 109.161 26.697V23.227C109.158 23.2013 109.147 23.1771 109.129 23.1588C109.111 23.1406 109.086 23.1293 109.061 23.127H105.491C105.466 23.1295 105.443 23.1412 105.426 23.1596C105.41 23.1781 105.401 23.2022 105.401 23.227V26.947C105.352 28.1166 105.557 29.2828 106.002 30.3654C106.448 31.4479 107.123 32.4208 107.981 33.217C109.216 34.2984 110.724 35.0211 112.341 35.307L112.761 35.387H112.811V41.517C112.811 41.5409 112.82 41.5638 112.837 41.5807C112.854 41.5976 112.877 41.607 112.901 41.607H116.491C116.503 41.6084 116.516 41.6072 116.528 41.6033C116.54 41.5994 116.551 41.593 116.561 41.5845C116.57 41.576 116.578 41.5656 116.583 41.5539C116.588 41.5423 116.591 41.5297 116.591 41.517V35.447H116.641L117.001 35.377C118.638 35.1015 120.165 34.3742 121.411 33.277C122.272 32.483 122.95 31.5107 123.397 30.4278C123.845 29.3449 124.051 28.1776 124.001 27.007V23.287C124.016 23.2703 124.024 23.2491 124.026 23.2268C124.027 23.2045 124.021 23.1824 124.008 23.164C123.996 23.1455 123.977 23.1319 123.956 23.1252C123.935 23.1185 123.912 23.1192 123.891 23.127Z" fill="black"/>
<path d="M73.2306 23.1671H62.2306C62.2059 23.1695 62.1829 23.1812 62.1663 23.1997C62.1496 23.2182 62.1405 23.2422 62.1406 23.2671V41.5171C62.1406 41.5409 62.1501 41.5638 62.167 41.5807C62.1839 41.5976 62.2068 41.6071 62.2306 41.6071H65.8206C65.8445 41.6071 65.8674 41.5976 65.8843 41.5807C65.9012 41.5638 65.9106 41.5409 65.9106 41.5171V36.3771C65.9106 36.3612 65.9169 36.3459 65.9282 36.3346C65.9394 36.3234 65.9547 36.3171 65.9706 36.3171H73.2706C74.1508 36.3349 75.0256 36.1759 75.8432 35.8496C76.6609 35.5232 77.4047 35.0361 78.0306 34.4171C79.2678 33.1778 79.9627 31.4982 79.9627 29.7471C79.9627 27.9959 79.2678 26.3164 78.0306 25.0771C77.4008 24.4513 76.6508 23.9595 75.8259 23.6313C75.001 23.303 74.1182 23.1451 73.2306 23.1671ZM73.2306 32.9471H65.9306C65.9147 32.9471 65.8995 32.9408 65.8882 32.9295C65.877 32.9182 65.8706 32.903 65.8706 32.8871V26.5871C65.8706 26.5712 65.877 26.5559 65.8882 26.5446C65.8995 26.5334 65.9147 26.5271 65.9306 26.5271H73.2306C73.6492 26.5196 74.0648 26.5984 74.4515 26.7586C74.8383 26.9187 75.188 27.1567 75.4788 27.4578C75.7696 27.759 75.9953 28.1167 76.1418 28.5088C76.2884 28.9009 76.3527 29.319 76.3306 29.7371C76.3468 30.1537 76.2785 30.5693 76.1299 30.9588C75.9812 31.3483 75.7553 31.7037 75.4657 32.0036C75.176 32.3035 74.8287 32.5417 74.4446 32.7039C74.0605 32.866 73.6475 32.9487 73.2306 32.9471Z" fill="black"/>
<path d="M188.871 23.1271H170.821C170.809 23.1271 170.797 23.1294 170.787 23.1339C170.776 23.1385 170.766 23.1451 170.757 23.1535C170.749 23.1618 170.742 23.1717 170.738 23.1826C170.733 23.1936 170.731 23.2053 170.731 23.2171V26.7771C170.731 26.801 170.74 26.8239 170.757 26.8407C170.774 26.8576 170.797 26.8671 170.821 26.8671H177.901C177.917 26.8671 177.932 26.8734 177.943 26.8847C177.955 26.8959 177.961 26.9112 177.961 26.9271V41.5171C177.961 41.541 177.97 41.5639 177.987 41.5807C178.004 41.5976 178.027 41.6071 178.051 41.6071H181.641C181.665 41.6071 181.688 41.5976 181.705 41.5807C181.721 41.5639 181.731 41.541 181.731 41.5171V26.9271C181.731 26.9112 181.737 26.8959 181.749 26.8847C181.76 26.8734 181.775 26.8671 181.791 26.8671H188.871C188.895 26.8671 188.918 26.8576 188.935 26.8407C188.951 26.8239 188.961 26.801 188.961 26.7771V23.2171C188.961 23.1932 188.951 23.1703 188.935 23.1535C188.918 23.1366 188.895 23.1271 188.871 23.1271Z" fill="black"/>
</svg>
