<svg width="24" height="24" viewBox="0 0 24 24" fill="none" xmlns="http://www.w3.org/2000/svg">
<mask id="mask0" mask-type="alpha" maskUnits="userSpaceOnUse" x="0" y="0" width="24" height="24">
<rect width="24" height="24" fill="#C4C4C4"/>
</mask>
<g mask="url(#mask0)">
<path fill-rule="evenodd" clip-rule="evenodd" d="M3.9002 4.80001C3.9002 4.30296 4.30314 3.90001 4.8002 3.90001H6.8002C7.40771 3.90001 7.9002 3.40753 7.9002 2.80001C7.9002 2.1925 7.40771 1.70001 6.8002 1.70001H4.8002C3.08811 1.70001 1.7002 3.08793 1.7002 4.80001V6.80001C1.7002 7.40753 2.19268 7.90001 2.8002 7.90001C3.40771 7.90001 3.9002 7.40753 3.9002 6.80001V4.80001ZM20.1002 4.80001C20.1002 4.30296 19.6973 3.90001 19.2002 3.90001H17.2002C16.5927 3.90001 16.1002 3.40753 16.1002 2.80001C16.1002 2.1925 16.5927 1.70001 17.2002 1.70001H19.2002C20.9123 1.70001 22.3002 3.08793 22.3002 4.80001V6.80001C22.3002 7.40753 21.8077 7.90001 21.2002 7.90001C20.5927 7.90001 20.1002 7.40753 20.1002 6.80001V4.80001ZM19.2002 20.1C19.6973 20.1 20.1002 19.6971 20.1002 19.2V17.2C20.1002 16.5925 20.5927 16.1 21.2002 16.1C21.8077 16.1 22.3002 16.5925 22.3002 17.2V19.2C22.3002 20.9121 20.9123 22.3 19.2002 22.3H17.2002C16.5927 22.3 16.1002 21.8075 16.1002 21.2C16.1002 20.5925 16.5927 20.1 17.2002 20.1H19.2002ZM3.9002 19.2C3.9002 19.6971 4.30314 20.1 4.8002 20.1H6.8002C7.40771 20.1 7.9002 20.5925 7.9002 21.2C7.9002 21.8075 7.40771 22.3 6.8002 22.3H4.8002C3.08811 22.3 1.7002 20.9121 1.7002 19.2V17.2C1.7002 16.5925 2.19268 16.1 2.8002 16.1C3.40771 16.1 3.9002 16.5925 3.9002 17.2V19.2ZM5.40019 7.70001C5.40019 6.42976 6.42994 5.40001 7.70019 5.40001H9.30019C10.5704 5.40001 11.6002 6.42976 11.6002 7.70001V9.30001C11.6002 10.5703 10.5704 11.6 9.30019 11.6H7.70019C6.42994 11.6 5.40019 10.5703 5.40019 9.30001V7.70001ZM7.70019 7.60001C7.64496 7.60001 7.60019 7.64478 7.60019 7.70001V9.30001C7.60019 9.35524 7.64496 9.40001 7.70019 9.40001H9.30019C9.35542 9.40001 9.40019 9.35524 9.40019 9.30001V7.70001C9.40019 7.64478 9.35542 7.60001 9.30019 7.60001H7.70019ZM7.70019 12.4C6.42994 12.4 5.40019 13.4298 5.40019 14.7V16.3C5.40019 17.5703 6.42994 18.6 7.70019 18.6H9.30019C10.5704 18.6 11.6002 17.5703 11.6002 16.3V14.7C11.6002 13.4298 10.5704 12.4 9.30019 12.4H7.70019ZM7.60019 14.7C7.60019 14.6448 7.64496 14.6 7.70019 14.6H9.30019C9.35542 14.6 9.40019 14.6448 9.40019 14.7V16.3C9.40019 16.3552 9.35542 16.4 9.30019 16.4H7.70019C7.64496 16.4 7.60019 16.3552 7.60019 16.3V14.7ZM12.4002 7.70001C12.4002 6.42976 13.4299 5.40001 14.7002 5.40001H16.3002C17.5704 5.40001 18.6002 6.42976 18.6002 7.70001V9.30001C18.6002 10.5703 17.5704 11.6 16.3002 11.6H14.7002C13.4299 11.6 12.4002 10.5703 12.4002 9.30001V7.70001ZM14.7002 7.60001C14.645 7.60001 14.6002 7.64478 14.6002 7.70001V9.30001C14.6002 9.35524 14.645 9.40001 14.7002 9.40001H16.3002C16.3554 9.40001 16.4002 9.35524 16.4002 9.30001V7.70001C16.4002 7.64478 16.3554 7.60001 16.3002 7.60001H14.7002ZM15.0002 13.7C14.2822 13.7 13.7002 14.282 13.7002 15V15.9C13.7002 16.618 14.2822 17.2 15.0002 17.2H15.9002C16.6182 17.2 17.2002 16.618 17.2002 15.9V15C17.2002 14.282 16.6182 13.7 15.9002 13.7H15.0002Z" fill="black"/>
</g>
</svg>
