<svg width="24" height="24" viewBox="0 0 24 24" fill="none" xmlns="http://www.w3.org/2000/svg">
<mask id="mask0" mask-type="alpha" maskUnits="userSpaceOnUse" x="0" y="0" width="24" height="24">
<rect width="24" height="24" fill="#ffffff"/>
</mask>
<g mask="url(#mask0)">
<path fill-rule="evenodd" clip-rule="evenodd" d="M7.21053 3H13.8555C14.5883 3 15.2911 3.29112 15.8093 3.80931L19.6763 7.67628C19.8836 7.88355 20 8.16468 20 8.45781L20 19.7895C20 21.0103 19.0103 22 17.7895 22H7.21053C5.98969 22 5 21.0103 5 19.7895L5 5.21052C5 3.98968 5.98969 3 7.21053 3ZM7.8205 8C7.36734 8 6.99998 8.36736 6.99998 8.82051C6.99998 9.27367 7.36734 9.64103 7.8205 9.64103H17.1795C17.6326 9.64103 18 9.27367 18 8.82051C18 8.36736 17.6326 8 17.1795 8H7.8205ZM6.99998 12.5615C6.99998 12.1084 7.36734 11.741 7.8205 11.741H17.1795C17.6326 11.741 18 12.1084 18 12.5615C18 13.0147 17.6326 13.3821 17.1795 13.3821H7.8205C7.36734 13.3821 6.99998 13.0147 6.99998 12.5615ZM7.8205 15.4821C7.36734 15.4821 6.99998 15.8494 6.99998 16.3026C6.99998 16.7557 7.36734 17.1231 7.8205 17.1231H17.1795C17.6326 17.1231 18 16.7557 18 16.3026C18 15.8494 17.6326 15.4821 17.1795 15.4821H7.8205Z" fill="white"/>
</g>
</svg>
