<svg width="40" height="40" viewBox="0 0 40 40" fill="none" xmlns="http://www.w3.org/2000/svg">
<path opacity="0.2" fill-rule="evenodd" clip-rule="evenodd" d="M20 40C31.0457 40 40 31.0457 40 20C40 8.9543 31.0457 0 20 0C8.9543 0 0 8.9543 0 20C0 31.0457 8.9543 40 20 40Z" fill="white"/>
<mask id="mask0" mask-type="alpha" maskUnits="userSpaceOnUse" x="0" y="0" width="40" height="40">
<rect width="40" height="40" rx="20" fill="#F4F4F4"/>
</mask>
<g mask="url(#mask0)">
<path d="M47.8846 33.8462C47.8846 37.2447 45.1292 40.0001 41.7308 40.0001H-1.34615C-4.74462 40.0001 -7.5 37.2447 -7.5 33.8462C-7.5 30.4476 -4.74483 27.6924 -1.34616 27.6924H41.7308C45.1294 27.6924 47.8846 30.4476 47.8846 33.8462Z" fill="#CE2028"/>
<path d="M-7.5 19.9999C-7.5 15.7516 -4.05604 12.3076 0.192307 12.3076H40.1923C44.4407 12.3076 47.8846 15.7516 47.8846 19.9999C47.8846 24.2483 44.4406 27.6922 40.1923 27.6922H0.1923C-4.05604 27.6922 -7.5 24.2483 -7.5 19.9999Z" fill="#22408C"/>
<path d="M41.7308 0H-1.34615C-4.74462 0 -7.5 2.75538 -7.5 6.15385C-7.5 9.55252 -4.74483 12.3077 -1.34616 12.3077H41.7308C45.1294 12.3077 47.8846 9.55252 47.8846 6.15385C47.8846 2.75538 45.1292 0 41.7308 0Z" fill="#EEEEEE"/>
</g>
</svg>
