<svg width="24" height="24" viewBox="0 0 24 24" fill="none" xmlns="http://www.w3.org/2000/svg">
<mask id="mask0" mask-type="alpha" maskUnits="userSpaceOnUse" x="0" y="0" width="24" height="24">
<path d="M0 0H24V24H0V0Z" fill="#C4C4C4"/>
</mask>
<g mask="url(#mask0)">
<path fill-rule="evenodd" clip-rule="evenodd" d="M4.5 4.5V21.1667C4.5 21.5441 4.90224 21.7855 5.23529 21.6078L7.07353 20.6275C7.80882 20.2353 8.69118 20.2353 9.42647 20.6275L11.7647 21.8745C11.9118 21.9529 12.0882 21.9529 12.2353 21.8745L14.5735 20.6275C14.8668 20.4711 15.1834 20.377 15.5048 20.3454C15.5409 19.758 15.7834 19.181 16.2322 18.7322C16.4602 18.5042 16.7213 18.3295 17 18.208V16.0581C16.9015 16.0999 16.7932 16.1231 16.6795 16.1231H7.32051C6.86736 16.1231 6.5 15.7557 6.5 15.3026C6.5 14.8494 6.86736 14.4821 7.32051 14.4821H16.6795C16.9359 14.4821 17.1648 14.5996 17.3152 14.7838C17.7425 14.018 18.5608 13.5 19.5 13.5V4.5C19.5 3.11929 18.3807 2 17 2H7C5.61929 2 4.5 3.11929 4.5 4.5ZM7.32051 7C6.86736 7 6.5 7.36736 6.5 7.82051C6.5 8.27367 6.86736 8.64103 7.32051 8.64103H16.6795C17.1326 8.64103 17.5 8.27367 17.5 7.82051C17.5 7.36736 17.1326 7 16.6795 7H7.32051ZM6.5 11.5615C6.5 11.1084 6.86736 10.741 7.32051 10.741H16.6795C17.1326 10.741 17.5 11.1084 17.5 11.5615C17.5 12.0147 17.1326 12.3821 16.6795 12.3821H7.32051C6.86736 12.3821 6.5 12.0147 6.5 11.5615Z" fill="black"/>
<path d="M19.5 22V16M19.5 22L18 20.5M19.5 22L21 20.5" stroke="black" stroke-width="1.6" stroke-linecap="round" stroke-linejoin="round"/>
</g>
</svg>
