<svg width="24" height="24" viewBox="0 0 24 24" fill="none" xmlns="http://www.w3.org/2000/svg">
<mask id="mask0" mask-type="alpha" maskUnits="userSpaceOnUse" x="0" y="0" width="24" height="24">
<rect width="24" height="24" fill="#C4C4C4"/>
</mask>
<g mask="url(#mask0)">
<path fill-rule="evenodd" clip-rule="evenodd" d="M4.5 21.1667V4.5C4.5 3.11929 5.61929 2 7 2H17C18.3807 2 19.5 3.11929 19.5 4.5L19.5 21.1667C19.5 21.5441 19.0978 21.7855 18.7647 21.6078L16.9265 20.6275C16.1912 20.2353 15.3088 20.2353 14.5735 20.6275L12.2353 21.8745C12.0882 21.9529 11.9118 21.9529 11.7647 21.8745L9.42647 20.6275C8.69118 20.2353 7.80882 20.2353 7.07353 20.6275L5.23529 21.6078C4.90224 21.7855 4.5 21.5441 4.5 21.1667ZM7.32051 7C6.86736 7 6.5 7.36736 6.5 7.82051C6.5 8.27367 6.86736 8.64103 7.32051 8.64103H16.6795C17.1326 8.64103 17.5 8.27367 17.5 7.82051C17.5 7.36736 17.1326 7 16.6795 7H7.32051ZM6.5 11.5615C6.5 11.1084 6.86736 10.741 7.32051 10.741H16.6795C17.1326 10.741 17.5 11.1084 17.5 11.5615C17.5 12.0147 17.1326 12.3821 16.6795 12.3821H7.32051C6.86736 12.3821 6.5 12.0147 6.5 11.5615ZM7.32051 14.4821C6.86736 14.4821 6.5 14.8494 6.5 15.3026C6.5 15.7557 6.86736 16.1231 7.32051 16.1231H16.6795C17.1326 16.1231 17.5 15.7557 17.5 15.3026C17.5 14.8494 17.1326 14.4821 16.6795 14.4821H7.32051Z" fill="black"/>
</g>
</svg>
