<svg width="24" height="24" viewBox="0 0 24 24" fill="none" xmlns="http://www.w3.org/2000/svg">
<mask id="mask0" mask-type="alpha" maskUnits="userSpaceOnUse" x="0" y="0" width="24" height="24">
<rect width="24" height="24" fill="#C4C4C4"/>
</mask>
<g mask="url(#mask0)">
<path fill-rule="evenodd" clip-rule="evenodd" d="M17 7C17 9.76142 14.7615 12 12 12C9.23862 12 7.00005 9.76142 7.00005 7C7.00005 4.23858 9.23862 2 12 2C14.7615 2 17 4.23858 17 7ZM15 7C15 8.65685 13.6569 10 12 10C10.3432 10 9.00005 8.65685 9.00005 7C9.00005 5.34315 10.3432 4 12 4C13.6569 4 15 5.34315 15 7ZM3.70275 14C2.50024 14 1.98176 15.5244 2.9349 16.2576L6.17518 18.7501C6.39048 18.9157 6.62996 19.0472 6.88524 19.1401L9.07137 19.935C11.0089 20.6396 13.0547 21 15.1163 21H20.2252C21.5903 21 22.5542 19.6626 22.1226 18.3675L21.3963 16.1887C21.1539 15.4617 20.5175 14.9371 19.7576 14.8379L11.682 13.7846C10.8306 13.6736 10.2444 14.6165 10.7207 15.3309L11.0405 15.8107C11.3348 16.2521 11.7923 16.5584 12.3124 16.6625L16.5486 17.5097C16.8418 17.5683 16.799 18 16.5 18C13.559 18 10.6306 17.3153 8.00005 16L4.26596 14.133C4.09109 14.0455 3.89826 14 3.70275 14Z" fill="black"/>
</g>
</svg>
