<svg width="24" height="24" viewBox="0 0 24 24" fill="none" xmlns="http://www.w3.org/2000/svg">
<mask id="mask0" mask-type="alpha" maskUnits="userSpaceOnUse" x="0" y="0" width="24" height="24">
<rect width="24" height="24" fill="#DDDDDD"/>
</mask>
<g mask="url(#mask0)">
<path fill-rule="evenodd" clip-rule="evenodd" d="M17.4366 5.48894C17.6209 5.38432 17.7803 5.32977 17.8812 5.31639C18.2051 5.60131 18.5056 5.9078 18.7814 6.23272C18.7664 6.33342 18.7092 6.49206 18.6015 6.67474C18.1295 7.47469 18.0203 8.48215 18.3969 9.41335C18.7734 10.3446 19.5522 10.9929 20.4475 11.24C20.652 11.2964 20.8034 11.3707 20.8841 11.4327C20.9117 11.858 20.9086 12.2873 20.8738 12.7172C20.792 12.7777 20.6395 12.8493 20.4343 12.9022C19.5346 13.1339 18.7446 13.7692 18.3523 14.6942C17.96 15.6192 18.0524 16.6287 18.5111 17.4366C18.6157 17.6209 18.6703 17.7802 18.6837 17.8811C18.3987 18.205 18.0922 18.5056 17.7673 18.7814C17.6666 18.7664 17.508 18.7092 17.3253 18.6014C16.5254 18.1295 15.5179 18.0203 14.5867 18.3968C13.6555 18.7734 13.0071 19.5522 12.76 20.4475C12.7036 20.6519 12.6293 20.8033 12.5673 20.8841C12.142 20.9116 11.7128 20.9086 11.2828 20.8738C11.2223 20.792 11.1507 20.6395 11.0979 20.4343C10.8661 19.5346 10.2309 18.7446 9.30585 18.3523C8.38085 17.96 7.37136 18.0523 6.56344 18.5111C6.37919 18.6157 6.2198 18.6702 6.11891 18.6836C5.79501 18.3987 5.49449 18.0922 5.21866 17.7673C5.23364 17.6666 5.29085 17.508 5.39863 17.3253C5.87057 16.5253 5.97978 15.5179 5.60323 14.5867C5.22668 13.6555 4.4479 13.0071 3.55258 12.76C3.34812 12.7036 3.19673 12.6293 3.11596 12.5673C3.08842 12.142 3.09144 11.7128 3.12627 11.2828C3.2081 11.2223 3.3606 11.1507 3.56579 11.0979C4.46548 10.8661 5.25545 10.2308 5.64777 9.30583C6.04009 8.38082 5.94771 7.37134 5.48897 6.56342C5.38435 6.37917 5.3298 6.21978 5.31643 6.11889C5.60135 5.79498 5.90784 5.49447 6.23275 5.21863C6.33346 5.23361 6.49209 5.29082 6.67477 5.3986C7.47472 5.87054 8.48218 5.97975 9.41338 5.6032C10.3446 5.22665 10.993 4.44787 11.24 3.55255C11.2965 3.34809 11.3708 3.19669 11.4327 3.11593C11.8581 3.08839 12.2873 3.09141 12.7173 3.12624C12.7778 3.20806 12.8493 3.36057 12.9022 3.56575C13.134 4.46545 13.7692 5.25541 14.6942 5.64773C15.6192 6.04006 16.6287 5.94768 17.4366 5.48894ZM19.2547 3.5953C18.7216 3.13533 18.09 3.0705 17.5975 3.13476C17.1179 3.19733 16.6806 3.38833 16.3504 3.57582C16.1124 3.71094 15.821 3.73595 15.5532 3.62237C15.2855 3.5088 15.1009 3.28195 15.0326 3.01694C14.9379 2.64923 14.7713 2.20207 14.4829 1.81376C14.1867 1.41501 13.7011 1.00598 12.9998 0.942427C12.3922 0.887356 11.7857 0.883268 11.1861 0.927789C10.4843 0.979897 9.99216 1.38047 9.68941 1.77399C9.39454 2.15725 9.22031 2.60133 9.11932 2.96731C9.04654 3.23103 8.85823 3.45463 8.58865 3.56364C8.31908 3.67264 8.02827 3.64278 7.79264 3.50377C7.46565 3.31086 7.03172 3.11269 6.55333 3.04211C6.06215 2.96964 5.42987 3.02376 4.88915 3.47406C4.42715 3.85881 3.99394 4.28333 3.59534 4.7453C3.13537 5.27841 3.07054 5.91004 3.13479 6.40255C3.19737 6.88218 3.38837 7.31949 3.57586 7.64969C3.71098 7.88766 3.73598 8.17903 3.62241 8.44681C3.50883 8.71459 3.28198 8.89914 3.01697 8.96741C2.64927 9.06213 2.20211 9.22878 1.81379 9.51717C1.41505 9.81331 1.00601 10.299 0.942459 11.0002C0.887387 11.6079 0.883298 12.2144 0.92782 12.814C0.979928 13.5157 1.3805 14.0079 1.77402 14.3106C2.15728 14.6055 2.60136 14.7797 2.96734 14.8807C3.23106 14.9535 3.45466 15.1418 3.56367 15.4114C3.67267 15.681 3.64281 15.9718 3.5038 16.2074C3.31089 16.5344 3.11273 16.9683 3.04214 17.4467C2.96967 17.9379 3.02379 18.5702 3.4741 19.1109C3.85884 19.5729 4.28335 20.0061 4.74533 20.4047C5.27843 20.8647 5.91006 20.9295 6.40257 20.8653C6.88221 20.8027 7.31951 20.6117 7.64971 20.4242C7.88769 20.2891 8.17905 20.2641 8.44683 20.3776C8.71461 20.4912 8.89916 20.7181 8.96743 20.9831C9.06215 21.3508 9.2288 21.7979 9.5172 22.1863C9.81333 22.585 10.299 22.994 11.0002 23.0576C11.6079 23.1127 12.2144 23.1168 12.814 23.0722C13.5157 23.0201 14.0079 22.6196 14.3107 22.226C14.6055 21.8428 14.7798 21.3987 14.8808 21.0327C14.9535 20.769 15.1419 20.5454 15.4114 20.4364C15.681 20.3274 15.9718 20.3572 16.2074 20.4963C16.5344 20.6892 16.9684 20.8873 17.4468 20.9579C17.9379 21.0304 18.5702 20.9763 19.1109 20.526C19.5729 20.1412 20.0061 19.7167 20.4047 19.2547C20.8647 18.7216 20.9295 18.09 20.8653 17.5975C20.8027 17.1178 20.6117 16.6805 20.4242 16.3503C20.2891 16.1124 20.2641 15.821 20.3777 15.5532C20.4913 15.2854 20.7181 15.1009 20.9831 15.0326C21.3508 14.9379 21.798 14.7712 22.1863 14.4828C22.585 14.1867 22.9941 13.7011 23.0576 12.9998C23.1127 12.3922 23.1168 11.7856 23.0723 11.1861C23.0202 10.4843 22.6196 9.99213 22.2261 9.68938C21.8428 9.39451 21.3987 9.22028 21.0327 9.11929C20.769 9.04651 20.5454 8.8582 20.4364 8.58862C20.3274 8.31905 20.3573 8.02824 20.4963 7.79261C20.6892 7.46562 20.8874 7.03169 20.9579 6.5533C21.0304 6.06212 20.9763 5.42984 20.526 4.88911C20.1412 4.42711 19.7167 3.9939 19.2547 3.5953ZM13.8 12C13.8 12.9941 12.9942 13.8 12 13.8C11.0059 13.8 10.2 12.9941 10.2 12C10.2 11.0059 11.0059 10.2 12 10.2C12.9942 10.2 13.8 11.0059 13.8 12ZM16 12C16 14.2091 14.2092 16 12 16C9.7909 16 8.00004 14.2091 8.00004 12C8.00004 9.79087 9.7909 8.00001 12 8.00001C14.2092 8.00001 16 9.79087 16 12Z" fill="black"/>
</g>
</svg>
