<svg width="24" height="24" viewBox="0 0 24 24" fill="none" xmlns="http://www.w3.org/2000/svg">
<mask id="mask0" mask-type="alpha" maskUnits="userSpaceOnUse" x="0" y="0" width="24" height="24">
<rect width="24" height="24" fill="#DDDDDD"/>
</mask>
<g mask="url(#mask0)">
<path d="M21.79 10.4793L15.2899 3.72924C15.0779 3.50933 14.7529 3.4403 14.47 3.55419C14.186 3.66918 14 3.94421 14 4.25018V7.50031H13.75C8.37403 7.50031 4 11.8743 4 17.2503V18.7503C4 19.0982 4.245 19.3883 4.58392 19.4674C4.63904 19.4813 4.69397 19.4873 4.7489 19.4873C5.03199 19.4873 5.30298 19.3213 5.4339 19.0603C6.83997 16.2473 9.66695 14.5003 12.812 14.5003H14V17.7502C14 18.0564 14.186 18.3314 14.47 18.4453C14.7511 18.5603 15.0779 18.4903 15.2899 18.2702L21.79 11.5202C22.07 11.2293 22.07 10.7713 21.79 10.4793Z" fill="black"/>
</g>
</svg>
