<svg width="24" height="24" viewBox="0 0 24 24" fill="none" xmlns="http://www.w3.org/2000/svg">
<mask id="mask0" mask-type="alpha" maskUnits="userSpaceOnUse" x="0" y="0" width="24" height="24">
<rect width="24" height="24" fill="#DDDDDD"/>
</mask>
<g mask="url(#mask0)">
<path fill-rule="evenodd" clip-rule="evenodd" d="M17.4588 7.1204L15.5933 7.32768C14.7176 4.04108 9.96626 4.04108 9.09054 7.32768L7.22504 7.1204C8.3952 1.62653 16.2886 1.62653 17.4588 7.1204ZM5.86298 8.81587C4.6966 8.69923 3.76734 9.77437 4.05164 10.9116L5.77208 17.7933C6.24323 19.6779 7.93655 21 9.87916 21H14.8046C16.7472 21 18.4405 19.6779 18.9117 17.7933L20.6321 10.9116C20.9164 9.77437 19.9872 8.69923 18.8208 8.81587L13.3529 9.36266C12.6806 9.42989 12.0032 9.42989 11.3309 9.36266L5.86298 8.81587Z" fill="black"/>
</g>
</svg>
