<svg width="30" height="30" viewBox="0 0 30 30" fill="none" xmlns="http://www.w3.org/2000/svg">
<mask id="mask0" mask-type="alpha" maskUnits="userSpaceOnUse" x="0" y="0" width="30" height="30">
<rect width="30" height="30" fill="#C4C4C4"/>
</mask>
<g mask="url(#mask0)">
<path d="M4.78564 15.6103C4.78564 13.0277 6.43822 10.7349 8.88828 9.91819L10.3571 9.42859V26C10.3571 27.1046 9.46164 28 8.35707 28H6.78565C5.68108 28 4.78564 27.1046 4.78564 26V15.6103Z" fill="black"/>
<path d="M12.2144 8.1817C12.2144 5.59911 13.8669 3.30629 16.317 2.4896L17.7858 2V26C17.7858 27.1046 16.8904 28 15.7858 28H14.2144C13.1098 28 12.2144 27.1046 12.2144 26V8.1817Z" fill="black"/>
<path d="M25.2144 23.0388C25.2144 20.4563 23.5618 18.1634 21.1117 17.3467L19.6429 16.8571V26C19.6429 27.1046 20.5384 28 21.6429 28H23.2144C24.3189 28 25.2144 27.1046 25.2144 26V23.0388Z" fill="black"/>
</g>
</svg>
