<svg width="24" height="24" viewBox="0 0 24 24" fill="none" xmlns="http://www.w3.org/2000/svg">
<mask id="mask0" mask-type="alpha" maskUnits="userSpaceOnUse" x="0" y="0" width="24" height="24">
<rect width="24" height="24" fill="#DDDDDD"/>
</mask>
<path fill-rule="evenodd" clip-rule="evenodd" d="M18.2 19.5H4.5C3.11929 19.5 2 18.3807 2 17V7C2 5.61929 3.11929 4.5 4.5 4.5H19.5C20.8807 4.5 22 5.61929 22 7V12.7302L21.7849 12.5151C20.9648 11.695 19.6352 11.695 18.8151 12.5151L17.3151 14.0151C16.495 14.8352 16.495 16.1648 17.3151 16.9849C17.5708 17.2407 17.8761 17.4166 18.2 17.5129V19.5ZM4.5 11.8C4.1134 11.8 3.8 12.1134 3.8 12.5C3.8 12.8866 4.1134 13.2 4.5 13.2H15.5C15.8866 13.2 16.2 12.8866 16.2 12.5C16.2 12.1134 15.8866 11.8 15.5 11.8H4.5ZM3.8 15.5C3.8 15.1134 4.1134 14.8 4.5 14.8H12.5C12.8866 14.8 13.2 15.1134 13.2 15.5C13.2 15.8866 12.8866 16.2 12.5 16.2H4.5C4.1134 16.2 3.8 15.8866 3.8 15.5Z" fill="black"/>
<path d="M20.2998 14L20.2998 20M20.2998 14L21.7998 15.5M20.2998 14L18.7998 15.5" stroke="black" stroke-width="1.6" stroke-linecap="round" stroke-linejoin="round"/>
</svg>
