<svg width="24" height="24" viewBox="0 0 24 24" fill="none" xmlns="http://www.w3.org/2000/svg">
<mask id="mask0" mask-type="alpha" maskUnits="userSpaceOnUse" x="0" y="0" width="24" height="24">
<rect width="24" height="24" fill="#DDDDDD"/>
</mask>
<path fill-rule="evenodd" clip-rule="evenodd" d="M16.9527 19.5H4.5C3.11929 19.5 2 18.3807 2 17V7C2 5.61929 3.11929 4.5 4.5 4.5H19.5C20.8807 4.5 22 5.61929 22 7V12.7669C21.6183 12.2416 20.999 11.9 20.3 11.9C19.1402 11.9 18.2 12.8402 18.2 14V16.4871C17.8761 16.5834 17.5708 16.7593 17.3151 17.0151C16.6422 17.688 16.5214 18.7039 16.9527 19.5ZM4.5 11.8C4.1134 11.8 3.8 12.1134 3.8 12.5C3.8 12.8866 4.1134 13.2 4.5 13.2H15.5C15.8866 13.2 16.2 12.8866 16.2 12.5C16.2 12.1134 15.8866 11.8 15.5 11.8H4.5ZM3.8 15.5C3.8 15.1134 4.1134 14.8 4.5 14.8H12.5C12.8866 14.8 13.2 15.1134 13.2 15.5C13.2 15.8866 12.8866 16.2 12.5 16.2H4.5C4.1134 16.2 3.8 15.8866 3.8 15.5Z" fill="black"/>
<path d="M20.2998 20V14M20.2998 20L18.7998 18.5M20.2998 20L21.7998 18.5" stroke="black" stroke-width="1.6" stroke-linecap="round" stroke-linejoin="round"/>
</svg>
