<svg width="40" height="40" viewBox="0 0 40 40" fill="none" xmlns="http://www.w3.org/2000/svg">
<path d="M24.0002 10.9998H9.00024V23.9998H24.0002V10.9998Z" stroke="#000000" stroke-width="2" stroke-linecap="round" stroke-linejoin="round"/>
<path d="M24.0002 15.9998H28.0002L31.0002 18.9998V23.9998H24.0002V15.9998Z" stroke="#000000" stroke-width="2" stroke-linecap="round" stroke-linejoin="round"/>
<path d="M13.4998 29.0002C14.8805 29.0002 15.9998 27.881 15.9998 26.5002C15.9998 25.1195 14.8805 24.0002 13.4998 24.0002C12.119 24.0002 10.9998 25.1195 10.9998 26.5002C10.9998 27.881 12.119 29.0002 13.4998 29.0002Z" stroke="#000000" stroke-width="2" stroke-linecap="round" stroke-linejoin="round"/>
<path d="M26.5002 29.0002C27.881 29.0002 29.0002 27.881 29.0002 26.5002C29.0002 25.1195 27.881 24.0002 26.5002 24.0002C25.1195 24.0002 24.0002 25.1195 24.0002 26.5002C24.0002 27.881 25.1195 29.0002 26.5002 29.0002Z" stroke="#000000" stroke-width="2" stroke-linecap="round" stroke-linejoin="round"/>
</svg>
