<svg width="30" height="30" viewBox="0 0 30 30" fill="none" xmlns="http://www.w3.org/2000/svg">
<mask id="mask0" mask-type="alpha" maskUnits="userSpaceOnUse" x="0" y="0" width="30" height="30">
<rect width="30" height="30" fill="#C4C4C4"/>
</mask>
<g mask="url(#mask0)">
<path fill-rule="evenodd" clip-rule="evenodd" d="M6.82892 7.28039C7.11568 6.2137 8.21325 5.58002 9.28042 5.86503L28.0364 10.8743C29.1036 11.1593 29.7362 12.255 29.4495 13.3217L25.942 26.3689C25.6553 27.4356 24.5577 28.0693 23.4905 27.7842L4.73455 22.775C3.66738 22.49 3.03474 21.3942 3.3215 20.3275L6.82892 7.28039ZM5.45452 19.037C5.59062 18.5307 6.11155 18.2299 6.61805 18.3652L24.0975 23.0335C24.604 23.1688 24.9043 23.6889 24.7682 24.1951C24.6321 24.7014 24.1112 25.0022 23.6047 24.8669L6.12518 20.1986C5.61869 20.0633 5.31842 19.5432 5.45452 19.037ZM7.50266 14.9677C7.01096 14.8364 6.50525 15.1283 6.37312 15.6198C6.241 16.1113 6.53249 16.6162 7.02419 16.7475L12.6012 18.237C13.0929 18.3683 13.5986 18.0763 13.7307 17.5848C13.8628 17.0933 13.5713 16.5885 13.0796 16.4571L7.50266 14.9677Z" fill="black"/>
<path fill-rule="evenodd" clip-rule="evenodd" d="M1.06888 8.53233C0.782482 7.46554 1.41534 6.36939 2.48241 6.08402L5.69046 5.22607L2.934 15.4797L1.06888 8.53233ZM25.1957 8.1019L23.6874 2.48333C23.401 1.41654 22.3038 0.783071 21.2367 1.06844L10.0562 4.05852L25.1957 8.1019Z" fill="black"/>
</g>
</svg>
