<svg width="24" height="24" viewBox="0 0 24 24" fill="none" xmlns="http://www.w3.org/2000/svg">
<mask id="mask0" mask-type="alpha" maskUnits="userSpaceOnUse" x="0" y="0" width="24" height="24">
<rect width="24" height="24" fill="#C4C4C4"/>
</mask>
<g mask="url(#mask0)">
<path fill-rule="evenodd" clip-rule="evenodd" d="M2.6 2C1.71634 2 1 2.71634 1 3.6V17.4C1 18.2837 1.71634 19 2.6 19H21.4C22.2837 19 23 18.2837 23 17.4V3.6C23 2.71634 22.2837 2 21.4 2H2.6ZM4.20001 4.125C3.64773 4.125 3.20001 4.57272 3.20001 5.125V15.875C3.20001 16.4273 3.64773 16.875 4.20001 16.875H19.8C20.3523 16.875 20.8 16.4273 20.8 15.875V5.125C20.8 4.57272 20.3523 4.125 19.8 4.125H4.20001Z" fill="black"/>
<path d="M8 21.1757C8 20.7828 8.27733 20.4445 8.66261 20.3675L9.56584 20.1868C10.1553 20.0689 10.6572 19.6855 10.926 19.1479L12 17L13.074 19.1479C13.3428 19.6855 13.8447 20.0689 14.4342 20.1868L15.3374 20.3675C15.7227 20.4445 16 20.7828 16 21.1757C16 21.631 15.631 22 15.1757 22H8.82426C8.36904 22 8 21.631 8 21.1757Z" fill="black"/>
</g>
</svg>
