<svg width="40" height="40" viewBox="0 0 40 40" fill="none" xmlns="http://www.w3.org/2000/svg">
<path opacity="0.2" fill-rule="evenodd" clip-rule="evenodd" d="M20 40C31.0457 40 40 31.0457 40 20C40 8.9543 31.0457 0 20 0C8.9543 0 0 8.9543 0 20C0 31.0457 8.9543 40 20 40Z" fill="white"/>
<mask id="mask0" mask-type="alpha" maskUnits="userSpaceOnUse" x="0" y="0" width="40" height="40">
<rect width="40" height="40" rx="20" fill="#F4F4F4"/>
</mask>
<g mask="url(#mask0)">
<path d="M-1.25 6.15385V12.3077H54.1346V6.15385C54.1346 2.75538 51.3792 0 47.9808 0H4.90385C1.50538 0 -1.25 2.75538 -1.25 6.15385Z" fill="#0099B5"/>
<path d="M54.1346 33.8472V27.6934H-1.25V33.8472C-1.25 37.2457 1.50538 40.0011 4.90385 40.0011H47.9808C51.3792 40.0011 54.1346 37.2457 54.1346 33.8472Z" fill="#1EB53A"/>
<path d="M-1.25 12.3066H54.1346V14.6143H-1.25V12.3066ZM-1.25 25.3836H54.1346V27.6913H-1.25V25.3836Z" fill="#CE1126"/>
<path d="M-1.25 20.0008V25.3854H54.1346V14.6162H-1.25V20.0008Z" fill="#EEEEEE"/>
<path d="M5.2123 6.40059C5.2123 4.02212 6.94307 2.04982 9.2123 1.66828C8.9523 1.6252 8.68461 1.60059 8.4123 1.60059C5.76154 1.60059 3.6123 3.74982 3.6123 6.40059C3.6123 9.05135 5.76154 11.2006 8.4123 11.2006C8.68461 11.2006 8.9523 11.176 9.2123 11.1329C6.94307 10.7514 5.2123 8.77905 5.2123 6.40059ZM12.4169 9.94366L12.2015 9.28058L11.9861 9.94366H11.2877L11.8523 10.3544L11.6369 11.0175L12.2015 10.6067L12.7646 11.0175L12.5492 10.3544L13.1138 9.94366H12.4169ZM16.5738 9.94366L16.3585 9.28058L16.1431 9.94366H15.4462L16.0108 10.3544L15.7954 11.0175L16.3585 10.6067L16.9231 11.0175L16.7077 10.3544L17.2723 9.94366H16.5738ZM16.3585 5.44059L16.1431 6.10366H15.4462L16.0108 6.51443L15.7954 7.17751L16.3585 6.76674L16.9231 7.17751L16.7077 6.51443L17.2723 6.10366H16.5738L16.3585 5.44059ZM20.7323 9.94366L20.5169 9.28058L20.3015 9.94366H19.6046L20.1677 10.3544L19.9523 11.0175L20.5169 10.6067L21.0815 11.0175L20.8661 10.3544L21.4292 9.94366H20.7323ZM20.5169 5.44059L20.3015 6.10366H19.6046L20.1677 6.51443L19.9523 7.17751L20.5169 6.76674L21.0815 7.17751L20.8661 6.51443L21.4292 6.10366H20.7323L20.5169 5.44059ZM20.5169 1.60059L20.3015 2.26366H19.6046L20.1677 2.67443L19.9523 3.33751L20.5169 2.92674L21.0815 3.33751L20.8661 2.67443L21.4292 2.26366H20.7323L20.5169 1.60059ZM24.8908 9.94366L24.6754 9.28058L24.46 9.94366H23.7615L24.3262 10.3544L24.1108 11.0175L24.6754 10.6067L25.2385 11.0175L25.0231 10.3544L25.5877 9.94366H24.8908ZM24.6754 5.44059L24.46 6.10366H23.7615L24.3262 6.51443L24.1108 7.17751L24.6754 6.76674L25.2385 7.17751L25.0231 6.51443L25.5877 6.10366H24.8908L24.6754 5.44059ZM24.6754 1.60059L24.46 2.26366H23.7615L24.3262 2.67443L24.1108 3.33751L24.6754 2.92674L25.2385 3.33751L25.0231 2.67443L25.5877 2.26366H24.8908L24.6754 1.60059ZM29.0477 9.94366L28.8323 9.28058L28.6169 9.94366H27.92L28.4846 10.3544L28.2692 11.0175L28.8323 10.6067L29.3969 11.0175L29.1815 10.3544L29.7461 9.94366H29.0477ZM28.8323 5.44059L28.6169 6.10366H27.92L28.4846 6.51443L28.2692 7.17751L28.8323 6.76674L29.3969 7.17751L29.1815 6.51443L29.7461 6.10366H29.0477L28.8323 5.44059ZM28.8323 1.60059L28.6169 2.26366H27.92L28.4846 2.67443L28.2692 3.33751L28.8323 2.92674L29.3969 3.33751L29.1815 2.67443L29.7461 2.26366H29.0477L28.8323 1.60059Z" fill="white"/>
</g>
</svg>
