<svg width="24" height="24" viewBox="0 0 24 24" fill="none" xmlns="http://www.w3.org/2000/svg">
<mask id="mask0" mask-type="alpha" maskUnits="userSpaceOnUse" x="0" y="0" width="24" height="24">
<rect width="24" height="24" fill="#F4F4F4"/>
</mask>
<g mask="url(#mask0)">
<path fill-rule="evenodd" clip-rule="evenodd" d="M6.31825 5.63639C5.88867 6.06597 5.88867 6.76245 6.31825 7.19203L6.82011 7.69389C6.81175 7.69902 6.8034 7.70415 6.79507 7.70928L8.40262 9.31683C8.41128 9.31202 8.41996 9.30722 8.42865 9.30242L9.89194 10.7657L13.2747 14.1485L14.0901 14.9639C14.0793 14.9666 14.0686 14.9693 14.0578 14.9721L15.806 16.7202C15.8157 16.7164 15.8254 16.7127 15.8351 16.7089L16.7834 17.6572C17.213 18.0868 17.9095 18.0868 18.3391 17.6572C18.7686 17.2276 18.7686 16.5311 18.3391 16.1016L17.9079 15.6704C18.1357 15.53 18.3498 15.3892 18.5492 15.2515C19.2871 14.7418 19.8814 14.2344 20.294 13.8522C20.5014 13.66 20.6659 13.4968 20.7826 13.377C20.841 13.317 20.8877 13.2677 20.9221 13.2308L20.9406 13.211L20.9645 13.1849L20.9786 13.1694L20.9839 13.1635L20.9861 13.161L20.9871 13.1599C20.9876 13.1594 20.988 13.1589 19.3491 11.6913L20.988 13.1589L22.3022 11.6913L20.988 10.2238L19.3491 11.6913C20.988 10.2238 20.9876 10.2232 20.9871 10.2227L20.9861 10.2216L20.9839 10.2192L20.9786 10.2133L20.9645 10.1977C20.9535 10.1857 20.9393 10.1703 20.9221 10.1519C20.8877 10.115 20.841 10.0656 20.7826 10.0057C20.6659 9.88585 20.5014 9.72263 20.294 9.53051C19.8814 9.14828 19.2871 8.6409 18.5492 8.13118C17.1152 7.14068 14.9223 5.99133 12.3491 5.99133C11.0934 5.99133 9.92835 6.265 8.89783 6.66034L7.87388 5.63639C7.44431 5.20681 6.74783 5.20681 6.31825 5.63639ZM10.6465 8.40904C11.1916 8.27208 11.7619 8.19133 12.3491 8.19133C14.4968 8.19133 16.4186 9.27149 17.7026 10.2317C17.7399 10.2596 17.7766 10.2873 17.8128 10.315C18.7741 11.0492 19.3491 11.6913 19.3491 11.6913C19.3491 11.6913 18.7741 12.3335 17.8128 13.0677C17.7766 13.0953 17.7399 13.1231 17.7026 13.151C17.2951 13.4557 16.8234 13.7725 16.3005 14.0631L14.8192 12.5817C14.9195 12.3037 14.9741 12.0039 14.9741 11.6913C14.9741 10.2416 13.7988 9.06633 12.3491 9.06633C12.0365 9.06633 11.7367 9.12096 11.4587 9.2212L10.6465 8.40904ZM13.3127 17.3381L11.0351 15.0606C9.42551 14.7448 8.01108 13.9104 6.99554 13.151C6.95826 13.1231 6.92152 13.0953 6.88533 13.0677C5.92409 12.3335 5.34908 11.6913 5.34908 11.6913C5.34908 11.6913 5.79277 11.1958 6.55221 10.5777L4.98954 9.01502C4.76651 9.20183 4.57054 9.37635 4.40412 9.53051C4.19672 9.72263 4.0323 9.88585 3.91556 10.0057C3.85712 10.0656 3.81041 10.115 3.77603 10.1519C3.75883 10.1703 3.74469 10.1857 3.73368 10.1977L3.71953 10.2133L3.71422 10.2192L3.71202 10.2216L3.71103 10.2227C3.71056 10.2232 3.71011 10.2238 5.34908 11.6913L3.71011 10.2238L2.396 11.6913L3.71011 13.1589L5.34908 11.6913C3.71011 13.1589 3.71056 13.1594 3.71103 13.1599L3.71202 13.161L3.71422 13.1635L3.71953 13.1694L3.73368 13.1849C3.74469 13.197 3.75883 13.2124 3.77603 13.2308C3.81041 13.2677 3.85712 13.317 3.91556 13.377C4.0323 13.4968 4.19672 13.66 4.40412 13.8522C4.81675 14.2344 5.41106 14.7418 6.14898 15.2515C7.58294 16.242 9.77582 17.3913 12.3491 17.3913C12.6767 17.3913 12.9981 17.3727 13.3127 17.3381Z" fill="black"/>
</g>
</svg>
