<svg width="24" height="24" viewBox="0 0 24 24" fill="none" xmlns="http://www.w3.org/2000/svg">
<mask id="mask0" mask-type="alpha" maskUnits="userSpaceOnUse" x="0" y="0" width="24" height="24">
<rect width="24" height="24" fill="#F4F4F4"/>
</mask>
<g mask="url(#mask0)">
<path fill-rule="evenodd" clip-rule="evenodd" d="M19.3491 11.6913L20.988 13.1589L22.3022 11.6913L20.988 10.2238L19.3491 11.6913ZM5.34908 11.6913C3.71011 10.2238 3.71056 10.2232 3.71103 10.2227L3.71202 10.2216L3.71422 10.2192L3.71953 10.2133L3.73368 10.1977C3.74469 10.1857 3.75883 10.1703 3.77603 10.1519C3.81041 10.115 3.85712 10.0656 3.91556 10.0057C4.0323 9.88586 4.19672 9.72263 4.40412 9.53051C4.81675 9.14828 5.41106 8.6409 6.14898 8.13119C7.58294 7.14069 9.77582 5.99133 12.3491 5.99133C14.9223 5.99133 17.1152 7.14069 18.5492 8.13119C19.2871 8.6409 19.8814 9.14828 20.294 9.53051C20.5014 9.72263 20.6659 9.88586 20.7826 10.0057C20.841 10.0656 20.8877 10.115 20.9221 10.1519C20.9393 10.1703 20.9535 10.1857 20.9645 10.1977L20.9786 10.2133L20.9839 10.2192L20.9861 10.2216L20.9871 10.2227C20.9876 10.2232 20.988 10.2238 19.3491 11.6913C19.3491 11.6913 18.7741 11.0492 17.8128 10.315C17.7766 10.2873 17.7399 10.2596 17.7026 10.2317C16.4186 9.2715 14.4968 8.19133 12.3491 8.19133C10.2014 8.19133 8.2796 9.2715 6.99554 10.2317C6.95826 10.2596 6.92152 10.2873 6.88533 10.315C5.92409 11.0492 5.34908 11.6913 5.34908 11.6913ZM5.34908 11.6913L3.71011 10.2238L2.396 11.6913L3.71011 13.1589L5.34908 11.6913ZM5.34908 11.6913C3.71011 13.1589 3.71056 13.1594 3.71103 13.1599L3.71202 13.161L3.71422 13.1635L3.71953 13.1694L3.73368 13.1849C3.74469 13.197 3.75883 13.2124 3.77603 13.2308C3.81041 13.2677 3.85712 13.317 3.91556 13.377C4.0323 13.4968 4.19672 13.66 4.40412 13.8522C4.81675 14.2344 5.41106 14.7418 6.14898 15.2515C7.58294 16.242 9.77582 17.3913 12.3491 17.3913C14.9223 17.3913 17.1152 16.242 18.5492 15.2515C19.2871 14.7418 19.8814 14.2344 20.294 13.8522C20.5014 13.66 20.6659 13.4968 20.7826 13.377C20.841 13.317 20.8877 13.2677 20.9221 13.2308C20.9393 13.2124 20.9535 13.197 20.9645 13.1849L20.9786 13.1694L20.9839 13.1635L20.9861 13.161L20.9871 13.1599C20.9876 13.1594 20.988 13.1589 19.3491 11.6913C19.3491 11.6913 18.7741 12.3335 17.8128 13.0677C17.7766 13.0953 17.7399 13.1231 17.7026 13.151C16.4186 14.1112 14.4968 15.1913 12.3491 15.1913C10.2014 15.1913 8.2796 14.1112 6.99554 13.151C6.95826 13.1231 6.92152 13.0953 6.88533 13.0677C5.92409 12.3335 5.34908 11.6913 5.34908 11.6913ZM12.3491 14.3163C13.7988 14.3163 14.9741 13.1411 14.9741 11.6913C14.9741 10.2416 13.7988 9.06633 12.3491 9.06633C10.8993 9.06633 9.72408 10.2416 9.72408 11.6913C9.72408 13.1411 10.8993 14.3163 12.3491 14.3163Z" fill="black"/>
</g>
</svg>
