<svg width="24" height="24" viewBox="0 0 24 24" fill="none" xmlns="http://www.w3.org/2000/svg">
<mask id="mask0" mask-type="alpha" maskUnits="userSpaceOnUse" x="0" y="0" width="24" height="24">
<rect width="24" height="24" fill="#C4C4C4"/>
</mask>
<g mask="url(#mask0)">
<path fill-rule="evenodd" clip-rule="evenodd" d="M18.1383 4.07953C17.3004 2.19434 15.0221 1.43909 13.224 2.4505L6.85407 6.0336C6.75285 6.09054 6.67246 6.16181 6.61148 6.24194H19.0994L18.1383 4.07953ZM18.4672 7.46942H18.4501L18.4464 7.46941H5.5C3.567 7.46941 2 9.03642 2 10.9694V17.7785C2 19.7115 3.56701 21.2785 5.5 21.2785H18.4464C20.2505 21.2785 21.7357 19.9136 21.9259 18.1601C21.7827 18.1926 21.6337 18.2098 21.4808 18.2098H14.7404C13.6358 18.2098 12.7404 17.3144 12.7404 16.2098V12.5381C12.7404 11.4335 13.6358 10.5381 14.7404 10.5381H21.4808C21.6337 10.5381 21.7827 10.5553 21.9259 10.5878C21.736 8.83656 20.2543 7.4729 18.4533 7.46942H18.4644L18.4672 7.46942ZM13.8911 13.6888C13.8911 12.5843 14.7866 11.6889 15.8911 11.6889H21.3911C22.4957 11.6889 23.3911 12.5843 23.3911 13.6889V15.059C23.3911 16.1636 22.4957 17.059 21.3911 17.059H15.8911C14.7866 17.059 13.8911 16.1636 13.8911 15.059V13.6888ZM18.1106 14.3739C18.1106 15.0095 17.5954 15.5247 16.9598 15.5247C16.3243 15.5247 15.8091 15.0095 15.8091 14.3739C15.8091 13.7384 16.3243 13.2232 16.9598 13.2232C17.5954 13.2232 18.1106 13.7384 18.1106 14.3739Z" fill="black"/>
</g>
</svg>
