<svg width="24" height="24" viewBox="0 0 24 24" fill="none" xmlns="http://www.w3.org/2000/svg">
<mask id="mask0" mask-type="alpha" maskUnits="userSpaceOnUse" x="0" y="0" width="24" height="24">
<rect width="24" height="24" fill="#C4C4C4"/>
</mask>
<g mask="url(#mask0)">
<path fill-rule="evenodd" clip-rule="evenodd" d="M2.91547 11.1102C7.23726 4.62749 16.7632 4.62749 21.085 11.1102L22.9155 9.88983C17.7229 2.10093 6.27756 2.10093 1.08496 9.88983L2.91547 11.1102ZM5.90137 14.1308C8.86507 9.89694 15.1354 9.89694 18.0991 14.1308L19.9014 12.8692C16.0618 7.38415 7.93859 7.38415 4.09906 12.8692L5.90137 14.1308ZM15.085 17.1102C13.6175 14.909 10.3829 14.909 8.91547 17.1102L7.08496 15.8898C9.42324 12.3824 14.5772 12.3824 16.9155 15.8898L15.085 17.1102ZM12.0002 20.5C12.8286 20.5 13.5002 19.8284 13.5002 19C13.5002 18.1716 12.8286 17.5 12.0002 17.5C11.1718 17.5 10.5002 18.1716 10.5002 19C10.5002 19.8284 11.1718 20.5 12.0002 20.5Z" fill="black"/>
</g>
</svg>
