<svg width="311" height="217" viewBox="0 0 311 217" fill="none" xmlns="http://www.w3.org/2000/svg">
<rect x="3.79272" y="4.29175" width="303.415" height="208.15" fill="black" fill-opacity="0.4"/>
<path fill-rule="evenodd" clip-rule="evenodd" d="M0 25.7505V0H22.7561V4.29175H3.79268L3.79268 25.7505H0Z" fill="#17A53C"/>
<path fill-rule="evenodd" clip-rule="evenodd" d="M288.244 -1.11304e-06L311 0L311 25.7505L307.207 25.7505L307.207 4.29175L288.244 4.29174L288.244 -1.11304e-06Z" fill="#17A53C"/>
<path fill-rule="evenodd" clip-rule="evenodd" d="M311 190.983L311 216.733L288.244 216.733L288.244 212.441L307.207 212.441L307.207 190.983L311 190.983Z" fill="#17A53C"/>
<path fill-rule="evenodd" clip-rule="evenodd" d="M22.7561 216.733L0 216.733L-9.94701e-07 190.983L3.79268 190.983L3.79268 212.441L22.7561 212.441L22.7561 216.733Z" fill="#17A53C"/>
<path opacity="0.4" d="M24.1124 172.575L28.836 174.489V175.829L23.2442 173.238V172.452L24.1124 172.575ZM28.836 171.002L24.1192 172.944L23.2442 173.039V172.247L28.836 169.663V171.002ZM31.0954 172.575L35.8191 174.489V175.829L30.2273 173.238V172.452L31.0954 172.575ZM35.8191 171.002L31.1023 172.944L30.2273 173.039V172.247L35.8191 169.663V171.002ZM38.0785 172.575L42.8021 174.489V175.829L37.2103 173.238V172.452L38.0785 172.575ZM42.8021 171.002L38.0853 172.944L37.2103 173.039V172.247L42.8021 169.663V171.002ZM45.0615 172.575L49.7852 174.489V175.829L44.1934 173.238V172.452L45.0615 172.575ZM49.7852 171.002L45.0684 172.944L44.1934 173.039V172.247L49.7852 169.663V171.002ZM52.0446 172.575L56.7682 174.489V175.829L51.1764 173.238V172.452L52.0446 172.575ZM56.7682 171.002L52.0514 172.944L51.1764 173.039V172.247L56.7682 169.663V171.002ZM59.0276 172.575L63.7512 174.489V175.829L58.1595 173.238V172.452L59.0276 172.575ZM63.7512 171.002L59.0345 172.944L58.1595 173.039V172.247L63.7512 169.663V171.002ZM66.0107 172.575L70.7343 174.489V175.829L65.1425 173.238V172.452L66.0107 172.575ZM70.7343 171.002L66.0175 172.944L65.1425 173.039V172.247L70.7343 169.663V171.002ZM72.9937 172.575L77.7173 174.489V175.829L72.1255 173.238V172.452L72.9937 172.575ZM77.7173 171.002L73.0005 172.944L72.1255 173.039V172.247L77.7173 169.663V171.002ZM79.9768 172.575L84.7004 174.489V175.829L79.1086 173.238V172.452L79.9768 172.575ZM84.7004 171.002L79.9836 172.944L79.1086 173.039V172.247L84.7004 169.663V171.002ZM86.9598 172.575L91.6834 174.489V175.829L86.0916 173.238V172.452L86.9598 172.575ZM91.6834 171.002L86.9666 172.944L86.0916 173.039V172.247L91.6834 169.663V171.002ZM93.9428 172.575L98.6665 174.489V175.829L93.0747 173.238V172.452L93.9428 172.575ZM98.6665 171.002L93.9497 172.944L93.0747 173.039V172.247L98.6665 169.663V171.002ZM100.926 172.575L105.65 174.489V175.829L100.058 173.238V172.452L100.926 172.575ZM105.65 171.002L100.933 172.944L100.058 173.039V172.247L105.65 169.663V171.002ZM107.909 172.575L112.633 174.489V175.829L107.041 173.238V172.452L107.909 172.575ZM112.633 171.002L107.916 172.944L107.041 173.039V172.247L112.633 169.663V171.002ZM114.892 172.575L119.616 174.489V175.829L114.024 173.238V172.452L114.892 172.575ZM119.616 171.002L114.899 172.944L114.024 173.039V172.247L119.616 169.663V171.002ZM121.875 172.575L126.599 174.489V175.829L121.007 173.238V172.452L121.875 172.575ZM126.599 171.002L121.882 172.944L121.007 173.039V172.247L126.599 169.663V171.002ZM128.858 172.575L133.582 174.489V175.829L127.99 173.238V172.452L128.858 172.575ZM133.582 171.002L128.865 172.944L127.99 173.039V172.247L133.582 169.663V171.002ZM135.841 172.575L140.565 174.489V175.829L134.973 173.238V172.452L135.841 172.575ZM140.565 171.002L135.848 172.944L134.973 173.039V172.247L140.565 169.663V171.002ZM142.824 172.575L147.548 174.489V175.829L141.956 173.238V172.452L142.824 172.575ZM147.548 171.002L142.831 172.944L141.956 173.039V172.247L147.548 169.663V171.002ZM149.807 172.575L154.531 174.489V175.829L148.939 173.238V172.452L149.807 172.575ZM154.531 171.002L149.814 172.944L148.939 173.039V172.247L154.531 169.663V171.002ZM156.79 172.575L161.514 174.489V175.829L155.922 173.238V172.452L156.79 172.575ZM161.514 171.002L156.797 172.944L155.922 173.039V172.247L161.514 169.663V171.002ZM163.773 172.575L168.497 174.489V175.829L162.905 173.238V172.452L163.773 172.575ZM168.497 171.002L163.78 172.944L162.905 173.039V172.247L168.497 169.663V171.002ZM170.756 172.575L175.48 174.489V175.829L169.888 173.238V172.452L170.756 172.575ZM175.48 171.002L170.763 172.944L169.888 173.039V172.247L175.48 169.663V171.002ZM177.739 172.575L182.463 174.489V175.829L176.871 173.238V172.452L177.739 172.575ZM182.463 171.002L177.746 172.944L176.871 173.039V172.247L182.463 169.663V171.002ZM184.722 172.575L189.446 174.489V175.829L183.854 173.238V172.452L184.722 172.575ZM189.446 171.002L184.729 172.944L183.854 173.039V172.247L189.446 169.663V171.002ZM191.706 172.575L196.429 174.489V175.829L190.837 173.238V172.452L191.706 172.575ZM196.429 171.002L191.712 172.944L190.837 173.039V172.247L196.429 169.663V171.002ZM198.689 172.575L203.412 174.489V175.829L197.82 173.238V172.452L198.689 172.575ZM203.412 171.002L198.695 172.944L197.82 173.039V172.247L203.412 169.663V171.002ZM205.672 172.575L210.395 174.489V175.829L204.803 173.238V172.452L205.672 172.575ZM210.395 171.002L205.678 172.944L204.803 173.039V172.247L210.395 169.663V171.002ZM212.655 172.575L217.378 174.489V175.829L211.786 173.238V172.452L212.655 172.575ZM217.378 171.002L212.661 172.944L211.786 173.039V172.247L217.378 169.663V171.002ZM219.638 172.575L224.361 174.489V175.829L218.77 173.238V172.452L219.638 172.575ZM224.361 171.002L219.645 172.944L218.77 173.039V172.247L224.361 169.663V171.002ZM226.621 172.575L231.344 174.489V175.829L225.753 173.238V172.452L226.621 172.575ZM231.344 171.002L226.628 172.944L225.753 173.039V172.247L231.344 169.663V171.002ZM233.604 172.575L238.327 174.489V175.829L232.736 173.238V172.452L233.604 172.575ZM238.327 171.002L233.611 172.944L232.736 173.039V172.247L238.327 169.663V171.002ZM240.587 172.575L245.31 174.489V175.829L239.719 173.238V172.452L240.587 172.575ZM245.31 171.002L240.594 172.944L239.719 173.039V172.247L245.31 169.663V171.002ZM247.57 172.575L252.294 174.489V175.829L246.702 173.238V172.452L247.57 172.575ZM252.294 171.002L247.577 172.944L246.702 173.039V172.247L252.294 169.663V171.002ZM254.553 172.575L259.277 174.489V175.829L253.685 173.238V172.452L254.553 172.575ZM259.277 171.002L254.56 172.944L253.685 173.039V172.247L259.277 169.663V171.002ZM261.536 172.575L266.26 174.489V175.829L260.668 173.238V172.452L261.536 172.575ZM266.26 171.002L261.543 172.944L260.668 173.039V172.247L266.26 169.663V171.002ZM268.519 172.575L273.243 174.489V175.829L267.651 173.238V172.452L268.519 172.575ZM273.243 171.002L268.526 172.944L267.651 173.039V172.247L273.243 169.663V171.002ZM275.502 172.575L280.226 174.489V175.829L274.634 173.238V172.452L275.502 172.575ZM280.226 171.002L275.509 172.944L274.634 173.039V172.247L280.226 169.663V171.002ZM282.485 172.575L287.209 174.489V175.829L281.617 173.238V172.452L282.485 172.575ZM287.209 171.002L282.492 172.944L281.617 173.039V172.247L287.209 169.663V171.002ZM24.1124 187.575L28.836 189.489V190.829L23.2442 188.238V187.452L24.1124 187.575ZM28.836 186.002L24.1192 187.944L23.2442 188.039V187.247L28.836 184.663V186.002ZM31.0954 187.575L35.8191 189.489V190.829L30.2273 188.238V187.452L31.0954 187.575ZM35.8191 186.002L31.1023 187.944L30.2273 188.039V187.247L35.8191 184.663V186.002ZM38.0785 187.575L42.8021 189.489V190.829L37.2103 188.238V187.452L38.0785 187.575ZM42.8021 186.002L38.0853 187.944L37.2103 188.039V187.247L42.8021 184.663V186.002ZM45.0615 187.575L49.7852 189.489V190.829L44.1934 188.238V187.452L45.0615 187.575ZM49.7852 186.002L45.0684 187.944L44.1934 188.039V187.247L49.7852 184.663V186.002ZM52.0446 187.575L56.7682 189.489V190.829L51.1764 188.238V187.452L52.0446 187.575ZM56.7682 186.002L52.0514 187.944L51.1764 188.039V187.247L56.7682 184.663V186.002ZM59.0276 187.575L63.7512 189.489V190.829L58.1595 188.238V187.452L59.0276 187.575ZM63.7512 186.002L59.0345 187.944L58.1595 188.039V187.247L63.7512 184.663V186.002ZM66.0107 187.575L70.7343 189.489V190.829L65.1425 188.238V187.452L66.0107 187.575ZM70.7343 186.002L66.0175 187.944L65.1425 188.039V187.247L70.7343 184.663V186.002ZM72.9937 187.575L77.7173 189.489V190.829L72.1255 188.238V187.452L72.9937 187.575ZM77.7173 186.002L73.0005 187.944L72.1255 188.039V187.247L77.7173 184.663V186.002ZM79.9768 187.575L84.7004 189.489V190.829L79.1086 188.238V187.452L79.9768 187.575ZM84.7004 186.002L79.9836 187.944L79.1086 188.039V187.247L84.7004 184.663V186.002ZM86.9598 187.575L91.6834 189.489V190.829L86.0916 188.238V187.452L86.9598 187.575ZM91.6834 186.002L86.9666 187.944L86.0916 188.039V187.247L91.6834 184.663V186.002ZM93.9428 187.575L98.6665 189.489V190.829L93.0747 188.238V187.452L93.9428 187.575ZM98.6665 186.002L93.9497 187.944L93.0747 188.039V187.247L98.6665 184.663V186.002ZM100.926 187.575L105.65 189.489V190.829L100.058 188.238V187.452L100.926 187.575ZM105.65 186.002L100.933 187.944L100.058 188.039V187.247L105.65 184.663V186.002ZM107.909 187.575L112.633 189.489V190.829L107.041 188.238V187.452L107.909 187.575ZM112.633 186.002L107.916 187.944L107.041 188.039V187.247L112.633 184.663V186.002ZM114.892 187.575L119.616 189.489V190.829L114.024 188.238V187.452L114.892 187.575ZM119.616 186.002L114.899 187.944L114.024 188.039V187.247L119.616 184.663V186.002ZM121.875 187.575L126.599 189.489V190.829L121.007 188.238V187.452L121.875 187.575ZM126.599 186.002L121.882 187.944L121.007 188.039V187.247L126.599 184.663V186.002ZM128.858 187.575L133.582 189.489V190.829L127.99 188.238V187.452L128.858 187.575ZM133.582 186.002L128.865 187.944L127.99 188.039V187.247L133.582 184.663V186.002ZM135.841 187.575L140.565 189.489V190.829L134.973 188.238V187.452L135.841 187.575ZM140.565 186.002L135.848 187.944L134.973 188.039V187.247L140.565 184.663V186.002ZM142.824 187.575L147.548 189.489V190.829L141.956 188.238V187.452L142.824 187.575ZM147.548 186.002L142.831 187.944L141.956 188.039V187.247L147.548 184.663V186.002ZM149.807 187.575L154.531 189.489V190.829L148.939 188.238V187.452L149.807 187.575ZM154.531 186.002L149.814 187.944L148.939 188.039V187.247L154.531 184.663V186.002ZM156.79 187.575L161.514 189.489V190.829L155.922 188.238V187.452L156.79 187.575ZM161.514 186.002L156.797 187.944L155.922 188.039V187.247L161.514 184.663V186.002ZM163.773 187.575L168.497 189.489V190.829L162.905 188.238V187.452L163.773 187.575ZM168.497 186.002L163.78 187.944L162.905 188.039V187.247L168.497 184.663V186.002ZM170.756 187.575L175.48 189.489V190.829L169.888 188.238V187.452L170.756 187.575ZM175.48 186.002L170.763 187.944L169.888 188.039V187.247L175.48 184.663V186.002ZM177.739 187.575L182.463 189.489V190.829L176.871 188.238V187.452L177.739 187.575ZM182.463 186.002L177.746 187.944L176.871 188.039V187.247L182.463 184.663V186.002ZM184.722 187.575L189.446 189.489V190.829L183.854 188.238V187.452L184.722 187.575ZM189.446 186.002L184.729 187.944L183.854 188.039V187.247L189.446 184.663V186.002ZM191.706 187.575L196.429 189.489V190.829L190.837 188.238V187.452L191.706 187.575ZM196.429 186.002L191.712 187.944L190.837 188.039V187.247L196.429 184.663V186.002ZM198.689 187.575L203.412 189.489V190.829L197.82 188.238V187.452L198.689 187.575ZM203.412 186.002L198.695 187.944L197.82 188.039V187.247L203.412 184.663V186.002ZM205.672 187.575L210.395 189.489V190.829L204.803 188.238V187.452L205.672 187.575ZM210.395 186.002L205.678 187.944L204.803 188.039V187.247L210.395 184.663V186.002ZM212.655 187.575L217.378 189.489V190.829L211.786 188.238V187.452L212.655 187.575ZM217.378 186.002L212.661 187.944L211.786 188.039V187.247L217.378 184.663V186.002ZM219.638 187.575L224.361 189.489V190.829L218.77 188.238V187.452L219.638 187.575ZM224.361 186.002L219.645 187.944L218.77 188.039V187.247L224.361 184.663V186.002ZM226.621 187.575L231.344 189.489V190.829L225.753 188.238V187.452L226.621 187.575ZM231.344 186.002L226.628 187.944L225.753 188.039V187.247L231.344 184.663V186.002ZM233.604 187.575L238.327 189.489V190.829L232.736 188.238V187.452L233.604 187.575ZM238.327 186.002L233.611 187.944L232.736 188.039V187.247L238.327 184.663V186.002ZM240.587 187.575L245.31 189.489V190.829L239.719 188.238V187.452L240.587 187.575ZM245.31 186.002L240.594 187.944L239.719 188.039V187.247L245.31 184.663V186.002ZM247.57 187.575L252.294 189.489V190.829L246.702 188.238V187.452L247.57 187.575ZM252.294 186.002L247.577 187.944L246.702 188.039V187.247L252.294 184.663V186.002ZM254.553 187.575L259.277 189.489V190.829L253.685 188.238V187.452L254.553 187.575ZM259.277 186.002L254.56 187.944L253.685 188.039V187.247L259.277 184.663V186.002ZM261.536 187.575L266.26 189.489V190.829L260.668 188.238V187.452L261.536 187.575ZM266.26 186.002L261.543 187.944L260.668 188.039V187.247L266.26 184.663V186.002ZM268.519 187.575L273.243 189.489V190.829L267.651 188.238V187.452L268.519 187.575ZM273.243 186.002L268.526 187.944L267.651 188.039V187.247L273.243 184.663V186.002ZM275.502 187.575L280.226 189.489V190.829L274.634 188.238V187.452L275.502 187.575ZM280.226 186.002L275.509 187.944L274.634 188.039V187.247L280.226 184.663V186.002ZM282.485 187.575L287.209 189.489V190.829L281.617 188.238V187.452L282.485 187.575ZM287.209 186.002L282.492 187.944L281.617 188.039V187.247L287.209 184.663V186.002Z" fill="white"/>
<rect opacity="0.4" x="13.0854" y="30.8109" width="84.2098" height="118.049" stroke="white" stroke-width="2"/>
</svg>
